%TF.GenerationSoftware,KiCad,Pcbnew,8.0.8*%
%TF.CreationDate,2025-02-05T17:51:18+01:00*%
%TF.ProjectId,Janus_finalV,4a616e75-735f-4666-996e-616c562e6b69,rev?*%
%TF.SameCoordinates,Original*%
%TF.FileFunction,Copper,L1,Top*%
%TF.FilePolarity,Positive*%
%FSLAX46Y46*%
G04 Gerber Fmt 4.6, Leading zero omitted, Abs format (unit mm)*
G04 Created by KiCad (PCBNEW 8.0.8) date 2025-02-05 17:51:18*
%MOMM*%
%LPD*%
G01*
G04 APERTURE LIST*
G04 Aperture macros list*
%AMRoundRect*
0 Rectangle with rounded corners*
0 $1 Rounding radius*
0 $2 $3 $4 $5 $6 $7 $8 $9 X,Y pos of 4 corners*
0 Add a 4 corners polygon primitive as box body*
4,1,4,$2,$3,$4,$5,$6,$7,$8,$9,$2,$3,0*
0 Add four circle primitives for the rounded corners*
1,1,$1+$1,$2,$3*
1,1,$1+$1,$4,$5*
1,1,$1+$1,$6,$7*
1,1,$1+$1,$8,$9*
0 Add four rect primitives between the rounded corners*
20,1,$1+$1,$2,$3,$4,$5,0*
20,1,$1+$1,$4,$5,$6,$7,0*
20,1,$1+$1,$6,$7,$8,$9,0*
20,1,$1+$1,$8,$9,$2,$3,0*%
G04 Aperture macros list end*
%TA.AperFunction,ComponentPad*%
%ADD10R,1.700000X1.700000*%
%TD*%
%TA.AperFunction,ComponentPad*%
%ADD11O,1.700000X1.700000*%
%TD*%
%TA.AperFunction,ComponentPad*%
%ADD12C,5.400000*%
%TD*%
%TA.AperFunction,SMDPad,CuDef*%
%ADD13RoundRect,0.140000X-0.140000X-0.170000X0.140000X-0.170000X0.140000X0.170000X-0.140000X0.170000X0*%
%TD*%
%TA.AperFunction,SMDPad,CuDef*%
%ADD14R,2.400000X0.740000*%
%TD*%
%TA.AperFunction,ComponentPad*%
%ADD15RoundRect,0.250000X-0.625000X0.350000X-0.625000X-0.350000X0.625000X-0.350000X0.625000X0.350000X0*%
%TD*%
%TA.AperFunction,ComponentPad*%
%ADD16O,1.750000X1.200000*%
%TD*%
%TA.AperFunction,ComponentPad*%
%ADD17R,1.000000X1.000000*%
%TD*%
%TA.AperFunction,ComponentPad*%
%ADD18O,1.000000X1.000000*%
%TD*%
%TA.AperFunction,SMDPad,CuDef*%
%ADD19R,2.000000X1.400000*%
%TD*%
%TA.AperFunction,SMDPad,CuDef*%
%ADD20RoundRect,0.218750X0.256250X-0.218750X0.256250X0.218750X-0.256250X0.218750X-0.256250X-0.218750X0*%
%TD*%
%TA.AperFunction,ComponentPad*%
%ADD21R,1.700000X2.500000*%
%TD*%
%TA.AperFunction,ComponentPad*%
%ADD22O,1.700000X2.500000*%
%TD*%
%TA.AperFunction,SMDPad,CuDef*%
%ADD23RoundRect,0.140000X-0.170000X0.140000X-0.170000X-0.140000X0.170000X-0.140000X0.170000X0.140000X0*%
%TD*%
%TA.AperFunction,SMDPad,CuDef*%
%ADD24RoundRect,0.250000X-0.250000X-0.475000X0.250000X-0.475000X0.250000X0.475000X-0.250000X0.475000X0*%
%TD*%
%TA.AperFunction,SMDPad,CuDef*%
%ADD25R,0.450000X1.750000*%
%TD*%
%TA.AperFunction,ComponentPad*%
%ADD26RoundRect,0.250000X-0.600000X-0.725000X0.600000X-0.725000X0.600000X0.725000X-0.600000X0.725000X0*%
%TD*%
%TA.AperFunction,ComponentPad*%
%ADD27O,1.700000X1.950000*%
%TD*%
%TA.AperFunction,SMDPad,CuDef*%
%ADD28RoundRect,0.140000X0.170000X-0.140000X0.170000X0.140000X-0.170000X0.140000X-0.170000X-0.140000X0*%
%TD*%
%TA.AperFunction,SMDPad,CuDef*%
%ADD29RoundRect,0.250000X-0.475000X0.250000X-0.475000X-0.250000X0.475000X-0.250000X0.475000X0.250000X0*%
%TD*%
%TA.AperFunction,SMDPad,CuDef*%
%ADD30RoundRect,0.140000X0.140000X0.170000X-0.140000X0.170000X-0.140000X-0.170000X0.140000X-0.170000X0*%
%TD*%
%TA.AperFunction,SMDPad,CuDef*%
%ADD31RoundRect,0.075000X0.662500X0.075000X-0.662500X0.075000X-0.662500X-0.075000X0.662500X-0.075000X0*%
%TD*%
%TA.AperFunction,SMDPad,CuDef*%
%ADD32RoundRect,0.075000X0.075000X0.662500X-0.075000X0.662500X-0.075000X-0.662500X0.075000X-0.662500X0*%
%TD*%
%TA.AperFunction,ComponentPad*%
%ADD33RoundRect,0.250000X0.600000X0.725000X-0.600000X0.725000X-0.600000X-0.725000X0.600000X-0.725000X0*%
%TD*%
%TA.AperFunction,ComponentPad*%
%ADD34RoundRect,0.250000X0.600000X0.750000X-0.600000X0.750000X-0.600000X-0.750000X0.600000X-0.750000X0*%
%TD*%
%TA.AperFunction,ComponentPad*%
%ADD35O,1.700000X2.000000*%
%TD*%
%TA.AperFunction,ComponentPad*%
%ADD36RoundRect,0.250000X0.750000X-0.600000X0.750000X0.600000X-0.750000X0.600000X-0.750000X-0.600000X0*%
%TD*%
%TA.AperFunction,ComponentPad*%
%ADD37O,2.000000X1.700000*%
%TD*%
%TA.AperFunction,ViaPad*%
%ADD38C,0.450000*%
%TD*%
%TA.AperFunction,Conductor*%
%ADD39C,0.400000*%
%TD*%
%TA.AperFunction,Conductor*%
%ADD40C,0.300000*%
%TD*%
%TA.AperFunction,Conductor*%
%ADD41C,0.250000*%
%TD*%
%TA.AperFunction,Conductor*%
%ADD42C,0.200000*%
%TD*%
%TA.AperFunction,Conductor*%
%ADD43C,0.500000*%
%TD*%
G04 APERTURE END LIST*
D10*
%TO.P,J14,1,Pin_1*%
%TO.N,GND*%
X140600000Y-79400000D03*
D11*
%TO.P,J14,2,Pin_2*%
X143140000Y-79400000D03*
%TO.P,J14,3,Pin_3*%
X145680000Y-79400000D03*
%TO.P,J14,4,Pin_4*%
X148220000Y-79400000D03*
%TD*%
D12*
%TO.P,H2,1,1*%
%TO.N,GND*%
X147000000Y-85600000D03*
%TD*%
D13*
%TO.P,C11,1*%
%TO.N,NRST*%
X146920000Y-65200000D03*
%TO.P,C11,2*%
%TO.N,GND*%
X147880000Y-65200000D03*
%TD*%
D14*
%TO.P,J7,1,NC*%
%TO.N,unconnected-(J7-NC-Pad1)*%
X148000000Y-63110000D03*
%TO.P,J7,2,NC*%
%TO.N,unconnected-(J7-NC-Pad2)*%
X144100000Y-63110000D03*
%TO.P,J7,3,VCC*%
%TO.N,+3.3V*%
X148000000Y-61840000D03*
%TO.P,J7,4,JTMS/SWDIO*%
%TO.N,SWDIO*%
X144100000Y-61840000D03*
%TO.P,J7,5,GND*%
%TO.N,GND*%
X148000000Y-60570000D03*
%TO.P,J7,6,JCLK/SWCLK*%
%TO.N,SWCLK*%
X144100000Y-60570000D03*
%TO.P,J7,7,GND*%
%TO.N,GND*%
X148000000Y-59300000D03*
%TO.P,J7,8,JTDO/SWO*%
%TO.N,unconnected-(J7-JTDO{slash}SWO-Pad8)*%
X144100000Y-59300000D03*
%TO.P,J7,9,JRCLK/NC*%
%TO.N,unconnected-(J7-JRCLK{slash}NC-Pad9)*%
X148000000Y-58030000D03*
%TO.P,J7,10,JTDI/NC*%
%TO.N,unconnected-(J7-JTDI{slash}NC-Pad10)*%
X144100000Y-58030000D03*
%TO.P,J7,11,GNDDetect*%
%TO.N,GND*%
X148000000Y-56760000D03*
%TO.P,J7,12,~{RST}*%
%TO.N,NRST*%
X144100000Y-56760000D03*
%TO.P,J7,13,VCP_RX*%
%TO.N,STLINK_RX*%
X148000000Y-55490000D03*
%TO.P,J7,14,VCP_TX*%
%TO.N,STLINK_TX*%
X144100000Y-55490000D03*
%TD*%
D15*
%TO.P,J2,1,Pin_1*%
%TO.N,+5V*%
X121500000Y-41600000D03*
D16*
%TO.P,J2,2,Pin_2*%
%TO.N,Triger*%
X121500000Y-43600000D03*
%TO.P,J2,3,Pin_3*%
%TO.N,Echo*%
X121500000Y-45600000D03*
%TO.P,J2,4,Pin_4*%
%TO.N,GND*%
X121500000Y-47600000D03*
%TD*%
D17*
%TO.P,J13,1,Pin_1*%
%TO.N,+3.3V*%
X138100000Y-67250000D03*
D18*
%TO.P,J13,2,Pin_2*%
X138100000Y-68520000D03*
%TD*%
D19*
%TO.P,Switch1,1*%
%TO.N,GND*%
X148300000Y-71500000D03*
%TO.P,Switch1,2*%
%TO.N,unconnected-(Switch1-Pad2)*%
X141300000Y-71500000D03*
%TO.P,Switch1,3*%
%TO.N,NRST*%
X148300000Y-67500000D03*
%TO.P,Switch1,4*%
%TO.N,unconnected-(Switch1-Pad4)*%
X141300000Y-67500000D03*
%TD*%
D20*
%TO.P,L1,1,1*%
%TO.N,+3.3VA*%
X140950000Y-57487500D03*
%TO.P,L1,2,2*%
%TO.N,+3.3V*%
X140950000Y-55912500D03*
%TD*%
D21*
%TO.P,J4,1,IN*%
%TO.N,+7.5V*%
X114820000Y-69100000D03*
D22*
%TO.P,J4,2,GND*%
%TO.N,GND*%
X117360000Y-69100000D03*
%TO.P,J4,3,OUT*%
%TO.N,+5V*%
X119900000Y-69100000D03*
%TD*%
D23*
%TO.P,C10,1*%
%TO.N,+3.3V*%
X137250000Y-62470000D03*
%TO.P,C10,2*%
%TO.N,GND*%
X137250000Y-63430000D03*
%TD*%
D12*
%TO.P,H1,1,1*%
%TO.N,GND*%
X114400000Y-41600000D03*
%TD*%
D23*
%TO.P,C12,1*%
%TO.N,+3.3V*%
X135100000Y-63520000D03*
%TO.P,C12,2*%
%TO.N,GND*%
X135100000Y-64480000D03*
%TD*%
D24*
%TO.P,C4,1*%
%TO.N,+3.3V*%
X131550000Y-68600000D03*
%TO.P,C4,2*%
%TO.N,GND*%
X133450000Y-68600000D03*
%TD*%
D25*
%TO.P,Driver1,1,AO1*%
%TO.N,AO1*%
X128825000Y-79700000D03*
%TO.P,Driver1,2,AO1*%
X129475000Y-79700000D03*
%TO.P,Driver1,3,PGND1*%
%TO.N,GND*%
X130125000Y-79700000D03*
%TO.P,Driver1,4,PGND1*%
X130775000Y-79700000D03*
%TO.P,Driver1,5,AO2*%
%TO.N,AO2*%
X131425000Y-79700000D03*
%TO.P,Driver1,6,AO2*%
X132075000Y-79700000D03*
%TO.P,Driver1,7,BO2*%
%TO.N,BO2*%
X132725000Y-79700000D03*
%TO.P,Driver1,8,BO2*%
X133375000Y-79700000D03*
%TO.P,Driver1,9,PGND2*%
%TO.N,GND*%
X134025000Y-79700000D03*
%TO.P,Driver1,10,PGND2*%
X134675000Y-79700000D03*
%TO.P,Driver1,11,BO1*%
%TO.N,BO1*%
X135325000Y-79700000D03*
%TO.P,Driver1,12,BO1*%
X135975000Y-79700000D03*
%TO.P,Driver1,13,VM2*%
%TO.N,+7.5V*%
X135975000Y-72500000D03*
%TO.P,Driver1,14,VM3*%
X135325000Y-72500000D03*
%TO.P,Driver1,15,PWMB*%
%TO.N,PWMB*%
X134675000Y-72500000D03*
%TO.P,Driver1,16,BIN2*%
%TO.N,BIN2*%
X134025000Y-72500000D03*
%TO.P,Driver1,17,BIN1*%
%TO.N,BIN1*%
X133375000Y-72500000D03*
%TO.P,Driver1,18,GND*%
%TO.N,GND*%
X132725000Y-72500000D03*
%TO.P,Driver1,19,STBY*%
%TO.N,STBY*%
X132075000Y-72500000D03*
%TO.P,Driver1,20,VCC*%
%TO.N,+3.3V*%
X131425000Y-72500000D03*
%TO.P,Driver1,21,AIN1*%
%TO.N,AIN1*%
X130775000Y-72500000D03*
%TO.P,Driver1,22,AIN2*%
%TO.N,AIN2*%
X130125000Y-72500000D03*
%TO.P,Driver1,23,PWMA*%
%TO.N,PWMA*%
X129475000Y-72500000D03*
%TO.P,Driver1,24,VM1*%
%TO.N,+7.5V*%
X128825000Y-72500000D03*
%TD*%
D26*
%TO.P,J5,1,Pin_1*%
%TO.N,GND*%
X114200000Y-62300000D03*
D27*
%TO.P,J5,2,Pin_2*%
%TO.N,+5V*%
X116700000Y-62300000D03*
%TO.P,J5,3,Pin_3*%
%TO.N,PWM_Servo2*%
X119200000Y-62300000D03*
%TD*%
D23*
%TO.P,C14,1*%
%TO.N,+3.3VA*%
X139500000Y-56470000D03*
%TO.P,C14,2*%
%TO.N,GND*%
X139500000Y-57430000D03*
%TD*%
D26*
%TO.P,J6,1,Pin_1*%
%TO.N,GND*%
X114300000Y-54000000D03*
D27*
%TO.P,J6,2,Pin_2*%
%TO.N,+5V*%
X116800000Y-54000000D03*
%TO.P,J6,3,Pin_3*%
%TO.N,PWM_Servo1*%
X119300000Y-54000000D03*
%TD*%
D17*
%TO.P,J12,1,Pin_1*%
%TO.N,+5V*%
X115000000Y-48600000D03*
D18*
%TO.P,J12,2,Pin_2*%
X113730000Y-48600000D03*
%TD*%
D10*
%TO.P,J11,1,Pin_1*%
%TO.N,GPIO1*%
X148240000Y-75700000D03*
D11*
%TO.P,J11,2,Pin_2*%
%TO.N,GPIO2*%
X145700000Y-75700000D03*
%TO.P,J11,3,Pin_3*%
%TO.N,GPIO3*%
X143160000Y-75700000D03*
%TO.P,J11,4,Pin_4*%
%TO.N,GPIO4*%
X140620000Y-75700000D03*
%TD*%
D23*
%TO.P,C5,1*%
%TO.N,+7.5V*%
X127200000Y-73120000D03*
%TO.P,C5,2*%
%TO.N,GND*%
X127200000Y-74080000D03*
%TD*%
D13*
%TO.P,C3,1*%
%TO.N,+3.3V*%
X131820000Y-70400000D03*
%TO.P,C3,2*%
%TO.N,GND*%
X132780000Y-70400000D03*
%TD*%
D12*
%TO.P,H3,1,1*%
%TO.N,GND*%
X147000000Y-41600000D03*
%TD*%
D28*
%TO.P,C8,1*%
%TO.N,+3.3V*%
X127600000Y-53330000D03*
%TO.P,C8,2*%
%TO.N,GND*%
X127600000Y-52370000D03*
%TD*%
D29*
%TO.P,C6,1*%
%TO.N,+7.5V*%
X125600000Y-73150000D03*
%TO.P,C6,2*%
%TO.N,GND*%
X125600000Y-75050000D03*
%TD*%
D30*
%TO.P,C9,1*%
%TO.N,+3.3V*%
X125380000Y-61700000D03*
%TO.P,C9,2*%
%TO.N,GND*%
X124420000Y-61700000D03*
%TD*%
D31*
%TO.P,U1,1,VBAT*%
%TO.N,+3.3V*%
X135462500Y-61350000D03*
%TO.P,U1,2,PC13*%
%TO.N,unconnected-(U1-PC13-Pad2)*%
X135462500Y-60850000D03*
%TO.P,U1,3,PC14*%
%TO.N,unconnected-(U1-PC14-Pad3)*%
X135462500Y-60350000D03*
%TO.P,U1,4,PC15*%
%TO.N,unconnected-(U1-PC15-Pad4)*%
X135462500Y-59850000D03*
%TO.P,U1,5,PH0*%
%TO.N,unconnected-(U1-PH0-Pad5)*%
X135462500Y-59350000D03*
%TO.P,U1,6,PH1*%
%TO.N,unconnected-(U1-PH1-Pad6)*%
X135462500Y-58850000D03*
%TO.P,U1,7,NRST*%
%TO.N,NRST*%
X135462500Y-58350000D03*
%TO.P,U1,8,VSSA*%
%TO.N,GND*%
X135462500Y-57850000D03*
%TO.P,U1,9,VDDA*%
%TO.N,+3.3VA*%
X135462500Y-57350000D03*
%TO.P,U1,10,PA0*%
%TO.N,unconnected-(U1-PA0-Pad10)*%
X135462500Y-56850000D03*
%TO.P,U1,11,PA1*%
%TO.N,unconnected-(U1-PA1-Pad11)*%
X135462500Y-56350000D03*
%TO.P,U1,12,PA2*%
%TO.N,STLINK_TX*%
X135462500Y-55850000D03*
D32*
%TO.P,U1,13,PA3*%
%TO.N,STLINK_RX*%
X134050000Y-54437500D03*
%TO.P,U1,14,PA4*%
%TO.N,IR_1*%
X133550000Y-54437500D03*
%TO.P,U1,15,PA5*%
%TO.N,IR_2*%
X133050000Y-54437500D03*
%TO.P,U1,16,PA6*%
%TO.N,IR_3*%
X132550000Y-54437500D03*
%TO.P,U1,17,PA7*%
%TO.N,IR_4*%
X132050000Y-54437500D03*
%TO.P,U1,18,PB0*%
%TO.N,GPIO1*%
X131550000Y-54437500D03*
%TO.P,U1,19,PB1*%
%TO.N,GPIO2*%
X131050000Y-54437500D03*
%TO.P,U1,20,PB2*%
%TO.N,GPIO3*%
X130550000Y-54437500D03*
%TO.P,U1,21,PB10*%
%TO.N,GPIO4*%
X130050000Y-54437500D03*
%TO.P,U1,22,PB11*%
%TO.N,unconnected-(U1-PB11-Pad22)*%
X129550000Y-54437500D03*
%TO.P,U1,23,VSS*%
%TO.N,GND*%
X129050000Y-54437500D03*
%TO.P,U1,24,VDD*%
%TO.N,+3.3V*%
X128550000Y-54437500D03*
D31*
%TO.P,U1,25,PB12*%
%TO.N,Triger*%
X127137500Y-55850000D03*
%TO.P,U1,26,PB13*%
%TO.N,Echo*%
X127137500Y-56350000D03*
%TO.P,U1,27,PB14*%
%TO.N,unconnected-(U1-PB14-Pad27)*%
X127137500Y-56850000D03*
%TO.P,U1,28,PB15*%
%TO.N,unconnected-(U1-PB15-Pad28)*%
X127137500Y-57350000D03*
%TO.P,U1,29,PA8*%
%TO.N,PWM_Servo1*%
X127137500Y-57850000D03*
%TO.P,U1,30,PA9*%
%TO.N,PWM_Servo2*%
X127137500Y-58350000D03*
%TO.P,U1,31,PA10*%
%TO.N,unconnected-(U1-PA10-Pad31)*%
X127137500Y-58850000D03*
%TO.P,U1,32,PA11*%
%TO.N,unconnected-(U1-PA11-Pad32)*%
X127137500Y-59350000D03*
%TO.P,U1,33,PA12*%
%TO.N,unconnected-(U1-PA12-Pad33)*%
X127137500Y-59850000D03*
%TO.P,U1,34,PA13*%
%TO.N,SWDIO*%
X127137500Y-60350000D03*
%TO.P,U1,35,VSS*%
%TO.N,GND*%
X127137500Y-60850000D03*
%TO.P,U1,36,VDD*%
%TO.N,+3.3V*%
X127137500Y-61350000D03*
D32*
%TO.P,U1,37,PA14*%
%TO.N,SWCLK*%
X128550000Y-62762500D03*
%TO.P,U1,38,PA15*%
%TO.N,unconnected-(U1-PA15-Pad38)*%
X129050000Y-62762500D03*
%TO.P,U1,39,PB3*%
%TO.N,unconnected-(U1-PB3-Pad39)*%
X129550000Y-62762500D03*
%TO.P,U1,40,PB4*%
%TO.N,AIN2*%
X130050000Y-62762500D03*
%TO.P,U1,41,PB5*%
%TO.N,AIN1*%
X130550000Y-62762500D03*
%TO.P,U1,42,PB6*%
%TO.N,PWMA*%
X131050000Y-62762500D03*
%TO.P,U1,43,PB7*%
%TO.N,STBY*%
X131550000Y-62762500D03*
%TO.P,U1,44,PH3*%
%TO.N,BIN1*%
X132050000Y-62762500D03*
%TO.P,U1,45,PB8*%
%TO.N,BIN2*%
X132550000Y-62762500D03*
%TO.P,U1,46,PB9*%
%TO.N,PWMB*%
X133050000Y-62762500D03*
%TO.P,U1,47,VSS*%
%TO.N,GND*%
X133550000Y-62762500D03*
%TO.P,U1,48,VDD*%
%TO.N,+3.3V*%
X134050000Y-62762500D03*
%TD*%
D12*
%TO.P,H4,1,1*%
%TO.N,GND*%
X114400000Y-85600000D03*
%TD*%
D33*
%TO.P,J8,1,Pin_1*%
%TO.N,+5V*%
X139900000Y-47200000D03*
D27*
%TO.P,J8,2,Pin_2*%
%TO.N,IR_1*%
X137400000Y-47200000D03*
%TO.P,J8,3,Pin_3*%
%TO.N,IR_2*%
X134900000Y-47200000D03*
%TO.P,J8,4,Pin_4*%
%TO.N,IR_3*%
X132400000Y-47200000D03*
%TO.P,J8,5,Pin_5*%
%TO.N,IR_4*%
X129900000Y-47200000D03*
%TO.P,J8,6,Pin_6*%
%TO.N,GND*%
X127400000Y-47200000D03*
%TD*%
D23*
%TO.P,C13,1*%
%TO.N,+3.3VA*%
X138450000Y-56470000D03*
%TO.P,C13,2*%
%TO.N,GND*%
X138450000Y-57430000D03*
%TD*%
D29*
%TO.P,C7,1*%
%TO.N,+3.3V*%
X139050000Y-62850000D03*
%TO.P,C7,2*%
%TO.N,GND*%
X139050000Y-64750000D03*
%TD*%
D34*
%TO.P,J9,1,Pin_1*%
%TO.N,AO2*%
X129900000Y-84700000D03*
D35*
%TO.P,J9,2,Pin_2*%
%TO.N,AO1*%
X127400000Y-84700000D03*
%TD*%
D36*
%TO.P,J1,1,Pin_1*%
%TO.N,GND*%
X119200000Y-80050000D03*
D37*
%TO.P,J1,2,Pin_2*%
%TO.N,+7.5V*%
X119200000Y-77550000D03*
%TD*%
D34*
%TO.P,J10,1,Pin_1*%
%TO.N,BO1*%
X139750000Y-84700000D03*
D35*
%TO.P,J10,2,Pin_2*%
%TO.N,BO2*%
X137250000Y-84700000D03*
%TD*%
D38*
%TO.N,GND*%
X150500000Y-71240000D03*
X150500000Y-61080000D03*
X125300000Y-69300000D03*
X123550000Y-57100000D03*
X132170000Y-39400000D03*
X134710000Y-41940000D03*
X124550000Y-39400000D03*
X129400000Y-71100000D03*
X135870000Y-89150000D03*
X128700000Y-60950000D03*
X118090000Y-89150000D03*
X133340000Y-87280000D03*
X110950000Y-53110000D03*
X120630000Y-89150000D03*
X130800000Y-87280000D03*
X138500000Y-70600000D03*
X110950000Y-55650000D03*
X122020000Y-38000000D03*
X134720000Y-38000000D03*
X130500000Y-65800000D03*
X123550000Y-59000000D03*
X129630000Y-44480000D03*
X117680000Y-74040000D03*
X149020000Y-64750000D03*
X129000000Y-77050000D03*
X137050000Y-74700000D03*
X122300000Y-74460000D03*
X112650000Y-64350000D03*
X112600000Y-74040000D03*
X130790000Y-89150000D03*
X130530000Y-51640000D03*
X135880000Y-87280000D03*
X123500000Y-47400000D03*
X115140000Y-81330000D03*
X136300000Y-82800000D03*
X125450000Y-49100000D03*
X110950000Y-75970000D03*
X122300000Y-64500000D03*
X128750000Y-74050000D03*
X144880000Y-38000000D03*
X146460000Y-82140000D03*
X150500000Y-68700000D03*
X142350000Y-41950000D03*
X139790000Y-41940000D03*
X123180000Y-87280000D03*
X137250000Y-44480000D03*
X136000000Y-49450000D03*
X134100000Y-59400000D03*
X118430000Y-48040000D03*
X138410000Y-89150000D03*
X124840000Y-71920000D03*
X122300000Y-71920000D03*
X112650000Y-66890000D03*
X131540000Y-77050000D03*
X137250000Y-39400000D03*
X125720000Y-84740000D03*
X150500000Y-73780000D03*
X115040000Y-56300000D03*
X118430000Y-50580000D03*
X150500000Y-81400000D03*
X149000000Y-82140000D03*
X150500000Y-43300000D03*
X110950000Y-83590000D03*
X144500000Y-67840000D03*
X123500000Y-52480000D03*
X150500000Y-76320000D03*
X147430000Y-51980000D03*
X130450000Y-75100000D03*
X112600000Y-78790000D03*
X136100000Y-63600000D03*
X143920000Y-82140000D03*
X117730000Y-66890000D03*
X150500000Y-78860000D03*
X134650000Y-68450000D03*
X139800000Y-38000000D03*
X126980000Y-76550000D03*
X118100000Y-87280000D03*
X110950000Y-78510000D03*
X129100000Y-82800000D03*
X118430000Y-45500000D03*
X150500000Y-50920000D03*
X118100000Y-84740000D03*
X110950000Y-63270000D03*
X110950000Y-45490000D03*
X110950000Y-60730000D03*
X142350000Y-49440000D03*
X116940000Y-38000000D03*
X127100000Y-38000000D03*
X134080000Y-77050000D03*
X117580000Y-56300000D03*
X141380000Y-84680000D03*
X142350000Y-44450000D03*
X110950000Y-58190000D03*
X122300000Y-60200000D03*
X118100000Y-82200000D03*
X144890000Y-51980000D03*
X134050000Y-64200000D03*
X129630000Y-41940000D03*
X123170000Y-89150000D03*
X139000000Y-58650000D03*
X120640000Y-82200000D03*
X110950000Y-70890000D03*
X150500000Y-83940000D03*
X115040000Y-58840000D03*
X122300000Y-66840000D03*
X125720000Y-82200000D03*
X127090000Y-41940000D03*
X141350000Y-89150000D03*
X128900000Y-65500000D03*
X128900000Y-66500000D03*
X125720000Y-87280000D03*
X150500000Y-56000000D03*
X141500000Y-58550000D03*
X110950000Y-81050000D03*
X123180000Y-84740000D03*
X115890000Y-45500000D03*
X117580000Y-58840000D03*
X130530000Y-49100000D03*
X127090000Y-44480000D03*
X135150000Y-84700000D03*
X118400000Y-39400000D03*
X120120000Y-56300000D03*
X146030000Y-89150000D03*
X121750000Y-73950000D03*
X133700000Y-83250000D03*
X128700000Y-56800000D03*
X112500000Y-58840000D03*
X144890000Y-49440000D03*
X115190000Y-66890000D03*
X113350000Y-45500000D03*
X120640000Y-84740000D03*
X125710000Y-89150000D03*
X142600000Y-53800000D03*
X144890000Y-46900000D03*
X124440000Y-76550000D03*
X132100000Y-61500000D03*
X126980000Y-79090000D03*
X137200000Y-57400000D03*
X150500000Y-45840000D03*
X124250000Y-55250000D03*
X129650000Y-74550000D03*
X125450000Y-51640000D03*
X138540000Y-49450000D03*
X135100000Y-81700000D03*
X121850000Y-55450000D03*
X132600000Y-57400000D03*
X124550000Y-41940000D03*
X137250000Y-64700000D03*
X137750000Y-58650000D03*
X139790000Y-44480000D03*
X118400000Y-41940000D03*
X144500000Y-72920000D03*
X129640000Y-38000000D03*
X122300000Y-58050000D03*
X147430000Y-49440000D03*
X142350000Y-39400000D03*
X134710000Y-39400000D03*
X150500000Y-48380000D03*
X130100000Y-59700000D03*
X127090000Y-39400000D03*
X134650000Y-69500000D03*
X124440000Y-79090000D03*
X122300000Y-69800000D03*
X145900000Y-56700000D03*
X123500000Y-73950000D03*
X137000000Y-69400000D03*
X115550000Y-89150000D03*
X144500000Y-70380000D03*
X120600000Y-61850000D03*
X134000000Y-70200000D03*
X123500000Y-49940000D03*
X142340000Y-38000000D03*
X150500000Y-63620000D03*
X150500000Y-53460000D03*
X115140000Y-78790000D03*
X137000000Y-53900000D03*
X124560000Y-38000000D03*
X131100000Y-61500000D03*
X115140000Y-76250000D03*
X127990000Y-49100000D03*
X133330000Y-89150000D03*
X134100000Y-55800000D03*
X119480000Y-38000000D03*
X110950000Y-65810000D03*
X128260000Y-87280000D03*
X110950000Y-68350000D03*
X132180000Y-38000000D03*
X120000000Y-75900000D03*
X134900000Y-53900000D03*
X110950000Y-50570000D03*
X112600000Y-71500000D03*
X141380000Y-87220000D03*
X125350000Y-60650000D03*
X134000000Y-71000000D03*
X120800000Y-74900000D03*
X147430000Y-46900000D03*
X137750000Y-82800000D03*
X125750000Y-57050000D03*
X130500000Y-66650000D03*
X115140000Y-71500000D03*
X138500000Y-72600000D03*
X124550000Y-44480000D03*
X120640000Y-87280000D03*
X124650000Y-59000000D03*
X128700000Y-58300000D03*
X130200000Y-81900000D03*
X134600000Y-50800000D03*
X115190000Y-64350000D03*
X112600000Y-81330000D03*
X123180000Y-82200000D03*
X150500000Y-58540000D03*
X128700000Y-59700000D03*
X121900000Y-79090000D03*
X128250000Y-89150000D03*
X132350000Y-81900000D03*
X141380000Y-82140000D03*
X117730000Y-64350000D03*
X142350000Y-46900000D03*
X130100000Y-61500000D03*
X127380000Y-71920000D03*
X126650000Y-62100000D03*
X133450000Y-67250000D03*
X115140000Y-74040000D03*
X144000000Y-64000000D03*
X134100000Y-61100000D03*
X143490000Y-89150000D03*
X132600000Y-55800000D03*
X141400000Y-64750000D03*
X142350000Y-51980000D03*
X121900000Y-76550000D03*
X132170000Y-44480000D03*
X137250000Y-41940000D03*
X132170000Y-41940000D03*
X129630000Y-39400000D03*
X117680000Y-71500000D03*
X120120000Y-58840000D03*
X138420000Y-87280000D03*
X110950000Y-48030000D03*
X110950000Y-42950000D03*
X150500000Y-66160000D03*
X112500000Y-56300000D03*
X134710000Y-44480000D03*
X137260000Y-38000000D03*
X125850000Y-59000000D03*
X136620000Y-77050000D03*
X112600000Y-76250000D03*
X139790000Y-39400000D03*
X140400000Y-58600000D03*
X144500000Y-65300000D03*
X110950000Y-73430000D03*
X125300000Y-68400000D03*
%TO.N,+5V*%
X120100000Y-64550000D03*
%TO.N,+3.3V*%
X127800000Y-69300000D03*
X135750000Y-62500000D03*
X129400000Y-69800000D03*
X127800000Y-68400000D03*
X126900000Y-69300000D03*
X130500000Y-67750000D03*
X128700000Y-69300000D03*
X126900000Y-68400000D03*
X142300000Y-55950000D03*
X128700000Y-68400000D03*
X127550000Y-54300000D03*
X130500001Y-68600001D03*
X149850000Y-62200000D03*
X125600000Y-62750000D03*
X128700000Y-67700000D03*
%TO.N,+7.5V*%
X137000000Y-72400000D03*
X137000000Y-73100000D03*
X137000000Y-70300000D03*
X137000000Y-71000000D03*
X137000000Y-71700000D03*
%TO.N,NRST*%
X142250000Y-59300000D03*
X142250000Y-64350000D03*
%TO.N,BIN2*%
X133553652Y-65526383D03*
X134471232Y-74971232D03*
%TO.N,PWMA*%
X130950000Y-64726818D03*
X130550000Y-74100000D03*
%TO.N,BIN1*%
X132571082Y-65392343D03*
X133400000Y-75000000D03*
%TO.N,STBY*%
X131235996Y-74511598D03*
X131655548Y-65325339D03*
%TO.N,PWMB*%
X134350000Y-65450000D03*
X135380853Y-74804075D03*
%TO.N,SWCLK*%
X139925735Y-60674265D03*
X131600000Y-60700000D03*
%TO.N,SWDIO*%
X130850934Y-60150000D03*
X141100000Y-61550000D03*
%TO.N,GPIO4*%
X130000000Y-57400000D03*
%TO.N,GPIO2*%
X130950000Y-52700000D03*
%TO.N,GPIO1*%
X131450000Y-52075499D03*
%TO.N,GPIO3*%
X133800000Y-56875000D03*
%TD*%
D39*
%TO.N,+5V*%
X120100000Y-64550000D02*
X119900000Y-64750000D01*
X119900000Y-64750000D02*
X119900000Y-69100000D01*
D40*
%TO.N,+3.3V*%
X130500001Y-68600001D02*
X131549999Y-68600001D01*
D41*
X125380000Y-61700000D02*
X125730000Y-61350000D01*
X134807500Y-63520000D02*
X134050000Y-62762500D01*
X142300000Y-55950000D02*
X142262500Y-55912500D01*
D40*
X131550000Y-68600000D02*
X131550000Y-70130000D01*
X131425000Y-70795000D02*
X131425000Y-72500000D01*
D41*
X127550000Y-53380000D02*
X127600000Y-53330000D01*
D40*
X131550000Y-70130000D02*
X131820000Y-70400000D01*
D41*
X125600000Y-62750000D02*
X125300000Y-62450000D01*
X135750000Y-62870000D02*
X135100000Y-63520000D01*
X135750000Y-62500000D02*
X135750000Y-61637500D01*
X127800000Y-54550000D02*
X128437500Y-54550000D01*
X142262500Y-55912500D02*
X140950000Y-55912500D01*
X149850000Y-62200000D02*
X149490000Y-61840000D01*
X137220000Y-62500000D02*
X137250000Y-62470000D01*
X125730000Y-61350000D02*
X127137500Y-61350000D01*
X127550000Y-54300000D02*
X127800000Y-54550000D01*
X135750000Y-62500000D02*
X137220000Y-62500000D01*
X138670000Y-62470000D02*
X139050000Y-62850000D01*
X135750000Y-61637500D02*
X135462500Y-61350000D01*
X135100000Y-63520000D02*
X134807500Y-63520000D01*
X149490000Y-61840000D02*
X148000000Y-61840000D01*
X127550000Y-54300000D02*
X127550000Y-53380000D01*
X125300000Y-62450000D02*
X125300000Y-61780000D01*
X135750000Y-62500000D02*
X135750000Y-62870000D01*
X125300000Y-61780000D02*
X125380000Y-61700000D01*
X128437500Y-54550000D02*
X128550000Y-54437500D01*
D40*
X131549999Y-68600001D02*
X131550000Y-68600000D01*
X131820000Y-70400000D02*
X131425000Y-70795000D01*
D41*
X137250000Y-62470000D02*
X138670000Y-62470000D01*
D39*
%TO.N,+7.5V*%
X127170000Y-73150000D02*
X127200000Y-73120000D01*
X125600000Y-73150000D02*
X127170000Y-73150000D01*
X119200000Y-75400000D02*
X121450000Y-73150000D01*
X128205000Y-73120000D02*
X128825000Y-72500000D01*
X127200000Y-73120000D02*
X128205000Y-73120000D01*
X119200000Y-77550000D02*
X119200000Y-75400000D01*
X121450000Y-73150000D02*
X125600000Y-73150000D01*
D42*
%TO.N,NRST*%
X146920000Y-65200000D02*
X146920000Y-66120000D01*
X142200000Y-59250000D02*
X137132410Y-59250000D01*
X146320000Y-64600000D02*
X146920000Y-65200000D01*
X142250000Y-57400000D02*
X142890000Y-56760000D01*
X137132410Y-59250000D02*
X136232410Y-58350000D01*
X142890000Y-56760000D02*
X144100000Y-56760000D01*
X136232410Y-58350000D02*
X135462500Y-58350000D01*
X146920000Y-66120000D02*
X148300000Y-67500000D01*
X142250000Y-59300000D02*
X142200000Y-59250000D01*
X142250000Y-59300000D02*
X142250000Y-57400000D01*
X142500000Y-64600000D02*
X146320000Y-64600000D01*
X142250000Y-64350000D02*
X142500000Y-64600000D01*
D40*
%TO.N,+3.3VA*%
X138450000Y-56470000D02*
X139500000Y-56470000D01*
D42*
X137112410Y-56470000D02*
X138450000Y-56470000D01*
X135462500Y-57350000D02*
X136232410Y-57350000D01*
X136232410Y-57350000D02*
X137112410Y-56470000D01*
D40*
X139932500Y-56470000D02*
X140950000Y-57487500D01*
X139500000Y-56470000D02*
X139932500Y-56470000D01*
D42*
%TO.N,AIN2*%
X130050000Y-62762500D02*
X130050000Y-63884314D01*
X130125000Y-69709925D02*
X130125000Y-72500000D01*
X130050000Y-63884314D02*
X129450000Y-64484314D01*
X129450000Y-69034925D02*
X130125000Y-69709925D01*
X129450000Y-64484314D02*
X129450000Y-69034925D01*
%TO.N,BIN2*%
X134471232Y-74971232D02*
X134471232Y-73996232D01*
X134471232Y-73996232D02*
X134025000Y-73550000D01*
X133553652Y-65526383D02*
X132550000Y-64522731D01*
X134025000Y-73550000D02*
X134025000Y-72500000D01*
X132550000Y-64522731D02*
X132550000Y-62762500D01*
D39*
%TO.N,BO2*%
X132725000Y-79700000D02*
X132725000Y-81125000D01*
D43*
X133375000Y-81775000D02*
X136300000Y-84700000D01*
X136300000Y-84700000D02*
X137250000Y-84700000D01*
D39*
X133375000Y-79700000D02*
X133375000Y-81775000D01*
X132725000Y-81125000D02*
X133375000Y-81775000D01*
%TO.N,AO1*%
X129475000Y-80525000D02*
X128825000Y-81175000D01*
D43*
X127400000Y-82600000D02*
X127400000Y-84700000D01*
D39*
X128825000Y-81175000D02*
X128825000Y-79700000D01*
X129475000Y-79700000D02*
X129475000Y-80525000D01*
D43*
X128825000Y-81175000D02*
X127400000Y-82600000D01*
D39*
%TO.N,BO1*%
X135325000Y-79700000D02*
X135325000Y-80275000D01*
X135975000Y-79700000D02*
X135975000Y-80925000D01*
D43*
X139750000Y-83550000D02*
X139750000Y-84700000D01*
X136350000Y-81300000D02*
X137500000Y-81300000D01*
X137500000Y-81300000D02*
X139750000Y-83550000D01*
D39*
X135325000Y-80275000D02*
X135975000Y-80925000D01*
D43*
X135975000Y-80925000D02*
X136350000Y-81300000D01*
D42*
%TO.N,PWMA*%
X131050000Y-64626818D02*
X131050000Y-62762500D01*
X130550000Y-74100000D02*
X130000000Y-74100000D01*
X130950000Y-64726818D02*
X131050000Y-64626818D01*
X129475000Y-73575000D02*
X129475000Y-72500000D01*
X130000000Y-74100000D02*
X129475000Y-73575000D01*
%TO.N,AIN1*%
X129850000Y-68869239D02*
X129850000Y-64650000D01*
X130800000Y-69819239D02*
X129850000Y-68869239D01*
X130800000Y-72475000D02*
X130800000Y-69819239D01*
X129850000Y-64650000D02*
X130550000Y-63950000D01*
X130775000Y-72500000D02*
X130800000Y-72475000D01*
X130550000Y-63950000D02*
X130550000Y-62762500D01*
%TO.N,BIN1*%
X132571082Y-65392343D02*
X132050000Y-64871261D01*
X133375000Y-73575000D02*
X133375000Y-72500000D01*
X132050000Y-64871261D02*
X132050000Y-62762500D01*
X133400000Y-73600000D02*
X133375000Y-73575000D01*
X133400000Y-75000000D02*
X133400000Y-73600000D01*
D39*
%TO.N,AO2*%
X131425000Y-81525000D02*
X131425000Y-79700000D01*
D43*
X131425000Y-83175000D02*
X129900000Y-84700000D01*
D39*
X131425000Y-81475000D02*
X131425000Y-81525000D01*
X132075000Y-79700000D02*
X132075000Y-80825000D01*
X132075000Y-80825000D02*
X131425000Y-81475000D01*
D43*
X131425000Y-81525000D02*
X131425000Y-83175000D01*
D42*
%TO.N,STBY*%
X131655548Y-65042495D02*
X131550000Y-64936947D01*
X131235996Y-74511598D02*
X131235996Y-74389004D01*
X131550000Y-64936947D02*
X131550000Y-62762500D01*
X131655548Y-65325339D02*
X131655548Y-65042495D01*
X132075000Y-73550000D02*
X132075000Y-72500000D01*
X131235996Y-74389004D02*
X132075000Y-73550000D01*
%TO.N,PWMB*%
X135380853Y-74804075D02*
X135380853Y-74255853D01*
X133052319Y-62764819D02*
X133050000Y-62762500D01*
X133052319Y-64152319D02*
X133052319Y-62764819D01*
X134675000Y-73550000D02*
X134675000Y-72500000D01*
X135380853Y-74255853D02*
X134675000Y-73550000D01*
X134350000Y-65450000D02*
X133052319Y-64152319D01*
%TO.N,Triger*%
X127137500Y-55850000D02*
X126433276Y-55850000D01*
X126433276Y-55850000D02*
X124600000Y-54016724D01*
X124600000Y-46700000D02*
X121500000Y-43600000D01*
X124600000Y-54016724D02*
X124600000Y-46700000D01*
%TO.N,Echo*%
X124200000Y-46865686D02*
X124200000Y-54182410D01*
X124200000Y-54182410D02*
X126367590Y-56350000D01*
X121500000Y-45600000D02*
X122934314Y-45600000D01*
X126367590Y-56350000D02*
X127137500Y-56350000D01*
X122934314Y-45600000D02*
X124200000Y-46865686D01*
%TO.N,PWM_Servo2*%
X123150000Y-58350000D02*
X119200000Y-62300000D01*
X127137500Y-58350000D02*
X123150000Y-58350000D01*
%TO.N,PWM_Servo1*%
X127137500Y-57850000D02*
X123150000Y-57850000D01*
X123150000Y-57850000D02*
X119300000Y-54000000D01*
%TO.N,SWCLK*%
X128550000Y-62762500D02*
X128550000Y-61992590D01*
X128817590Y-61725000D02*
X128825000Y-61725000D01*
X140030000Y-60570000D02*
X144100000Y-60570000D01*
X131550000Y-60750000D02*
X131600000Y-60700000D01*
X128550000Y-61992590D02*
X128817590Y-61725000D01*
X129800000Y-60750000D02*
X131550000Y-60750000D01*
X128825000Y-61725000D02*
X129800000Y-60750000D01*
X139925735Y-60674265D02*
X140030000Y-60570000D01*
%TO.N,SWDIO*%
X130650934Y-60350000D02*
X127137500Y-60350000D01*
X141390000Y-61840000D02*
X144100000Y-61840000D01*
X141100000Y-61550000D02*
X141390000Y-61840000D01*
X130850934Y-60150000D02*
X130650934Y-60350000D01*
%TO.N,STLINK_TX*%
X136362500Y-54950000D02*
X135462500Y-55850000D01*
X144100000Y-55490000D02*
X143560000Y-54950000D01*
X143560000Y-54950000D02*
X136362500Y-54950000D01*
%TO.N,STLINK_RX*%
X134162500Y-54550000D02*
X147060000Y-54550000D01*
X147060000Y-54550000D02*
X148000000Y-55490000D01*
X134050000Y-54437500D02*
X134162500Y-54550000D01*
%TO.N,IR_2*%
X133050000Y-50684314D02*
X133050000Y-54437500D01*
X134900000Y-48834314D02*
X133050000Y-50684314D01*
X134900000Y-47200000D02*
X134900000Y-48834314D01*
%TO.N,IR_4*%
X132050000Y-54437500D02*
X132050000Y-49350000D01*
X132050000Y-49350000D02*
X129900000Y-47200000D01*
%TO.N,IR_1*%
X137100000Y-47200000D02*
X133550000Y-50750000D01*
X137400000Y-47200000D02*
X137100000Y-47200000D01*
X133550000Y-50750000D02*
X133550000Y-54437500D01*
%TO.N,IR_3*%
X132400000Y-47200000D02*
X132550000Y-47350000D01*
X132550000Y-47350000D02*
X132550000Y-54437500D01*
%TO.N,GPIO4*%
X130050000Y-57350000D02*
X130050000Y-54437500D01*
X130000000Y-57400000D02*
X130050000Y-57350000D01*
%TO.N,GPIO2*%
X131050000Y-52800000D02*
X131050000Y-54437500D01*
X130950000Y-52700000D02*
X131050000Y-52800000D01*
%TO.N,GPIO1*%
X131550000Y-52175499D02*
X131550000Y-54437500D01*
X131450000Y-52075499D02*
X131550000Y-52175499D01*
%TO.N,GPIO3*%
X130550000Y-55207410D02*
X130550000Y-54437500D01*
X132217590Y-56875000D02*
X130550000Y-55207410D01*
X133800000Y-56875000D02*
X132217590Y-56875000D01*
%TD*%
%TA.AperFunction,Conductor*%
%TO.N,+7.5V*%
G36*
X137793039Y-70019685D02*
G01*
X137838794Y-70072489D01*
X137850000Y-70124000D01*
X137850000Y-73376000D01*
X137830315Y-73443039D01*
X137777511Y-73488794D01*
X137726000Y-73500000D01*
X135224500Y-73500000D01*
X135157461Y-73480315D01*
X135111706Y-73427511D01*
X135100500Y-73376000D01*
X135100500Y-71605249D01*
X135100499Y-71605247D01*
X135088868Y-71546773D01*
X135088867Y-71546772D01*
X135088867Y-71546769D01*
X135070897Y-71519876D01*
X135050020Y-71453199D01*
X135050000Y-71450986D01*
X135050000Y-70124000D01*
X135069685Y-70056961D01*
X135122489Y-70011206D01*
X135174000Y-70000000D01*
X137726000Y-70000000D01*
X137793039Y-70019685D01*
G37*
%TD.AperFunction*%
%TD*%
%TA.AperFunction,Conductor*%
%TO.N,GND*%
G36*
X142674075Y-79207007D02*
G01*
X142640000Y-79334174D01*
X142640000Y-79465826D01*
X142674075Y-79592993D01*
X142706988Y-79650000D01*
X141033012Y-79650000D01*
X141065925Y-79592993D01*
X141100000Y-79465826D01*
X141100000Y-79334174D01*
X141065925Y-79207007D01*
X141033012Y-79150000D01*
X142706988Y-79150000D01*
X142674075Y-79207007D01*
G37*
%TD.AperFunction*%
%TA.AperFunction,Conductor*%
G36*
X145214075Y-79207007D02*
G01*
X145180000Y-79334174D01*
X145180000Y-79465826D01*
X145214075Y-79592993D01*
X145246988Y-79650000D01*
X143573012Y-79650000D01*
X143605925Y-79592993D01*
X143640000Y-79465826D01*
X143640000Y-79334174D01*
X143605925Y-79207007D01*
X143573012Y-79150000D01*
X145246988Y-79150000D01*
X145214075Y-79207007D01*
G37*
%TD.AperFunction*%
%TA.AperFunction,Conductor*%
G36*
X147754075Y-79207007D02*
G01*
X147720000Y-79334174D01*
X147720000Y-79465826D01*
X147754075Y-79592993D01*
X147786988Y-79650000D01*
X146113012Y-79650000D01*
X146145925Y-79592993D01*
X146180000Y-79465826D01*
X146180000Y-79334174D01*
X146145925Y-79207007D01*
X146113012Y-79150000D01*
X147786988Y-79150000D01*
X147754075Y-79207007D01*
G37*
%TD.AperFunction*%
%TA.AperFunction,Conductor*%
G36*
X147002855Y-37650632D02*
G01*
X147358697Y-37667083D01*
X147370086Y-37668139D01*
X147720051Y-37716957D01*
X147731295Y-37719059D01*
X148075261Y-37799959D01*
X148086251Y-37803086D01*
X148421306Y-37915385D01*
X148431960Y-37919513D01*
X148755209Y-38062241D01*
X148765436Y-38067333D01*
X149006689Y-38201710D01*
X149074131Y-38239275D01*
X149083869Y-38245304D01*
X149331757Y-38415112D01*
X149375374Y-38444990D01*
X149384511Y-38451890D01*
X149656356Y-38677626D01*
X149664820Y-38685343D01*
X149914656Y-38935179D01*
X149922373Y-38943643D01*
X150148107Y-39215485D01*
X150155009Y-39224625D01*
X150354695Y-39516130D01*
X150360724Y-39525868D01*
X150532659Y-39834550D01*
X150537764Y-39844803D01*
X150680481Y-40168026D01*
X150684619Y-40178706D01*
X150796909Y-40513735D01*
X150800043Y-40524751D01*
X150880938Y-40868696D01*
X150883043Y-40879955D01*
X150931859Y-41229905D01*
X150932916Y-41241309D01*
X150949368Y-41597144D01*
X150949500Y-41602871D01*
X150949500Y-85597128D01*
X150949368Y-85602855D01*
X150932916Y-85958690D01*
X150931859Y-85970094D01*
X150883043Y-86320044D01*
X150880938Y-86331303D01*
X150800043Y-86675248D01*
X150796909Y-86686264D01*
X150684619Y-87021293D01*
X150680481Y-87031973D01*
X150537764Y-87355196D01*
X150532659Y-87365449D01*
X150360724Y-87674131D01*
X150354695Y-87683869D01*
X150155009Y-87975374D01*
X150148107Y-87984514D01*
X149922373Y-88256356D01*
X149914656Y-88264820D01*
X149664820Y-88514656D01*
X149656356Y-88522373D01*
X149384514Y-88748107D01*
X149375374Y-88755009D01*
X149083869Y-88954695D01*
X149074131Y-88960724D01*
X148765449Y-89132659D01*
X148755196Y-89137764D01*
X148431973Y-89280481D01*
X148421293Y-89284619D01*
X148086264Y-89396909D01*
X148075248Y-89400043D01*
X147731303Y-89480938D01*
X147720044Y-89483043D01*
X147370094Y-89531859D01*
X147358690Y-89532916D01*
X147002855Y-89549368D01*
X146997128Y-89549500D01*
X114402872Y-89549500D01*
X114397145Y-89549368D01*
X114041309Y-89532916D01*
X114029905Y-89531859D01*
X113679955Y-89483043D01*
X113668696Y-89480938D01*
X113324751Y-89400043D01*
X113313735Y-89396909D01*
X112978706Y-89284619D01*
X112968026Y-89280481D01*
X112644803Y-89137764D01*
X112634555Y-89132661D01*
X112534830Y-89077115D01*
X112325868Y-88960724D01*
X112316130Y-88954695D01*
X112024625Y-88755009D01*
X112015485Y-88748107D01*
X111743643Y-88522373D01*
X111735179Y-88514656D01*
X111485343Y-88264820D01*
X111477626Y-88256356D01*
X111251892Y-87984514D01*
X111244990Y-87975374D01*
X111045304Y-87683869D01*
X111039275Y-87674131D01*
X110997041Y-87598306D01*
X110867333Y-87365436D01*
X110862241Y-87355209D01*
X110719513Y-87031960D01*
X110715385Y-87021306D01*
X110603086Y-86686251D01*
X110599959Y-86675261D01*
X110519059Y-86331295D01*
X110516956Y-86320044D01*
X110516000Y-86313194D01*
X110468139Y-85970086D01*
X110467083Y-85958690D01*
X110462526Y-85860131D01*
X110450632Y-85602855D01*
X110450566Y-85600000D01*
X111194958Y-85600000D01*
X111215110Y-85958846D01*
X111215112Y-85958858D01*
X111275314Y-86313185D01*
X111275316Y-86313194D01*
X111374812Y-86658552D01*
X111512353Y-86990609D01*
X111512355Y-86990613D01*
X111686215Y-87305189D01*
X111686218Y-87305194D01*
X111894193Y-87598306D01*
X111966843Y-87679601D01*
X113284728Y-86361716D01*
X113370278Y-86479466D01*
X113520534Y-86629722D01*
X113638281Y-86715270D01*
X112320397Y-88033155D01*
X112401693Y-88105806D01*
X112694805Y-88313781D01*
X112694810Y-88313784D01*
X113009386Y-88487644D01*
X113009390Y-88487646D01*
X113341447Y-88625187D01*
X113686805Y-88724683D01*
X113686814Y-88724685D01*
X114041141Y-88784887D01*
X114041153Y-88784889D01*
X114400000Y-88805041D01*
X114758846Y-88784889D01*
X114758858Y-88784887D01*
X115113185Y-88724685D01*
X115113194Y-88724683D01*
X115458552Y-88625187D01*
X115790609Y-88487646D01*
X115790613Y-88487644D01*
X116105189Y-88313784D01*
X116105194Y-88313781D01*
X116398306Y-88105806D01*
X116479601Y-88033155D01*
X115161717Y-86715270D01*
X115279466Y-86629722D01*
X115429722Y-86479466D01*
X115515270Y-86361717D01*
X116833155Y-87679601D01*
X116905806Y-87598306D01*
X117113781Y-87305194D01*
X117113784Y-87305189D01*
X117287644Y-86990613D01*
X117287646Y-86990609D01*
X117425187Y-86658552D01*
X117524683Y-86313194D01*
X117524685Y-86313185D01*
X117584887Y-85958858D01*
X117584889Y-85958846D01*
X117605041Y-85600000D01*
X117584889Y-85241153D01*
X117584887Y-85241141D01*
X117524685Y-84886814D01*
X117524683Y-84886805D01*
X117425187Y-84541447D01*
X117385872Y-84446530D01*
X126349500Y-84446530D01*
X126349500Y-84953469D01*
X126389868Y-85156412D01*
X126389870Y-85156420D01*
X126469058Y-85347596D01*
X126584024Y-85519657D01*
X126730342Y-85665975D01*
X126730345Y-85665977D01*
X126902402Y-85780941D01*
X127093580Y-85860130D01*
X127282187Y-85897646D01*
X127296530Y-85900499D01*
X127296534Y-85900500D01*
X127296535Y-85900500D01*
X127503466Y-85900500D01*
X127503467Y-85900499D01*
X127706420Y-85860130D01*
X127897598Y-85780941D01*
X128069655Y-85665977D01*
X128215977Y-85519655D01*
X128330941Y-85347598D01*
X128410130Y-85156420D01*
X128450500Y-84953465D01*
X128450500Y-84446535D01*
X128410130Y-84243580D01*
X128330941Y-84052402D01*
X128226257Y-83895730D01*
X128849500Y-83895730D01*
X128849500Y-85504269D01*
X128852353Y-85534699D01*
X128852353Y-85534701D01*
X128897206Y-85662880D01*
X128897207Y-85662882D01*
X128977850Y-85772150D01*
X129087118Y-85852793D01*
X129108089Y-85860131D01*
X129215299Y-85897646D01*
X129245730Y-85900500D01*
X129245734Y-85900500D01*
X130554270Y-85900500D01*
X130584699Y-85897646D01*
X130584701Y-85897646D01*
X130648790Y-85875219D01*
X130712882Y-85852793D01*
X130822150Y-85772150D01*
X130902793Y-85662882D01*
X130940252Y-85555830D01*
X130947646Y-85534701D01*
X130947646Y-85534699D01*
X130950500Y-85504269D01*
X130950500Y-84337965D01*
X130970185Y-84270926D01*
X130986819Y-84250284D01*
X131356762Y-83880341D01*
X131785490Y-83451614D01*
X131844799Y-83348887D01*
X131851285Y-83324675D01*
X131851286Y-83324675D01*
X131851286Y-83324671D01*
X131875500Y-83234309D01*
X131875500Y-81642255D01*
X131895185Y-81575216D01*
X131911819Y-81554574D01*
X132014786Y-81451607D01*
X132177136Y-81289256D01*
X132238457Y-81255773D01*
X132308148Y-81260757D01*
X132364082Y-81302628D01*
X132372201Y-81314937D01*
X132388810Y-81343703D01*
X132404520Y-81370913D01*
X132404522Y-81370915D01*
X132921716Y-81888109D01*
X132953808Y-81943691D01*
X132955199Y-81948884D01*
X132955200Y-81948886D01*
X132955201Y-81948887D01*
X133014511Y-82051614D01*
X136023386Y-85060490D01*
X136126113Y-85119799D01*
X136150322Y-85126285D01*
X136150326Y-85126287D01*
X136150327Y-85126287D01*
X136177943Y-85133687D01*
X136237603Y-85170052D01*
X136260409Y-85206007D01*
X136319058Y-85347597D01*
X136434024Y-85519657D01*
X136580342Y-85665975D01*
X136580345Y-85665977D01*
X136752402Y-85780941D01*
X136943580Y-85860130D01*
X137132187Y-85897646D01*
X137146530Y-85900499D01*
X137146534Y-85900500D01*
X137146535Y-85900500D01*
X137353466Y-85900500D01*
X137353467Y-85900499D01*
X137556420Y-85860130D01*
X137747598Y-85780941D01*
X137919655Y-85665977D01*
X138065977Y-85519655D01*
X138180941Y-85347598D01*
X138260130Y-85156420D01*
X138300500Y-84953465D01*
X138300500Y-84446535D01*
X138260130Y-84243580D01*
X138180941Y-84052402D01*
X138065977Y-83880345D01*
X138065975Y-83880342D01*
X137919657Y-83734024D01*
X137833626Y-83676541D01*
X137747598Y-83619059D01*
X137700499Y-83599550D01*
X137556420Y-83539870D01*
X137556412Y-83539868D01*
X137353469Y-83499500D01*
X137353465Y-83499500D01*
X137146535Y-83499500D01*
X137146530Y-83499500D01*
X136943587Y-83539868D01*
X136943579Y-83539870D01*
X136752403Y-83619058D01*
X136580342Y-83734024D01*
X136434025Y-83880341D01*
X136434022Y-83880345D01*
X136391164Y-83944487D01*
X136337552Y-83989292D01*
X136268227Y-83997999D01*
X136205199Y-83967844D01*
X136200381Y-83963277D01*
X133811819Y-81574715D01*
X133778334Y-81513392D01*
X133775500Y-81487034D01*
X133775500Y-81150862D01*
X133795185Y-81083823D01*
X133800000Y-81077847D01*
X133800000Y-81075000D01*
X134250000Y-81075000D01*
X134297821Y-81075000D01*
X134297831Y-81074999D01*
X134336742Y-81070815D01*
X134363258Y-81070815D01*
X134402168Y-81074999D01*
X134402179Y-81075000D01*
X134450000Y-81075000D01*
X134450000Y-78804262D01*
X134899500Y-78804262D01*
X134899500Y-80595747D01*
X134900000Y-80605915D01*
X134900000Y-81075000D01*
X134947828Y-81075000D01*
X134947844Y-81074999D01*
X135007372Y-81068598D01*
X135007379Y-81068596D01*
X135142086Y-81018354D01*
X135142088Y-81018353D01*
X135261879Y-80928678D01*
X135327343Y-80904261D01*
X135395616Y-80919112D01*
X135423871Y-80940264D01*
X135521716Y-81038109D01*
X135553808Y-81093691D01*
X135555199Y-81098884D01*
X135555200Y-81098886D01*
X135555201Y-81098887D01*
X135614511Y-81201614D01*
X136073386Y-81660489D01*
X136176113Y-81719799D01*
X136200321Y-81726284D01*
X136200324Y-81726286D01*
X136200325Y-81726286D01*
X136230447Y-81734357D01*
X136290691Y-81750500D01*
X137262035Y-81750500D01*
X137329074Y-81770185D01*
X137349716Y-81786819D01*
X138934760Y-83371863D01*
X138968245Y-83433186D01*
X138963261Y-83502878D01*
X138921389Y-83558811D01*
X138920713Y-83559314D01*
X138827850Y-83627850D01*
X138747207Y-83737117D01*
X138747206Y-83737119D01*
X138702353Y-83865298D01*
X138702353Y-83865300D01*
X138699500Y-83895730D01*
X138699500Y-85504269D01*
X138702353Y-85534699D01*
X138702353Y-85534701D01*
X138747206Y-85662880D01*
X138747207Y-85662882D01*
X138827850Y-85772150D01*
X138937118Y-85852793D01*
X138958089Y-85860131D01*
X139065299Y-85897646D01*
X139095730Y-85900500D01*
X139095734Y-85900500D01*
X140404270Y-85900500D01*
X140434699Y-85897646D01*
X140434701Y-85897646D01*
X140498790Y-85875219D01*
X140562882Y-85852793D01*
X140672150Y-85772150D01*
X140752793Y-85662882D01*
X140774796Y-85600000D01*
X143794958Y-85600000D01*
X143815110Y-85958846D01*
X143815112Y-85958858D01*
X143875314Y-86313185D01*
X143875316Y-86313194D01*
X143974812Y-86658552D01*
X144112353Y-86990609D01*
X144112355Y-86990613D01*
X144286215Y-87305189D01*
X144286218Y-87305194D01*
X144494193Y-87598306D01*
X144566843Y-87679601D01*
X145884728Y-86361716D01*
X145970278Y-86479466D01*
X146120534Y-86629722D01*
X146238281Y-86715270D01*
X144920397Y-88033155D01*
X145001693Y-88105806D01*
X145294805Y-88313781D01*
X145294810Y-88313784D01*
X145609386Y-88487644D01*
X145609390Y-88487646D01*
X145941447Y-88625187D01*
X146286805Y-88724683D01*
X146286814Y-88724685D01*
X146641141Y-88784887D01*
X146641153Y-88784889D01*
X147000000Y-88805041D01*
X147358846Y-88784889D01*
X147358858Y-88784887D01*
X147713185Y-88724685D01*
X147713194Y-88724683D01*
X148058552Y-88625187D01*
X148390609Y-88487646D01*
X148390613Y-88487644D01*
X148705189Y-88313784D01*
X148705194Y-88313781D01*
X148998306Y-88105806D01*
X149079601Y-88033155D01*
X147761717Y-86715270D01*
X147879466Y-86629722D01*
X148029722Y-86479466D01*
X148115270Y-86361717D01*
X149433155Y-87679601D01*
X149505806Y-87598306D01*
X149713781Y-87305194D01*
X149713784Y-87305189D01*
X149887644Y-86990613D01*
X149887646Y-86990609D01*
X150025187Y-86658552D01*
X150124683Y-86313194D01*
X150124685Y-86313185D01*
X150184887Y-85958858D01*
X150184889Y-85958846D01*
X150205041Y-85600000D01*
X150184889Y-85241153D01*
X150184887Y-85241141D01*
X150124685Y-84886814D01*
X150124683Y-84886805D01*
X150025187Y-84541447D01*
X149887646Y-84209390D01*
X149887644Y-84209386D01*
X149713784Y-83894810D01*
X149713781Y-83894805D01*
X149505806Y-83601693D01*
X149433155Y-83520397D01*
X148115270Y-84838281D01*
X148029722Y-84720534D01*
X147879466Y-84570278D01*
X147761717Y-84484728D01*
X149079602Y-83166843D01*
X148998306Y-83094193D01*
X148705194Y-82886218D01*
X148705189Y-82886215D01*
X148390613Y-82712355D01*
X148390609Y-82712353D01*
X148058552Y-82574812D01*
X147713194Y-82475316D01*
X147713185Y-82475314D01*
X147358858Y-82415112D01*
X147358846Y-82415110D01*
X147000000Y-82394958D01*
X146641153Y-82415110D01*
X146641141Y-82415112D01*
X146286814Y-82475314D01*
X146286805Y-82475316D01*
X145941447Y-82574812D01*
X145609390Y-82712353D01*
X145609386Y-82712355D01*
X145294810Y-82886215D01*
X145294805Y-82886218D01*
X145001693Y-83094194D01*
X145001685Y-83094199D01*
X144920397Y-83166842D01*
X144920397Y-83166843D01*
X146238282Y-84484728D01*
X146120534Y-84570278D01*
X145970278Y-84720534D01*
X145884728Y-84838282D01*
X144566843Y-83520397D01*
X144566842Y-83520397D01*
X144494199Y-83601685D01*
X144494194Y-83601693D01*
X144286218Y-83894805D01*
X144286215Y-83894810D01*
X144112355Y-84209386D01*
X144112353Y-84209390D01*
X143974812Y-84541447D01*
X143875316Y-84886805D01*
X143875314Y-84886814D01*
X143815112Y-85241141D01*
X143815110Y-85241153D01*
X143794958Y-85600000D01*
X140774796Y-85600000D01*
X140790252Y-85555830D01*
X140797646Y-85534701D01*
X140797646Y-85534699D01*
X140800500Y-85504269D01*
X140800500Y-83895730D01*
X140797646Y-83865300D01*
X140797646Y-83865298D01*
X140752793Y-83737119D01*
X140752792Y-83737117D01*
X140672150Y-83627850D01*
X140562882Y-83547207D01*
X140562880Y-83547206D01*
X140434700Y-83502353D01*
X140404270Y-83499500D01*
X140404266Y-83499500D01*
X140298008Y-83499500D01*
X140230969Y-83479815D01*
X140185214Y-83427011D01*
X140178235Y-83407598D01*
X140169799Y-83376114D01*
X140140095Y-83324664D01*
X140110494Y-83273393D01*
X140110488Y-83273385D01*
X137776616Y-80939513D01*
X137776614Y-80939511D01*
X137673887Y-80880201D01*
X137673884Y-80880199D01*
X137644300Y-80872273D01*
X137644299Y-80872272D01*
X137644299Y-80872273D01*
X137601803Y-80860886D01*
X137559309Y-80849500D01*
X137559308Y-80849500D01*
X136587965Y-80849500D01*
X136520926Y-80829815D01*
X136500284Y-80813181D01*
X136427681Y-80740578D01*
X136394196Y-80679255D01*
X136393745Y-80628707D01*
X136400500Y-80594748D01*
X136400500Y-78805252D01*
X136400500Y-78805249D01*
X136400499Y-78805247D01*
X136388868Y-78746770D01*
X136388867Y-78746769D01*
X136344552Y-78680447D01*
X136278230Y-78636132D01*
X136278229Y-78636131D01*
X136219752Y-78624500D01*
X136219748Y-78624500D01*
X135730252Y-78624500D01*
X135674190Y-78635651D01*
X135625810Y-78635651D01*
X135569748Y-78624500D01*
X135436556Y-78624500D01*
X135369517Y-78604815D01*
X135337290Y-78574811D01*
X135282899Y-78502155D01*
X139250000Y-78502155D01*
X139250000Y-79150000D01*
X140166988Y-79150000D01*
X140134075Y-79207007D01*
X140100000Y-79334174D01*
X140100000Y-79465826D01*
X140134075Y-79592993D01*
X140166988Y-79650000D01*
X139250000Y-79650000D01*
X139250000Y-80297844D01*
X139256401Y-80357372D01*
X139256403Y-80357379D01*
X139306645Y-80492086D01*
X139306649Y-80492093D01*
X139392809Y-80607187D01*
X139392812Y-80607190D01*
X139507906Y-80693350D01*
X139507913Y-80693354D01*
X139642620Y-80743596D01*
X139642627Y-80743598D01*
X139702155Y-80749999D01*
X139702172Y-80750000D01*
X140350000Y-80750000D01*
X140350000Y-79833012D01*
X140407007Y-79865925D01*
X140534174Y-79900000D01*
X140665826Y-79900000D01*
X140792993Y-79865925D01*
X140850000Y-79833012D01*
X140850000Y-80750000D01*
X141497828Y-80750000D01*
X141497844Y-80749999D01*
X141557372Y-80743598D01*
X141557379Y-80743596D01*
X141692086Y-80693354D01*
X141692093Y-80693350D01*
X141807187Y-80607190D01*
X141807190Y-80607187D01*
X141893350Y-80492093D01*
X141893354Y-80492086D01*
X141942614Y-80360013D01*
X141984485Y-80304079D01*
X142049949Y-80279662D01*
X142118222Y-80294513D01*
X142146477Y-80315665D01*
X142268917Y-80438105D01*
X142462421Y-80573600D01*
X142676507Y-80673429D01*
X142676516Y-80673433D01*
X142890000Y-80730634D01*
X142890000Y-79833012D01*
X142947007Y-79865925D01*
X143074174Y-79900000D01*
X143205826Y-79900000D01*
X143332993Y-79865925D01*
X143390000Y-79833012D01*
X143390000Y-80730633D01*
X143603483Y-80673433D01*
X143603492Y-80673429D01*
X143817578Y-80573600D01*
X144011082Y-80438105D01*
X144178105Y-80271082D01*
X144308425Y-80084968D01*
X144363002Y-80041344D01*
X144432501Y-80034151D01*
X144494855Y-80065673D01*
X144511575Y-80084968D01*
X144641894Y-80271082D01*
X144808917Y-80438105D01*
X145002421Y-80573600D01*
X145216507Y-80673429D01*
X145216516Y-80673433D01*
X145430000Y-80730634D01*
X145430000Y-79833012D01*
X145487007Y-79865925D01*
X145614174Y-79900000D01*
X145745826Y-79900000D01*
X145872993Y-79865925D01*
X145930000Y-79833012D01*
X145930000Y-80730633D01*
X146143483Y-80673433D01*
X146143492Y-80673429D01*
X146357578Y-80573600D01*
X146551082Y-80438105D01*
X146718105Y-80271082D01*
X146848425Y-80084968D01*
X146903002Y-80041344D01*
X146972501Y-80034151D01*
X147034855Y-80065673D01*
X147051575Y-80084968D01*
X147181894Y-80271082D01*
X147348917Y-80438105D01*
X147542421Y-80573600D01*
X147756507Y-80673429D01*
X147756516Y-80673433D01*
X147970000Y-80730634D01*
X147970000Y-79833012D01*
X148027007Y-79865925D01*
X148154174Y-79900000D01*
X148285826Y-79900000D01*
X148412993Y-79865925D01*
X148470000Y-79833012D01*
X148470000Y-80730633D01*
X148683483Y-80673433D01*
X148683492Y-80673429D01*
X148897578Y-80573600D01*
X149091082Y-80438105D01*
X149258105Y-80271082D01*
X149393600Y-80077578D01*
X149493429Y-79863492D01*
X149493432Y-79863486D01*
X149550636Y-79650000D01*
X148653012Y-79650000D01*
X148685925Y-79592993D01*
X148720000Y-79465826D01*
X148720000Y-79334174D01*
X148685925Y-79207007D01*
X148653012Y-79150000D01*
X149550636Y-79150000D01*
X149550635Y-79149999D01*
X149493432Y-78936513D01*
X149493429Y-78936507D01*
X149393600Y-78722422D01*
X149393599Y-78722420D01*
X149258113Y-78528926D01*
X149258108Y-78528920D01*
X149091082Y-78361894D01*
X148897578Y-78226399D01*
X148683492Y-78126570D01*
X148683486Y-78126567D01*
X148470000Y-78069364D01*
X148470000Y-78966988D01*
X148412993Y-78934075D01*
X148285826Y-78900000D01*
X148154174Y-78900000D01*
X148027007Y-78934075D01*
X147970000Y-78966988D01*
X147970000Y-78069364D01*
X147969999Y-78069364D01*
X147756513Y-78126567D01*
X147756507Y-78126570D01*
X147542422Y-78226399D01*
X147542420Y-78226400D01*
X147348926Y-78361886D01*
X147348920Y-78361891D01*
X147181891Y-78528920D01*
X147181890Y-78528922D01*
X147051575Y-78715031D01*
X146996998Y-78758655D01*
X146927499Y-78765848D01*
X146865145Y-78734326D01*
X146848425Y-78715031D01*
X146718109Y-78528922D01*
X146718108Y-78528920D01*
X146551082Y-78361894D01*
X146357578Y-78226399D01*
X146143492Y-78126570D01*
X146143486Y-78126567D01*
X145930000Y-78069364D01*
X145930000Y-78966988D01*
X145872993Y-78934075D01*
X145745826Y-78900000D01*
X145614174Y-78900000D01*
X145487007Y-78934075D01*
X145430000Y-78966988D01*
X145430000Y-78069364D01*
X145429999Y-78069364D01*
X145216513Y-78126567D01*
X145216507Y-78126570D01*
X145002422Y-78226399D01*
X145002420Y-78226400D01*
X144808926Y-78361886D01*
X144808920Y-78361891D01*
X144641891Y-78528920D01*
X144641890Y-78528922D01*
X144511575Y-78715031D01*
X144456998Y-78758655D01*
X144387499Y-78765848D01*
X144325145Y-78734326D01*
X144308425Y-78715031D01*
X144178109Y-78528922D01*
X144178108Y-78528920D01*
X144011082Y-78361894D01*
X143817578Y-78226399D01*
X143603492Y-78126570D01*
X143603486Y-78126567D01*
X143390000Y-78069364D01*
X143390000Y-78966988D01*
X143332993Y-78934075D01*
X143205826Y-78900000D01*
X143074174Y-78900000D01*
X142947007Y-78934075D01*
X142890000Y-78966988D01*
X142890000Y-78069364D01*
X142889999Y-78069364D01*
X142676513Y-78126567D01*
X142676507Y-78126570D01*
X142462422Y-78226399D01*
X142462420Y-78226400D01*
X142268926Y-78361886D01*
X142146477Y-78484335D01*
X142085154Y-78517819D01*
X142015462Y-78512835D01*
X141959529Y-78470963D01*
X141942614Y-78439986D01*
X141893354Y-78307913D01*
X141893350Y-78307906D01*
X141807190Y-78192812D01*
X141807187Y-78192809D01*
X141692093Y-78106649D01*
X141692086Y-78106645D01*
X141557379Y-78056403D01*
X141557372Y-78056401D01*
X141497844Y-78050000D01*
X140850000Y-78050000D01*
X140850000Y-78966988D01*
X140792993Y-78934075D01*
X140665826Y-78900000D01*
X140534174Y-78900000D01*
X140407007Y-78934075D01*
X140350000Y-78966988D01*
X140350000Y-78050000D01*
X139702155Y-78050000D01*
X139642627Y-78056401D01*
X139642620Y-78056403D01*
X139507913Y-78106645D01*
X139507906Y-78106649D01*
X139392812Y-78192809D01*
X139392809Y-78192812D01*
X139306649Y-78307906D01*
X139306645Y-78307913D01*
X139256403Y-78442620D01*
X139256401Y-78442627D01*
X139250000Y-78502155D01*
X135282899Y-78502155D01*
X135257190Y-78467812D01*
X135257187Y-78467809D01*
X135142093Y-78381649D01*
X135142086Y-78381645D01*
X135007379Y-78331403D01*
X135007372Y-78331401D01*
X134947844Y-78325000D01*
X134900000Y-78325000D01*
X134900000Y-78794084D01*
X134899500Y-78804262D01*
X134450000Y-78804262D01*
X134450000Y-78325000D01*
X134402164Y-78325000D01*
X134363252Y-78329183D01*
X134336748Y-78329183D01*
X134297835Y-78325000D01*
X134250000Y-78325000D01*
X134250000Y-81075000D01*
X133800000Y-81075000D01*
X133800000Y-80605915D01*
X133800500Y-80595747D01*
X133800500Y-78804262D01*
X133800000Y-78794084D01*
X133800000Y-78325000D01*
X133752155Y-78325000D01*
X133692627Y-78331401D01*
X133692620Y-78331403D01*
X133557913Y-78381645D01*
X133557906Y-78381649D01*
X133442812Y-78467809D01*
X133442809Y-78467812D01*
X133362710Y-78574811D01*
X133306777Y-78616682D01*
X133263444Y-78624500D01*
X133130252Y-78624500D01*
X133074190Y-78635651D01*
X133025810Y-78635651D01*
X132969748Y-78624500D01*
X132480252Y-78624500D01*
X132424190Y-78635651D01*
X132375810Y-78635651D01*
X132319748Y-78624500D01*
X131830252Y-78624500D01*
X131774190Y-78635651D01*
X131725810Y-78635651D01*
X131669748Y-78624500D01*
X131536556Y-78624500D01*
X131469517Y-78604815D01*
X131437290Y-78574811D01*
X131357190Y-78467812D01*
X131357187Y-78467809D01*
X131242093Y-78381649D01*
X131242086Y-78381645D01*
X131107379Y-78331403D01*
X131107372Y-78331401D01*
X131047844Y-78325000D01*
X131000000Y-78325000D01*
X131000000Y-78794084D01*
X130999500Y-78804262D01*
X130999500Y-80595747D01*
X131000000Y-80605915D01*
X131000000Y-81084825D01*
X131021666Y-81124504D01*
X131024500Y-81150862D01*
X131024500Y-81284461D01*
X131007889Y-81346458D01*
X131005202Y-81351111D01*
X131005201Y-81351112D01*
X130999895Y-81370915D01*
X130974500Y-81465691D01*
X130974500Y-81465693D01*
X130974500Y-82937034D01*
X130954815Y-83004073D01*
X130938181Y-83024715D01*
X130499715Y-83463181D01*
X130438392Y-83496666D01*
X130412034Y-83499500D01*
X129245730Y-83499500D01*
X129215300Y-83502353D01*
X129215298Y-83502353D01*
X129087119Y-83547206D01*
X129087117Y-83547207D01*
X128977850Y-83627850D01*
X128897207Y-83737117D01*
X128897206Y-83737119D01*
X128852353Y-83865298D01*
X128852353Y-83865300D01*
X128849500Y-83895730D01*
X128226257Y-83895730D01*
X128215977Y-83880345D01*
X128215975Y-83880342D01*
X128069655Y-83734022D01*
X127905609Y-83624411D01*
X127860804Y-83570799D01*
X127850500Y-83521309D01*
X127850500Y-82837965D01*
X127870185Y-82770926D01*
X127886819Y-82750284D01*
X128313720Y-82323383D01*
X129185489Y-81451614D01*
X129221347Y-81389506D01*
X129244796Y-81348891D01*
X129244796Y-81348890D01*
X129244798Y-81348887D01*
X129246187Y-81343699D01*
X129278280Y-81288111D01*
X129521540Y-81044852D01*
X129582860Y-81011369D01*
X129652552Y-81016353D01*
X129792623Y-81068597D01*
X129792627Y-81068598D01*
X129852155Y-81074999D01*
X129852172Y-81075000D01*
X129900000Y-81075000D01*
X130350000Y-81075000D01*
X130397821Y-81075000D01*
X130397831Y-81074999D01*
X130436742Y-81070815D01*
X130463258Y-81070815D01*
X130502168Y-81074999D01*
X130502179Y-81075000D01*
X130550000Y-81075000D01*
X130550000Y-78325000D01*
X130502164Y-78325000D01*
X130463252Y-78329183D01*
X130436748Y-78329183D01*
X130397835Y-78325000D01*
X130350000Y-78325000D01*
X130350000Y-81075000D01*
X129900000Y-81075000D01*
X129900000Y-80605915D01*
X129900500Y-80595747D01*
X129900500Y-78804262D01*
X129900000Y-78794084D01*
X129900000Y-78325000D01*
X129852155Y-78325000D01*
X129792627Y-78331401D01*
X129792620Y-78331403D01*
X129657913Y-78381645D01*
X129657906Y-78381649D01*
X129542812Y-78467809D01*
X129542809Y-78467812D01*
X129462710Y-78574811D01*
X129406777Y-78616682D01*
X129363444Y-78624500D01*
X129230252Y-78624500D01*
X129174190Y-78635651D01*
X129125810Y-78635651D01*
X129069748Y-78624500D01*
X128580252Y-78624500D01*
X128580247Y-78624500D01*
X128521770Y-78636131D01*
X128521769Y-78636132D01*
X128455447Y-78680447D01*
X128411132Y-78746769D01*
X128411131Y-78746770D01*
X128399500Y-78805247D01*
X128399500Y-80594752D01*
X128411130Y-80653223D01*
X128415059Y-80662706D01*
X128424500Y-80710165D01*
X128424500Y-80887035D01*
X128404815Y-80954074D01*
X128388181Y-80974716D01*
X127039513Y-82323383D01*
X127039509Y-82323389D01*
X126980201Y-82426112D01*
X126980200Y-82426117D01*
X126949500Y-82540691D01*
X126949500Y-83521309D01*
X126929815Y-83588348D01*
X126894391Y-83624411D01*
X126730344Y-83734022D01*
X126584024Y-83880342D01*
X126469058Y-84052403D01*
X126389870Y-84243579D01*
X126389868Y-84243587D01*
X126349500Y-84446530D01*
X117385872Y-84446530D01*
X117287646Y-84209390D01*
X117287644Y-84209386D01*
X117113784Y-83894810D01*
X117113781Y-83894805D01*
X116905806Y-83601693D01*
X116833155Y-83520397D01*
X115515270Y-84838281D01*
X115429722Y-84720534D01*
X115279466Y-84570278D01*
X115161717Y-84484728D01*
X116479602Y-83166843D01*
X116398306Y-83094193D01*
X116105194Y-82886218D01*
X116105189Y-82886215D01*
X115790613Y-82712355D01*
X115790609Y-82712353D01*
X115458552Y-82574812D01*
X115113194Y-82475316D01*
X115113185Y-82475314D01*
X114758858Y-82415112D01*
X114758846Y-82415110D01*
X114400000Y-82394958D01*
X114041153Y-82415110D01*
X114041141Y-82415112D01*
X113686814Y-82475314D01*
X113686805Y-82475316D01*
X113341447Y-82574812D01*
X113009390Y-82712353D01*
X113009386Y-82712355D01*
X112694810Y-82886215D01*
X112694805Y-82886218D01*
X112401693Y-83094194D01*
X112401685Y-83094199D01*
X112320397Y-83166842D01*
X112320397Y-83166843D01*
X113638282Y-84484728D01*
X113520534Y-84570278D01*
X113370278Y-84720534D01*
X113284728Y-84838282D01*
X111966843Y-83520397D01*
X111966842Y-83520397D01*
X111894199Y-83601685D01*
X111894194Y-83601693D01*
X111686218Y-83894805D01*
X111686215Y-83894810D01*
X111512355Y-84209386D01*
X111512353Y-84209390D01*
X111374812Y-84541447D01*
X111275316Y-84886805D01*
X111275314Y-84886814D01*
X111215112Y-85241141D01*
X111215110Y-85241153D01*
X111194958Y-85600000D01*
X110450566Y-85600000D01*
X110450500Y-85597128D01*
X110450500Y-79400013D01*
X117700000Y-79400013D01*
X117700000Y-79800000D01*
X118766988Y-79800000D01*
X118734075Y-79857007D01*
X118700000Y-79984174D01*
X118700000Y-80115826D01*
X118734075Y-80242993D01*
X118766988Y-80300000D01*
X117700001Y-80300000D01*
X117700001Y-80699986D01*
X117710494Y-80802697D01*
X117765641Y-80969119D01*
X117765643Y-80969124D01*
X117857684Y-81118345D01*
X117981654Y-81242315D01*
X118130875Y-81334356D01*
X118130880Y-81334358D01*
X118297302Y-81389505D01*
X118297309Y-81389506D01*
X118400019Y-81399999D01*
X118949999Y-81399999D01*
X118950000Y-81399998D01*
X118950000Y-80483012D01*
X119007007Y-80515925D01*
X119134174Y-80550000D01*
X119265826Y-80550000D01*
X119392993Y-80515925D01*
X119450000Y-80483012D01*
X119450000Y-81399999D01*
X119999972Y-81399999D01*
X119999986Y-81399998D01*
X120102697Y-81389505D01*
X120269119Y-81334358D01*
X120269124Y-81334356D01*
X120418345Y-81242315D01*
X120542315Y-81118345D01*
X120634356Y-80969124D01*
X120634358Y-80969119D01*
X120689505Y-80802697D01*
X120689506Y-80802690D01*
X120699999Y-80699986D01*
X120700000Y-80699973D01*
X120700000Y-80300000D01*
X119633012Y-80300000D01*
X119665925Y-80242993D01*
X119700000Y-80115826D01*
X119700000Y-79984174D01*
X119665925Y-79857007D01*
X119633012Y-79800000D01*
X120699999Y-79800000D01*
X120699999Y-79400028D01*
X120699998Y-79400013D01*
X120689505Y-79297302D01*
X120634358Y-79130880D01*
X120634356Y-79130875D01*
X120542315Y-78981654D01*
X120418345Y-78857684D01*
X120269124Y-78765643D01*
X120269119Y-78765641D01*
X120102697Y-78710494D01*
X120102690Y-78710493D01*
X119999986Y-78700000D01*
X119928526Y-78700000D01*
X119861487Y-78680315D01*
X119815732Y-78627511D01*
X119805788Y-78558353D01*
X119834813Y-78494797D01*
X119859633Y-78472899D01*
X120019655Y-78365977D01*
X120165977Y-78219655D01*
X120280941Y-78047598D01*
X120360130Y-77856420D01*
X120400500Y-77653465D01*
X120400500Y-77446535D01*
X120360130Y-77243580D01*
X120280941Y-77052402D01*
X120165977Y-76880345D01*
X120165975Y-76880342D01*
X120019657Y-76734024D01*
X119847596Y-76619057D01*
X119677047Y-76548414D01*
X119622644Y-76504573D01*
X119600579Y-76438279D01*
X119600500Y-76433853D01*
X119600500Y-75617254D01*
X119620185Y-75550215D01*
X119636819Y-75529573D01*
X119816406Y-75349986D01*
X124375001Y-75349986D01*
X124385494Y-75452697D01*
X124440641Y-75619119D01*
X124440643Y-75619124D01*
X124532684Y-75768345D01*
X124656654Y-75892315D01*
X124805875Y-75984356D01*
X124805880Y-75984358D01*
X124972302Y-76039505D01*
X124972309Y-76039506D01*
X125075019Y-76049999D01*
X125349999Y-76049999D01*
X125850000Y-76049999D01*
X126124972Y-76049999D01*
X126124986Y-76049998D01*
X126227697Y-76039505D01*
X126394119Y-75984358D01*
X126394124Y-75984356D01*
X126543345Y-75892315D01*
X126667315Y-75768345D01*
X126709471Y-75700000D01*
X139564417Y-75700000D01*
X139584699Y-75905932D01*
X139584700Y-75905934D01*
X139644768Y-76103954D01*
X139742315Y-76286450D01*
X139742317Y-76286452D01*
X139873589Y-76446410D01*
X139939977Y-76500892D01*
X140033550Y-76577685D01*
X140216046Y-76675232D01*
X140414066Y-76735300D01*
X140414065Y-76735300D01*
X140432529Y-76737118D01*
X140620000Y-76755583D01*
X140825934Y-76735300D01*
X141023954Y-76675232D01*
X141206450Y-76577685D01*
X141366410Y-76446410D01*
X141497685Y-76286450D01*
X141595232Y-76103954D01*
X141655300Y-75905934D01*
X141675583Y-75700000D01*
X142104417Y-75700000D01*
X142124699Y-75905932D01*
X142124700Y-75905934D01*
X142184768Y-76103954D01*
X142282315Y-76286450D01*
X142282317Y-76286452D01*
X142413589Y-76446410D01*
X142479977Y-76500892D01*
X142573550Y-76577685D01*
X142756046Y-76675232D01*
X142954066Y-76735300D01*
X142954065Y-76735300D01*
X142972529Y-76737118D01*
X143160000Y-76755583D01*
X143365934Y-76735300D01*
X143563954Y-76675232D01*
X143746450Y-76577685D01*
X143906410Y-76446410D01*
X144037685Y-76286450D01*
X144135232Y-76103954D01*
X144195300Y-75905934D01*
X144215583Y-75700000D01*
X144644417Y-75700000D01*
X144664699Y-75905932D01*
X144664700Y-75905934D01*
X144724768Y-76103954D01*
X144822315Y-76286450D01*
X144822317Y-76286452D01*
X144953589Y-76446410D01*
X145019977Y-76500892D01*
X145113550Y-76577685D01*
X145296046Y-76675232D01*
X145494066Y-76735300D01*
X145494065Y-76735300D01*
X145512529Y-76737118D01*
X145700000Y-76755583D01*
X145905934Y-76735300D01*
X146103954Y-76675232D01*
X146286450Y-76577685D01*
X146446410Y-76446410D01*
X146577685Y-76286450D01*
X146675232Y-76103954D01*
X146735300Y-75905934D01*
X146755583Y-75700000D01*
X146735300Y-75494066D01*
X146675232Y-75296046D01*
X146577685Y-75113550D01*
X146512395Y-75033993D01*
X146446410Y-74953589D01*
X146305695Y-74838109D01*
X146296115Y-74830247D01*
X147189500Y-74830247D01*
X147189500Y-76569752D01*
X147201131Y-76628229D01*
X147201132Y-76628230D01*
X147245447Y-76694552D01*
X147311769Y-76738867D01*
X147311770Y-76738868D01*
X147370247Y-76750499D01*
X147370250Y-76750500D01*
X147370252Y-76750500D01*
X149109750Y-76750500D01*
X149109751Y-76750499D01*
X149124568Y-76747552D01*
X149168229Y-76738868D01*
X149168229Y-76738867D01*
X149168231Y-76738867D01*
X149234552Y-76694552D01*
X149278867Y-76628231D01*
X149278867Y-76628229D01*
X149278868Y-76628229D01*
X149290499Y-76569752D01*
X149290500Y-76569750D01*
X149290500Y-74830249D01*
X149290499Y-74830247D01*
X149278868Y-74771770D01*
X149278867Y-74771769D01*
X149234552Y-74705447D01*
X149168230Y-74661132D01*
X149168229Y-74661131D01*
X149109752Y-74649500D01*
X149109748Y-74649500D01*
X147370252Y-74649500D01*
X147370247Y-74649500D01*
X147311770Y-74661131D01*
X147311769Y-74661132D01*
X147245447Y-74705447D01*
X147201132Y-74771769D01*
X147201131Y-74771770D01*
X147189500Y-74830247D01*
X146296115Y-74830247D01*
X146286450Y-74822315D01*
X146103954Y-74724768D01*
X145905934Y-74664700D01*
X145905932Y-74664699D01*
X145905934Y-74664699D01*
X145700000Y-74644417D01*
X145494067Y-74664699D01*
X145296043Y-74724769D01*
X145221109Y-74764823D01*
X145113550Y-74822315D01*
X145113548Y-74822316D01*
X145113547Y-74822317D01*
X144953589Y-74953589D01*
X144822317Y-75113547D01*
X144822315Y-75113550D01*
X144800646Y-75154090D01*
X144724769Y-75296043D01*
X144664699Y-75494067D01*
X144644417Y-75700000D01*
X144215583Y-75700000D01*
X144195300Y-75494066D01*
X144135232Y-75296046D01*
X144037685Y-75113550D01*
X143972395Y-75033993D01*
X143906410Y-74953589D01*
X143765695Y-74838109D01*
X143746450Y-74822315D01*
X143563954Y-74724768D01*
X143365934Y-74664700D01*
X143365932Y-74664699D01*
X143365934Y-74664699D01*
X143160000Y-74644417D01*
X142954067Y-74664699D01*
X142756043Y-74724769D01*
X142681109Y-74764823D01*
X142573550Y-74822315D01*
X142573548Y-74822316D01*
X142573547Y-74822317D01*
X142413589Y-74953589D01*
X142282317Y-75113547D01*
X142282315Y-75113550D01*
X142260646Y-75154090D01*
X142184769Y-75296043D01*
X142124699Y-75494067D01*
X142104417Y-75700000D01*
X141675583Y-75700000D01*
X141655300Y-75494066D01*
X141595232Y-75296046D01*
X141497685Y-75113550D01*
X141432395Y-75033993D01*
X141366410Y-74953589D01*
X141225695Y-74838109D01*
X141206450Y-74822315D01*
X141023954Y-74724768D01*
X140825934Y-74664700D01*
X140825932Y-74664699D01*
X140825934Y-74664699D01*
X140620000Y-74644417D01*
X140414067Y-74664699D01*
X140216043Y-74724769D01*
X140141109Y-74764823D01*
X140033550Y-74822315D01*
X140033548Y-74822316D01*
X140033547Y-74822317D01*
X139873589Y-74953589D01*
X139742317Y-75113547D01*
X139742315Y-75113550D01*
X139720646Y-75154090D01*
X139644769Y-75296043D01*
X139584699Y-75494067D01*
X139564417Y-75700000D01*
X126709471Y-75700000D01*
X126759356Y-75619124D01*
X126759358Y-75619119D01*
X126814505Y-75452697D01*
X126814506Y-75452690D01*
X126824999Y-75349986D01*
X126825000Y-75349973D01*
X126825000Y-75300000D01*
X125850000Y-75300000D01*
X125850000Y-76049999D01*
X125349999Y-76049999D01*
X125350000Y-76049998D01*
X125350000Y-75300000D01*
X124375001Y-75300000D01*
X124375001Y-75349986D01*
X119816406Y-75349986D01*
X120307603Y-74858789D01*
X127450000Y-74858789D01*
X127470910Y-74857145D01*
X127626195Y-74812031D01*
X127765374Y-74729721D01*
X127765383Y-74729714D01*
X127879714Y-74615383D01*
X127879721Y-74615374D01*
X127962031Y-74476195D01*
X128004504Y-74330000D01*
X127450000Y-74330000D01*
X127450000Y-74858789D01*
X120307603Y-74858789D01*
X121579573Y-73586819D01*
X121640896Y-73553334D01*
X121667254Y-73550500D01*
X124614520Y-73550500D01*
X124681559Y-73570185D01*
X124715031Y-73606628D01*
X124716689Y-73605405D01*
X124722206Y-73612881D01*
X124722207Y-73612882D01*
X124802850Y-73722150D01*
X124912118Y-73802793D01*
X124976033Y-73825158D01*
X125032807Y-73865878D01*
X125058555Y-73930830D01*
X125045099Y-73999392D01*
X124996712Y-74049795D01*
X124974082Y-74059904D01*
X124805878Y-74115642D01*
X124805875Y-74115643D01*
X124656654Y-74207684D01*
X124532684Y-74331654D01*
X124440643Y-74480875D01*
X124440641Y-74480880D01*
X124385494Y-74647302D01*
X124385493Y-74647309D01*
X124375000Y-74750013D01*
X124375000Y-74800000D01*
X126950000Y-74800000D01*
X126950000Y-74204000D01*
X126969685Y-74136961D01*
X127022489Y-74091206D01*
X127074000Y-74080000D01*
X127200000Y-74080000D01*
X127200000Y-73954000D01*
X127219685Y-73886961D01*
X127272489Y-73841206D01*
X127324000Y-73830000D01*
X128004504Y-73830000D01*
X127960663Y-73679094D01*
X127960863Y-73609225D01*
X127998806Y-73550555D01*
X128062444Y-73521712D01*
X128079740Y-73520500D01*
X128257725Y-73520500D01*
X128257727Y-73520500D01*
X128345599Y-73496955D01*
X128415448Y-73498618D01*
X128446583Y-73513628D01*
X128455447Y-73519550D01*
X128455448Y-73519552D01*
X128521769Y-73563867D01*
X128521771Y-73563867D01*
X128521772Y-73563868D01*
X128521770Y-73563868D01*
X128580247Y-73575499D01*
X128580250Y-73575500D01*
X129068885Y-73575500D01*
X129135924Y-73595185D01*
X129181679Y-73647989D01*
X129188658Y-73667400D01*
X129194789Y-73690281D01*
X129194980Y-73690992D01*
X129194981Y-73690994D01*
X129229896Y-73751467D01*
X129229897Y-73751471D01*
X129229898Y-73751471D01*
X129234539Y-73759511D01*
X129234541Y-73759513D01*
X129505868Y-74030839D01*
X129759540Y-74284511D01*
X129815489Y-74340460D01*
X129815491Y-74340461D01*
X129815495Y-74340464D01*
X129884004Y-74380017D01*
X129884011Y-74380021D01*
X129960438Y-74400500D01*
X130039562Y-74400500D01*
X130197389Y-74400500D01*
X130264428Y-74420185D01*
X130285070Y-74436819D01*
X130296774Y-74448523D01*
X130296778Y-74448526D01*
X130296780Y-74448528D01*
X130416874Y-74509719D01*
X130416876Y-74509719D01*
X130416878Y-74509720D01*
X130549998Y-74530804D01*
X130550000Y-74530804D01*
X130550002Y-74530804D01*
X130679440Y-74510303D01*
X130748734Y-74519258D01*
X130802185Y-74564254D01*
X130821311Y-74613376D01*
X130826275Y-74644720D01*
X130826276Y-74644723D01*
X130826277Y-74644724D01*
X130879924Y-74750013D01*
X130887469Y-74764819D01*
X130887472Y-74764823D01*
X130982770Y-74860121D01*
X130982774Y-74860124D01*
X130982776Y-74860126D01*
X131102870Y-74921317D01*
X131102872Y-74921317D01*
X131102874Y-74921318D01*
X131235994Y-74942402D01*
X131235996Y-74942402D01*
X131235998Y-74942402D01*
X131369117Y-74921318D01*
X131369117Y-74921317D01*
X131369122Y-74921317D01*
X131489216Y-74860126D01*
X131584524Y-74764818D01*
X131645715Y-74644724D01*
X131645764Y-74644417D01*
X131666800Y-74511600D01*
X131666800Y-74511599D01*
X131666595Y-74510303D01*
X131659123Y-74463131D01*
X131668077Y-74393842D01*
X131693912Y-74356057D01*
X132182413Y-73867556D01*
X132243733Y-73834074D01*
X132313425Y-73839058D01*
X132392623Y-73868597D01*
X132392627Y-73868598D01*
X132452155Y-73874999D01*
X132452172Y-73875000D01*
X132500000Y-73875000D01*
X132500000Y-73405915D01*
X132500500Y-73395747D01*
X132500500Y-71604262D01*
X132949500Y-71604262D01*
X132949500Y-73395747D01*
X132950000Y-73405915D01*
X132950000Y-73875000D01*
X132975500Y-73875000D01*
X133042539Y-73894685D01*
X133088294Y-73947489D01*
X133099500Y-73999000D01*
X133099500Y-74647389D01*
X133079815Y-74714428D01*
X133063181Y-74735070D01*
X133051476Y-74746774D01*
X133051473Y-74746778D01*
X132990279Y-74866878D01*
X132969196Y-74999997D01*
X132969196Y-75000002D01*
X132990279Y-75133121D01*
X132990280Y-75133124D01*
X132990281Y-75133126D01*
X133051472Y-75253220D01*
X133051473Y-75253221D01*
X133051476Y-75253225D01*
X133146774Y-75348523D01*
X133146778Y-75348526D01*
X133146780Y-75348528D01*
X133266874Y-75409719D01*
X133266876Y-75409719D01*
X133266878Y-75409720D01*
X133399998Y-75430804D01*
X133400000Y-75430804D01*
X133400002Y-75430804D01*
X133533121Y-75409720D01*
X133533121Y-75409719D01*
X133533126Y-75409719D01*
X133653220Y-75348528D01*
X133748528Y-75253220D01*
X133809719Y-75133126D01*
X133812820Y-75113547D01*
X133815421Y-75097128D01*
X133845350Y-75033993D01*
X133904661Y-74997061D01*
X133974523Y-74998059D01*
X134032756Y-75036668D01*
X134060367Y-75097127D01*
X134061511Y-75104353D01*
X134061512Y-75104356D01*
X134061513Y-75104358D01*
X134122704Y-75224452D01*
X134122705Y-75224453D01*
X134122708Y-75224457D01*
X134218006Y-75319755D01*
X134218010Y-75319758D01*
X134218012Y-75319760D01*
X134338106Y-75380951D01*
X134338108Y-75380951D01*
X134338110Y-75380952D01*
X134471230Y-75402036D01*
X134471232Y-75402036D01*
X134471234Y-75402036D01*
X134604353Y-75380952D01*
X134604353Y-75380951D01*
X134604358Y-75380951D01*
X134724452Y-75319760D01*
X134819760Y-75224452D01*
X134870449Y-75124968D01*
X134918421Y-75074175D01*
X134986242Y-75057379D01*
X135052377Y-75079916D01*
X135068613Y-75093584D01*
X135127627Y-75152598D01*
X135127631Y-75152601D01*
X135127633Y-75152603D01*
X135247727Y-75213794D01*
X135247729Y-75213794D01*
X135247731Y-75213795D01*
X135380851Y-75234879D01*
X135380853Y-75234879D01*
X135380855Y-75234879D01*
X135513974Y-75213795D01*
X135513974Y-75213794D01*
X135513979Y-75213794D01*
X135634073Y-75152603D01*
X135729381Y-75057295D01*
X135790572Y-74937201D01*
X135800565Y-74874106D01*
X135811657Y-74804077D01*
X135811657Y-74804072D01*
X135790573Y-74670953D01*
X135790572Y-74670951D01*
X135790572Y-74670949D01*
X135729381Y-74550855D01*
X135729379Y-74550853D01*
X135729376Y-74550849D01*
X135717672Y-74539145D01*
X135684187Y-74477822D01*
X135681353Y-74451464D01*
X135681353Y-74216292D01*
X135681353Y-74216291D01*
X135660874Y-74139864D01*
X135659198Y-74136961D01*
X135621317Y-74071348D01*
X135621311Y-74071340D01*
X135467152Y-73917181D01*
X135433667Y-73855858D01*
X135438651Y-73786166D01*
X135480523Y-73730233D01*
X135545987Y-73705816D01*
X135554833Y-73705500D01*
X137725991Y-73705500D01*
X137726000Y-73705500D01*
X137769684Y-73700803D01*
X137798875Y-73694452D01*
X137821174Y-73689602D01*
X137821190Y-73689598D01*
X137821195Y-73689597D01*
X137831373Y-73687110D01*
X137912085Y-73644100D01*
X137964889Y-73598345D01*
X137982843Y-73580754D01*
X138027490Y-73500937D01*
X138047175Y-73433898D01*
X138055500Y-73376000D01*
X138055500Y-70780247D01*
X140099500Y-70780247D01*
X140099500Y-72219752D01*
X140111131Y-72278229D01*
X140111132Y-72278230D01*
X140155447Y-72344552D01*
X140221769Y-72388867D01*
X140221770Y-72388868D01*
X140280247Y-72400499D01*
X140280250Y-72400500D01*
X140280252Y-72400500D01*
X142319750Y-72400500D01*
X142319751Y-72400499D01*
X142345257Y-72395426D01*
X142378229Y-72388868D01*
X142378229Y-72388867D01*
X142378231Y-72388867D01*
X142444552Y-72344552D01*
X142488867Y-72278231D01*
X142488867Y-72278229D01*
X142488868Y-72278229D01*
X142494912Y-72247844D01*
X146800000Y-72247844D01*
X146806401Y-72307372D01*
X146806403Y-72307379D01*
X146856645Y-72442086D01*
X146856649Y-72442093D01*
X146942809Y-72557187D01*
X146942812Y-72557190D01*
X147057906Y-72643350D01*
X147057913Y-72643354D01*
X147192620Y-72693596D01*
X147192627Y-72693598D01*
X147252155Y-72699999D01*
X147252172Y-72700000D01*
X148050000Y-72700000D01*
X148550000Y-72700000D01*
X149347828Y-72700000D01*
X149347844Y-72699999D01*
X149407372Y-72693598D01*
X149407379Y-72693596D01*
X149542086Y-72643354D01*
X149542093Y-72643350D01*
X149657187Y-72557190D01*
X149657190Y-72557187D01*
X149743350Y-72442093D01*
X149743354Y-72442086D01*
X149793596Y-72307379D01*
X149793598Y-72307372D01*
X149799999Y-72247844D01*
X149800000Y-72247827D01*
X149800000Y-71750000D01*
X148550000Y-71750000D01*
X148550000Y-72700000D01*
X148050000Y-72700000D01*
X148050000Y-71750000D01*
X146800000Y-71750000D01*
X146800000Y-72247844D01*
X142494912Y-72247844D01*
X142500499Y-72219752D01*
X142500500Y-72219750D01*
X142500500Y-70780249D01*
X142500499Y-70780247D01*
X142494912Y-70752155D01*
X146800000Y-70752155D01*
X146800000Y-71250000D01*
X148050000Y-71250000D01*
X148550000Y-71250000D01*
X149800000Y-71250000D01*
X149800000Y-70752172D01*
X149799999Y-70752155D01*
X149793598Y-70692627D01*
X149793596Y-70692620D01*
X149743354Y-70557913D01*
X149743350Y-70557906D01*
X149657190Y-70442812D01*
X149657187Y-70442809D01*
X149542093Y-70356649D01*
X149542086Y-70356645D01*
X149407379Y-70306403D01*
X149407372Y-70306401D01*
X149347844Y-70300000D01*
X148550000Y-70300000D01*
X148550000Y-71250000D01*
X148050000Y-71250000D01*
X148050000Y-70300000D01*
X147252155Y-70300000D01*
X147192627Y-70306401D01*
X147192620Y-70306403D01*
X147057913Y-70356645D01*
X147057906Y-70356649D01*
X146942812Y-70442809D01*
X146942809Y-70442812D01*
X146856649Y-70557906D01*
X146856645Y-70557913D01*
X146806403Y-70692620D01*
X146806401Y-70692627D01*
X146800000Y-70752155D01*
X142494912Y-70752155D01*
X142488868Y-70721770D01*
X142488867Y-70721769D01*
X142444552Y-70655447D01*
X142378230Y-70611132D01*
X142378229Y-70611131D01*
X142319752Y-70599500D01*
X142319748Y-70599500D01*
X140280252Y-70599500D01*
X140280247Y-70599500D01*
X140221770Y-70611131D01*
X140221769Y-70611132D01*
X140155447Y-70655447D01*
X140111132Y-70721769D01*
X140111131Y-70721770D01*
X140099500Y-70780247D01*
X138055500Y-70780247D01*
X138055500Y-70124000D01*
X138050803Y-70080316D01*
X138046897Y-70062364D01*
X138039602Y-70028825D01*
X138039348Y-70027789D01*
X138037110Y-70018627D01*
X137994100Y-69937915D01*
X137953565Y-69891135D01*
X137948339Y-69885104D01*
X137930757Y-69867160D01*
X137930756Y-69867159D01*
X137930754Y-69867157D01*
X137930752Y-69867156D01*
X137930750Y-69867154D01*
X137850940Y-69822511D01*
X137850935Y-69822509D01*
X137783903Y-69802826D01*
X137783899Y-69802825D01*
X137783898Y-69802825D01*
X137726000Y-69794500D01*
X135174000Y-69794500D01*
X135173992Y-69794500D01*
X135130313Y-69799197D01*
X135078825Y-69810397D01*
X135068627Y-69812890D01*
X135068624Y-69812891D01*
X134987916Y-69855899D01*
X134987913Y-69855901D01*
X134935104Y-69901660D01*
X134917160Y-69919242D01*
X134917154Y-69919249D01*
X134872511Y-69999059D01*
X134872509Y-69999064D01*
X134852826Y-70066096D01*
X134852825Y-70066101D01*
X134852825Y-70066102D01*
X134844502Y-70123992D01*
X134844500Y-70124003D01*
X134844500Y-71300500D01*
X134824815Y-71367539D01*
X134772011Y-71413294D01*
X134720500Y-71424500D01*
X134430252Y-71424500D01*
X134374190Y-71435651D01*
X134325810Y-71435651D01*
X134269748Y-71424500D01*
X133780252Y-71424500D01*
X133724190Y-71435651D01*
X133675810Y-71435651D01*
X133619748Y-71424500D01*
X133486556Y-71424500D01*
X133419517Y-71404815D01*
X133387290Y-71374811D01*
X133307190Y-71267812D01*
X133304294Y-71264916D01*
X133302331Y-71261321D01*
X133301875Y-71260712D01*
X133301962Y-71260646D01*
X133270809Y-71203593D01*
X133275793Y-71133901D01*
X133310852Y-71086226D01*
X133309862Y-71085236D01*
X133429714Y-70965383D01*
X133429721Y-70965374D01*
X133512031Y-70826195D01*
X133512033Y-70826190D01*
X133557144Y-70670918D01*
X133557145Y-70670912D01*
X133558790Y-70650000D01*
X133030000Y-70650000D01*
X133030000Y-71216000D01*
X133010315Y-71283039D01*
X132985190Y-71304809D01*
X132950000Y-71340000D01*
X132950000Y-71594084D01*
X132949500Y-71604262D01*
X132500500Y-71604262D01*
X132500000Y-71594084D01*
X132500000Y-71076362D01*
X132519685Y-71009323D01*
X132530000Y-70996522D01*
X132530000Y-70524000D01*
X132549685Y-70456961D01*
X132602489Y-70411206D01*
X132654000Y-70400000D01*
X132780000Y-70400000D01*
X132780000Y-70274000D01*
X132799685Y-70206961D01*
X132852489Y-70161206D01*
X132904000Y-70150000D01*
X133558790Y-70150000D01*
X133557145Y-70129091D01*
X133514875Y-69983594D01*
X133515075Y-69913724D01*
X133553018Y-69855054D01*
X133616656Y-69826211D01*
X133633952Y-69824999D01*
X133749972Y-69824999D01*
X133749986Y-69824998D01*
X133852697Y-69814505D01*
X134019119Y-69759358D01*
X134019124Y-69759356D01*
X134168345Y-69667315D01*
X134292315Y-69543345D01*
X134384356Y-69394124D01*
X134384358Y-69394119D01*
X134439505Y-69227697D01*
X134439506Y-69227690D01*
X134449999Y-69124986D01*
X134450000Y-69124973D01*
X134450000Y-68850000D01*
X133574000Y-68850000D01*
X133506961Y-68830315D01*
X133461206Y-68777511D01*
X133450000Y-68726000D01*
X133450000Y-68600000D01*
X133324000Y-68600000D01*
X133256961Y-68580315D01*
X133211206Y-68527511D01*
X133209572Y-68520000D01*
X137394355Y-68520000D01*
X137414859Y-68688869D01*
X137414860Y-68688874D01*
X137475182Y-68847931D01*
X137536263Y-68936421D01*
X137571817Y-68987929D01*
X137640040Y-69048369D01*
X137699150Y-69100736D01*
X137848253Y-69178991D01*
X137849775Y-69179790D01*
X138014944Y-69220500D01*
X138185056Y-69220500D01*
X138350225Y-69179790D01*
X138429692Y-69138081D01*
X138500849Y-69100736D01*
X138500850Y-69100734D01*
X138500852Y-69100734D01*
X138628183Y-68987929D01*
X138724818Y-68847930D01*
X138785140Y-68688872D01*
X138805645Y-68520000D01*
X138785140Y-68351128D01*
X138784215Y-68348690D01*
X138735316Y-68219752D01*
X138724818Y-68192070D01*
X138724817Y-68192068D01*
X138724816Y-68192066D01*
X138662017Y-68101088D01*
X138640133Y-68034733D01*
X138657598Y-67967082D01*
X138695175Y-67927545D01*
X138718262Y-67912119D01*
X138744552Y-67894552D01*
X138788867Y-67828231D01*
X138788867Y-67828229D01*
X138788868Y-67828229D01*
X138800499Y-67769752D01*
X138800500Y-67769750D01*
X138800500Y-66780247D01*
X140099500Y-66780247D01*
X140099500Y-68219752D01*
X140111131Y-68278229D01*
X140111132Y-68278230D01*
X140155447Y-68344552D01*
X140221769Y-68388867D01*
X140221770Y-68388868D01*
X140280247Y-68400499D01*
X140280250Y-68400500D01*
X140280252Y-68400500D01*
X142319750Y-68400500D01*
X142319751Y-68400499D01*
X142334568Y-68397552D01*
X142378229Y-68388868D01*
X142378229Y-68388867D01*
X142378231Y-68388867D01*
X142444552Y-68344552D01*
X142488867Y-68278231D01*
X142488867Y-68278229D01*
X142488868Y-68278229D01*
X142500499Y-68219752D01*
X142500500Y-68219750D01*
X142500500Y-66780249D01*
X142500499Y-66780247D01*
X142488868Y-66721770D01*
X142488867Y-66721769D01*
X142444552Y-66655447D01*
X142378230Y-66611132D01*
X142378229Y-66611131D01*
X142319752Y-66599500D01*
X142319748Y-66599500D01*
X140280252Y-66599500D01*
X140280247Y-66599500D01*
X140221770Y-66611131D01*
X140221769Y-66611132D01*
X140155447Y-66655447D01*
X140111132Y-66721769D01*
X140111131Y-66721770D01*
X140099500Y-66780247D01*
X138800500Y-66780247D01*
X138800500Y-66730249D01*
X138800499Y-66730247D01*
X138788868Y-66671770D01*
X138788867Y-66671769D01*
X138744552Y-66605447D01*
X138678230Y-66561132D01*
X138678229Y-66561131D01*
X138619752Y-66549500D01*
X138619748Y-66549500D01*
X137580252Y-66549500D01*
X137580247Y-66549500D01*
X137521770Y-66561131D01*
X137521769Y-66561132D01*
X137455447Y-66605447D01*
X137411132Y-66671769D01*
X137411131Y-66671770D01*
X137399500Y-66730247D01*
X137399500Y-67769752D01*
X137411131Y-67828229D01*
X137411132Y-67828230D01*
X137455447Y-67894552D01*
X137504824Y-67927545D01*
X137549629Y-67981158D01*
X137558336Y-68050483D01*
X137537983Y-68101087D01*
X137475183Y-68192068D01*
X137475182Y-68192068D01*
X137414860Y-68351125D01*
X137414859Y-68351130D01*
X137394355Y-68520000D01*
X133209572Y-68520000D01*
X133200000Y-68476000D01*
X133200000Y-68350000D01*
X133700000Y-68350000D01*
X134449999Y-68350000D01*
X134449999Y-68075028D01*
X134449998Y-68075013D01*
X134439505Y-67972302D01*
X134384358Y-67805880D01*
X134384356Y-67805875D01*
X134292315Y-67656654D01*
X134168345Y-67532684D01*
X134019124Y-67440643D01*
X134019119Y-67440641D01*
X133852697Y-67385494D01*
X133852690Y-67385493D01*
X133749986Y-67375000D01*
X133700000Y-67375000D01*
X133700000Y-68350000D01*
X133200000Y-68350000D01*
X133200000Y-67375000D01*
X133199999Y-67374999D01*
X133150029Y-67375000D01*
X133150011Y-67375001D01*
X133047302Y-67385494D01*
X132880880Y-67440641D01*
X132880875Y-67440643D01*
X132731654Y-67532684D01*
X132607684Y-67656654D01*
X132515643Y-67805875D01*
X132515641Y-67805880D01*
X132459905Y-67974082D01*
X132420132Y-68031527D01*
X132355617Y-68058350D01*
X132286841Y-68046035D01*
X132235641Y-67998492D01*
X132225158Y-67976033D01*
X132202793Y-67912119D01*
X132202792Y-67912117D01*
X132122150Y-67802850D01*
X132012882Y-67722207D01*
X132012880Y-67722206D01*
X131884700Y-67677353D01*
X131854270Y-67674500D01*
X131854266Y-67674500D01*
X131245734Y-67674500D01*
X131245730Y-67674500D01*
X131215300Y-67677353D01*
X131215298Y-67677353D01*
X131078348Y-67725276D01*
X131077399Y-67722563D01*
X131023623Y-67733491D01*
X130958500Y-67708178D01*
X130917400Y-67651675D01*
X130911692Y-67629334D01*
X130909719Y-67616876D01*
X130909719Y-67616874D01*
X130848528Y-67496780D01*
X130848526Y-67496778D01*
X130848523Y-67496774D01*
X130753225Y-67401476D01*
X130753221Y-67401473D01*
X130753220Y-67401472D01*
X130633126Y-67340281D01*
X130633124Y-67340280D01*
X130633121Y-67340279D01*
X130500002Y-67319196D01*
X130499998Y-67319196D01*
X130366877Y-67340279D01*
X130330793Y-67358665D01*
X130262123Y-67371560D01*
X130197383Y-67345282D01*
X130157127Y-67288175D01*
X130150500Y-67248179D01*
X130150500Y-64825833D01*
X130170185Y-64758794D01*
X130186813Y-64738157D01*
X130309761Y-64615209D01*
X130371080Y-64581727D01*
X130440772Y-64586711D01*
X130496706Y-64628582D01*
X130521123Y-64694046D01*
X130519913Y-64722285D01*
X130519196Y-64726813D01*
X130519196Y-64726820D01*
X130540279Y-64859939D01*
X130540280Y-64859942D01*
X130540281Y-64859944D01*
X130579451Y-64936819D01*
X130601473Y-64980039D01*
X130601476Y-64980043D01*
X130696774Y-65075341D01*
X130696778Y-65075344D01*
X130696780Y-65075346D01*
X130816874Y-65136537D01*
X130816876Y-65136537D01*
X130816878Y-65136538D01*
X130949998Y-65157622D01*
X130950000Y-65157622D01*
X130950002Y-65157622D01*
X131090490Y-65135371D01*
X131159784Y-65144326D01*
X131213236Y-65189322D01*
X131233875Y-65256073D01*
X131232362Y-65277240D01*
X131225729Y-65319124D01*
X131224744Y-65325341D01*
X131245827Y-65458460D01*
X131245828Y-65458463D01*
X131245829Y-65458465D01*
X131307020Y-65578559D01*
X131307021Y-65578560D01*
X131307024Y-65578564D01*
X131402322Y-65673862D01*
X131402326Y-65673865D01*
X131402328Y-65673867D01*
X131522422Y-65735058D01*
X131522424Y-65735058D01*
X131522426Y-65735059D01*
X131655546Y-65756143D01*
X131655548Y-65756143D01*
X131655550Y-65756143D01*
X131788669Y-65735059D01*
X131788669Y-65735058D01*
X131788674Y-65735058D01*
X131908768Y-65673867D01*
X132004076Y-65578559D01*
X132004077Y-65578556D01*
X132005509Y-65577125D01*
X132066832Y-65543640D01*
X132136524Y-65548624D01*
X132192458Y-65590495D01*
X132203676Y-65608512D01*
X132222553Y-65645561D01*
X132222558Y-65645568D01*
X132317856Y-65740866D01*
X132317860Y-65740869D01*
X132317862Y-65740871D01*
X132437956Y-65802062D01*
X132437958Y-65802062D01*
X132437960Y-65802063D01*
X132571080Y-65823147D01*
X132571082Y-65823147D01*
X132571084Y-65823147D01*
X132704203Y-65802063D01*
X132704203Y-65802062D01*
X132704208Y-65802062D01*
X132824302Y-65740871D01*
X132919610Y-65645563D01*
X132919613Y-65645556D01*
X132925343Y-65637671D01*
X132927223Y-65639037D01*
X132965876Y-65598106D01*
X133033695Y-65581305D01*
X133099832Y-65603837D01*
X133137823Y-65651668D01*
X133139503Y-65650813D01*
X133143932Y-65659506D01*
X133143933Y-65659509D01*
X133190523Y-65750946D01*
X133205125Y-65779604D01*
X133205128Y-65779608D01*
X133300426Y-65874906D01*
X133300430Y-65874909D01*
X133300432Y-65874911D01*
X133420526Y-65936102D01*
X133420528Y-65936102D01*
X133420530Y-65936103D01*
X133553650Y-65957187D01*
X133553652Y-65957187D01*
X133553654Y-65957187D01*
X133686773Y-65936103D01*
X133686773Y-65936102D01*
X133686778Y-65936102D01*
X133806872Y-65874911D01*
X133902180Y-65779603D01*
X133902181Y-65779600D01*
X133902335Y-65779447D01*
X133963658Y-65745962D01*
X134033350Y-65750946D01*
X134077698Y-65779447D01*
X134096774Y-65798523D01*
X134096778Y-65798526D01*
X134096780Y-65798528D01*
X134216874Y-65859719D01*
X134216876Y-65859719D01*
X134216878Y-65859720D01*
X134349998Y-65880804D01*
X134350000Y-65880804D01*
X134350002Y-65880804D01*
X134483121Y-65859720D01*
X134483121Y-65859719D01*
X134483126Y-65859719D01*
X134603220Y-65798528D01*
X134698528Y-65703220D01*
X134759719Y-65583126D01*
X134760008Y-65581305D01*
X134780804Y-65450000D01*
X134780804Y-65449997D01*
X134773593Y-65404469D01*
X134782548Y-65335175D01*
X134811893Y-65294016D01*
X134850000Y-65258789D01*
X135350000Y-65258789D01*
X135370910Y-65257145D01*
X135526195Y-65212031D01*
X135665374Y-65129721D01*
X135665383Y-65129714D01*
X135745111Y-65049986D01*
X137825001Y-65049986D01*
X137835494Y-65152697D01*
X137890641Y-65319119D01*
X137890643Y-65319124D01*
X137982684Y-65468345D01*
X138106654Y-65592315D01*
X138255875Y-65684356D01*
X138255880Y-65684358D01*
X138422302Y-65739505D01*
X138422309Y-65739506D01*
X138525019Y-65749999D01*
X138799999Y-65749999D01*
X139300000Y-65749999D01*
X139574972Y-65749999D01*
X139574986Y-65749998D01*
X139677697Y-65739505D01*
X139844119Y-65684358D01*
X139844124Y-65684356D01*
X139993345Y-65592315D01*
X140117315Y-65468345D01*
X140209356Y-65319124D01*
X140209358Y-65319119D01*
X140264505Y-65152697D01*
X140264506Y-65152690D01*
X140274999Y-65049986D01*
X140275000Y-65049973D01*
X140275000Y-65000000D01*
X139300000Y-65000000D01*
X139300000Y-65749999D01*
X138799999Y-65749999D01*
X138800000Y-65749998D01*
X138800000Y-65000000D01*
X137825001Y-65000000D01*
X137825001Y-65049986D01*
X135745111Y-65049986D01*
X135779714Y-65015383D01*
X135779721Y-65015374D01*
X135862031Y-64876195D01*
X135904504Y-64730000D01*
X135350000Y-64730000D01*
X135350000Y-65258789D01*
X134850000Y-65258789D01*
X134850000Y-64730000D01*
X134295496Y-64730000D01*
X134278147Y-64753106D01*
X134222153Y-64794897D01*
X134152454Y-64799781D01*
X134091305Y-64766334D01*
X133436319Y-64111348D01*
X133402834Y-64050025D01*
X133400000Y-64023667D01*
X133400000Y-63463300D01*
X133400499Y-63453132D01*
X133400499Y-63452138D01*
X133400500Y-63452133D01*
X133400499Y-62072868D01*
X133400499Y-62072867D01*
X133400499Y-62071868D01*
X133400000Y-62061710D01*
X133400000Y-61529911D01*
X133399999Y-61529911D01*
X133324896Y-61539800D01*
X133324891Y-61539801D01*
X133185021Y-61597736D01*
X133064902Y-61689907D01*
X132992514Y-61784245D01*
X132936086Y-61825448D01*
X132918330Y-61830375D01*
X132867506Y-61840484D01*
X132856220Y-61845159D01*
X132855621Y-61843714D01*
X132802204Y-61860436D01*
X132744061Y-61844481D01*
X132743781Y-61845159D01*
X132738383Y-61842923D01*
X132734825Y-61841947D01*
X132732648Y-61840547D01*
X132732494Y-61840484D01*
X132652135Y-61824500D01*
X132447870Y-61824500D01*
X132387963Y-61836416D01*
X132367505Y-61840485D01*
X132367504Y-61840485D01*
X132367501Y-61840486D01*
X132356220Y-61845159D01*
X132355621Y-61843714D01*
X132302204Y-61860436D01*
X132244061Y-61844481D01*
X132243781Y-61845159D01*
X132238383Y-61842923D01*
X132234825Y-61841947D01*
X132232648Y-61840547D01*
X132232494Y-61840484D01*
X132152135Y-61824500D01*
X131947870Y-61824500D01*
X131887963Y-61836416D01*
X131867505Y-61840485D01*
X131867504Y-61840485D01*
X131867501Y-61840486D01*
X131856220Y-61845159D01*
X131855621Y-61843714D01*
X131802204Y-61860436D01*
X131744061Y-61844481D01*
X131743781Y-61845159D01*
X131738383Y-61842923D01*
X131734825Y-61841947D01*
X131732648Y-61840547D01*
X131732494Y-61840484D01*
X131652135Y-61824500D01*
X131447870Y-61824500D01*
X131387963Y-61836416D01*
X131367505Y-61840485D01*
X131367504Y-61840485D01*
X131367501Y-61840486D01*
X131356220Y-61845159D01*
X131355621Y-61843714D01*
X131302204Y-61860436D01*
X131244061Y-61844481D01*
X131243781Y-61845159D01*
X131238383Y-61842923D01*
X131234825Y-61841947D01*
X131232648Y-61840547D01*
X131232494Y-61840484D01*
X131152135Y-61824500D01*
X130947870Y-61824500D01*
X130887963Y-61836416D01*
X130867505Y-61840485D01*
X130867504Y-61840485D01*
X130867501Y-61840486D01*
X130856220Y-61845159D01*
X130855621Y-61843714D01*
X130802204Y-61860436D01*
X130744061Y-61844481D01*
X130743781Y-61845159D01*
X130738383Y-61842923D01*
X130734825Y-61841947D01*
X130732648Y-61840547D01*
X130732494Y-61840484D01*
X130652135Y-61824500D01*
X130447870Y-61824500D01*
X130387963Y-61836416D01*
X130367505Y-61840485D01*
X130367504Y-61840485D01*
X130367501Y-61840486D01*
X130356220Y-61845159D01*
X130355621Y-61843714D01*
X130302204Y-61860436D01*
X130244061Y-61844481D01*
X130243781Y-61845159D01*
X130238383Y-61842923D01*
X130234825Y-61841947D01*
X130232648Y-61840547D01*
X130232494Y-61840484D01*
X130152135Y-61824500D01*
X129947870Y-61824500D01*
X129887963Y-61836416D01*
X129867505Y-61840485D01*
X129867504Y-61840485D01*
X129867501Y-61840486D01*
X129856220Y-61845159D01*
X129855621Y-61843714D01*
X129802204Y-61860436D01*
X129744061Y-61844481D01*
X129743781Y-61845159D01*
X129738383Y-61842923D01*
X129734825Y-61841947D01*
X129732648Y-61840547D01*
X129732494Y-61840484D01*
X129652136Y-61824500D01*
X129449831Y-61824500D01*
X129382792Y-61804815D01*
X129337037Y-61752011D01*
X129327093Y-61682853D01*
X129356118Y-61619297D01*
X129362132Y-61612837D01*
X129888152Y-61086819D01*
X129949475Y-61053334D01*
X129975833Y-61050500D01*
X131320880Y-61050500D01*
X131377174Y-61064015D01*
X131466876Y-61109720D01*
X131599998Y-61130804D01*
X131600000Y-61130804D01*
X131600002Y-61130804D01*
X131733121Y-61109720D01*
X131733121Y-61109719D01*
X131733126Y-61109719D01*
X131853220Y-61048528D01*
X131948528Y-60953220D01*
X132009719Y-60833126D01*
X132016210Y-60792147D01*
X132030804Y-60700000D01*
X132030804Y-60699997D01*
X132009720Y-60566878D01*
X132009719Y-60566876D01*
X132009719Y-60566874D01*
X131948528Y-60446780D01*
X131948526Y-60446778D01*
X131948523Y-60446774D01*
X131853225Y-60351476D01*
X131853221Y-60351473D01*
X131853220Y-60351472D01*
X131733126Y-60290281D01*
X131733124Y-60290280D01*
X131733121Y-60290279D01*
X131600002Y-60269196D01*
X131599998Y-60269196D01*
X131466875Y-60290280D01*
X131466873Y-60290280D01*
X131458148Y-60294726D01*
X131389478Y-60307618D01*
X131324739Y-60281338D01*
X131284486Y-60224229D01*
X131279387Y-60164840D01*
X131281738Y-60150000D01*
X131271195Y-60083437D01*
X131260654Y-60016878D01*
X131260653Y-60016876D01*
X131260653Y-60016874D01*
X131199462Y-59896780D01*
X131199460Y-59896778D01*
X131199457Y-59896774D01*
X131104159Y-59801476D01*
X131104155Y-59801473D01*
X131104154Y-59801472D01*
X130984060Y-59740281D01*
X130984058Y-59740280D01*
X130984055Y-59740279D01*
X130850936Y-59719196D01*
X130850932Y-59719196D01*
X130717812Y-59740279D01*
X130717808Y-59740280D01*
X130717808Y-59740281D01*
X130702920Y-59747867D01*
X130597712Y-59801473D01*
X130597708Y-59801476D01*
X130502410Y-59896774D01*
X130502408Y-59896778D01*
X130502406Y-59896780D01*
X130460853Y-59978333D01*
X130459089Y-59981795D01*
X130411114Y-60032591D01*
X130348604Y-60049500D01*
X128199500Y-60049500D01*
X128132461Y-60029815D01*
X128086706Y-59977011D01*
X128075500Y-59925501D01*
X128075499Y-59747870D01*
X128075499Y-59747868D01*
X128059515Y-59667505D01*
X128059513Y-59667502D01*
X128054841Y-59656222D01*
X128056285Y-59655623D01*
X128039563Y-59602211D01*
X128055517Y-59544056D01*
X128054842Y-59543777D01*
X128057070Y-59538396D01*
X128058049Y-59534831D01*
X128059452Y-59532647D01*
X128059516Y-59532493D01*
X128075499Y-59452136D01*
X128075500Y-59452133D01*
X128075499Y-59247868D01*
X128059515Y-59167505D01*
X128059513Y-59167502D01*
X128054841Y-59156222D01*
X128056285Y-59155623D01*
X128039563Y-59102211D01*
X128055517Y-59044056D01*
X128054842Y-59043777D01*
X128057070Y-59038396D01*
X128058049Y-59034831D01*
X128059452Y-59032647D01*
X128059516Y-59032493D01*
X128075499Y-58952136D01*
X128075500Y-58952133D01*
X128075499Y-58747868D01*
X128059515Y-58667505D01*
X128059513Y-58667502D01*
X128054841Y-58656222D01*
X128056285Y-58655623D01*
X128039563Y-58602211D01*
X128055517Y-58544056D01*
X128054842Y-58543777D01*
X128057070Y-58538396D01*
X128058049Y-58534831D01*
X128059452Y-58532647D01*
X128059516Y-58532493D01*
X128075499Y-58452136D01*
X128075500Y-58452133D01*
X128075499Y-58247868D01*
X128059515Y-58167505D01*
X128059513Y-58167502D01*
X128054841Y-58156222D01*
X128056285Y-58155623D01*
X128039563Y-58102211D01*
X128055517Y-58044056D01*
X128054842Y-58043777D01*
X128057070Y-58038396D01*
X128058049Y-58034831D01*
X128059452Y-58032647D01*
X128059516Y-58032493D01*
X128075499Y-57952136D01*
X128075500Y-57952133D01*
X128075499Y-57747868D01*
X128059515Y-57667505D01*
X128059513Y-57667502D01*
X128054841Y-57656222D01*
X128056285Y-57655623D01*
X128039563Y-57602211D01*
X128055517Y-57544056D01*
X128054842Y-57543777D01*
X128057070Y-57538396D01*
X128058049Y-57534831D01*
X128059452Y-57532647D01*
X128059516Y-57532493D01*
X128069088Y-57484365D01*
X128075500Y-57452133D01*
X128075499Y-57247868D01*
X128059515Y-57167505D01*
X128059513Y-57167502D01*
X128054841Y-57156222D01*
X128056285Y-57155623D01*
X128039563Y-57102211D01*
X128055517Y-57044056D01*
X128054842Y-57043777D01*
X128057070Y-57038396D01*
X128058049Y-57034831D01*
X128059452Y-57032647D01*
X128059516Y-57032493D01*
X128075499Y-56952136D01*
X128075500Y-56952133D01*
X128075499Y-56747868D01*
X128059515Y-56667505D01*
X128059513Y-56667502D01*
X128054841Y-56656222D01*
X128056285Y-56655623D01*
X128039563Y-56602211D01*
X128055517Y-56544056D01*
X128054842Y-56543777D01*
X128057070Y-56538396D01*
X128058049Y-56534831D01*
X128059452Y-56532647D01*
X128059516Y-56532493D01*
X128072658Y-56466422D01*
X128075500Y-56452133D01*
X128075499Y-56247868D01*
X128059515Y-56167505D01*
X128059513Y-56167502D01*
X128054841Y-56156222D01*
X128056285Y-56155623D01*
X128039563Y-56102211D01*
X128055517Y-56044056D01*
X128054842Y-56043777D01*
X128057070Y-56038396D01*
X128058049Y-56034831D01*
X128059452Y-56032647D01*
X128059516Y-56032493D01*
X128075499Y-55952136D01*
X128075500Y-55952133D01*
X128075499Y-55747868D01*
X128059515Y-55667505D01*
X128027405Y-55619449D01*
X127998624Y-55576375D01*
X127943995Y-55539874D01*
X127907495Y-55515485D01*
X127907493Y-55515484D01*
X127907490Y-55515483D01*
X127827137Y-55499500D01*
X127827133Y-55499500D01*
X126559109Y-55499500D01*
X126492070Y-55479815D01*
X126471428Y-55463181D01*
X124936819Y-53928572D01*
X124903334Y-53867249D01*
X124900500Y-53840891D01*
X124900500Y-52620000D01*
X126795496Y-52620000D01*
X126837968Y-52766195D01*
X126920278Y-52905374D01*
X126920285Y-52905383D01*
X127034616Y-53019714D01*
X127040785Y-53024499D01*
X127039265Y-53026457D01*
X127078625Y-53068599D01*
X127091139Y-53137339D01*
X127090770Y-53140449D01*
X127089512Y-53150012D01*
X127089500Y-53150101D01*
X127089500Y-53509894D01*
X127089501Y-53509900D01*
X127096028Y-53559487D01*
X127096029Y-53559489D01*
X127096029Y-53559490D01*
X127146776Y-53668316D01*
X127188181Y-53709721D01*
X127221666Y-53771044D01*
X127224500Y-53797402D01*
X127224500Y-53974794D01*
X127204815Y-54041833D01*
X127201588Y-54046552D01*
X127140279Y-54166878D01*
X127119196Y-54299997D01*
X127119196Y-54300002D01*
X127140279Y-54433121D01*
X127140280Y-54433124D01*
X127140281Y-54433126D01*
X127142510Y-54437500D01*
X127201473Y-54553221D01*
X127201476Y-54553225D01*
X127296774Y-54648523D01*
X127296778Y-54648526D01*
X127296780Y-54648528D01*
X127416874Y-54709719D01*
X127475128Y-54718945D01*
X127538260Y-54748873D01*
X127543410Y-54753737D01*
X127600138Y-54810465D01*
X127600140Y-54810466D01*
X127600144Y-54810469D01*
X127669481Y-54850500D01*
X127674362Y-54853318D01*
X127757147Y-54875500D01*
X127842853Y-54875500D01*
X128075501Y-54875500D01*
X128142540Y-54895185D01*
X128188295Y-54947989D01*
X128199501Y-54999500D01*
X128199501Y-55127132D01*
X128212671Y-55193345D01*
X128215485Y-55207495D01*
X128276375Y-55298624D01*
X128304349Y-55317315D01*
X128367505Y-55359515D01*
X128418332Y-55369625D01*
X128480241Y-55402009D01*
X128492516Y-55415755D01*
X128564905Y-55510094D01*
X128685021Y-55602263D01*
X128824896Y-55660200D01*
X128824901Y-55660201D01*
X128899998Y-55670087D01*
X128900000Y-55670086D01*
X128900000Y-55138300D01*
X128900499Y-55128132D01*
X128900499Y-55127138D01*
X128900500Y-55127133D01*
X128900499Y-53747868D01*
X128900499Y-53747867D01*
X128900499Y-53746868D01*
X128900000Y-53736710D01*
X128900000Y-53204911D01*
X128899998Y-53204910D01*
X128890184Y-53206203D01*
X128821149Y-53195437D01*
X128768894Y-53149057D01*
X128750000Y-53083264D01*
X128750000Y-52700000D01*
X128526529Y-52700000D01*
X128459490Y-52680315D01*
X128427368Y-52650452D01*
X128404504Y-52620000D01*
X126795496Y-52620000D01*
X124900500Y-52620000D01*
X124900500Y-52120000D01*
X126795496Y-52120000D01*
X127350000Y-52120000D01*
X127850000Y-52120000D01*
X128404504Y-52120000D01*
X128362031Y-51973804D01*
X128279721Y-51834625D01*
X128279714Y-51834616D01*
X128165383Y-51720285D01*
X128165374Y-51720278D01*
X128026195Y-51637968D01*
X128026190Y-51637966D01*
X127870918Y-51592855D01*
X127870912Y-51592854D01*
X127850000Y-51591209D01*
X127850000Y-52120000D01*
X127350000Y-52120000D01*
X127350000Y-51591210D01*
X127349999Y-51591209D01*
X127329087Y-51592854D01*
X127329081Y-51592855D01*
X127173809Y-51637966D01*
X127173804Y-51637968D01*
X127034625Y-51720278D01*
X127034616Y-51720285D01*
X126920285Y-51834616D01*
X126920278Y-51834625D01*
X126837968Y-51973804D01*
X126795496Y-52120000D01*
X124900500Y-52120000D01*
X124900500Y-46950000D01*
X126052970Y-46950000D01*
X126995854Y-46950000D01*
X126957370Y-47016657D01*
X126925000Y-47137465D01*
X126925000Y-47262535D01*
X126957370Y-47383343D01*
X126995854Y-47450000D01*
X126052970Y-47450000D01*
X126083242Y-47641127D01*
X126083242Y-47641130D01*
X126148904Y-47843217D01*
X126245379Y-48032557D01*
X126370272Y-48204459D01*
X126370276Y-48204464D01*
X126520535Y-48354723D01*
X126520540Y-48354727D01*
X126692442Y-48479620D01*
X126881782Y-48576095D01*
X127083871Y-48641757D01*
X127150000Y-48652231D01*
X127150000Y-47604145D01*
X127216657Y-47642630D01*
X127337465Y-47675000D01*
X127462535Y-47675000D01*
X127583343Y-47642630D01*
X127650000Y-47604145D01*
X127650000Y-48652230D01*
X127716126Y-48641757D01*
X127716129Y-48641757D01*
X127918217Y-48576095D01*
X128107557Y-48479620D01*
X128279459Y-48354727D01*
X128279464Y-48354723D01*
X128429723Y-48204464D01*
X128429727Y-48204459D01*
X128554620Y-48032557D01*
X128651095Y-47843217D01*
X128690759Y-47721144D01*
X128730196Y-47663469D01*
X128794555Y-47636270D01*
X128863401Y-47648184D01*
X128914877Y-47695428D01*
X128923251Y-47712009D01*
X128969057Y-47822596D01*
X129084024Y-47994657D01*
X129230342Y-48140975D01*
X129230345Y-48140977D01*
X129402402Y-48255941D01*
X129593580Y-48335130D01*
X129749499Y-48366144D01*
X129796530Y-48375499D01*
X129796534Y-48375500D01*
X129796535Y-48375500D01*
X130003466Y-48375500D01*
X130003467Y-48375499D01*
X130206420Y-48335130D01*
X130397598Y-48255941D01*
X130397605Y-48255935D01*
X130402965Y-48253072D01*
X130404287Y-48255545D01*
X130459385Y-48238182D01*
X130526799Y-48256544D01*
X130549506Y-48274477D01*
X131713181Y-49438152D01*
X131746666Y-49499475D01*
X131749500Y-49525833D01*
X131749500Y-51549167D01*
X131729815Y-51616206D01*
X131677011Y-51661961D01*
X131607853Y-51671905D01*
X131587178Y-51667097D01*
X131583120Y-51665778D01*
X131450002Y-51644695D01*
X131449998Y-51644695D01*
X131316878Y-51665778D01*
X131196778Y-51726972D01*
X131196774Y-51726975D01*
X131101476Y-51822273D01*
X131101473Y-51822277D01*
X131040279Y-51942377D01*
X131019196Y-52075496D01*
X131019196Y-52075501D01*
X131028032Y-52131290D01*
X131019077Y-52200584D01*
X130974081Y-52254036D01*
X130924958Y-52273161D01*
X130816877Y-52290279D01*
X130696778Y-52351473D01*
X130696774Y-52351476D01*
X130601476Y-52446774D01*
X130601473Y-52446778D01*
X130540279Y-52566878D01*
X130519196Y-52699997D01*
X130519196Y-52700000D01*
X130540279Y-52833121D01*
X130540280Y-52833124D01*
X130540281Y-52833126D01*
X130601472Y-52953220D01*
X130601473Y-52953221D01*
X130601476Y-52953225D01*
X130696774Y-53048523D01*
X130696777Y-53048525D01*
X130696780Y-53048528D01*
X130696782Y-53048529D01*
X130698379Y-53049689D01*
X130699858Y-53051607D01*
X130703680Y-53055429D01*
X130703186Y-53055922D01*
X130741048Y-53105017D01*
X130749500Y-53150012D01*
X130749500Y-53375500D01*
X130729815Y-53442539D01*
X130677011Y-53488294D01*
X130625501Y-53499500D01*
X130447870Y-53499500D01*
X130387867Y-53511434D01*
X130367505Y-53515485D01*
X130367504Y-53515485D01*
X130367501Y-53515486D01*
X130356220Y-53520159D01*
X130355621Y-53518714D01*
X130302204Y-53535436D01*
X130244061Y-53519481D01*
X130243781Y-53520159D01*
X130238383Y-53517923D01*
X130234825Y-53516947D01*
X130232648Y-53515547D01*
X130232494Y-53515484D01*
X130152135Y-53499500D01*
X129947870Y-53499500D01*
X129887867Y-53511434D01*
X129867505Y-53515485D01*
X129867504Y-53515485D01*
X129867501Y-53515486D01*
X129856220Y-53520159D01*
X129855621Y-53518714D01*
X129802204Y-53535436D01*
X129744061Y-53519481D01*
X129743781Y-53520159D01*
X129738383Y-53517923D01*
X129734825Y-53516947D01*
X129732648Y-53515547D01*
X129732495Y-53515484D01*
X129681667Y-53505374D01*
X129619756Y-53472989D01*
X129607483Y-53459244D01*
X129535094Y-53364905D01*
X129414978Y-53272736D01*
X129275108Y-53214801D01*
X129275103Y-53214800D01*
X129200000Y-53204911D01*
X129200000Y-53736699D01*
X129199500Y-53746877D01*
X129199500Y-53747866D01*
X129199500Y-53747867D01*
X129199500Y-54433126D01*
X129199501Y-54437500D01*
X129199501Y-55128142D01*
X129200000Y-55138289D01*
X129200000Y-55670086D01*
X129200001Y-55670087D01*
X129275098Y-55660201D01*
X129275103Y-55660200D01*
X129414978Y-55602263D01*
X129535099Y-55510090D01*
X129537819Y-55507371D01*
X129540678Y-55505809D01*
X129541542Y-55505147D01*
X129541645Y-55505281D01*
X129599142Y-55473886D01*
X129668834Y-55478870D01*
X129724767Y-55520742D01*
X129749184Y-55586206D01*
X129749500Y-55595052D01*
X129749500Y-56997389D01*
X129729815Y-57064428D01*
X129713181Y-57085070D01*
X129651476Y-57146774D01*
X129651473Y-57146778D01*
X129590279Y-57266878D01*
X129569196Y-57399997D01*
X129569196Y-57400002D01*
X129590279Y-57533121D01*
X129590280Y-57533124D01*
X129590281Y-57533126D01*
X129651472Y-57653220D01*
X129651473Y-57653221D01*
X129651476Y-57653225D01*
X129746774Y-57748523D01*
X129746778Y-57748526D01*
X129746780Y-57748528D01*
X129866874Y-57809719D01*
X129866876Y-57809719D01*
X129866878Y-57809720D01*
X129999998Y-57830804D01*
X130000000Y-57830804D01*
X130000002Y-57830804D01*
X130133121Y-57809720D01*
X130133121Y-57809719D01*
X130133126Y-57809719D01*
X130253220Y-57748528D01*
X130348528Y-57653220D01*
X130409719Y-57533126D01*
X130409819Y-57532493D01*
X130430804Y-57400002D01*
X130430804Y-57399997D01*
X130409720Y-57266876D01*
X130364015Y-57177174D01*
X130350500Y-57120880D01*
X130350500Y-55732243D01*
X130370185Y-55665204D01*
X130422989Y-55619449D01*
X130492147Y-55609505D01*
X130555703Y-55638530D01*
X130562181Y-55644562D01*
X131977130Y-57059511D01*
X132033079Y-57115460D01*
X132033081Y-57115461D01*
X132033085Y-57115464D01*
X132087327Y-57146780D01*
X132101601Y-57155021D01*
X132178028Y-57175500D01*
X133447389Y-57175500D01*
X133514428Y-57195185D01*
X133535070Y-57211819D01*
X133546774Y-57223523D01*
X133546778Y-57223526D01*
X133546780Y-57223528D01*
X133666874Y-57284719D01*
X133666876Y-57284719D01*
X133666878Y-57284720D01*
X133799998Y-57305804D01*
X133800000Y-57305804D01*
X133800002Y-57305804D01*
X133933121Y-57284720D01*
X133933121Y-57284719D01*
X133933126Y-57284719D01*
X134053220Y-57223528D01*
X134148528Y-57128220D01*
X134209719Y-57008126D01*
X134211420Y-56997389D01*
X134230804Y-56875002D01*
X134230804Y-56874997D01*
X134209720Y-56741878D01*
X134209719Y-56741876D01*
X134209719Y-56741874D01*
X134148528Y-56621780D01*
X134148526Y-56621778D01*
X134148523Y-56621774D01*
X134053225Y-56526476D01*
X134053221Y-56526473D01*
X134053220Y-56526472D01*
X133933126Y-56465281D01*
X133933124Y-56465280D01*
X133933121Y-56465279D01*
X133800002Y-56444196D01*
X133799998Y-56444196D01*
X133666878Y-56465279D01*
X133546778Y-56526473D01*
X133546774Y-56526476D01*
X133535070Y-56538181D01*
X133473747Y-56571666D01*
X133447389Y-56574500D01*
X132393423Y-56574500D01*
X132326384Y-56554815D01*
X132305742Y-56538181D01*
X131354741Y-55587180D01*
X131321256Y-55525857D01*
X131326240Y-55456165D01*
X131368112Y-55400232D01*
X131433576Y-55375815D01*
X131442422Y-55375499D01*
X131447862Y-55375499D01*
X131447867Y-55375500D01*
X131652132Y-55375499D01*
X131732495Y-55359515D01*
X131732498Y-55359512D01*
X131743778Y-55354841D01*
X131744376Y-55356286D01*
X131797782Y-55339563D01*
X131855943Y-55355516D01*
X131856223Y-55354842D01*
X131861590Y-55357065D01*
X131865162Y-55358045D01*
X131867351Y-55359451D01*
X131867506Y-55359516D01*
X131918326Y-55369624D01*
X131947867Y-55375500D01*
X132152132Y-55375499D01*
X132232495Y-55359515D01*
X132232498Y-55359512D01*
X132243778Y-55354841D01*
X132244376Y-55356286D01*
X132297782Y-55339563D01*
X132355943Y-55355516D01*
X132356223Y-55354842D01*
X132361590Y-55357065D01*
X132365162Y-55358045D01*
X132367351Y-55359451D01*
X132367506Y-55359516D01*
X132418326Y-55369624D01*
X132447867Y-55375500D01*
X132652132Y-55375499D01*
X132732495Y-55359515D01*
X132732498Y-55359512D01*
X132743778Y-55354841D01*
X132744376Y-55356286D01*
X132797782Y-55339563D01*
X132855943Y-55355516D01*
X132856223Y-55354842D01*
X132861590Y-55357065D01*
X132865162Y-55358045D01*
X132867351Y-55359451D01*
X132867506Y-55359516D01*
X132918326Y-55369624D01*
X132947867Y-55375500D01*
X133152132Y-55375499D01*
X133232495Y-55359515D01*
X133232498Y-55359512D01*
X133243778Y-55354841D01*
X133244376Y-55356286D01*
X133297782Y-55339563D01*
X133355943Y-55355516D01*
X133356223Y-55354842D01*
X133361590Y-55357065D01*
X133365162Y-55358045D01*
X133367351Y-55359451D01*
X133367506Y-55359516D01*
X133418326Y-55369624D01*
X133447867Y-55375500D01*
X133652132Y-55375499D01*
X133732495Y-55359515D01*
X133732498Y-55359512D01*
X133743778Y-55354841D01*
X133744376Y-55356286D01*
X133797782Y-55339563D01*
X133855943Y-55355516D01*
X133856223Y-55354842D01*
X133861590Y-55357065D01*
X133865162Y-55358045D01*
X133867351Y-55359451D01*
X133867506Y-55359516D01*
X133918326Y-55369624D01*
X133947867Y-55375500D01*
X134152132Y-55375499D01*
X134232495Y-55359515D01*
X134257109Y-55343067D01*
X134323786Y-55322190D01*
X134391167Y-55340674D01*
X134437857Y-55392653D01*
X134450000Y-55446170D01*
X134450000Y-55500000D01*
X134460688Y-55510688D01*
X134491328Y-55519685D01*
X134537083Y-55572489D01*
X134547027Y-55641647D01*
X134541939Y-55660187D01*
X134524500Y-55747863D01*
X134524500Y-55952129D01*
X134540486Y-56032498D01*
X134545159Y-56043780D01*
X134543714Y-56044378D01*
X134560436Y-56097788D01*
X134544482Y-56155938D01*
X134545159Y-56156219D01*
X134542926Y-56161609D01*
X134541950Y-56165168D01*
X134540550Y-56167345D01*
X134540484Y-56167505D01*
X134524500Y-56247863D01*
X134524500Y-56452129D01*
X134527116Y-56465279D01*
X134539287Y-56526473D01*
X134540486Y-56532498D01*
X134545159Y-56543780D01*
X134543714Y-56544378D01*
X134560436Y-56597788D01*
X134544482Y-56655938D01*
X134545159Y-56656219D01*
X134542926Y-56661609D01*
X134541950Y-56665168D01*
X134540550Y-56667345D01*
X134540484Y-56667505D01*
X134524500Y-56747863D01*
X134524500Y-56952129D01*
X134540486Y-57032498D01*
X134545159Y-57043780D01*
X134543714Y-57044378D01*
X134560436Y-57097788D01*
X134544482Y-57155938D01*
X134545159Y-57156219D01*
X134542926Y-57161609D01*
X134541950Y-57165168D01*
X134540550Y-57167345D01*
X134540484Y-57167503D01*
X134530374Y-57218332D01*
X134497988Y-57280242D01*
X134484245Y-57292514D01*
X134389906Y-57364904D01*
X134297736Y-57485021D01*
X134239801Y-57624891D01*
X134239800Y-57624896D01*
X134229911Y-57699999D01*
X134229912Y-57700000D01*
X134761699Y-57700000D01*
X134771877Y-57700499D01*
X134772862Y-57700499D01*
X134772867Y-57700500D01*
X136152132Y-57700499D01*
X136153129Y-57700499D01*
X136163289Y-57700000D01*
X136695088Y-57700000D01*
X136695088Y-57699999D01*
X136692455Y-57680000D01*
X137645496Y-57680000D01*
X137687968Y-57826195D01*
X137770278Y-57965374D01*
X137770285Y-57965383D01*
X137884616Y-58079714D01*
X137884625Y-58079721D01*
X138023804Y-58162031D01*
X138179089Y-58207145D01*
X138200000Y-58208789D01*
X138700000Y-58208789D01*
X138720910Y-58207145D01*
X138876195Y-58162031D01*
X138911877Y-58140929D01*
X138979601Y-58123745D01*
X139038123Y-58140929D01*
X139073804Y-58162031D01*
X139229089Y-58207145D01*
X139250000Y-58208789D01*
X139250000Y-57680000D01*
X138700000Y-57680000D01*
X138700000Y-58208789D01*
X138200000Y-58208789D01*
X138200000Y-57680000D01*
X137645496Y-57680000D01*
X136692455Y-57680000D01*
X136685199Y-57624896D01*
X136685198Y-57624891D01*
X136628244Y-57487389D01*
X136620775Y-57417920D01*
X136652050Y-57355441D01*
X136655096Y-57352284D01*
X137200562Y-56806819D01*
X137261885Y-56773334D01*
X137288243Y-56770500D01*
X137626291Y-56770500D01*
X137693330Y-56790185D01*
X137739085Y-56842989D01*
X137749029Y-56912147D01*
X137733023Y-56957621D01*
X137687968Y-57033804D01*
X137645496Y-57180000D01*
X139376000Y-57180000D01*
X139443039Y-57199685D01*
X139488794Y-57252489D01*
X139500000Y-57304000D01*
X139500000Y-57430000D01*
X139626000Y-57430000D01*
X139693039Y-57449685D01*
X139738794Y-57502489D01*
X139750000Y-57554000D01*
X139750000Y-58208789D01*
X139770910Y-58207145D01*
X139926195Y-58162031D01*
X140065374Y-58079721D01*
X140065383Y-58079714D01*
X140182163Y-57962935D01*
X140243486Y-57929450D01*
X140313178Y-57934434D01*
X140357525Y-57962935D01*
X140444243Y-58049653D01*
X140444245Y-58049654D01*
X140444249Y-58049658D01*
X140562580Y-58109951D01*
X140562581Y-58109951D01*
X140562583Y-58109952D01*
X140562582Y-58109952D01*
X140660749Y-58125500D01*
X140660754Y-58125500D01*
X141239251Y-58125500D01*
X141337417Y-58109952D01*
X141337418Y-58109951D01*
X141337420Y-58109951D01*
X141455751Y-58049658D01*
X141511679Y-57993729D01*
X141572998Y-57960246D01*
X141608187Y-57957727D01*
X141834337Y-57973881D01*
X141899801Y-57998291D01*
X141941678Y-58054221D01*
X141949500Y-58097565D01*
X141949500Y-58825500D01*
X141929815Y-58892539D01*
X141877011Y-58938294D01*
X141825500Y-58949500D01*
X137308243Y-58949500D01*
X137241204Y-58929815D01*
X137220562Y-58913181D01*
X136655124Y-58347743D01*
X136621639Y-58286420D01*
X136626623Y-58216728D01*
X136628244Y-58212609D01*
X136685199Y-58075105D01*
X136685199Y-58075103D01*
X136695088Y-58000000D01*
X136163301Y-58000000D01*
X136153123Y-57999500D01*
X134771870Y-57999500D01*
X134761711Y-58000000D01*
X134229912Y-58000000D01*
X134239800Y-58075103D01*
X134239801Y-58075108D01*
X134297736Y-58214978D01*
X134389905Y-58335094D01*
X134484245Y-58407484D01*
X134525447Y-58463912D01*
X134530375Y-58481669D01*
X134540484Y-58532494D01*
X134545159Y-58543780D01*
X134543714Y-58544378D01*
X134560436Y-58597788D01*
X134544482Y-58655938D01*
X134545159Y-58656219D01*
X134542926Y-58661609D01*
X134541950Y-58665168D01*
X134540550Y-58667345D01*
X134540484Y-58667505D01*
X134524500Y-58747863D01*
X134524500Y-58952129D01*
X134540486Y-59032498D01*
X134545159Y-59043780D01*
X134543714Y-59044378D01*
X134560436Y-59097788D01*
X134544482Y-59155938D01*
X134545159Y-59156219D01*
X134542926Y-59161609D01*
X134541950Y-59165168D01*
X134540550Y-59167345D01*
X134540484Y-59167505D01*
X134524500Y-59247863D01*
X134524500Y-59452129D01*
X134532124Y-59490458D01*
X134539992Y-59530017D01*
X134540486Y-59532498D01*
X134545159Y-59543780D01*
X134543714Y-59544378D01*
X134560436Y-59597788D01*
X134544482Y-59655938D01*
X134545159Y-59656219D01*
X134542926Y-59661609D01*
X134541950Y-59665168D01*
X134540550Y-59667345D01*
X134540484Y-59667505D01*
X134524500Y-59747863D01*
X134524500Y-59952129D01*
X134540486Y-60032498D01*
X134545159Y-60043780D01*
X134543714Y-60044378D01*
X134560436Y-60097788D01*
X134544482Y-60155938D01*
X134545159Y-60156219D01*
X134542926Y-60161609D01*
X134541950Y-60165168D01*
X134540550Y-60167345D01*
X134540484Y-60167505D01*
X134524500Y-60247863D01*
X134524500Y-60452129D01*
X134540486Y-60532498D01*
X134545159Y-60543780D01*
X134543714Y-60544378D01*
X134560436Y-60597788D01*
X134544482Y-60655938D01*
X134545159Y-60656219D01*
X134542926Y-60661609D01*
X134541950Y-60665168D01*
X134540550Y-60667345D01*
X134540484Y-60667505D01*
X134524500Y-60747863D01*
X134524500Y-60952129D01*
X134528116Y-60970309D01*
X134538555Y-61022793D01*
X134540486Y-61032498D01*
X134545159Y-61043780D01*
X134543714Y-61044378D01*
X134560436Y-61097788D01*
X134544482Y-61155938D01*
X134545159Y-61156219D01*
X134542926Y-61161609D01*
X134541950Y-61165168D01*
X134540550Y-61167345D01*
X134540484Y-61167505D01*
X134524500Y-61247863D01*
X134524500Y-61452129D01*
X134527460Y-61467011D01*
X134539608Y-61528088D01*
X134542868Y-61544473D01*
X134540611Y-61544921D01*
X134546319Y-61598018D01*
X134515043Y-61660497D01*
X134454954Y-61696149D01*
X134424289Y-61700000D01*
X134400000Y-61700000D01*
X134400000Y-61724288D01*
X134380315Y-61791327D01*
X134327511Y-61837082D01*
X134258353Y-61847026D01*
X134239815Y-61841940D01*
X134181668Y-61830374D01*
X134119757Y-61797989D01*
X134107483Y-61784244D01*
X134035094Y-61689905D01*
X133914978Y-61597736D01*
X133775108Y-61539801D01*
X133775103Y-61539800D01*
X133700000Y-61529911D01*
X133700000Y-62061699D01*
X133699500Y-62071877D01*
X133699500Y-62072866D01*
X133699500Y-62072867D01*
X133699500Y-62756588D01*
X133699501Y-62762500D01*
X133699501Y-63453142D01*
X133700000Y-63463289D01*
X133700000Y-63995086D01*
X133700001Y-63995087D01*
X133775098Y-63985201D01*
X133775103Y-63985200D01*
X133914978Y-63927263D01*
X134035096Y-63835093D01*
X134107484Y-63740755D01*
X134163912Y-63699552D01*
X134181661Y-63694625D01*
X134232495Y-63684515D01*
X134315247Y-63629221D01*
X134381922Y-63608344D01*
X134449302Y-63626828D01*
X134471818Y-63644644D01*
X134508357Y-63681184D01*
X134541842Y-63742508D01*
X134536856Y-63812199D01*
X134508357Y-63856545D01*
X134420282Y-63944620D01*
X134420278Y-63944625D01*
X134337968Y-64083804D01*
X134295496Y-64230000D01*
X135904504Y-64230000D01*
X135862031Y-64083804D01*
X135779721Y-63944625D01*
X135779714Y-63944616D01*
X135665381Y-63830283D01*
X135659217Y-63825502D01*
X135660733Y-63823547D01*
X135621363Y-63781378D01*
X135608862Y-63712635D01*
X135609226Y-63709576D01*
X135610500Y-63699901D01*
X135610500Y-63680000D01*
X136445496Y-63680000D01*
X136487968Y-63826195D01*
X136570278Y-63965374D01*
X136570285Y-63965383D01*
X136684616Y-64079714D01*
X136684625Y-64079721D01*
X136823804Y-64162031D01*
X136979089Y-64207145D01*
X137000000Y-64208789D01*
X137000000Y-63680000D01*
X136445496Y-63680000D01*
X135610500Y-63680000D01*
X135610499Y-63521188D01*
X135630183Y-63454149D01*
X135646814Y-63433511D01*
X135939652Y-63140672D01*
X135939657Y-63140669D01*
X135944008Y-63136319D01*
X135950960Y-63132522D01*
X135971874Y-63117449D01*
X135971880Y-63117446D01*
X135973315Y-63120316D01*
X136005331Y-63102834D01*
X136031689Y-63100000D01*
X136323471Y-63100000D01*
X136390510Y-63119685D01*
X136422632Y-63149548D01*
X136445496Y-63180000D01*
X137126000Y-63180000D01*
X137193039Y-63199685D01*
X137238794Y-63252489D01*
X137250000Y-63304000D01*
X137250000Y-63430000D01*
X137376000Y-63430000D01*
X137443039Y-63449685D01*
X137488794Y-63502489D01*
X137500000Y-63554000D01*
X137500000Y-64208789D01*
X137520910Y-64207145D01*
X137676194Y-64162031D01*
X137679812Y-64160466D01*
X137682894Y-64160085D01*
X137683687Y-64159855D01*
X137683724Y-64159982D01*
X137749154Y-64151902D01*
X137812119Y-64182187D01*
X137848715Y-64241706D01*
X137847324Y-64311562D01*
X137846773Y-64313266D01*
X137835494Y-64347304D01*
X137835493Y-64347309D01*
X137825000Y-64450013D01*
X137825000Y-64500000D01*
X140274999Y-64500000D01*
X140274999Y-64450028D01*
X140274998Y-64450013D01*
X140264780Y-64349997D01*
X141819196Y-64349997D01*
X141819196Y-64350002D01*
X141840279Y-64483121D01*
X141840280Y-64483124D01*
X141840281Y-64483126D01*
X141901472Y-64603220D01*
X141901473Y-64603221D01*
X141901476Y-64603225D01*
X141996774Y-64698523D01*
X141996778Y-64698526D01*
X141996780Y-64698528D01*
X142116874Y-64759719D01*
X142116876Y-64759719D01*
X142116878Y-64759720D01*
X142217136Y-64775599D01*
X142280271Y-64805528D01*
X142285420Y-64810391D01*
X142315489Y-64840460D01*
X142315491Y-64840461D01*
X142315495Y-64840464D01*
X142349236Y-64859944D01*
X142384011Y-64880021D01*
X142460438Y-64900500D01*
X142539562Y-64900500D01*
X146144167Y-64900500D01*
X146211206Y-64920185D01*
X146231848Y-64936819D01*
X146403181Y-65108152D01*
X146436666Y-65169475D01*
X146439500Y-65195832D01*
X146439500Y-65409894D01*
X146439501Y-65409900D01*
X146446028Y-65459487D01*
X146446029Y-65459489D01*
X146446029Y-65459490D01*
X146496776Y-65568316D01*
X146583181Y-65654721D01*
X146616666Y-65716044D01*
X146619500Y-65742402D01*
X146619500Y-66159562D01*
X146625509Y-66181987D01*
X146639979Y-66235990D01*
X146639982Y-66235995D01*
X146679535Y-66304504D01*
X146679541Y-66304512D01*
X147063181Y-66688152D01*
X147096666Y-66749475D01*
X147099500Y-66775833D01*
X147099500Y-68219752D01*
X147111131Y-68278229D01*
X147111132Y-68278230D01*
X147155447Y-68344552D01*
X147221769Y-68388867D01*
X147221770Y-68388868D01*
X147280247Y-68400499D01*
X147280250Y-68400500D01*
X147280252Y-68400500D01*
X149319750Y-68400500D01*
X149319751Y-68400499D01*
X149334568Y-68397552D01*
X149378229Y-68388868D01*
X149378229Y-68388867D01*
X149378231Y-68388867D01*
X149444552Y-68344552D01*
X149488867Y-68278231D01*
X149488867Y-68278229D01*
X149488868Y-68278229D01*
X149500499Y-68219752D01*
X149500500Y-68219750D01*
X149500500Y-66780249D01*
X149500499Y-66780247D01*
X149488868Y-66721770D01*
X149488867Y-66721769D01*
X149444552Y-66655447D01*
X149378230Y-66611132D01*
X149378229Y-66611131D01*
X149319752Y-66599500D01*
X149319748Y-66599500D01*
X147875833Y-66599500D01*
X147808794Y-66579815D01*
X147788152Y-66563181D01*
X147406958Y-66181987D01*
X147373473Y-66120664D01*
X147378457Y-66050972D01*
X147420329Y-65995039D01*
X147485793Y-65970622D01*
X147529234Y-65975229D01*
X147630000Y-66004503D01*
X148130000Y-66004503D01*
X148276195Y-65962031D01*
X148415374Y-65879721D01*
X148415383Y-65879714D01*
X148529714Y-65765383D01*
X148529721Y-65765374D01*
X148612031Y-65626195D01*
X148612033Y-65626190D01*
X148657144Y-65470918D01*
X148657145Y-65470912D01*
X148658790Y-65450000D01*
X148130000Y-65450000D01*
X148130000Y-66004503D01*
X147630000Y-66004503D01*
X147630000Y-64395494D01*
X148130000Y-64395494D01*
X148130000Y-64950000D01*
X148658790Y-64950000D01*
X148657145Y-64929089D01*
X148612031Y-64773804D01*
X148529721Y-64634625D01*
X148529714Y-64634616D01*
X148415383Y-64520285D01*
X148415374Y-64520278D01*
X148276193Y-64437967D01*
X148276190Y-64437965D01*
X148130001Y-64395493D01*
X148130000Y-64395494D01*
X147630000Y-64395494D01*
X147629998Y-64395493D01*
X147483809Y-64437965D01*
X147483806Y-64437967D01*
X147344625Y-64520278D01*
X147344620Y-64520282D01*
X147230282Y-64634621D01*
X147225499Y-64640788D01*
X147223544Y-64639272D01*
X147181362Y-64678644D01*
X147112618Y-64691135D01*
X147109537Y-64690768D01*
X147099904Y-64689500D01*
X147099901Y-64689500D01*
X146885833Y-64689500D01*
X146818794Y-64669815D01*
X146798152Y-64653181D01*
X146504512Y-64359541D01*
X146504511Y-64359540D01*
X146482439Y-64346797D01*
X146482439Y-64346795D01*
X146482436Y-64346795D01*
X146435994Y-64319981D01*
X146435991Y-64319979D01*
X146397775Y-64309739D01*
X146359562Y-64299500D01*
X146359560Y-64299500D01*
X142776657Y-64299500D01*
X142709618Y-64279815D01*
X142663863Y-64227011D01*
X142660554Y-64218513D01*
X142651873Y-64201476D01*
X142598528Y-64096780D01*
X142598524Y-64096776D01*
X142598523Y-64096774D01*
X142503225Y-64001476D01*
X142503221Y-64001473D01*
X142503220Y-64001472D01*
X142383126Y-63940281D01*
X142383124Y-63940280D01*
X142383121Y-63940279D01*
X142250002Y-63919196D01*
X142249998Y-63919196D01*
X142116878Y-63940279D01*
X141996778Y-64001473D01*
X141996774Y-64001476D01*
X141901476Y-64096774D01*
X141901473Y-64096778D01*
X141840279Y-64216878D01*
X141819196Y-64349997D01*
X140264780Y-64349997D01*
X140264505Y-64347302D01*
X140209358Y-64180880D01*
X140209356Y-64180875D01*
X140117315Y-64031654D01*
X139993345Y-63907684D01*
X139844124Y-63815643D01*
X139844119Y-63815641D01*
X139675917Y-63759905D01*
X139618472Y-63720133D01*
X139591649Y-63655617D01*
X139603964Y-63586841D01*
X139651507Y-63535641D01*
X139673966Y-63525158D01*
X139685309Y-63521189D01*
X139737882Y-63502793D01*
X139847150Y-63422150D01*
X139927793Y-63312882D01*
X139952954Y-63240975D01*
X139972646Y-63184701D01*
X139972646Y-63184699D01*
X139975500Y-63154269D01*
X139975500Y-62545730D01*
X139972646Y-62515300D01*
X139972646Y-62515298D01*
X139932816Y-62401473D01*
X139927793Y-62387118D01*
X139847150Y-62277850D01*
X139737882Y-62197207D01*
X139737880Y-62197206D01*
X139609700Y-62152353D01*
X139579270Y-62149500D01*
X139579266Y-62149500D01*
X138747837Y-62149500D01*
X138715751Y-62145276D01*
X138712853Y-62144500D01*
X138712851Y-62144500D01*
X137767403Y-62144500D01*
X137700364Y-62124815D01*
X137679722Y-62108182D01*
X137651998Y-62080458D01*
X137618316Y-62046776D01*
X137509487Y-61996028D01*
X137509485Y-61996027D01*
X137509486Y-61996027D01*
X137459901Y-61989500D01*
X137040105Y-61989500D01*
X137024386Y-61991569D01*
X136990513Y-61996028D01*
X136990511Y-61996029D01*
X136990509Y-61996029D01*
X136881683Y-62046776D01*
X136790279Y-62138181D01*
X136728956Y-62171666D01*
X136702598Y-62174500D01*
X136199500Y-62174500D01*
X136132461Y-62154815D01*
X136086706Y-62102011D01*
X136075500Y-62050500D01*
X136075500Y-61817506D01*
X136095185Y-61750467D01*
X136147989Y-61704712D01*
X136175304Y-61695889D01*
X136232495Y-61684515D01*
X136323624Y-61623624D01*
X136384515Y-61532495D01*
X136400500Y-61452133D01*
X136400499Y-61247868D01*
X136384515Y-61167505D01*
X136384513Y-61167502D01*
X136379841Y-61156222D01*
X136381285Y-61155623D01*
X136364563Y-61102211D01*
X136380517Y-61044056D01*
X136379842Y-61043777D01*
X136382070Y-61038396D01*
X136383049Y-61034831D01*
X136384452Y-61032647D01*
X136384516Y-61032493D01*
X136394423Y-60982684D01*
X136400500Y-60952133D01*
X136400499Y-60747868D01*
X136384515Y-60667505D01*
X136384513Y-60667502D01*
X136379841Y-60656222D01*
X136381285Y-60655623D01*
X136364563Y-60602211D01*
X136380517Y-60544056D01*
X136379842Y-60543777D01*
X136382070Y-60538396D01*
X136383049Y-60534831D01*
X136384452Y-60532647D01*
X136384516Y-60532493D01*
X136400499Y-60452136D01*
X136400500Y-60452133D01*
X136400499Y-60247868D01*
X136384515Y-60167505D01*
X136384513Y-60167502D01*
X136379841Y-60156222D01*
X136381285Y-60155623D01*
X136364563Y-60102211D01*
X136380517Y-60044056D01*
X136379842Y-60043777D01*
X136382070Y-60038396D01*
X136383049Y-60034831D01*
X136384452Y-60032647D01*
X136384516Y-60032493D01*
X136400499Y-59952136D01*
X136400500Y-59952133D01*
X136400499Y-59747868D01*
X136384515Y-59667505D01*
X136384513Y-59667502D01*
X136379841Y-59656222D01*
X136381285Y-59655623D01*
X136364563Y-59602211D01*
X136380517Y-59544056D01*
X136379842Y-59543777D01*
X136382070Y-59538396D01*
X136383049Y-59534831D01*
X136384452Y-59532647D01*
X136384516Y-59532493D01*
X136400499Y-59452136D01*
X136400500Y-59452133D01*
X136400499Y-59247868D01*
X136400499Y-59247867D01*
X136400499Y-59242423D01*
X136420183Y-59175383D01*
X136472987Y-59129628D01*
X136542145Y-59119684D01*
X136605701Y-59148709D01*
X136612180Y-59154741D01*
X136891950Y-59434511D01*
X136947899Y-59490460D01*
X136947901Y-59490461D01*
X136947905Y-59490464D01*
X137016414Y-59530017D01*
X137016421Y-59530021D01*
X137092848Y-59550500D01*
X137171972Y-59550500D01*
X139726000Y-59550500D01*
X139793039Y-59570185D01*
X139838794Y-59622989D01*
X139850000Y-59674500D01*
X139850000Y-60159316D01*
X139830315Y-60226355D01*
X139782296Y-60269800D01*
X139672516Y-60325736D01*
X139672509Y-60325741D01*
X139577211Y-60421039D01*
X139577208Y-60421043D01*
X139516014Y-60541143D01*
X139494931Y-60674262D01*
X139494931Y-60674267D01*
X139516014Y-60807386D01*
X139516015Y-60807389D01*
X139516016Y-60807391D01*
X139577207Y-60927485D01*
X139577208Y-60927486D01*
X139577211Y-60927490D01*
X139672509Y-61022788D01*
X139672513Y-61022791D01*
X139672515Y-61022793D01*
X139792609Y-61083984D01*
X139792611Y-61083984D01*
X139792613Y-61083985D01*
X139925733Y-61105069D01*
X139925735Y-61105069D01*
X139925737Y-61105069D01*
X140058856Y-61083985D01*
X140058856Y-61083984D01*
X140058861Y-61083984D01*
X140178955Y-61022793D01*
X140274263Y-60927485D01*
X140274266Y-60927480D01*
X140278533Y-60921609D01*
X140333865Y-60878946D01*
X140378847Y-60870500D01*
X142579983Y-60870500D01*
X142647022Y-60890185D01*
X142692777Y-60942989D01*
X142701600Y-60970309D01*
X142711131Y-61018229D01*
X142711132Y-61018230D01*
X142755447Y-61084552D01*
X142781407Y-61101898D01*
X142826212Y-61155511D01*
X142834919Y-61224836D01*
X142804764Y-61287863D01*
X142781407Y-61308102D01*
X142755447Y-61325447D01*
X142711132Y-61391769D01*
X142711131Y-61391770D01*
X142701600Y-61439691D01*
X142669215Y-61501602D01*
X142608500Y-61536176D01*
X142579983Y-61539500D01*
X141635047Y-61539500D01*
X141568008Y-61519815D01*
X141522253Y-61467011D01*
X141512573Y-61434896D01*
X141511619Y-61428875D01*
X141509719Y-61416874D01*
X141448528Y-61296780D01*
X141448526Y-61296778D01*
X141448523Y-61296774D01*
X141353225Y-61201476D01*
X141353221Y-61201473D01*
X141353220Y-61201472D01*
X141233126Y-61140281D01*
X141233124Y-61140280D01*
X141233121Y-61140279D01*
X141100002Y-61119196D01*
X141099998Y-61119196D01*
X140966878Y-61140279D01*
X140966874Y-61140280D01*
X140966874Y-61140281D01*
X140918619Y-61164868D01*
X140846778Y-61201473D01*
X140846774Y-61201476D01*
X140751476Y-61296774D01*
X140751473Y-61296778D01*
X140690279Y-61416878D01*
X140669196Y-61549997D01*
X140669196Y-61550002D01*
X140690279Y-61683121D01*
X140690280Y-61683124D01*
X140690281Y-61683126D01*
X140748807Y-61797989D01*
X140751473Y-61803221D01*
X140751476Y-61803225D01*
X140846774Y-61898523D01*
X140846778Y-61898526D01*
X140846780Y-61898528D01*
X140966874Y-61959719D01*
X140966876Y-61959719D01*
X140966878Y-61959720D01*
X141067136Y-61975599D01*
X141130271Y-62005528D01*
X141135420Y-62010391D01*
X141149540Y-62024511D01*
X141205489Y-62080460D01*
X141205491Y-62080461D01*
X141205495Y-62080464D01*
X141253505Y-62108182D01*
X141274011Y-62120021D01*
X141350438Y-62140500D01*
X141429562Y-62140500D01*
X142579983Y-62140500D01*
X142647022Y-62160185D01*
X142692777Y-62212989D01*
X142701600Y-62240309D01*
X142711131Y-62288229D01*
X142711132Y-62288230D01*
X142755447Y-62354552D01*
X142781407Y-62371898D01*
X142826212Y-62425511D01*
X142834919Y-62494836D01*
X142804764Y-62557863D01*
X142781407Y-62578102D01*
X142755447Y-62595447D01*
X142711132Y-62661769D01*
X142711131Y-62661770D01*
X142699500Y-62720247D01*
X142699500Y-63499752D01*
X142711131Y-63558229D01*
X142711132Y-63558230D01*
X142755447Y-63624552D01*
X142821769Y-63668867D01*
X142821770Y-63668868D01*
X142880247Y-63680499D01*
X142880250Y-63680500D01*
X142880252Y-63680500D01*
X145319750Y-63680500D01*
X145319751Y-63680499D01*
X145334568Y-63677552D01*
X145378229Y-63668868D01*
X145378229Y-63668867D01*
X145378231Y-63668867D01*
X145444552Y-63624552D01*
X145488867Y-63558231D01*
X145488867Y-63558229D01*
X145488868Y-63558229D01*
X145499894Y-63502793D01*
X145500500Y-63499748D01*
X145500500Y-62720252D01*
X145500500Y-62720249D01*
X145500499Y-62720247D01*
X145488868Y-62661770D01*
X145488867Y-62661769D01*
X145444552Y-62595448D01*
X145438878Y-62591657D01*
X145418591Y-62578101D01*
X145373787Y-62524491D01*
X145365080Y-62455166D01*
X145395234Y-62392138D01*
X145418592Y-62371898D01*
X145444552Y-62354552D01*
X145488867Y-62288231D01*
X145488867Y-62288229D01*
X145488868Y-62288229D01*
X145500499Y-62229752D01*
X145500500Y-62229750D01*
X145500500Y-61450249D01*
X145500499Y-61450247D01*
X145488868Y-61391770D01*
X145488867Y-61391769D01*
X145444552Y-61325448D01*
X145444551Y-61325447D01*
X145418591Y-61308101D01*
X145373787Y-61254491D01*
X145365080Y-61185166D01*
X145395234Y-61122138D01*
X145418592Y-61101898D01*
X145444552Y-61084552D01*
X145488867Y-61018231D01*
X145488867Y-61018229D01*
X145488868Y-61018229D01*
X145494912Y-60987844D01*
X146300000Y-60987844D01*
X146306401Y-61047372D01*
X146306403Y-61047379D01*
X146356645Y-61182086D01*
X146356649Y-61182093D01*
X146442809Y-61297187D01*
X146442812Y-61297190D01*
X146549811Y-61377290D01*
X146591682Y-61433223D01*
X146599500Y-61476556D01*
X146599500Y-62229752D01*
X146611131Y-62288229D01*
X146611132Y-62288230D01*
X146655447Y-62354552D01*
X146681407Y-62371898D01*
X146726212Y-62425511D01*
X146734919Y-62494836D01*
X146704764Y-62557863D01*
X146681407Y-62578102D01*
X146655447Y-62595447D01*
X146611132Y-62661769D01*
X146611131Y-62661770D01*
X146599500Y-62720247D01*
X146599500Y-63499752D01*
X146611131Y-63558229D01*
X146611132Y-63558230D01*
X146655447Y-63624552D01*
X146721769Y-63668867D01*
X146721770Y-63668868D01*
X146780247Y-63680499D01*
X146780250Y-63680500D01*
X146780252Y-63680500D01*
X149219750Y-63680500D01*
X149219751Y-63680499D01*
X149234568Y-63677552D01*
X149278229Y-63668868D01*
X149278229Y-63668867D01*
X149278231Y-63668867D01*
X149344552Y-63624552D01*
X149388867Y-63558231D01*
X149388867Y-63558229D01*
X149388868Y-63558229D01*
X149399894Y-63502793D01*
X149400500Y-63499748D01*
X149400500Y-62720252D01*
X149400500Y-62720249D01*
X149400499Y-62720247D01*
X149388872Y-62661791D01*
X149395099Y-62592200D01*
X149437962Y-62537022D01*
X149503852Y-62513778D01*
X149571849Y-62529846D01*
X149588859Y-62542818D01*
X149588881Y-62542789D01*
X149596778Y-62548526D01*
X149596780Y-62548528D01*
X149716874Y-62609719D01*
X149716876Y-62609719D01*
X149716878Y-62609720D01*
X149849998Y-62630804D01*
X149850000Y-62630804D01*
X149850002Y-62630804D01*
X149983121Y-62609720D01*
X149983121Y-62609719D01*
X149983126Y-62609719D01*
X150103220Y-62548528D01*
X150198528Y-62453220D01*
X150259719Y-62333126D01*
X150259720Y-62333121D01*
X150280804Y-62200002D01*
X150280804Y-62199997D01*
X150259720Y-62066878D01*
X150259719Y-62066876D01*
X150259719Y-62066874D01*
X150198528Y-61946780D01*
X150198526Y-61946778D01*
X150198523Y-61946774D01*
X150103225Y-61851476D01*
X150103222Y-61851474D01*
X150103220Y-61851472D01*
X150008522Y-61803221D01*
X149983123Y-61790279D01*
X149924870Y-61781053D01*
X149861736Y-61751123D01*
X149856588Y-61746261D01*
X149689864Y-61579537D01*
X149689862Y-61579535D01*
X149621041Y-61539801D01*
X149615641Y-61536683D01*
X149615640Y-61536682D01*
X149615639Y-61536682D01*
X149583563Y-61528087D01*
X149523904Y-61491722D01*
X149493376Y-61428875D01*
X149501671Y-61359499D01*
X149541350Y-61309044D01*
X149557192Y-61297185D01*
X149643350Y-61182093D01*
X149643354Y-61182086D01*
X149693596Y-61047379D01*
X149693598Y-61047372D01*
X149699999Y-60987844D01*
X149700000Y-60987827D01*
X149700000Y-60820000D01*
X146300000Y-60820000D01*
X146300000Y-60987844D01*
X145494912Y-60987844D01*
X145500499Y-60959752D01*
X145500500Y-60959750D01*
X145500500Y-60180249D01*
X145500499Y-60180247D01*
X145488868Y-60121770D01*
X145488867Y-60121769D01*
X145444552Y-60055448D01*
X145435650Y-60049500D01*
X145418591Y-60038101D01*
X145373787Y-59984491D01*
X145365080Y-59915166D01*
X145395234Y-59852138D01*
X145418590Y-59831899D01*
X145444552Y-59814552D01*
X145488867Y-59748231D01*
X145488867Y-59748229D01*
X145488868Y-59748229D01*
X145494912Y-59717844D01*
X146300000Y-59717844D01*
X146306401Y-59777372D01*
X146306403Y-59777380D01*
X146349029Y-59891667D01*
X146354013Y-59961359D01*
X146349029Y-59978333D01*
X146306403Y-60092619D01*
X146306401Y-60092627D01*
X146300000Y-60152155D01*
X146300000Y-60320000D01*
X147750000Y-60320000D01*
X148250000Y-60320000D01*
X149700000Y-60320000D01*
X149700000Y-60152172D01*
X149699999Y-60152155D01*
X149693598Y-60092627D01*
X149693597Y-60092623D01*
X149650969Y-59978334D01*
X149645985Y-59908643D01*
X149650969Y-59891666D01*
X149693597Y-59777376D01*
X149693598Y-59777372D01*
X149699999Y-59717844D01*
X149700000Y-59717827D01*
X149700000Y-59550000D01*
X148250000Y-59550000D01*
X148250000Y-60320000D01*
X147750000Y-60320000D01*
X147750000Y-59550000D01*
X146300000Y-59550000D01*
X146300000Y-59717844D01*
X145494912Y-59717844D01*
X145500499Y-59689752D01*
X145500500Y-59689750D01*
X145500500Y-58910249D01*
X145500499Y-58910247D01*
X145488868Y-58851770D01*
X145488867Y-58851769D01*
X145444552Y-58785448D01*
X145418591Y-58768101D01*
X145373787Y-58714491D01*
X145365080Y-58645166D01*
X145395234Y-58582138D01*
X145418590Y-58561899D01*
X145444552Y-58544552D01*
X145488867Y-58478231D01*
X145488867Y-58478229D01*
X145488868Y-58478229D01*
X145500499Y-58419752D01*
X145500500Y-58419750D01*
X145500500Y-57640249D01*
X145500499Y-57640247D01*
X145488868Y-57581770D01*
X145488867Y-57581769D01*
X145444552Y-57515448D01*
X145441159Y-57513181D01*
X145418591Y-57498101D01*
X145373787Y-57444491D01*
X145365080Y-57375166D01*
X145395234Y-57312138D01*
X145418590Y-57291899D01*
X145444552Y-57274552D01*
X145488867Y-57208231D01*
X145488867Y-57208229D01*
X145488868Y-57208229D01*
X145494912Y-57177844D01*
X146300000Y-57177844D01*
X146306401Y-57237372D01*
X146306403Y-57237379D01*
X146356645Y-57372086D01*
X146356649Y-57372093D01*
X146442809Y-57487187D01*
X146442812Y-57487190D01*
X146549811Y-57567290D01*
X146591682Y-57623223D01*
X146599500Y-57666556D01*
X146599500Y-58393443D01*
X146579815Y-58460482D01*
X146549812Y-58492709D01*
X146442809Y-58572812D01*
X146356649Y-58687906D01*
X146356645Y-58687913D01*
X146306403Y-58822620D01*
X146306401Y-58822627D01*
X146300000Y-58882155D01*
X146300000Y-59050000D01*
X149700000Y-59050000D01*
X149700000Y-58882172D01*
X149699999Y-58882155D01*
X149693598Y-58822627D01*
X149693596Y-58822620D01*
X149643354Y-58687913D01*
X149643350Y-58687906D01*
X149557190Y-58572812D01*
X149450188Y-58492709D01*
X149408318Y-58436775D01*
X149400500Y-58393443D01*
X149400500Y-57666556D01*
X149420185Y-57599517D01*
X149450189Y-57567290D01*
X149557187Y-57487190D01*
X149557190Y-57487187D01*
X149643350Y-57372093D01*
X149643354Y-57372086D01*
X149693596Y-57237379D01*
X149693598Y-57237372D01*
X149699999Y-57177844D01*
X149700000Y-57177827D01*
X149700000Y-57010000D01*
X146300000Y-57010000D01*
X146300000Y-57177844D01*
X145494912Y-57177844D01*
X145499452Y-57155017D01*
X145500500Y-57149748D01*
X145500500Y-56370252D01*
X145500500Y-56370249D01*
X145500499Y-56370247D01*
X145488868Y-56311770D01*
X145488867Y-56311769D01*
X145444552Y-56245448D01*
X145420741Y-56229538D01*
X145418591Y-56228101D01*
X145373787Y-56174491D01*
X145365080Y-56105166D01*
X145395234Y-56042138D01*
X145418590Y-56021899D01*
X145444552Y-56004552D01*
X145488867Y-55938231D01*
X145488867Y-55938229D01*
X145488868Y-55938229D01*
X145500499Y-55879752D01*
X145500500Y-55879750D01*
X145500500Y-55100249D01*
X145500499Y-55100247D01*
X145488868Y-55041770D01*
X145484194Y-55030487D01*
X145485713Y-55029857D01*
X145469073Y-54976714D01*
X145487557Y-54909334D01*
X145539536Y-54862643D01*
X145593053Y-54850500D01*
X146506947Y-54850500D01*
X146573986Y-54870185D01*
X146619741Y-54922989D01*
X146629685Y-54992147D01*
X146615105Y-55030196D01*
X146615806Y-55030487D01*
X146611131Y-55041770D01*
X146599500Y-55100247D01*
X146599500Y-55853443D01*
X146579815Y-55920482D01*
X146549812Y-55952709D01*
X146442809Y-56032812D01*
X146356649Y-56147906D01*
X146356645Y-56147913D01*
X146306403Y-56282620D01*
X146306401Y-56282627D01*
X146300000Y-56342155D01*
X146300000Y-56510000D01*
X149700000Y-56510000D01*
X149700000Y-56342172D01*
X149699999Y-56342155D01*
X149693598Y-56282627D01*
X149693596Y-56282620D01*
X149643354Y-56147913D01*
X149643350Y-56147906D01*
X149557190Y-56032812D01*
X149450188Y-55952709D01*
X149408318Y-55896775D01*
X149400500Y-55853443D01*
X149400500Y-55100249D01*
X149400499Y-55100247D01*
X149388868Y-55041770D01*
X149388867Y-55041769D01*
X149344552Y-54975447D01*
X149278230Y-54931132D01*
X149278229Y-54931131D01*
X149219752Y-54919500D01*
X149219748Y-54919500D01*
X147905833Y-54919500D01*
X147838794Y-54899815D01*
X147818152Y-54883181D01*
X147244510Y-54309539D01*
X147227186Y-54299537D01*
X147209861Y-54289535D01*
X147209860Y-54289534D01*
X147175994Y-54269981D01*
X147175993Y-54269980D01*
X147166960Y-54267559D01*
X147099562Y-54249500D01*
X147099560Y-54249500D01*
X134524499Y-54249500D01*
X134457460Y-54229815D01*
X134411705Y-54177011D01*
X134400499Y-54125500D01*
X134400499Y-53747870D01*
X134400499Y-53747868D01*
X134384515Y-53667505D01*
X134364309Y-53637266D01*
X134323624Y-53576375D01*
X134268995Y-53539874D01*
X134232495Y-53515485D01*
X134232493Y-53515484D01*
X134232490Y-53515483D01*
X134152136Y-53499500D01*
X133974500Y-53499500D01*
X133907461Y-53479815D01*
X133861706Y-53427011D01*
X133850500Y-53375500D01*
X133850500Y-50925832D01*
X133870185Y-50858793D01*
X133886814Y-50838156D01*
X136570657Y-48154312D01*
X136631978Y-48120829D01*
X136701670Y-48125813D01*
X136727227Y-48138893D01*
X136730343Y-48140975D01*
X136730345Y-48140977D01*
X136902402Y-48255941D01*
X137093580Y-48335130D01*
X137249499Y-48366144D01*
X137296530Y-48375499D01*
X137296534Y-48375500D01*
X137296535Y-48375500D01*
X137503466Y-48375500D01*
X137503467Y-48375499D01*
X137706420Y-48335130D01*
X137897598Y-48255941D01*
X138069655Y-48140977D01*
X138215977Y-47994655D01*
X138330941Y-47822598D01*
X138410130Y-47631420D01*
X138450500Y-47428465D01*
X138450500Y-46971535D01*
X138410130Y-46768580D01*
X138330941Y-46577402D01*
X138226257Y-46420730D01*
X138849500Y-46420730D01*
X138849500Y-47979269D01*
X138852353Y-48009699D01*
X138852353Y-48009701D01*
X138895174Y-48132072D01*
X138897207Y-48137882D01*
X138977850Y-48247150D01*
X139087118Y-48327793D01*
X139108089Y-48335131D01*
X139215299Y-48372646D01*
X139245730Y-48375500D01*
X139245734Y-48375500D01*
X140554270Y-48375500D01*
X140584699Y-48372646D01*
X140584701Y-48372646D01*
X140660020Y-48346290D01*
X140712882Y-48327793D01*
X140822150Y-48247150D01*
X140902793Y-48137882D01*
X140933419Y-48050358D01*
X140947646Y-48009701D01*
X140947646Y-48009699D01*
X140950500Y-47979269D01*
X140950500Y-46420730D01*
X140947646Y-46390300D01*
X140947646Y-46390298D01*
X140902793Y-46262119D01*
X140902792Y-46262117D01*
X140822150Y-46152850D01*
X140712882Y-46072207D01*
X140712880Y-46072206D01*
X140584700Y-46027353D01*
X140554270Y-46024500D01*
X140554266Y-46024500D01*
X139245734Y-46024500D01*
X139245730Y-46024500D01*
X139215300Y-46027353D01*
X139215298Y-46027353D01*
X139087119Y-46072206D01*
X139087117Y-46072207D01*
X138977850Y-46152850D01*
X138897207Y-46262117D01*
X138897206Y-46262119D01*
X138852353Y-46390298D01*
X138852353Y-46390300D01*
X138849500Y-46420730D01*
X138226257Y-46420730D01*
X138215977Y-46405345D01*
X138215975Y-46405342D01*
X138069657Y-46259024D01*
X137974638Y-46195535D01*
X137897598Y-46144059D01*
X137706420Y-46064870D01*
X137706412Y-46064868D01*
X137503469Y-46024500D01*
X137503465Y-46024500D01*
X137296535Y-46024500D01*
X137296530Y-46024500D01*
X137093587Y-46064868D01*
X137093579Y-46064870D01*
X136902403Y-46144058D01*
X136730342Y-46259024D01*
X136584024Y-46405342D01*
X136469056Y-46577405D01*
X136449984Y-46623452D01*
X136406143Y-46677856D01*
X136339849Y-46699921D01*
X136335423Y-46700000D01*
X135964577Y-46700000D01*
X135897538Y-46680315D01*
X135851783Y-46627511D01*
X135850016Y-46623452D01*
X135830943Y-46577405D01*
X135715975Y-46405342D01*
X135569657Y-46259024D01*
X135474638Y-46195535D01*
X135397598Y-46144059D01*
X135206420Y-46064870D01*
X135206412Y-46064868D01*
X135003469Y-46024500D01*
X135003465Y-46024500D01*
X134796535Y-46024500D01*
X134796530Y-46024500D01*
X134593587Y-46064868D01*
X134593579Y-46064870D01*
X134402403Y-46144058D01*
X134230342Y-46259024D01*
X134084024Y-46405342D01*
X133969056Y-46577405D01*
X133949984Y-46623452D01*
X133906143Y-46677856D01*
X133839849Y-46699921D01*
X133835423Y-46700000D01*
X133464577Y-46700000D01*
X133397538Y-46680315D01*
X133351783Y-46627511D01*
X133350016Y-46623452D01*
X133330943Y-46577405D01*
X133215975Y-46405342D01*
X133069657Y-46259024D01*
X132974638Y-46195535D01*
X132897598Y-46144059D01*
X132706420Y-46064870D01*
X132706412Y-46064868D01*
X132503469Y-46024500D01*
X132503465Y-46024500D01*
X132296535Y-46024500D01*
X132296530Y-46024500D01*
X132093587Y-46064868D01*
X132093579Y-46064870D01*
X131902403Y-46144058D01*
X131730342Y-46259024D01*
X131584024Y-46405342D01*
X131469057Y-46577403D01*
X131408562Y-46723453D01*
X131364721Y-46777856D01*
X131298426Y-46799921D01*
X131294001Y-46800000D01*
X131005999Y-46800000D01*
X130938960Y-46780315D01*
X130893205Y-46727511D01*
X130891438Y-46723453D01*
X130830942Y-46577403D01*
X130715975Y-46405342D01*
X130569657Y-46259024D01*
X130474638Y-46195535D01*
X130397598Y-46144059D01*
X130206420Y-46064870D01*
X130206412Y-46064868D01*
X130003469Y-46024500D01*
X130003465Y-46024500D01*
X129796535Y-46024500D01*
X129796530Y-46024500D01*
X129593587Y-46064868D01*
X129593579Y-46064870D01*
X129402403Y-46144058D01*
X129230342Y-46259024D01*
X129084024Y-46405342D01*
X128969057Y-46577404D01*
X128923251Y-46687990D01*
X128879409Y-46742394D01*
X128813115Y-46764458D01*
X128745416Y-46747178D01*
X128697806Y-46696041D01*
X128690759Y-46678855D01*
X128651095Y-46556782D01*
X128554620Y-46367442D01*
X128429727Y-46195540D01*
X128429723Y-46195535D01*
X128279464Y-46045276D01*
X128279459Y-46045272D01*
X128107557Y-45920379D01*
X127918215Y-45823903D01*
X127716124Y-45758241D01*
X127650000Y-45747768D01*
X127650000Y-46795854D01*
X127583343Y-46757370D01*
X127462535Y-46725000D01*
X127337465Y-46725000D01*
X127216657Y-46757370D01*
X127150000Y-46795854D01*
X127150000Y-45747768D01*
X127149999Y-45747768D01*
X127083875Y-45758241D01*
X126881784Y-45823903D01*
X126692442Y-45920379D01*
X126520540Y-46045272D01*
X126520535Y-46045276D01*
X126370276Y-46195535D01*
X126370272Y-46195540D01*
X126245379Y-46367442D01*
X126148904Y-46556782D01*
X126083242Y-46758869D01*
X126083242Y-46758872D01*
X126052970Y-46950000D01*
X124900500Y-46950000D01*
X124900500Y-46660439D01*
X124880020Y-46584009D01*
X124880017Y-46584004D01*
X124840464Y-46515495D01*
X124840458Y-46515487D01*
X122484156Y-44159185D01*
X122450671Y-44097862D01*
X122455655Y-44028170D01*
X122468736Y-44002612D01*
X122484394Y-43979179D01*
X122544737Y-43833497D01*
X122575500Y-43678842D01*
X122575500Y-43521158D01*
X122575500Y-43521155D01*
X122575499Y-43521153D01*
X122544738Y-43366510D01*
X122544737Y-43366503D01*
X122519340Y-43305189D01*
X122484397Y-43220827D01*
X122484390Y-43220814D01*
X122396789Y-43089711D01*
X122396786Y-43089707D01*
X122285292Y-42978213D01*
X122285288Y-42978210D01*
X122154185Y-42890609D01*
X122154172Y-42890602D01*
X122008501Y-42830264D01*
X122008489Y-42830261D01*
X121853845Y-42799500D01*
X121853842Y-42799500D01*
X121146158Y-42799500D01*
X121146155Y-42799500D01*
X120991510Y-42830261D01*
X120991498Y-42830264D01*
X120845827Y-42890602D01*
X120845814Y-42890609D01*
X120714711Y-42978210D01*
X120714707Y-42978213D01*
X120603213Y-43089707D01*
X120603210Y-43089711D01*
X120515609Y-43220814D01*
X120515602Y-43220827D01*
X120455264Y-43366498D01*
X120455261Y-43366510D01*
X120424500Y-43521153D01*
X120424500Y-43678846D01*
X120455261Y-43833489D01*
X120455264Y-43833501D01*
X120515602Y-43979172D01*
X120515609Y-43979185D01*
X120603210Y-44110288D01*
X120603213Y-44110292D01*
X120714707Y-44221786D01*
X120714711Y-44221789D01*
X120845814Y-44309390D01*
X120845827Y-44309397D01*
X120991498Y-44369735D01*
X120991503Y-44369737D01*
X121128065Y-44396901D01*
X121146153Y-44400499D01*
X121146156Y-44400500D01*
X121824167Y-44400500D01*
X121891206Y-44420185D01*
X121911848Y-44436819D01*
X122089940Y-44614911D01*
X122123425Y-44676234D01*
X122118441Y-44745926D01*
X122076569Y-44801859D01*
X122011105Y-44826276D01*
X121978068Y-44824209D01*
X121853846Y-44799500D01*
X121853842Y-44799500D01*
X121146158Y-44799500D01*
X121146155Y-44799500D01*
X120991510Y-44830261D01*
X120991498Y-44830264D01*
X120845827Y-44890602D01*
X120845814Y-44890609D01*
X120714711Y-44978210D01*
X120714707Y-44978213D01*
X120603213Y-45089707D01*
X120603210Y-45089711D01*
X120515609Y-45220814D01*
X120515602Y-45220827D01*
X120455264Y-45366498D01*
X120455261Y-45366510D01*
X120424500Y-45521153D01*
X120424500Y-45678846D01*
X120455261Y-45833489D01*
X120455264Y-45833501D01*
X120515602Y-45979172D01*
X120515609Y-45979185D01*
X120603210Y-46110288D01*
X120603213Y-46110292D01*
X120714707Y-46221786D01*
X120714711Y-46221789D01*
X120845814Y-46309390D01*
X120845823Y-46309395D01*
X120883265Y-46324904D01*
X120937668Y-46368745D01*
X120959733Y-46435039D01*
X120942454Y-46502738D01*
X120891317Y-46550349D01*
X120874131Y-46557396D01*
X120802742Y-46580591D01*
X120648475Y-46659195D01*
X120508397Y-46760967D01*
X120385967Y-46883397D01*
X120284195Y-47023475D01*
X120205591Y-47177744D01*
X120152085Y-47342415D01*
X120150884Y-47349999D01*
X120150885Y-47350000D01*
X121219670Y-47350000D01*
X121199925Y-47369745D01*
X121150556Y-47455255D01*
X121125000Y-47550630D01*
X121125000Y-47649370D01*
X121150556Y-47744745D01*
X121199925Y-47830255D01*
X121219670Y-47850000D01*
X120150885Y-47850000D01*
X120152085Y-47857584D01*
X120205591Y-48022255D01*
X120284195Y-48176524D01*
X120385967Y-48316602D01*
X120508397Y-48439032D01*
X120648475Y-48540804D01*
X120802742Y-48619408D01*
X120967415Y-48672914D01*
X121138429Y-48700000D01*
X121250000Y-48700000D01*
X121250000Y-47880330D01*
X121269745Y-47900075D01*
X121355255Y-47949444D01*
X121450630Y-47975000D01*
X121549370Y-47975000D01*
X121644745Y-47949444D01*
X121730255Y-47900075D01*
X121750000Y-47880330D01*
X121750000Y-48700000D01*
X121861571Y-48700000D01*
X122032584Y-48672914D01*
X122197257Y-48619408D01*
X122351524Y-48540804D01*
X122491602Y-48439032D01*
X122614032Y-48316602D01*
X122715804Y-48176524D01*
X122794408Y-48022255D01*
X122847914Y-47857584D01*
X122849115Y-47850000D01*
X121780330Y-47850000D01*
X121800075Y-47830255D01*
X121849444Y-47744745D01*
X121875000Y-47649370D01*
X121875000Y-47550630D01*
X121849444Y-47455255D01*
X121800075Y-47369745D01*
X121780330Y-47350000D01*
X122849115Y-47350000D01*
X122849115Y-47349999D01*
X122847914Y-47342415D01*
X122794408Y-47177744D01*
X122715804Y-47023475D01*
X122614032Y-46883397D01*
X122491602Y-46760967D01*
X122351524Y-46659195D01*
X122197255Y-46580591D01*
X122125869Y-46557396D01*
X122068193Y-46517958D01*
X122040995Y-46453600D01*
X122052910Y-46384753D01*
X122100154Y-46333278D01*
X122116735Y-46324904D01*
X122154173Y-46309397D01*
X122154176Y-46309395D01*
X122154179Y-46309394D01*
X122285289Y-46221789D01*
X122396789Y-46110289D01*
X122484394Y-45979179D01*
X122485275Y-45977049D01*
X122486035Y-45976106D01*
X122487264Y-45973809D01*
X122487699Y-45974041D01*
X122529115Y-45922646D01*
X122595408Y-45900579D01*
X122599838Y-45900500D01*
X122758481Y-45900500D01*
X122825520Y-45920185D01*
X122846162Y-45936819D01*
X123863181Y-46953838D01*
X123896666Y-47015161D01*
X123899500Y-47041519D01*
X123899500Y-54221972D01*
X123907010Y-54250000D01*
X123919979Y-54298400D01*
X123919980Y-54298401D01*
X123920903Y-54300000D01*
X123958713Y-54365489D01*
X123959540Y-54366921D01*
X123959542Y-54366923D01*
X126176024Y-56583405D01*
X126209509Y-56644728D01*
X126209960Y-56695277D01*
X126199500Y-56747863D01*
X126199500Y-56952129D01*
X126215486Y-57032498D01*
X126220159Y-57043780D01*
X126218714Y-57044378D01*
X126235436Y-57097788D01*
X126219482Y-57155938D01*
X126220159Y-57156219D01*
X126217926Y-57161609D01*
X126216950Y-57165168D01*
X126215550Y-57167345D01*
X126215484Y-57167505D01*
X126199500Y-57247863D01*
X126199500Y-57247865D01*
X126199501Y-57425499D01*
X126179817Y-57492539D01*
X126127013Y-57538294D01*
X126075501Y-57549500D01*
X123325833Y-57549500D01*
X123258794Y-57529815D01*
X123238152Y-57513181D01*
X120323687Y-54598716D01*
X120290202Y-54537393D01*
X120295186Y-54467701D01*
X120296790Y-54463624D01*
X120310130Y-54431420D01*
X120350500Y-54228465D01*
X120350500Y-53771535D01*
X120310130Y-53568580D01*
X120230941Y-53377402D01*
X120115977Y-53205345D01*
X120115975Y-53205342D01*
X119969657Y-53059024D01*
X119868874Y-52991684D01*
X119797598Y-52944059D01*
X119707589Y-52906776D01*
X119606420Y-52864870D01*
X119606412Y-52864868D01*
X119403469Y-52824500D01*
X119403465Y-52824500D01*
X119196535Y-52824500D01*
X119196530Y-52824500D01*
X118993587Y-52864868D01*
X118993579Y-52864870D01*
X118802403Y-52944058D01*
X118630342Y-53059024D01*
X118484024Y-53205342D01*
X118369058Y-53377403D01*
X118289870Y-53568579D01*
X118289868Y-53568587D01*
X118249500Y-53771530D01*
X118249500Y-54228469D01*
X118289868Y-54431412D01*
X118289870Y-54431420D01*
X118355859Y-54590732D01*
X118369059Y-54622598D01*
X118386385Y-54648528D01*
X118484024Y-54794657D01*
X118630342Y-54940975D01*
X118630345Y-54940977D01*
X118802402Y-55055941D01*
X118993580Y-55135130D01*
X119196530Y-55175499D01*
X119196534Y-55175500D01*
X119196535Y-55175500D01*
X119403466Y-55175500D01*
X119403467Y-55175499D01*
X119606420Y-55135130D01*
X119797598Y-55055941D01*
X119797605Y-55055935D01*
X119802965Y-55053072D01*
X119804287Y-55055545D01*
X119859385Y-55038182D01*
X119926799Y-55056544D01*
X119949506Y-55074477D01*
X122887347Y-58012318D01*
X122920832Y-58073641D01*
X122915848Y-58143333D01*
X122887347Y-58187680D01*
X119849506Y-61225521D01*
X119788183Y-61259006D01*
X119718491Y-61254022D01*
X119703331Y-61246262D01*
X119702973Y-61246932D01*
X119697595Y-61244057D01*
X119506420Y-61164870D01*
X119506412Y-61164868D01*
X119303469Y-61124500D01*
X119303465Y-61124500D01*
X119096535Y-61124500D01*
X119096530Y-61124500D01*
X118893587Y-61164868D01*
X118893579Y-61164870D01*
X118702403Y-61244058D01*
X118530342Y-61359024D01*
X118384024Y-61505342D01*
X118269058Y-61677403D01*
X118189870Y-61868579D01*
X118189868Y-61868587D01*
X118149500Y-62071530D01*
X118149500Y-62528469D01*
X118189868Y-62731412D01*
X118189870Y-62731420D01*
X118255859Y-62890732D01*
X118269059Y-62922598D01*
X118320777Y-63000000D01*
X118384024Y-63094657D01*
X118530342Y-63240975D01*
X118530345Y-63240977D01*
X118702402Y-63355941D01*
X118893580Y-63435130D01*
X119068015Y-63469827D01*
X119096530Y-63475499D01*
X119096534Y-63475500D01*
X119096535Y-63475500D01*
X119303466Y-63475500D01*
X119303467Y-63475499D01*
X119506420Y-63435130D01*
X119697598Y-63355941D01*
X119869655Y-63240977D01*
X120015977Y-63094655D01*
X120130941Y-62922598D01*
X120210130Y-62731420D01*
X120250500Y-62528465D01*
X120250500Y-62071535D01*
X120226325Y-61950000D01*
X123641210Y-61950000D01*
X123642854Y-61970910D01*
X123687968Y-62126195D01*
X123770278Y-62265374D01*
X123770285Y-62265383D01*
X123884616Y-62379714D01*
X123884625Y-62379721D01*
X124023804Y-62462031D01*
X124170000Y-62504504D01*
X124170000Y-61950000D01*
X123641210Y-61950000D01*
X120226325Y-61950000D01*
X120210130Y-61868580D01*
X120196807Y-61836416D01*
X120189338Y-61766947D01*
X120220613Y-61704467D01*
X120223658Y-61701311D01*
X120474970Y-61449999D01*
X123641209Y-61449999D01*
X123641210Y-61450000D01*
X124170000Y-61450000D01*
X124170000Y-60895494D01*
X124670000Y-60895494D01*
X124670000Y-62504503D01*
X124816195Y-62462031D01*
X124818805Y-62460902D01*
X124821028Y-62460627D01*
X124823687Y-62459855D01*
X124823811Y-62460283D01*
X124888148Y-62452339D01*
X124951113Y-62482626D01*
X124987707Y-62542146D01*
X124987785Y-62542434D01*
X124989418Y-62548528D01*
X124996682Y-62575640D01*
X125008118Y-62595447D01*
X125039535Y-62649862D01*
X125039537Y-62649864D01*
X125146261Y-62756588D01*
X125179746Y-62817911D01*
X125181053Y-62824870D01*
X125190280Y-62883123D01*
X125190279Y-62883123D01*
X125190281Y-62883126D01*
X125251472Y-63003220D01*
X125251474Y-63003222D01*
X125251476Y-63003225D01*
X125346774Y-63098523D01*
X125346778Y-63098526D01*
X125346780Y-63098528D01*
X125466874Y-63159719D01*
X125466876Y-63159719D01*
X125466878Y-63159720D01*
X125599998Y-63180804D01*
X125600000Y-63180804D01*
X125600002Y-63180804D01*
X125733121Y-63159720D01*
X125733121Y-63159719D01*
X125733126Y-63159719D01*
X125853220Y-63098528D01*
X125948528Y-63003220D01*
X126009719Y-62883126D01*
X126009720Y-62883121D01*
X126030804Y-62750002D01*
X126030804Y-62749997D01*
X126009720Y-62616878D01*
X126009719Y-62616876D01*
X126009719Y-62616874D01*
X125948528Y-62496780D01*
X125948526Y-62496778D01*
X125948523Y-62496774D01*
X125853225Y-62401476D01*
X125853222Y-62401474D01*
X125853220Y-62401472D01*
X125751465Y-62349625D01*
X125700670Y-62301651D01*
X125683875Y-62233830D01*
X125706413Y-62167695D01*
X125720080Y-62151460D01*
X125754883Y-62116657D01*
X125803224Y-62068316D01*
X125853972Y-61959487D01*
X125860500Y-61909901D01*
X125860500Y-61799500D01*
X125880185Y-61732461D01*
X125932989Y-61686706D01*
X125984500Y-61675500D01*
X126321075Y-61675500D01*
X126355484Y-61682344D01*
X126355527Y-61682133D01*
X126423589Y-61695670D01*
X126447867Y-61700500D01*
X127827132Y-61700499D01*
X127907495Y-61684515D01*
X127998624Y-61623624D01*
X128059515Y-61532495D01*
X128069625Y-61481666D01*
X128102009Y-61419758D01*
X128115756Y-61407483D01*
X128210093Y-61335096D01*
X128302263Y-61214978D01*
X128360198Y-61075108D01*
X128360199Y-61075103D01*
X128370088Y-61000000D01*
X127838301Y-61000000D01*
X127828123Y-60999500D01*
X126446870Y-60999500D01*
X126436711Y-61000000D01*
X125892500Y-61000000D01*
X125861468Y-61019683D01*
X125827242Y-61024500D01*
X125780465Y-61024500D01*
X125780449Y-61024499D01*
X125772853Y-61024499D01*
X125687147Y-61024499D01*
X125635284Y-61038396D01*
X125604360Y-61046682D01*
X125592839Y-61053334D01*
X125567250Y-61068108D01*
X125538769Y-61084552D01*
X125530138Y-61089535D01*
X125530135Y-61089537D01*
X125497535Y-61122138D01*
X125469535Y-61150138D01*
X125469533Y-61150140D01*
X125466477Y-61153196D01*
X125405148Y-61186671D01*
X125378811Y-61189500D01*
X125200102Y-61189500D01*
X125191746Y-61190600D01*
X125190459Y-61190769D01*
X125121425Y-61180001D01*
X125075964Y-61139648D01*
X125074499Y-61140785D01*
X125069714Y-61134616D01*
X124955383Y-61020285D01*
X124955374Y-61020278D01*
X124816193Y-60937967D01*
X124816190Y-60937965D01*
X124670001Y-60895493D01*
X124670000Y-60895494D01*
X124170000Y-60895494D01*
X124169998Y-60895493D01*
X124023809Y-60937965D01*
X124023806Y-60937967D01*
X123884625Y-61020278D01*
X123884616Y-61020285D01*
X123770285Y-61134616D01*
X123770278Y-61134625D01*
X123687968Y-61273804D01*
X123687966Y-61273809D01*
X123642855Y-61429081D01*
X123642854Y-61429087D01*
X123641209Y-61449999D01*
X120474970Y-61449999D01*
X123238152Y-58686819D01*
X123299475Y-58653334D01*
X123325833Y-58650500D01*
X126075500Y-58650500D01*
X126142539Y-58670185D01*
X126188294Y-58722989D01*
X126199500Y-58774499D01*
X126199500Y-58952129D01*
X126215486Y-59032498D01*
X126220159Y-59043780D01*
X126218714Y-59044378D01*
X126235436Y-59097788D01*
X126219482Y-59155938D01*
X126220159Y-59156219D01*
X126217926Y-59161609D01*
X126216950Y-59165168D01*
X126215550Y-59167345D01*
X126215484Y-59167505D01*
X126199500Y-59247863D01*
X126199500Y-59452129D01*
X126207124Y-59490458D01*
X126214992Y-59530017D01*
X126215486Y-59532498D01*
X126220159Y-59543780D01*
X126218714Y-59544378D01*
X126235436Y-59597788D01*
X126219482Y-59655938D01*
X126220159Y-59656219D01*
X126217926Y-59661609D01*
X126216950Y-59665168D01*
X126215550Y-59667345D01*
X126215484Y-59667505D01*
X126199500Y-59747863D01*
X126199500Y-59952129D01*
X126215486Y-60032498D01*
X126220159Y-60043780D01*
X126218714Y-60044378D01*
X126235436Y-60097788D01*
X126219482Y-60155938D01*
X126220159Y-60156219D01*
X126217926Y-60161609D01*
X126216950Y-60165168D01*
X126215550Y-60167345D01*
X126215484Y-60167503D01*
X126205374Y-60218332D01*
X126172988Y-60280242D01*
X126159245Y-60292514D01*
X126064906Y-60364904D01*
X125972736Y-60485021D01*
X125914801Y-60624891D01*
X125914800Y-60624896D01*
X125904911Y-60699999D01*
X125904912Y-60700000D01*
X126436699Y-60700000D01*
X126446877Y-60700499D01*
X126447862Y-60700499D01*
X126447867Y-60700500D01*
X127827132Y-60700499D01*
X127828129Y-60700499D01*
X127838289Y-60700000D01*
X128370088Y-60700000D01*
X128376454Y-60692741D01*
X128435455Y-60655317D01*
X128469682Y-60650500D01*
X129175167Y-60650500D01*
X129242206Y-60670185D01*
X129287961Y-60722989D01*
X129297905Y-60792147D01*
X129268880Y-60855703D01*
X129262848Y-60862181D01*
X128662153Y-61462874D01*
X128636477Y-61482577D01*
X128633085Y-61484535D01*
X128633077Y-61484541D01*
X128309541Y-61808077D01*
X128309535Y-61808085D01*
X128269982Y-61876594D01*
X128269977Y-61876604D01*
X128259910Y-61914174D01*
X128243240Y-61950966D01*
X128215484Y-61992506D01*
X128215483Y-61992509D01*
X128199500Y-62072862D01*
X128199500Y-63452129D01*
X128215485Y-63532495D01*
X128276375Y-63623624D01*
X128307834Y-63644644D01*
X128367505Y-63684515D01*
X128367508Y-63684515D01*
X128367509Y-63684516D01*
X128394533Y-63689891D01*
X128447867Y-63700500D01*
X128652132Y-63700499D01*
X128732495Y-63684515D01*
X128732498Y-63684512D01*
X128743778Y-63679841D01*
X128744376Y-63681286D01*
X128797782Y-63664563D01*
X128855943Y-63680516D01*
X128856223Y-63679842D01*
X128861590Y-63682065D01*
X128865162Y-63683045D01*
X128867351Y-63684451D01*
X128867506Y-63684516D01*
X128918321Y-63694623D01*
X128947867Y-63700500D01*
X129152132Y-63700499D01*
X129232495Y-63684515D01*
X129232498Y-63684512D01*
X129243778Y-63679841D01*
X129244376Y-63681286D01*
X129297782Y-63664563D01*
X129355943Y-63680516D01*
X129356223Y-63679842D01*
X129361590Y-63682065D01*
X129365162Y-63683045D01*
X129367351Y-63684451D01*
X129367506Y-63684516D01*
X129418321Y-63694623D01*
X129447867Y-63700500D01*
X129509481Y-63700499D01*
X129576519Y-63720183D01*
X129622275Y-63772986D01*
X129632219Y-63842144D01*
X129603195Y-63905700D01*
X129597162Y-63912180D01*
X129265489Y-64243854D01*
X129209541Y-64299801D01*
X129209535Y-64299809D01*
X129169982Y-64368318D01*
X129169979Y-64368323D01*
X129149500Y-64444753D01*
X129149500Y-67250714D01*
X129129815Y-67317753D01*
X129077011Y-67363508D01*
X129007853Y-67373452D01*
X128962377Y-67354995D01*
X128961915Y-67355903D01*
X128953221Y-67351473D01*
X128953220Y-67351472D01*
X128833126Y-67290281D01*
X128833124Y-67290280D01*
X128833121Y-67290279D01*
X128700002Y-67269196D01*
X128699998Y-67269196D01*
X128566878Y-67290279D01*
X128446778Y-67351473D01*
X128446774Y-67351476D01*
X128351476Y-67446774D01*
X128351473Y-67446778D01*
X128290279Y-67566878D01*
X128269196Y-67699997D01*
X128269196Y-67700002D01*
X128290279Y-67833121D01*
X128290280Y-67833124D01*
X128290281Y-67833126D01*
X128351472Y-67953220D01*
X128351473Y-67953221D01*
X128351476Y-67953225D01*
X128360570Y-67962319D01*
X128394055Y-68023642D01*
X128389071Y-68093334D01*
X128360570Y-68137681D01*
X128351472Y-68146778D01*
X128350317Y-68148369D01*
X128348416Y-68149834D01*
X128344571Y-68153680D01*
X128344073Y-68153182D01*
X128294987Y-68191034D01*
X128225373Y-68197012D01*
X128163579Y-68164405D01*
X128149683Y-68148369D01*
X128148527Y-68146778D01*
X128053225Y-68051476D01*
X128053221Y-68051473D01*
X128053220Y-68051472D01*
X127933126Y-67990281D01*
X127933124Y-67990280D01*
X127933121Y-67990279D01*
X127800002Y-67969196D01*
X127799998Y-67969196D01*
X127666878Y-67990279D01*
X127666874Y-67990280D01*
X127666874Y-67990281D01*
X127641480Y-68003220D01*
X127546778Y-68051473D01*
X127546774Y-68051476D01*
X127451472Y-68146778D01*
X127450317Y-68148369D01*
X127448416Y-68149834D01*
X127444571Y-68153680D01*
X127444073Y-68153182D01*
X127394987Y-68191034D01*
X127325373Y-68197012D01*
X127263579Y-68164405D01*
X127249683Y-68148369D01*
X127248527Y-68146778D01*
X127153225Y-68051476D01*
X127153221Y-68051473D01*
X127153220Y-68051472D01*
X127033126Y-67990281D01*
X127033124Y-67990280D01*
X127033121Y-67990279D01*
X126900002Y-67969196D01*
X126899998Y-67969196D01*
X126766878Y-67990279D01*
X126766874Y-67990280D01*
X126766874Y-67990281D01*
X126741480Y-68003220D01*
X126646778Y-68051473D01*
X126646774Y-68051476D01*
X126551476Y-68146774D01*
X126551473Y-68146778D01*
X126551472Y-68146780D01*
X126525878Y-68197012D01*
X126490279Y-68266878D01*
X126469196Y-68399997D01*
X126469196Y-68400002D01*
X126490279Y-68533121D01*
X126490280Y-68533124D01*
X126490281Y-68533126D01*
X126551472Y-68653220D01*
X126551473Y-68653221D01*
X126551476Y-68653225D01*
X126646778Y-68748527D01*
X126648369Y-68749683D01*
X126649834Y-68751583D01*
X126653680Y-68755429D01*
X126653182Y-68755926D01*
X126691034Y-68805013D01*
X126697012Y-68874627D01*
X126664405Y-68936421D01*
X126648369Y-68950317D01*
X126646778Y-68951472D01*
X126551476Y-69046774D01*
X126551473Y-69046778D01*
X126551472Y-69046780D01*
X126525878Y-69097012D01*
X126490279Y-69166878D01*
X126469196Y-69299997D01*
X126469196Y-69300002D01*
X126490279Y-69433121D01*
X126490280Y-69433124D01*
X126490281Y-69433126D01*
X126551472Y-69553220D01*
X126551473Y-69553221D01*
X126551476Y-69553225D01*
X126646774Y-69648523D01*
X126646778Y-69648526D01*
X126646780Y-69648528D01*
X126766874Y-69709719D01*
X126766876Y-69709719D01*
X126766878Y-69709720D01*
X126899998Y-69730804D01*
X126900000Y-69730804D01*
X126900002Y-69730804D01*
X127033121Y-69709720D01*
X127033121Y-69709719D01*
X127033126Y-69709719D01*
X127153220Y-69648528D01*
X127248528Y-69553220D01*
X127248531Y-69553213D01*
X127249679Y-69551635D01*
X127251579Y-69550169D01*
X127255429Y-69546320D01*
X127255926Y-69546817D01*
X127305008Y-69508968D01*
X127374621Y-69502986D01*
X127436417Y-69535589D01*
X127450321Y-69551635D01*
X127451476Y-69553225D01*
X127546774Y-69648523D01*
X127546778Y-69648526D01*
X127546780Y-69648528D01*
X127666874Y-69709719D01*
X127666876Y-69709719D01*
X127666878Y-69709720D01*
X127799998Y-69730804D01*
X127800000Y-69730804D01*
X127800002Y-69730804D01*
X127933121Y-69709720D01*
X127933121Y-69709719D01*
X127933126Y-69709719D01*
X128053220Y-69648528D01*
X128148528Y-69553220D01*
X128148531Y-69553213D01*
X128149679Y-69551635D01*
X128151579Y-69550169D01*
X128155429Y-69546320D01*
X128155926Y-69546817D01*
X128205008Y-69508968D01*
X128274621Y-69502986D01*
X128336417Y-69535589D01*
X128350321Y-69551635D01*
X128351476Y-69553225D01*
X128446774Y-69648523D01*
X128446778Y-69648526D01*
X128446780Y-69648528D01*
X128566874Y-69709719D01*
X128566876Y-69709719D01*
X128566878Y-69709720D01*
X128699998Y-69730804D01*
X128700000Y-69730804D01*
X128700002Y-69730804D01*
X128763645Y-69720723D01*
X128829444Y-69710302D01*
X128898736Y-69719256D01*
X128952188Y-69764252D01*
X128971314Y-69813377D01*
X128990279Y-69933121D01*
X128990280Y-69933124D01*
X128990281Y-69933126D01*
X129040499Y-70031684D01*
X129051473Y-70053221D01*
X129051476Y-70053225D01*
X129146774Y-70148523D01*
X129146778Y-70148526D01*
X129146780Y-70148528D01*
X129266874Y-70209719D01*
X129266876Y-70209719D01*
X129266878Y-70209720D01*
X129399998Y-70230804D01*
X129400000Y-70230804D01*
X129400002Y-70230804D01*
X129533121Y-70209720D01*
X129533121Y-70209719D01*
X129533126Y-70209719D01*
X129644209Y-70153119D01*
X129712874Y-70140224D01*
X129777614Y-70166500D01*
X129817872Y-70223606D01*
X129824500Y-70263605D01*
X129824500Y-71300500D01*
X129804815Y-71367539D01*
X129752011Y-71413294D01*
X129700500Y-71424500D01*
X129230252Y-71424500D01*
X129174190Y-71435651D01*
X129125810Y-71435651D01*
X129069748Y-71424500D01*
X128580252Y-71424500D01*
X128580247Y-71424500D01*
X128521770Y-71436131D01*
X128521769Y-71436132D01*
X128455447Y-71480447D01*
X128411132Y-71546769D01*
X128411131Y-71546770D01*
X128399500Y-71605247D01*
X128399500Y-72307745D01*
X128379815Y-72374784D01*
X128363181Y-72395426D01*
X128075426Y-72683181D01*
X128014103Y-72716666D01*
X127987745Y-72719500D01*
X127639866Y-72719500D01*
X127572827Y-72699815D01*
X127568743Y-72697075D01*
X127568317Y-72696776D01*
X127509662Y-72669425D01*
X127459487Y-72646028D01*
X127459485Y-72646027D01*
X127459486Y-72646027D01*
X127409901Y-72639500D01*
X126990105Y-72639500D01*
X126974386Y-72641569D01*
X126940513Y-72646028D01*
X126940511Y-72646029D01*
X126940509Y-72646029D01*
X126831683Y-72696776D01*
X126815279Y-72713181D01*
X126753956Y-72746666D01*
X126727598Y-72749500D01*
X126585480Y-72749500D01*
X126518441Y-72729815D01*
X126484968Y-72693371D01*
X126483311Y-72694595D01*
X126447467Y-72646028D01*
X126397150Y-72577850D01*
X126287882Y-72497207D01*
X126287880Y-72497206D01*
X126159700Y-72452353D01*
X126129270Y-72449500D01*
X126129266Y-72449500D01*
X125070734Y-72449500D01*
X125070730Y-72449500D01*
X125040300Y-72452353D01*
X125040298Y-72452353D01*
X124912119Y-72497206D01*
X124912117Y-72497207D01*
X124830843Y-72557190D01*
X124802850Y-72577850D01*
X124752534Y-72646027D01*
X124716689Y-72694595D01*
X124714714Y-72693137D01*
X124675420Y-72733515D01*
X124614520Y-72749500D01*
X121510339Y-72749500D01*
X121510323Y-72749499D01*
X121502727Y-72749499D01*
X121397274Y-72749499D01*
X121295413Y-72776793D01*
X121295411Y-72776793D01*
X121295411Y-72776794D01*
X121204084Y-72829522D01*
X118879522Y-75154084D01*
X118879518Y-75154090D01*
X118826792Y-75245412D01*
X118826793Y-75245413D01*
X118799500Y-75347273D01*
X118799500Y-76433853D01*
X118779815Y-76500892D01*
X118727011Y-76546647D01*
X118722953Y-76548414D01*
X118552403Y-76619057D01*
X118380342Y-76734024D01*
X118234024Y-76880342D01*
X118119058Y-77052403D01*
X118039870Y-77243579D01*
X118039868Y-77243587D01*
X117999500Y-77446530D01*
X117999500Y-77653469D01*
X118039868Y-77856412D01*
X118039870Y-77856420D01*
X118119059Y-78047598D01*
X118158513Y-78106645D01*
X118234024Y-78219657D01*
X118380342Y-78365975D01*
X118380345Y-78365977D01*
X118540367Y-78472899D01*
X118585170Y-78526509D01*
X118593878Y-78595834D01*
X118563724Y-78658862D01*
X118504282Y-78695581D01*
X118471477Y-78700000D01*
X118400029Y-78700000D01*
X118400012Y-78700001D01*
X118297302Y-78710494D01*
X118130880Y-78765641D01*
X118130875Y-78765643D01*
X117981654Y-78857684D01*
X117857684Y-78981654D01*
X117765643Y-79130875D01*
X117765641Y-79130880D01*
X117710494Y-79297302D01*
X117710493Y-79297309D01*
X117700000Y-79400013D01*
X110450500Y-79400013D01*
X110450500Y-67830247D01*
X113769500Y-67830247D01*
X113769500Y-70369752D01*
X113781131Y-70428229D01*
X113781132Y-70428230D01*
X113825447Y-70494552D01*
X113891769Y-70538867D01*
X113891770Y-70538868D01*
X113950247Y-70550499D01*
X113950250Y-70550500D01*
X113950252Y-70550500D01*
X115689750Y-70550500D01*
X115689751Y-70550499D01*
X115704568Y-70547552D01*
X115748229Y-70538868D01*
X115748229Y-70538867D01*
X115748231Y-70538867D01*
X115814552Y-70494552D01*
X115858867Y-70428231D01*
X115858867Y-70428229D01*
X115858868Y-70428229D01*
X115870499Y-70369752D01*
X115870500Y-70369750D01*
X115870500Y-70066048D01*
X115890185Y-69999009D01*
X115942989Y-69953254D01*
X116012147Y-69943310D01*
X116075703Y-69972335D01*
X116105938Y-70014264D01*
X116106694Y-70013879D01*
X116205379Y-70207557D01*
X116330272Y-70379459D01*
X116330276Y-70379464D01*
X116480535Y-70529723D01*
X116480540Y-70529727D01*
X116652442Y-70654620D01*
X116841782Y-70751095D01*
X117043871Y-70816757D01*
X117110000Y-70827231D01*
X117110000Y-69648482D01*
X117128409Y-69659111D01*
X117281009Y-69700000D01*
X117438991Y-69700000D01*
X117591591Y-69659111D01*
X117610000Y-69648482D01*
X117610000Y-70827230D01*
X117676126Y-70816757D01*
X117676129Y-70816757D01*
X117878217Y-70751095D01*
X118067557Y-70654620D01*
X118239459Y-70529727D01*
X118239464Y-70529723D01*
X118389723Y-70379464D01*
X118389727Y-70379459D01*
X118514620Y-70207557D01*
X118611095Y-70018217D01*
X118668343Y-69842026D01*
X118707780Y-69784351D01*
X118772139Y-69757152D01*
X118840985Y-69769066D01*
X118892461Y-69816310D01*
X118900833Y-69832887D01*
X118969059Y-69997598D01*
X119006224Y-70053220D01*
X119084024Y-70169657D01*
X119230342Y-70315975D01*
X119230345Y-70315977D01*
X119402402Y-70430941D01*
X119593580Y-70510130D01*
X119738052Y-70538867D01*
X119796530Y-70550499D01*
X119796534Y-70550500D01*
X119796535Y-70550500D01*
X120003466Y-70550500D01*
X120003467Y-70550499D01*
X120206420Y-70510130D01*
X120397598Y-70430941D01*
X120569655Y-70315977D01*
X120715977Y-70169655D01*
X120830941Y-69997598D01*
X120910130Y-69806420D01*
X120950500Y-69603465D01*
X120950500Y-68596535D01*
X120910130Y-68393580D01*
X120830941Y-68202402D01*
X120715977Y-68030345D01*
X120715975Y-68030342D01*
X120569655Y-67884022D01*
X120397604Y-67769062D01*
X120397599Y-67769060D01*
X120397598Y-67769059D01*
X120377045Y-67760545D01*
X120322643Y-67716704D01*
X120300579Y-67650410D01*
X120300500Y-67645985D01*
X120300500Y-65000012D01*
X120320185Y-64932973D01*
X120351621Y-64899689D01*
X120353213Y-64898531D01*
X120353220Y-64898528D01*
X120448528Y-64803220D01*
X120509719Y-64683126D01*
X120510523Y-64678050D01*
X120530804Y-64550002D01*
X120530804Y-64549997D01*
X120509720Y-64416878D01*
X120509719Y-64416876D01*
X120509719Y-64416874D01*
X120448528Y-64296780D01*
X120448526Y-64296778D01*
X120448523Y-64296774D01*
X120353225Y-64201476D01*
X120353221Y-64201473D01*
X120353220Y-64201472D01*
X120233126Y-64140281D01*
X120233124Y-64140280D01*
X120233121Y-64140279D01*
X120100002Y-64119196D01*
X120099998Y-64119196D01*
X119966878Y-64140279D01*
X119966874Y-64140280D01*
X119966874Y-64140281D01*
X119927259Y-64160466D01*
X119846778Y-64201473D01*
X119846774Y-64201476D01*
X119751476Y-64296774D01*
X119751472Y-64296779D01*
X119723657Y-64351368D01*
X119700855Y-64382752D01*
X119579519Y-64504087D01*
X119526791Y-64595413D01*
X119504652Y-64678047D01*
X119504651Y-64678051D01*
X119499500Y-64697272D01*
X119499500Y-67645985D01*
X119479815Y-67713024D01*
X119427011Y-67758779D01*
X119422954Y-67760546D01*
X119402402Y-67769059D01*
X119402395Y-67769062D01*
X119230344Y-67884022D01*
X119084024Y-68030342D01*
X118969057Y-68202403D01*
X118900835Y-68367108D01*
X118856994Y-68421511D01*
X118790700Y-68443576D01*
X118723000Y-68426297D01*
X118675390Y-68375159D01*
X118668343Y-68357973D01*
X118611095Y-68181782D01*
X118514620Y-67992442D01*
X118389727Y-67820540D01*
X118389723Y-67820535D01*
X118239464Y-67670276D01*
X118239459Y-67670272D01*
X118067557Y-67545379D01*
X117878215Y-67448903D01*
X117676124Y-67383241D01*
X117610000Y-67372768D01*
X117610000Y-68551517D01*
X117591591Y-68540889D01*
X117438991Y-68500000D01*
X117281009Y-68500000D01*
X117128409Y-68540889D01*
X117110000Y-68551517D01*
X117110000Y-67372768D01*
X117109999Y-67372768D01*
X117043875Y-67383241D01*
X116841784Y-67448903D01*
X116652442Y-67545379D01*
X116480540Y-67670272D01*
X116480535Y-67670276D01*
X116330276Y-67820535D01*
X116330272Y-67820540D01*
X116205379Y-67992442D01*
X116106694Y-68186121D01*
X116105678Y-68185603D01*
X116065212Y-68235813D01*
X115998916Y-68257872D01*
X115931218Y-68240588D01*
X115883612Y-68189447D01*
X115870500Y-68133951D01*
X115870500Y-67830249D01*
X115870499Y-67830247D01*
X115858868Y-67771770D01*
X115858867Y-67771769D01*
X115814552Y-67705447D01*
X115748230Y-67661132D01*
X115748229Y-67661131D01*
X115689752Y-67649500D01*
X115689748Y-67649500D01*
X113950252Y-67649500D01*
X113950247Y-67649500D01*
X113891770Y-67661131D01*
X113891769Y-67661132D01*
X113825447Y-67705447D01*
X113781132Y-67771769D01*
X113781131Y-67771770D01*
X113769500Y-67830247D01*
X110450500Y-67830247D01*
X110450500Y-61525013D01*
X112850000Y-61525013D01*
X112850000Y-62050000D01*
X113795854Y-62050000D01*
X113757370Y-62116657D01*
X113725000Y-62237465D01*
X113725000Y-62362535D01*
X113757370Y-62483343D01*
X113795854Y-62550000D01*
X112850001Y-62550000D01*
X112850001Y-63074986D01*
X112860494Y-63177697D01*
X112915641Y-63344119D01*
X112915643Y-63344124D01*
X113007684Y-63493345D01*
X113131654Y-63617315D01*
X113280875Y-63709356D01*
X113280880Y-63709358D01*
X113447302Y-63764505D01*
X113447309Y-63764506D01*
X113550019Y-63774999D01*
X113949999Y-63774999D01*
X113950000Y-63774998D01*
X113950000Y-62704145D01*
X114016657Y-62742630D01*
X114137465Y-62775000D01*
X114262535Y-62775000D01*
X114383343Y-62742630D01*
X114450000Y-62704145D01*
X114450000Y-63774999D01*
X114849972Y-63774999D01*
X114849986Y-63774998D01*
X114952697Y-63764505D01*
X115119119Y-63709358D01*
X115119124Y-63709356D01*
X115268345Y-63617315D01*
X115392315Y-63493345D01*
X115484356Y-63344124D01*
X115484358Y-63344119D01*
X115539505Y-63177697D01*
X115539506Y-63177690D01*
X115549999Y-63074986D01*
X115549999Y-63003528D01*
X115569683Y-62936488D01*
X115622486Y-62890732D01*
X115691644Y-62880788D01*
X115755200Y-62909812D01*
X115777101Y-62934635D01*
X115884022Y-63094655D01*
X116030342Y-63240975D01*
X116030345Y-63240977D01*
X116202402Y-63355941D01*
X116393580Y-63435130D01*
X116568015Y-63469827D01*
X116596530Y-63475499D01*
X116596534Y-63475500D01*
X116596535Y-63475500D01*
X116803466Y-63475500D01*
X116803467Y-63475499D01*
X117006420Y-63435130D01*
X117197598Y-63355941D01*
X117369655Y-63240977D01*
X117515977Y-63094655D01*
X117630941Y-62922598D01*
X117710130Y-62731420D01*
X117750500Y-62528465D01*
X117750500Y-62071535D01*
X117710130Y-61868580D01*
X117630941Y-61677402D01*
X117515977Y-61505345D01*
X117515975Y-61505342D01*
X117369657Y-61359024D01*
X117263156Y-61287863D01*
X117197598Y-61244059D01*
X117197593Y-61244057D01*
X117006420Y-61164870D01*
X117006412Y-61164868D01*
X116803469Y-61124500D01*
X116803465Y-61124500D01*
X116596535Y-61124500D01*
X116596530Y-61124500D01*
X116393587Y-61164868D01*
X116393579Y-61164870D01*
X116202403Y-61244058D01*
X116030342Y-61359024D01*
X115884024Y-61505342D01*
X115807883Y-61619297D01*
X115780355Y-61660497D01*
X115777102Y-61665365D01*
X115723489Y-61710171D01*
X115654165Y-61718878D01*
X115591137Y-61688724D01*
X115554417Y-61629281D01*
X115549999Y-61596475D01*
X115549999Y-61525028D01*
X115549998Y-61525012D01*
X115539505Y-61422302D01*
X115484358Y-61255880D01*
X115484356Y-61255875D01*
X115392315Y-61106654D01*
X115268345Y-60982684D01*
X115119124Y-60890643D01*
X115119119Y-60890641D01*
X114952697Y-60835494D01*
X114952690Y-60835493D01*
X114849986Y-60825000D01*
X114450000Y-60825000D01*
X114450000Y-61895854D01*
X114383343Y-61857370D01*
X114262535Y-61825000D01*
X114137465Y-61825000D01*
X114016657Y-61857370D01*
X113950000Y-61895854D01*
X113950000Y-60825000D01*
X113550028Y-60825000D01*
X113550012Y-60825001D01*
X113447302Y-60835494D01*
X113280880Y-60890641D01*
X113280875Y-60890643D01*
X113131654Y-60982684D01*
X113007684Y-61106654D01*
X112915643Y-61255875D01*
X112915641Y-61255880D01*
X112860494Y-61422302D01*
X112860493Y-61422309D01*
X112850000Y-61525013D01*
X110450500Y-61525013D01*
X110450500Y-53225013D01*
X112950000Y-53225013D01*
X112950000Y-53750000D01*
X113895854Y-53750000D01*
X113857370Y-53816657D01*
X113825000Y-53937465D01*
X113825000Y-54062535D01*
X113857370Y-54183343D01*
X113895854Y-54250000D01*
X112950001Y-54250000D01*
X112950001Y-54774986D01*
X112960494Y-54877697D01*
X113015641Y-55044119D01*
X113015643Y-55044124D01*
X113107684Y-55193345D01*
X113231654Y-55317315D01*
X113380875Y-55409356D01*
X113380880Y-55409358D01*
X113547302Y-55464505D01*
X113547309Y-55464506D01*
X113650019Y-55474999D01*
X114049999Y-55474999D01*
X114050000Y-55474998D01*
X114050000Y-54404145D01*
X114116657Y-54442630D01*
X114237465Y-54475000D01*
X114362535Y-54475000D01*
X114483343Y-54442630D01*
X114550000Y-54404145D01*
X114550000Y-55474999D01*
X114949972Y-55474999D01*
X114949986Y-55474998D01*
X115052697Y-55464505D01*
X115219119Y-55409358D01*
X115219124Y-55409356D01*
X115368345Y-55317315D01*
X115492315Y-55193345D01*
X115584356Y-55044124D01*
X115584358Y-55044119D01*
X115639505Y-54877697D01*
X115639506Y-54877690D01*
X115649999Y-54774986D01*
X115649999Y-54703528D01*
X115669683Y-54636488D01*
X115722486Y-54590732D01*
X115791644Y-54580788D01*
X115855200Y-54609812D01*
X115877101Y-54634635D01*
X115984022Y-54794655D01*
X116130342Y-54940975D01*
X116130345Y-54940977D01*
X116302402Y-55055941D01*
X116493580Y-55135130D01*
X116696530Y-55175499D01*
X116696534Y-55175500D01*
X116696535Y-55175500D01*
X116903466Y-55175500D01*
X116903467Y-55175499D01*
X117106420Y-55135130D01*
X117297598Y-55055941D01*
X117469655Y-54940977D01*
X117615977Y-54794655D01*
X117730941Y-54622598D01*
X117810130Y-54431420D01*
X117850500Y-54228465D01*
X117850500Y-53771535D01*
X117810130Y-53568580D01*
X117730941Y-53377402D01*
X117615977Y-53205345D01*
X117615975Y-53205342D01*
X117469657Y-53059024D01*
X117368874Y-52991684D01*
X117297598Y-52944059D01*
X117207589Y-52906776D01*
X117106420Y-52864870D01*
X117106412Y-52864868D01*
X116903469Y-52824500D01*
X116903465Y-52824500D01*
X116696535Y-52824500D01*
X116696530Y-52824500D01*
X116493587Y-52864868D01*
X116493579Y-52864870D01*
X116302403Y-52944058D01*
X116130342Y-53059024D01*
X115984024Y-53205342D01*
X115877102Y-53365365D01*
X115823489Y-53410171D01*
X115754165Y-53418878D01*
X115691137Y-53388724D01*
X115654417Y-53329281D01*
X115649999Y-53296475D01*
X115649999Y-53225028D01*
X115649998Y-53225012D01*
X115639505Y-53122302D01*
X115584358Y-52955880D01*
X115584356Y-52955875D01*
X115492315Y-52806654D01*
X115368345Y-52682684D01*
X115219124Y-52590643D01*
X115219119Y-52590641D01*
X115052697Y-52535494D01*
X115052690Y-52535493D01*
X114949986Y-52525000D01*
X114550000Y-52525000D01*
X114550000Y-53595854D01*
X114483343Y-53557370D01*
X114362535Y-53525000D01*
X114237465Y-53525000D01*
X114116657Y-53557370D01*
X114050000Y-53595854D01*
X114050000Y-52525000D01*
X113650028Y-52525000D01*
X113650012Y-52525001D01*
X113547302Y-52535494D01*
X113380880Y-52590641D01*
X113380875Y-52590643D01*
X113231654Y-52682684D01*
X113107684Y-52806654D01*
X113015643Y-52955875D01*
X113015641Y-52955880D01*
X112960494Y-53122302D01*
X112960493Y-53122309D01*
X112950000Y-53225013D01*
X110450500Y-53225013D01*
X110450500Y-48600000D01*
X113024355Y-48600000D01*
X113044859Y-48768869D01*
X113044860Y-48768874D01*
X113105182Y-48927931D01*
X113160500Y-49008071D01*
X113201817Y-49067929D01*
X113298040Y-49153175D01*
X113329150Y-49180736D01*
X113479773Y-49259789D01*
X113479775Y-49259790D01*
X113644944Y-49300500D01*
X113815056Y-49300500D01*
X113980225Y-49259790D01*
X114098641Y-49197640D01*
X114130849Y-49180736D01*
X114130850Y-49180734D01*
X114130852Y-49180734D01*
X114138771Y-49173717D01*
X114202001Y-49143995D01*
X114271265Y-49153175D01*
X114324102Y-49197640D01*
X114355447Y-49244552D01*
X114421769Y-49288867D01*
X114421770Y-49288868D01*
X114480247Y-49300499D01*
X114480250Y-49300500D01*
X114480252Y-49300500D01*
X115519750Y-49300500D01*
X115519751Y-49300499D01*
X115534568Y-49297552D01*
X115578229Y-49288868D01*
X115578229Y-49288867D01*
X115578231Y-49288867D01*
X115644552Y-49244552D01*
X115688867Y-49178231D01*
X115688867Y-49178229D01*
X115688868Y-49178229D01*
X115700499Y-49119752D01*
X115700500Y-49119750D01*
X115700500Y-48080249D01*
X115700499Y-48080247D01*
X115688868Y-48021770D01*
X115688867Y-48021769D01*
X115644552Y-47955447D01*
X115578230Y-47911132D01*
X115578229Y-47911131D01*
X115519752Y-47899500D01*
X115519748Y-47899500D01*
X114480252Y-47899500D01*
X114480247Y-47899500D01*
X114421770Y-47911131D01*
X114421769Y-47911132D01*
X114355448Y-47955446D01*
X114324102Y-48002360D01*
X114270489Y-48047164D01*
X114201164Y-48055871D01*
X114138773Y-48026283D01*
X114130852Y-48019266D01*
X114130850Y-48019264D01*
X113980226Y-47940210D01*
X113815056Y-47899500D01*
X113644944Y-47899500D01*
X113479773Y-47940210D01*
X113329150Y-48019263D01*
X113201816Y-48132072D01*
X113105182Y-48272068D01*
X113044860Y-48431125D01*
X113044859Y-48431130D01*
X113024355Y-48600000D01*
X110450500Y-48600000D01*
X110450500Y-41602871D01*
X110450566Y-41600000D01*
X111194958Y-41600000D01*
X111215110Y-41958846D01*
X111215112Y-41958858D01*
X111275314Y-42313185D01*
X111275316Y-42313194D01*
X111374812Y-42658552D01*
X111512353Y-42990609D01*
X111512355Y-42990613D01*
X111686215Y-43305189D01*
X111686218Y-43305194D01*
X111894193Y-43598306D01*
X111966843Y-43679601D01*
X113284728Y-42361716D01*
X113370278Y-42479466D01*
X113520534Y-42629722D01*
X113638281Y-42715270D01*
X112320397Y-44033155D01*
X112401693Y-44105806D01*
X112694805Y-44313781D01*
X112694810Y-44313784D01*
X113009386Y-44487644D01*
X113009390Y-44487646D01*
X113341447Y-44625187D01*
X113686805Y-44724683D01*
X113686814Y-44724685D01*
X114041141Y-44784887D01*
X114041153Y-44784889D01*
X114400000Y-44805041D01*
X114758846Y-44784889D01*
X114758858Y-44784887D01*
X115113185Y-44724685D01*
X115113194Y-44724683D01*
X115458552Y-44625187D01*
X115790609Y-44487646D01*
X115790613Y-44487644D01*
X116105189Y-44313784D01*
X116105194Y-44313781D01*
X116398306Y-44105806D01*
X116479601Y-44033155D01*
X115161717Y-42715270D01*
X115279466Y-42629722D01*
X115429722Y-42479466D01*
X115515270Y-42361717D01*
X116833155Y-43679601D01*
X116905806Y-43598306D01*
X117113781Y-43305194D01*
X117113784Y-43305189D01*
X117287644Y-42990613D01*
X117287646Y-42990609D01*
X117425187Y-42658552D01*
X117524683Y-42313194D01*
X117524685Y-42313185D01*
X117584887Y-41958858D01*
X117584889Y-41958846D01*
X117605041Y-41600000D01*
X117584889Y-41241153D01*
X117584887Y-41241141D01*
X117577171Y-41195730D01*
X120424500Y-41195730D01*
X120424500Y-42004269D01*
X120427353Y-42034699D01*
X120427353Y-42034701D01*
X120472206Y-42162880D01*
X120472207Y-42162882D01*
X120552850Y-42272150D01*
X120662118Y-42352793D01*
X120704845Y-42367744D01*
X120790299Y-42397646D01*
X120820730Y-42400500D01*
X120820734Y-42400500D01*
X122179270Y-42400500D01*
X122209699Y-42397646D01*
X122209701Y-42397646D01*
X122273790Y-42375219D01*
X122337882Y-42352793D01*
X122447150Y-42272150D01*
X122527793Y-42162882D01*
X122550219Y-42098790D01*
X122572646Y-42034701D01*
X122572646Y-42034699D01*
X122575500Y-42004269D01*
X122575500Y-41600000D01*
X143794958Y-41600000D01*
X143815110Y-41958846D01*
X143815112Y-41958858D01*
X143875314Y-42313185D01*
X143875316Y-42313194D01*
X143974812Y-42658552D01*
X144112353Y-42990609D01*
X144112355Y-42990613D01*
X144286215Y-43305189D01*
X144286218Y-43305194D01*
X144494193Y-43598306D01*
X144566843Y-43679601D01*
X145884728Y-42361716D01*
X145970278Y-42479466D01*
X146120534Y-42629722D01*
X146238281Y-42715270D01*
X144920397Y-44033155D01*
X145001693Y-44105806D01*
X145294805Y-44313781D01*
X145294810Y-44313784D01*
X145609386Y-44487644D01*
X145609390Y-44487646D01*
X145941447Y-44625187D01*
X146286805Y-44724683D01*
X146286814Y-44724685D01*
X146641141Y-44784887D01*
X146641153Y-44784889D01*
X147000000Y-44805041D01*
X147358846Y-44784889D01*
X147358858Y-44784887D01*
X147713185Y-44724685D01*
X147713194Y-44724683D01*
X148058552Y-44625187D01*
X148390609Y-44487646D01*
X148390613Y-44487644D01*
X148705189Y-44313784D01*
X148705194Y-44313781D01*
X148998306Y-44105806D01*
X149079601Y-44033155D01*
X147761717Y-42715270D01*
X147879466Y-42629722D01*
X148029722Y-42479466D01*
X148115270Y-42361717D01*
X149433155Y-43679601D01*
X149505806Y-43598306D01*
X149713781Y-43305194D01*
X149713784Y-43305189D01*
X149887644Y-42990613D01*
X149887646Y-42990609D01*
X150025187Y-42658552D01*
X150124683Y-42313194D01*
X150124685Y-42313185D01*
X150184887Y-41958858D01*
X150184889Y-41958846D01*
X150205041Y-41600000D01*
X150184889Y-41241153D01*
X150184887Y-41241141D01*
X150124685Y-40886814D01*
X150124683Y-40886805D01*
X150025187Y-40541447D01*
X149887646Y-40209390D01*
X149887644Y-40209386D01*
X149713784Y-39894810D01*
X149713781Y-39894805D01*
X149505806Y-39601693D01*
X149433155Y-39520397D01*
X148115270Y-40838281D01*
X148029722Y-40720534D01*
X147879466Y-40570278D01*
X147761717Y-40484728D01*
X149079602Y-39166843D01*
X148998306Y-39094193D01*
X148705194Y-38886218D01*
X148705189Y-38886215D01*
X148390613Y-38712355D01*
X148390609Y-38712353D01*
X148058552Y-38574812D01*
X147713194Y-38475316D01*
X147713185Y-38475314D01*
X147358858Y-38415112D01*
X147358846Y-38415110D01*
X147000000Y-38394958D01*
X146641153Y-38415110D01*
X146641141Y-38415112D01*
X146286814Y-38475314D01*
X146286805Y-38475316D01*
X145941447Y-38574812D01*
X145609390Y-38712353D01*
X145609386Y-38712355D01*
X145294810Y-38886215D01*
X145294805Y-38886218D01*
X145001693Y-39094194D01*
X145001685Y-39094199D01*
X144920397Y-39166842D01*
X144920397Y-39166843D01*
X146238282Y-40484728D01*
X146120534Y-40570278D01*
X145970278Y-40720534D01*
X145884728Y-40838282D01*
X144566843Y-39520397D01*
X144566842Y-39520397D01*
X144494199Y-39601685D01*
X144494194Y-39601693D01*
X144286218Y-39894805D01*
X144286215Y-39894810D01*
X144112355Y-40209386D01*
X144112353Y-40209390D01*
X143974812Y-40541447D01*
X143875316Y-40886805D01*
X143875314Y-40886814D01*
X143815112Y-41241141D01*
X143815110Y-41241153D01*
X143794958Y-41600000D01*
X122575500Y-41600000D01*
X122575500Y-41195730D01*
X122572646Y-41165300D01*
X122572646Y-41165298D01*
X122527793Y-41037119D01*
X122527792Y-41037117D01*
X122514082Y-41018540D01*
X122447150Y-40927850D01*
X122337882Y-40847207D01*
X122337880Y-40847206D01*
X122209700Y-40802353D01*
X122179270Y-40799500D01*
X122179266Y-40799500D01*
X120820734Y-40799500D01*
X120820730Y-40799500D01*
X120790300Y-40802353D01*
X120790298Y-40802353D01*
X120662119Y-40847206D01*
X120662117Y-40847207D01*
X120552850Y-40927850D01*
X120472207Y-41037117D01*
X120472206Y-41037119D01*
X120427353Y-41165298D01*
X120427353Y-41165300D01*
X120424500Y-41195730D01*
X117577171Y-41195730D01*
X117524685Y-40886814D01*
X117524683Y-40886805D01*
X117425187Y-40541447D01*
X117287646Y-40209390D01*
X117287644Y-40209386D01*
X117113784Y-39894810D01*
X117113781Y-39894805D01*
X116905806Y-39601693D01*
X116833155Y-39520397D01*
X115515270Y-40838281D01*
X115429722Y-40720534D01*
X115279466Y-40570278D01*
X115161717Y-40484728D01*
X116479602Y-39166843D01*
X116398306Y-39094193D01*
X116105194Y-38886218D01*
X116105189Y-38886215D01*
X115790613Y-38712355D01*
X115790609Y-38712353D01*
X115458552Y-38574812D01*
X115113194Y-38475316D01*
X115113185Y-38475314D01*
X114758858Y-38415112D01*
X114758846Y-38415110D01*
X114400000Y-38394958D01*
X114041153Y-38415110D01*
X114041141Y-38415112D01*
X113686814Y-38475314D01*
X113686805Y-38475316D01*
X113341447Y-38574812D01*
X113009390Y-38712353D01*
X113009386Y-38712355D01*
X112694810Y-38886215D01*
X112694805Y-38886218D01*
X112401693Y-39094194D01*
X112401685Y-39094199D01*
X112320397Y-39166842D01*
X112320397Y-39166843D01*
X113638282Y-40484728D01*
X113520534Y-40570278D01*
X113370278Y-40720534D01*
X113284728Y-40838282D01*
X111966843Y-39520397D01*
X111966842Y-39520397D01*
X111894199Y-39601685D01*
X111894194Y-39601693D01*
X111686218Y-39894805D01*
X111686215Y-39894810D01*
X111512355Y-40209386D01*
X111512353Y-40209390D01*
X111374812Y-40541447D01*
X111275316Y-40886805D01*
X111275314Y-40886814D01*
X111215112Y-41241141D01*
X111215110Y-41241153D01*
X111194958Y-41600000D01*
X110450566Y-41600000D01*
X110450632Y-41597144D01*
X110455412Y-41493753D01*
X110467083Y-41241300D01*
X110468140Y-41229905D01*
X110472907Y-41195734D01*
X110516958Y-40879944D01*
X110519058Y-40868708D01*
X110599961Y-40524732D01*
X110603084Y-40513753D01*
X110715387Y-40178685D01*
X110719510Y-40168046D01*
X110862245Y-39844781D01*
X110867328Y-39834572D01*
X111039278Y-39525862D01*
X111045304Y-39516130D01*
X111244999Y-39224612D01*
X111251881Y-39215498D01*
X111477636Y-38943630D01*
X111485332Y-38935190D01*
X111735190Y-38685332D01*
X111743630Y-38677636D01*
X112015498Y-38451881D01*
X112024612Y-38444999D01*
X112316136Y-38245300D01*
X112325862Y-38239278D01*
X112634572Y-38067328D01*
X112644781Y-38062245D01*
X112968046Y-37919510D01*
X112978685Y-37915387D01*
X113313753Y-37803084D01*
X113324732Y-37799961D01*
X113668708Y-37719058D01*
X113679944Y-37716958D01*
X114029914Y-37668139D01*
X114041300Y-37667083D01*
X114397145Y-37650632D01*
X114402872Y-37650500D01*
X114444170Y-37650500D01*
X146955830Y-37650500D01*
X146997128Y-37650500D01*
X147002855Y-37650632D01*
G37*
%TD.AperFunction*%
%TD*%
M02*
