%TF.GenerationSoftware,KiCad,Pcbnew,8.0.8*%
%TF.CreationDate,2025-02-05T17:51:10+01:00*%
%TF.ProjectId,Janus_finalV,4a616e75-735f-4666-996e-616c562e6b69,rev?*%
%TF.SameCoordinates,Original*%
%TF.FileFunction,Plated,1,4,PTH,Drill*%
%TF.FilePolarity,Positive*%
%FSLAX46Y46*%
G04 Gerber Fmt 4.6, Leading zero omitted, Abs format (unit mm)*
G04 Created by KiCad (PCBNEW 8.0.8) date 2025-02-05 17:51:10*
%MOMM*%
%LPD*%
G01*
G04 APERTURE LIST*
%TA.AperFunction,ViaDrill*%
%ADD10C,0.300000*%
%TD*%
%TA.AperFunction,ComponentDrill*%
%ADD11C,0.650000*%
%TD*%
%TA.AperFunction,ComponentDrill*%
%ADD12C,0.750000*%
%TD*%
%TA.AperFunction,ComponentDrill*%
%ADD13C,0.950000*%
%TD*%
%TA.AperFunction,ComponentDrill*%
%ADD14C,1.000000*%
%TD*%
%TA.AperFunction,ComponentDrill*%
%ADD15C,1.200000*%
%TD*%
%TA.AperFunction,ComponentDrill*%
%ADD16C,2.700000*%
%TD*%
G04 APERTURE END LIST*
D10*
X110950000Y-42950000D03*
X110950000Y-45490000D03*
X110950000Y-48030000D03*
X110950000Y-50570000D03*
X110950000Y-53110000D03*
X110950000Y-55650000D03*
X110950000Y-58190000D03*
X110950000Y-60730000D03*
X110950000Y-63270000D03*
X110950000Y-65810000D03*
X110950000Y-68350000D03*
X110950000Y-70890000D03*
X110950000Y-73430000D03*
X110950000Y-75970000D03*
X110950000Y-78510000D03*
X110950000Y-81050000D03*
X110950000Y-83590000D03*
X112500000Y-56300000D03*
X112500000Y-58840000D03*
X112600000Y-71500000D03*
X112600000Y-74040000D03*
X112600000Y-76250000D03*
X112600000Y-78790000D03*
X112600000Y-81330000D03*
X112650000Y-64350000D03*
X112650000Y-66890000D03*
X113350000Y-45500000D03*
X115040000Y-56300000D03*
X115040000Y-58840000D03*
X115140000Y-71500000D03*
X115140000Y-74040000D03*
X115140000Y-76250000D03*
X115140000Y-78790000D03*
X115140000Y-81330000D03*
X115190000Y-64350000D03*
X115190000Y-66890000D03*
X115550000Y-89150000D03*
X115890000Y-45500000D03*
X116940000Y-38000000D03*
X117580000Y-56300000D03*
X117580000Y-58840000D03*
X117680000Y-71500000D03*
X117680000Y-74040000D03*
X117730000Y-64350000D03*
X117730000Y-66890000D03*
X118090000Y-89150000D03*
X118100000Y-82200000D03*
X118100000Y-84740000D03*
X118100000Y-87280000D03*
X118400000Y-39400000D03*
X118400000Y-41940000D03*
X118430000Y-45500000D03*
X118430000Y-48040000D03*
X118430000Y-50580000D03*
X119480000Y-38000000D03*
X120000000Y-75900000D03*
X120100000Y-64550000D03*
X120120000Y-56300000D03*
X120120000Y-58840000D03*
X120600000Y-61850000D03*
X120630000Y-89150000D03*
X120640000Y-82200000D03*
X120640000Y-84740000D03*
X120640000Y-87280000D03*
X120800000Y-74900000D03*
X121750000Y-73950000D03*
X121850000Y-55450000D03*
X121900000Y-76550000D03*
X121900000Y-79090000D03*
X122020000Y-38000000D03*
X122300000Y-58050000D03*
X122300000Y-60200000D03*
X122300000Y-64500000D03*
X122300000Y-66840000D03*
X122300000Y-69800000D03*
X122300000Y-71920000D03*
X122300000Y-74460000D03*
X123170000Y-89150000D03*
X123180000Y-82200000D03*
X123180000Y-84740000D03*
X123180000Y-87280000D03*
X123500000Y-47400000D03*
X123500000Y-49940000D03*
X123500000Y-52480000D03*
X123500000Y-73950000D03*
X123550000Y-57100000D03*
X123550000Y-59000000D03*
X124250000Y-55250000D03*
X124440000Y-76550000D03*
X124440000Y-79090000D03*
X124550000Y-39400000D03*
X124550000Y-41940000D03*
X124550000Y-44480000D03*
X124560000Y-38000000D03*
X124650000Y-59000000D03*
X124840000Y-71920000D03*
X125300000Y-68400000D03*
X125300000Y-69300000D03*
X125350000Y-60650000D03*
X125450000Y-49100000D03*
X125450000Y-51640000D03*
X125600000Y-62750000D03*
X125710000Y-89150000D03*
X125720000Y-82200000D03*
X125720000Y-84740000D03*
X125720000Y-87280000D03*
X125750000Y-57050000D03*
X125850000Y-59000000D03*
X126650000Y-62100000D03*
X126900000Y-68400000D03*
X126900000Y-69300000D03*
X126980000Y-76550000D03*
X126980000Y-79090000D03*
X127090000Y-39400000D03*
X127090000Y-41940000D03*
X127090000Y-44480000D03*
X127100000Y-38000000D03*
X127380000Y-71920000D03*
X127550000Y-54300000D03*
X127800000Y-68400000D03*
X127800000Y-69300000D03*
X127990000Y-49100000D03*
X128250000Y-89150000D03*
X128260000Y-87280000D03*
X128700000Y-56800000D03*
X128700000Y-58300000D03*
X128700000Y-59700000D03*
X128700000Y-60950000D03*
X128700000Y-67700000D03*
X128700000Y-68400000D03*
X128700000Y-69300000D03*
X128750000Y-74050000D03*
X128900000Y-65500000D03*
X128900000Y-66500000D03*
X129000000Y-77050000D03*
X129100000Y-82800000D03*
X129400000Y-69800000D03*
X129400000Y-71100000D03*
X129630000Y-39400000D03*
X129630000Y-41940000D03*
X129630000Y-44480000D03*
X129640000Y-38000000D03*
X129650000Y-74550000D03*
X130000000Y-57400000D03*
X130100000Y-59700000D03*
X130100000Y-61500000D03*
X130200000Y-81900000D03*
X130450000Y-75100000D03*
X130500000Y-65800000D03*
X130500000Y-66650000D03*
X130500000Y-67750000D03*
X130500001Y-68600001D03*
X130530000Y-49100000D03*
X130530000Y-51640000D03*
X130550000Y-74100000D03*
X130790000Y-89150000D03*
X130800000Y-87280000D03*
X130850934Y-60150000D03*
X130950000Y-52700000D03*
X130950000Y-64726818D03*
X131100000Y-61500000D03*
X131235996Y-74511598D03*
X131450000Y-52075499D03*
X131540000Y-77050000D03*
X131600000Y-60700000D03*
X131655548Y-65325339D03*
X132100000Y-61500000D03*
X132170000Y-39400000D03*
X132170000Y-41940000D03*
X132170000Y-44480000D03*
X132180000Y-38000000D03*
X132350000Y-81900000D03*
X132571082Y-65392343D03*
X132600000Y-55800000D03*
X132600000Y-57400000D03*
X133330000Y-89150000D03*
X133340000Y-87280000D03*
X133400000Y-75000000D03*
X133450000Y-67250000D03*
X133553652Y-65526383D03*
X133700000Y-83250000D03*
X133800000Y-56875000D03*
X134000000Y-70200000D03*
X134000000Y-71000000D03*
X134050000Y-64200000D03*
X134080000Y-77050000D03*
X134100000Y-55800000D03*
X134100000Y-59400000D03*
X134100000Y-61100000D03*
X134350000Y-65450000D03*
X134471232Y-74971232D03*
X134600000Y-50800000D03*
X134650000Y-68450000D03*
X134650000Y-69500000D03*
X134710000Y-39400000D03*
X134710000Y-41940000D03*
X134710000Y-44480000D03*
X134720000Y-38000000D03*
X134900000Y-53900000D03*
X135100000Y-81700000D03*
X135150000Y-84700000D03*
X135380853Y-74804075D03*
X135750000Y-62500000D03*
X135870000Y-89150000D03*
X135880000Y-87280000D03*
X136000000Y-49450000D03*
X136100000Y-63600000D03*
X136300000Y-82800000D03*
X136620000Y-77050000D03*
X137000000Y-53900000D03*
X137000000Y-69400000D03*
X137000000Y-70300000D03*
X137000000Y-71000000D03*
X137000000Y-71700000D03*
X137000000Y-72400000D03*
X137000000Y-73100000D03*
X137050000Y-74700000D03*
X137200000Y-57400000D03*
X137250000Y-39400000D03*
X137250000Y-41940000D03*
X137250000Y-44480000D03*
X137250000Y-64700000D03*
X137260000Y-38000000D03*
X137750000Y-58650000D03*
X137750000Y-82800000D03*
X138410000Y-89150000D03*
X138420000Y-87280000D03*
X138500000Y-70600000D03*
X138500000Y-72600000D03*
X138540000Y-49450000D03*
X139000000Y-58650000D03*
X139790000Y-39400000D03*
X139790000Y-41940000D03*
X139790000Y-44480000D03*
X139800000Y-38000000D03*
X139925735Y-60674265D03*
X140400000Y-58600000D03*
X141100000Y-61550000D03*
X141350000Y-89150000D03*
X141380000Y-82140000D03*
X141380000Y-84680000D03*
X141380000Y-87220000D03*
X141400000Y-64750000D03*
X141500000Y-58550000D03*
X142250000Y-59300000D03*
X142250000Y-64350000D03*
X142300000Y-55950000D03*
X142340000Y-38000000D03*
X142350000Y-39400000D03*
X142350000Y-41950000D03*
X142350000Y-44450000D03*
X142350000Y-46900000D03*
X142350000Y-49440000D03*
X142350000Y-51980000D03*
X142600000Y-53800000D03*
X143490000Y-89150000D03*
X143920000Y-82140000D03*
X144000000Y-64000000D03*
X144500000Y-65300000D03*
X144500000Y-67840000D03*
X144500000Y-70380000D03*
X144500000Y-72920000D03*
X144880000Y-38000000D03*
X144890000Y-46900000D03*
X144890000Y-49440000D03*
X144890000Y-51980000D03*
X145900000Y-56700000D03*
X146030000Y-89150000D03*
X146460000Y-82140000D03*
X147430000Y-46900000D03*
X147430000Y-49440000D03*
X147430000Y-51980000D03*
X149000000Y-82140000D03*
X149020000Y-64750000D03*
X149850000Y-62200000D03*
X150500000Y-43300000D03*
X150500000Y-45840000D03*
X150500000Y-48380000D03*
X150500000Y-50920000D03*
X150500000Y-53460000D03*
X150500000Y-56000000D03*
X150500000Y-58540000D03*
X150500000Y-61080000D03*
X150500000Y-63620000D03*
X150500000Y-66160000D03*
X150500000Y-68700000D03*
X150500000Y-71240000D03*
X150500000Y-73780000D03*
X150500000Y-76320000D03*
X150500000Y-78860000D03*
X150500000Y-81400000D03*
X150500000Y-83940000D03*
D11*
%TO.C,J12*%
X113730000Y-48600000D03*
X115000000Y-48600000D03*
%TO.C,J13*%
X138100000Y-67250000D03*
X138100000Y-68520000D03*
D12*
%TO.C,J2*%
X121500000Y-41600000D03*
X121500000Y-43600000D03*
X121500000Y-45600000D03*
X121500000Y-47600000D03*
D13*
%TO.C,J5*%
X114200000Y-62300000D03*
%TO.C,J6*%
X114300000Y-54000000D03*
%TO.C,J5*%
X116700000Y-62300000D03*
%TO.C,J6*%
X116800000Y-54000000D03*
%TO.C,J5*%
X119200000Y-62300000D03*
%TO.C,J6*%
X119300000Y-54000000D03*
%TO.C,J8*%
X127400000Y-47200000D03*
X129900000Y-47200000D03*
X132400000Y-47200000D03*
X134900000Y-47200000D03*
X137400000Y-47200000D03*
X139900000Y-47200000D03*
D14*
%TO.C,J1*%
X119200000Y-77550000D03*
X119200000Y-80050000D03*
%TO.C,J9*%
X127400000Y-84700000D03*
X129900000Y-84700000D03*
%TO.C,J10*%
X137250000Y-84700000D03*
X139750000Y-84700000D03*
%TO.C,J14*%
X140600000Y-79400000D03*
%TO.C,J11*%
X140620000Y-75700000D03*
%TO.C,J14*%
X143140000Y-79400000D03*
%TO.C,J11*%
X143160000Y-75700000D03*
%TO.C,J14*%
X145680000Y-79400000D03*
%TO.C,J11*%
X145700000Y-75700000D03*
%TO.C,J14*%
X148220000Y-79400000D03*
%TO.C,J11*%
X148240000Y-75700000D03*
D15*
%TO.C,J4*%
X114820000Y-69100000D03*
X117360000Y-69100000D03*
X119900000Y-69100000D03*
D16*
%TO.C,H1*%
X114400000Y-41600000D03*
%TO.C,H4*%
X114400000Y-85600000D03*
%TO.C,H3*%
X147000000Y-41600000D03*
%TO.C,H2*%
X147000000Y-85600000D03*
M02*
