%TF.GenerationSoftware,KiCad,Pcbnew,8.0.8*%
%TF.CreationDate,2025-02-05T17:51:18+01:00*%
%TF.ProjectId,Janus_finalV,4a616e75-735f-4666-996e-616c562e6b69,rev?*%
%TF.SameCoordinates,Original*%
%TF.FileFunction,Copper,L4,Bot*%
%TF.FilePolarity,Positive*%
%FSLAX46Y46*%
G04 Gerber Fmt 4.6, Leading zero omitted, Abs format (unit mm)*
G04 Created by KiCad (PCBNEW 8.0.8) date 2025-02-05 17:51:18*
%MOMM*%
%LPD*%
G01*
G04 APERTURE LIST*
G04 Aperture macros list*
%AMRoundRect*
0 Rectangle with rounded corners*
0 $1 Rounding radius*
0 $2 $3 $4 $5 $6 $7 $8 $9 X,Y pos of 4 corners*
0 Add a 4 corners polygon primitive as box body*
4,1,4,$2,$3,$4,$5,$6,$7,$8,$9,$2,$3,0*
0 Add four circle primitives for the rounded corners*
1,1,$1+$1,$2,$3*
1,1,$1+$1,$4,$5*
1,1,$1+$1,$6,$7*
1,1,$1+$1,$8,$9*
0 Add four rect primitives between the rounded corners*
20,1,$1+$1,$2,$3,$4,$5,0*
20,1,$1+$1,$4,$5,$6,$7,0*
20,1,$1+$1,$6,$7,$8,$9,0*
20,1,$1+$1,$8,$9,$2,$3,0*%
G04 Aperture macros list end*
%TA.AperFunction,ComponentPad*%
%ADD10R,1.700000X1.700000*%
%TD*%
%TA.AperFunction,ComponentPad*%
%ADD11O,1.700000X1.700000*%
%TD*%
%TA.AperFunction,ComponentPad*%
%ADD12C,5.400000*%
%TD*%
%TA.AperFunction,ComponentPad*%
%ADD13RoundRect,0.250000X-0.625000X0.350000X-0.625000X-0.350000X0.625000X-0.350000X0.625000X0.350000X0*%
%TD*%
%TA.AperFunction,ComponentPad*%
%ADD14O,1.750000X1.200000*%
%TD*%
%TA.AperFunction,ComponentPad*%
%ADD15R,1.000000X1.000000*%
%TD*%
%TA.AperFunction,ComponentPad*%
%ADD16O,1.000000X1.000000*%
%TD*%
%TA.AperFunction,ComponentPad*%
%ADD17R,1.700000X2.500000*%
%TD*%
%TA.AperFunction,ComponentPad*%
%ADD18O,1.700000X2.500000*%
%TD*%
%TA.AperFunction,ComponentPad*%
%ADD19RoundRect,0.250000X-0.600000X-0.725000X0.600000X-0.725000X0.600000X0.725000X-0.600000X0.725000X0*%
%TD*%
%TA.AperFunction,ComponentPad*%
%ADD20O,1.700000X1.950000*%
%TD*%
%TA.AperFunction,ComponentPad*%
%ADD21RoundRect,0.250000X0.600000X0.725000X-0.600000X0.725000X-0.600000X-0.725000X0.600000X-0.725000X0*%
%TD*%
%TA.AperFunction,SMDPad,CuDef*%
%ADD22C,2.000000*%
%TD*%
%TA.AperFunction,ComponentPad*%
%ADD23RoundRect,0.250000X0.600000X0.750000X-0.600000X0.750000X-0.600000X-0.750000X0.600000X-0.750000X0*%
%TD*%
%TA.AperFunction,ComponentPad*%
%ADD24O,1.700000X2.000000*%
%TD*%
%TA.AperFunction,ComponentPad*%
%ADD25RoundRect,0.250000X0.750000X-0.600000X0.750000X0.600000X-0.750000X0.600000X-0.750000X-0.600000X0*%
%TD*%
%TA.AperFunction,ComponentPad*%
%ADD26O,2.000000X1.700000*%
%TD*%
%TA.AperFunction,SMDPad,CuDef*%
%ADD27R,0.900000X0.600000*%
%TD*%
%TA.AperFunction,SMDPad,CuDef*%
%ADD28RoundRect,0.237500X-0.300000X-0.237500X0.300000X-0.237500X0.300000X0.237500X-0.300000X0.237500X0*%
%TD*%
%TA.AperFunction,SMDPad,CuDef*%
%ADD29RoundRect,0.237500X0.237500X-0.300000X0.237500X0.300000X-0.237500X0.300000X-0.237500X-0.300000X0*%
%TD*%
%TA.AperFunction,ViaPad*%
%ADD30C,0.450000*%
%TD*%
%TA.AperFunction,Conductor*%
%ADD31C,0.400000*%
%TD*%
%TA.AperFunction,Conductor*%
%ADD32C,0.200000*%
%TD*%
G04 APERTURE END LIST*
D10*
%TO.P,J14,1,Pin_1*%
%TO.N,GND*%
X140600000Y-79400000D03*
D11*
%TO.P,J14,2,Pin_2*%
X143140000Y-79400000D03*
%TO.P,J14,3,Pin_3*%
X145680000Y-79400000D03*
%TO.P,J14,4,Pin_4*%
X148220000Y-79400000D03*
%TD*%
D12*
%TO.P,H2,1,1*%
%TO.N,GND*%
X147000000Y-85600000D03*
%TD*%
D13*
%TO.P,J2,1,Pin_1*%
%TO.N,+5V*%
X121500000Y-41600000D03*
D14*
%TO.P,J2,2,Pin_2*%
%TO.N,Triger*%
X121500000Y-43600000D03*
%TO.P,J2,3,Pin_3*%
%TO.N,Echo*%
X121500000Y-45600000D03*
%TO.P,J2,4,Pin_4*%
%TO.N,GND*%
X121500000Y-47600000D03*
%TD*%
D15*
%TO.P,J13,1,Pin_1*%
%TO.N,+3.3V*%
X138100000Y-67250000D03*
D16*
%TO.P,J13,2,Pin_2*%
X138100000Y-68520000D03*
%TD*%
D17*
%TO.P,J4,1,IN*%
%TO.N,+7.5V*%
X114820000Y-69100000D03*
D18*
%TO.P,J4,2,GND*%
%TO.N,GND*%
X117360000Y-69100000D03*
%TO.P,J4,3,OUT*%
%TO.N,+5V*%
X119900000Y-69100000D03*
%TD*%
D12*
%TO.P,H1,1,1*%
%TO.N,GND*%
X114400000Y-41600000D03*
%TD*%
D19*
%TO.P,J5,1,Pin_1*%
%TO.N,GND*%
X114200000Y-62300000D03*
D20*
%TO.P,J5,2,Pin_2*%
%TO.N,+5V*%
X116700000Y-62300000D03*
%TO.P,J5,3,Pin_3*%
%TO.N,PWM_Servo2*%
X119200000Y-62300000D03*
%TD*%
D19*
%TO.P,J6,1,Pin_1*%
%TO.N,GND*%
X114300000Y-54000000D03*
D20*
%TO.P,J6,2,Pin_2*%
%TO.N,+5V*%
X116800000Y-54000000D03*
%TO.P,J6,3,Pin_3*%
%TO.N,PWM_Servo1*%
X119300000Y-54000000D03*
%TD*%
D15*
%TO.P,J12,1,Pin_1*%
%TO.N,+5V*%
X115000000Y-48600000D03*
D16*
%TO.P,J12,2,Pin_2*%
X113730000Y-48600000D03*
%TD*%
D10*
%TO.P,J11,1,Pin_1*%
%TO.N,GPIO1*%
X148240000Y-75700000D03*
D11*
%TO.P,J11,2,Pin_2*%
%TO.N,GPIO2*%
X145700000Y-75700000D03*
%TO.P,J11,3,Pin_3*%
%TO.N,GPIO3*%
X143160000Y-75700000D03*
%TO.P,J11,4,Pin_4*%
%TO.N,GPIO4*%
X140620000Y-75700000D03*
%TD*%
D12*
%TO.P,H3,1,1*%
%TO.N,GND*%
X147000000Y-41600000D03*
%TD*%
%TO.P,H4,1,1*%
%TO.N,GND*%
X114400000Y-85600000D03*
%TD*%
D21*
%TO.P,J8,1,Pin_1*%
%TO.N,+5V*%
X139900000Y-47200000D03*
D20*
%TO.P,J8,2,Pin_2*%
%TO.N,IR_1*%
X137400000Y-47200000D03*
%TO.P,J8,3,Pin_3*%
%TO.N,IR_2*%
X134900000Y-47200000D03*
%TO.P,J8,4,Pin_4*%
%TO.N,IR_3*%
X132400000Y-47200000D03*
%TO.P,J8,5,Pin_5*%
%TO.N,IR_4*%
X129900000Y-47200000D03*
%TO.P,J8,6,Pin_6*%
%TO.N,GND*%
X127400000Y-47200000D03*
%TD*%
D22*
%TO.P,TP2,1,1*%
%TO.N,+3.3V*%
X126100000Y-71100000D03*
%TD*%
D23*
%TO.P,J9,1,Pin_1*%
%TO.N,AO2*%
X129900000Y-84700000D03*
D24*
%TO.P,J9,2,Pin_2*%
%TO.N,AO1*%
X127400000Y-84700000D03*
%TD*%
D25*
%TO.P,J1,1,Pin_1*%
%TO.N,GND*%
X119200000Y-80050000D03*
D26*
%TO.P,J1,2,Pin_2*%
%TO.N,+7.5V*%
X119200000Y-77550000D03*
%TD*%
D22*
%TO.P,TP1,1,1*%
%TO.N,+5V*%
X120100000Y-72800000D03*
%TD*%
D23*
%TO.P,J10,1,Pin_1*%
%TO.N,BO1*%
X139750000Y-84700000D03*
D24*
%TO.P,J10,2,Pin_2*%
%TO.N,BO2*%
X137250000Y-84700000D03*
%TD*%
D27*
%TO.P,J3,1,VIN*%
%TO.N,+5V*%
X124662500Y-67250000D03*
%TO.P,J3,2,GND*%
%TO.N,GND*%
X124662500Y-66300000D03*
%TO.P,J3,3,STBY*%
%TO.N,+5V*%
X124662500Y-65350000D03*
%TO.P,J3,4,N.C.*%
%TO.N,unconnected-(J3-N.C.-Pad4)*%
X127462500Y-65350000D03*
%TO.P,J3,5,VOUT*%
%TO.N,+3.3V*%
X127462500Y-67250000D03*
%TD*%
D28*
%TO.P,C2,1*%
%TO.N,+3.3V*%
X126700000Y-64100000D03*
%TO.P,C2,2*%
%TO.N,GND*%
X128425000Y-64100000D03*
%TD*%
D29*
%TO.P,C1,1*%
%TO.N,+5V*%
X124700000Y-63725000D03*
%TO.P,C1,2*%
%TO.N,GND*%
X124700000Y-62000000D03*
%TD*%
D30*
%TO.N,GND*%
X150500000Y-71240000D03*
X150500000Y-61080000D03*
X125300000Y-69300000D03*
X123550000Y-57100000D03*
X132170000Y-39400000D03*
X134710000Y-41940000D03*
X124550000Y-39400000D03*
X129400000Y-71100000D03*
X135870000Y-89150000D03*
X128700000Y-60950000D03*
X118090000Y-89150000D03*
X133340000Y-87280000D03*
X110950000Y-53110000D03*
X120630000Y-89150000D03*
X130800000Y-87280000D03*
X138500000Y-70600000D03*
X110950000Y-55650000D03*
X122020000Y-38000000D03*
X134720000Y-38000000D03*
X130500000Y-65800000D03*
X123550000Y-59000000D03*
X129630000Y-44480000D03*
X117680000Y-74040000D03*
X149020000Y-64750000D03*
X129000000Y-77050000D03*
X137050000Y-74700000D03*
X122300000Y-74460000D03*
X112650000Y-64350000D03*
X112600000Y-74040000D03*
X130790000Y-89150000D03*
X130530000Y-51640000D03*
X135880000Y-87280000D03*
X123500000Y-47400000D03*
X115140000Y-81330000D03*
X136300000Y-82800000D03*
X125450000Y-49100000D03*
X110950000Y-75970000D03*
X122300000Y-64500000D03*
X128750000Y-74050000D03*
X144880000Y-38000000D03*
X146460000Y-82140000D03*
X150500000Y-68700000D03*
X142350000Y-41950000D03*
X139790000Y-41940000D03*
X123180000Y-87280000D03*
X137250000Y-44480000D03*
X136000000Y-49450000D03*
X134100000Y-59400000D03*
X118430000Y-48040000D03*
X138410000Y-89150000D03*
X124840000Y-71920000D03*
X122300000Y-71920000D03*
X112650000Y-66890000D03*
X131540000Y-77050000D03*
X137250000Y-39400000D03*
X125720000Y-84740000D03*
X150500000Y-73780000D03*
X115040000Y-56300000D03*
X118430000Y-50580000D03*
X150500000Y-81400000D03*
X149000000Y-82140000D03*
X150500000Y-43300000D03*
X110950000Y-83590000D03*
X144500000Y-67840000D03*
X123500000Y-52480000D03*
X150500000Y-76320000D03*
X147430000Y-51980000D03*
X130450000Y-75100000D03*
X112600000Y-78790000D03*
X136100000Y-63600000D03*
X143920000Y-82140000D03*
X117730000Y-66890000D03*
X150500000Y-78860000D03*
X134650000Y-68450000D03*
X139800000Y-38000000D03*
X126980000Y-76550000D03*
X118100000Y-87280000D03*
X110950000Y-78510000D03*
X129100000Y-82800000D03*
X118430000Y-45500000D03*
X150500000Y-50920000D03*
X118100000Y-84740000D03*
X110950000Y-63270000D03*
X110950000Y-45490000D03*
X110950000Y-60730000D03*
X142350000Y-49440000D03*
X116940000Y-38000000D03*
X127100000Y-38000000D03*
X134080000Y-77050000D03*
X117580000Y-56300000D03*
X141380000Y-84680000D03*
X142350000Y-44450000D03*
X110950000Y-58190000D03*
X122300000Y-60200000D03*
X118100000Y-82200000D03*
X144890000Y-51980000D03*
X134050000Y-64200000D03*
X129630000Y-41940000D03*
X123170000Y-89150000D03*
X139000000Y-58650000D03*
X120640000Y-82200000D03*
X110950000Y-70890000D03*
X150500000Y-83940000D03*
X115040000Y-58840000D03*
X122300000Y-66840000D03*
X125720000Y-82200000D03*
X127090000Y-41940000D03*
X141350000Y-89150000D03*
X128900000Y-65500000D03*
X128900000Y-66500000D03*
X125720000Y-87280000D03*
X150500000Y-56000000D03*
X141500000Y-58550000D03*
X110950000Y-81050000D03*
X123180000Y-84740000D03*
X115890000Y-45500000D03*
X117580000Y-58840000D03*
X130530000Y-49100000D03*
X127090000Y-44480000D03*
X135150000Y-84700000D03*
X118400000Y-39400000D03*
X120120000Y-56300000D03*
X146030000Y-89150000D03*
X121750000Y-73950000D03*
X133700000Y-83250000D03*
X128700000Y-56800000D03*
X112500000Y-58840000D03*
X144890000Y-49440000D03*
X115190000Y-66890000D03*
X113350000Y-45500000D03*
X120640000Y-84740000D03*
X125710000Y-89150000D03*
X142600000Y-53800000D03*
X144890000Y-46900000D03*
X124440000Y-76550000D03*
X132100000Y-61500000D03*
X126980000Y-79090000D03*
X137200000Y-57400000D03*
X150500000Y-45840000D03*
X124250000Y-55250000D03*
X129650000Y-74550000D03*
X125450000Y-51640000D03*
X138540000Y-49450000D03*
X135100000Y-81700000D03*
X121850000Y-55450000D03*
X132600000Y-57400000D03*
X124550000Y-41940000D03*
X137250000Y-64700000D03*
X137750000Y-58650000D03*
X139790000Y-44480000D03*
X118400000Y-41940000D03*
X144500000Y-72920000D03*
X129640000Y-38000000D03*
X122300000Y-58050000D03*
X147430000Y-49440000D03*
X142350000Y-39400000D03*
X134710000Y-39400000D03*
X150500000Y-48380000D03*
X130100000Y-59700000D03*
X127090000Y-39400000D03*
X134650000Y-69500000D03*
X124440000Y-79090000D03*
X122300000Y-69800000D03*
X145900000Y-56700000D03*
X123500000Y-73950000D03*
X137000000Y-69400000D03*
X115550000Y-89150000D03*
X144500000Y-70380000D03*
X120600000Y-61850000D03*
X134000000Y-70200000D03*
X123500000Y-49940000D03*
X142340000Y-38000000D03*
X150500000Y-63620000D03*
X150500000Y-53460000D03*
X115140000Y-78790000D03*
X137000000Y-53900000D03*
X124560000Y-38000000D03*
X131100000Y-61500000D03*
X115140000Y-76250000D03*
X127990000Y-49100000D03*
X133330000Y-89150000D03*
X134100000Y-55800000D03*
X119480000Y-38000000D03*
X110950000Y-65810000D03*
X128260000Y-87280000D03*
X110950000Y-68350000D03*
X132180000Y-38000000D03*
X120000000Y-75900000D03*
X134900000Y-53900000D03*
X110950000Y-50570000D03*
X112600000Y-71500000D03*
X141380000Y-87220000D03*
X125350000Y-60650000D03*
X134000000Y-71000000D03*
X120800000Y-74900000D03*
X147430000Y-46900000D03*
X137750000Y-82800000D03*
X125750000Y-57050000D03*
X130500000Y-66650000D03*
X115140000Y-71500000D03*
X138500000Y-72600000D03*
X124550000Y-44480000D03*
X120640000Y-87280000D03*
X124650000Y-59000000D03*
X128700000Y-58300000D03*
X130200000Y-81900000D03*
X134600000Y-50800000D03*
X115190000Y-64350000D03*
X112600000Y-81330000D03*
X123180000Y-82200000D03*
X150500000Y-58540000D03*
X128700000Y-59700000D03*
X121900000Y-79090000D03*
X128250000Y-89150000D03*
X132350000Y-81900000D03*
X141380000Y-82140000D03*
X117730000Y-64350000D03*
X142350000Y-46900000D03*
X130100000Y-61500000D03*
X127380000Y-71920000D03*
X126650000Y-62100000D03*
X133450000Y-67250000D03*
X115140000Y-74040000D03*
X144000000Y-64000000D03*
X134100000Y-61100000D03*
X143490000Y-89150000D03*
X132600000Y-55800000D03*
X141400000Y-64750000D03*
X142350000Y-51980000D03*
X121900000Y-76550000D03*
X132170000Y-44480000D03*
X137250000Y-41940000D03*
X132170000Y-41940000D03*
X129630000Y-39400000D03*
X117680000Y-71500000D03*
X120120000Y-58840000D03*
X138420000Y-87280000D03*
X110950000Y-48030000D03*
X110950000Y-42950000D03*
X150500000Y-66160000D03*
X112500000Y-56300000D03*
X134710000Y-44480000D03*
X137260000Y-38000000D03*
X125850000Y-59000000D03*
X136620000Y-77050000D03*
X112600000Y-76250000D03*
X139790000Y-39400000D03*
X140400000Y-58600000D03*
X144500000Y-65300000D03*
X110950000Y-73430000D03*
X125300000Y-68400000D03*
%TO.N,+5V*%
X120100000Y-64550000D03*
%TO.N,+3.3V*%
X127800000Y-69300000D03*
X135750000Y-62500000D03*
X129400000Y-69800000D03*
X127800000Y-68400000D03*
X126900000Y-69300000D03*
X130500000Y-67750000D03*
X128700000Y-69300000D03*
X126900000Y-68400000D03*
X142300000Y-55950000D03*
X128700000Y-68400000D03*
X127550000Y-54300000D03*
X130500001Y-68600001D03*
X149850000Y-62200000D03*
X125600000Y-62750000D03*
X128700000Y-67700000D03*
%TO.N,+7.5V*%
X137000000Y-72400000D03*
X137000000Y-73100000D03*
X137000000Y-70300000D03*
X137000000Y-71000000D03*
X137000000Y-71700000D03*
%TO.N,NRST*%
X142250000Y-59300000D03*
X142250000Y-64350000D03*
%TO.N,BIN2*%
X133553652Y-65526383D03*
X134471232Y-74971232D03*
%TO.N,PWMA*%
X130950000Y-64726818D03*
X130550000Y-74100000D03*
%TO.N,BIN1*%
X132571082Y-65392343D03*
X133400000Y-75000000D03*
%TO.N,STBY*%
X131235996Y-74511598D03*
X131655548Y-65325339D03*
%TO.N,PWMB*%
X134350000Y-65450000D03*
X135380853Y-74804075D03*
%TO.N,SWCLK*%
X139925735Y-60674265D03*
X131600000Y-60700000D03*
%TO.N,SWDIO*%
X130850934Y-60150000D03*
X141100000Y-61550000D03*
%TO.N,GPIO4*%
X130000000Y-57400000D03*
%TO.N,GPIO2*%
X130950000Y-52700000D03*
%TO.N,GPIO1*%
X131450000Y-52075499D03*
%TO.N,GPIO3*%
X133800000Y-56875000D03*
%TD*%
D31*
%TO.N,+5V*%
X119900000Y-72600000D02*
X120100000Y-72800000D01*
X122812500Y-69100000D02*
X124662500Y-67250000D01*
X120925000Y-63725000D02*
X120100000Y-64550000D01*
X124662500Y-63762500D02*
X124700000Y-63725000D01*
X124700000Y-63725000D02*
X120925000Y-63725000D01*
X119900000Y-69100000D02*
X119900000Y-72600000D01*
X119900000Y-69100000D02*
X122812500Y-69100000D01*
X124662500Y-65350000D02*
X124662500Y-63762500D01*
D32*
%TO.N,+3.3V*%
X126900000Y-69300000D02*
X126900000Y-70300000D01*
X126900000Y-70300000D02*
X126100000Y-71100000D01*
%TO.N,NRST*%
X142250000Y-64350000D02*
X142250000Y-59300000D01*
%TO.N,BIN2*%
X134471232Y-74971232D02*
X135600000Y-73842464D01*
X135600000Y-67572731D02*
X133553652Y-65526383D01*
X135600000Y-73842464D02*
X135600000Y-67572731D01*
%TO.N,PWMA*%
X132400000Y-66918320D02*
X130950000Y-65468320D01*
X130950000Y-65468320D02*
X130950000Y-64726818D01*
X130550000Y-74100000D02*
X132400000Y-72250000D01*
X132400000Y-72250000D02*
X132400000Y-66918320D01*
%TO.N,BIN1*%
X135200000Y-73500000D02*
X135200000Y-68021261D01*
X135200000Y-68021261D02*
X132571082Y-65392343D01*
X133400000Y-75000000D02*
X133700000Y-75000000D01*
X133700000Y-75000000D02*
X135200000Y-73500000D01*
%TO.N,STBY*%
X131235996Y-74511598D02*
X132800000Y-72947594D01*
X132800000Y-66469791D02*
X131655548Y-65325339D01*
X132800000Y-72947594D02*
X132800000Y-66469791D01*
%TO.N,PWMB*%
X136000000Y-74008150D02*
X136000000Y-67100000D01*
X135380853Y-74627297D02*
X136000000Y-74008150D01*
X136000000Y-67100000D02*
X134350000Y-65450000D01*
X135380853Y-74804075D02*
X135380853Y-74627297D01*
%TO.N,SWCLK*%
X131900000Y-60400000D02*
X131600000Y-60700000D01*
X139651470Y-60400000D02*
X131900000Y-60400000D01*
X139925735Y-60674265D02*
X139651470Y-60400000D01*
%TO.N,SWDIO*%
X131000934Y-60000000D02*
X130850934Y-60150000D01*
X141100000Y-61550000D02*
X141100000Y-61000000D01*
X141100000Y-61000000D02*
X140100000Y-60000000D01*
X140100000Y-60000000D02*
X131000934Y-60000000D01*
%TO.N,GPIO4*%
X142850000Y-59157537D02*
X142850000Y-72150000D01*
X130000000Y-57400000D02*
X130600000Y-58000000D01*
X141692463Y-58000000D02*
X142850000Y-59157537D01*
X142850000Y-72150000D02*
X140620000Y-74380000D01*
X140620000Y-74380000D02*
X140620000Y-75700000D01*
X130600000Y-58000000D02*
X141692463Y-58000000D01*
%TO.N,GPIO2*%
X130950000Y-52700000D02*
X138307537Y-52700000D01*
X138307537Y-52700000D02*
X145700000Y-60092463D01*
X145700000Y-60092463D02*
X145700000Y-75700000D01*
%TO.N,GPIO1*%
X146100000Y-58807537D02*
X146100000Y-73560000D01*
X146100000Y-73560000D02*
X148240000Y-75700000D01*
X131450000Y-52075499D02*
X131674501Y-52300000D01*
X139592463Y-52300000D02*
X146100000Y-58807537D01*
X131674501Y-52300000D02*
X139592463Y-52300000D01*
%TO.N,GPIO3*%
X143300000Y-59041851D02*
X143300000Y-75560000D01*
X138142463Y-57600000D02*
X141858149Y-57600000D01*
X137417463Y-56875000D02*
X138142463Y-57600000D01*
X141858149Y-57600000D02*
X143300000Y-59041851D01*
X133800000Y-56875000D02*
X137417463Y-56875000D01*
X143300000Y-75560000D02*
X143160000Y-75700000D01*
%TD*%
%TA.AperFunction,Conductor*%
%TO.N,GND*%
G36*
X142674075Y-79207007D02*
G01*
X142640000Y-79334174D01*
X142640000Y-79465826D01*
X142674075Y-79592993D01*
X142706988Y-79650000D01*
X141033012Y-79650000D01*
X141065925Y-79592993D01*
X141100000Y-79465826D01*
X141100000Y-79334174D01*
X141065925Y-79207007D01*
X141033012Y-79150000D01*
X142706988Y-79150000D01*
X142674075Y-79207007D01*
G37*
%TD.AperFunction*%
%TA.AperFunction,Conductor*%
G36*
X145214075Y-79207007D02*
G01*
X145180000Y-79334174D01*
X145180000Y-79465826D01*
X145214075Y-79592993D01*
X145246988Y-79650000D01*
X143573012Y-79650000D01*
X143605925Y-79592993D01*
X143640000Y-79465826D01*
X143640000Y-79334174D01*
X143605925Y-79207007D01*
X143573012Y-79150000D01*
X145246988Y-79150000D01*
X145214075Y-79207007D01*
G37*
%TD.AperFunction*%
%TA.AperFunction,Conductor*%
G36*
X147754075Y-79207007D02*
G01*
X147720000Y-79334174D01*
X147720000Y-79465826D01*
X147754075Y-79592993D01*
X147786988Y-79650000D01*
X146113012Y-79650000D01*
X146145925Y-79592993D01*
X146180000Y-79465826D01*
X146180000Y-79334174D01*
X146145925Y-79207007D01*
X146113012Y-79150000D01*
X147786988Y-79150000D01*
X147754075Y-79207007D01*
G37*
%TD.AperFunction*%
%TA.AperFunction,Conductor*%
G36*
X147002855Y-37650632D02*
G01*
X147358697Y-37667083D01*
X147370086Y-37668139D01*
X147720051Y-37716957D01*
X147731295Y-37719059D01*
X148075261Y-37799959D01*
X148086251Y-37803086D01*
X148421306Y-37915385D01*
X148431960Y-37919513D01*
X148755209Y-38062241D01*
X148765436Y-38067333D01*
X149006689Y-38201710D01*
X149074131Y-38239275D01*
X149083869Y-38245304D01*
X149331757Y-38415112D01*
X149375374Y-38444990D01*
X149384511Y-38451890D01*
X149656356Y-38677626D01*
X149664820Y-38685343D01*
X149914656Y-38935179D01*
X149922373Y-38943643D01*
X150148107Y-39215485D01*
X150155009Y-39224625D01*
X150354695Y-39516130D01*
X150360724Y-39525868D01*
X150532659Y-39834550D01*
X150537764Y-39844803D01*
X150680481Y-40168026D01*
X150684619Y-40178706D01*
X150796909Y-40513735D01*
X150800043Y-40524751D01*
X150880938Y-40868696D01*
X150883043Y-40879955D01*
X150931859Y-41229905D01*
X150932916Y-41241309D01*
X150949368Y-41597144D01*
X150949500Y-41602871D01*
X150949500Y-85597128D01*
X150949368Y-85602855D01*
X150932916Y-85958690D01*
X150931859Y-85970094D01*
X150883043Y-86320044D01*
X150880938Y-86331303D01*
X150800043Y-86675248D01*
X150796909Y-86686264D01*
X150684619Y-87021293D01*
X150680481Y-87031973D01*
X150537764Y-87355196D01*
X150532659Y-87365449D01*
X150360724Y-87674131D01*
X150354695Y-87683869D01*
X150155009Y-87975374D01*
X150148107Y-87984514D01*
X149922373Y-88256356D01*
X149914656Y-88264820D01*
X149664820Y-88514656D01*
X149656356Y-88522373D01*
X149384514Y-88748107D01*
X149375374Y-88755009D01*
X149083869Y-88954695D01*
X149074131Y-88960724D01*
X148765449Y-89132659D01*
X148755196Y-89137764D01*
X148431973Y-89280481D01*
X148421293Y-89284619D01*
X148086264Y-89396909D01*
X148075248Y-89400043D01*
X147731303Y-89480938D01*
X147720044Y-89483043D01*
X147370094Y-89531859D01*
X147358690Y-89532916D01*
X147002855Y-89549368D01*
X146997128Y-89549500D01*
X114402872Y-89549500D01*
X114397145Y-89549368D01*
X114041309Y-89532916D01*
X114029905Y-89531859D01*
X113679955Y-89483043D01*
X113668696Y-89480938D01*
X113324751Y-89400043D01*
X113313735Y-89396909D01*
X112978706Y-89284619D01*
X112968026Y-89280481D01*
X112644803Y-89137764D01*
X112634555Y-89132661D01*
X112534830Y-89077115D01*
X112325868Y-88960724D01*
X112316130Y-88954695D01*
X112024625Y-88755009D01*
X112015485Y-88748107D01*
X111743643Y-88522373D01*
X111735179Y-88514656D01*
X111485343Y-88264820D01*
X111477626Y-88256356D01*
X111251892Y-87984514D01*
X111244990Y-87975374D01*
X111045304Y-87683869D01*
X111039275Y-87674131D01*
X110997041Y-87598306D01*
X110867333Y-87365436D01*
X110862241Y-87355209D01*
X110719513Y-87031960D01*
X110715385Y-87021306D01*
X110603086Y-86686251D01*
X110599959Y-86675261D01*
X110519059Y-86331295D01*
X110516956Y-86320044D01*
X110516000Y-86313194D01*
X110468139Y-85970086D01*
X110467083Y-85958690D01*
X110462526Y-85860131D01*
X110450632Y-85602855D01*
X110450566Y-85600000D01*
X111194958Y-85600000D01*
X111215110Y-85958846D01*
X111215112Y-85958858D01*
X111275314Y-86313185D01*
X111275316Y-86313194D01*
X111374812Y-86658552D01*
X111512353Y-86990609D01*
X111512355Y-86990613D01*
X111686215Y-87305189D01*
X111686218Y-87305194D01*
X111894193Y-87598306D01*
X111966843Y-87679601D01*
X113284728Y-86361716D01*
X113370278Y-86479466D01*
X113520534Y-86629722D01*
X113638281Y-86715270D01*
X112320397Y-88033155D01*
X112401693Y-88105806D01*
X112694805Y-88313781D01*
X112694810Y-88313784D01*
X113009386Y-88487644D01*
X113009390Y-88487646D01*
X113341447Y-88625187D01*
X113686805Y-88724683D01*
X113686814Y-88724685D01*
X114041141Y-88784887D01*
X114041153Y-88784889D01*
X114400000Y-88805041D01*
X114758846Y-88784889D01*
X114758858Y-88784887D01*
X115113185Y-88724685D01*
X115113194Y-88724683D01*
X115458552Y-88625187D01*
X115790609Y-88487646D01*
X115790613Y-88487644D01*
X116105189Y-88313784D01*
X116105194Y-88313781D01*
X116398306Y-88105806D01*
X116479601Y-88033155D01*
X115161717Y-86715270D01*
X115279466Y-86629722D01*
X115429722Y-86479466D01*
X115515270Y-86361717D01*
X116833155Y-87679601D01*
X116905806Y-87598306D01*
X117113781Y-87305194D01*
X117113784Y-87305189D01*
X117287644Y-86990613D01*
X117287646Y-86990609D01*
X117425187Y-86658552D01*
X117524683Y-86313194D01*
X117524685Y-86313185D01*
X117584887Y-85958858D01*
X117584889Y-85958846D01*
X117605041Y-85600000D01*
X117584889Y-85241153D01*
X117584887Y-85241141D01*
X117524685Y-84886814D01*
X117524683Y-84886805D01*
X117425187Y-84541447D01*
X117385872Y-84446530D01*
X126349500Y-84446530D01*
X126349500Y-84953469D01*
X126389868Y-85156412D01*
X126389870Y-85156420D01*
X126469058Y-85347596D01*
X126584024Y-85519657D01*
X126730342Y-85665975D01*
X126730345Y-85665977D01*
X126902402Y-85780941D01*
X127093580Y-85860130D01*
X127282187Y-85897646D01*
X127296530Y-85900499D01*
X127296534Y-85900500D01*
X127296535Y-85900500D01*
X127503466Y-85900500D01*
X127503467Y-85900499D01*
X127706420Y-85860130D01*
X127897598Y-85780941D01*
X128069655Y-85665977D01*
X128215977Y-85519655D01*
X128330941Y-85347598D01*
X128410130Y-85156420D01*
X128450500Y-84953465D01*
X128450500Y-84446535D01*
X128410130Y-84243580D01*
X128330941Y-84052402D01*
X128226257Y-83895730D01*
X128849500Y-83895730D01*
X128849500Y-85504269D01*
X128852353Y-85534699D01*
X128852353Y-85534701D01*
X128897206Y-85662880D01*
X128897207Y-85662882D01*
X128977850Y-85772150D01*
X129087118Y-85852793D01*
X129108089Y-85860131D01*
X129215299Y-85897646D01*
X129245730Y-85900500D01*
X129245734Y-85900500D01*
X130554270Y-85900500D01*
X130584699Y-85897646D01*
X130584701Y-85897646D01*
X130648790Y-85875219D01*
X130712882Y-85852793D01*
X130822150Y-85772150D01*
X130902793Y-85662882D01*
X130940252Y-85555830D01*
X130947646Y-85534701D01*
X130947646Y-85534699D01*
X130950500Y-85504269D01*
X130950500Y-84446530D01*
X136199500Y-84446530D01*
X136199500Y-84953469D01*
X136239868Y-85156412D01*
X136239870Y-85156420D01*
X136319058Y-85347596D01*
X136434024Y-85519657D01*
X136580342Y-85665975D01*
X136580345Y-85665977D01*
X136752402Y-85780941D01*
X136943580Y-85860130D01*
X137132187Y-85897646D01*
X137146530Y-85900499D01*
X137146534Y-85900500D01*
X137146535Y-85900500D01*
X137353466Y-85900500D01*
X137353467Y-85900499D01*
X137556420Y-85860130D01*
X137747598Y-85780941D01*
X137919655Y-85665977D01*
X138065977Y-85519655D01*
X138180941Y-85347598D01*
X138260130Y-85156420D01*
X138300500Y-84953465D01*
X138300500Y-84446535D01*
X138260130Y-84243580D01*
X138180941Y-84052402D01*
X138076257Y-83895730D01*
X138699500Y-83895730D01*
X138699500Y-85504269D01*
X138702353Y-85534699D01*
X138702353Y-85534701D01*
X138747206Y-85662880D01*
X138747207Y-85662882D01*
X138827850Y-85772150D01*
X138937118Y-85852793D01*
X138958089Y-85860131D01*
X139065299Y-85897646D01*
X139095730Y-85900500D01*
X139095734Y-85900500D01*
X140404270Y-85900500D01*
X140434699Y-85897646D01*
X140434701Y-85897646D01*
X140498790Y-85875219D01*
X140562882Y-85852793D01*
X140672150Y-85772150D01*
X140752793Y-85662882D01*
X140774796Y-85600000D01*
X143794958Y-85600000D01*
X143815110Y-85958846D01*
X143815112Y-85958858D01*
X143875314Y-86313185D01*
X143875316Y-86313194D01*
X143974812Y-86658552D01*
X144112353Y-86990609D01*
X144112355Y-86990613D01*
X144286215Y-87305189D01*
X144286218Y-87305194D01*
X144494193Y-87598306D01*
X144566843Y-87679601D01*
X145884728Y-86361716D01*
X145970278Y-86479466D01*
X146120534Y-86629722D01*
X146238281Y-86715270D01*
X144920397Y-88033155D01*
X145001693Y-88105806D01*
X145294805Y-88313781D01*
X145294810Y-88313784D01*
X145609386Y-88487644D01*
X145609390Y-88487646D01*
X145941447Y-88625187D01*
X146286805Y-88724683D01*
X146286814Y-88724685D01*
X146641141Y-88784887D01*
X146641153Y-88784889D01*
X147000000Y-88805041D01*
X147358846Y-88784889D01*
X147358858Y-88784887D01*
X147713185Y-88724685D01*
X147713194Y-88724683D01*
X148058552Y-88625187D01*
X148390609Y-88487646D01*
X148390613Y-88487644D01*
X148705189Y-88313784D01*
X148705194Y-88313781D01*
X148998306Y-88105806D01*
X149079601Y-88033155D01*
X147761717Y-86715270D01*
X147879466Y-86629722D01*
X148029722Y-86479466D01*
X148115270Y-86361717D01*
X149433155Y-87679601D01*
X149505806Y-87598306D01*
X149713781Y-87305194D01*
X149713784Y-87305189D01*
X149887644Y-86990613D01*
X149887646Y-86990609D01*
X150025187Y-86658552D01*
X150124683Y-86313194D01*
X150124685Y-86313185D01*
X150184887Y-85958858D01*
X150184889Y-85958846D01*
X150205041Y-85600000D01*
X150184889Y-85241153D01*
X150184887Y-85241141D01*
X150124685Y-84886814D01*
X150124683Y-84886805D01*
X150025187Y-84541447D01*
X149887646Y-84209390D01*
X149887644Y-84209386D01*
X149713784Y-83894810D01*
X149713781Y-83894805D01*
X149505806Y-83601693D01*
X149433155Y-83520397D01*
X148115270Y-84838281D01*
X148029722Y-84720534D01*
X147879466Y-84570278D01*
X147761717Y-84484728D01*
X149079602Y-83166843D01*
X148998306Y-83094193D01*
X148705194Y-82886218D01*
X148705189Y-82886215D01*
X148390613Y-82712355D01*
X148390609Y-82712353D01*
X148058552Y-82574812D01*
X147713194Y-82475316D01*
X147713185Y-82475314D01*
X147358858Y-82415112D01*
X147358846Y-82415110D01*
X147000000Y-82394958D01*
X146641153Y-82415110D01*
X146641141Y-82415112D01*
X146286814Y-82475314D01*
X146286805Y-82475316D01*
X145941447Y-82574812D01*
X145609390Y-82712353D01*
X145609386Y-82712355D01*
X145294810Y-82886215D01*
X145294805Y-82886218D01*
X145001693Y-83094194D01*
X145001685Y-83094199D01*
X144920397Y-83166842D01*
X144920397Y-83166843D01*
X146238282Y-84484728D01*
X146120534Y-84570278D01*
X145970278Y-84720534D01*
X145884728Y-84838282D01*
X144566843Y-83520397D01*
X144566842Y-83520397D01*
X144494199Y-83601685D01*
X144494194Y-83601693D01*
X144286218Y-83894805D01*
X144286215Y-83894810D01*
X144112355Y-84209386D01*
X144112353Y-84209390D01*
X143974812Y-84541447D01*
X143875316Y-84886805D01*
X143875314Y-84886814D01*
X143815112Y-85241141D01*
X143815110Y-85241153D01*
X143794958Y-85600000D01*
X140774796Y-85600000D01*
X140790252Y-85555830D01*
X140797646Y-85534701D01*
X140797646Y-85534699D01*
X140800500Y-85504269D01*
X140800500Y-83895730D01*
X140797646Y-83865300D01*
X140797646Y-83865298D01*
X140752793Y-83737119D01*
X140752792Y-83737117D01*
X140672150Y-83627850D01*
X140562882Y-83547207D01*
X140562880Y-83547206D01*
X140434700Y-83502353D01*
X140404270Y-83499500D01*
X140404266Y-83499500D01*
X139095734Y-83499500D01*
X139095730Y-83499500D01*
X139065300Y-83502353D01*
X139065298Y-83502353D01*
X138937119Y-83547206D01*
X138937117Y-83547207D01*
X138827850Y-83627850D01*
X138747207Y-83737117D01*
X138747206Y-83737119D01*
X138702353Y-83865298D01*
X138702353Y-83865300D01*
X138699500Y-83895730D01*
X138076257Y-83895730D01*
X138065977Y-83880345D01*
X138065975Y-83880342D01*
X137919657Y-83734024D01*
X137833626Y-83676541D01*
X137747598Y-83619059D01*
X137556420Y-83539870D01*
X137556412Y-83539868D01*
X137353469Y-83499500D01*
X137353465Y-83499500D01*
X137146535Y-83499500D01*
X137146530Y-83499500D01*
X136943587Y-83539868D01*
X136943579Y-83539870D01*
X136752403Y-83619058D01*
X136580342Y-83734024D01*
X136434024Y-83880342D01*
X136319058Y-84052403D01*
X136239870Y-84243579D01*
X136239868Y-84243587D01*
X136199500Y-84446530D01*
X130950500Y-84446530D01*
X130950500Y-83895730D01*
X130947646Y-83865300D01*
X130947646Y-83865298D01*
X130902793Y-83737119D01*
X130902792Y-83737117D01*
X130822150Y-83627850D01*
X130712882Y-83547207D01*
X130712880Y-83547206D01*
X130584700Y-83502353D01*
X130554270Y-83499500D01*
X130554266Y-83499500D01*
X129245734Y-83499500D01*
X129245730Y-83499500D01*
X129215300Y-83502353D01*
X129215298Y-83502353D01*
X129087119Y-83547206D01*
X129087117Y-83547207D01*
X128977850Y-83627850D01*
X128897207Y-83737117D01*
X128897206Y-83737119D01*
X128852353Y-83865298D01*
X128852353Y-83865300D01*
X128849500Y-83895730D01*
X128226257Y-83895730D01*
X128215977Y-83880345D01*
X128215975Y-83880342D01*
X128069657Y-83734024D01*
X127983626Y-83676541D01*
X127897598Y-83619059D01*
X127706420Y-83539870D01*
X127706412Y-83539868D01*
X127503469Y-83499500D01*
X127503465Y-83499500D01*
X127296535Y-83499500D01*
X127296530Y-83499500D01*
X127093587Y-83539868D01*
X127093579Y-83539870D01*
X126902403Y-83619058D01*
X126730342Y-83734024D01*
X126584024Y-83880342D01*
X126469058Y-84052403D01*
X126389870Y-84243579D01*
X126389868Y-84243587D01*
X126349500Y-84446530D01*
X117385872Y-84446530D01*
X117287646Y-84209390D01*
X117287644Y-84209386D01*
X117113784Y-83894810D01*
X117113781Y-83894805D01*
X116905806Y-83601693D01*
X116833155Y-83520397D01*
X115515270Y-84838281D01*
X115429722Y-84720534D01*
X115279466Y-84570278D01*
X115161717Y-84484728D01*
X116479602Y-83166843D01*
X116398306Y-83094193D01*
X116105194Y-82886218D01*
X116105189Y-82886215D01*
X115790613Y-82712355D01*
X115790609Y-82712353D01*
X115458552Y-82574812D01*
X115113194Y-82475316D01*
X115113185Y-82475314D01*
X114758858Y-82415112D01*
X114758846Y-82415110D01*
X114400000Y-82394958D01*
X114041153Y-82415110D01*
X114041141Y-82415112D01*
X113686814Y-82475314D01*
X113686805Y-82475316D01*
X113341447Y-82574812D01*
X113009390Y-82712353D01*
X113009386Y-82712355D01*
X112694810Y-82886215D01*
X112694805Y-82886218D01*
X112401693Y-83094194D01*
X112401685Y-83094199D01*
X112320397Y-83166842D01*
X112320397Y-83166843D01*
X113638282Y-84484728D01*
X113520534Y-84570278D01*
X113370278Y-84720534D01*
X113284728Y-84838282D01*
X111966843Y-83520397D01*
X111966842Y-83520397D01*
X111894199Y-83601685D01*
X111894194Y-83601693D01*
X111686218Y-83894805D01*
X111686215Y-83894810D01*
X111512355Y-84209386D01*
X111512353Y-84209390D01*
X111374812Y-84541447D01*
X111275316Y-84886805D01*
X111275314Y-84886814D01*
X111215112Y-85241141D01*
X111215110Y-85241153D01*
X111194958Y-85600000D01*
X110450566Y-85600000D01*
X110450500Y-85597128D01*
X110450500Y-79400013D01*
X117700000Y-79400013D01*
X117700000Y-79800000D01*
X118766988Y-79800000D01*
X118734075Y-79857007D01*
X118700000Y-79984174D01*
X118700000Y-80115826D01*
X118734075Y-80242993D01*
X118766988Y-80300000D01*
X117700001Y-80300000D01*
X117700001Y-80699986D01*
X117710494Y-80802697D01*
X117765641Y-80969119D01*
X117765643Y-80969124D01*
X117857684Y-81118345D01*
X117981654Y-81242315D01*
X118130875Y-81334356D01*
X118130880Y-81334358D01*
X118297302Y-81389505D01*
X118297309Y-81389506D01*
X118400019Y-81399999D01*
X118949999Y-81399999D01*
X118950000Y-81399998D01*
X118950000Y-80483012D01*
X119007007Y-80515925D01*
X119134174Y-80550000D01*
X119265826Y-80550000D01*
X119392993Y-80515925D01*
X119450000Y-80483012D01*
X119450000Y-81399999D01*
X119999972Y-81399999D01*
X119999986Y-81399998D01*
X120102697Y-81389505D01*
X120269119Y-81334358D01*
X120269124Y-81334356D01*
X120418345Y-81242315D01*
X120542315Y-81118345D01*
X120634356Y-80969124D01*
X120634358Y-80969119D01*
X120689505Y-80802697D01*
X120689506Y-80802690D01*
X120699999Y-80699986D01*
X120700000Y-80699973D01*
X120700000Y-80300000D01*
X119633012Y-80300000D01*
X119665925Y-80242993D01*
X119700000Y-80115826D01*
X119700000Y-79984174D01*
X119665925Y-79857007D01*
X119633012Y-79800000D01*
X120699999Y-79800000D01*
X120699999Y-79400028D01*
X120699998Y-79400013D01*
X120689505Y-79297302D01*
X120634358Y-79130880D01*
X120634356Y-79130875D01*
X120542315Y-78981654D01*
X120418345Y-78857684D01*
X120269124Y-78765643D01*
X120269119Y-78765641D01*
X120102697Y-78710494D01*
X120102690Y-78710493D01*
X119999986Y-78700000D01*
X119928526Y-78700000D01*
X119861487Y-78680315D01*
X119815732Y-78627511D01*
X119805788Y-78558353D01*
X119831453Y-78502155D01*
X139250000Y-78502155D01*
X139250000Y-79150000D01*
X140166988Y-79150000D01*
X140134075Y-79207007D01*
X140100000Y-79334174D01*
X140100000Y-79465826D01*
X140134075Y-79592993D01*
X140166988Y-79650000D01*
X139250000Y-79650000D01*
X139250000Y-80297844D01*
X139256401Y-80357372D01*
X139256403Y-80357379D01*
X139306645Y-80492086D01*
X139306649Y-80492093D01*
X139392809Y-80607187D01*
X139392812Y-80607190D01*
X139507906Y-80693350D01*
X139507913Y-80693354D01*
X139642620Y-80743596D01*
X139642627Y-80743598D01*
X139702155Y-80749999D01*
X139702172Y-80750000D01*
X140350000Y-80750000D01*
X140350000Y-79833012D01*
X140407007Y-79865925D01*
X140534174Y-79900000D01*
X140665826Y-79900000D01*
X140792993Y-79865925D01*
X140850000Y-79833012D01*
X140850000Y-80750000D01*
X141497828Y-80750000D01*
X141497844Y-80749999D01*
X141557372Y-80743598D01*
X141557379Y-80743596D01*
X141692086Y-80693354D01*
X141692093Y-80693350D01*
X141807187Y-80607190D01*
X141807190Y-80607187D01*
X141893350Y-80492093D01*
X141893354Y-80492086D01*
X141942614Y-80360013D01*
X141984485Y-80304079D01*
X142049949Y-80279662D01*
X142118222Y-80294513D01*
X142146477Y-80315665D01*
X142268917Y-80438105D01*
X142462421Y-80573600D01*
X142676507Y-80673429D01*
X142676516Y-80673433D01*
X142890000Y-80730634D01*
X142890000Y-79833012D01*
X142947007Y-79865925D01*
X143074174Y-79900000D01*
X143205826Y-79900000D01*
X143332993Y-79865925D01*
X143390000Y-79833012D01*
X143390000Y-80730633D01*
X143603483Y-80673433D01*
X143603492Y-80673429D01*
X143817578Y-80573600D01*
X144011082Y-80438105D01*
X144178105Y-80271082D01*
X144308425Y-80084968D01*
X144363002Y-80041344D01*
X144432501Y-80034151D01*
X144494855Y-80065673D01*
X144511575Y-80084968D01*
X144641894Y-80271082D01*
X144808917Y-80438105D01*
X145002421Y-80573600D01*
X145216507Y-80673429D01*
X145216516Y-80673433D01*
X145430000Y-80730634D01*
X145430000Y-79833012D01*
X145487007Y-79865925D01*
X145614174Y-79900000D01*
X145745826Y-79900000D01*
X145872993Y-79865925D01*
X145930000Y-79833012D01*
X145930000Y-80730633D01*
X146143483Y-80673433D01*
X146143492Y-80673429D01*
X146357578Y-80573600D01*
X146551082Y-80438105D01*
X146718105Y-80271082D01*
X146848425Y-80084968D01*
X146903002Y-80041344D01*
X146972501Y-80034151D01*
X147034855Y-80065673D01*
X147051575Y-80084968D01*
X147181894Y-80271082D01*
X147348917Y-80438105D01*
X147542421Y-80573600D01*
X147756507Y-80673429D01*
X147756516Y-80673433D01*
X147970000Y-80730634D01*
X147970000Y-79833012D01*
X148027007Y-79865925D01*
X148154174Y-79900000D01*
X148285826Y-79900000D01*
X148412993Y-79865925D01*
X148470000Y-79833012D01*
X148470000Y-80730633D01*
X148683483Y-80673433D01*
X148683492Y-80673429D01*
X148897578Y-80573600D01*
X149091082Y-80438105D01*
X149258105Y-80271082D01*
X149393600Y-80077578D01*
X149493429Y-79863492D01*
X149493432Y-79863486D01*
X149550636Y-79650000D01*
X148653012Y-79650000D01*
X148685925Y-79592993D01*
X148720000Y-79465826D01*
X148720000Y-79334174D01*
X148685925Y-79207007D01*
X148653012Y-79150000D01*
X149550636Y-79150000D01*
X149550635Y-79149999D01*
X149493432Y-78936513D01*
X149493429Y-78936507D01*
X149393600Y-78722422D01*
X149393599Y-78722420D01*
X149258113Y-78528926D01*
X149258108Y-78528920D01*
X149091082Y-78361894D01*
X148897578Y-78226399D01*
X148683492Y-78126570D01*
X148683486Y-78126567D01*
X148470000Y-78069364D01*
X148470000Y-78966988D01*
X148412993Y-78934075D01*
X148285826Y-78900000D01*
X148154174Y-78900000D01*
X148027007Y-78934075D01*
X147970000Y-78966988D01*
X147970000Y-78069364D01*
X147969999Y-78069364D01*
X147756513Y-78126567D01*
X147756507Y-78126570D01*
X147542422Y-78226399D01*
X147542420Y-78226400D01*
X147348926Y-78361886D01*
X147348920Y-78361891D01*
X147181891Y-78528920D01*
X147181890Y-78528922D01*
X147051575Y-78715031D01*
X146996998Y-78758655D01*
X146927499Y-78765848D01*
X146865145Y-78734326D01*
X146848425Y-78715031D01*
X146718109Y-78528922D01*
X146718108Y-78528920D01*
X146551082Y-78361894D01*
X146357578Y-78226399D01*
X146143492Y-78126570D01*
X146143486Y-78126567D01*
X145930000Y-78069364D01*
X145930000Y-78966988D01*
X145872993Y-78934075D01*
X145745826Y-78900000D01*
X145614174Y-78900000D01*
X145487007Y-78934075D01*
X145430000Y-78966988D01*
X145430000Y-78069364D01*
X145429999Y-78069364D01*
X145216513Y-78126567D01*
X145216507Y-78126570D01*
X145002422Y-78226399D01*
X145002420Y-78226400D01*
X144808926Y-78361886D01*
X144808920Y-78361891D01*
X144641891Y-78528920D01*
X144641890Y-78528922D01*
X144511575Y-78715031D01*
X144456998Y-78758655D01*
X144387499Y-78765848D01*
X144325145Y-78734326D01*
X144308425Y-78715031D01*
X144178109Y-78528922D01*
X144178108Y-78528920D01*
X144011082Y-78361894D01*
X143817578Y-78226399D01*
X143603492Y-78126570D01*
X143603486Y-78126567D01*
X143390000Y-78069364D01*
X143390000Y-78966988D01*
X143332993Y-78934075D01*
X143205826Y-78900000D01*
X143074174Y-78900000D01*
X142947007Y-78934075D01*
X142890000Y-78966988D01*
X142890000Y-78069364D01*
X142889999Y-78069364D01*
X142676513Y-78126567D01*
X142676507Y-78126570D01*
X142462422Y-78226399D01*
X142462420Y-78226400D01*
X142268926Y-78361886D01*
X142146477Y-78484335D01*
X142085154Y-78517819D01*
X142015462Y-78512835D01*
X141959529Y-78470963D01*
X141942614Y-78439986D01*
X141893354Y-78307913D01*
X141893350Y-78307906D01*
X141807190Y-78192812D01*
X141807187Y-78192809D01*
X141692093Y-78106649D01*
X141692086Y-78106645D01*
X141557379Y-78056403D01*
X141557372Y-78056401D01*
X141497844Y-78050000D01*
X140850000Y-78050000D01*
X140850000Y-78966988D01*
X140792993Y-78934075D01*
X140665826Y-78900000D01*
X140534174Y-78900000D01*
X140407007Y-78934075D01*
X140350000Y-78966988D01*
X140350000Y-78050000D01*
X139702155Y-78050000D01*
X139642627Y-78056401D01*
X139642620Y-78056403D01*
X139507913Y-78106645D01*
X139507906Y-78106649D01*
X139392812Y-78192809D01*
X139392809Y-78192812D01*
X139306649Y-78307906D01*
X139306645Y-78307913D01*
X139256403Y-78442620D01*
X139256401Y-78442627D01*
X139250000Y-78502155D01*
X119831453Y-78502155D01*
X119834813Y-78494797D01*
X119859633Y-78472899D01*
X120019655Y-78365977D01*
X120165977Y-78219655D01*
X120280941Y-78047598D01*
X120360130Y-77856420D01*
X120400500Y-77653465D01*
X120400500Y-77446535D01*
X120360130Y-77243580D01*
X120280941Y-77052402D01*
X120165977Y-76880345D01*
X120165975Y-76880342D01*
X120019657Y-76734024D01*
X119861322Y-76628229D01*
X119847598Y-76619059D01*
X119728551Y-76569748D01*
X119656420Y-76539870D01*
X119656412Y-76539868D01*
X119453469Y-76499500D01*
X119453465Y-76499500D01*
X118946535Y-76499500D01*
X118946530Y-76499500D01*
X118743587Y-76539868D01*
X118743579Y-76539870D01*
X118552403Y-76619058D01*
X118380342Y-76734024D01*
X118234024Y-76880342D01*
X118119058Y-77052403D01*
X118039870Y-77243579D01*
X118039868Y-77243587D01*
X117999500Y-77446530D01*
X117999500Y-77653469D01*
X118039868Y-77856412D01*
X118039870Y-77856420D01*
X118119059Y-78047598D01*
X118158513Y-78106645D01*
X118234024Y-78219657D01*
X118380342Y-78365975D01*
X118380345Y-78365977D01*
X118540367Y-78472899D01*
X118585170Y-78526509D01*
X118593878Y-78595834D01*
X118563724Y-78658862D01*
X118504282Y-78695581D01*
X118471477Y-78700000D01*
X118400029Y-78700000D01*
X118400012Y-78700001D01*
X118297302Y-78710494D01*
X118130880Y-78765641D01*
X118130875Y-78765643D01*
X117981654Y-78857684D01*
X117857684Y-78981654D01*
X117765643Y-79130875D01*
X117765641Y-79130880D01*
X117710494Y-79297302D01*
X117710493Y-79297309D01*
X117700000Y-79400013D01*
X110450500Y-79400013D01*
X110450500Y-67830247D01*
X113769500Y-67830247D01*
X113769500Y-70369752D01*
X113781131Y-70428229D01*
X113781132Y-70428230D01*
X113825447Y-70494552D01*
X113891769Y-70538867D01*
X113891770Y-70538868D01*
X113950247Y-70550499D01*
X113950250Y-70550500D01*
X113950252Y-70550500D01*
X115689750Y-70550500D01*
X115689751Y-70550499D01*
X115704568Y-70547552D01*
X115748229Y-70538868D01*
X115748229Y-70538867D01*
X115748231Y-70538867D01*
X115814552Y-70494552D01*
X115858867Y-70428231D01*
X115858867Y-70428229D01*
X115858868Y-70428229D01*
X115870499Y-70369752D01*
X115870500Y-70369750D01*
X115870500Y-70066048D01*
X115890185Y-69999009D01*
X115942989Y-69953254D01*
X116012147Y-69943310D01*
X116075703Y-69972335D01*
X116105938Y-70014264D01*
X116106694Y-70013879D01*
X116205379Y-70207557D01*
X116330272Y-70379459D01*
X116330276Y-70379464D01*
X116480535Y-70529723D01*
X116480540Y-70529727D01*
X116652442Y-70654620D01*
X116841782Y-70751095D01*
X117043871Y-70816757D01*
X117110000Y-70827231D01*
X117110000Y-69648482D01*
X117128409Y-69659111D01*
X117281009Y-69700000D01*
X117438991Y-69700000D01*
X117591591Y-69659111D01*
X117610000Y-69648482D01*
X117610000Y-70827230D01*
X117676126Y-70816757D01*
X117676129Y-70816757D01*
X117878217Y-70751095D01*
X118067557Y-70654620D01*
X118239459Y-70529727D01*
X118239464Y-70529723D01*
X118389723Y-70379464D01*
X118389727Y-70379459D01*
X118514620Y-70207557D01*
X118611095Y-70018217D01*
X118668343Y-69842026D01*
X118707780Y-69784351D01*
X118772139Y-69757152D01*
X118840985Y-69769066D01*
X118892461Y-69816310D01*
X118900835Y-69832891D01*
X118969058Y-69997596D01*
X119084024Y-70169657D01*
X119230342Y-70315975D01*
X119230345Y-70315977D01*
X119402402Y-70430941D01*
X119422952Y-70439453D01*
X119477356Y-70483293D01*
X119499421Y-70549587D01*
X119499500Y-70554014D01*
X119499500Y-71690754D01*
X119479815Y-71757793D01*
X119440778Y-71796181D01*
X119373436Y-71837877D01*
X119209020Y-71987761D01*
X119074943Y-72165308D01*
X119074938Y-72165316D01*
X118975775Y-72364461D01*
X118975769Y-72364476D01*
X118914885Y-72578462D01*
X118914884Y-72578464D01*
X118894357Y-72799999D01*
X118894357Y-72800000D01*
X118914884Y-73021535D01*
X118914885Y-73021537D01*
X118975769Y-73235523D01*
X118975775Y-73235538D01*
X119074938Y-73434683D01*
X119074943Y-73434691D01*
X119209020Y-73612238D01*
X119373437Y-73762123D01*
X119373439Y-73762125D01*
X119562595Y-73879245D01*
X119562596Y-73879245D01*
X119562599Y-73879247D01*
X119770060Y-73959618D01*
X119988757Y-74000500D01*
X119988759Y-74000500D01*
X120211241Y-74000500D01*
X120211243Y-74000500D01*
X120429940Y-73959618D01*
X120637401Y-73879247D01*
X120826562Y-73762124D01*
X120990981Y-73612236D01*
X121125058Y-73434689D01*
X121224229Y-73235528D01*
X121285115Y-73021536D01*
X121305643Y-72800000D01*
X121300873Y-72748528D01*
X121285115Y-72578464D01*
X121285114Y-72578462D01*
X121272213Y-72533121D01*
X121224229Y-72364472D01*
X121172018Y-72259618D01*
X121125061Y-72165316D01*
X121125056Y-72165308D01*
X120990979Y-71987761D01*
X120826562Y-71837876D01*
X120826560Y-71837874D01*
X120637404Y-71720754D01*
X120637398Y-71720752D01*
X120429940Y-71640382D01*
X120429935Y-71640381D01*
X120429930Y-71640379D01*
X120401714Y-71635105D01*
X120339433Y-71603437D01*
X120304161Y-71543125D01*
X120300500Y-71513217D01*
X120300500Y-71099999D01*
X124894357Y-71099999D01*
X124894357Y-71100000D01*
X124914884Y-71321535D01*
X124914885Y-71321537D01*
X124975769Y-71535523D01*
X124975775Y-71535538D01*
X125074938Y-71734683D01*
X125074943Y-71734691D01*
X125209020Y-71912238D01*
X125373437Y-72062123D01*
X125373439Y-72062125D01*
X125562595Y-72179245D01*
X125562596Y-72179245D01*
X125562599Y-72179247D01*
X125770060Y-72259618D01*
X125988757Y-72300500D01*
X125988759Y-72300500D01*
X126211241Y-72300500D01*
X126211243Y-72300500D01*
X126429940Y-72259618D01*
X126637401Y-72179247D01*
X126826562Y-72062124D01*
X126990981Y-71912236D01*
X127125058Y-71734689D01*
X127224229Y-71535528D01*
X127285115Y-71321536D01*
X127305643Y-71100000D01*
X127285261Y-70880043D01*
X127298676Y-70811477D01*
X127347033Y-70761045D01*
X127407698Y-70744609D01*
X131974468Y-70706552D01*
X132041668Y-70725678D01*
X132087861Y-70778098D01*
X132099500Y-70830548D01*
X132099500Y-72074166D01*
X132079815Y-72141205D01*
X132063181Y-72161847D01*
X130585419Y-73639608D01*
X130524096Y-73673093D01*
X130517136Y-73674400D01*
X130416878Y-73690279D01*
X130296778Y-73751473D01*
X130296774Y-73751476D01*
X130201476Y-73846774D01*
X130201473Y-73846778D01*
X130140279Y-73966878D01*
X130119196Y-74099997D01*
X130119196Y-74100002D01*
X130140279Y-74233121D01*
X130140280Y-74233124D01*
X130140281Y-74233126D01*
X130194960Y-74340439D01*
X130201473Y-74353221D01*
X130201476Y-74353225D01*
X130296774Y-74448523D01*
X130296778Y-74448526D01*
X130296780Y-74448528D01*
X130416874Y-74509719D01*
X130416876Y-74509719D01*
X130416878Y-74509720D01*
X130549998Y-74530804D01*
X130550000Y-74530804D01*
X130550002Y-74530804D01*
X130679440Y-74510303D01*
X130748734Y-74519258D01*
X130802185Y-74564254D01*
X130821311Y-74613376D01*
X130826275Y-74644720D01*
X130826276Y-74644723D01*
X130826277Y-74644724D01*
X130882325Y-74754725D01*
X130887469Y-74764819D01*
X130887472Y-74764823D01*
X130982770Y-74860121D01*
X130982774Y-74860124D01*
X130982776Y-74860126D01*
X131102870Y-74921317D01*
X131102872Y-74921317D01*
X131102874Y-74921318D01*
X131235994Y-74942402D01*
X131235996Y-74942402D01*
X131235998Y-74942402D01*
X131369117Y-74921318D01*
X131369117Y-74921317D01*
X131369122Y-74921317D01*
X131489216Y-74860126D01*
X131584524Y-74764818D01*
X131645715Y-74644724D01*
X131661595Y-74544456D01*
X131691523Y-74481325D01*
X131696369Y-74476194D01*
X133040460Y-73132105D01*
X133080022Y-73063582D01*
X133100500Y-72987156D01*
X133100500Y-72908032D01*
X133100500Y-66646094D01*
X133120185Y-66579055D01*
X133172989Y-66533300D01*
X133242147Y-66523356D01*
X133305703Y-66552381D01*
X133312181Y-66558413D01*
X134863181Y-68109413D01*
X134896666Y-68170736D01*
X134899500Y-68197094D01*
X134899500Y-73324166D01*
X134879815Y-73391205D01*
X134863181Y-73411847D01*
X133697272Y-74577755D01*
X133635949Y-74611240D01*
X133566257Y-74606256D01*
X133553309Y-74600564D01*
X133533126Y-74590281D01*
X133533124Y-74590280D01*
X133533121Y-74590279D01*
X133400002Y-74569196D01*
X133399998Y-74569196D01*
X133266878Y-74590279D01*
X133146778Y-74651473D01*
X133146774Y-74651476D01*
X133051476Y-74746774D01*
X133051473Y-74746778D01*
X132990279Y-74866878D01*
X132969196Y-74999997D01*
X132969196Y-75000000D01*
X132990279Y-75133121D01*
X132990280Y-75133124D01*
X132990281Y-75133126D01*
X133051472Y-75253220D01*
X133051473Y-75253221D01*
X133051476Y-75253225D01*
X133146774Y-75348523D01*
X133146778Y-75348526D01*
X133146780Y-75348528D01*
X133266874Y-75409719D01*
X133266876Y-75409719D01*
X133266878Y-75409720D01*
X133399998Y-75430804D01*
X133400000Y-75430804D01*
X133400002Y-75430804D01*
X133533121Y-75409720D01*
X133533121Y-75409719D01*
X133533126Y-75409719D01*
X133653220Y-75348528D01*
X133665674Y-75336073D01*
X133726992Y-75302588D01*
X133737180Y-75300813D01*
X133739553Y-75300500D01*
X133739562Y-75300500D01*
X133815989Y-75280021D01*
X133884511Y-75240460D01*
X133927026Y-75197944D01*
X133988347Y-75164460D01*
X134058038Y-75169444D01*
X134113972Y-75211315D01*
X134118838Y-75219130D01*
X134122703Y-75224450D01*
X134122703Y-75224451D01*
X134122708Y-75224457D01*
X134218006Y-75319755D01*
X134218010Y-75319758D01*
X134218012Y-75319760D01*
X134338106Y-75380951D01*
X134338108Y-75380951D01*
X134338110Y-75380952D01*
X134471230Y-75402036D01*
X134471232Y-75402036D01*
X134471234Y-75402036D01*
X134604353Y-75380952D01*
X134604353Y-75380951D01*
X134604358Y-75380951D01*
X134724452Y-75319760D01*
X134819760Y-75224452D01*
X134870449Y-75124968D01*
X134918421Y-75074175D01*
X134986242Y-75057379D01*
X135052377Y-75079916D01*
X135068613Y-75093584D01*
X135127627Y-75152598D01*
X135127631Y-75152601D01*
X135127633Y-75152603D01*
X135247727Y-75213794D01*
X135247729Y-75213794D01*
X135247731Y-75213795D01*
X135380851Y-75234879D01*
X135380853Y-75234879D01*
X135380855Y-75234879D01*
X135513974Y-75213795D01*
X135513974Y-75213794D01*
X135513979Y-75213794D01*
X135634073Y-75152603D01*
X135729381Y-75057295D01*
X135790572Y-74937201D01*
X135796164Y-74901893D01*
X135811657Y-74804077D01*
X135811657Y-74804071D01*
X135796573Y-74708833D01*
X135805528Y-74639540D01*
X135831365Y-74601755D01*
X135998805Y-74434315D01*
X136240460Y-74192661D01*
X136269152Y-74142964D01*
X136280021Y-74124139D01*
X136300500Y-74047712D01*
X136300500Y-70299997D01*
X136569196Y-70299997D01*
X136569196Y-70300002D01*
X136590279Y-70433121D01*
X136590280Y-70433124D01*
X136590281Y-70433126D01*
X136651472Y-70553220D01*
X136651473Y-70553221D01*
X136651476Y-70553225D01*
X136660570Y-70562319D01*
X136694055Y-70623642D01*
X136689071Y-70693334D01*
X136660570Y-70737681D01*
X136651476Y-70746774D01*
X136651473Y-70746778D01*
X136590279Y-70866878D01*
X136569196Y-70999997D01*
X136569196Y-71000002D01*
X136590279Y-71133121D01*
X136590280Y-71133124D01*
X136590281Y-71133126D01*
X136651472Y-71253220D01*
X136651473Y-71253221D01*
X136651476Y-71253225D01*
X136660570Y-71262319D01*
X136694055Y-71323642D01*
X136689071Y-71393334D01*
X136660570Y-71437681D01*
X136651476Y-71446774D01*
X136651473Y-71446778D01*
X136590279Y-71566878D01*
X136569196Y-71699997D01*
X136569196Y-71700002D01*
X136590279Y-71833121D01*
X136590280Y-71833124D01*
X136590281Y-71833126D01*
X136592702Y-71837877D01*
X136651473Y-71953221D01*
X136651476Y-71953225D01*
X136660570Y-71962319D01*
X136694055Y-72023642D01*
X136689071Y-72093334D01*
X136660570Y-72137681D01*
X136651476Y-72146774D01*
X136651473Y-72146778D01*
X136590279Y-72266878D01*
X136569196Y-72399997D01*
X136569196Y-72400002D01*
X136590279Y-72533121D01*
X136590280Y-72533124D01*
X136590281Y-72533126D01*
X136628763Y-72608651D01*
X136651473Y-72653221D01*
X136651476Y-72653225D01*
X136660570Y-72662319D01*
X136694055Y-72723642D01*
X136689071Y-72793334D01*
X136660570Y-72837681D01*
X136651476Y-72846774D01*
X136651473Y-72846778D01*
X136590279Y-72966878D01*
X136569196Y-73099997D01*
X136569196Y-73100002D01*
X136590279Y-73233121D01*
X136590280Y-73233124D01*
X136590281Y-73233126D01*
X136651472Y-73353220D01*
X136651473Y-73353221D01*
X136651476Y-73353225D01*
X136746774Y-73448523D01*
X136746778Y-73448526D01*
X136746780Y-73448528D01*
X136866874Y-73509719D01*
X136866876Y-73509719D01*
X136866878Y-73509720D01*
X136999998Y-73530804D01*
X137000000Y-73530804D01*
X137000002Y-73530804D01*
X137133121Y-73509720D01*
X137133121Y-73509719D01*
X137133126Y-73509719D01*
X137253220Y-73448528D01*
X137348528Y-73353220D01*
X137409719Y-73233126D01*
X137425719Y-73132105D01*
X137430804Y-73100002D01*
X137430804Y-73099997D01*
X137409720Y-72966878D01*
X137409719Y-72966876D01*
X137409719Y-72966874D01*
X137348528Y-72846780D01*
X137339429Y-72837681D01*
X137305945Y-72776362D01*
X137310927Y-72706670D01*
X137339429Y-72662318D01*
X137348528Y-72653220D01*
X137409719Y-72533126D01*
X137430804Y-72400000D01*
X137425175Y-72364461D01*
X137409720Y-72266878D01*
X137409719Y-72266876D01*
X137409719Y-72266874D01*
X137348528Y-72146780D01*
X137339429Y-72137681D01*
X137305945Y-72076362D01*
X137310927Y-72006670D01*
X137339429Y-71962318D01*
X137348528Y-71953220D01*
X137409719Y-71833126D01*
X137409720Y-71833121D01*
X137430804Y-71700002D01*
X137430804Y-71699997D01*
X137409720Y-71566878D01*
X137409719Y-71566876D01*
X137409719Y-71566874D01*
X137348528Y-71446780D01*
X137339429Y-71437681D01*
X137305945Y-71376362D01*
X137310927Y-71306670D01*
X137339429Y-71262318D01*
X137348528Y-71253220D01*
X137409719Y-71133126D01*
X137430804Y-71000000D01*
X137411805Y-70880046D01*
X137409720Y-70866878D01*
X137409719Y-70866876D01*
X137409719Y-70866874D01*
X137348528Y-70746780D01*
X137339429Y-70737681D01*
X137305945Y-70676362D01*
X137310927Y-70606670D01*
X137339429Y-70562318D01*
X137348528Y-70553220D01*
X137409719Y-70433126D01*
X137410066Y-70430938D01*
X137430804Y-70300002D01*
X137430804Y-70299997D01*
X137409720Y-70166878D01*
X137409719Y-70166876D01*
X137409719Y-70166874D01*
X137348528Y-70046780D01*
X137348526Y-70046778D01*
X137348523Y-70046774D01*
X137253225Y-69951476D01*
X137253221Y-69951473D01*
X137253220Y-69951472D01*
X137133126Y-69890281D01*
X137133124Y-69890280D01*
X137133121Y-69890279D01*
X137000002Y-69869196D01*
X136999998Y-69869196D01*
X136866878Y-69890279D01*
X136746778Y-69951473D01*
X136746774Y-69951476D01*
X136651476Y-70046774D01*
X136651473Y-70046778D01*
X136590279Y-70166878D01*
X136569196Y-70299997D01*
X136300500Y-70299997D01*
X136300500Y-68520000D01*
X137394355Y-68520000D01*
X137414859Y-68688869D01*
X137414860Y-68688874D01*
X137475182Y-68847931D01*
X137537475Y-68938177D01*
X137571817Y-68987929D01*
X137677505Y-69081560D01*
X137699150Y-69100736D01*
X137848253Y-69178991D01*
X137849775Y-69179790D01*
X138014944Y-69220500D01*
X138185056Y-69220500D01*
X138350225Y-69179790D01*
X138429692Y-69138081D01*
X138500849Y-69100736D01*
X138500850Y-69100734D01*
X138500852Y-69100734D01*
X138628183Y-68987929D01*
X138724818Y-68847930D01*
X138785140Y-68688872D01*
X138805645Y-68520000D01*
X138785140Y-68351128D01*
X138724818Y-68192070D01*
X138724817Y-68192068D01*
X138724816Y-68192066D01*
X138676392Y-68121913D01*
X138662016Y-68101087D01*
X138640133Y-68034733D01*
X138657598Y-67967082D01*
X138695175Y-67927545D01*
X138744552Y-67894552D01*
X138751587Y-67884023D01*
X138788867Y-67828231D01*
X138788867Y-67828229D01*
X138788868Y-67828229D01*
X138800499Y-67769752D01*
X138800500Y-67769750D01*
X138800500Y-66730249D01*
X138800499Y-66730247D01*
X138788868Y-66671770D01*
X138788867Y-66671769D01*
X138744552Y-66605447D01*
X138678230Y-66561132D01*
X138678229Y-66561131D01*
X138619752Y-66549500D01*
X138619748Y-66549500D01*
X137580252Y-66549500D01*
X137580247Y-66549500D01*
X137521770Y-66561131D01*
X137521769Y-66561132D01*
X137455447Y-66605447D01*
X137411132Y-66671769D01*
X137411131Y-66671770D01*
X137399500Y-66730247D01*
X137399500Y-67769752D01*
X137411131Y-67828229D01*
X137411132Y-67828230D01*
X137455447Y-67894552D01*
X137504824Y-67927545D01*
X137549629Y-67981158D01*
X137558336Y-68050483D01*
X137537983Y-68101087D01*
X137475183Y-68192068D01*
X137475182Y-68192068D01*
X137414860Y-68351125D01*
X137414859Y-68351130D01*
X137394355Y-68520000D01*
X136300500Y-68520000D01*
X136300500Y-67060438D01*
X136280021Y-66984011D01*
X136264534Y-66957187D01*
X136240464Y-66915495D01*
X136240458Y-66915487D01*
X134810391Y-65485420D01*
X134776906Y-65424097D01*
X134775599Y-65417136D01*
X134759720Y-65316878D01*
X134759719Y-65316876D01*
X134759719Y-65316874D01*
X134698528Y-65196780D01*
X134698526Y-65196778D01*
X134698523Y-65196774D01*
X134603225Y-65101476D01*
X134603221Y-65101473D01*
X134603220Y-65101472D01*
X134483126Y-65040281D01*
X134483124Y-65040280D01*
X134483121Y-65040279D01*
X134350002Y-65019196D01*
X134349998Y-65019196D01*
X134216878Y-65040279D01*
X134096778Y-65101473D01*
X134001315Y-65196936D01*
X133939992Y-65230420D01*
X133870300Y-65225436D01*
X133825953Y-65196935D01*
X133806877Y-65177859D01*
X133806873Y-65177856D01*
X133806872Y-65177855D01*
X133686778Y-65116664D01*
X133686776Y-65116663D01*
X133686773Y-65116662D01*
X133553654Y-65095579D01*
X133553650Y-65095579D01*
X133420530Y-65116662D01*
X133300430Y-65177856D01*
X133300426Y-65177859D01*
X133205128Y-65273157D01*
X133199391Y-65281055D01*
X133197512Y-65279690D01*
X133158833Y-65320633D01*
X133091010Y-65337418D01*
X133024878Y-65314872D01*
X132986915Y-65267054D01*
X132985231Y-65267913D01*
X132980801Y-65259219D01*
X132980801Y-65259217D01*
X132919610Y-65139123D01*
X132919608Y-65139121D01*
X132919605Y-65139117D01*
X132824307Y-65043819D01*
X132824303Y-65043816D01*
X132824302Y-65043815D01*
X132704208Y-64982624D01*
X132704206Y-64982623D01*
X132704203Y-64982622D01*
X132571084Y-64961539D01*
X132571080Y-64961539D01*
X132437960Y-64982622D01*
X132317860Y-65043816D01*
X132221119Y-65140557D01*
X132159796Y-65174041D01*
X132090104Y-65169057D01*
X132034171Y-65127185D01*
X132022959Y-65109180D01*
X132004076Y-65072119D01*
X132004074Y-65072117D01*
X132004071Y-65072113D01*
X131908773Y-64976815D01*
X131908769Y-64976812D01*
X131908768Y-64976811D01*
X131788674Y-64915620D01*
X131788672Y-64915619D01*
X131788669Y-64915618D01*
X131655550Y-64894535D01*
X131655548Y-64894535D01*
X131609751Y-64901788D01*
X131515056Y-64916786D01*
X131445763Y-64907830D01*
X131392311Y-64862833D01*
X131371672Y-64796082D01*
X131373185Y-64774919D01*
X131380804Y-64726818D01*
X131380595Y-64725500D01*
X131359720Y-64593696D01*
X131359719Y-64593694D01*
X131359719Y-64593692D01*
X131298528Y-64473598D01*
X131298526Y-64473596D01*
X131298523Y-64473592D01*
X131203225Y-64378294D01*
X131203221Y-64378291D01*
X131203220Y-64378290D01*
X131083126Y-64317099D01*
X131083124Y-64317098D01*
X131083121Y-64317097D01*
X130950002Y-64296014D01*
X130949998Y-64296014D01*
X130816878Y-64317097D01*
X130696778Y-64378291D01*
X130696774Y-64378294D01*
X130601476Y-64473592D01*
X130601473Y-64473596D01*
X130540279Y-64593696D01*
X130519196Y-64726815D01*
X130519196Y-64726820D01*
X130540279Y-64859939D01*
X130540280Y-64859942D01*
X130540281Y-64859944D01*
X130601472Y-64980038D01*
X130613180Y-64991746D01*
X130646666Y-65053067D01*
X130649500Y-65079428D01*
X130649500Y-65507882D01*
X130669979Y-65584309D01*
X130676675Y-65595906D01*
X130676677Y-65595913D01*
X130676679Y-65595913D01*
X130709539Y-65652829D01*
X130709541Y-65652832D01*
X131989528Y-66932819D01*
X132023013Y-66994142D01*
X132018029Y-67063834D01*
X131976157Y-67119767D01*
X131910693Y-67144184D01*
X131901847Y-67144500D01*
X128429500Y-67144500D01*
X128362461Y-67124815D01*
X128316706Y-67072011D01*
X128305500Y-67020500D01*
X128305500Y-65968232D01*
X128305425Y-65962672D01*
X128305249Y-65956094D01*
X128305248Y-65956088D01*
X128305248Y-65956079D01*
X128293615Y-65893214D01*
X128293613Y-65893210D01*
X128293613Y-65893206D01*
X128278545Y-65850500D01*
X128270369Y-65827325D01*
X128260570Y-65804173D01*
X128202638Y-65733404D01*
X128160932Y-65701008D01*
X128120064Y-65644337D01*
X128113000Y-65603081D01*
X128113000Y-65188361D01*
X128132685Y-65121322D01*
X128149319Y-65100680D01*
X128175000Y-65074999D01*
X128675000Y-65074999D01*
X128774140Y-65074999D01*
X128774154Y-65074998D01*
X128875152Y-65064680D01*
X129038800Y-65010453D01*
X129038811Y-65010448D01*
X129185534Y-64919947D01*
X129185538Y-64919944D01*
X129307444Y-64798038D01*
X129307447Y-64798034D01*
X129397948Y-64651311D01*
X129397953Y-64651300D01*
X129452180Y-64487652D01*
X129462499Y-64386654D01*
X129462500Y-64386641D01*
X129462500Y-64350000D01*
X128675000Y-64350000D01*
X128675000Y-65074999D01*
X128175000Y-65074999D01*
X128175000Y-63850000D01*
X128675000Y-63850000D01*
X129462499Y-63850000D01*
X129462499Y-63813360D01*
X129462498Y-63813345D01*
X129452180Y-63712347D01*
X129397953Y-63548699D01*
X129397948Y-63548688D01*
X129307447Y-63401965D01*
X129307443Y-63401960D01*
X129185538Y-63280055D01*
X129185534Y-63280052D01*
X129038811Y-63189551D01*
X129038800Y-63189546D01*
X128875152Y-63135319D01*
X128774154Y-63125000D01*
X128675000Y-63125000D01*
X128675000Y-63850000D01*
X128175000Y-63850000D01*
X128175000Y-63124999D01*
X128075860Y-63125000D01*
X128075844Y-63125001D01*
X127974847Y-63135319D01*
X127811199Y-63189546D01*
X127811188Y-63189551D01*
X127664465Y-63280052D01*
X127664460Y-63280056D01*
X127628314Y-63316201D01*
X127566990Y-63349685D01*
X127522988Y-63351256D01*
X127491941Y-63346792D01*
X127476000Y-63344500D01*
X126224000Y-63344500D01*
X126223992Y-63344500D01*
X126180313Y-63349197D01*
X126128825Y-63360397D01*
X126118627Y-63362890D01*
X126118624Y-63362891D01*
X126037916Y-63405899D01*
X126037913Y-63405901D01*
X125985104Y-63451660D01*
X125967160Y-63469242D01*
X125967154Y-63469249D01*
X125922511Y-63549059D01*
X125922509Y-63549064D01*
X125902826Y-63616096D01*
X125894500Y-63674003D01*
X125894500Y-69814151D01*
X125874815Y-69881190D01*
X125822011Y-69926945D01*
X125793289Y-69936039D01*
X125770065Y-69940380D01*
X125770060Y-69940382D01*
X125562601Y-70020751D01*
X125562595Y-70020754D01*
X125373439Y-70137874D01*
X125373437Y-70137876D01*
X125209020Y-70287761D01*
X125074943Y-70465308D01*
X125074938Y-70465316D01*
X124975775Y-70664461D01*
X124975769Y-70664476D01*
X124914885Y-70878462D01*
X124914884Y-70878464D01*
X124894357Y-71099999D01*
X120300500Y-71099999D01*
X120300500Y-70554014D01*
X120320185Y-70486975D01*
X120372989Y-70441220D01*
X120377048Y-70439453D01*
X120397598Y-70430941D01*
X120569655Y-70315977D01*
X120715977Y-70169655D01*
X120830941Y-69997598D01*
X120910130Y-69806420D01*
X120950500Y-69603465D01*
X120951128Y-69600309D01*
X120983512Y-69538398D01*
X121044228Y-69503824D01*
X121072745Y-69500500D01*
X122865225Y-69500500D01*
X122865227Y-69500500D01*
X122967088Y-69473207D01*
X123058413Y-69420480D01*
X124692074Y-67786819D01*
X124753397Y-67753334D01*
X124779755Y-67750500D01*
X125132250Y-67750500D01*
X125132251Y-67750499D01*
X125147068Y-67747552D01*
X125190729Y-67738868D01*
X125190729Y-67738867D01*
X125190731Y-67738867D01*
X125257052Y-67694552D01*
X125301367Y-67628231D01*
X125301367Y-67628229D01*
X125301368Y-67628229D01*
X125312999Y-67569752D01*
X125313000Y-67569750D01*
X125313000Y-67136556D01*
X125332685Y-67069517D01*
X125362689Y-67037290D01*
X125469687Y-66957190D01*
X125469690Y-66957187D01*
X125555850Y-66842093D01*
X125555854Y-66842086D01*
X125606096Y-66707379D01*
X125606098Y-66707372D01*
X125612499Y-66647844D01*
X125612500Y-66647827D01*
X125612500Y-66550000D01*
X123712500Y-66550000D01*
X123712500Y-66647844D01*
X123718901Y-66707372D01*
X123718903Y-66707379D01*
X123769145Y-66842086D01*
X123769149Y-66842093D01*
X123855309Y-66957187D01*
X123855312Y-66957190D01*
X123962311Y-67037290D01*
X124004182Y-67093223D01*
X124012000Y-67136556D01*
X124012000Y-67282745D01*
X123992315Y-67349784D01*
X123975681Y-67370426D01*
X122682926Y-68663181D01*
X122621603Y-68696666D01*
X122595245Y-68699500D01*
X121072745Y-68699500D01*
X121005706Y-68679815D01*
X120959951Y-68627011D01*
X120951128Y-68599691D01*
X120920075Y-68443576D01*
X120910130Y-68393580D01*
X120830941Y-68202402D01*
X120715977Y-68030345D01*
X120715975Y-68030342D01*
X120569657Y-67884024D01*
X120401655Y-67771770D01*
X120397598Y-67769059D01*
X120352790Y-67750499D01*
X120206420Y-67689870D01*
X120206412Y-67689868D01*
X120003469Y-67649500D01*
X120003465Y-67649500D01*
X119796535Y-67649500D01*
X119796530Y-67649500D01*
X119593587Y-67689868D01*
X119593579Y-67689870D01*
X119402403Y-67769058D01*
X119230342Y-67884024D01*
X119084024Y-68030342D01*
X118969057Y-68202403D01*
X118900835Y-68367108D01*
X118856994Y-68421511D01*
X118790700Y-68443576D01*
X118723000Y-68426297D01*
X118675390Y-68375159D01*
X118668343Y-68357973D01*
X118611095Y-68181782D01*
X118514620Y-67992442D01*
X118389727Y-67820540D01*
X118389723Y-67820535D01*
X118239464Y-67670276D01*
X118239459Y-67670272D01*
X118067557Y-67545379D01*
X117878215Y-67448903D01*
X117676124Y-67383241D01*
X117610000Y-67372768D01*
X117610000Y-68551517D01*
X117591591Y-68540889D01*
X117438991Y-68500000D01*
X117281009Y-68500000D01*
X117128409Y-68540889D01*
X117110000Y-68551517D01*
X117110000Y-67372768D01*
X117109999Y-67372768D01*
X117043875Y-67383241D01*
X116841784Y-67448903D01*
X116652442Y-67545379D01*
X116480540Y-67670272D01*
X116480535Y-67670276D01*
X116330276Y-67820535D01*
X116330272Y-67820540D01*
X116205379Y-67992442D01*
X116106694Y-68186121D01*
X116105678Y-68185603D01*
X116065212Y-68235813D01*
X115998916Y-68257872D01*
X115931218Y-68240588D01*
X115883612Y-68189447D01*
X115870500Y-68133951D01*
X115870500Y-67830249D01*
X115870499Y-67830247D01*
X115858868Y-67771770D01*
X115858867Y-67771769D01*
X115814552Y-67705447D01*
X115748230Y-67661132D01*
X115748229Y-67661131D01*
X115689752Y-67649500D01*
X115689748Y-67649500D01*
X113950252Y-67649500D01*
X113950247Y-67649500D01*
X113891770Y-67661131D01*
X113891769Y-67661132D01*
X113825447Y-67705447D01*
X113781132Y-67771769D01*
X113781131Y-67771770D01*
X113769500Y-67830247D01*
X110450500Y-67830247D01*
X110450500Y-64549997D01*
X119669196Y-64549997D01*
X119669196Y-64550002D01*
X119690279Y-64683121D01*
X119690280Y-64683124D01*
X119690281Y-64683126D01*
X119745998Y-64792476D01*
X119751473Y-64803221D01*
X119751476Y-64803225D01*
X119846774Y-64898523D01*
X119846778Y-64898526D01*
X119846780Y-64898528D01*
X119966874Y-64959719D01*
X119966876Y-64959719D01*
X119966878Y-64959720D01*
X120099998Y-64980804D01*
X120100000Y-64980804D01*
X120100002Y-64980804D01*
X120233121Y-64959720D01*
X120233121Y-64959719D01*
X120233126Y-64959719D01*
X120353220Y-64898528D01*
X120448528Y-64803220D01*
X120476340Y-64748633D01*
X120499141Y-64717250D01*
X121054574Y-64161819D01*
X121115897Y-64128334D01*
X121142255Y-64125500D01*
X123945644Y-64125500D01*
X124012683Y-64145185D01*
X124058438Y-64197989D01*
X124062685Y-64208544D01*
X124070884Y-64231976D01*
X124118146Y-64296014D01*
X124149289Y-64338211D01*
X124211635Y-64384224D01*
X124253884Y-64439868D01*
X124262000Y-64483992D01*
X124262000Y-64733961D01*
X124242315Y-64801000D01*
X124189511Y-64846755D01*
X124162192Y-64855578D01*
X124134270Y-64861132D01*
X124134269Y-64861132D01*
X124067947Y-64905447D01*
X124023632Y-64971769D01*
X124023631Y-64971770D01*
X124012000Y-65030247D01*
X124012000Y-65463443D01*
X123992315Y-65530482D01*
X123962312Y-65562709D01*
X123855309Y-65642812D01*
X123769149Y-65757906D01*
X123769145Y-65757913D01*
X123718903Y-65892620D01*
X123718901Y-65892627D01*
X123712500Y-65952155D01*
X123712500Y-66050000D01*
X125612500Y-66050000D01*
X125612500Y-65952172D01*
X125612499Y-65952155D01*
X125606098Y-65892627D01*
X125606096Y-65892620D01*
X125555854Y-65757913D01*
X125555850Y-65757906D01*
X125469690Y-65642812D01*
X125362688Y-65562709D01*
X125320818Y-65506775D01*
X125313000Y-65463443D01*
X125313000Y-65030249D01*
X125312999Y-65030247D01*
X125301368Y-64971770D01*
X125301367Y-64971769D01*
X125257052Y-64905447D01*
X125190730Y-64861132D01*
X125162808Y-64855578D01*
X125100897Y-64823193D01*
X125066323Y-64762477D01*
X125063000Y-64733961D01*
X125063000Y-64533108D01*
X125082685Y-64466069D01*
X125135489Y-64420314D01*
X125143823Y-64416960D01*
X125144469Y-64416617D01*
X125144475Y-64416616D01*
X125250711Y-64338211D01*
X125329116Y-64231975D01*
X125372725Y-64107349D01*
X125375500Y-64077756D01*
X125375500Y-63372244D01*
X125372898Y-63344500D01*
X125372725Y-63342650D01*
X125372725Y-63342648D01*
X125367982Y-63329094D01*
X125364420Y-63259315D01*
X125399148Y-63198688D01*
X125461141Y-63166460D01*
X125504421Y-63165666D01*
X125599998Y-63180804D01*
X125600000Y-63180804D01*
X125600002Y-63180804D01*
X125733121Y-63159720D01*
X125733121Y-63159719D01*
X125733126Y-63159719D01*
X125853220Y-63098528D01*
X125948528Y-63003220D01*
X126009719Y-62883126D01*
X126009827Y-62882443D01*
X126030804Y-62750002D01*
X126030804Y-62749997D01*
X126009720Y-62616878D01*
X126009719Y-62616876D01*
X126009719Y-62616874D01*
X125950167Y-62499997D01*
X135319196Y-62499997D01*
X135319196Y-62500002D01*
X135340279Y-62633121D01*
X135340280Y-62633124D01*
X135340281Y-62633126D01*
X135401472Y-62753220D01*
X135401473Y-62753221D01*
X135401476Y-62753225D01*
X135496774Y-62848523D01*
X135496778Y-62848526D01*
X135496780Y-62848528D01*
X135616874Y-62909719D01*
X135616876Y-62909719D01*
X135616878Y-62909720D01*
X135749998Y-62930804D01*
X135750000Y-62930804D01*
X135750002Y-62930804D01*
X135883121Y-62909720D01*
X135883121Y-62909719D01*
X135883126Y-62909719D01*
X136003220Y-62848528D01*
X136098528Y-62753220D01*
X136159719Y-62633126D01*
X136160087Y-62630804D01*
X136180804Y-62500002D01*
X136180804Y-62499997D01*
X136159720Y-62366878D01*
X136159719Y-62366876D01*
X136159719Y-62366874D01*
X136098528Y-62246780D01*
X136098526Y-62246778D01*
X136098523Y-62246774D01*
X136003225Y-62151476D01*
X136003221Y-62151473D01*
X136003220Y-62151472D01*
X135883126Y-62090281D01*
X135883124Y-62090280D01*
X135883121Y-62090279D01*
X135750002Y-62069196D01*
X135749998Y-62069196D01*
X135616878Y-62090279D01*
X135496778Y-62151473D01*
X135496774Y-62151476D01*
X135401476Y-62246774D01*
X135401473Y-62246778D01*
X135401472Y-62246780D01*
X135357477Y-62333126D01*
X135340279Y-62366878D01*
X135319196Y-62499997D01*
X125950167Y-62499997D01*
X125948528Y-62496780D01*
X125948526Y-62496778D01*
X125948523Y-62496774D01*
X125853225Y-62401476D01*
X125853222Y-62401474D01*
X125853220Y-62401472D01*
X125742704Y-62345161D01*
X125691909Y-62297187D01*
X125680682Y-62255683D01*
X125675000Y-62250000D01*
X123725001Y-62250000D01*
X123725001Y-62349154D01*
X123735319Y-62450152D01*
X123789546Y-62613800D01*
X123789551Y-62613811D01*
X123880052Y-62760534D01*
X123880055Y-62760538D01*
X124001960Y-62882443D01*
X124104820Y-62945888D01*
X124151544Y-62997836D01*
X124162767Y-63066799D01*
X124139494Y-63125060D01*
X124070883Y-63218025D01*
X124062685Y-63241456D01*
X124021963Y-63298231D01*
X123957010Y-63323978D01*
X123945644Y-63324500D01*
X120872273Y-63324500D01*
X120770410Y-63351793D01*
X120679087Y-63404520D01*
X120679084Y-63404522D01*
X119932750Y-64150855D01*
X119901366Y-64173658D01*
X119846777Y-64201473D01*
X119751476Y-64296774D01*
X119751473Y-64296778D01*
X119751472Y-64296780D01*
X119690414Y-64416614D01*
X119690279Y-64416878D01*
X119669196Y-64549997D01*
X110450500Y-64549997D01*
X110450500Y-61525013D01*
X112850000Y-61525013D01*
X112850000Y-62050000D01*
X113795854Y-62050000D01*
X113757370Y-62116657D01*
X113725000Y-62237465D01*
X113725000Y-62362535D01*
X113757370Y-62483343D01*
X113795854Y-62550000D01*
X112850001Y-62550000D01*
X112850001Y-63074986D01*
X112860494Y-63177697D01*
X112915641Y-63344119D01*
X112915643Y-63344124D01*
X113007684Y-63493345D01*
X113131654Y-63617315D01*
X113280875Y-63709356D01*
X113280880Y-63709358D01*
X113447302Y-63764505D01*
X113447309Y-63764506D01*
X113550019Y-63774999D01*
X113949999Y-63774999D01*
X113950000Y-63774998D01*
X113950000Y-62704145D01*
X114016657Y-62742630D01*
X114137465Y-62775000D01*
X114262535Y-62775000D01*
X114383343Y-62742630D01*
X114450000Y-62704145D01*
X114450000Y-63774999D01*
X114849972Y-63774999D01*
X114849986Y-63774998D01*
X114952697Y-63764505D01*
X115119119Y-63709358D01*
X115119124Y-63709356D01*
X115268345Y-63617315D01*
X115392315Y-63493345D01*
X115484356Y-63344124D01*
X115484358Y-63344119D01*
X115539505Y-63177697D01*
X115539506Y-63177690D01*
X115549999Y-63074986D01*
X115549999Y-63003528D01*
X115569683Y-62936488D01*
X115622486Y-62890732D01*
X115691644Y-62880788D01*
X115755200Y-62909812D01*
X115777101Y-62934635D01*
X115884022Y-63094655D01*
X116030342Y-63240975D01*
X116030345Y-63240977D01*
X116202402Y-63355941D01*
X116393580Y-63435130D01*
X116565074Y-63469242D01*
X116596530Y-63475499D01*
X116596534Y-63475500D01*
X116596535Y-63475500D01*
X116803466Y-63475500D01*
X116803467Y-63475499D01*
X117006420Y-63435130D01*
X117197598Y-63355941D01*
X117369655Y-63240977D01*
X117515977Y-63094655D01*
X117630941Y-62922598D01*
X117710130Y-62731420D01*
X117750500Y-62528465D01*
X117750500Y-62071535D01*
X117750499Y-62071530D01*
X118149500Y-62071530D01*
X118149500Y-62528469D01*
X118189868Y-62731412D01*
X118189870Y-62731420D01*
X118269058Y-62922596D01*
X118384024Y-63094657D01*
X118530342Y-63240975D01*
X118530345Y-63240977D01*
X118702402Y-63355941D01*
X118893580Y-63435130D01*
X119065074Y-63469242D01*
X119096530Y-63475499D01*
X119096534Y-63475500D01*
X119096535Y-63475500D01*
X119303466Y-63475500D01*
X119303467Y-63475499D01*
X119506420Y-63435130D01*
X119697598Y-63355941D01*
X119869655Y-63240977D01*
X120015977Y-63094655D01*
X120130941Y-62922598D01*
X120210130Y-62731420D01*
X120250500Y-62528465D01*
X120250500Y-62071535D01*
X120210130Y-61868580D01*
X120130941Y-61677402D01*
X120113196Y-61650845D01*
X123725000Y-61650845D01*
X123725000Y-61750000D01*
X124450000Y-61750000D01*
X124950000Y-61750000D01*
X125674999Y-61750000D01*
X125674999Y-61650860D01*
X125674998Y-61650845D01*
X125664680Y-61549847D01*
X125610453Y-61386199D01*
X125610448Y-61386188D01*
X125519947Y-61239465D01*
X125519944Y-61239461D01*
X125398038Y-61117555D01*
X125398034Y-61117552D01*
X125251311Y-61027051D01*
X125251300Y-61027046D01*
X125087652Y-60972819D01*
X124986654Y-60962500D01*
X124950000Y-60962500D01*
X124950000Y-61750000D01*
X124450000Y-61750000D01*
X124450000Y-60962500D01*
X124413361Y-60962500D01*
X124413343Y-60962501D01*
X124312347Y-60972819D01*
X124148699Y-61027046D01*
X124148688Y-61027051D01*
X124001965Y-61117552D01*
X124001961Y-61117555D01*
X123880055Y-61239461D01*
X123880052Y-61239465D01*
X123789551Y-61386188D01*
X123789546Y-61386199D01*
X123735319Y-61549847D01*
X123725000Y-61650845D01*
X120113196Y-61650845D01*
X120015977Y-61505345D01*
X120015975Y-61505342D01*
X119869657Y-61359024D01*
X119758976Y-61285070D01*
X119697598Y-61244059D01*
X119686507Y-61239465D01*
X119506420Y-61164870D01*
X119506412Y-61164868D01*
X119303469Y-61124500D01*
X119303465Y-61124500D01*
X119096535Y-61124500D01*
X119096530Y-61124500D01*
X118893587Y-61164868D01*
X118893579Y-61164870D01*
X118702403Y-61244058D01*
X118530342Y-61359024D01*
X118384024Y-61505342D01*
X118269058Y-61677403D01*
X118189870Y-61868579D01*
X118189868Y-61868587D01*
X118149500Y-62071530D01*
X117750499Y-62071530D01*
X117710130Y-61868580D01*
X117630941Y-61677402D01*
X117515977Y-61505345D01*
X117515975Y-61505342D01*
X117369657Y-61359024D01*
X117258976Y-61285070D01*
X117197598Y-61244059D01*
X117186507Y-61239465D01*
X117006420Y-61164870D01*
X117006412Y-61164868D01*
X116803469Y-61124500D01*
X116803465Y-61124500D01*
X116596535Y-61124500D01*
X116596530Y-61124500D01*
X116393587Y-61164868D01*
X116393579Y-61164870D01*
X116202403Y-61244058D01*
X116030342Y-61359024D01*
X115884024Y-61505342D01*
X115777102Y-61665365D01*
X115723489Y-61710171D01*
X115654165Y-61718878D01*
X115591137Y-61688724D01*
X115554417Y-61629281D01*
X115549999Y-61596475D01*
X115549999Y-61525028D01*
X115549998Y-61525012D01*
X115539505Y-61422302D01*
X115484358Y-61255880D01*
X115484356Y-61255875D01*
X115392315Y-61106654D01*
X115268345Y-60982684D01*
X115119124Y-60890643D01*
X115119119Y-60890641D01*
X114952697Y-60835494D01*
X114952690Y-60835493D01*
X114849986Y-60825000D01*
X114450000Y-60825000D01*
X114450000Y-61895854D01*
X114383343Y-61857370D01*
X114262535Y-61825000D01*
X114137465Y-61825000D01*
X114016657Y-61857370D01*
X113950000Y-61895854D01*
X113950000Y-60825000D01*
X113550028Y-60825000D01*
X113550012Y-60825001D01*
X113447302Y-60835494D01*
X113280880Y-60890641D01*
X113280875Y-60890643D01*
X113131654Y-60982684D01*
X113007684Y-61106654D01*
X112915643Y-61255875D01*
X112915641Y-61255880D01*
X112860494Y-61422302D01*
X112860493Y-61422309D01*
X112850000Y-61525013D01*
X110450500Y-61525013D01*
X110450500Y-60149997D01*
X130420130Y-60149997D01*
X130420130Y-60150002D01*
X130441213Y-60283121D01*
X130441214Y-60283124D01*
X130441215Y-60283126D01*
X130502406Y-60403220D01*
X130502407Y-60403221D01*
X130502410Y-60403225D01*
X130597708Y-60498523D01*
X130597712Y-60498526D01*
X130597714Y-60498528D01*
X130717808Y-60559719D01*
X130717810Y-60559719D01*
X130717812Y-60559720D01*
X130850932Y-60580804D01*
X130850934Y-60580804D01*
X130850936Y-60580804D01*
X130917497Y-60570261D01*
X130984060Y-60559719D01*
X130992778Y-60555277D01*
X131061447Y-60542380D01*
X131126187Y-60568656D01*
X131166445Y-60625762D01*
X131171547Y-60685158D01*
X131169196Y-60700002D01*
X131190279Y-60833121D01*
X131190280Y-60833124D01*
X131190281Y-60833126D01*
X131238362Y-60927490D01*
X131251473Y-60953221D01*
X131251476Y-60953225D01*
X131346774Y-61048523D01*
X131346778Y-61048526D01*
X131346780Y-61048528D01*
X131466874Y-61109719D01*
X131466876Y-61109719D01*
X131466878Y-61109720D01*
X131599998Y-61130804D01*
X131600000Y-61130804D01*
X131600002Y-61130804D01*
X131733121Y-61109720D01*
X131733121Y-61109719D01*
X131733126Y-61109719D01*
X131853220Y-61048528D01*
X131948528Y-60953220D01*
X132009719Y-60833126D01*
X132009719Y-60833124D01*
X132009720Y-60833123D01*
X132009720Y-60833122D01*
X132014158Y-60805103D01*
X132044087Y-60741968D01*
X132103398Y-60705036D01*
X132136631Y-60700500D01*
X139393180Y-60700500D01*
X139460219Y-60720185D01*
X139505974Y-60772989D01*
X139515653Y-60805102D01*
X139516016Y-60807391D01*
X139577207Y-60927485D01*
X139577209Y-60927487D01*
X139577211Y-60927490D01*
X139672509Y-61022788D01*
X139672513Y-61022791D01*
X139672515Y-61022793D01*
X139792609Y-61083984D01*
X139792611Y-61083984D01*
X139792613Y-61083985D01*
X139925733Y-61105069D01*
X139925735Y-61105069D01*
X139925737Y-61105069D01*
X140058856Y-61083985D01*
X140058856Y-61083984D01*
X140058861Y-61083984D01*
X140178955Y-61022793D01*
X140274263Y-60927485D01*
X140307578Y-60862099D01*
X140355551Y-60811305D01*
X140423372Y-60794509D01*
X140489507Y-60817046D01*
X140505743Y-60830714D01*
X140763181Y-61088152D01*
X140796666Y-61149475D01*
X140799500Y-61175833D01*
X140799500Y-61197389D01*
X140779815Y-61264428D01*
X140763181Y-61285070D01*
X140751476Y-61296774D01*
X140751473Y-61296778D01*
X140690279Y-61416878D01*
X140669196Y-61549997D01*
X140669196Y-61550002D01*
X140690279Y-61683121D01*
X140690280Y-61683124D01*
X140690281Y-61683126D01*
X140751472Y-61803220D01*
X140751473Y-61803221D01*
X140751476Y-61803225D01*
X140846774Y-61898523D01*
X140846778Y-61898526D01*
X140846780Y-61898528D01*
X140966874Y-61959719D01*
X140966876Y-61959719D01*
X140966878Y-61959720D01*
X141099998Y-61980804D01*
X141100000Y-61980804D01*
X141100002Y-61980804D01*
X141233121Y-61959720D01*
X141233121Y-61959719D01*
X141233126Y-61959719D01*
X141353220Y-61898528D01*
X141448528Y-61803220D01*
X141509719Y-61683126D01*
X141509720Y-61683121D01*
X141530804Y-61550002D01*
X141530804Y-61549997D01*
X141509720Y-61416878D01*
X141509719Y-61416876D01*
X141509719Y-61416874D01*
X141448528Y-61296780D01*
X141448526Y-61296778D01*
X141448523Y-61296774D01*
X141436819Y-61285070D01*
X141403334Y-61223747D01*
X141400500Y-61197389D01*
X141400500Y-60960439D01*
X141400500Y-60960438D01*
X141388251Y-60914725D01*
X141380022Y-60884012D01*
X141340460Y-60815489D01*
X140284511Y-59759540D01*
X140284509Y-59759539D01*
X140284504Y-59759535D01*
X140215995Y-59719982D01*
X140215990Y-59719979D01*
X140190513Y-59713152D01*
X140139562Y-59699500D01*
X130961372Y-59699500D01*
X130899603Y-59716051D01*
X130860691Y-59718090D01*
X130860691Y-59719196D01*
X130850931Y-59719196D01*
X130717812Y-59740279D01*
X130597712Y-59801473D01*
X130597708Y-59801476D01*
X130502410Y-59896774D01*
X130502407Y-59896778D01*
X130441213Y-60016878D01*
X130420130Y-60149997D01*
X110450500Y-60149997D01*
X110450500Y-57399997D01*
X129569196Y-57399997D01*
X129569196Y-57400002D01*
X129590279Y-57533121D01*
X129590280Y-57533124D01*
X129590281Y-57533126D01*
X129651472Y-57653220D01*
X129651473Y-57653221D01*
X129651476Y-57653225D01*
X129746774Y-57748523D01*
X129746778Y-57748526D01*
X129746780Y-57748528D01*
X129866874Y-57809719D01*
X129866876Y-57809719D01*
X129866878Y-57809720D01*
X129967136Y-57825599D01*
X130030271Y-57855528D01*
X130035420Y-57860391D01*
X130359540Y-58184511D01*
X130415489Y-58240460D01*
X130415491Y-58240461D01*
X130415495Y-58240464D01*
X130484004Y-58280017D01*
X130484011Y-58280021D01*
X130560438Y-58300500D01*
X141516630Y-58300500D01*
X141583669Y-58320185D01*
X141604311Y-58336819D01*
X142023285Y-58755793D01*
X142056770Y-58817116D01*
X142051786Y-58886808D01*
X142009914Y-58942741D01*
X142002101Y-58947606D01*
X141996774Y-58951476D01*
X141901476Y-59046774D01*
X141901473Y-59046778D01*
X141840279Y-59166878D01*
X141819196Y-59299997D01*
X141819196Y-59300002D01*
X141840279Y-59433121D01*
X141840280Y-59433124D01*
X141840281Y-59433126D01*
X141901472Y-59553220D01*
X141913180Y-59564928D01*
X141946666Y-59626249D01*
X141949500Y-59652610D01*
X141949500Y-63997389D01*
X141929815Y-64064428D01*
X141913181Y-64085070D01*
X141901476Y-64096774D01*
X141901473Y-64096778D01*
X141840279Y-64216878D01*
X141819196Y-64349997D01*
X141819196Y-64350000D01*
X141840279Y-64483121D01*
X141840280Y-64483124D01*
X141840281Y-64483126D01*
X141901472Y-64603220D01*
X141901473Y-64603221D01*
X141901476Y-64603225D01*
X141996774Y-64698523D01*
X141996778Y-64698526D01*
X141996780Y-64698528D01*
X142116874Y-64759719D01*
X142116876Y-64759719D01*
X142116878Y-64759720D01*
X142249998Y-64780804D01*
X142250000Y-64780804D01*
X142250002Y-64780804D01*
X142322225Y-64769364D01*
X142383126Y-64759719D01*
X142383134Y-64759714D01*
X142387170Y-64758404D01*
X142392375Y-64758254D01*
X142392765Y-64758193D01*
X142392772Y-64758243D01*
X142457010Y-64756401D01*
X142516847Y-64792476D01*
X142547682Y-64855173D01*
X142549500Y-64876331D01*
X142549500Y-71974167D01*
X142529815Y-72041206D01*
X142513181Y-72061848D01*
X140379541Y-74195487D01*
X140379535Y-74195495D01*
X140339982Y-74264004D01*
X140339979Y-74264009D01*
X140319500Y-74340439D01*
X140319500Y-74601421D01*
X140299815Y-74668460D01*
X140247011Y-74714215D01*
X140231496Y-74720081D01*
X140216046Y-74724767D01*
X140128112Y-74771770D01*
X140033550Y-74822315D01*
X140033548Y-74822316D01*
X140033547Y-74822317D01*
X139873589Y-74953589D01*
X139742317Y-75113547D01*
X139742315Y-75113550D01*
X139727297Y-75141647D01*
X139644769Y-75296043D01*
X139584699Y-75494067D01*
X139564417Y-75700000D01*
X139584699Y-75905932D01*
X139584700Y-75905934D01*
X139644768Y-76103954D01*
X139742315Y-76286450D01*
X139742317Y-76286452D01*
X139873589Y-76446410D01*
X139970209Y-76525702D01*
X140033550Y-76577685D01*
X140216046Y-76675232D01*
X140414066Y-76735300D01*
X140414065Y-76735300D01*
X140432529Y-76737118D01*
X140620000Y-76755583D01*
X140825934Y-76735300D01*
X141023954Y-76675232D01*
X141206450Y-76577685D01*
X141366410Y-76446410D01*
X141497685Y-76286450D01*
X141595232Y-76103954D01*
X141655300Y-75905934D01*
X141675583Y-75700000D01*
X141655300Y-75494066D01*
X141595232Y-75296046D01*
X141534514Y-75182453D01*
X141520273Y-75114051D01*
X141545273Y-75048807D01*
X141601577Y-75007436D01*
X141643873Y-75000000D01*
X142136127Y-75000000D01*
X142203166Y-75019685D01*
X142248921Y-75072489D01*
X142258865Y-75141647D01*
X142245485Y-75182454D01*
X142184769Y-75296043D01*
X142124699Y-75494067D01*
X142104417Y-75700000D01*
X142124699Y-75905932D01*
X142124700Y-75905934D01*
X142184768Y-76103954D01*
X142282315Y-76286450D01*
X142282317Y-76286452D01*
X142413589Y-76446410D01*
X142510209Y-76525702D01*
X142573550Y-76577685D01*
X142756046Y-76675232D01*
X142954066Y-76735300D01*
X142954065Y-76735300D01*
X142972529Y-76737118D01*
X143160000Y-76755583D01*
X143365934Y-76735300D01*
X143563954Y-76675232D01*
X143746450Y-76577685D01*
X143906410Y-76446410D01*
X144037685Y-76286450D01*
X144135232Y-76103954D01*
X144195300Y-75905934D01*
X144215583Y-75700000D01*
X144195300Y-75494066D01*
X144135232Y-75296046D01*
X144037685Y-75113550D01*
X143984552Y-75048807D01*
X143906410Y-74953589D01*
X143746451Y-74822315D01*
X143666045Y-74779336D01*
X143616202Y-74730373D01*
X143600500Y-74669979D01*
X143600500Y-59002290D01*
X143600500Y-59002289D01*
X143580021Y-58925862D01*
X143562601Y-58895689D01*
X143540464Y-58857346D01*
X143540458Y-58857338D01*
X142042661Y-57359541D01*
X142042653Y-57359535D01*
X141974144Y-57319982D01*
X141974139Y-57319979D01*
X141948662Y-57313152D01*
X141897711Y-57299500D01*
X141897709Y-57299500D01*
X138318296Y-57299500D01*
X138251257Y-57279815D01*
X138230615Y-57263181D01*
X137601975Y-56634541D01*
X137601974Y-56634540D01*
X137579873Y-56621780D01*
X137579871Y-56621778D01*
X137533454Y-56594980D01*
X137533453Y-56594979D01*
X137507976Y-56588152D01*
X137457025Y-56574500D01*
X137457023Y-56574500D01*
X134152611Y-56574500D01*
X134085572Y-56554815D01*
X134064930Y-56538181D01*
X134053225Y-56526476D01*
X134053221Y-56526473D01*
X134053220Y-56526472D01*
X133933126Y-56465281D01*
X133933124Y-56465280D01*
X133933121Y-56465279D01*
X133800002Y-56444196D01*
X133799998Y-56444196D01*
X133666878Y-56465279D01*
X133546778Y-56526473D01*
X133546774Y-56526476D01*
X133451476Y-56621774D01*
X133451473Y-56621778D01*
X133390279Y-56741878D01*
X133369196Y-56874997D01*
X133369196Y-56875002D01*
X133390279Y-57008121D01*
X133390280Y-57008124D01*
X133390281Y-57008126D01*
X133412369Y-57051476D01*
X133451473Y-57128221D01*
X133451476Y-57128225D01*
X133546774Y-57223523D01*
X133546778Y-57223526D01*
X133546780Y-57223528D01*
X133666874Y-57284719D01*
X133666876Y-57284719D01*
X133666878Y-57284720D01*
X133799998Y-57305804D01*
X133800000Y-57305804D01*
X133800002Y-57305804D01*
X133933121Y-57284720D01*
X133933121Y-57284719D01*
X133933126Y-57284719D01*
X134053220Y-57223528D01*
X134053225Y-57223523D01*
X134064930Y-57211819D01*
X134126253Y-57178334D01*
X134152611Y-57175500D01*
X137241630Y-57175500D01*
X137308669Y-57195185D01*
X137329311Y-57211819D01*
X137605311Y-57487819D01*
X137638796Y-57549142D01*
X137633812Y-57618834D01*
X137591940Y-57674767D01*
X137526476Y-57699184D01*
X137517630Y-57699500D01*
X130775833Y-57699500D01*
X130708794Y-57679815D01*
X130688152Y-57663181D01*
X130460391Y-57435420D01*
X130426906Y-57374097D01*
X130425599Y-57367136D01*
X130409720Y-57266878D01*
X130409719Y-57266876D01*
X130409719Y-57266874D01*
X130348528Y-57146780D01*
X130348526Y-57146778D01*
X130348523Y-57146774D01*
X130253225Y-57051476D01*
X130253221Y-57051473D01*
X130253220Y-57051472D01*
X130133126Y-56990281D01*
X130133124Y-56990280D01*
X130133121Y-56990279D01*
X130000002Y-56969196D01*
X129999998Y-56969196D01*
X129866878Y-56990279D01*
X129746778Y-57051473D01*
X129746774Y-57051476D01*
X129651476Y-57146774D01*
X129651473Y-57146778D01*
X129590279Y-57266878D01*
X129569196Y-57399997D01*
X110450500Y-57399997D01*
X110450500Y-53225013D01*
X112950000Y-53225013D01*
X112950000Y-53750000D01*
X113895854Y-53750000D01*
X113857370Y-53816657D01*
X113825000Y-53937465D01*
X113825000Y-54062535D01*
X113857370Y-54183343D01*
X113895854Y-54250000D01*
X112950001Y-54250000D01*
X112950001Y-54774986D01*
X112960494Y-54877697D01*
X113015641Y-55044119D01*
X113015643Y-55044124D01*
X113107684Y-55193345D01*
X113231654Y-55317315D01*
X113380875Y-55409356D01*
X113380880Y-55409358D01*
X113547302Y-55464505D01*
X113547309Y-55464506D01*
X113650019Y-55474999D01*
X114049999Y-55474999D01*
X114050000Y-55474998D01*
X114050000Y-54404145D01*
X114116657Y-54442630D01*
X114237465Y-54475000D01*
X114362535Y-54475000D01*
X114483343Y-54442630D01*
X114550000Y-54404145D01*
X114550000Y-55474999D01*
X114949972Y-55474999D01*
X114949986Y-55474998D01*
X115052697Y-55464505D01*
X115219119Y-55409358D01*
X115219124Y-55409356D01*
X115368345Y-55317315D01*
X115492315Y-55193345D01*
X115584356Y-55044124D01*
X115584358Y-55044119D01*
X115639505Y-54877697D01*
X115639506Y-54877690D01*
X115649999Y-54774986D01*
X115649999Y-54703528D01*
X115669683Y-54636488D01*
X115722486Y-54590732D01*
X115791644Y-54580788D01*
X115855200Y-54609812D01*
X115877101Y-54634635D01*
X115984022Y-54794655D01*
X116130342Y-54940975D01*
X116130345Y-54940977D01*
X116302402Y-55055941D01*
X116493580Y-55135130D01*
X116696530Y-55175499D01*
X116696534Y-55175500D01*
X116696535Y-55175500D01*
X116903466Y-55175500D01*
X116903467Y-55175499D01*
X117106420Y-55135130D01*
X117297598Y-55055941D01*
X117469655Y-54940977D01*
X117615977Y-54794655D01*
X117730941Y-54622598D01*
X117810130Y-54431420D01*
X117850500Y-54228465D01*
X117850500Y-53771535D01*
X117850499Y-53771530D01*
X118249500Y-53771530D01*
X118249500Y-54228469D01*
X118289868Y-54431412D01*
X118289870Y-54431420D01*
X118355859Y-54590732D01*
X118369059Y-54622598D01*
X118386385Y-54648528D01*
X118484024Y-54794657D01*
X118630342Y-54940975D01*
X118630345Y-54940977D01*
X118802402Y-55055941D01*
X118993580Y-55135130D01*
X119196530Y-55175499D01*
X119196534Y-55175500D01*
X119196535Y-55175500D01*
X119403466Y-55175500D01*
X119403467Y-55175499D01*
X119606420Y-55135130D01*
X119797598Y-55055941D01*
X119969655Y-54940977D01*
X120115977Y-54794655D01*
X120230941Y-54622598D01*
X120310130Y-54431420D01*
X120336271Y-54299997D01*
X127119196Y-54299997D01*
X127119196Y-54300002D01*
X127140279Y-54433121D01*
X127140280Y-54433124D01*
X127140281Y-54433126D01*
X127145124Y-54442630D01*
X127201473Y-54553221D01*
X127201476Y-54553225D01*
X127296774Y-54648523D01*
X127296778Y-54648526D01*
X127296780Y-54648528D01*
X127416874Y-54709719D01*
X127416876Y-54709719D01*
X127416878Y-54709720D01*
X127549998Y-54730804D01*
X127550000Y-54730804D01*
X127550002Y-54730804D01*
X127683121Y-54709720D01*
X127683121Y-54709719D01*
X127683126Y-54709719D01*
X127803220Y-54648528D01*
X127898528Y-54553220D01*
X127959719Y-54433126D01*
X127959989Y-54431420D01*
X127980804Y-54300002D01*
X127980804Y-54299997D01*
X127959720Y-54166878D01*
X127959719Y-54166876D01*
X127959719Y-54166874D01*
X127898528Y-54046780D01*
X127898526Y-54046778D01*
X127898523Y-54046774D01*
X127803225Y-53951476D01*
X127803221Y-53951473D01*
X127803220Y-53951472D01*
X127683126Y-53890281D01*
X127683124Y-53890280D01*
X127683121Y-53890279D01*
X127550002Y-53869196D01*
X127549998Y-53869196D01*
X127416878Y-53890279D01*
X127296778Y-53951473D01*
X127296774Y-53951476D01*
X127201476Y-54046774D01*
X127201473Y-54046778D01*
X127140279Y-54166878D01*
X127119196Y-54299997D01*
X120336271Y-54299997D01*
X120350500Y-54228465D01*
X120350500Y-53771535D01*
X120310130Y-53568580D01*
X120230941Y-53377402D01*
X120115977Y-53205345D01*
X120115975Y-53205342D01*
X119969657Y-53059024D01*
X119882069Y-53000500D01*
X119797598Y-52944059D01*
X119606420Y-52864870D01*
X119606412Y-52864868D01*
X119403469Y-52824500D01*
X119403465Y-52824500D01*
X119196535Y-52824500D01*
X119196530Y-52824500D01*
X118993587Y-52864868D01*
X118993579Y-52864870D01*
X118802403Y-52944058D01*
X118630342Y-53059024D01*
X118484024Y-53205342D01*
X118369058Y-53377403D01*
X118289870Y-53568579D01*
X118289868Y-53568587D01*
X118249500Y-53771530D01*
X117850499Y-53771530D01*
X117810130Y-53568580D01*
X117730941Y-53377402D01*
X117615977Y-53205345D01*
X117615975Y-53205342D01*
X117469657Y-53059024D01*
X117382069Y-53000500D01*
X117297598Y-52944059D01*
X117106420Y-52864870D01*
X117106412Y-52864868D01*
X116903469Y-52824500D01*
X116903465Y-52824500D01*
X116696535Y-52824500D01*
X116696530Y-52824500D01*
X116493587Y-52864868D01*
X116493579Y-52864870D01*
X116302403Y-52944058D01*
X116130342Y-53059024D01*
X115984024Y-53205342D01*
X115877102Y-53365365D01*
X115823489Y-53410171D01*
X115754165Y-53418878D01*
X115691137Y-53388724D01*
X115654417Y-53329281D01*
X115649999Y-53296475D01*
X115649999Y-53225028D01*
X115649998Y-53225012D01*
X115639505Y-53122302D01*
X115584358Y-52955880D01*
X115584356Y-52955875D01*
X115492315Y-52806654D01*
X115385658Y-52699997D01*
X130519196Y-52699997D01*
X130519196Y-52700002D01*
X130540279Y-52833121D01*
X130540280Y-52833124D01*
X130540281Y-52833126D01*
X130601472Y-52953220D01*
X130601473Y-52953221D01*
X130601476Y-52953225D01*
X130696774Y-53048523D01*
X130696778Y-53048526D01*
X130696780Y-53048528D01*
X130816874Y-53109719D01*
X130816876Y-53109719D01*
X130816878Y-53109720D01*
X130949998Y-53130804D01*
X130950000Y-53130804D01*
X130950002Y-53130804D01*
X131083121Y-53109720D01*
X131083121Y-53109719D01*
X131083126Y-53109719D01*
X131203220Y-53048528D01*
X131203225Y-53048523D01*
X131214930Y-53036819D01*
X131276253Y-53003334D01*
X131302611Y-53000500D01*
X138131704Y-53000500D01*
X138198743Y-53020185D01*
X138219385Y-53036819D01*
X145363181Y-60180615D01*
X145396666Y-60241938D01*
X145399500Y-60268296D01*
X145399500Y-74601421D01*
X145379815Y-74668460D01*
X145327011Y-74714215D01*
X145311496Y-74720081D01*
X145296046Y-74724767D01*
X145208112Y-74771770D01*
X145113550Y-74822315D01*
X145113548Y-74822316D01*
X145113547Y-74822317D01*
X144953589Y-74953589D01*
X144822317Y-75113547D01*
X144822315Y-75113550D01*
X144807297Y-75141647D01*
X144724769Y-75296043D01*
X144664699Y-75494067D01*
X144644417Y-75700000D01*
X144664699Y-75905932D01*
X144664700Y-75905934D01*
X144724768Y-76103954D01*
X144822315Y-76286450D01*
X144822317Y-76286452D01*
X144953589Y-76446410D01*
X145050209Y-76525702D01*
X145113550Y-76577685D01*
X145296046Y-76675232D01*
X145494066Y-76735300D01*
X145494065Y-76735300D01*
X145512529Y-76737118D01*
X145700000Y-76755583D01*
X145905934Y-76735300D01*
X146103954Y-76675232D01*
X146286450Y-76577685D01*
X146446410Y-76446410D01*
X146577685Y-76286450D01*
X146675232Y-76103954D01*
X146735300Y-75905934D01*
X146755583Y-75700000D01*
X146735300Y-75494066D01*
X146675232Y-75296046D01*
X146675230Y-75296043D01*
X146675230Y-75296041D01*
X146667967Y-75282453D01*
X146653725Y-75214050D01*
X146678725Y-75148807D01*
X146735030Y-75107436D01*
X146777325Y-75100000D01*
X147065500Y-75100000D01*
X147132539Y-75119685D01*
X147178294Y-75172489D01*
X147189500Y-75224000D01*
X147189500Y-76569752D01*
X147201131Y-76628229D01*
X147201132Y-76628230D01*
X147245447Y-76694552D01*
X147311769Y-76738867D01*
X147311770Y-76738868D01*
X147370247Y-76750499D01*
X147370250Y-76750500D01*
X147370252Y-76750500D01*
X149109750Y-76750500D01*
X149109751Y-76750499D01*
X149124568Y-76747552D01*
X149168229Y-76738868D01*
X149168229Y-76738867D01*
X149168231Y-76738867D01*
X149234552Y-76694552D01*
X149278867Y-76628231D01*
X149278867Y-76628229D01*
X149278868Y-76628229D01*
X149290499Y-76569752D01*
X149290500Y-76569750D01*
X149290500Y-74830249D01*
X149290499Y-74830247D01*
X149278868Y-74771770D01*
X149278867Y-74771769D01*
X149234552Y-74705447D01*
X149168230Y-74661132D01*
X149168229Y-74661131D01*
X149109752Y-74649500D01*
X149109748Y-74649500D01*
X147665833Y-74649500D01*
X147598794Y-74629815D01*
X147578152Y-74613181D01*
X146436819Y-73471848D01*
X146403334Y-73410525D01*
X146400500Y-73384167D01*
X146400500Y-62199997D01*
X149419196Y-62199997D01*
X149419196Y-62200002D01*
X149440279Y-62333121D01*
X149440280Y-62333124D01*
X149440281Y-62333126D01*
X149499909Y-62450152D01*
X149501473Y-62453221D01*
X149501476Y-62453225D01*
X149596774Y-62548523D01*
X149596778Y-62548526D01*
X149596780Y-62548528D01*
X149716874Y-62609719D01*
X149716876Y-62609719D01*
X149716878Y-62609720D01*
X149849998Y-62630804D01*
X149850000Y-62630804D01*
X149850002Y-62630804D01*
X149983121Y-62609720D01*
X149983121Y-62609719D01*
X149983126Y-62609719D01*
X150103220Y-62548528D01*
X150198528Y-62453220D01*
X150259719Y-62333126D01*
X150259720Y-62333121D01*
X150280804Y-62200002D01*
X150280804Y-62199997D01*
X150259720Y-62066878D01*
X150259719Y-62066876D01*
X150259719Y-62066874D01*
X150198528Y-61946780D01*
X150198526Y-61946778D01*
X150198523Y-61946774D01*
X150103225Y-61851476D01*
X150103221Y-61851473D01*
X150103220Y-61851472D01*
X149983126Y-61790281D01*
X149983124Y-61790280D01*
X149983121Y-61790279D01*
X149850002Y-61769196D01*
X149849998Y-61769196D01*
X149716878Y-61790279D01*
X149596778Y-61851473D01*
X149596774Y-61851476D01*
X149501476Y-61946774D01*
X149501473Y-61946778D01*
X149440279Y-62066878D01*
X149419196Y-62199997D01*
X146400500Y-62199997D01*
X146400500Y-58767976D01*
X146400500Y-58767975D01*
X146380021Y-58691548D01*
X146380017Y-58691541D01*
X146340464Y-58623032D01*
X146340458Y-58623024D01*
X139776973Y-52059539D01*
X139756533Y-52047738D01*
X139736092Y-52035937D01*
X139730249Y-52032563D01*
X139708453Y-52019979D01*
X139708454Y-52019979D01*
X139670238Y-52009739D01*
X139632025Y-51999500D01*
X139632023Y-51999500D01*
X131964813Y-51999500D01*
X131897774Y-51979815D01*
X131854329Y-51931795D01*
X131798528Y-51822279D01*
X131798525Y-51822276D01*
X131798523Y-51822273D01*
X131703225Y-51726975D01*
X131703221Y-51726972D01*
X131703220Y-51726971D01*
X131583126Y-51665780D01*
X131583124Y-51665779D01*
X131583121Y-51665778D01*
X131450002Y-51644695D01*
X131449998Y-51644695D01*
X131316878Y-51665778D01*
X131196778Y-51726972D01*
X131196774Y-51726975D01*
X131101476Y-51822273D01*
X131101473Y-51822277D01*
X131040279Y-51942377D01*
X131019196Y-52075496D01*
X131019196Y-52075501D01*
X131028032Y-52131290D01*
X131019077Y-52200584D01*
X130974081Y-52254036D01*
X130924958Y-52273161D01*
X130816877Y-52290279D01*
X130696778Y-52351473D01*
X130696774Y-52351476D01*
X130601476Y-52446774D01*
X130601473Y-52446778D01*
X130540279Y-52566878D01*
X130519196Y-52699997D01*
X115385658Y-52699997D01*
X115368345Y-52682684D01*
X115219124Y-52590643D01*
X115219119Y-52590641D01*
X115052697Y-52535494D01*
X115052690Y-52535493D01*
X114949986Y-52525000D01*
X114550000Y-52525000D01*
X114550000Y-53595854D01*
X114483343Y-53557370D01*
X114362535Y-53525000D01*
X114237465Y-53525000D01*
X114116657Y-53557370D01*
X114050000Y-53595854D01*
X114050000Y-52525000D01*
X113650028Y-52525000D01*
X113650012Y-52525001D01*
X113547302Y-52535494D01*
X113380880Y-52590641D01*
X113380875Y-52590643D01*
X113231654Y-52682684D01*
X113107684Y-52806654D01*
X113015643Y-52955875D01*
X113015641Y-52955880D01*
X112960494Y-53122302D01*
X112960493Y-53122309D01*
X112950000Y-53225013D01*
X110450500Y-53225013D01*
X110450500Y-48600000D01*
X113024355Y-48600000D01*
X113044859Y-48768869D01*
X113044860Y-48768874D01*
X113105182Y-48927931D01*
X113160500Y-49008071D01*
X113201817Y-49067929D01*
X113287678Y-49143995D01*
X113329150Y-49180736D01*
X113479773Y-49259789D01*
X113479775Y-49259790D01*
X113644944Y-49300500D01*
X113815056Y-49300500D01*
X113980225Y-49259790D01*
X114098641Y-49197640D01*
X114130849Y-49180736D01*
X114130850Y-49180734D01*
X114130852Y-49180734D01*
X114138771Y-49173717D01*
X114202001Y-49143995D01*
X114271265Y-49153175D01*
X114324102Y-49197640D01*
X114355447Y-49244552D01*
X114421769Y-49288867D01*
X114421770Y-49288868D01*
X114480247Y-49300499D01*
X114480250Y-49300500D01*
X114480252Y-49300500D01*
X115519750Y-49300500D01*
X115519751Y-49300499D01*
X115534568Y-49297552D01*
X115578229Y-49288868D01*
X115578229Y-49288867D01*
X115578231Y-49288867D01*
X115644552Y-49244552D01*
X115688867Y-49178231D01*
X115688867Y-49178229D01*
X115688868Y-49178229D01*
X115700499Y-49119752D01*
X115700500Y-49119750D01*
X115700500Y-48080249D01*
X115700499Y-48080247D01*
X115688868Y-48021770D01*
X115688867Y-48021769D01*
X115644552Y-47955447D01*
X115578230Y-47911132D01*
X115578229Y-47911131D01*
X115519752Y-47899500D01*
X115519748Y-47899500D01*
X114480252Y-47899500D01*
X114480247Y-47899500D01*
X114421770Y-47911131D01*
X114421769Y-47911132D01*
X114355448Y-47955446D01*
X114324102Y-48002360D01*
X114270489Y-48047164D01*
X114201164Y-48055871D01*
X114138773Y-48026283D01*
X114130852Y-48019266D01*
X114130850Y-48019264D01*
X113980226Y-47940210D01*
X113815056Y-47899500D01*
X113644944Y-47899500D01*
X113479773Y-47940210D01*
X113329150Y-48019263D01*
X113201816Y-48132072D01*
X113105182Y-48272068D01*
X113044860Y-48431125D01*
X113044859Y-48431130D01*
X113024355Y-48600000D01*
X110450500Y-48600000D01*
X110450500Y-47349999D01*
X120150884Y-47349999D01*
X120150885Y-47350000D01*
X121219670Y-47350000D01*
X121199925Y-47369745D01*
X121150556Y-47455255D01*
X121125000Y-47550630D01*
X121125000Y-47649370D01*
X121150556Y-47744745D01*
X121199925Y-47830255D01*
X121219670Y-47850000D01*
X120150885Y-47850000D01*
X120152085Y-47857584D01*
X120205591Y-48022255D01*
X120284195Y-48176524D01*
X120385967Y-48316602D01*
X120508397Y-48439032D01*
X120648475Y-48540804D01*
X120802742Y-48619408D01*
X120967415Y-48672914D01*
X121138429Y-48700000D01*
X121250000Y-48700000D01*
X121250000Y-47880330D01*
X121269745Y-47900075D01*
X121355255Y-47949444D01*
X121450630Y-47975000D01*
X121549370Y-47975000D01*
X121644745Y-47949444D01*
X121730255Y-47900075D01*
X121750000Y-47880330D01*
X121750000Y-48700000D01*
X121861571Y-48700000D01*
X122032584Y-48672914D01*
X122197257Y-48619408D01*
X122351524Y-48540804D01*
X122491602Y-48439032D01*
X122614032Y-48316602D01*
X122715804Y-48176524D01*
X122794408Y-48022255D01*
X122847914Y-47857584D01*
X122849115Y-47850000D01*
X121780330Y-47850000D01*
X121800075Y-47830255D01*
X121849444Y-47744745D01*
X121875000Y-47649370D01*
X121875000Y-47550630D01*
X121849444Y-47455255D01*
X121800075Y-47369745D01*
X121780330Y-47350000D01*
X122849115Y-47350000D01*
X122849115Y-47349999D01*
X122847914Y-47342415D01*
X122794408Y-47177744D01*
X122715804Y-47023475D01*
X122662422Y-46950000D01*
X126052970Y-46950000D01*
X126995854Y-46950000D01*
X126957370Y-47016657D01*
X126925000Y-47137465D01*
X126925000Y-47262535D01*
X126957370Y-47383343D01*
X126995854Y-47450000D01*
X126052970Y-47450000D01*
X126083242Y-47641127D01*
X126083242Y-47641130D01*
X126148904Y-47843217D01*
X126245379Y-48032557D01*
X126370272Y-48204459D01*
X126370276Y-48204464D01*
X126520535Y-48354723D01*
X126520540Y-48354727D01*
X126692442Y-48479620D01*
X126881782Y-48576095D01*
X127083871Y-48641757D01*
X127150000Y-48652231D01*
X127150000Y-47604145D01*
X127216657Y-47642630D01*
X127337465Y-47675000D01*
X127462535Y-47675000D01*
X127583343Y-47642630D01*
X127650000Y-47604145D01*
X127650000Y-48652230D01*
X127716126Y-48641757D01*
X127716129Y-48641757D01*
X127918217Y-48576095D01*
X128107557Y-48479620D01*
X128279459Y-48354727D01*
X128279464Y-48354723D01*
X128429723Y-48204464D01*
X128429727Y-48204459D01*
X128554620Y-48032557D01*
X128651095Y-47843217D01*
X128690759Y-47721144D01*
X128730196Y-47663469D01*
X128794555Y-47636270D01*
X128863401Y-47648184D01*
X128914877Y-47695428D01*
X128923251Y-47712009D01*
X128969057Y-47822596D01*
X129084024Y-47994657D01*
X129230342Y-48140975D01*
X129230345Y-48140977D01*
X129402402Y-48255941D01*
X129593580Y-48335130D01*
X129782187Y-48372646D01*
X129796530Y-48375499D01*
X129796534Y-48375500D01*
X129796535Y-48375500D01*
X130003466Y-48375500D01*
X130003467Y-48375499D01*
X130206420Y-48335130D01*
X130397598Y-48255941D01*
X130569655Y-48140977D01*
X130715977Y-47994655D01*
X130830941Y-47822598D01*
X130910130Y-47631420D01*
X130950500Y-47428465D01*
X130950500Y-46971535D01*
X130950499Y-46971530D01*
X131349500Y-46971530D01*
X131349500Y-47428469D01*
X131389868Y-47631412D01*
X131389870Y-47631420D01*
X131407921Y-47675000D01*
X131469059Y-47822598D01*
X131492436Y-47857584D01*
X131584024Y-47994657D01*
X131730342Y-48140975D01*
X131730345Y-48140977D01*
X131902402Y-48255941D01*
X132093580Y-48335130D01*
X132282187Y-48372646D01*
X132296530Y-48375499D01*
X132296534Y-48375500D01*
X132296535Y-48375500D01*
X132503466Y-48375500D01*
X132503467Y-48375499D01*
X132706420Y-48335130D01*
X132897598Y-48255941D01*
X133069655Y-48140977D01*
X133215977Y-47994655D01*
X133330941Y-47822598D01*
X133410130Y-47631420D01*
X133450500Y-47428465D01*
X133450500Y-46971535D01*
X133450499Y-46971530D01*
X133849500Y-46971530D01*
X133849500Y-47428469D01*
X133889868Y-47631412D01*
X133889870Y-47631420D01*
X133907921Y-47675000D01*
X133969059Y-47822598D01*
X133992436Y-47857584D01*
X134084024Y-47994657D01*
X134230342Y-48140975D01*
X134230345Y-48140977D01*
X134402402Y-48255941D01*
X134593580Y-48335130D01*
X134782187Y-48372646D01*
X134796530Y-48375499D01*
X134796534Y-48375500D01*
X134796535Y-48375500D01*
X135003466Y-48375500D01*
X135003467Y-48375499D01*
X135206420Y-48335130D01*
X135397598Y-48255941D01*
X135569655Y-48140977D01*
X135715977Y-47994655D01*
X135830941Y-47822598D01*
X135910130Y-47631420D01*
X135950500Y-47428465D01*
X135950500Y-46971535D01*
X135950499Y-46971530D01*
X136349500Y-46971530D01*
X136349500Y-47428469D01*
X136389868Y-47631412D01*
X136389870Y-47631420D01*
X136407921Y-47675000D01*
X136469059Y-47822598D01*
X136492436Y-47857584D01*
X136584024Y-47994657D01*
X136730342Y-48140975D01*
X136730345Y-48140977D01*
X136902402Y-48255941D01*
X137093580Y-48335130D01*
X137282187Y-48372646D01*
X137296530Y-48375499D01*
X137296534Y-48375500D01*
X137296535Y-48375500D01*
X137503466Y-48375500D01*
X137503467Y-48375499D01*
X137706420Y-48335130D01*
X137897598Y-48255941D01*
X138069655Y-48140977D01*
X138215977Y-47994655D01*
X138330941Y-47822598D01*
X138410130Y-47631420D01*
X138450500Y-47428465D01*
X138450500Y-46971535D01*
X138410130Y-46768580D01*
X138330941Y-46577402D01*
X138226257Y-46420730D01*
X138849500Y-46420730D01*
X138849500Y-47979269D01*
X138852353Y-48009699D01*
X138852353Y-48009701D01*
X138895174Y-48132072D01*
X138897207Y-48137882D01*
X138977850Y-48247150D01*
X139087118Y-48327793D01*
X139108089Y-48335131D01*
X139215299Y-48372646D01*
X139245730Y-48375500D01*
X139245734Y-48375500D01*
X140554270Y-48375500D01*
X140584699Y-48372646D01*
X140584701Y-48372646D01*
X140648790Y-48350219D01*
X140712882Y-48327793D01*
X140822150Y-48247150D01*
X140902793Y-48137882D01*
X140931490Y-48055871D01*
X140947646Y-48009701D01*
X140947646Y-48009699D01*
X140950500Y-47979269D01*
X140950500Y-46420730D01*
X140947646Y-46390300D01*
X140947646Y-46390298D01*
X140902793Y-46262119D01*
X140902792Y-46262117D01*
X140822150Y-46152850D01*
X140712882Y-46072207D01*
X140712880Y-46072206D01*
X140584700Y-46027353D01*
X140554270Y-46024500D01*
X140554266Y-46024500D01*
X139245734Y-46024500D01*
X139245730Y-46024500D01*
X139215300Y-46027353D01*
X139215298Y-46027353D01*
X139087119Y-46072206D01*
X139087117Y-46072207D01*
X138977850Y-46152850D01*
X138897207Y-46262117D01*
X138897206Y-46262119D01*
X138852353Y-46390298D01*
X138852353Y-46390300D01*
X138849500Y-46420730D01*
X138226257Y-46420730D01*
X138215977Y-46405345D01*
X138215975Y-46405342D01*
X138069657Y-46259024D01*
X137974638Y-46195535D01*
X137897598Y-46144059D01*
X137706420Y-46064870D01*
X137706412Y-46064868D01*
X137503469Y-46024500D01*
X137503465Y-46024500D01*
X137296535Y-46024500D01*
X137296530Y-46024500D01*
X137093587Y-46064868D01*
X137093579Y-46064870D01*
X136902403Y-46144058D01*
X136730342Y-46259024D01*
X136584024Y-46405342D01*
X136469058Y-46577403D01*
X136389870Y-46768579D01*
X136389868Y-46768587D01*
X136349500Y-46971530D01*
X135950499Y-46971530D01*
X135910130Y-46768580D01*
X135830941Y-46577402D01*
X135715977Y-46405345D01*
X135715975Y-46405342D01*
X135569657Y-46259024D01*
X135474638Y-46195535D01*
X135397598Y-46144059D01*
X135206420Y-46064870D01*
X135206412Y-46064868D01*
X135003469Y-46024500D01*
X135003465Y-46024500D01*
X134796535Y-46024500D01*
X134796530Y-46024500D01*
X134593587Y-46064868D01*
X134593579Y-46064870D01*
X134402403Y-46144058D01*
X134230342Y-46259024D01*
X134084024Y-46405342D01*
X133969058Y-46577403D01*
X133889870Y-46768579D01*
X133889868Y-46768587D01*
X133849500Y-46971530D01*
X133450499Y-46971530D01*
X133410130Y-46768580D01*
X133330941Y-46577402D01*
X133215977Y-46405345D01*
X133215975Y-46405342D01*
X133069657Y-46259024D01*
X132974638Y-46195535D01*
X132897598Y-46144059D01*
X132706420Y-46064870D01*
X132706412Y-46064868D01*
X132503469Y-46024500D01*
X132503465Y-46024500D01*
X132296535Y-46024500D01*
X132296530Y-46024500D01*
X132093587Y-46064868D01*
X132093579Y-46064870D01*
X131902403Y-46144058D01*
X131730342Y-46259024D01*
X131584024Y-46405342D01*
X131469058Y-46577403D01*
X131389870Y-46768579D01*
X131389868Y-46768587D01*
X131349500Y-46971530D01*
X130950499Y-46971530D01*
X130910130Y-46768580D01*
X130830941Y-46577402D01*
X130715977Y-46405345D01*
X130715975Y-46405342D01*
X130569657Y-46259024D01*
X130474638Y-46195535D01*
X130397598Y-46144059D01*
X130206420Y-46064870D01*
X130206412Y-46064868D01*
X130003469Y-46024500D01*
X130003465Y-46024500D01*
X129796535Y-46024500D01*
X129796530Y-46024500D01*
X129593587Y-46064868D01*
X129593579Y-46064870D01*
X129402403Y-46144058D01*
X129230342Y-46259024D01*
X129084024Y-46405342D01*
X128969057Y-46577404D01*
X128923251Y-46687990D01*
X128879409Y-46742394D01*
X128813115Y-46764458D01*
X128745416Y-46747178D01*
X128697806Y-46696041D01*
X128690759Y-46678855D01*
X128651095Y-46556782D01*
X128554620Y-46367442D01*
X128429727Y-46195540D01*
X128429723Y-46195535D01*
X128279464Y-46045276D01*
X128279459Y-46045272D01*
X128107557Y-45920379D01*
X127918215Y-45823903D01*
X127716124Y-45758241D01*
X127650000Y-45747768D01*
X127650000Y-46795854D01*
X127583343Y-46757370D01*
X127462535Y-46725000D01*
X127337465Y-46725000D01*
X127216657Y-46757370D01*
X127150000Y-46795854D01*
X127150000Y-45747768D01*
X127149999Y-45747768D01*
X127083875Y-45758241D01*
X126881784Y-45823903D01*
X126692442Y-45920379D01*
X126520540Y-46045272D01*
X126520535Y-46045276D01*
X126370276Y-46195535D01*
X126370272Y-46195540D01*
X126245379Y-46367442D01*
X126148904Y-46556782D01*
X126083242Y-46758869D01*
X126083242Y-46758872D01*
X126052970Y-46950000D01*
X122662422Y-46950000D01*
X122614032Y-46883397D01*
X122491602Y-46760967D01*
X122351524Y-46659195D01*
X122197255Y-46580591D01*
X122125869Y-46557396D01*
X122068193Y-46517958D01*
X122040995Y-46453600D01*
X122052910Y-46384753D01*
X122100154Y-46333278D01*
X122116735Y-46324904D01*
X122154173Y-46309397D01*
X122154176Y-46309395D01*
X122154179Y-46309394D01*
X122285289Y-46221789D01*
X122396789Y-46110289D01*
X122484394Y-45979179D01*
X122544737Y-45833497D01*
X122575500Y-45678842D01*
X122575500Y-45521158D01*
X122575500Y-45521155D01*
X122575499Y-45521153D01*
X122544738Y-45366510D01*
X122544737Y-45366503D01*
X122544735Y-45366498D01*
X122484397Y-45220827D01*
X122484390Y-45220814D01*
X122396789Y-45089711D01*
X122396786Y-45089707D01*
X122285292Y-44978213D01*
X122285288Y-44978210D01*
X122154185Y-44890609D01*
X122154172Y-44890602D01*
X122008501Y-44830264D01*
X122008489Y-44830261D01*
X121853845Y-44799500D01*
X121853842Y-44799500D01*
X121146158Y-44799500D01*
X121146155Y-44799500D01*
X120991510Y-44830261D01*
X120991498Y-44830264D01*
X120845827Y-44890602D01*
X120845814Y-44890609D01*
X120714711Y-44978210D01*
X120714707Y-44978213D01*
X120603213Y-45089707D01*
X120603210Y-45089711D01*
X120515609Y-45220814D01*
X120515602Y-45220827D01*
X120455264Y-45366498D01*
X120455261Y-45366510D01*
X120424500Y-45521153D01*
X120424500Y-45678846D01*
X120455261Y-45833489D01*
X120455264Y-45833501D01*
X120515602Y-45979172D01*
X120515609Y-45979185D01*
X120603210Y-46110288D01*
X120603213Y-46110292D01*
X120714707Y-46221786D01*
X120714711Y-46221789D01*
X120845814Y-46309390D01*
X120845823Y-46309395D01*
X120883265Y-46324904D01*
X120937668Y-46368745D01*
X120959733Y-46435039D01*
X120942454Y-46502738D01*
X120891317Y-46550349D01*
X120874131Y-46557396D01*
X120802742Y-46580591D01*
X120648475Y-46659195D01*
X120508397Y-46760967D01*
X120385967Y-46883397D01*
X120284195Y-47023475D01*
X120205591Y-47177744D01*
X120152085Y-47342415D01*
X120150884Y-47349999D01*
X110450500Y-47349999D01*
X110450500Y-41602871D01*
X110450566Y-41600000D01*
X111194958Y-41600000D01*
X111215110Y-41958846D01*
X111215112Y-41958858D01*
X111275314Y-42313185D01*
X111275316Y-42313194D01*
X111374812Y-42658552D01*
X111512353Y-42990609D01*
X111512355Y-42990613D01*
X111686215Y-43305189D01*
X111686218Y-43305194D01*
X111894193Y-43598306D01*
X111966843Y-43679601D01*
X113284728Y-42361716D01*
X113370278Y-42479466D01*
X113520534Y-42629722D01*
X113638281Y-42715270D01*
X112320397Y-44033155D01*
X112401693Y-44105806D01*
X112694805Y-44313781D01*
X112694810Y-44313784D01*
X113009386Y-44487644D01*
X113009390Y-44487646D01*
X113341447Y-44625187D01*
X113686805Y-44724683D01*
X113686814Y-44724685D01*
X114041141Y-44784887D01*
X114041153Y-44784889D01*
X114400000Y-44805041D01*
X114758846Y-44784889D01*
X114758858Y-44784887D01*
X115113185Y-44724685D01*
X115113194Y-44724683D01*
X115458552Y-44625187D01*
X115790609Y-44487646D01*
X115790613Y-44487644D01*
X116105189Y-44313784D01*
X116105194Y-44313781D01*
X116398306Y-44105806D01*
X116479601Y-44033155D01*
X115161717Y-42715270D01*
X115279466Y-42629722D01*
X115429722Y-42479466D01*
X115515270Y-42361717D01*
X116833155Y-43679601D01*
X116905806Y-43598306D01*
X116960549Y-43521153D01*
X120424500Y-43521153D01*
X120424500Y-43678846D01*
X120455261Y-43833489D01*
X120455264Y-43833501D01*
X120515602Y-43979172D01*
X120515609Y-43979185D01*
X120603210Y-44110288D01*
X120603213Y-44110292D01*
X120714707Y-44221786D01*
X120714711Y-44221789D01*
X120845814Y-44309390D01*
X120845827Y-44309397D01*
X120991498Y-44369735D01*
X120991503Y-44369737D01*
X121146153Y-44400499D01*
X121146156Y-44400500D01*
X121146158Y-44400500D01*
X121853844Y-44400500D01*
X121853845Y-44400499D01*
X122008497Y-44369737D01*
X122154179Y-44309394D01*
X122285289Y-44221789D01*
X122396789Y-44110289D01*
X122484394Y-43979179D01*
X122544737Y-43833497D01*
X122575500Y-43678842D01*
X122575500Y-43521158D01*
X122575500Y-43521155D01*
X122575499Y-43521153D01*
X122544738Y-43366510D01*
X122544737Y-43366503D01*
X122519340Y-43305189D01*
X122484397Y-43220827D01*
X122484390Y-43220814D01*
X122396789Y-43089711D01*
X122396786Y-43089707D01*
X122285292Y-42978213D01*
X122285288Y-42978210D01*
X122154185Y-42890609D01*
X122154172Y-42890602D01*
X122008501Y-42830264D01*
X122008489Y-42830261D01*
X121853845Y-42799500D01*
X121853842Y-42799500D01*
X121146158Y-42799500D01*
X121146155Y-42799500D01*
X120991510Y-42830261D01*
X120991498Y-42830264D01*
X120845827Y-42890602D01*
X120845814Y-42890609D01*
X120714711Y-42978210D01*
X120714707Y-42978213D01*
X120603213Y-43089707D01*
X120603210Y-43089711D01*
X120515609Y-43220814D01*
X120515602Y-43220827D01*
X120455264Y-43366498D01*
X120455261Y-43366510D01*
X120424500Y-43521153D01*
X116960549Y-43521153D01*
X117113781Y-43305194D01*
X117113784Y-43305189D01*
X117287644Y-42990613D01*
X117287646Y-42990609D01*
X117425187Y-42658552D01*
X117524683Y-42313194D01*
X117524685Y-42313185D01*
X117584887Y-41958858D01*
X117584889Y-41958846D01*
X117605041Y-41600000D01*
X117584889Y-41241153D01*
X117584887Y-41241141D01*
X117577171Y-41195730D01*
X120424500Y-41195730D01*
X120424500Y-42004269D01*
X120427353Y-42034699D01*
X120427353Y-42034701D01*
X120472206Y-42162880D01*
X120472207Y-42162882D01*
X120552850Y-42272150D01*
X120662118Y-42352793D01*
X120704845Y-42367744D01*
X120790299Y-42397646D01*
X120820730Y-42400500D01*
X120820734Y-42400500D01*
X122179270Y-42400500D01*
X122209699Y-42397646D01*
X122209701Y-42397646D01*
X122273790Y-42375219D01*
X122337882Y-42352793D01*
X122447150Y-42272150D01*
X122527793Y-42162882D01*
X122550219Y-42098790D01*
X122572646Y-42034701D01*
X122572646Y-42034699D01*
X122575500Y-42004269D01*
X122575500Y-41600000D01*
X143794958Y-41600000D01*
X143815110Y-41958846D01*
X143815112Y-41958858D01*
X143875314Y-42313185D01*
X143875316Y-42313194D01*
X143974812Y-42658552D01*
X144112353Y-42990609D01*
X144112355Y-42990613D01*
X144286215Y-43305189D01*
X144286218Y-43305194D01*
X144494193Y-43598306D01*
X144566843Y-43679601D01*
X145884728Y-42361716D01*
X145970278Y-42479466D01*
X146120534Y-42629722D01*
X146238281Y-42715270D01*
X144920397Y-44033155D01*
X145001693Y-44105806D01*
X145294805Y-44313781D01*
X145294810Y-44313784D01*
X145609386Y-44487644D01*
X145609390Y-44487646D01*
X145941447Y-44625187D01*
X146286805Y-44724683D01*
X146286814Y-44724685D01*
X146641141Y-44784887D01*
X146641153Y-44784889D01*
X147000000Y-44805041D01*
X147358846Y-44784889D01*
X147358858Y-44784887D01*
X147713185Y-44724685D01*
X147713194Y-44724683D01*
X148058552Y-44625187D01*
X148390609Y-44487646D01*
X148390613Y-44487644D01*
X148705189Y-44313784D01*
X148705194Y-44313781D01*
X148998306Y-44105806D01*
X149079601Y-44033155D01*
X147761717Y-42715270D01*
X147879466Y-42629722D01*
X148029722Y-42479466D01*
X148115270Y-42361717D01*
X149433155Y-43679601D01*
X149505806Y-43598306D01*
X149713781Y-43305194D01*
X149713784Y-43305189D01*
X149887644Y-42990613D01*
X149887646Y-42990609D01*
X150025187Y-42658552D01*
X150124683Y-42313194D01*
X150124685Y-42313185D01*
X150184887Y-41958858D01*
X150184889Y-41958846D01*
X150205041Y-41600000D01*
X150184889Y-41241153D01*
X150184887Y-41241141D01*
X150124685Y-40886814D01*
X150124683Y-40886805D01*
X150025187Y-40541447D01*
X149887646Y-40209390D01*
X149887644Y-40209386D01*
X149713784Y-39894810D01*
X149713781Y-39894805D01*
X149505806Y-39601693D01*
X149433155Y-39520397D01*
X148115270Y-40838281D01*
X148029722Y-40720534D01*
X147879466Y-40570278D01*
X147761717Y-40484728D01*
X149079602Y-39166843D01*
X148998306Y-39094193D01*
X148705194Y-38886218D01*
X148705189Y-38886215D01*
X148390613Y-38712355D01*
X148390609Y-38712353D01*
X148058552Y-38574812D01*
X147713194Y-38475316D01*
X147713185Y-38475314D01*
X147358858Y-38415112D01*
X147358846Y-38415110D01*
X147000000Y-38394958D01*
X146641153Y-38415110D01*
X146641141Y-38415112D01*
X146286814Y-38475314D01*
X146286805Y-38475316D01*
X145941447Y-38574812D01*
X145609390Y-38712353D01*
X145609386Y-38712355D01*
X145294810Y-38886215D01*
X145294805Y-38886218D01*
X145001693Y-39094194D01*
X145001685Y-39094199D01*
X144920397Y-39166842D01*
X144920397Y-39166843D01*
X146238282Y-40484728D01*
X146120534Y-40570278D01*
X145970278Y-40720534D01*
X145884728Y-40838282D01*
X144566843Y-39520397D01*
X144566842Y-39520397D01*
X144494199Y-39601685D01*
X144494194Y-39601693D01*
X144286218Y-39894805D01*
X144286215Y-39894810D01*
X144112355Y-40209386D01*
X144112353Y-40209390D01*
X143974812Y-40541447D01*
X143875316Y-40886805D01*
X143875314Y-40886814D01*
X143815112Y-41241141D01*
X143815110Y-41241153D01*
X143794958Y-41600000D01*
X122575500Y-41600000D01*
X122575500Y-41195730D01*
X122572646Y-41165300D01*
X122572646Y-41165298D01*
X122527793Y-41037119D01*
X122527792Y-41037117D01*
X122514082Y-41018540D01*
X122447150Y-40927850D01*
X122337882Y-40847207D01*
X122337880Y-40847206D01*
X122209700Y-40802353D01*
X122179270Y-40799500D01*
X122179266Y-40799500D01*
X120820734Y-40799500D01*
X120820730Y-40799500D01*
X120790300Y-40802353D01*
X120790298Y-40802353D01*
X120662119Y-40847206D01*
X120662117Y-40847207D01*
X120552850Y-40927850D01*
X120472207Y-41037117D01*
X120472206Y-41037119D01*
X120427353Y-41165298D01*
X120427353Y-41165300D01*
X120424500Y-41195730D01*
X117577171Y-41195730D01*
X117524685Y-40886814D01*
X117524683Y-40886805D01*
X117425187Y-40541447D01*
X117287646Y-40209390D01*
X117287644Y-40209386D01*
X117113784Y-39894810D01*
X117113781Y-39894805D01*
X116905806Y-39601693D01*
X116833155Y-39520397D01*
X115515270Y-40838281D01*
X115429722Y-40720534D01*
X115279466Y-40570278D01*
X115161717Y-40484728D01*
X116479602Y-39166843D01*
X116398306Y-39094193D01*
X116105194Y-38886218D01*
X116105189Y-38886215D01*
X115790613Y-38712355D01*
X115790609Y-38712353D01*
X115458552Y-38574812D01*
X115113194Y-38475316D01*
X115113185Y-38475314D01*
X114758858Y-38415112D01*
X114758846Y-38415110D01*
X114400000Y-38394958D01*
X114041153Y-38415110D01*
X114041141Y-38415112D01*
X113686814Y-38475314D01*
X113686805Y-38475316D01*
X113341447Y-38574812D01*
X113009390Y-38712353D01*
X113009386Y-38712355D01*
X112694810Y-38886215D01*
X112694805Y-38886218D01*
X112401693Y-39094194D01*
X112401685Y-39094199D01*
X112320397Y-39166842D01*
X112320397Y-39166843D01*
X113638282Y-40484728D01*
X113520534Y-40570278D01*
X113370278Y-40720534D01*
X113284728Y-40838282D01*
X111966843Y-39520397D01*
X111966842Y-39520397D01*
X111894199Y-39601685D01*
X111894194Y-39601693D01*
X111686218Y-39894805D01*
X111686215Y-39894810D01*
X111512355Y-40209386D01*
X111512353Y-40209390D01*
X111374812Y-40541447D01*
X111275316Y-40886805D01*
X111275314Y-40886814D01*
X111215112Y-41241141D01*
X111215110Y-41241153D01*
X111194958Y-41600000D01*
X110450566Y-41600000D01*
X110450632Y-41597144D01*
X110455412Y-41493753D01*
X110467083Y-41241300D01*
X110468140Y-41229905D01*
X110472907Y-41195734D01*
X110516958Y-40879944D01*
X110519058Y-40868708D01*
X110599961Y-40524732D01*
X110603084Y-40513753D01*
X110715387Y-40178685D01*
X110719510Y-40168046D01*
X110862245Y-39844781D01*
X110867328Y-39834572D01*
X111039278Y-39525862D01*
X111045304Y-39516130D01*
X111244999Y-39224612D01*
X111251881Y-39215498D01*
X111477636Y-38943630D01*
X111485332Y-38935190D01*
X111735190Y-38685332D01*
X111743630Y-38677636D01*
X112015498Y-38451881D01*
X112024612Y-38444999D01*
X112316136Y-38245300D01*
X112325862Y-38239278D01*
X112634572Y-38067328D01*
X112644781Y-38062245D01*
X112968046Y-37919510D01*
X112978685Y-37915387D01*
X113313753Y-37803084D01*
X113324732Y-37799961D01*
X113668708Y-37719058D01*
X113679944Y-37716958D01*
X114029914Y-37668139D01*
X114041300Y-37667083D01*
X114397145Y-37650632D01*
X114402872Y-37650500D01*
X114444170Y-37650500D01*
X146955830Y-37650500D01*
X146997128Y-37650500D01*
X147002855Y-37650632D01*
G37*
%TD.AperFunction*%
%TD*%
%TA.AperFunction,Conductor*%
%TO.N,+3.3V*%
G36*
X127543039Y-63569685D02*
G01*
X127588794Y-63622489D01*
X127600000Y-63674000D01*
X127600000Y-64725500D01*
X127580315Y-64792539D01*
X127527511Y-64838294D01*
X127476000Y-64849500D01*
X126992747Y-64849500D01*
X126934270Y-64861131D01*
X126934269Y-64861132D01*
X126867947Y-64905447D01*
X126823632Y-64971769D01*
X126823631Y-64971770D01*
X126812000Y-65030247D01*
X126812000Y-65669752D01*
X126823631Y-65728229D01*
X126823632Y-65728230D01*
X126867947Y-65794552D01*
X126934269Y-65838867D01*
X126934270Y-65838868D01*
X126992747Y-65850499D01*
X126992750Y-65850500D01*
X126992752Y-65850500D01*
X127932247Y-65850500D01*
X127932248Y-65850500D01*
X127951808Y-65846609D01*
X128021397Y-65852835D01*
X128076576Y-65895696D01*
X128099822Y-65961585D01*
X128100000Y-65968226D01*
X128100000Y-67350000D01*
X131975500Y-67350000D01*
X132042539Y-67369685D01*
X132088294Y-67422489D01*
X132099500Y-67474000D01*
X132099500Y-70377032D01*
X132079815Y-70444071D01*
X132027011Y-70489826D01*
X131976533Y-70501028D01*
X126225033Y-70548958D01*
X126157832Y-70529832D01*
X126111639Y-70477412D01*
X126100000Y-70424962D01*
X126100000Y-63674000D01*
X126119685Y-63606961D01*
X126172489Y-63561206D01*
X126224000Y-63550000D01*
X127476000Y-63550000D01*
X127543039Y-63569685D01*
G37*
%TD.AperFunction*%
%TD*%
M02*
