%TF.GenerationSoftware,KiCad,Pcbnew,8.0.8*%
%TF.CreationDate,2025-02-05T17:51:18+01:00*%
%TF.ProjectId,Janus_finalV,4a616e75-735f-4666-996e-616c562e6b69,rev?*%
%TF.SameCoordinates,Original*%
%TF.FileFunction,Legend,Bot*%
%TF.FilePolarity,Positive*%
%FSLAX46Y46*%
G04 Gerber Fmt 4.6, Leading zero omitted, Abs format (unit mm)*
G04 Created by KiCad (PCBNEW 8.0.8) date 2025-02-05 17:51:18*
%MOMM*%
%LPD*%
G01*
G04 APERTURE LIST*
%ADD10C,0.150000*%
%ADD11C,0.120000*%
%ADD12C,0.200000*%
G04 APERTURE END LIST*
D10*
X126211904Y-72604819D02*
X125640476Y-72604819D01*
X125926190Y-73604819D02*
X125926190Y-72604819D01*
X125307142Y-73604819D02*
X125307142Y-72604819D01*
X125307142Y-72604819D02*
X124926190Y-72604819D01*
X124926190Y-72604819D02*
X124830952Y-72652438D01*
X124830952Y-72652438D02*
X124783333Y-72700057D01*
X124783333Y-72700057D02*
X124735714Y-72795295D01*
X124735714Y-72795295D02*
X124735714Y-72938152D01*
X124735714Y-72938152D02*
X124783333Y-73033390D01*
X124783333Y-73033390D02*
X124830952Y-73081009D01*
X124830952Y-73081009D02*
X124926190Y-73128628D01*
X124926190Y-73128628D02*
X125307142Y-73128628D01*
X124354761Y-72700057D02*
X124307142Y-72652438D01*
X124307142Y-72652438D02*
X124211904Y-72604819D01*
X124211904Y-72604819D02*
X123973809Y-72604819D01*
X123973809Y-72604819D02*
X123878571Y-72652438D01*
X123878571Y-72652438D02*
X123830952Y-72700057D01*
X123830952Y-72700057D02*
X123783333Y-72795295D01*
X123783333Y-72795295D02*
X123783333Y-72890533D01*
X123783333Y-72890533D02*
X123830952Y-73033390D01*
X123830952Y-73033390D02*
X124402380Y-73604819D01*
X124402380Y-73604819D02*
X123783333Y-73604819D01*
X128983333Y-80604819D02*
X128983333Y-81319104D01*
X128983333Y-81319104D02*
X129030952Y-81461961D01*
X129030952Y-81461961D02*
X129126190Y-81557200D01*
X129126190Y-81557200D02*
X129269047Y-81604819D01*
X129269047Y-81604819D02*
X129364285Y-81604819D01*
X128459523Y-81604819D02*
X128269047Y-81604819D01*
X128269047Y-81604819D02*
X128173809Y-81557200D01*
X128173809Y-81557200D02*
X128126190Y-81509580D01*
X128126190Y-81509580D02*
X128030952Y-81366723D01*
X128030952Y-81366723D02*
X127983333Y-81176247D01*
X127983333Y-81176247D02*
X127983333Y-80795295D01*
X127983333Y-80795295D02*
X128030952Y-80700057D01*
X128030952Y-80700057D02*
X128078571Y-80652438D01*
X128078571Y-80652438D02*
X128173809Y-80604819D01*
X128173809Y-80604819D02*
X128364285Y-80604819D01*
X128364285Y-80604819D02*
X128459523Y-80652438D01*
X128459523Y-80652438D02*
X128507142Y-80700057D01*
X128507142Y-80700057D02*
X128554761Y-80795295D01*
X128554761Y-80795295D02*
X128554761Y-81033390D01*
X128554761Y-81033390D02*
X128507142Y-81128628D01*
X128507142Y-81128628D02*
X128459523Y-81176247D01*
X128459523Y-81176247D02*
X128364285Y-81223866D01*
X128364285Y-81223866D02*
X128173809Y-81223866D01*
X128173809Y-81223866D02*
X128078571Y-81176247D01*
X128078571Y-81176247D02*
X128030952Y-81128628D01*
X128030952Y-81128628D02*
X127983333Y-81033390D01*
X123754819Y-78466666D02*
X124469104Y-78466666D01*
X124469104Y-78466666D02*
X124611961Y-78419047D01*
X124611961Y-78419047D02*
X124707200Y-78323809D01*
X124707200Y-78323809D02*
X124754819Y-78180952D01*
X124754819Y-78180952D02*
X124754819Y-78085714D01*
X124754819Y-79466666D02*
X124754819Y-78895238D01*
X124754819Y-79180952D02*
X123754819Y-79180952D01*
X123754819Y-79180952D02*
X123897676Y-79085714D01*
X123897676Y-79085714D02*
X123992914Y-78990476D01*
X123992914Y-78990476D02*
X124040533Y-78895238D01*
X117254819Y-71538095D02*
X117254819Y-72109523D01*
X118254819Y-71823809D02*
X117254819Y-71823809D01*
X118254819Y-72442857D02*
X117254819Y-72442857D01*
X117254819Y-72442857D02*
X117254819Y-72823809D01*
X117254819Y-72823809D02*
X117302438Y-72919047D01*
X117302438Y-72919047D02*
X117350057Y-72966666D01*
X117350057Y-72966666D02*
X117445295Y-73014285D01*
X117445295Y-73014285D02*
X117588152Y-73014285D01*
X117588152Y-73014285D02*
X117683390Y-72966666D01*
X117683390Y-72966666D02*
X117731009Y-72919047D01*
X117731009Y-72919047D02*
X117778628Y-72823809D01*
X117778628Y-72823809D02*
X117778628Y-72442857D01*
X118254819Y-73966666D02*
X118254819Y-73395238D01*
X118254819Y-73680952D02*
X117254819Y-73680952D01*
X117254819Y-73680952D02*
X117397676Y-73585714D01*
X117397676Y-73585714D02*
X117492914Y-73490476D01*
X117492914Y-73490476D02*
X117540533Y-73395238D01*
X139309523Y-80604819D02*
X139309523Y-81319104D01*
X139309523Y-81319104D02*
X139357142Y-81461961D01*
X139357142Y-81461961D02*
X139452380Y-81557200D01*
X139452380Y-81557200D02*
X139595237Y-81604819D01*
X139595237Y-81604819D02*
X139690475Y-81604819D01*
X138309523Y-81604819D02*
X138880951Y-81604819D01*
X138595237Y-81604819D02*
X138595237Y-80604819D01*
X138595237Y-80604819D02*
X138690475Y-80747676D01*
X138690475Y-80747676D02*
X138785713Y-80842914D01*
X138785713Y-80842914D02*
X138880951Y-80890533D01*
X137690475Y-80604819D02*
X137595237Y-80604819D01*
X137595237Y-80604819D02*
X137499999Y-80652438D01*
X137499999Y-80652438D02*
X137452380Y-80700057D01*
X137452380Y-80700057D02*
X137404761Y-80795295D01*
X137404761Y-80795295D02*
X137357142Y-80985771D01*
X137357142Y-80985771D02*
X137357142Y-81223866D01*
X137357142Y-81223866D02*
X137404761Y-81414342D01*
X137404761Y-81414342D02*
X137452380Y-81509580D01*
X137452380Y-81509580D02*
X137499999Y-81557200D01*
X137499999Y-81557200D02*
X137595237Y-81604819D01*
X137595237Y-81604819D02*
X137690475Y-81604819D01*
X137690475Y-81604819D02*
X137785713Y-81557200D01*
X137785713Y-81557200D02*
X137833332Y-81509580D01*
X137833332Y-81509580D02*
X137880951Y-81414342D01*
X137880951Y-81414342D02*
X137928570Y-81223866D01*
X137928570Y-81223866D02*
X137928570Y-80985771D01*
X137928570Y-80985771D02*
X137880951Y-80795295D01*
X137880951Y-80795295D02*
X137833332Y-80700057D01*
X137833332Y-80700057D02*
X137785713Y-80652438D01*
X137785713Y-80652438D02*
X137690475Y-80604819D01*
X122554819Y-65666666D02*
X123269104Y-65666666D01*
X123269104Y-65666666D02*
X123411961Y-65619047D01*
X123411961Y-65619047D02*
X123507200Y-65523809D01*
X123507200Y-65523809D02*
X123554819Y-65380952D01*
X123554819Y-65380952D02*
X123554819Y-65285714D01*
X122554819Y-66047619D02*
X122554819Y-66666666D01*
X122554819Y-66666666D02*
X122935771Y-66333333D01*
X122935771Y-66333333D02*
X122935771Y-66476190D01*
X122935771Y-66476190D02*
X122983390Y-66571428D01*
X122983390Y-66571428D02*
X123031009Y-66619047D01*
X123031009Y-66619047D02*
X123126247Y-66666666D01*
X123126247Y-66666666D02*
X123364342Y-66666666D01*
X123364342Y-66666666D02*
X123459580Y-66619047D01*
X123459580Y-66619047D02*
X123507200Y-66571428D01*
X123507200Y-66571428D02*
X123554819Y-66476190D01*
X123554819Y-66476190D02*
X123554819Y-66190476D01*
X123554819Y-66190476D02*
X123507200Y-66095238D01*
X123507200Y-66095238D02*
X123459580Y-66047619D01*
X127566666Y-62959580D02*
X127614285Y-63007200D01*
X127614285Y-63007200D02*
X127757142Y-63054819D01*
X127757142Y-63054819D02*
X127852380Y-63054819D01*
X127852380Y-63054819D02*
X127995237Y-63007200D01*
X127995237Y-63007200D02*
X128090475Y-62911961D01*
X128090475Y-62911961D02*
X128138094Y-62816723D01*
X128138094Y-62816723D02*
X128185713Y-62626247D01*
X128185713Y-62626247D02*
X128185713Y-62483390D01*
X128185713Y-62483390D02*
X128138094Y-62292914D01*
X128138094Y-62292914D02*
X128090475Y-62197676D01*
X128090475Y-62197676D02*
X127995237Y-62102438D01*
X127995237Y-62102438D02*
X127852380Y-62054819D01*
X127852380Y-62054819D02*
X127757142Y-62054819D01*
X127757142Y-62054819D02*
X127614285Y-62102438D01*
X127614285Y-62102438D02*
X127566666Y-62150057D01*
X127185713Y-62150057D02*
X127138094Y-62102438D01*
X127138094Y-62102438D02*
X127042856Y-62054819D01*
X127042856Y-62054819D02*
X126804761Y-62054819D01*
X126804761Y-62054819D02*
X126709523Y-62102438D01*
X126709523Y-62102438D02*
X126661904Y-62150057D01*
X126661904Y-62150057D02*
X126614285Y-62245295D01*
X126614285Y-62245295D02*
X126614285Y-62340533D01*
X126614285Y-62340533D02*
X126661904Y-62483390D01*
X126661904Y-62483390D02*
X127233332Y-63054819D01*
X127233332Y-63054819D02*
X126614285Y-63054819D01*
X123559580Y-62633333D02*
X123607200Y-62585714D01*
X123607200Y-62585714D02*
X123654819Y-62442857D01*
X123654819Y-62442857D02*
X123654819Y-62347619D01*
X123654819Y-62347619D02*
X123607200Y-62204762D01*
X123607200Y-62204762D02*
X123511961Y-62109524D01*
X123511961Y-62109524D02*
X123416723Y-62061905D01*
X123416723Y-62061905D02*
X123226247Y-62014286D01*
X123226247Y-62014286D02*
X123083390Y-62014286D01*
X123083390Y-62014286D02*
X122892914Y-62061905D01*
X122892914Y-62061905D02*
X122797676Y-62109524D01*
X122797676Y-62109524D02*
X122702438Y-62204762D01*
X122702438Y-62204762D02*
X122654819Y-62347619D01*
X122654819Y-62347619D02*
X122654819Y-62442857D01*
X122654819Y-62442857D02*
X122702438Y-62585714D01*
X122702438Y-62585714D02*
X122750057Y-62633333D01*
X123654819Y-63585714D02*
X123654819Y-63014286D01*
X123654819Y-63300000D02*
X122654819Y-63300000D01*
X122654819Y-63300000D02*
X122797676Y-63204762D01*
X122797676Y-63204762D02*
X122892914Y-63109524D01*
X122892914Y-63109524D02*
X122940533Y-63014286D01*
D11*
%TO.C,TP2*%
X127300000Y-71100000D02*
G75*
G02*
X124900000Y-71100000I-1200000J0D01*
G01*
X124900000Y-71100000D02*
G75*
G02*
X127300000Y-71100000I1200000J0D01*
G01*
%TO.C,J9*%
X124840000Y-82240000D02*
X124840000Y-88210000D01*
X124840000Y-88210000D02*
X132460000Y-88210000D01*
X124850000Y-82250000D02*
X124850000Y-83000000D01*
X124850000Y-83000000D02*
X126650000Y-83000000D01*
X125600000Y-84500000D02*
X124850000Y-84500000D01*
X125600000Y-87450000D02*
X125600000Y-84500000D01*
X126650000Y-82250000D02*
X124850000Y-82250000D01*
X126650000Y-83000000D02*
X126650000Y-82250000D01*
X128150000Y-82250000D02*
X128150000Y-83000000D01*
X128150000Y-83000000D02*
X129150000Y-83000000D01*
X128650000Y-87450000D02*
X125600000Y-87450000D01*
X128650000Y-87450000D02*
X131700000Y-87450000D01*
X129150000Y-82250000D02*
X128150000Y-82250000D01*
X129150000Y-83000000D02*
X129150000Y-82250000D01*
X130650000Y-82250000D02*
X130650000Y-83000000D01*
X130650000Y-83000000D02*
X132450000Y-83000000D01*
X131700000Y-84500000D02*
X132450000Y-84500000D01*
X131700000Y-87450000D02*
X131700000Y-84500000D01*
X132450000Y-82250000D02*
X130650000Y-82250000D01*
X132450000Y-83000000D02*
X132450000Y-82250000D01*
X132460000Y-82240000D02*
X124840000Y-82240000D01*
X132460000Y-88210000D02*
X132460000Y-82240000D01*
X132750000Y-81950000D02*
X131500000Y-81950000D01*
X132750000Y-83200000D02*
X132750000Y-81950000D01*
%TO.C,J1*%
X111490000Y-74990000D02*
X111490000Y-78800000D01*
X111490000Y-82610000D02*
X111490000Y-78800000D01*
X112100000Y-77300000D02*
X112100000Y-77800000D01*
X112100000Y-77800000D02*
X117600000Y-77800000D01*
X112100000Y-79800000D02*
X112100000Y-80300000D01*
X112100000Y-80300000D02*
X117600000Y-80300000D01*
X117600000Y-77300000D02*
X112100000Y-77300000D01*
X117600000Y-77800000D02*
X117600000Y-77300000D01*
X117600000Y-79800000D02*
X112100000Y-79800000D01*
X117600000Y-80300000D02*
X117600000Y-79800000D01*
X118710000Y-76410000D02*
X123210000Y-76410000D01*
X118710000Y-81190000D02*
X123210000Y-81190000D01*
X120700000Y-80050000D02*
X121300000Y-79750000D01*
X121300000Y-79750000D02*
X121300000Y-80350000D01*
X121300000Y-80350000D02*
X120700000Y-80050000D01*
X123210000Y-74990000D02*
X111490000Y-74990000D01*
X123210000Y-76410000D02*
X123210000Y-74990000D01*
X123210000Y-81190000D02*
X123210000Y-82610000D01*
X123210000Y-82610000D02*
X111490000Y-82610000D01*
%TO.C,TP1*%
X121300000Y-72800000D02*
G75*
G02*
X118900000Y-72800000I-1200000J0D01*
G01*
X118900000Y-72800000D02*
G75*
G02*
X121300000Y-72800000I1200000J0D01*
G01*
%TO.C,J10*%
X134690000Y-82240000D02*
X134690000Y-88210000D01*
X134690000Y-88210000D02*
X142310000Y-88210000D01*
X134700000Y-82250000D02*
X134700000Y-83000000D01*
X134700000Y-83000000D02*
X136500000Y-83000000D01*
X135450000Y-84500000D02*
X134700000Y-84500000D01*
X135450000Y-87450000D02*
X135450000Y-84500000D01*
X136500000Y-82250000D02*
X134700000Y-82250000D01*
X136500000Y-83000000D02*
X136500000Y-82250000D01*
X138000000Y-82250000D02*
X138000000Y-83000000D01*
X138000000Y-83000000D02*
X139000000Y-83000000D01*
X138500000Y-87450000D02*
X135450000Y-87450000D01*
X138500000Y-87450000D02*
X141550000Y-87450000D01*
X139000000Y-82250000D02*
X138000000Y-82250000D01*
X139000000Y-83000000D02*
X139000000Y-82250000D01*
X140500000Y-82250000D02*
X140500000Y-83000000D01*
X140500000Y-83000000D02*
X142300000Y-83000000D01*
X141550000Y-84500000D02*
X142300000Y-84500000D01*
X141550000Y-87450000D02*
X141550000Y-84500000D01*
X142300000Y-82250000D02*
X140500000Y-82250000D01*
X142300000Y-83000000D02*
X142300000Y-82250000D01*
X142310000Y-82240000D02*
X134690000Y-82240000D01*
X142310000Y-88210000D02*
X142310000Y-82240000D01*
X142600000Y-81950000D02*
X141350000Y-81950000D01*
X142600000Y-83200000D02*
X142600000Y-81950000D01*
D12*
%TO.C,J3*%
X125112500Y-67800000D02*
X124212500Y-67800000D01*
X125462500Y-64850000D02*
X126662500Y-64850000D01*
X125462500Y-67750000D02*
X125462500Y-64850000D01*
X126662500Y-64850000D02*
X126662500Y-67750000D01*
X126662500Y-67750000D02*
X125462500Y-67750000D01*
D11*
%TO.C,C2*%
X127708767Y-63590000D02*
X127416233Y-63590000D01*
X127708767Y-64610000D02*
X127416233Y-64610000D01*
%TO.C,C1*%
X124190000Y-62716233D02*
X124190000Y-63008767D01*
X125210000Y-62716233D02*
X125210000Y-63008767D01*
%TD*%
M02*
