%TF.GenerationSoftware,KiCad,Pcbnew,8.0.8*%
%TF.CreationDate,2025-02-05T20:30:05+01:00*%
%TF.ProjectId,Janus_finalV,4a616e75-735f-4666-996e-616c562e6b69,rev?*%
%TF.SameCoordinates,Original*%
%TF.FileFunction,Drillmap*%
%TF.FilePolarity,Positive*%
%FSLAX45Y45*%
G04 Gerber Fmt 4.5, Leading zero omitted, Abs format (unit mm)*
G04 Created by KiCad (PCBNEW 8.0.8) date 2025-02-05 20:30:05*
%MOMM*%
%LPD*%
G01*
G04 APERTURE LIST*
%ADD10C,0.050000*%
%ADD11C,0.200000*%
G04 APERTURE END LIST*
D10*
X11020000Y-4160000D02*
G75*
G02*
X11440000Y-3740000I420000J0D01*
G01*
X14700000Y-3740000D02*
X11440000Y-3740000D01*
X11440000Y-8980000D02*
G75*
G02*
X11020000Y-8560000I0J420000D01*
G01*
X11440000Y-8980000D02*
X14700000Y-8980000D01*
X14700000Y-3740000D02*
G75*
G02*
X15120000Y-4160000I0J-420000D01*
G01*
X15120000Y-8560000D02*
X15120000Y-4160000D01*
X15120000Y-8560000D02*
G75*
G02*
X14700000Y-8980000I-420000J0D01*
G01*
X11020000Y-4160000D02*
X11020000Y-8560000D01*
D11*
X11278277Y-9293984D02*
X11278277Y-9093984D01*
X11278277Y-9093984D02*
X11325896Y-9093984D01*
X11325896Y-9093984D02*
X11354467Y-9103508D01*
X11354467Y-9103508D02*
X11373515Y-9122555D01*
X11373515Y-9122555D02*
X11383039Y-9141603D01*
X11383039Y-9141603D02*
X11392562Y-9179698D01*
X11392562Y-9179698D02*
X11392562Y-9208270D01*
X11392562Y-9208270D02*
X11383039Y-9246365D01*
X11383039Y-9246365D02*
X11373515Y-9265412D01*
X11373515Y-9265412D02*
X11354467Y-9284460D01*
X11354467Y-9284460D02*
X11325896Y-9293984D01*
X11325896Y-9293984D02*
X11278277Y-9293984D01*
X11478277Y-9293984D02*
X11478277Y-9160650D01*
X11478277Y-9198746D02*
X11487801Y-9179698D01*
X11487801Y-9179698D02*
X11497324Y-9170174D01*
X11497324Y-9170174D02*
X11516372Y-9160650D01*
X11516372Y-9160650D02*
X11535420Y-9160650D01*
X11602086Y-9293984D02*
X11602086Y-9160650D01*
X11602086Y-9093984D02*
X11592562Y-9103508D01*
X11592562Y-9103508D02*
X11602086Y-9113031D01*
X11602086Y-9113031D02*
X11611610Y-9103508D01*
X11611610Y-9103508D02*
X11602086Y-9093984D01*
X11602086Y-9093984D02*
X11602086Y-9113031D01*
X11725896Y-9293984D02*
X11706848Y-9284460D01*
X11706848Y-9284460D02*
X11697324Y-9265412D01*
X11697324Y-9265412D02*
X11697324Y-9093984D01*
X11830658Y-9293984D02*
X11811610Y-9284460D01*
X11811610Y-9284460D02*
X11802086Y-9265412D01*
X11802086Y-9265412D02*
X11802086Y-9093984D01*
X12059229Y-9293984D02*
X12059229Y-9093984D01*
X12059229Y-9093984D02*
X12125896Y-9236841D01*
X12125896Y-9236841D02*
X12192562Y-9093984D01*
X12192562Y-9093984D02*
X12192562Y-9293984D01*
X12373515Y-9293984D02*
X12373515Y-9189222D01*
X12373515Y-9189222D02*
X12363991Y-9170174D01*
X12363991Y-9170174D02*
X12344943Y-9160650D01*
X12344943Y-9160650D02*
X12306848Y-9160650D01*
X12306848Y-9160650D02*
X12287801Y-9170174D01*
X12373515Y-9284460D02*
X12354467Y-9293984D01*
X12354467Y-9293984D02*
X12306848Y-9293984D01*
X12306848Y-9293984D02*
X12287801Y-9284460D01*
X12287801Y-9284460D02*
X12278277Y-9265412D01*
X12278277Y-9265412D02*
X12278277Y-9246365D01*
X12278277Y-9246365D02*
X12287801Y-9227317D01*
X12287801Y-9227317D02*
X12306848Y-9217793D01*
X12306848Y-9217793D02*
X12354467Y-9217793D01*
X12354467Y-9217793D02*
X12373515Y-9208270D01*
X12468753Y-9160650D02*
X12468753Y-9360650D01*
X12468753Y-9170174D02*
X12487801Y-9160650D01*
X12487801Y-9160650D02*
X12525896Y-9160650D01*
X12525896Y-9160650D02*
X12544943Y-9170174D01*
X12544943Y-9170174D02*
X12554467Y-9179698D01*
X12554467Y-9179698D02*
X12563991Y-9198746D01*
X12563991Y-9198746D02*
X12563991Y-9255889D01*
X12563991Y-9255889D02*
X12554467Y-9274936D01*
X12554467Y-9274936D02*
X12544943Y-9284460D01*
X12544943Y-9284460D02*
X12525896Y-9293984D01*
X12525896Y-9293984D02*
X12487801Y-9293984D01*
X12487801Y-9293984D02*
X12468753Y-9284460D01*
X12649705Y-9274936D02*
X12659229Y-9284460D01*
X12659229Y-9284460D02*
X12649705Y-9293984D01*
X12649705Y-9293984D02*
X12640182Y-9284460D01*
X12640182Y-9284460D02*
X12649705Y-9274936D01*
X12649705Y-9274936D02*
X12649705Y-9293984D01*
X12649705Y-9170174D02*
X12659229Y-9179698D01*
X12659229Y-9179698D02*
X12649705Y-9189222D01*
X12649705Y-9189222D02*
X12640182Y-9179698D01*
X12640182Y-9179698D02*
X12649705Y-9170174D01*
X12649705Y-9170174D02*
X12649705Y-9189222D01*
M02*
