%TF.GenerationSoftware,KiCad,Pcbnew,8.0.8*%
%TF.CreationDate,2025-02-05T17:51:18+01:00*%
%TF.ProjectId,Janus_finalV,4a616e75-735f-4666-996e-616c562e6b69,rev?*%
%TF.SameCoordinates,Original*%
%TF.FileFunction,Soldermask,Bot*%
%TF.FilePolarity,Negative*%
%FSLAX46Y46*%
G04 Gerber Fmt 4.6, Leading zero omitted, Abs format (unit mm)*
G04 Created by KiCad (PCBNEW 8.0.8) date 2025-02-05 17:51:18*
%MOMM*%
%LPD*%
G01*
G04 APERTURE LIST*
G04 Aperture macros list*
%AMRoundRect*
0 Rectangle with rounded corners*
0 $1 Rounding radius*
0 $2 $3 $4 $5 $6 $7 $8 $9 X,Y pos of 4 corners*
0 Add a 4 corners polygon primitive as box body*
4,1,4,$2,$3,$4,$5,$6,$7,$8,$9,$2,$3,0*
0 Add four circle primitives for the rounded corners*
1,1,$1+$1,$2,$3*
1,1,$1+$1,$4,$5*
1,1,$1+$1,$6,$7*
1,1,$1+$1,$8,$9*
0 Add four rect primitives between the rounded corners*
20,1,$1+$1,$2,$3,$4,$5,0*
20,1,$1+$1,$4,$5,$6,$7,0*
20,1,$1+$1,$6,$7,$8,$9,0*
20,1,$1+$1,$8,$9,$2,$3,0*%
G04 Aperture macros list end*
%ADD10R,1.700000X1.700000*%
%ADD11O,1.700000X1.700000*%
%ADD12C,5.400000*%
%ADD13RoundRect,0.250000X-0.625000X0.350000X-0.625000X-0.350000X0.625000X-0.350000X0.625000X0.350000X0*%
%ADD14O,1.750000X1.200000*%
%ADD15R,1.000000X1.000000*%
%ADD16O,1.000000X1.000000*%
%ADD17R,1.700000X2.500000*%
%ADD18O,1.700000X2.500000*%
%ADD19RoundRect,0.250000X-0.600000X-0.725000X0.600000X-0.725000X0.600000X0.725000X-0.600000X0.725000X0*%
%ADD20O,1.700000X1.950000*%
%ADD21RoundRect,0.250000X0.600000X0.725000X-0.600000X0.725000X-0.600000X-0.725000X0.600000X-0.725000X0*%
%ADD22C,2.000000*%
%ADD23RoundRect,0.250000X0.600000X0.750000X-0.600000X0.750000X-0.600000X-0.750000X0.600000X-0.750000X0*%
%ADD24O,1.700000X2.000000*%
%ADD25RoundRect,0.250000X0.750000X-0.600000X0.750000X0.600000X-0.750000X0.600000X-0.750000X-0.600000X0*%
%ADD26O,2.000000X1.700000*%
%ADD27RoundRect,0.102000X-0.450000X-0.300000X0.450000X-0.300000X0.450000X0.300000X-0.450000X0.300000X0*%
%ADD28RoundRect,0.237500X-0.300000X-0.237500X0.300000X-0.237500X0.300000X0.237500X-0.300000X0.237500X0*%
%ADD29RoundRect,0.237500X0.237500X-0.300000X0.237500X0.300000X-0.237500X0.300000X-0.237500X-0.300000X0*%
G04 APERTURE END LIST*
D10*
%TO.C,J14*%
X140600000Y-79400000D03*
D11*
X143140000Y-79400000D03*
X145680000Y-79400000D03*
X148220000Y-79400000D03*
%TD*%
D12*
%TO.C,H2*%
X147000000Y-85600000D03*
%TD*%
D13*
%TO.C,J2*%
X121500000Y-41600000D03*
D14*
X121500000Y-43600000D03*
X121500000Y-45600000D03*
X121500000Y-47600000D03*
%TD*%
D15*
%TO.C,J13*%
X138100000Y-67250000D03*
D16*
X138100000Y-68520000D03*
%TD*%
D17*
%TO.C,J4*%
X114820000Y-69100000D03*
D18*
X117360000Y-69100000D03*
X119900000Y-69100000D03*
%TD*%
D12*
%TO.C,H1*%
X114400000Y-41600000D03*
%TD*%
D19*
%TO.C,J5*%
X114200000Y-62300000D03*
D20*
X116700000Y-62300000D03*
X119200000Y-62300000D03*
%TD*%
D19*
%TO.C,J6*%
X114300000Y-54000000D03*
D20*
X116800000Y-54000000D03*
X119300000Y-54000000D03*
%TD*%
D15*
%TO.C,J12*%
X115000000Y-48600000D03*
D16*
X113730000Y-48600000D03*
%TD*%
D10*
%TO.C,J11*%
X148240000Y-75700000D03*
D11*
X145700000Y-75700000D03*
X143160000Y-75700000D03*
X140620000Y-75700000D03*
%TD*%
D12*
%TO.C,H3*%
X147000000Y-41600000D03*
%TD*%
%TO.C,H4*%
X114400000Y-85600000D03*
%TD*%
D21*
%TO.C,J8*%
X139900000Y-47200000D03*
D20*
X137400000Y-47200000D03*
X134900000Y-47200000D03*
X132400000Y-47200000D03*
X129900000Y-47200000D03*
X127400000Y-47200000D03*
%TD*%
D22*
%TO.C,TP2*%
X126100000Y-71100000D03*
%TD*%
D23*
%TO.C,J9*%
X129900000Y-84700000D03*
D24*
X127400000Y-84700000D03*
%TD*%
D25*
%TO.C,J1*%
X119200000Y-80050000D03*
D26*
X119200000Y-77550000D03*
%TD*%
D22*
%TO.C,TP1*%
X120100000Y-72800000D03*
%TD*%
D23*
%TO.C,J10*%
X139750000Y-84700000D03*
D24*
X137250000Y-84700000D03*
%TD*%
D27*
%TO.C,J3*%
X124662500Y-67250000D03*
X124662500Y-66300000D03*
X124662500Y-65350000D03*
X127462500Y-65350000D03*
X127462500Y-67250000D03*
%TD*%
D28*
%TO.C,C2*%
X126700000Y-64100000D03*
X128425000Y-64100000D03*
%TD*%
D29*
%TO.C,C1*%
X124700000Y-63725000D03*
X124700000Y-62000000D03*
%TD*%
M02*
