%TF.GenerationSoftware,KiCad,Pcbnew,8.0.8*%
%TF.CreationDate,2025-01-27T14:17:02+01:00*%
%TF.ProjectId,Projet_PAMI_Kicad,50726f6a-6574-45f5-9041-4d495f4b6963,rev?*%
%TF.SameCoordinates,Original*%
%TF.FileFunction,Plated,1,4,PTH,Drill*%
%TF.FilePolarity,Positive*%
%FSLAX46Y46*%
G04 Gerber Fmt 4.6, Leading zero omitted, Abs format (unit mm)*
G04 Created by KiCad (PCBNEW 8.0.8) date 2025-01-27 14:17:02*
%MOMM*%
%LPD*%
G01*
G04 APERTURE LIST*
%TA.AperFunction,ViaDrill*%
%ADD10C,0.300000*%
%TD*%
%TA.AperFunction,ComponentDrill*%
%ADD11C,0.750000*%
%TD*%
%TA.AperFunction,ComponentDrill*%
%ADD12C,0.950000*%
%TD*%
%TA.AperFunction,ComponentDrill*%
%ADD13C,1.000000*%
%TD*%
%TA.AperFunction,ComponentDrill*%
%ADD14C,1.200000*%
%TD*%
%TA.AperFunction,ComponentDrill*%
%ADD15C,2.700000*%
%TD*%
G04 APERTURE END LIST*
D10*
X88600000Y-63400000D03*
X88600000Y-65940000D03*
X88600000Y-71020000D03*
X88600000Y-73560000D03*
X88600000Y-76100000D03*
X88600000Y-78640000D03*
X88600000Y-81180000D03*
X88600000Y-83720000D03*
X88600000Y-86260000D03*
X88600000Y-88800000D03*
X88600000Y-91340000D03*
X88600000Y-93880000D03*
X88600000Y-96420000D03*
X88600000Y-98960000D03*
X88780000Y-61570000D03*
X89850000Y-60060000D03*
X91440000Y-61000000D03*
X91440000Y-66000000D03*
X91440000Y-71100000D03*
X91440000Y-76200000D03*
X91440000Y-81280000D03*
X91440000Y-86360000D03*
X91440000Y-91440000D03*
X91440000Y-101600000D03*
X91500000Y-58800000D03*
X92200000Y-102200000D03*
X94000000Y-72700000D03*
X94000000Y-75240000D03*
X94000000Y-77780000D03*
X94040000Y-58800000D03*
X94740000Y-102200000D03*
X96520000Y-66040000D03*
X96520000Y-71120000D03*
X96520000Y-86360000D03*
X96520000Y-96520000D03*
X96520000Y-101600000D03*
X96580000Y-58800000D03*
X97190000Y-89400000D03*
X97250000Y-90320000D03*
X97280000Y-102200000D03*
X97800000Y-79400000D03*
X98330000Y-88320000D03*
X98390000Y-89240000D03*
X99120000Y-58800000D03*
X99280000Y-87390000D03*
X99300000Y-79400000D03*
X99340000Y-88310000D03*
X99820000Y-102200000D03*
X99900000Y-90200000D03*
X99900000Y-92740000D03*
X99900000Y-95280000D03*
X99900000Y-97820000D03*
X100170000Y-86440000D03*
X100230000Y-87360000D03*
X101060000Y-85670000D03*
X101110000Y-84580000D03*
X101120000Y-86590000D03*
X101400000Y-64300000D03*
X101500000Y-74900000D03*
X101500000Y-76000000D03*
X101500000Y-77100000D03*
X101500000Y-78300000D03*
X101600000Y-66040000D03*
X101600000Y-91440000D03*
X101600000Y-96520000D03*
X101600000Y-101600000D03*
X101660000Y-58800000D03*
X101800000Y-90200000D03*
X101800000Y-92740000D03*
X101800000Y-95280000D03*
X101800000Y-97820000D03*
X102110000Y-84550000D03*
X102120000Y-85580000D03*
X102360000Y-102200000D03*
X102540000Y-78520000D03*
X102900000Y-65800000D03*
X103100000Y-77100000D03*
X104000000Y-86100000D03*
X104100000Y-67000000D03*
X104200000Y-58800000D03*
X104200000Y-64300000D03*
X104900000Y-102200000D03*
X105600000Y-65800000D03*
X105920000Y-81020000D03*
X106680000Y-60960000D03*
X106680000Y-66040000D03*
X106680000Y-71120000D03*
X106680000Y-101600000D03*
X106740000Y-58800000D03*
X106830000Y-67010000D03*
X107440000Y-102200000D03*
X108600000Y-91500000D03*
X108600000Y-96580000D03*
X108600000Y-99120000D03*
X109027002Y-79766270D03*
X109200000Y-77319000D03*
X109200000Y-78119003D03*
X109280000Y-58800000D03*
X109410000Y-81394000D03*
X109980000Y-102200000D03*
X110180000Y-80840000D03*
X110432843Y-76719000D03*
X110900000Y-89300000D03*
X111100000Y-73400000D03*
X111100000Y-91200000D03*
X111760000Y-60960000D03*
X111760000Y-66040000D03*
X111760000Y-76200000D03*
X111760000Y-101600000D03*
X111820000Y-58800000D03*
X112500000Y-91300000D03*
X112500000Y-99800000D03*
X112520000Y-102200000D03*
X112555025Y-79355025D03*
X113200000Y-73400000D03*
X113355025Y-95244975D03*
X113700000Y-91400000D03*
X114360000Y-58800000D03*
X115000000Y-91200000D03*
X115060000Y-102200000D03*
X115300000Y-73400000D03*
X116300000Y-89500000D03*
X116300000Y-91200000D03*
X116400000Y-77800000D03*
X116730000Y-76000000D03*
X116800000Y-79400000D03*
X116840000Y-60960000D03*
X116840000Y-66040000D03*
X116840000Y-101600000D03*
X116900000Y-58800000D03*
X117600000Y-102200000D03*
X117900000Y-83900000D03*
X118190000Y-89680000D03*
X118500000Y-73500000D03*
X119100000Y-88360000D03*
X119400000Y-84600000D03*
X119440000Y-58800000D03*
X119500000Y-78100000D03*
X119600000Y-91000000D03*
X119900000Y-81400000D03*
X120000000Y-78800000D03*
X120140000Y-102200000D03*
X120150000Y-92300000D03*
X120150000Y-94840000D03*
X120150000Y-97380000D03*
X120400000Y-80400000D03*
X120600000Y-89600000D03*
X121000000Y-85700000D03*
X121105000Y-98800000D03*
X121224265Y-87724265D03*
X121400000Y-79100000D03*
X121600000Y-93080000D03*
X121600000Y-95090000D03*
X121600000Y-97120000D03*
X121610000Y-100210000D03*
X121621000Y-85000000D03*
X121920000Y-60960000D03*
X121920000Y-66040000D03*
X121920000Y-96520000D03*
X121920000Y-101600000D03*
X121980000Y-58800000D03*
X122130000Y-88180000D03*
X122500000Y-77400000D03*
X122680000Y-102200000D03*
X124150000Y-100210000D03*
X124290000Y-88950000D03*
X124520000Y-58800000D03*
X124600000Y-86700000D03*
X125098407Y-80869394D03*
X125112944Y-81669265D03*
X125200000Y-64500000D03*
X125200000Y-68200000D03*
X125200000Y-72100000D03*
X125220000Y-102200000D03*
X126690000Y-100210000D03*
X127000000Y-60960000D03*
X127000000Y-66040000D03*
X127000000Y-86360000D03*
X127000000Y-96520000D03*
X127000000Y-101600000D03*
X127060000Y-58800000D03*
X127460000Y-90020000D03*
X127460000Y-91020000D03*
X127760000Y-102200000D03*
X128400000Y-82400000D03*
X128460000Y-90020000D03*
X128460000Y-91020000D03*
X129000000Y-72100000D03*
X129230000Y-100210000D03*
X129460000Y-90020000D03*
X129460000Y-91020000D03*
X129600000Y-58800000D03*
X129600000Y-73700000D03*
X130140000Y-78460000D03*
X130300000Y-97400000D03*
X130300000Y-102200000D03*
X131159000Y-72141000D03*
X131310000Y-98930000D03*
X131870000Y-86490000D03*
X131870000Y-87490000D03*
X131870000Y-88490000D03*
X132080000Y-60960000D03*
X132080000Y-66040000D03*
X132080000Y-76200000D03*
X132080000Y-101600000D03*
X132140000Y-58800000D03*
X132800000Y-95100000D03*
X132840000Y-102200000D03*
X132860000Y-97380000D03*
X132870000Y-86490000D03*
X132870000Y-87490000D03*
X132870000Y-88490000D03*
X133440000Y-73700000D03*
X133450000Y-72180000D03*
X133890000Y-79760000D03*
X134460000Y-95750000D03*
X134680000Y-58800000D03*
X134890000Y-79760000D03*
X135300000Y-92700000D03*
X135380000Y-102200000D03*
X135650000Y-72180000D03*
X135890000Y-79760000D03*
X135980000Y-73700000D03*
X136030000Y-94090000D03*
X137160000Y-66040000D03*
X137160000Y-71120000D03*
X137160000Y-76200000D03*
X137160000Y-81280000D03*
X137160000Y-86360000D03*
X137160000Y-101600000D03*
X137220000Y-58800000D03*
X137550000Y-72180000D03*
X137630000Y-92490000D03*
X137900000Y-90400000D03*
X137920000Y-102200000D03*
X138600000Y-73700000D03*
X138980000Y-59400000D03*
X139800000Y-91200000D03*
X139920000Y-100870000D03*
X140590000Y-60530000D03*
X141090000Y-99160000D03*
X141100000Y-62900000D03*
X141100000Y-65440000D03*
X141100000Y-67980000D03*
X141100000Y-70520000D03*
X141100000Y-73060000D03*
X141100000Y-75600000D03*
X141100000Y-78140000D03*
X141100000Y-80680000D03*
X141100000Y-83220000D03*
X141100000Y-85760000D03*
X141100000Y-88300000D03*
X141100000Y-90840000D03*
X141100000Y-93380000D03*
X141100000Y-95920000D03*
D11*
%TO.C,Uson1*%
X96600000Y-61900000D03*
%TO.C,U1*%
X96917000Y-75269000D03*
%TO.C,Uson1*%
X98600000Y-61900000D03*
%TO.C,U1*%
X98917000Y-75269000D03*
%TO.C,Servo1*%
X99378000Y-68580000D03*
%TO.C,Uson1*%
X100600000Y-61900000D03*
%TO.C,Servo1*%
X101378000Y-68580000D03*
%TO.C,Uson1*%
X102600000Y-61900000D03*
%TO.C,Servo1*%
X103378000Y-68580000D03*
%TO.C,Servo2*%
X108268000Y-87376000D03*
X110268000Y-87376000D03*
X112268000Y-87376000D03*
D12*
%TO.C,IR1*%
X109213000Y-67945000D03*
X111713000Y-67945000D03*
X114213000Y-67945000D03*
X116713000Y-67945000D03*
X119213000Y-67945000D03*
X121713000Y-67945000D03*
D13*
%TO.C,Moteur1*%
X104902000Y-95671000D03*
X104902000Y-98171000D03*
%TO.C,Moteur2*%
X125912000Y-95651000D03*
X125912000Y-98151000D03*
D14*
%TO.C,Regu7v-5v1*%
X96816500Y-82501500D03*
X99356500Y-82501500D03*
X101896500Y-82501500D03*
D15*
%TO.C,H1*%
X92456000Y-97663000D03*
%TO.C,H2*%
X137000000Y-63000000D03*
%TO.C,H3*%
X138000000Y-97663000D03*
M02*
