%TF.GenerationSoftware,KiCad,Pcbnew,9.0.0*%
%TF.CreationDate,2025-04-11T10:18:56+02:00*%
%TF.ProjectId,Janus_finalV,4a616e75-735f-4666-996e-616c562e6b69,rev?*%
%TF.SameCoordinates,Original*%
%TF.FileFunction,Drillmap*%
%TF.FilePolarity,Positive*%
%FSLAX45Y45*%
G04 Gerber Fmt 4.5, Leading zero omitted, Abs format (unit mm)*
G04 Created by KiCad (PCBNEW 9.0.0) date 2025-04-11 10:18:56*
%MOMM*%
%LPD*%
G01*
G04 APERTURE LIST*
%ADD10C,0.050000*%
%ADD11C,0.200000*%
%ADD12C,0.100000*%
%ADD13C,0.120000*%
%ADD14C,0.270000*%
G04 APERTURE END LIST*
D10*
X11020000Y-4160000D02*
G75*
G02*
X11440000Y-3740000I420000J0D01*
G01*
X14700000Y-3740000D02*
X11440000Y-3740000D01*
X11440000Y-8980000D02*
G75*
G02*
X11020000Y-8560000I0J420000D01*
G01*
X11440000Y-8980000D02*
X14700000Y-8980000D01*
X14700000Y-3740000D02*
G75*
G02*
X15120000Y-4160000I0J-420000D01*
G01*
X15120000Y-8560000D02*
X15120000Y-4160000D01*
X15120000Y-8560000D02*
G75*
G02*
X14700000Y-8980000I-420000J0D01*
G01*
X11020000Y-4160000D02*
X11020000Y-8560000D01*
D11*
D12*
X11080000Y-4280000D02*
X11110000Y-4310000D01*
X11110000Y-4280000D02*
X11080000Y-4310000D01*
X11080000Y-4534000D02*
X11110000Y-4564000D01*
X11110000Y-4534000D02*
X11080000Y-4564000D01*
X11080000Y-4788000D02*
X11110000Y-4818000D01*
X11110000Y-4788000D02*
X11080000Y-4818000D01*
X11080000Y-5042000D02*
X11110000Y-5072000D01*
X11110000Y-5042000D02*
X11080000Y-5072000D01*
X11080000Y-5296000D02*
X11110000Y-5326000D01*
X11110000Y-5296000D02*
X11080000Y-5326000D01*
X11080000Y-5550000D02*
X11110000Y-5580000D01*
X11110000Y-5550000D02*
X11080000Y-5580000D01*
X11080000Y-5804000D02*
X11110000Y-5834000D01*
X11110000Y-5804000D02*
X11080000Y-5834000D01*
X11080000Y-6058000D02*
X11110000Y-6088000D01*
X11110000Y-6058000D02*
X11080000Y-6088000D01*
X11080000Y-6312000D02*
X11110000Y-6342000D01*
X11110000Y-6312000D02*
X11080000Y-6342000D01*
X11080000Y-6566000D02*
X11110000Y-6596000D01*
X11110000Y-6566000D02*
X11080000Y-6596000D01*
X11080000Y-6820000D02*
X11110000Y-6850000D01*
X11110000Y-6820000D02*
X11080000Y-6850000D01*
X11080000Y-7074000D02*
X11110000Y-7104000D01*
X11110000Y-7074000D02*
X11080000Y-7104000D01*
X11080000Y-7328000D02*
X11110000Y-7358000D01*
X11110000Y-7328000D02*
X11080000Y-7358000D01*
X11080000Y-7582000D02*
X11110000Y-7612000D01*
X11110000Y-7582000D02*
X11080000Y-7612000D01*
X11080000Y-7836000D02*
X11110000Y-7866000D01*
X11110000Y-7836000D02*
X11080000Y-7866000D01*
X11080000Y-8090000D02*
X11110000Y-8120000D01*
X11110000Y-8090000D02*
X11080000Y-8120000D01*
X11080000Y-8344000D02*
X11110000Y-8374000D01*
X11110000Y-8344000D02*
X11080000Y-8374000D01*
X11235000Y-5615000D02*
X11265000Y-5645000D01*
X11265000Y-5615000D02*
X11235000Y-5645000D01*
X11235000Y-5869000D02*
X11265000Y-5899000D01*
X11265000Y-5869000D02*
X11235000Y-5899000D01*
X11245000Y-7135000D02*
X11275000Y-7165000D01*
X11275000Y-7135000D02*
X11245000Y-7165000D01*
X11245000Y-7389000D02*
X11275000Y-7419000D01*
X11275000Y-7389000D02*
X11245000Y-7419000D01*
X11245000Y-7610000D02*
X11275000Y-7640000D01*
X11275000Y-7610000D02*
X11245000Y-7640000D01*
X11245000Y-7864000D02*
X11275000Y-7894000D01*
X11275000Y-7864000D02*
X11245000Y-7894000D01*
X11245000Y-8118000D02*
X11275000Y-8148000D01*
X11275000Y-8118000D02*
X11245000Y-8148000D01*
X11250000Y-6420000D02*
X11280000Y-6450000D01*
X11280000Y-6420000D02*
X11250000Y-6450000D01*
X11250000Y-6674000D02*
X11280000Y-6704000D01*
X11280000Y-6674000D02*
X11250000Y-6704000D01*
X11320000Y-4535000D02*
X11350000Y-4565000D01*
X11350000Y-4535000D02*
X11320000Y-4565000D01*
X11320000Y-4790000D02*
X11350000Y-4820000D01*
X11350000Y-4790000D02*
X11320000Y-4820000D01*
X11320000Y-5044000D02*
X11350000Y-5074000D01*
X11350000Y-5044000D02*
X11320000Y-5074000D01*
X11489000Y-5615000D02*
X11519000Y-5645000D01*
X11519000Y-5615000D02*
X11489000Y-5645000D01*
X11489000Y-5869000D02*
X11519000Y-5899000D01*
X11519000Y-5869000D02*
X11489000Y-5899000D01*
X11499000Y-7135000D02*
X11529000Y-7165000D01*
X11529000Y-7135000D02*
X11499000Y-7165000D01*
X11499000Y-7389000D02*
X11529000Y-7419000D01*
X11529000Y-7389000D02*
X11499000Y-7419000D01*
X11499000Y-7610000D02*
X11529000Y-7640000D01*
X11529000Y-7610000D02*
X11499000Y-7640000D01*
X11499000Y-7864000D02*
X11529000Y-7894000D01*
X11529000Y-7864000D02*
X11499000Y-7894000D01*
X11499000Y-8118000D02*
X11529000Y-8148000D01*
X11529000Y-8118000D02*
X11499000Y-8148000D01*
X11504000Y-6420000D02*
X11534000Y-6450000D01*
X11534000Y-6420000D02*
X11504000Y-6450000D01*
X11504000Y-6674000D02*
X11534000Y-6704000D01*
X11534000Y-6674000D02*
X11504000Y-6704000D01*
X11540000Y-8900000D02*
X11570000Y-8930000D01*
X11570000Y-8900000D02*
X11540000Y-8930000D01*
X11574000Y-4535000D02*
X11604000Y-4565000D01*
X11604000Y-4535000D02*
X11574000Y-4565000D01*
X11574000Y-4790000D02*
X11604000Y-4820000D01*
X11604000Y-4790000D02*
X11574000Y-4820000D01*
X11574000Y-5044000D02*
X11604000Y-5074000D01*
X11604000Y-5044000D02*
X11574000Y-5074000D01*
X11679000Y-3785000D02*
X11709000Y-3815000D01*
X11709000Y-3785000D02*
X11679000Y-3815000D01*
X11743000Y-5615000D02*
X11773000Y-5645000D01*
X11773000Y-5615000D02*
X11743000Y-5645000D01*
X11743000Y-5869000D02*
X11773000Y-5899000D01*
X11773000Y-5869000D02*
X11743000Y-5899000D01*
X11753000Y-7135000D02*
X11783000Y-7165000D01*
X11783000Y-7135000D02*
X11753000Y-7165000D01*
X11753000Y-7389000D02*
X11783000Y-7419000D01*
X11783000Y-7389000D02*
X11753000Y-7419000D01*
X11758000Y-6420000D02*
X11788000Y-6450000D01*
X11788000Y-6420000D02*
X11758000Y-6450000D01*
X11758000Y-6674000D02*
X11788000Y-6704000D01*
X11788000Y-6674000D02*
X11758000Y-6704000D01*
X11794000Y-8900000D02*
X11824000Y-8930000D01*
X11824000Y-8900000D02*
X11794000Y-8930000D01*
X11795000Y-8205000D02*
X11825000Y-8235000D01*
X11825000Y-8205000D02*
X11795000Y-8235000D01*
X11795000Y-8459000D02*
X11825000Y-8489000D01*
X11825000Y-8459000D02*
X11795000Y-8489000D01*
X11795000Y-8713000D02*
X11825000Y-8743000D01*
X11825000Y-8713000D02*
X11795000Y-8743000D01*
X11825000Y-3925000D02*
X11855000Y-3955000D01*
X11855000Y-3925000D02*
X11825000Y-3955000D01*
X11825000Y-4179000D02*
X11855000Y-4209000D01*
X11855000Y-4179000D02*
X11825000Y-4209000D01*
X11828000Y-4535000D02*
X11858000Y-4565000D01*
X11858000Y-4535000D02*
X11828000Y-4565000D01*
X11828000Y-4789000D02*
X11858000Y-4819000D01*
X11858000Y-4789000D02*
X11828000Y-4819000D01*
X11828000Y-5043000D02*
X11858000Y-5073000D01*
X11858000Y-5043000D02*
X11828000Y-5073000D01*
X11933000Y-3785000D02*
X11963000Y-3815000D01*
X11963000Y-3785000D02*
X11933000Y-3815000D01*
X11985000Y-7575000D02*
X12015000Y-7605000D01*
X12015000Y-7575000D02*
X11985000Y-7605000D01*
X11995000Y-6440000D02*
X12025000Y-6470000D01*
X12025000Y-6440000D02*
X11995000Y-6470000D01*
X11997000Y-5615000D02*
X12027000Y-5645000D01*
X12027000Y-5615000D02*
X11997000Y-5645000D01*
X11997000Y-5869000D02*
X12027000Y-5899000D01*
X12027000Y-5869000D02*
X11997000Y-5899000D01*
X12045000Y-6170000D02*
X12075000Y-6200000D01*
X12075000Y-6170000D02*
X12045000Y-6200000D01*
X12048000Y-8900000D02*
X12078000Y-8930000D01*
X12078000Y-8900000D02*
X12048000Y-8930000D01*
X12049000Y-8205000D02*
X12079000Y-8235000D01*
X12079000Y-8205000D02*
X12049000Y-8235000D01*
X12049000Y-8459000D02*
X12079000Y-8489000D01*
X12079000Y-8459000D02*
X12049000Y-8489000D01*
X12049000Y-8713000D02*
X12079000Y-8743000D01*
X12079000Y-8713000D02*
X12049000Y-8743000D01*
X12065000Y-7475000D02*
X12095000Y-7505000D01*
X12095000Y-7475000D02*
X12065000Y-7505000D01*
X12160000Y-7380000D02*
X12190000Y-7410000D01*
X12190000Y-7380000D02*
X12160000Y-7410000D01*
X12170000Y-5530000D02*
X12200000Y-5560000D01*
X12200000Y-5530000D02*
X12170000Y-5560000D01*
X12175000Y-7640000D02*
X12205000Y-7670000D01*
X12205000Y-7640000D02*
X12175000Y-7670000D01*
X12175000Y-7894000D02*
X12205000Y-7924000D01*
X12205000Y-7894000D02*
X12175000Y-7924000D01*
X12187000Y-3785000D02*
X12217000Y-3815000D01*
X12217000Y-3785000D02*
X12187000Y-3815000D01*
X12215000Y-5790000D02*
X12245000Y-5820000D01*
X12245000Y-5790000D02*
X12215000Y-5820000D01*
X12215000Y-6005000D02*
X12245000Y-6035000D01*
X12245000Y-6005000D02*
X12215000Y-6035000D01*
X12215000Y-6435000D02*
X12245000Y-6465000D01*
X12245000Y-6435000D02*
X12215000Y-6465000D01*
X12215000Y-6669000D02*
X12245000Y-6699000D01*
X12245000Y-6669000D02*
X12215000Y-6699000D01*
X12215000Y-6965000D02*
X12245000Y-6995000D01*
X12245000Y-6965000D02*
X12215000Y-6995000D01*
X12215000Y-7177000D02*
X12245000Y-7207000D01*
X12245000Y-7177000D02*
X12215000Y-7207000D01*
X12302000Y-8900000D02*
X12332000Y-8930000D01*
X12332000Y-8900000D02*
X12302000Y-8930000D01*
X12303000Y-8205000D02*
X12333000Y-8235000D01*
X12333000Y-8205000D02*
X12303000Y-8235000D01*
X12303000Y-8459000D02*
X12333000Y-8489000D01*
X12333000Y-8459000D02*
X12303000Y-8489000D01*
X12303000Y-8713000D02*
X12333000Y-8743000D01*
X12333000Y-8713000D02*
X12303000Y-8743000D01*
X12335000Y-4725000D02*
X12365000Y-4755000D01*
X12365000Y-4725000D02*
X12335000Y-4755000D01*
X12335000Y-4979000D02*
X12365000Y-5009000D01*
X12365000Y-4979000D02*
X12335000Y-5009000D01*
X12335000Y-5233000D02*
X12365000Y-5263000D01*
X12365000Y-5233000D02*
X12335000Y-5263000D01*
X12335000Y-7380000D02*
X12365000Y-7410000D01*
X12365000Y-7380000D02*
X12335000Y-7410000D01*
X12340000Y-5695000D02*
X12370000Y-5725000D01*
X12370000Y-5695000D02*
X12340000Y-5725000D01*
X12350000Y-5885000D02*
X12380000Y-5915000D01*
X12380000Y-5885000D02*
X12350000Y-5915000D01*
X12410000Y-5510000D02*
X12440000Y-5540000D01*
X12440000Y-5510000D02*
X12410000Y-5540000D01*
X12429000Y-7640000D02*
X12459000Y-7670000D01*
X12459000Y-7640000D02*
X12429000Y-7670000D01*
X12429000Y-7894000D02*
X12459000Y-7924000D01*
X12459000Y-7894000D02*
X12429000Y-7924000D01*
X12440000Y-3925000D02*
X12470000Y-3955000D01*
X12470000Y-3925000D02*
X12440000Y-3955000D01*
X12440000Y-4179000D02*
X12470000Y-4209000D01*
X12470000Y-4179000D02*
X12440000Y-4209000D01*
X12440000Y-4433000D02*
X12470000Y-4463000D01*
X12470000Y-4433000D02*
X12440000Y-4463000D01*
X12441000Y-3785000D02*
X12471000Y-3815000D01*
X12471000Y-3785000D02*
X12441000Y-3815000D01*
X12450000Y-5885000D02*
X12480000Y-5915000D01*
X12480000Y-5885000D02*
X12450000Y-5915000D01*
X12469000Y-7177000D02*
X12499000Y-7207000D01*
X12499000Y-7177000D02*
X12469000Y-7207000D01*
X12515000Y-6825000D02*
X12545000Y-6855000D01*
X12545000Y-6825000D02*
X12515000Y-6855000D01*
X12515000Y-6915000D02*
X12545000Y-6945000D01*
X12545000Y-6915000D02*
X12515000Y-6945000D01*
X12520000Y-6050000D02*
X12550000Y-6080000D01*
X12550000Y-6050000D02*
X12520000Y-6080000D01*
X12530000Y-4895000D02*
X12560000Y-4925000D01*
X12560000Y-4895000D02*
X12530000Y-4925000D01*
X12530000Y-5149000D02*
X12560000Y-5179000D01*
X12560000Y-5149000D02*
X12530000Y-5179000D01*
X12545000Y-6260000D02*
X12575000Y-6290000D01*
X12575000Y-6260000D02*
X12545000Y-6290000D01*
X12550000Y-5885000D02*
X12580000Y-5915000D01*
X12580000Y-5885000D02*
X12550000Y-5915000D01*
X12556000Y-8900000D02*
X12586000Y-8930000D01*
X12586000Y-8900000D02*
X12556000Y-8930000D01*
X12557000Y-8205000D02*
X12587000Y-8235000D01*
X12587000Y-8205000D02*
X12557000Y-8235000D01*
X12557000Y-8459000D02*
X12587000Y-8489000D01*
X12587000Y-8459000D02*
X12557000Y-8489000D01*
X12557000Y-8713000D02*
X12587000Y-8743000D01*
X12587000Y-8713000D02*
X12557000Y-8743000D01*
X12560000Y-5690000D02*
X12590000Y-5720000D01*
X12590000Y-5690000D02*
X12560000Y-5720000D01*
X12650000Y-6195000D02*
X12680000Y-6225000D01*
X12680000Y-6195000D02*
X12650000Y-6225000D01*
X12675000Y-6825000D02*
X12705000Y-6855000D01*
X12705000Y-6825000D02*
X12675000Y-6855000D01*
X12675000Y-6915000D02*
X12705000Y-6945000D01*
X12705000Y-6915000D02*
X12675000Y-6945000D01*
X12683000Y-7640000D02*
X12713000Y-7670000D01*
X12713000Y-7640000D02*
X12683000Y-7670000D01*
X12683000Y-7894000D02*
X12713000Y-7924000D01*
X12713000Y-7894000D02*
X12683000Y-7924000D01*
X12694000Y-3925000D02*
X12724000Y-3955000D01*
X12724000Y-3925000D02*
X12694000Y-3955000D01*
X12694000Y-4179000D02*
X12724000Y-4209000D01*
X12724000Y-4179000D02*
X12694000Y-4209000D01*
X12694000Y-4433000D02*
X12724000Y-4463000D01*
X12724000Y-4433000D02*
X12694000Y-4463000D01*
X12695000Y-3785000D02*
X12725000Y-3815000D01*
X12725000Y-3785000D02*
X12695000Y-3815000D01*
X12723000Y-7177000D02*
X12753000Y-7207000D01*
X12753000Y-7177000D02*
X12723000Y-7207000D01*
X12740000Y-5415000D02*
X12770000Y-5445000D01*
X12770000Y-5415000D02*
X12740000Y-5445000D01*
X12765000Y-6825000D02*
X12795000Y-6855000D01*
X12795000Y-6825000D02*
X12765000Y-6855000D01*
X12765000Y-6915000D02*
X12795000Y-6945000D01*
X12795000Y-6915000D02*
X12765000Y-6945000D01*
X12784000Y-4895000D02*
X12814000Y-4925000D01*
X12814000Y-4895000D02*
X12784000Y-4925000D01*
X12810000Y-8900000D02*
X12840000Y-8930000D01*
X12840000Y-8900000D02*
X12810000Y-8930000D01*
X12811000Y-8713000D02*
X12841000Y-8743000D01*
X12841000Y-8713000D02*
X12811000Y-8743000D01*
X12855000Y-5665000D02*
X12885000Y-5695000D01*
X12885000Y-5665000D02*
X12855000Y-5695000D01*
X12855000Y-5815000D02*
X12885000Y-5845000D01*
X12885000Y-5815000D02*
X12855000Y-5845000D01*
X12855000Y-5955000D02*
X12885000Y-5985000D01*
X12885000Y-5955000D02*
X12855000Y-5985000D01*
X12855000Y-6080000D02*
X12885000Y-6110000D01*
X12885000Y-6080000D02*
X12855000Y-6110000D01*
X12855000Y-6755000D02*
X12885000Y-6785000D01*
X12885000Y-6755000D02*
X12855000Y-6785000D01*
X12855000Y-6825000D02*
X12885000Y-6855000D01*
X12885000Y-6825000D02*
X12855000Y-6855000D01*
X12855000Y-6915000D02*
X12885000Y-6945000D01*
X12885000Y-6915000D02*
X12855000Y-6945000D01*
X12860000Y-7390000D02*
X12890000Y-7420000D01*
X12890000Y-7390000D02*
X12860000Y-7420000D01*
X12875000Y-6535000D02*
X12905000Y-6565000D01*
X12905000Y-6535000D02*
X12875000Y-6565000D01*
X12875000Y-6635000D02*
X12905000Y-6665000D01*
X12905000Y-6635000D02*
X12875000Y-6665000D01*
X12885000Y-7690000D02*
X12915000Y-7720000D01*
X12915000Y-7690000D02*
X12885000Y-7720000D01*
X12895000Y-8265000D02*
X12925000Y-8295000D01*
X12925000Y-8265000D02*
X12895000Y-8295000D01*
X12925000Y-6965000D02*
X12955000Y-6995000D01*
X12955000Y-6965000D02*
X12925000Y-6995000D01*
X12925000Y-7095000D02*
X12955000Y-7125000D01*
X12955000Y-7095000D02*
X12925000Y-7125000D01*
X12948000Y-3925000D02*
X12978000Y-3955000D01*
X12978000Y-3925000D02*
X12948000Y-3955000D01*
X12948000Y-4179000D02*
X12978000Y-4209000D01*
X12978000Y-4179000D02*
X12948000Y-4209000D01*
X12948000Y-4433000D02*
X12978000Y-4463000D01*
X12978000Y-4433000D02*
X12948000Y-4463000D01*
X12949000Y-3785000D02*
X12979000Y-3815000D01*
X12979000Y-3785000D02*
X12949000Y-3815000D01*
X12985000Y-5725000D02*
X13015000Y-5755000D01*
X13015000Y-5725000D02*
X12985000Y-5755000D01*
X12995000Y-5955000D02*
X13025000Y-5985000D01*
X13025000Y-5955000D02*
X12995000Y-5985000D01*
X12999000Y-6135000D02*
X13029000Y-6165000D01*
X13029000Y-6135000D02*
X12999000Y-6165000D01*
X13005000Y-8175000D02*
X13035000Y-8205000D01*
X13035000Y-8175000D02*
X13005000Y-8205000D01*
X13030000Y-7495000D02*
X13060000Y-7525000D01*
X13060000Y-7495000D02*
X13030000Y-7525000D01*
X13035000Y-6565000D02*
X13065000Y-6595000D01*
X13065000Y-6565000D02*
X13035000Y-6595000D01*
X13035000Y-6650000D02*
X13065000Y-6680000D01*
X13065000Y-6650000D02*
X13035000Y-6680000D01*
X13035000Y-6760000D02*
X13065000Y-6790000D01*
X13065000Y-6760000D02*
X13035000Y-6790000D01*
X13035000Y-6845000D02*
X13065000Y-6875000D01*
X13065000Y-6845000D02*
X13035000Y-6875000D01*
X13038000Y-4895000D02*
X13068000Y-4925000D01*
X13068000Y-4895000D02*
X13038000Y-4925000D01*
X13038000Y-5149000D02*
X13068000Y-5179000D01*
X13068000Y-5149000D02*
X13038000Y-5179000D01*
X13040000Y-7395000D02*
X13070000Y-7425000D01*
X13070000Y-7395000D02*
X13040000Y-7425000D01*
X13064000Y-8900000D02*
X13094000Y-8930000D01*
X13094000Y-8900000D02*
X13064000Y-8930000D01*
X13065000Y-8713000D02*
X13095000Y-8743000D01*
X13095000Y-8713000D02*
X13065000Y-8743000D01*
X13070093Y-6000000D02*
X13100093Y-6030000D01*
X13100093Y-6000000D02*
X13070093Y-6030000D01*
X13080000Y-5255000D02*
X13110000Y-5285000D01*
X13110000Y-5255000D02*
X13080000Y-5285000D01*
X13080000Y-6457682D02*
X13110000Y-6487682D01*
X13110000Y-6457682D02*
X13080000Y-6487682D01*
X13099000Y-6135000D02*
X13129000Y-6165000D01*
X13129000Y-6135000D02*
X13099000Y-6165000D01*
X13108600Y-7436160D02*
X13138600Y-7466160D01*
X13138600Y-7436160D02*
X13108600Y-7466160D01*
X13130000Y-5192550D02*
X13160000Y-5222550D01*
X13160000Y-5192550D02*
X13130000Y-5222550D01*
X13139000Y-7690000D02*
X13169000Y-7720000D01*
X13169000Y-7690000D02*
X13139000Y-7720000D01*
X13145000Y-6055000D02*
X13175000Y-6085000D01*
X13175000Y-6055000D02*
X13145000Y-6085000D01*
X13150555Y-6517534D02*
X13180555Y-6547534D01*
X13180555Y-6517534D02*
X13150555Y-6547534D01*
X13199000Y-6135000D02*
X13229000Y-6165000D01*
X13229000Y-6135000D02*
X13199000Y-6165000D01*
X13202000Y-3925000D02*
X13232000Y-3955000D01*
X13232000Y-3925000D02*
X13202000Y-3955000D01*
X13202000Y-4179000D02*
X13232000Y-4209000D01*
X13232000Y-4179000D02*
X13202000Y-4209000D01*
X13202000Y-4433000D02*
X13232000Y-4463000D01*
X13232000Y-4433000D02*
X13202000Y-4463000D01*
X13203000Y-3785000D02*
X13233000Y-3815000D01*
X13233000Y-3785000D02*
X13203000Y-3815000D01*
X13220000Y-8175000D02*
X13250000Y-8205000D01*
X13250000Y-8175000D02*
X13220000Y-8205000D01*
X13242108Y-6524234D02*
X13272108Y-6554234D01*
X13272108Y-6524234D02*
X13242108Y-6554234D01*
X13245000Y-5565000D02*
X13275000Y-5595000D01*
X13275000Y-5565000D02*
X13245000Y-5595000D01*
X13245000Y-5725000D02*
X13275000Y-5755000D01*
X13275000Y-5725000D02*
X13245000Y-5755000D01*
X13318000Y-8900000D02*
X13348000Y-8930000D01*
X13348000Y-8900000D02*
X13318000Y-8930000D01*
X13319000Y-8713000D02*
X13349000Y-8743000D01*
X13349000Y-8713000D02*
X13319000Y-8743000D01*
X13325000Y-7485000D02*
X13355000Y-7515000D01*
X13355000Y-7485000D02*
X13325000Y-7515000D01*
X13330000Y-6710000D02*
X13360000Y-6740000D01*
X13360000Y-6710000D02*
X13330000Y-6740000D01*
X13340365Y-6537638D02*
X13370365Y-6567638D01*
X13370365Y-6537638D02*
X13340365Y-6567638D01*
X13355000Y-8310000D02*
X13385000Y-8340000D01*
X13385000Y-8310000D02*
X13355000Y-8340000D01*
X13365000Y-5672500D02*
X13395000Y-5702500D01*
X13395000Y-5672500D02*
X13365000Y-5702500D01*
X13385000Y-7005000D02*
X13415000Y-7035000D01*
X13415000Y-7005000D02*
X13385000Y-7035000D01*
X13385000Y-7085000D02*
X13415000Y-7115000D01*
X13415000Y-7085000D02*
X13385000Y-7115000D01*
X13390000Y-6405000D02*
X13420000Y-6435000D01*
X13420000Y-6405000D02*
X13390000Y-6435000D01*
X13393000Y-5835000D02*
X13423000Y-5865000D01*
X13423000Y-5835000D02*
X13393000Y-5865000D01*
X13393000Y-7690000D02*
X13423000Y-7720000D01*
X13423000Y-7690000D02*
X13393000Y-7720000D01*
X13395000Y-5565000D02*
X13425000Y-5595000D01*
X13425000Y-5565000D02*
X13395000Y-5595000D01*
X13395000Y-6095000D02*
X13425000Y-6125000D01*
X13425000Y-6095000D02*
X13395000Y-6125000D01*
X13420000Y-6530000D02*
X13450000Y-6560000D01*
X13450000Y-6530000D02*
X13420000Y-6560000D01*
X13432123Y-7482123D02*
X13462123Y-7512123D01*
X13462123Y-7482123D02*
X13432123Y-7512123D01*
X13445000Y-5065000D02*
X13475000Y-5095000D01*
X13475000Y-5065000D02*
X13445000Y-5095000D01*
X13450000Y-6830000D02*
X13480000Y-6860000D01*
X13480000Y-6830000D02*
X13450000Y-6860000D01*
X13450000Y-6935000D02*
X13480000Y-6965000D01*
X13480000Y-6935000D02*
X13450000Y-6965000D01*
X13456000Y-3925000D02*
X13486000Y-3955000D01*
X13486000Y-3925000D02*
X13456000Y-3955000D01*
X13456000Y-4179000D02*
X13486000Y-4209000D01*
X13486000Y-4179000D02*
X13456000Y-4209000D01*
X13456000Y-4433000D02*
X13486000Y-4463000D01*
X13486000Y-4433000D02*
X13456000Y-4463000D01*
X13457000Y-3785000D02*
X13487000Y-3815000D01*
X13487000Y-3785000D02*
X13457000Y-3815000D01*
X13475000Y-5375000D02*
X13505000Y-5405000D01*
X13505000Y-5375000D02*
X13475000Y-5405000D01*
X13495000Y-8155000D02*
X13525000Y-8185000D01*
X13525000Y-8155000D02*
X13495000Y-8185000D01*
X13500000Y-8455000D02*
X13530000Y-8485000D01*
X13530000Y-8455000D02*
X13500000Y-8485000D01*
X13523085Y-7465407D02*
X13553085Y-7495407D01*
X13553085Y-7465407D02*
X13523085Y-7495407D01*
X13560000Y-6235000D02*
X13590000Y-6265000D01*
X13590000Y-6235000D02*
X13560000Y-6265000D01*
X13569000Y-8225000D02*
X13599000Y-8255000D01*
X13599000Y-8225000D02*
X13569000Y-8255000D01*
X13572000Y-8900000D02*
X13602000Y-8930000D01*
X13602000Y-8900000D02*
X13572000Y-8930000D01*
X13573000Y-8713000D02*
X13603000Y-8743000D01*
X13603000Y-8713000D02*
X13573000Y-8743000D01*
X13585000Y-4930000D02*
X13615000Y-4960000D01*
X13615000Y-4930000D02*
X13585000Y-4960000D01*
X13595000Y-6345000D02*
X13625000Y-6375000D01*
X13625000Y-6345000D02*
X13595000Y-6375000D01*
X13633000Y-8291000D02*
X13663000Y-8321000D01*
X13663000Y-8291000D02*
X13633000Y-8321000D01*
X13647000Y-7690000D02*
X13677000Y-7720000D01*
X13677000Y-7690000D02*
X13647000Y-7720000D01*
X13683000Y-6675000D02*
X13713000Y-6705000D01*
X13713000Y-6675000D02*
X13683000Y-6705000D01*
X13685000Y-5375000D02*
X13715000Y-5405000D01*
X13715000Y-5375000D02*
X13685000Y-5405000D01*
X13685000Y-6925000D02*
X13715000Y-6955000D01*
X13715000Y-6925000D02*
X13685000Y-6955000D01*
X13685000Y-7015000D02*
X13715000Y-7045000D01*
X13715000Y-7015000D02*
X13685000Y-7045000D01*
X13685000Y-7085000D02*
X13715000Y-7115000D01*
X13715000Y-7085000D02*
X13685000Y-7115000D01*
X13685000Y-7155000D02*
X13715000Y-7185000D01*
X13715000Y-7155000D02*
X13685000Y-7185000D01*
X13685000Y-7225000D02*
X13715000Y-7255000D01*
X13715000Y-7225000D02*
X13685000Y-7255000D01*
X13685000Y-7295000D02*
X13715000Y-7325000D01*
X13715000Y-7295000D02*
X13685000Y-7325000D01*
X13690000Y-7455000D02*
X13720000Y-7485000D01*
X13720000Y-7455000D02*
X13690000Y-7485000D01*
X13702000Y-6137000D02*
X13732000Y-6167000D01*
X13732000Y-6137000D02*
X13702000Y-6167000D01*
X13705000Y-5725000D02*
X13735000Y-5755000D01*
X13735000Y-5725000D02*
X13705000Y-5755000D01*
X13710000Y-3925000D02*
X13740000Y-3955000D01*
X13740000Y-3925000D02*
X13710000Y-3955000D01*
X13710000Y-4179000D02*
X13740000Y-4209000D01*
X13740000Y-4179000D02*
X13710000Y-4209000D01*
X13710000Y-4433000D02*
X13740000Y-4463000D01*
X13740000Y-4433000D02*
X13710000Y-4463000D01*
X13710000Y-6455000D02*
X13740000Y-6485000D01*
X13740000Y-6455000D02*
X13710000Y-6485000D01*
X13711000Y-3785000D02*
X13741000Y-3815000D01*
X13741000Y-3785000D02*
X13711000Y-3815000D01*
X13818000Y-5843000D02*
X13848000Y-5873000D01*
X13848000Y-5843000D02*
X13818000Y-5873000D01*
X13826000Y-8900000D02*
X13856000Y-8930000D01*
X13856000Y-8900000D02*
X13826000Y-8930000D01*
X13827000Y-8713000D02*
X13857000Y-8743000D01*
X13857000Y-8713000D02*
X13827000Y-8743000D01*
X13835000Y-7045000D02*
X13865000Y-7075000D01*
X13865000Y-7045000D02*
X13835000Y-7075000D01*
X13835000Y-7245000D02*
X13865000Y-7275000D01*
X13865000Y-7245000D02*
X13835000Y-7275000D01*
X13836000Y-6136000D02*
X13866000Y-6166000D01*
X13866000Y-6136000D02*
X13836000Y-6166000D01*
X13839000Y-4930000D02*
X13869000Y-4960000D01*
X13869000Y-4930000D02*
X13839000Y-4960000D01*
X13872000Y-5374000D02*
X13902000Y-5404000D01*
X13902000Y-5374000D02*
X13872000Y-5404000D01*
X13948000Y-5843000D02*
X13978000Y-5873000D01*
X13978000Y-5843000D02*
X13948000Y-5873000D01*
X13964000Y-3925000D02*
X13994000Y-3955000D01*
X13994000Y-3925000D02*
X13964000Y-3955000D01*
X13964000Y-4179000D02*
X13994000Y-4209000D01*
X13994000Y-4179000D02*
X13964000Y-4209000D01*
X13964000Y-4433000D02*
X13994000Y-4463000D01*
X13994000Y-4433000D02*
X13964000Y-4463000D01*
X13964000Y-7245000D02*
X13994000Y-7275000D01*
X13994000Y-7245000D02*
X13964000Y-7275000D01*
X13965000Y-3785000D02*
X13995000Y-3815000D01*
X13995000Y-3785000D02*
X13965000Y-3815000D01*
X13977573Y-6052426D02*
X14007573Y-6082426D01*
X14007573Y-6052426D02*
X13977573Y-6082426D01*
X14015000Y-6123000D02*
X14045000Y-6153000D01*
X14045000Y-6123000D02*
X14015000Y-6153000D01*
X14078000Y-5843000D02*
X14108000Y-5873000D01*
X14108000Y-5843000D02*
X14078000Y-5873000D01*
X14095000Y-6140000D02*
X14125000Y-6170000D01*
X14125000Y-6140000D02*
X14095000Y-6170000D01*
X14111000Y-6924000D02*
X14141000Y-6954000D01*
X14141000Y-6924000D02*
X14111000Y-6954000D01*
X14120000Y-8900000D02*
X14150000Y-8930000D01*
X14150000Y-8900000D02*
X14120000Y-8930000D01*
X14123000Y-6262000D02*
X14153000Y-6292000D01*
X14153000Y-6262000D02*
X14123000Y-6292000D01*
X14123000Y-8453000D02*
X14153000Y-8483000D01*
X14153000Y-8453000D02*
X14123000Y-8483000D01*
X14123000Y-8707000D02*
X14153000Y-8737000D01*
X14153000Y-8707000D02*
X14123000Y-8737000D01*
X14125000Y-6460000D02*
X14155000Y-6490000D01*
X14155000Y-6460000D02*
X14125000Y-6490000D01*
X14175000Y-8200000D02*
X14205000Y-8230000D01*
X14205000Y-8200000D02*
X14175000Y-8230000D01*
X14202000Y-5562000D02*
X14232000Y-5592000D01*
X14232000Y-5562000D02*
X14202000Y-5592000D01*
X14210000Y-5915000D02*
X14240000Y-5945000D01*
X14240000Y-5915000D02*
X14210000Y-5945000D01*
X14210000Y-6420000D02*
X14240000Y-6450000D01*
X14240000Y-6420000D02*
X14210000Y-6450000D01*
X14219000Y-3785000D02*
X14249000Y-3815000D01*
X14249000Y-3785000D02*
X14219000Y-3815000D01*
X14220000Y-3925000D02*
X14250000Y-3955000D01*
X14250000Y-3925000D02*
X14220000Y-3955000D01*
X14220000Y-4180000D02*
X14250000Y-4210000D01*
X14250000Y-4180000D02*
X14220000Y-4210000D01*
X14220000Y-4430000D02*
X14250000Y-4460000D01*
X14250000Y-4430000D02*
X14220000Y-4460000D01*
X14220000Y-4675000D02*
X14250000Y-4705000D01*
X14250000Y-4675000D02*
X14220000Y-4705000D01*
X14220000Y-4929000D02*
X14250000Y-4959000D01*
X14250000Y-4929000D02*
X14220000Y-4959000D01*
X14220000Y-5183000D02*
X14250000Y-5213000D01*
X14250000Y-5183000D02*
X14220000Y-5213000D01*
X14334000Y-8900000D02*
X14364000Y-8930000D01*
X14364000Y-8900000D02*
X14334000Y-8930000D01*
X14422000Y-6379000D02*
X14452000Y-6409000D01*
X14452000Y-6379000D02*
X14422000Y-6409000D01*
X14422000Y-6529000D02*
X14452000Y-6559000D01*
X14452000Y-6529000D02*
X14422000Y-6559000D01*
X14422000Y-6679000D02*
X14452000Y-6709000D01*
X14452000Y-6679000D02*
X14422000Y-6709000D01*
X14422000Y-6829000D02*
X14452000Y-6859000D01*
X14452000Y-6829000D02*
X14422000Y-6859000D01*
X14422000Y-6979000D02*
X14452000Y-7009000D01*
X14452000Y-6979000D02*
X14422000Y-7009000D01*
X14422000Y-7129000D02*
X14452000Y-7159000D01*
X14452000Y-7129000D02*
X14422000Y-7159000D01*
X14422000Y-7279000D02*
X14452000Y-7309000D01*
X14452000Y-7279000D02*
X14422000Y-7309000D01*
X14430000Y-8205000D02*
X14460000Y-8235000D01*
X14460000Y-8205000D02*
X14430000Y-8235000D01*
X14473000Y-3785000D02*
X14503000Y-3815000D01*
X14503000Y-3785000D02*
X14473000Y-3815000D01*
X14474000Y-4675000D02*
X14504000Y-4705000D01*
X14504000Y-4675000D02*
X14474000Y-4705000D01*
X14474000Y-4929000D02*
X14504000Y-4959000D01*
X14504000Y-4929000D02*
X14474000Y-4959000D01*
X14474000Y-5183000D02*
X14504000Y-5213000D01*
X14504000Y-5183000D02*
X14474000Y-5213000D01*
X14572000Y-5915000D02*
X14602000Y-5945000D01*
X14602000Y-5915000D02*
X14572000Y-5945000D01*
X14572000Y-6065000D02*
X14602000Y-6095000D01*
X14602000Y-6065000D02*
X14572000Y-6095000D01*
X14572000Y-6215000D02*
X14602000Y-6245000D01*
X14602000Y-6215000D02*
X14572000Y-6245000D01*
X14572000Y-6379000D02*
X14602000Y-6409000D01*
X14602000Y-6379000D02*
X14572000Y-6409000D01*
X14572000Y-6529000D02*
X14602000Y-6559000D01*
X14602000Y-6529000D02*
X14572000Y-6559000D01*
X14572000Y-6679000D02*
X14602000Y-6709000D01*
X14602000Y-6679000D02*
X14572000Y-6709000D01*
X14572000Y-6829000D02*
X14602000Y-6859000D01*
X14602000Y-6829000D02*
X14572000Y-6859000D01*
X14572000Y-6979000D02*
X14602000Y-7009000D01*
X14602000Y-6979000D02*
X14572000Y-7009000D01*
X14572000Y-7129000D02*
X14602000Y-7159000D01*
X14602000Y-7129000D02*
X14572000Y-7159000D01*
X14572000Y-7279000D02*
X14602000Y-7309000D01*
X14602000Y-7279000D02*
X14572000Y-7309000D01*
X14584000Y-5641000D02*
X14614000Y-5671000D01*
X14614000Y-5641000D02*
X14584000Y-5671000D01*
X14588000Y-8900000D02*
X14618000Y-8930000D01*
X14618000Y-8900000D02*
X14588000Y-8930000D01*
X14728000Y-4675000D02*
X14758000Y-4705000D01*
X14758000Y-4675000D02*
X14728000Y-4705000D01*
X14728000Y-4929000D02*
X14758000Y-4959000D01*
X14758000Y-4929000D02*
X14728000Y-4959000D01*
X14728000Y-5183000D02*
X14758000Y-5213000D01*
X14758000Y-5183000D02*
X14728000Y-5213000D01*
X14819000Y-6616000D02*
X14849000Y-6646000D01*
X14849000Y-6616000D02*
X14819000Y-6646000D01*
X14897000Y-6505000D02*
X14927000Y-6535000D01*
X14927000Y-6505000D02*
X14897000Y-6535000D01*
X14930000Y-8250000D02*
X14960000Y-8280000D01*
X14960000Y-8250000D02*
X14930000Y-8280000D01*
X14970000Y-6205000D02*
X15000000Y-6235000D01*
X15000000Y-6205000D02*
X14970000Y-6235000D01*
X15035000Y-4315000D02*
X15065000Y-4345000D01*
X15065000Y-4315000D02*
X15035000Y-4345000D01*
X15035000Y-4569000D02*
X15065000Y-4599000D01*
X15065000Y-4569000D02*
X15035000Y-4599000D01*
X15035000Y-4823000D02*
X15065000Y-4853000D01*
X15065000Y-4823000D02*
X15035000Y-4853000D01*
X15035000Y-5077000D02*
X15065000Y-5107000D01*
X15065000Y-5077000D02*
X15035000Y-5107000D01*
X15035000Y-5331000D02*
X15065000Y-5361000D01*
X15065000Y-5331000D02*
X15035000Y-5361000D01*
X15035000Y-5585000D02*
X15065000Y-5615000D01*
X15065000Y-5585000D02*
X15035000Y-5615000D01*
X15035000Y-5839000D02*
X15065000Y-5869000D01*
X15065000Y-5839000D02*
X15035000Y-5869000D01*
X15035000Y-6093000D02*
X15065000Y-6123000D01*
X15065000Y-6093000D02*
X15035000Y-6123000D01*
X15035000Y-6347000D02*
X15065000Y-6377000D01*
X15065000Y-6347000D02*
X15035000Y-6377000D01*
X15035000Y-6601000D02*
X15065000Y-6631000D01*
X15065000Y-6601000D02*
X15035000Y-6631000D01*
X15035000Y-6855000D02*
X15065000Y-6885000D01*
X15065000Y-6855000D02*
X15035000Y-6885000D01*
X15035000Y-7109000D02*
X15065000Y-7139000D01*
X15065000Y-7109000D02*
X15035000Y-7139000D01*
X15035000Y-7363000D02*
X15065000Y-7393000D01*
X15065000Y-7363000D02*
X15035000Y-7393000D01*
X15035000Y-7617000D02*
X15065000Y-7647000D01*
X15065000Y-7617000D02*
X15035000Y-7647000D01*
X15035000Y-7871000D02*
X15065000Y-7901000D01*
X15065000Y-7871000D02*
X15035000Y-7901000D01*
X15035000Y-8125000D02*
X15065000Y-8155000D01*
X15065000Y-8125000D02*
X15035000Y-8155000D01*
X15035000Y-8379000D02*
X15065000Y-8409000D01*
X15065000Y-8379000D02*
X15035000Y-8409000D01*
X12187500Y-4160000D02*
G75*
G02*
X12112500Y-4160000I-37500J0D01*
G01*
X12112500Y-4160000D02*
G75*
G02*
X12187500Y-4160000I37500J0D01*
G01*
X12187500Y-4360000D02*
G75*
G02*
X12112500Y-4360000I-37500J0D01*
G01*
X12112500Y-4360000D02*
G75*
G02*
X12187500Y-4360000I37500J0D01*
G01*
X12187500Y-4560000D02*
G75*
G02*
X12112500Y-4560000I-37500J0D01*
G01*
X12112500Y-4560000D02*
G75*
G02*
X12187500Y-4560000I37500J0D01*
G01*
X12187500Y-4760000D02*
G75*
G02*
X12112500Y-4760000I-37500J0D01*
G01*
X12112500Y-4760000D02*
G75*
G02*
X12187500Y-4760000I37500J0D01*
G01*
X11420000Y-6182500D02*
X11420000Y-6277500D01*
X11372500Y-6230000D02*
X11467500Y-6230000D01*
X11430000Y-5352500D02*
X11430000Y-5447500D01*
X11382500Y-5400000D02*
X11477500Y-5400000D01*
X11670000Y-6182500D02*
X11670000Y-6277500D01*
X11622500Y-6230000D02*
X11717500Y-6230000D01*
X11680000Y-5352500D02*
X11680000Y-5447500D01*
X11632500Y-5400000D02*
X11727500Y-5400000D01*
X11920000Y-6182500D02*
X11920000Y-6277500D01*
X11872500Y-6230000D02*
X11967500Y-6230000D01*
X11930000Y-5352500D02*
X11930000Y-5447500D01*
X11882500Y-5400000D02*
X11977500Y-5400000D01*
X12740000Y-4672500D02*
X12740000Y-4767500D01*
X12692500Y-4720000D02*
X12787500Y-4720000D01*
X12990000Y-4672500D02*
X12990000Y-4767500D01*
X12942500Y-4720000D02*
X13037500Y-4720000D01*
X13240000Y-4672500D02*
X13240000Y-4767500D01*
X13192500Y-4720000D02*
X13287500Y-4720000D01*
X13490000Y-4672500D02*
X13490000Y-4767500D01*
X13442500Y-4720000D02*
X13537500Y-4720000D01*
X13740000Y-4672500D02*
X13740000Y-4767500D01*
X13692500Y-4720000D02*
X13787500Y-4720000D01*
X13990000Y-4672500D02*
X13990000Y-4767500D01*
X13942500Y-4720000D02*
X14037500Y-4720000D01*
X11955356Y-7790356D02*
X11955356Y-7719644D01*
X11884644Y-7719644D01*
X11884644Y-7790356D01*
X11955356Y-7790356D01*
X11955356Y-8040356D02*
X11955356Y-7969644D01*
X11884644Y-7969644D01*
X11884644Y-8040356D01*
X11955356Y-8040356D01*
X12775356Y-8505356D02*
X12775356Y-8434644D01*
X12704644Y-8434644D01*
X12704644Y-8505356D01*
X12775356Y-8505356D01*
X13025356Y-8505356D02*
X13025356Y-8434644D01*
X12954644Y-8434644D01*
X12954644Y-8505356D01*
X13025356Y-8505356D01*
X13760356Y-8505356D02*
X13760356Y-8434644D01*
X13689644Y-8434644D01*
X13689644Y-8505356D01*
X13760356Y-8505356D01*
X14010356Y-8505356D02*
X14010356Y-8434644D01*
X13939644Y-8434644D01*
X13939644Y-8505356D01*
X14010356Y-8505356D01*
X14043356Y-7535356D02*
X14043356Y-7464644D01*
X13972644Y-7464644D01*
X13972644Y-7535356D01*
X14043356Y-7535356D01*
X14043356Y-7789356D02*
X14043356Y-7718644D01*
X13972644Y-7718644D01*
X13972644Y-7789356D01*
X14043356Y-7789356D01*
X14043356Y-8043356D02*
X14043356Y-7972644D01*
X13972644Y-7972644D01*
X13972644Y-8043356D01*
X14043356Y-8043356D01*
X14297356Y-7535356D02*
X14297356Y-7464644D01*
X14226644Y-7464644D01*
X14226644Y-7535356D01*
X14297356Y-7535356D01*
X14297356Y-7789356D02*
X14297356Y-7718644D01*
X14226644Y-7718644D01*
X14226644Y-7789356D01*
X14297356Y-7789356D01*
X14297356Y-8043356D02*
X14297356Y-7972644D01*
X14226644Y-7972644D01*
X14226644Y-8043356D01*
X14297356Y-8043356D01*
X14551356Y-7535356D02*
X14551356Y-7464644D01*
X14480644Y-7464644D01*
X14480644Y-7535356D01*
X14551356Y-7535356D01*
X14551356Y-7789356D02*
X14551356Y-7718644D01*
X14480644Y-7718644D01*
X14480644Y-7789356D01*
X14551356Y-7789356D01*
X14551356Y-8043356D02*
X14551356Y-7972644D01*
X14480644Y-7972644D01*
X14480644Y-8043356D01*
X14551356Y-8043356D01*
X14805356Y-7535356D02*
X14805356Y-7464644D01*
X14734644Y-7464644D01*
X14734644Y-7535356D01*
X14805356Y-7535356D01*
X14805356Y-7789356D02*
X14805356Y-7718644D01*
X14734644Y-7718644D01*
X14734644Y-7789356D01*
X14805356Y-7789356D01*
X14805356Y-8043356D02*
X14805356Y-7972644D01*
X14734644Y-7972644D01*
X14734644Y-8043356D01*
X14805356Y-8043356D01*
D13*
X11482000Y-6970000D02*
X11542000Y-6910000D01*
X11482000Y-6850000D01*
X11422000Y-6910000D01*
X11482000Y-6970000D01*
X11736000Y-6970000D02*
X11796000Y-6910000D01*
X11736000Y-6850000D01*
X11676000Y-6910000D01*
X11736000Y-6970000D01*
X11990000Y-6970000D02*
X12050000Y-6910000D01*
X11990000Y-6850000D01*
X11930000Y-6910000D01*
X11990000Y-6970000D01*
D14*
X11305000Y-4025000D02*
X11575000Y-4295000D01*
X11575000Y-4025000D02*
X11305000Y-4295000D01*
X11575000Y-4160000D02*
G75*
G02*
X11305000Y-4160000I-135000J0D01*
G01*
X11305000Y-4160000D02*
G75*
G02*
X11575000Y-4160000I135000J0D01*
G01*
X11305000Y-8425000D02*
X11575000Y-8695000D01*
X11575000Y-8425000D02*
X11305000Y-8695000D01*
X11575000Y-8560000D02*
G75*
G02*
X11305000Y-8560000I-135000J0D01*
G01*
X11305000Y-8560000D02*
G75*
G02*
X11575000Y-8560000I135000J0D01*
G01*
X14565000Y-4025000D02*
X14835000Y-4295000D01*
X14835000Y-4025000D02*
X14565000Y-4295000D01*
X14835000Y-4160000D02*
G75*
G02*
X14565000Y-4160000I-135000J0D01*
G01*
X14565000Y-4160000D02*
G75*
G02*
X14835000Y-4160000I135000J0D01*
G01*
X14565000Y-8425000D02*
X14835000Y-8695000D01*
X14835000Y-8425000D02*
X14565000Y-8695000D01*
X14835000Y-8560000D02*
G75*
G02*
X14565000Y-8560000I-135000J0D01*
G01*
X14565000Y-8560000D02*
G75*
G02*
X14835000Y-8560000I135000J0D01*
G01*
D11*
X11278277Y-9293984D02*
X11278277Y-9093984D01*
X11278277Y-9093984D02*
X11325896Y-9093984D01*
X11325896Y-9093984D02*
X11354467Y-9103508D01*
X11354467Y-9103508D02*
X11373515Y-9122555D01*
X11373515Y-9122555D02*
X11383039Y-9141603D01*
X11383039Y-9141603D02*
X11392562Y-9179698D01*
X11392562Y-9179698D02*
X11392562Y-9208270D01*
X11392562Y-9208270D02*
X11383039Y-9246365D01*
X11383039Y-9246365D02*
X11373515Y-9265412D01*
X11373515Y-9265412D02*
X11354467Y-9284460D01*
X11354467Y-9284460D02*
X11325896Y-9293984D01*
X11325896Y-9293984D02*
X11278277Y-9293984D01*
X11478277Y-9293984D02*
X11478277Y-9160650D01*
X11478277Y-9198746D02*
X11487801Y-9179698D01*
X11487801Y-9179698D02*
X11497324Y-9170174D01*
X11497324Y-9170174D02*
X11516372Y-9160650D01*
X11516372Y-9160650D02*
X11535420Y-9160650D01*
X11602086Y-9293984D02*
X11602086Y-9160650D01*
X11602086Y-9093984D02*
X11592562Y-9103508D01*
X11592562Y-9103508D02*
X11602086Y-9113031D01*
X11602086Y-9113031D02*
X11611610Y-9103508D01*
X11611610Y-9103508D02*
X11602086Y-9093984D01*
X11602086Y-9093984D02*
X11602086Y-9113031D01*
X11725896Y-9293984D02*
X11706848Y-9284460D01*
X11706848Y-9284460D02*
X11697324Y-9265412D01*
X11697324Y-9265412D02*
X11697324Y-9093984D01*
X11830658Y-9293984D02*
X11811610Y-9284460D01*
X11811610Y-9284460D02*
X11802086Y-9265412D01*
X11802086Y-9265412D02*
X11802086Y-9093984D01*
X12059229Y-9293984D02*
X12059229Y-9093984D01*
X12059229Y-9093984D02*
X12125896Y-9236841D01*
X12125896Y-9236841D02*
X12192562Y-9093984D01*
X12192562Y-9093984D02*
X12192562Y-9293984D01*
X12373515Y-9293984D02*
X12373515Y-9189222D01*
X12373515Y-9189222D02*
X12363991Y-9170174D01*
X12363991Y-9170174D02*
X12344943Y-9160650D01*
X12344943Y-9160650D02*
X12306848Y-9160650D01*
X12306848Y-9160650D02*
X12287801Y-9170174D01*
X12373515Y-9284460D02*
X12354467Y-9293984D01*
X12354467Y-9293984D02*
X12306848Y-9293984D01*
X12306848Y-9293984D02*
X12287801Y-9284460D01*
X12287801Y-9284460D02*
X12278277Y-9265412D01*
X12278277Y-9265412D02*
X12278277Y-9246365D01*
X12278277Y-9246365D02*
X12287801Y-9227317D01*
X12287801Y-9227317D02*
X12306848Y-9217793D01*
X12306848Y-9217793D02*
X12354467Y-9217793D01*
X12354467Y-9217793D02*
X12373515Y-9208270D01*
X12468753Y-9160650D02*
X12468753Y-9360650D01*
X12468753Y-9170174D02*
X12487801Y-9160650D01*
X12487801Y-9160650D02*
X12525896Y-9160650D01*
X12525896Y-9160650D02*
X12544943Y-9170174D01*
X12544943Y-9170174D02*
X12554467Y-9179698D01*
X12554467Y-9179698D02*
X12563991Y-9198746D01*
X12563991Y-9198746D02*
X12563991Y-9255889D01*
X12563991Y-9255889D02*
X12554467Y-9274936D01*
X12554467Y-9274936D02*
X12544943Y-9284460D01*
X12544943Y-9284460D02*
X12525896Y-9293984D01*
X12525896Y-9293984D02*
X12487801Y-9293984D01*
X12487801Y-9293984D02*
X12468753Y-9284460D01*
X12649705Y-9274936D02*
X12659229Y-9284460D01*
X12659229Y-9284460D02*
X12649705Y-9293984D01*
X12649705Y-9293984D02*
X12640182Y-9284460D01*
X12640182Y-9284460D02*
X12649705Y-9274936D01*
X12649705Y-9274936D02*
X12649705Y-9293984D01*
X12649705Y-9170174D02*
X12659229Y-9179698D01*
X12659229Y-9179698D02*
X12649705Y-9189222D01*
X12649705Y-9189222D02*
X12640182Y-9179698D01*
X12640182Y-9179698D02*
X12649705Y-9170174D01*
X12649705Y-9170174D02*
X12649705Y-9189222D01*
D12*
X10987500Y-9607500D02*
X11017500Y-9637500D01*
X11017500Y-9607500D02*
X10987500Y-9637500D01*
D11*
X11316372Y-9513984D02*
X11335420Y-9513984D01*
X11335420Y-9513984D02*
X11354467Y-9523508D01*
X11354467Y-9523508D02*
X11363991Y-9533031D01*
X11363991Y-9533031D02*
X11373515Y-9552079D01*
X11373515Y-9552079D02*
X11383039Y-9590174D01*
X11383039Y-9590174D02*
X11383039Y-9637793D01*
X11383039Y-9637793D02*
X11373515Y-9675889D01*
X11373515Y-9675889D02*
X11363991Y-9694936D01*
X11363991Y-9694936D02*
X11354467Y-9704460D01*
X11354467Y-9704460D02*
X11335420Y-9713984D01*
X11335420Y-9713984D02*
X11316372Y-9713984D01*
X11316372Y-9713984D02*
X11297324Y-9704460D01*
X11297324Y-9704460D02*
X11287801Y-9694936D01*
X11287801Y-9694936D02*
X11278277Y-9675889D01*
X11278277Y-9675889D02*
X11268753Y-9637793D01*
X11268753Y-9637793D02*
X11268753Y-9590174D01*
X11268753Y-9590174D02*
X11278277Y-9552079D01*
X11278277Y-9552079D02*
X11287801Y-9533031D01*
X11287801Y-9533031D02*
X11297324Y-9523508D01*
X11297324Y-9523508D02*
X11316372Y-9513984D01*
X11468753Y-9694936D02*
X11478277Y-9704460D01*
X11478277Y-9704460D02*
X11468753Y-9713984D01*
X11468753Y-9713984D02*
X11459229Y-9704460D01*
X11459229Y-9704460D02*
X11468753Y-9694936D01*
X11468753Y-9694936D02*
X11468753Y-9713984D01*
X11544943Y-9513984D02*
X11668753Y-9513984D01*
X11668753Y-9513984D02*
X11602086Y-9590174D01*
X11602086Y-9590174D02*
X11630658Y-9590174D01*
X11630658Y-9590174D02*
X11649705Y-9599698D01*
X11649705Y-9599698D02*
X11659229Y-9609222D01*
X11659229Y-9609222D02*
X11668753Y-9628270D01*
X11668753Y-9628270D02*
X11668753Y-9675889D01*
X11668753Y-9675889D02*
X11659229Y-9694936D01*
X11659229Y-9694936D02*
X11649705Y-9704460D01*
X11649705Y-9704460D02*
X11630658Y-9713984D01*
X11630658Y-9713984D02*
X11573515Y-9713984D01*
X11573515Y-9713984D02*
X11554467Y-9704460D01*
X11554467Y-9704460D02*
X11544943Y-9694936D01*
X11792562Y-9513984D02*
X11811610Y-9513984D01*
X11811610Y-9513984D02*
X11830658Y-9523508D01*
X11830658Y-9523508D02*
X11840182Y-9533031D01*
X11840182Y-9533031D02*
X11849705Y-9552079D01*
X11849705Y-9552079D02*
X11859229Y-9590174D01*
X11859229Y-9590174D02*
X11859229Y-9637793D01*
X11859229Y-9637793D02*
X11849705Y-9675889D01*
X11849705Y-9675889D02*
X11840182Y-9694936D01*
X11840182Y-9694936D02*
X11830658Y-9704460D01*
X11830658Y-9704460D02*
X11811610Y-9713984D01*
X11811610Y-9713984D02*
X11792562Y-9713984D01*
X11792562Y-9713984D02*
X11773515Y-9704460D01*
X11773515Y-9704460D02*
X11763991Y-9694936D01*
X11763991Y-9694936D02*
X11754467Y-9675889D01*
X11754467Y-9675889D02*
X11744943Y-9637793D01*
X11744943Y-9637793D02*
X11744943Y-9590174D01*
X11744943Y-9590174D02*
X11754467Y-9552079D01*
X11754467Y-9552079D02*
X11763991Y-9533031D01*
X11763991Y-9533031D02*
X11773515Y-9523508D01*
X11773515Y-9523508D02*
X11792562Y-9513984D01*
X11983039Y-9513984D02*
X12002086Y-9513984D01*
X12002086Y-9513984D02*
X12021134Y-9523508D01*
X12021134Y-9523508D02*
X12030658Y-9533031D01*
X12030658Y-9533031D02*
X12040182Y-9552079D01*
X12040182Y-9552079D02*
X12049705Y-9590174D01*
X12049705Y-9590174D02*
X12049705Y-9637793D01*
X12049705Y-9637793D02*
X12040182Y-9675889D01*
X12040182Y-9675889D02*
X12030658Y-9694936D01*
X12030658Y-9694936D02*
X12021134Y-9704460D01*
X12021134Y-9704460D02*
X12002086Y-9713984D01*
X12002086Y-9713984D02*
X11983039Y-9713984D01*
X11983039Y-9713984D02*
X11963991Y-9704460D01*
X11963991Y-9704460D02*
X11954467Y-9694936D01*
X11954467Y-9694936D02*
X11944943Y-9675889D01*
X11944943Y-9675889D02*
X11935420Y-9637793D01*
X11935420Y-9637793D02*
X11935420Y-9590174D01*
X11935420Y-9590174D02*
X11944943Y-9552079D01*
X11944943Y-9552079D02*
X11954467Y-9533031D01*
X11954467Y-9533031D02*
X11963991Y-9523508D01*
X11963991Y-9523508D02*
X11983039Y-9513984D01*
X12135420Y-9713984D02*
X12135420Y-9580650D01*
X12135420Y-9599698D02*
X12144943Y-9590174D01*
X12144943Y-9590174D02*
X12163991Y-9580650D01*
X12163991Y-9580650D02*
X12192563Y-9580650D01*
X12192563Y-9580650D02*
X12211610Y-9590174D01*
X12211610Y-9590174D02*
X12221134Y-9609222D01*
X12221134Y-9609222D02*
X12221134Y-9713984D01*
X12221134Y-9609222D02*
X12230658Y-9590174D01*
X12230658Y-9590174D02*
X12249705Y-9580650D01*
X12249705Y-9580650D02*
X12278277Y-9580650D01*
X12278277Y-9580650D02*
X12297324Y-9590174D01*
X12297324Y-9590174D02*
X12306848Y-9609222D01*
X12306848Y-9609222D02*
X12306848Y-9713984D01*
X12402086Y-9713984D02*
X12402086Y-9580650D01*
X12402086Y-9599698D02*
X12411610Y-9590174D01*
X12411610Y-9590174D02*
X12430658Y-9580650D01*
X12430658Y-9580650D02*
X12459229Y-9580650D01*
X12459229Y-9580650D02*
X12478277Y-9590174D01*
X12478277Y-9590174D02*
X12487801Y-9609222D01*
X12487801Y-9609222D02*
X12487801Y-9713984D01*
X12487801Y-9609222D02*
X12497324Y-9590174D01*
X12497324Y-9590174D02*
X12516372Y-9580650D01*
X12516372Y-9580650D02*
X12544943Y-9580650D01*
X12544943Y-9580650D02*
X12563991Y-9590174D01*
X12563991Y-9590174D02*
X12573515Y-9609222D01*
X12573515Y-9609222D02*
X12573515Y-9713984D01*
X12963991Y-9504460D02*
X12792563Y-9761603D01*
X13221134Y-9513984D02*
X13240182Y-9513984D01*
X13240182Y-9513984D02*
X13259229Y-9523508D01*
X13259229Y-9523508D02*
X13268753Y-9533031D01*
X13268753Y-9533031D02*
X13278277Y-9552079D01*
X13278277Y-9552079D02*
X13287801Y-9590174D01*
X13287801Y-9590174D02*
X13287801Y-9637793D01*
X13287801Y-9637793D02*
X13278277Y-9675889D01*
X13278277Y-9675889D02*
X13268753Y-9694936D01*
X13268753Y-9694936D02*
X13259229Y-9704460D01*
X13259229Y-9704460D02*
X13240182Y-9713984D01*
X13240182Y-9713984D02*
X13221134Y-9713984D01*
X13221134Y-9713984D02*
X13202086Y-9704460D01*
X13202086Y-9704460D02*
X13192563Y-9694936D01*
X13192563Y-9694936D02*
X13183039Y-9675889D01*
X13183039Y-9675889D02*
X13173515Y-9637793D01*
X13173515Y-9637793D02*
X13173515Y-9590174D01*
X13173515Y-9590174D02*
X13183039Y-9552079D01*
X13183039Y-9552079D02*
X13192563Y-9533031D01*
X13192563Y-9533031D02*
X13202086Y-9523508D01*
X13202086Y-9523508D02*
X13221134Y-9513984D01*
X13373515Y-9694936D02*
X13383039Y-9704460D01*
X13383039Y-9704460D02*
X13373515Y-9713984D01*
X13373515Y-9713984D02*
X13363991Y-9704460D01*
X13363991Y-9704460D02*
X13373515Y-9694936D01*
X13373515Y-9694936D02*
X13373515Y-9713984D01*
X13506848Y-9513984D02*
X13525896Y-9513984D01*
X13525896Y-9513984D02*
X13544944Y-9523508D01*
X13544944Y-9523508D02*
X13554467Y-9533031D01*
X13554467Y-9533031D02*
X13563991Y-9552079D01*
X13563991Y-9552079D02*
X13573515Y-9590174D01*
X13573515Y-9590174D02*
X13573515Y-9637793D01*
X13573515Y-9637793D02*
X13563991Y-9675889D01*
X13563991Y-9675889D02*
X13554467Y-9694936D01*
X13554467Y-9694936D02*
X13544944Y-9704460D01*
X13544944Y-9704460D02*
X13525896Y-9713984D01*
X13525896Y-9713984D02*
X13506848Y-9713984D01*
X13506848Y-9713984D02*
X13487801Y-9704460D01*
X13487801Y-9704460D02*
X13478277Y-9694936D01*
X13478277Y-9694936D02*
X13468753Y-9675889D01*
X13468753Y-9675889D02*
X13459229Y-9637793D01*
X13459229Y-9637793D02*
X13459229Y-9590174D01*
X13459229Y-9590174D02*
X13468753Y-9552079D01*
X13468753Y-9552079D02*
X13478277Y-9533031D01*
X13478277Y-9533031D02*
X13487801Y-9523508D01*
X13487801Y-9523508D02*
X13506848Y-9513984D01*
X13763991Y-9713984D02*
X13649706Y-9713984D01*
X13706848Y-9713984D02*
X13706848Y-9513984D01*
X13706848Y-9513984D02*
X13687801Y-9542555D01*
X13687801Y-9542555D02*
X13668753Y-9561603D01*
X13668753Y-9561603D02*
X13649706Y-9571127D01*
X13954467Y-9713984D02*
X13840182Y-9713984D01*
X13897325Y-9713984D02*
X13897325Y-9513984D01*
X13897325Y-9513984D02*
X13878277Y-9542555D01*
X13878277Y-9542555D02*
X13859229Y-9561603D01*
X13859229Y-9561603D02*
X13840182Y-9571127D01*
X14068753Y-9599698D02*
X14049706Y-9590174D01*
X14049706Y-9590174D02*
X14040182Y-9580650D01*
X14040182Y-9580650D02*
X14030658Y-9561603D01*
X14030658Y-9561603D02*
X14030658Y-9552079D01*
X14030658Y-9552079D02*
X14040182Y-9533031D01*
X14040182Y-9533031D02*
X14049706Y-9523508D01*
X14049706Y-9523508D02*
X14068753Y-9513984D01*
X14068753Y-9513984D02*
X14106848Y-9513984D01*
X14106848Y-9513984D02*
X14125896Y-9523508D01*
X14125896Y-9523508D02*
X14135420Y-9533031D01*
X14135420Y-9533031D02*
X14144944Y-9552079D01*
X14144944Y-9552079D02*
X14144944Y-9561603D01*
X14144944Y-9561603D02*
X14135420Y-9580650D01*
X14135420Y-9580650D02*
X14125896Y-9590174D01*
X14125896Y-9590174D02*
X14106848Y-9599698D01*
X14106848Y-9599698D02*
X14068753Y-9599698D01*
X14068753Y-9599698D02*
X14049706Y-9609222D01*
X14049706Y-9609222D02*
X14040182Y-9618746D01*
X14040182Y-9618746D02*
X14030658Y-9637793D01*
X14030658Y-9637793D02*
X14030658Y-9675889D01*
X14030658Y-9675889D02*
X14040182Y-9694936D01*
X14040182Y-9694936D02*
X14049706Y-9704460D01*
X14049706Y-9704460D02*
X14068753Y-9713984D01*
X14068753Y-9713984D02*
X14106848Y-9713984D01*
X14106848Y-9713984D02*
X14125896Y-9704460D01*
X14125896Y-9704460D02*
X14135420Y-9694936D01*
X14135420Y-9694936D02*
X14144944Y-9675889D01*
X14144944Y-9675889D02*
X14144944Y-9637793D01*
X14144944Y-9637793D02*
X14135420Y-9618746D01*
X14135420Y-9618746D02*
X14125896Y-9609222D01*
X14125896Y-9609222D02*
X14106848Y-9599698D01*
X14221134Y-9513984D02*
X14221134Y-9552079D01*
X14297325Y-9513984D02*
X14297325Y-9552079D01*
X14592563Y-9790174D02*
X14583039Y-9780650D01*
X14583039Y-9780650D02*
X14563991Y-9752079D01*
X14563991Y-9752079D02*
X14554468Y-9733031D01*
X14554468Y-9733031D02*
X14544944Y-9704460D01*
X14544944Y-9704460D02*
X14535420Y-9656841D01*
X14535420Y-9656841D02*
X14535420Y-9618746D01*
X14535420Y-9618746D02*
X14544944Y-9571127D01*
X14544944Y-9571127D02*
X14554468Y-9542555D01*
X14554468Y-9542555D02*
X14563991Y-9523508D01*
X14563991Y-9523508D02*
X14583039Y-9494936D01*
X14583039Y-9494936D02*
X14592563Y-9485412D01*
X14649706Y-9513984D02*
X14773515Y-9513984D01*
X14773515Y-9513984D02*
X14706848Y-9590174D01*
X14706848Y-9590174D02*
X14735420Y-9590174D01*
X14735420Y-9590174D02*
X14754468Y-9599698D01*
X14754468Y-9599698D02*
X14763991Y-9609222D01*
X14763991Y-9609222D02*
X14773515Y-9628270D01*
X14773515Y-9628270D02*
X14773515Y-9675889D01*
X14773515Y-9675889D02*
X14763991Y-9694936D01*
X14763991Y-9694936D02*
X14754468Y-9704460D01*
X14754468Y-9704460D02*
X14735420Y-9713984D01*
X14735420Y-9713984D02*
X14678277Y-9713984D01*
X14678277Y-9713984D02*
X14659229Y-9704460D01*
X14659229Y-9704460D02*
X14649706Y-9694936D01*
X14963991Y-9713984D02*
X14849706Y-9713984D01*
X14906848Y-9713984D02*
X14906848Y-9513984D01*
X14906848Y-9513984D02*
X14887801Y-9542555D01*
X14887801Y-9542555D02*
X14868753Y-9561603D01*
X14868753Y-9561603D02*
X14849706Y-9571127D01*
X15040182Y-9533031D02*
X15049706Y-9523508D01*
X15049706Y-9523508D02*
X15068753Y-9513984D01*
X15068753Y-9513984D02*
X15116372Y-9513984D01*
X15116372Y-9513984D02*
X15135420Y-9523508D01*
X15135420Y-9523508D02*
X15144944Y-9533031D01*
X15144944Y-9533031D02*
X15154468Y-9552079D01*
X15154468Y-9552079D02*
X15154468Y-9571127D01*
X15154468Y-9571127D02*
X15144944Y-9599698D01*
X15144944Y-9599698D02*
X15030658Y-9713984D01*
X15030658Y-9713984D02*
X15154468Y-9713984D01*
X15392563Y-9713984D02*
X15392563Y-9513984D01*
X15478277Y-9713984D02*
X15478277Y-9609222D01*
X15478277Y-9609222D02*
X15468753Y-9590174D01*
X15468753Y-9590174D02*
X15449706Y-9580650D01*
X15449706Y-9580650D02*
X15421134Y-9580650D01*
X15421134Y-9580650D02*
X15402087Y-9590174D01*
X15402087Y-9590174D02*
X15392563Y-9599698D01*
X15602087Y-9713984D02*
X15583039Y-9704460D01*
X15583039Y-9704460D02*
X15573515Y-9694936D01*
X15573515Y-9694936D02*
X15563991Y-9675889D01*
X15563991Y-9675889D02*
X15563991Y-9618746D01*
X15563991Y-9618746D02*
X15573515Y-9599698D01*
X15573515Y-9599698D02*
X15583039Y-9590174D01*
X15583039Y-9590174D02*
X15602087Y-9580650D01*
X15602087Y-9580650D02*
X15630658Y-9580650D01*
X15630658Y-9580650D02*
X15649706Y-9590174D01*
X15649706Y-9590174D02*
X15659230Y-9599698D01*
X15659230Y-9599698D02*
X15668753Y-9618746D01*
X15668753Y-9618746D02*
X15668753Y-9675889D01*
X15668753Y-9675889D02*
X15659230Y-9694936D01*
X15659230Y-9694936D02*
X15649706Y-9704460D01*
X15649706Y-9704460D02*
X15630658Y-9713984D01*
X15630658Y-9713984D02*
X15602087Y-9713984D01*
X15783039Y-9713984D02*
X15763991Y-9704460D01*
X15763991Y-9704460D02*
X15754468Y-9685412D01*
X15754468Y-9685412D02*
X15754468Y-9513984D01*
X15935420Y-9704460D02*
X15916372Y-9713984D01*
X15916372Y-9713984D02*
X15878277Y-9713984D01*
X15878277Y-9713984D02*
X15859230Y-9704460D01*
X15859230Y-9704460D02*
X15849706Y-9685412D01*
X15849706Y-9685412D02*
X15849706Y-9609222D01*
X15849706Y-9609222D02*
X15859230Y-9590174D01*
X15859230Y-9590174D02*
X15878277Y-9580650D01*
X15878277Y-9580650D02*
X15916372Y-9580650D01*
X15916372Y-9580650D02*
X15935420Y-9590174D01*
X15935420Y-9590174D02*
X15944944Y-9609222D01*
X15944944Y-9609222D02*
X15944944Y-9628270D01*
X15944944Y-9628270D02*
X15849706Y-9647317D01*
X16021134Y-9704460D02*
X16040182Y-9713984D01*
X16040182Y-9713984D02*
X16078277Y-9713984D01*
X16078277Y-9713984D02*
X16097325Y-9704460D01*
X16097325Y-9704460D02*
X16106849Y-9685412D01*
X16106849Y-9685412D02*
X16106849Y-9675889D01*
X16106849Y-9675889D02*
X16097325Y-9656841D01*
X16097325Y-9656841D02*
X16078277Y-9647317D01*
X16078277Y-9647317D02*
X16049706Y-9647317D01*
X16049706Y-9647317D02*
X16030658Y-9637793D01*
X16030658Y-9637793D02*
X16021134Y-9618746D01*
X16021134Y-9618746D02*
X16021134Y-9609222D01*
X16021134Y-9609222D02*
X16030658Y-9590174D01*
X16030658Y-9590174D02*
X16049706Y-9580650D01*
X16049706Y-9580650D02*
X16078277Y-9580650D01*
X16078277Y-9580650D02*
X16097325Y-9590174D01*
X16173515Y-9790174D02*
X16183039Y-9780650D01*
X16183039Y-9780650D02*
X16202087Y-9752079D01*
X16202087Y-9752079D02*
X16211611Y-9733031D01*
X16211611Y-9733031D02*
X16221134Y-9704460D01*
X16221134Y-9704460D02*
X16230658Y-9656841D01*
X16230658Y-9656841D02*
X16230658Y-9618746D01*
X16230658Y-9618746D02*
X16221134Y-9571127D01*
X16221134Y-9571127D02*
X16211611Y-9542555D01*
X16211611Y-9542555D02*
X16202087Y-9523508D01*
X16202087Y-9523508D02*
X16183039Y-9494936D01*
X16183039Y-9494936D02*
X16173515Y-9485412D01*
D12*
X11017500Y-9886500D02*
G75*
G02*
X10942500Y-9886500I-37500J0D01*
G01*
X10942500Y-9886500D02*
G75*
G02*
X11017500Y-9886500I37500J0D01*
G01*
D11*
X11316372Y-9777984D02*
X11335420Y-9777984D01*
X11335420Y-9777984D02*
X11354467Y-9787508D01*
X11354467Y-9787508D02*
X11363991Y-9797031D01*
X11363991Y-9797031D02*
X11373515Y-9816079D01*
X11373515Y-9816079D02*
X11383039Y-9854174D01*
X11383039Y-9854174D02*
X11383039Y-9901793D01*
X11383039Y-9901793D02*
X11373515Y-9939889D01*
X11373515Y-9939889D02*
X11363991Y-9958936D01*
X11363991Y-9958936D02*
X11354467Y-9968460D01*
X11354467Y-9968460D02*
X11335420Y-9977984D01*
X11335420Y-9977984D02*
X11316372Y-9977984D01*
X11316372Y-9977984D02*
X11297324Y-9968460D01*
X11297324Y-9968460D02*
X11287801Y-9958936D01*
X11287801Y-9958936D02*
X11278277Y-9939889D01*
X11278277Y-9939889D02*
X11268753Y-9901793D01*
X11268753Y-9901793D02*
X11268753Y-9854174D01*
X11268753Y-9854174D02*
X11278277Y-9816079D01*
X11278277Y-9816079D02*
X11287801Y-9797031D01*
X11287801Y-9797031D02*
X11297324Y-9787508D01*
X11297324Y-9787508D02*
X11316372Y-9777984D01*
X11468753Y-9958936D02*
X11478277Y-9968460D01*
X11478277Y-9968460D02*
X11468753Y-9977984D01*
X11468753Y-9977984D02*
X11459229Y-9968460D01*
X11459229Y-9968460D02*
X11468753Y-9958936D01*
X11468753Y-9958936D02*
X11468753Y-9977984D01*
X11544943Y-9777984D02*
X11678277Y-9777984D01*
X11678277Y-9777984D02*
X11592562Y-9977984D01*
X11849705Y-9777984D02*
X11754467Y-9777984D01*
X11754467Y-9777984D02*
X11744943Y-9873222D01*
X11744943Y-9873222D02*
X11754467Y-9863698D01*
X11754467Y-9863698D02*
X11773515Y-9854174D01*
X11773515Y-9854174D02*
X11821134Y-9854174D01*
X11821134Y-9854174D02*
X11840182Y-9863698D01*
X11840182Y-9863698D02*
X11849705Y-9873222D01*
X11849705Y-9873222D02*
X11859229Y-9892270D01*
X11859229Y-9892270D02*
X11859229Y-9939889D01*
X11859229Y-9939889D02*
X11849705Y-9958936D01*
X11849705Y-9958936D02*
X11840182Y-9968460D01*
X11840182Y-9968460D02*
X11821134Y-9977984D01*
X11821134Y-9977984D02*
X11773515Y-9977984D01*
X11773515Y-9977984D02*
X11754467Y-9968460D01*
X11754467Y-9968460D02*
X11744943Y-9958936D01*
X11983039Y-9777984D02*
X12002086Y-9777984D01*
X12002086Y-9777984D02*
X12021134Y-9787508D01*
X12021134Y-9787508D02*
X12030658Y-9797031D01*
X12030658Y-9797031D02*
X12040182Y-9816079D01*
X12040182Y-9816079D02*
X12049705Y-9854174D01*
X12049705Y-9854174D02*
X12049705Y-9901793D01*
X12049705Y-9901793D02*
X12040182Y-9939889D01*
X12040182Y-9939889D02*
X12030658Y-9958936D01*
X12030658Y-9958936D02*
X12021134Y-9968460D01*
X12021134Y-9968460D02*
X12002086Y-9977984D01*
X12002086Y-9977984D02*
X11983039Y-9977984D01*
X11983039Y-9977984D02*
X11963991Y-9968460D01*
X11963991Y-9968460D02*
X11954467Y-9958936D01*
X11954467Y-9958936D02*
X11944943Y-9939889D01*
X11944943Y-9939889D02*
X11935420Y-9901793D01*
X11935420Y-9901793D02*
X11935420Y-9854174D01*
X11935420Y-9854174D02*
X11944943Y-9816079D01*
X11944943Y-9816079D02*
X11954467Y-9797031D01*
X11954467Y-9797031D02*
X11963991Y-9787508D01*
X11963991Y-9787508D02*
X11983039Y-9777984D01*
X12135420Y-9977984D02*
X12135420Y-9844650D01*
X12135420Y-9863698D02*
X12144943Y-9854174D01*
X12144943Y-9854174D02*
X12163991Y-9844650D01*
X12163991Y-9844650D02*
X12192563Y-9844650D01*
X12192563Y-9844650D02*
X12211610Y-9854174D01*
X12211610Y-9854174D02*
X12221134Y-9873222D01*
X12221134Y-9873222D02*
X12221134Y-9977984D01*
X12221134Y-9873222D02*
X12230658Y-9854174D01*
X12230658Y-9854174D02*
X12249705Y-9844650D01*
X12249705Y-9844650D02*
X12278277Y-9844650D01*
X12278277Y-9844650D02*
X12297324Y-9854174D01*
X12297324Y-9854174D02*
X12306848Y-9873222D01*
X12306848Y-9873222D02*
X12306848Y-9977984D01*
X12402086Y-9977984D02*
X12402086Y-9844650D01*
X12402086Y-9863698D02*
X12411610Y-9854174D01*
X12411610Y-9854174D02*
X12430658Y-9844650D01*
X12430658Y-9844650D02*
X12459229Y-9844650D01*
X12459229Y-9844650D02*
X12478277Y-9854174D01*
X12478277Y-9854174D02*
X12487801Y-9873222D01*
X12487801Y-9873222D02*
X12487801Y-9977984D01*
X12487801Y-9873222D02*
X12497324Y-9854174D01*
X12497324Y-9854174D02*
X12516372Y-9844650D01*
X12516372Y-9844650D02*
X12544943Y-9844650D01*
X12544943Y-9844650D02*
X12563991Y-9854174D01*
X12563991Y-9854174D02*
X12573515Y-9873222D01*
X12573515Y-9873222D02*
X12573515Y-9977984D01*
X12963991Y-9768460D02*
X12792563Y-10025603D01*
X13221134Y-9777984D02*
X13240182Y-9777984D01*
X13240182Y-9777984D02*
X13259229Y-9787508D01*
X13259229Y-9787508D02*
X13268753Y-9797031D01*
X13268753Y-9797031D02*
X13278277Y-9816079D01*
X13278277Y-9816079D02*
X13287801Y-9854174D01*
X13287801Y-9854174D02*
X13287801Y-9901793D01*
X13287801Y-9901793D02*
X13278277Y-9939889D01*
X13278277Y-9939889D02*
X13268753Y-9958936D01*
X13268753Y-9958936D02*
X13259229Y-9968460D01*
X13259229Y-9968460D02*
X13240182Y-9977984D01*
X13240182Y-9977984D02*
X13221134Y-9977984D01*
X13221134Y-9977984D02*
X13202086Y-9968460D01*
X13202086Y-9968460D02*
X13192563Y-9958936D01*
X13192563Y-9958936D02*
X13183039Y-9939889D01*
X13183039Y-9939889D02*
X13173515Y-9901793D01*
X13173515Y-9901793D02*
X13173515Y-9854174D01*
X13173515Y-9854174D02*
X13183039Y-9816079D01*
X13183039Y-9816079D02*
X13192563Y-9797031D01*
X13192563Y-9797031D02*
X13202086Y-9787508D01*
X13202086Y-9787508D02*
X13221134Y-9777984D01*
X13373515Y-9958936D02*
X13383039Y-9968460D01*
X13383039Y-9968460D02*
X13373515Y-9977984D01*
X13373515Y-9977984D02*
X13363991Y-9968460D01*
X13363991Y-9968460D02*
X13373515Y-9958936D01*
X13373515Y-9958936D02*
X13373515Y-9977984D01*
X13506848Y-9777984D02*
X13525896Y-9777984D01*
X13525896Y-9777984D02*
X13544944Y-9787508D01*
X13544944Y-9787508D02*
X13554467Y-9797031D01*
X13554467Y-9797031D02*
X13563991Y-9816079D01*
X13563991Y-9816079D02*
X13573515Y-9854174D01*
X13573515Y-9854174D02*
X13573515Y-9901793D01*
X13573515Y-9901793D02*
X13563991Y-9939889D01*
X13563991Y-9939889D02*
X13554467Y-9958936D01*
X13554467Y-9958936D02*
X13544944Y-9968460D01*
X13544944Y-9968460D02*
X13525896Y-9977984D01*
X13525896Y-9977984D02*
X13506848Y-9977984D01*
X13506848Y-9977984D02*
X13487801Y-9968460D01*
X13487801Y-9968460D02*
X13478277Y-9958936D01*
X13478277Y-9958936D02*
X13468753Y-9939889D01*
X13468753Y-9939889D02*
X13459229Y-9901793D01*
X13459229Y-9901793D02*
X13459229Y-9854174D01*
X13459229Y-9854174D02*
X13468753Y-9816079D01*
X13468753Y-9816079D02*
X13478277Y-9797031D01*
X13478277Y-9797031D02*
X13487801Y-9787508D01*
X13487801Y-9787508D02*
X13506848Y-9777984D01*
X13649706Y-9797031D02*
X13659229Y-9787508D01*
X13659229Y-9787508D02*
X13678277Y-9777984D01*
X13678277Y-9777984D02*
X13725896Y-9777984D01*
X13725896Y-9777984D02*
X13744944Y-9787508D01*
X13744944Y-9787508D02*
X13754467Y-9797031D01*
X13754467Y-9797031D02*
X13763991Y-9816079D01*
X13763991Y-9816079D02*
X13763991Y-9835127D01*
X13763991Y-9835127D02*
X13754467Y-9863698D01*
X13754467Y-9863698D02*
X13640182Y-9977984D01*
X13640182Y-9977984D02*
X13763991Y-9977984D01*
X13859229Y-9977984D02*
X13897325Y-9977984D01*
X13897325Y-9977984D02*
X13916372Y-9968460D01*
X13916372Y-9968460D02*
X13925896Y-9958936D01*
X13925896Y-9958936D02*
X13944944Y-9930365D01*
X13944944Y-9930365D02*
X13954467Y-9892270D01*
X13954467Y-9892270D02*
X13954467Y-9816079D01*
X13954467Y-9816079D02*
X13944944Y-9797031D01*
X13944944Y-9797031D02*
X13935420Y-9787508D01*
X13935420Y-9787508D02*
X13916372Y-9777984D01*
X13916372Y-9777984D02*
X13878277Y-9777984D01*
X13878277Y-9777984D02*
X13859229Y-9787508D01*
X13859229Y-9787508D02*
X13849706Y-9797031D01*
X13849706Y-9797031D02*
X13840182Y-9816079D01*
X13840182Y-9816079D02*
X13840182Y-9863698D01*
X13840182Y-9863698D02*
X13849706Y-9882746D01*
X13849706Y-9882746D02*
X13859229Y-9892270D01*
X13859229Y-9892270D02*
X13878277Y-9901793D01*
X13878277Y-9901793D02*
X13916372Y-9901793D01*
X13916372Y-9901793D02*
X13935420Y-9892270D01*
X13935420Y-9892270D02*
X13944944Y-9882746D01*
X13944944Y-9882746D02*
X13954467Y-9863698D01*
X14135420Y-9777984D02*
X14040182Y-9777984D01*
X14040182Y-9777984D02*
X14030658Y-9873222D01*
X14030658Y-9873222D02*
X14040182Y-9863698D01*
X14040182Y-9863698D02*
X14059229Y-9854174D01*
X14059229Y-9854174D02*
X14106848Y-9854174D01*
X14106848Y-9854174D02*
X14125896Y-9863698D01*
X14125896Y-9863698D02*
X14135420Y-9873222D01*
X14135420Y-9873222D02*
X14144944Y-9892270D01*
X14144944Y-9892270D02*
X14144944Y-9939889D01*
X14144944Y-9939889D02*
X14135420Y-9958936D01*
X14135420Y-9958936D02*
X14125896Y-9968460D01*
X14125896Y-9968460D02*
X14106848Y-9977984D01*
X14106848Y-9977984D02*
X14059229Y-9977984D01*
X14059229Y-9977984D02*
X14040182Y-9968460D01*
X14040182Y-9968460D02*
X14030658Y-9958936D01*
X14221134Y-9777984D02*
X14221134Y-9816079D01*
X14297325Y-9777984D02*
X14297325Y-9816079D01*
X14592563Y-10054174D02*
X14583039Y-10044650D01*
X14583039Y-10044650D02*
X14563991Y-10016079D01*
X14563991Y-10016079D02*
X14554468Y-9997031D01*
X14554468Y-9997031D02*
X14544944Y-9968460D01*
X14544944Y-9968460D02*
X14535420Y-9920841D01*
X14535420Y-9920841D02*
X14535420Y-9882746D01*
X14535420Y-9882746D02*
X14544944Y-9835127D01*
X14544944Y-9835127D02*
X14554468Y-9806555D01*
X14554468Y-9806555D02*
X14563991Y-9787508D01*
X14563991Y-9787508D02*
X14583039Y-9758936D01*
X14583039Y-9758936D02*
X14592563Y-9749412D01*
X14754468Y-9844650D02*
X14754468Y-9977984D01*
X14706848Y-9768460D02*
X14659229Y-9911317D01*
X14659229Y-9911317D02*
X14783039Y-9911317D01*
X15011610Y-9977984D02*
X15011610Y-9777984D01*
X15097325Y-9977984D02*
X15097325Y-9873222D01*
X15097325Y-9873222D02*
X15087801Y-9854174D01*
X15087801Y-9854174D02*
X15068753Y-9844650D01*
X15068753Y-9844650D02*
X15040182Y-9844650D01*
X15040182Y-9844650D02*
X15021134Y-9854174D01*
X15021134Y-9854174D02*
X15011610Y-9863698D01*
X15221134Y-9977984D02*
X15202087Y-9968460D01*
X15202087Y-9968460D02*
X15192563Y-9958936D01*
X15192563Y-9958936D02*
X15183039Y-9939889D01*
X15183039Y-9939889D02*
X15183039Y-9882746D01*
X15183039Y-9882746D02*
X15192563Y-9863698D01*
X15192563Y-9863698D02*
X15202087Y-9854174D01*
X15202087Y-9854174D02*
X15221134Y-9844650D01*
X15221134Y-9844650D02*
X15249706Y-9844650D01*
X15249706Y-9844650D02*
X15268753Y-9854174D01*
X15268753Y-9854174D02*
X15278277Y-9863698D01*
X15278277Y-9863698D02*
X15287801Y-9882746D01*
X15287801Y-9882746D02*
X15287801Y-9939889D01*
X15287801Y-9939889D02*
X15278277Y-9958936D01*
X15278277Y-9958936D02*
X15268753Y-9968460D01*
X15268753Y-9968460D02*
X15249706Y-9977984D01*
X15249706Y-9977984D02*
X15221134Y-9977984D01*
X15402087Y-9977984D02*
X15383039Y-9968460D01*
X15383039Y-9968460D02*
X15373515Y-9949412D01*
X15373515Y-9949412D02*
X15373515Y-9777984D01*
X15554468Y-9968460D02*
X15535420Y-9977984D01*
X15535420Y-9977984D02*
X15497325Y-9977984D01*
X15497325Y-9977984D02*
X15478277Y-9968460D01*
X15478277Y-9968460D02*
X15468753Y-9949412D01*
X15468753Y-9949412D02*
X15468753Y-9873222D01*
X15468753Y-9873222D02*
X15478277Y-9854174D01*
X15478277Y-9854174D02*
X15497325Y-9844650D01*
X15497325Y-9844650D02*
X15535420Y-9844650D01*
X15535420Y-9844650D02*
X15554468Y-9854174D01*
X15554468Y-9854174D02*
X15563991Y-9873222D01*
X15563991Y-9873222D02*
X15563991Y-9892270D01*
X15563991Y-9892270D02*
X15468753Y-9911317D01*
X15640182Y-9968460D02*
X15659230Y-9977984D01*
X15659230Y-9977984D02*
X15697325Y-9977984D01*
X15697325Y-9977984D02*
X15716372Y-9968460D01*
X15716372Y-9968460D02*
X15725896Y-9949412D01*
X15725896Y-9949412D02*
X15725896Y-9939889D01*
X15725896Y-9939889D02*
X15716372Y-9920841D01*
X15716372Y-9920841D02*
X15697325Y-9911317D01*
X15697325Y-9911317D02*
X15668753Y-9911317D01*
X15668753Y-9911317D02*
X15649706Y-9901793D01*
X15649706Y-9901793D02*
X15640182Y-9882746D01*
X15640182Y-9882746D02*
X15640182Y-9873222D01*
X15640182Y-9873222D02*
X15649706Y-9854174D01*
X15649706Y-9854174D02*
X15668753Y-9844650D01*
X15668753Y-9844650D02*
X15697325Y-9844650D01*
X15697325Y-9844650D02*
X15716372Y-9854174D01*
X15792563Y-10054174D02*
X15802087Y-10044650D01*
X15802087Y-10044650D02*
X15821134Y-10016079D01*
X15821134Y-10016079D02*
X15830658Y-9997031D01*
X15830658Y-9997031D02*
X15840182Y-9968460D01*
X15840182Y-9968460D02*
X15849706Y-9920841D01*
X15849706Y-9920841D02*
X15849706Y-9882746D01*
X15849706Y-9882746D02*
X15840182Y-9835127D01*
X15840182Y-9835127D02*
X15830658Y-9806555D01*
X15830658Y-9806555D02*
X15821134Y-9787508D01*
X15821134Y-9787508D02*
X15802087Y-9758936D01*
X15802087Y-9758936D02*
X15792563Y-9749412D01*
D12*
X10970000Y-10103000D02*
X10970000Y-10198000D01*
X10922500Y-10150500D02*
X11017500Y-10150500D01*
D11*
X11316372Y-10041984D02*
X11335420Y-10041984D01*
X11335420Y-10041984D02*
X11354467Y-10051508D01*
X11354467Y-10051508D02*
X11363991Y-10061031D01*
X11363991Y-10061031D02*
X11373515Y-10080079D01*
X11373515Y-10080079D02*
X11383039Y-10118174D01*
X11383039Y-10118174D02*
X11383039Y-10165793D01*
X11383039Y-10165793D02*
X11373515Y-10203889D01*
X11373515Y-10203889D02*
X11363991Y-10222936D01*
X11363991Y-10222936D02*
X11354467Y-10232460D01*
X11354467Y-10232460D02*
X11335420Y-10241984D01*
X11335420Y-10241984D02*
X11316372Y-10241984D01*
X11316372Y-10241984D02*
X11297324Y-10232460D01*
X11297324Y-10232460D02*
X11287801Y-10222936D01*
X11287801Y-10222936D02*
X11278277Y-10203889D01*
X11278277Y-10203889D02*
X11268753Y-10165793D01*
X11268753Y-10165793D02*
X11268753Y-10118174D01*
X11268753Y-10118174D02*
X11278277Y-10080079D01*
X11278277Y-10080079D02*
X11287801Y-10061031D01*
X11287801Y-10061031D02*
X11297324Y-10051508D01*
X11297324Y-10051508D02*
X11316372Y-10041984D01*
X11468753Y-10222936D02*
X11478277Y-10232460D01*
X11478277Y-10232460D02*
X11468753Y-10241984D01*
X11468753Y-10241984D02*
X11459229Y-10232460D01*
X11459229Y-10232460D02*
X11468753Y-10222936D01*
X11468753Y-10222936D02*
X11468753Y-10241984D01*
X11573515Y-10241984D02*
X11611610Y-10241984D01*
X11611610Y-10241984D02*
X11630658Y-10232460D01*
X11630658Y-10232460D02*
X11640182Y-10222936D01*
X11640182Y-10222936D02*
X11659229Y-10194365D01*
X11659229Y-10194365D02*
X11668753Y-10156270D01*
X11668753Y-10156270D02*
X11668753Y-10080079D01*
X11668753Y-10080079D02*
X11659229Y-10061031D01*
X11659229Y-10061031D02*
X11649705Y-10051508D01*
X11649705Y-10051508D02*
X11630658Y-10041984D01*
X11630658Y-10041984D02*
X11592562Y-10041984D01*
X11592562Y-10041984D02*
X11573515Y-10051508D01*
X11573515Y-10051508D02*
X11563991Y-10061031D01*
X11563991Y-10061031D02*
X11554467Y-10080079D01*
X11554467Y-10080079D02*
X11554467Y-10127698D01*
X11554467Y-10127698D02*
X11563991Y-10146746D01*
X11563991Y-10146746D02*
X11573515Y-10156270D01*
X11573515Y-10156270D02*
X11592562Y-10165793D01*
X11592562Y-10165793D02*
X11630658Y-10165793D01*
X11630658Y-10165793D02*
X11649705Y-10156270D01*
X11649705Y-10156270D02*
X11659229Y-10146746D01*
X11659229Y-10146746D02*
X11668753Y-10127698D01*
X11849705Y-10041984D02*
X11754467Y-10041984D01*
X11754467Y-10041984D02*
X11744943Y-10137222D01*
X11744943Y-10137222D02*
X11754467Y-10127698D01*
X11754467Y-10127698D02*
X11773515Y-10118174D01*
X11773515Y-10118174D02*
X11821134Y-10118174D01*
X11821134Y-10118174D02*
X11840182Y-10127698D01*
X11840182Y-10127698D02*
X11849705Y-10137222D01*
X11849705Y-10137222D02*
X11859229Y-10156270D01*
X11859229Y-10156270D02*
X11859229Y-10203889D01*
X11859229Y-10203889D02*
X11849705Y-10222936D01*
X11849705Y-10222936D02*
X11840182Y-10232460D01*
X11840182Y-10232460D02*
X11821134Y-10241984D01*
X11821134Y-10241984D02*
X11773515Y-10241984D01*
X11773515Y-10241984D02*
X11754467Y-10232460D01*
X11754467Y-10232460D02*
X11744943Y-10222936D01*
X11983039Y-10041984D02*
X12002086Y-10041984D01*
X12002086Y-10041984D02*
X12021134Y-10051508D01*
X12021134Y-10051508D02*
X12030658Y-10061031D01*
X12030658Y-10061031D02*
X12040182Y-10080079D01*
X12040182Y-10080079D02*
X12049705Y-10118174D01*
X12049705Y-10118174D02*
X12049705Y-10165793D01*
X12049705Y-10165793D02*
X12040182Y-10203889D01*
X12040182Y-10203889D02*
X12030658Y-10222936D01*
X12030658Y-10222936D02*
X12021134Y-10232460D01*
X12021134Y-10232460D02*
X12002086Y-10241984D01*
X12002086Y-10241984D02*
X11983039Y-10241984D01*
X11983039Y-10241984D02*
X11963991Y-10232460D01*
X11963991Y-10232460D02*
X11954467Y-10222936D01*
X11954467Y-10222936D02*
X11944943Y-10203889D01*
X11944943Y-10203889D02*
X11935420Y-10165793D01*
X11935420Y-10165793D02*
X11935420Y-10118174D01*
X11935420Y-10118174D02*
X11944943Y-10080079D01*
X11944943Y-10080079D02*
X11954467Y-10061031D01*
X11954467Y-10061031D02*
X11963991Y-10051508D01*
X11963991Y-10051508D02*
X11983039Y-10041984D01*
X12135420Y-10241984D02*
X12135420Y-10108650D01*
X12135420Y-10127698D02*
X12144943Y-10118174D01*
X12144943Y-10118174D02*
X12163991Y-10108650D01*
X12163991Y-10108650D02*
X12192563Y-10108650D01*
X12192563Y-10108650D02*
X12211610Y-10118174D01*
X12211610Y-10118174D02*
X12221134Y-10137222D01*
X12221134Y-10137222D02*
X12221134Y-10241984D01*
X12221134Y-10137222D02*
X12230658Y-10118174D01*
X12230658Y-10118174D02*
X12249705Y-10108650D01*
X12249705Y-10108650D02*
X12278277Y-10108650D01*
X12278277Y-10108650D02*
X12297324Y-10118174D01*
X12297324Y-10118174D02*
X12306848Y-10137222D01*
X12306848Y-10137222D02*
X12306848Y-10241984D01*
X12402086Y-10241984D02*
X12402086Y-10108650D01*
X12402086Y-10127698D02*
X12411610Y-10118174D01*
X12411610Y-10118174D02*
X12430658Y-10108650D01*
X12430658Y-10108650D02*
X12459229Y-10108650D01*
X12459229Y-10108650D02*
X12478277Y-10118174D01*
X12478277Y-10118174D02*
X12487801Y-10137222D01*
X12487801Y-10137222D02*
X12487801Y-10241984D01*
X12487801Y-10137222D02*
X12497324Y-10118174D01*
X12497324Y-10118174D02*
X12516372Y-10108650D01*
X12516372Y-10108650D02*
X12544943Y-10108650D01*
X12544943Y-10108650D02*
X12563991Y-10118174D01*
X12563991Y-10118174D02*
X12573515Y-10137222D01*
X12573515Y-10137222D02*
X12573515Y-10241984D01*
X12963991Y-10032460D02*
X12792563Y-10289603D01*
X13221134Y-10041984D02*
X13240182Y-10041984D01*
X13240182Y-10041984D02*
X13259229Y-10051508D01*
X13259229Y-10051508D02*
X13268753Y-10061031D01*
X13268753Y-10061031D02*
X13278277Y-10080079D01*
X13278277Y-10080079D02*
X13287801Y-10118174D01*
X13287801Y-10118174D02*
X13287801Y-10165793D01*
X13287801Y-10165793D02*
X13278277Y-10203889D01*
X13278277Y-10203889D02*
X13268753Y-10222936D01*
X13268753Y-10222936D02*
X13259229Y-10232460D01*
X13259229Y-10232460D02*
X13240182Y-10241984D01*
X13240182Y-10241984D02*
X13221134Y-10241984D01*
X13221134Y-10241984D02*
X13202086Y-10232460D01*
X13202086Y-10232460D02*
X13192563Y-10222936D01*
X13192563Y-10222936D02*
X13183039Y-10203889D01*
X13183039Y-10203889D02*
X13173515Y-10165793D01*
X13173515Y-10165793D02*
X13173515Y-10118174D01*
X13173515Y-10118174D02*
X13183039Y-10080079D01*
X13183039Y-10080079D02*
X13192563Y-10061031D01*
X13192563Y-10061031D02*
X13202086Y-10051508D01*
X13202086Y-10051508D02*
X13221134Y-10041984D01*
X13373515Y-10222936D02*
X13383039Y-10232460D01*
X13383039Y-10232460D02*
X13373515Y-10241984D01*
X13373515Y-10241984D02*
X13363991Y-10232460D01*
X13363991Y-10232460D02*
X13373515Y-10222936D01*
X13373515Y-10222936D02*
X13373515Y-10241984D01*
X13506848Y-10041984D02*
X13525896Y-10041984D01*
X13525896Y-10041984D02*
X13544944Y-10051508D01*
X13544944Y-10051508D02*
X13554467Y-10061031D01*
X13554467Y-10061031D02*
X13563991Y-10080079D01*
X13563991Y-10080079D02*
X13573515Y-10118174D01*
X13573515Y-10118174D02*
X13573515Y-10165793D01*
X13573515Y-10165793D02*
X13563991Y-10203889D01*
X13563991Y-10203889D02*
X13554467Y-10222936D01*
X13554467Y-10222936D02*
X13544944Y-10232460D01*
X13544944Y-10232460D02*
X13525896Y-10241984D01*
X13525896Y-10241984D02*
X13506848Y-10241984D01*
X13506848Y-10241984D02*
X13487801Y-10232460D01*
X13487801Y-10232460D02*
X13478277Y-10222936D01*
X13478277Y-10222936D02*
X13468753Y-10203889D01*
X13468753Y-10203889D02*
X13459229Y-10165793D01*
X13459229Y-10165793D02*
X13459229Y-10118174D01*
X13459229Y-10118174D02*
X13468753Y-10080079D01*
X13468753Y-10080079D02*
X13478277Y-10061031D01*
X13478277Y-10061031D02*
X13487801Y-10051508D01*
X13487801Y-10051508D02*
X13506848Y-10041984D01*
X13640182Y-10041984D02*
X13763991Y-10041984D01*
X13763991Y-10041984D02*
X13697325Y-10118174D01*
X13697325Y-10118174D02*
X13725896Y-10118174D01*
X13725896Y-10118174D02*
X13744944Y-10127698D01*
X13744944Y-10127698D02*
X13754467Y-10137222D01*
X13754467Y-10137222D02*
X13763991Y-10156270D01*
X13763991Y-10156270D02*
X13763991Y-10203889D01*
X13763991Y-10203889D02*
X13754467Y-10222936D01*
X13754467Y-10222936D02*
X13744944Y-10232460D01*
X13744944Y-10232460D02*
X13725896Y-10241984D01*
X13725896Y-10241984D02*
X13668753Y-10241984D01*
X13668753Y-10241984D02*
X13649706Y-10232460D01*
X13649706Y-10232460D02*
X13640182Y-10222936D01*
X13830658Y-10041984D02*
X13963991Y-10041984D01*
X13963991Y-10041984D02*
X13878277Y-10241984D01*
X14125896Y-10108650D02*
X14125896Y-10241984D01*
X14078277Y-10032460D02*
X14030658Y-10175317D01*
X14030658Y-10175317D02*
X14154467Y-10175317D01*
X14221134Y-10041984D02*
X14221134Y-10080079D01*
X14297325Y-10041984D02*
X14297325Y-10080079D01*
X14592563Y-10318174D02*
X14583039Y-10308650D01*
X14583039Y-10308650D02*
X14563991Y-10280079D01*
X14563991Y-10280079D02*
X14554468Y-10261031D01*
X14554468Y-10261031D02*
X14544944Y-10232460D01*
X14544944Y-10232460D02*
X14535420Y-10184841D01*
X14535420Y-10184841D02*
X14535420Y-10146746D01*
X14535420Y-10146746D02*
X14544944Y-10099127D01*
X14544944Y-10099127D02*
X14554468Y-10070555D01*
X14554468Y-10070555D02*
X14563991Y-10051508D01*
X14563991Y-10051508D02*
X14583039Y-10022936D01*
X14583039Y-10022936D02*
X14592563Y-10013412D01*
X14773515Y-10241984D02*
X14659229Y-10241984D01*
X14716372Y-10241984D02*
X14716372Y-10041984D01*
X14716372Y-10041984D02*
X14697325Y-10070555D01*
X14697325Y-10070555D02*
X14678277Y-10089603D01*
X14678277Y-10089603D02*
X14659229Y-10099127D01*
X14849706Y-10061031D02*
X14859229Y-10051508D01*
X14859229Y-10051508D02*
X14878277Y-10041984D01*
X14878277Y-10041984D02*
X14925896Y-10041984D01*
X14925896Y-10041984D02*
X14944944Y-10051508D01*
X14944944Y-10051508D02*
X14954468Y-10061031D01*
X14954468Y-10061031D02*
X14963991Y-10080079D01*
X14963991Y-10080079D02*
X14963991Y-10099127D01*
X14963991Y-10099127D02*
X14954468Y-10127698D01*
X14954468Y-10127698D02*
X14840182Y-10241984D01*
X14840182Y-10241984D02*
X14963991Y-10241984D01*
X15202087Y-10241984D02*
X15202087Y-10041984D01*
X15287801Y-10241984D02*
X15287801Y-10137222D01*
X15287801Y-10137222D02*
X15278277Y-10118174D01*
X15278277Y-10118174D02*
X15259230Y-10108650D01*
X15259230Y-10108650D02*
X15230658Y-10108650D01*
X15230658Y-10108650D02*
X15211610Y-10118174D01*
X15211610Y-10118174D02*
X15202087Y-10127698D01*
X15411610Y-10241984D02*
X15392563Y-10232460D01*
X15392563Y-10232460D02*
X15383039Y-10222936D01*
X15383039Y-10222936D02*
X15373515Y-10203889D01*
X15373515Y-10203889D02*
X15373515Y-10146746D01*
X15373515Y-10146746D02*
X15383039Y-10127698D01*
X15383039Y-10127698D02*
X15392563Y-10118174D01*
X15392563Y-10118174D02*
X15411610Y-10108650D01*
X15411610Y-10108650D02*
X15440182Y-10108650D01*
X15440182Y-10108650D02*
X15459230Y-10118174D01*
X15459230Y-10118174D02*
X15468753Y-10127698D01*
X15468753Y-10127698D02*
X15478277Y-10146746D01*
X15478277Y-10146746D02*
X15478277Y-10203889D01*
X15478277Y-10203889D02*
X15468753Y-10222936D01*
X15468753Y-10222936D02*
X15459230Y-10232460D01*
X15459230Y-10232460D02*
X15440182Y-10241984D01*
X15440182Y-10241984D02*
X15411610Y-10241984D01*
X15592563Y-10241984D02*
X15573515Y-10232460D01*
X15573515Y-10232460D02*
X15563991Y-10213412D01*
X15563991Y-10213412D02*
X15563991Y-10041984D01*
X15744944Y-10232460D02*
X15725896Y-10241984D01*
X15725896Y-10241984D02*
X15687801Y-10241984D01*
X15687801Y-10241984D02*
X15668753Y-10232460D01*
X15668753Y-10232460D02*
X15659230Y-10213412D01*
X15659230Y-10213412D02*
X15659230Y-10137222D01*
X15659230Y-10137222D02*
X15668753Y-10118174D01*
X15668753Y-10118174D02*
X15687801Y-10108650D01*
X15687801Y-10108650D02*
X15725896Y-10108650D01*
X15725896Y-10108650D02*
X15744944Y-10118174D01*
X15744944Y-10118174D02*
X15754468Y-10137222D01*
X15754468Y-10137222D02*
X15754468Y-10156270D01*
X15754468Y-10156270D02*
X15659230Y-10175317D01*
X15830658Y-10232460D02*
X15849706Y-10241984D01*
X15849706Y-10241984D02*
X15887801Y-10241984D01*
X15887801Y-10241984D02*
X15906849Y-10232460D01*
X15906849Y-10232460D02*
X15916372Y-10213412D01*
X15916372Y-10213412D02*
X15916372Y-10203889D01*
X15916372Y-10203889D02*
X15906849Y-10184841D01*
X15906849Y-10184841D02*
X15887801Y-10175317D01*
X15887801Y-10175317D02*
X15859230Y-10175317D01*
X15859230Y-10175317D02*
X15840182Y-10165793D01*
X15840182Y-10165793D02*
X15830658Y-10146746D01*
X15830658Y-10146746D02*
X15830658Y-10137222D01*
X15830658Y-10137222D02*
X15840182Y-10118174D01*
X15840182Y-10118174D02*
X15859230Y-10108650D01*
X15859230Y-10108650D02*
X15887801Y-10108650D01*
X15887801Y-10108650D02*
X15906849Y-10118174D01*
X15983039Y-10318174D02*
X15992563Y-10308650D01*
X15992563Y-10308650D02*
X16011611Y-10280079D01*
X16011611Y-10280079D02*
X16021134Y-10261031D01*
X16021134Y-10261031D02*
X16030658Y-10232460D01*
X16030658Y-10232460D02*
X16040182Y-10184841D01*
X16040182Y-10184841D02*
X16040182Y-10146746D01*
X16040182Y-10146746D02*
X16030658Y-10099127D01*
X16030658Y-10099127D02*
X16021134Y-10070555D01*
X16021134Y-10070555D02*
X16011611Y-10051508D01*
X16011611Y-10051508D02*
X15992563Y-10022936D01*
X15992563Y-10022936D02*
X15983039Y-10013412D01*
D12*
X11002856Y-10449856D02*
X11002856Y-10379144D01*
X10932144Y-10379144D01*
X10932144Y-10449856D01*
X11002856Y-10449856D01*
D11*
X11383039Y-10505984D02*
X11268753Y-10505984D01*
X11325896Y-10505984D02*
X11325896Y-10305984D01*
X11325896Y-10305984D02*
X11306848Y-10334555D01*
X11306848Y-10334555D02*
X11287801Y-10353603D01*
X11287801Y-10353603D02*
X11268753Y-10363127D01*
X11468753Y-10486936D02*
X11478277Y-10496460D01*
X11478277Y-10496460D02*
X11468753Y-10505984D01*
X11468753Y-10505984D02*
X11459229Y-10496460D01*
X11459229Y-10496460D02*
X11468753Y-10486936D01*
X11468753Y-10486936D02*
X11468753Y-10505984D01*
X11602086Y-10305984D02*
X11621134Y-10305984D01*
X11621134Y-10305984D02*
X11640182Y-10315508D01*
X11640182Y-10315508D02*
X11649705Y-10325031D01*
X11649705Y-10325031D02*
X11659229Y-10344079D01*
X11659229Y-10344079D02*
X11668753Y-10382174D01*
X11668753Y-10382174D02*
X11668753Y-10429793D01*
X11668753Y-10429793D02*
X11659229Y-10467889D01*
X11659229Y-10467889D02*
X11649705Y-10486936D01*
X11649705Y-10486936D02*
X11640182Y-10496460D01*
X11640182Y-10496460D02*
X11621134Y-10505984D01*
X11621134Y-10505984D02*
X11602086Y-10505984D01*
X11602086Y-10505984D02*
X11583039Y-10496460D01*
X11583039Y-10496460D02*
X11573515Y-10486936D01*
X11573515Y-10486936D02*
X11563991Y-10467889D01*
X11563991Y-10467889D02*
X11554467Y-10429793D01*
X11554467Y-10429793D02*
X11554467Y-10382174D01*
X11554467Y-10382174D02*
X11563991Y-10344079D01*
X11563991Y-10344079D02*
X11573515Y-10325031D01*
X11573515Y-10325031D02*
X11583039Y-10315508D01*
X11583039Y-10315508D02*
X11602086Y-10305984D01*
X11792562Y-10305984D02*
X11811610Y-10305984D01*
X11811610Y-10305984D02*
X11830658Y-10315508D01*
X11830658Y-10315508D02*
X11840182Y-10325031D01*
X11840182Y-10325031D02*
X11849705Y-10344079D01*
X11849705Y-10344079D02*
X11859229Y-10382174D01*
X11859229Y-10382174D02*
X11859229Y-10429793D01*
X11859229Y-10429793D02*
X11849705Y-10467889D01*
X11849705Y-10467889D02*
X11840182Y-10486936D01*
X11840182Y-10486936D02*
X11830658Y-10496460D01*
X11830658Y-10496460D02*
X11811610Y-10505984D01*
X11811610Y-10505984D02*
X11792562Y-10505984D01*
X11792562Y-10505984D02*
X11773515Y-10496460D01*
X11773515Y-10496460D02*
X11763991Y-10486936D01*
X11763991Y-10486936D02*
X11754467Y-10467889D01*
X11754467Y-10467889D02*
X11744943Y-10429793D01*
X11744943Y-10429793D02*
X11744943Y-10382174D01*
X11744943Y-10382174D02*
X11754467Y-10344079D01*
X11754467Y-10344079D02*
X11763991Y-10325031D01*
X11763991Y-10325031D02*
X11773515Y-10315508D01*
X11773515Y-10315508D02*
X11792562Y-10305984D01*
X11983039Y-10305984D02*
X12002086Y-10305984D01*
X12002086Y-10305984D02*
X12021134Y-10315508D01*
X12021134Y-10315508D02*
X12030658Y-10325031D01*
X12030658Y-10325031D02*
X12040182Y-10344079D01*
X12040182Y-10344079D02*
X12049705Y-10382174D01*
X12049705Y-10382174D02*
X12049705Y-10429793D01*
X12049705Y-10429793D02*
X12040182Y-10467889D01*
X12040182Y-10467889D02*
X12030658Y-10486936D01*
X12030658Y-10486936D02*
X12021134Y-10496460D01*
X12021134Y-10496460D02*
X12002086Y-10505984D01*
X12002086Y-10505984D02*
X11983039Y-10505984D01*
X11983039Y-10505984D02*
X11963991Y-10496460D01*
X11963991Y-10496460D02*
X11954467Y-10486936D01*
X11954467Y-10486936D02*
X11944943Y-10467889D01*
X11944943Y-10467889D02*
X11935420Y-10429793D01*
X11935420Y-10429793D02*
X11935420Y-10382174D01*
X11935420Y-10382174D02*
X11944943Y-10344079D01*
X11944943Y-10344079D02*
X11954467Y-10325031D01*
X11954467Y-10325031D02*
X11963991Y-10315508D01*
X11963991Y-10315508D02*
X11983039Y-10305984D01*
X12135420Y-10505984D02*
X12135420Y-10372650D01*
X12135420Y-10391698D02*
X12144943Y-10382174D01*
X12144943Y-10382174D02*
X12163991Y-10372650D01*
X12163991Y-10372650D02*
X12192563Y-10372650D01*
X12192563Y-10372650D02*
X12211610Y-10382174D01*
X12211610Y-10382174D02*
X12221134Y-10401222D01*
X12221134Y-10401222D02*
X12221134Y-10505984D01*
X12221134Y-10401222D02*
X12230658Y-10382174D01*
X12230658Y-10382174D02*
X12249705Y-10372650D01*
X12249705Y-10372650D02*
X12278277Y-10372650D01*
X12278277Y-10372650D02*
X12297324Y-10382174D01*
X12297324Y-10382174D02*
X12306848Y-10401222D01*
X12306848Y-10401222D02*
X12306848Y-10505984D01*
X12402086Y-10505984D02*
X12402086Y-10372650D01*
X12402086Y-10391698D02*
X12411610Y-10382174D01*
X12411610Y-10382174D02*
X12430658Y-10372650D01*
X12430658Y-10372650D02*
X12459229Y-10372650D01*
X12459229Y-10372650D02*
X12478277Y-10382174D01*
X12478277Y-10382174D02*
X12487801Y-10401222D01*
X12487801Y-10401222D02*
X12487801Y-10505984D01*
X12487801Y-10401222D02*
X12497324Y-10382174D01*
X12497324Y-10382174D02*
X12516372Y-10372650D01*
X12516372Y-10372650D02*
X12544943Y-10372650D01*
X12544943Y-10372650D02*
X12563991Y-10382174D01*
X12563991Y-10382174D02*
X12573515Y-10401222D01*
X12573515Y-10401222D02*
X12573515Y-10505984D01*
X12963991Y-10296460D02*
X12792563Y-10553603D01*
X13221134Y-10305984D02*
X13240182Y-10305984D01*
X13240182Y-10305984D02*
X13259229Y-10315508D01*
X13259229Y-10315508D02*
X13268753Y-10325031D01*
X13268753Y-10325031D02*
X13278277Y-10344079D01*
X13278277Y-10344079D02*
X13287801Y-10382174D01*
X13287801Y-10382174D02*
X13287801Y-10429793D01*
X13287801Y-10429793D02*
X13278277Y-10467889D01*
X13278277Y-10467889D02*
X13268753Y-10486936D01*
X13268753Y-10486936D02*
X13259229Y-10496460D01*
X13259229Y-10496460D02*
X13240182Y-10505984D01*
X13240182Y-10505984D02*
X13221134Y-10505984D01*
X13221134Y-10505984D02*
X13202086Y-10496460D01*
X13202086Y-10496460D02*
X13192563Y-10486936D01*
X13192563Y-10486936D02*
X13183039Y-10467889D01*
X13183039Y-10467889D02*
X13173515Y-10429793D01*
X13173515Y-10429793D02*
X13173515Y-10382174D01*
X13173515Y-10382174D02*
X13183039Y-10344079D01*
X13183039Y-10344079D02*
X13192563Y-10325031D01*
X13192563Y-10325031D02*
X13202086Y-10315508D01*
X13202086Y-10315508D02*
X13221134Y-10305984D01*
X13373515Y-10486936D02*
X13383039Y-10496460D01*
X13383039Y-10496460D02*
X13373515Y-10505984D01*
X13373515Y-10505984D02*
X13363991Y-10496460D01*
X13363991Y-10496460D02*
X13373515Y-10486936D01*
X13373515Y-10486936D02*
X13373515Y-10505984D01*
X13506848Y-10305984D02*
X13525896Y-10305984D01*
X13525896Y-10305984D02*
X13544944Y-10315508D01*
X13544944Y-10315508D02*
X13554467Y-10325031D01*
X13554467Y-10325031D02*
X13563991Y-10344079D01*
X13563991Y-10344079D02*
X13573515Y-10382174D01*
X13573515Y-10382174D02*
X13573515Y-10429793D01*
X13573515Y-10429793D02*
X13563991Y-10467889D01*
X13563991Y-10467889D02*
X13554467Y-10486936D01*
X13554467Y-10486936D02*
X13544944Y-10496460D01*
X13544944Y-10496460D02*
X13525896Y-10505984D01*
X13525896Y-10505984D02*
X13506848Y-10505984D01*
X13506848Y-10505984D02*
X13487801Y-10496460D01*
X13487801Y-10496460D02*
X13478277Y-10486936D01*
X13478277Y-10486936D02*
X13468753Y-10467889D01*
X13468753Y-10467889D02*
X13459229Y-10429793D01*
X13459229Y-10429793D02*
X13459229Y-10382174D01*
X13459229Y-10382174D02*
X13468753Y-10344079D01*
X13468753Y-10344079D02*
X13478277Y-10325031D01*
X13478277Y-10325031D02*
X13487801Y-10315508D01*
X13487801Y-10315508D02*
X13506848Y-10305984D01*
X13640182Y-10305984D02*
X13763991Y-10305984D01*
X13763991Y-10305984D02*
X13697325Y-10382174D01*
X13697325Y-10382174D02*
X13725896Y-10382174D01*
X13725896Y-10382174D02*
X13744944Y-10391698D01*
X13744944Y-10391698D02*
X13754467Y-10401222D01*
X13754467Y-10401222D02*
X13763991Y-10420270D01*
X13763991Y-10420270D02*
X13763991Y-10467889D01*
X13763991Y-10467889D02*
X13754467Y-10486936D01*
X13754467Y-10486936D02*
X13744944Y-10496460D01*
X13744944Y-10496460D02*
X13725896Y-10505984D01*
X13725896Y-10505984D02*
X13668753Y-10505984D01*
X13668753Y-10505984D02*
X13649706Y-10496460D01*
X13649706Y-10496460D02*
X13640182Y-10486936D01*
X13859229Y-10505984D02*
X13897325Y-10505984D01*
X13897325Y-10505984D02*
X13916372Y-10496460D01*
X13916372Y-10496460D02*
X13925896Y-10486936D01*
X13925896Y-10486936D02*
X13944944Y-10458365D01*
X13944944Y-10458365D02*
X13954467Y-10420270D01*
X13954467Y-10420270D02*
X13954467Y-10344079D01*
X13954467Y-10344079D02*
X13944944Y-10325031D01*
X13944944Y-10325031D02*
X13935420Y-10315508D01*
X13935420Y-10315508D02*
X13916372Y-10305984D01*
X13916372Y-10305984D02*
X13878277Y-10305984D01*
X13878277Y-10305984D02*
X13859229Y-10315508D01*
X13859229Y-10315508D02*
X13849706Y-10325031D01*
X13849706Y-10325031D02*
X13840182Y-10344079D01*
X13840182Y-10344079D02*
X13840182Y-10391698D01*
X13840182Y-10391698D02*
X13849706Y-10410746D01*
X13849706Y-10410746D02*
X13859229Y-10420270D01*
X13859229Y-10420270D02*
X13878277Y-10429793D01*
X13878277Y-10429793D02*
X13916372Y-10429793D01*
X13916372Y-10429793D02*
X13935420Y-10420270D01*
X13935420Y-10420270D02*
X13944944Y-10410746D01*
X13944944Y-10410746D02*
X13954467Y-10391698D01*
X14125896Y-10372650D02*
X14125896Y-10505984D01*
X14078277Y-10296460D02*
X14030658Y-10439317D01*
X14030658Y-10439317D02*
X14154467Y-10439317D01*
X14221134Y-10305984D02*
X14221134Y-10344079D01*
X14297325Y-10305984D02*
X14297325Y-10344079D01*
X14592563Y-10582174D02*
X14583039Y-10572650D01*
X14583039Y-10572650D02*
X14563991Y-10544079D01*
X14563991Y-10544079D02*
X14554468Y-10525031D01*
X14554468Y-10525031D02*
X14544944Y-10496460D01*
X14544944Y-10496460D02*
X14535420Y-10448841D01*
X14535420Y-10448841D02*
X14535420Y-10410746D01*
X14535420Y-10410746D02*
X14544944Y-10363127D01*
X14544944Y-10363127D02*
X14554468Y-10334555D01*
X14554468Y-10334555D02*
X14563991Y-10315508D01*
X14563991Y-10315508D02*
X14583039Y-10286936D01*
X14583039Y-10286936D02*
X14592563Y-10277412D01*
X14773515Y-10505984D02*
X14659229Y-10505984D01*
X14716372Y-10505984D02*
X14716372Y-10305984D01*
X14716372Y-10305984D02*
X14697325Y-10334555D01*
X14697325Y-10334555D02*
X14678277Y-10353603D01*
X14678277Y-10353603D02*
X14659229Y-10363127D01*
X14887801Y-10391698D02*
X14868753Y-10382174D01*
X14868753Y-10382174D02*
X14859229Y-10372650D01*
X14859229Y-10372650D02*
X14849706Y-10353603D01*
X14849706Y-10353603D02*
X14849706Y-10344079D01*
X14849706Y-10344079D02*
X14859229Y-10325031D01*
X14859229Y-10325031D02*
X14868753Y-10315508D01*
X14868753Y-10315508D02*
X14887801Y-10305984D01*
X14887801Y-10305984D02*
X14925896Y-10305984D01*
X14925896Y-10305984D02*
X14944944Y-10315508D01*
X14944944Y-10315508D02*
X14954468Y-10325031D01*
X14954468Y-10325031D02*
X14963991Y-10344079D01*
X14963991Y-10344079D02*
X14963991Y-10353603D01*
X14963991Y-10353603D02*
X14954468Y-10372650D01*
X14954468Y-10372650D02*
X14944944Y-10382174D01*
X14944944Y-10382174D02*
X14925896Y-10391698D01*
X14925896Y-10391698D02*
X14887801Y-10391698D01*
X14887801Y-10391698D02*
X14868753Y-10401222D01*
X14868753Y-10401222D02*
X14859229Y-10410746D01*
X14859229Y-10410746D02*
X14849706Y-10429793D01*
X14849706Y-10429793D02*
X14849706Y-10467889D01*
X14849706Y-10467889D02*
X14859229Y-10486936D01*
X14859229Y-10486936D02*
X14868753Y-10496460D01*
X14868753Y-10496460D02*
X14887801Y-10505984D01*
X14887801Y-10505984D02*
X14925896Y-10505984D01*
X14925896Y-10505984D02*
X14944944Y-10496460D01*
X14944944Y-10496460D02*
X14954468Y-10486936D01*
X14954468Y-10486936D02*
X14963991Y-10467889D01*
X14963991Y-10467889D02*
X14963991Y-10429793D01*
X14963991Y-10429793D02*
X14954468Y-10410746D01*
X14954468Y-10410746D02*
X14944944Y-10401222D01*
X14944944Y-10401222D02*
X14925896Y-10391698D01*
X15202087Y-10505984D02*
X15202087Y-10305984D01*
X15287801Y-10505984D02*
X15287801Y-10401222D01*
X15287801Y-10401222D02*
X15278277Y-10382174D01*
X15278277Y-10382174D02*
X15259230Y-10372650D01*
X15259230Y-10372650D02*
X15230658Y-10372650D01*
X15230658Y-10372650D02*
X15211610Y-10382174D01*
X15211610Y-10382174D02*
X15202087Y-10391698D01*
X15411610Y-10505984D02*
X15392563Y-10496460D01*
X15392563Y-10496460D02*
X15383039Y-10486936D01*
X15383039Y-10486936D02*
X15373515Y-10467889D01*
X15373515Y-10467889D02*
X15373515Y-10410746D01*
X15373515Y-10410746D02*
X15383039Y-10391698D01*
X15383039Y-10391698D02*
X15392563Y-10382174D01*
X15392563Y-10382174D02*
X15411610Y-10372650D01*
X15411610Y-10372650D02*
X15440182Y-10372650D01*
X15440182Y-10372650D02*
X15459230Y-10382174D01*
X15459230Y-10382174D02*
X15468753Y-10391698D01*
X15468753Y-10391698D02*
X15478277Y-10410746D01*
X15478277Y-10410746D02*
X15478277Y-10467889D01*
X15478277Y-10467889D02*
X15468753Y-10486936D01*
X15468753Y-10486936D02*
X15459230Y-10496460D01*
X15459230Y-10496460D02*
X15440182Y-10505984D01*
X15440182Y-10505984D02*
X15411610Y-10505984D01*
X15592563Y-10505984D02*
X15573515Y-10496460D01*
X15573515Y-10496460D02*
X15563991Y-10477412D01*
X15563991Y-10477412D02*
X15563991Y-10305984D01*
X15744944Y-10496460D02*
X15725896Y-10505984D01*
X15725896Y-10505984D02*
X15687801Y-10505984D01*
X15687801Y-10505984D02*
X15668753Y-10496460D01*
X15668753Y-10496460D02*
X15659230Y-10477412D01*
X15659230Y-10477412D02*
X15659230Y-10401222D01*
X15659230Y-10401222D02*
X15668753Y-10382174D01*
X15668753Y-10382174D02*
X15687801Y-10372650D01*
X15687801Y-10372650D02*
X15725896Y-10372650D01*
X15725896Y-10372650D02*
X15744944Y-10382174D01*
X15744944Y-10382174D02*
X15754468Y-10401222D01*
X15754468Y-10401222D02*
X15754468Y-10420270D01*
X15754468Y-10420270D02*
X15659230Y-10439317D01*
X15830658Y-10496460D02*
X15849706Y-10505984D01*
X15849706Y-10505984D02*
X15887801Y-10505984D01*
X15887801Y-10505984D02*
X15906849Y-10496460D01*
X15906849Y-10496460D02*
X15916372Y-10477412D01*
X15916372Y-10477412D02*
X15916372Y-10467889D01*
X15916372Y-10467889D02*
X15906849Y-10448841D01*
X15906849Y-10448841D02*
X15887801Y-10439317D01*
X15887801Y-10439317D02*
X15859230Y-10439317D01*
X15859230Y-10439317D02*
X15840182Y-10429793D01*
X15840182Y-10429793D02*
X15830658Y-10410746D01*
X15830658Y-10410746D02*
X15830658Y-10401222D01*
X15830658Y-10401222D02*
X15840182Y-10382174D01*
X15840182Y-10382174D02*
X15859230Y-10372650D01*
X15859230Y-10372650D02*
X15887801Y-10372650D01*
X15887801Y-10372650D02*
X15906849Y-10382174D01*
X15983039Y-10582174D02*
X15992563Y-10572650D01*
X15992563Y-10572650D02*
X16011611Y-10544079D01*
X16011611Y-10544079D02*
X16021134Y-10525031D01*
X16021134Y-10525031D02*
X16030658Y-10496460D01*
X16030658Y-10496460D02*
X16040182Y-10448841D01*
X16040182Y-10448841D02*
X16040182Y-10410746D01*
X16040182Y-10410746D02*
X16030658Y-10363127D01*
X16030658Y-10363127D02*
X16021134Y-10334555D01*
X16021134Y-10334555D02*
X16011611Y-10315508D01*
X16011611Y-10315508D02*
X15992563Y-10286936D01*
X15992563Y-10286936D02*
X15983039Y-10277412D01*
D13*
X10957500Y-10738500D02*
X11017500Y-10678500D01*
X10957500Y-10618500D01*
X10897500Y-10678500D01*
X10957500Y-10738500D01*
D11*
X11383039Y-10769984D02*
X11268753Y-10769984D01*
X11325896Y-10769984D02*
X11325896Y-10569984D01*
X11325896Y-10569984D02*
X11306848Y-10598555D01*
X11306848Y-10598555D02*
X11287801Y-10617603D01*
X11287801Y-10617603D02*
X11268753Y-10627127D01*
X11468753Y-10750936D02*
X11478277Y-10760460D01*
X11478277Y-10760460D02*
X11468753Y-10769984D01*
X11468753Y-10769984D02*
X11459229Y-10760460D01*
X11459229Y-10760460D02*
X11468753Y-10750936D01*
X11468753Y-10750936D02*
X11468753Y-10769984D01*
X11554467Y-10589031D02*
X11563991Y-10579508D01*
X11563991Y-10579508D02*
X11583039Y-10569984D01*
X11583039Y-10569984D02*
X11630658Y-10569984D01*
X11630658Y-10569984D02*
X11649705Y-10579508D01*
X11649705Y-10579508D02*
X11659229Y-10589031D01*
X11659229Y-10589031D02*
X11668753Y-10608079D01*
X11668753Y-10608079D02*
X11668753Y-10627127D01*
X11668753Y-10627127D02*
X11659229Y-10655698D01*
X11659229Y-10655698D02*
X11544943Y-10769984D01*
X11544943Y-10769984D02*
X11668753Y-10769984D01*
X11792562Y-10569984D02*
X11811610Y-10569984D01*
X11811610Y-10569984D02*
X11830658Y-10579508D01*
X11830658Y-10579508D02*
X11840182Y-10589031D01*
X11840182Y-10589031D02*
X11849705Y-10608079D01*
X11849705Y-10608079D02*
X11859229Y-10646174D01*
X11859229Y-10646174D02*
X11859229Y-10693793D01*
X11859229Y-10693793D02*
X11849705Y-10731889D01*
X11849705Y-10731889D02*
X11840182Y-10750936D01*
X11840182Y-10750936D02*
X11830658Y-10760460D01*
X11830658Y-10760460D02*
X11811610Y-10769984D01*
X11811610Y-10769984D02*
X11792562Y-10769984D01*
X11792562Y-10769984D02*
X11773515Y-10760460D01*
X11773515Y-10760460D02*
X11763991Y-10750936D01*
X11763991Y-10750936D02*
X11754467Y-10731889D01*
X11754467Y-10731889D02*
X11744943Y-10693793D01*
X11744943Y-10693793D02*
X11744943Y-10646174D01*
X11744943Y-10646174D02*
X11754467Y-10608079D01*
X11754467Y-10608079D02*
X11763991Y-10589031D01*
X11763991Y-10589031D02*
X11773515Y-10579508D01*
X11773515Y-10579508D02*
X11792562Y-10569984D01*
X11983039Y-10569984D02*
X12002086Y-10569984D01*
X12002086Y-10569984D02*
X12021134Y-10579508D01*
X12021134Y-10579508D02*
X12030658Y-10589031D01*
X12030658Y-10589031D02*
X12040182Y-10608079D01*
X12040182Y-10608079D02*
X12049705Y-10646174D01*
X12049705Y-10646174D02*
X12049705Y-10693793D01*
X12049705Y-10693793D02*
X12040182Y-10731889D01*
X12040182Y-10731889D02*
X12030658Y-10750936D01*
X12030658Y-10750936D02*
X12021134Y-10760460D01*
X12021134Y-10760460D02*
X12002086Y-10769984D01*
X12002086Y-10769984D02*
X11983039Y-10769984D01*
X11983039Y-10769984D02*
X11963991Y-10760460D01*
X11963991Y-10760460D02*
X11954467Y-10750936D01*
X11954467Y-10750936D02*
X11944943Y-10731889D01*
X11944943Y-10731889D02*
X11935420Y-10693793D01*
X11935420Y-10693793D02*
X11935420Y-10646174D01*
X11935420Y-10646174D02*
X11944943Y-10608079D01*
X11944943Y-10608079D02*
X11954467Y-10589031D01*
X11954467Y-10589031D02*
X11963991Y-10579508D01*
X11963991Y-10579508D02*
X11983039Y-10569984D01*
X12135420Y-10769984D02*
X12135420Y-10636650D01*
X12135420Y-10655698D02*
X12144943Y-10646174D01*
X12144943Y-10646174D02*
X12163991Y-10636650D01*
X12163991Y-10636650D02*
X12192563Y-10636650D01*
X12192563Y-10636650D02*
X12211610Y-10646174D01*
X12211610Y-10646174D02*
X12221134Y-10665222D01*
X12221134Y-10665222D02*
X12221134Y-10769984D01*
X12221134Y-10665222D02*
X12230658Y-10646174D01*
X12230658Y-10646174D02*
X12249705Y-10636650D01*
X12249705Y-10636650D02*
X12278277Y-10636650D01*
X12278277Y-10636650D02*
X12297324Y-10646174D01*
X12297324Y-10646174D02*
X12306848Y-10665222D01*
X12306848Y-10665222D02*
X12306848Y-10769984D01*
X12402086Y-10769984D02*
X12402086Y-10636650D01*
X12402086Y-10655698D02*
X12411610Y-10646174D01*
X12411610Y-10646174D02*
X12430658Y-10636650D01*
X12430658Y-10636650D02*
X12459229Y-10636650D01*
X12459229Y-10636650D02*
X12478277Y-10646174D01*
X12478277Y-10646174D02*
X12487801Y-10665222D01*
X12487801Y-10665222D02*
X12487801Y-10769984D01*
X12487801Y-10665222D02*
X12497324Y-10646174D01*
X12497324Y-10646174D02*
X12516372Y-10636650D01*
X12516372Y-10636650D02*
X12544943Y-10636650D01*
X12544943Y-10636650D02*
X12563991Y-10646174D01*
X12563991Y-10646174D02*
X12573515Y-10665222D01*
X12573515Y-10665222D02*
X12573515Y-10769984D01*
X12963991Y-10560460D02*
X12792563Y-10817603D01*
X13221134Y-10569984D02*
X13240182Y-10569984D01*
X13240182Y-10569984D02*
X13259229Y-10579508D01*
X13259229Y-10579508D02*
X13268753Y-10589031D01*
X13268753Y-10589031D02*
X13278277Y-10608079D01*
X13278277Y-10608079D02*
X13287801Y-10646174D01*
X13287801Y-10646174D02*
X13287801Y-10693793D01*
X13287801Y-10693793D02*
X13278277Y-10731889D01*
X13278277Y-10731889D02*
X13268753Y-10750936D01*
X13268753Y-10750936D02*
X13259229Y-10760460D01*
X13259229Y-10760460D02*
X13240182Y-10769984D01*
X13240182Y-10769984D02*
X13221134Y-10769984D01*
X13221134Y-10769984D02*
X13202086Y-10760460D01*
X13202086Y-10760460D02*
X13192563Y-10750936D01*
X13192563Y-10750936D02*
X13183039Y-10731889D01*
X13183039Y-10731889D02*
X13173515Y-10693793D01*
X13173515Y-10693793D02*
X13173515Y-10646174D01*
X13173515Y-10646174D02*
X13183039Y-10608079D01*
X13183039Y-10608079D02*
X13192563Y-10589031D01*
X13192563Y-10589031D02*
X13202086Y-10579508D01*
X13202086Y-10579508D02*
X13221134Y-10569984D01*
X13373515Y-10750936D02*
X13383039Y-10760460D01*
X13383039Y-10760460D02*
X13373515Y-10769984D01*
X13373515Y-10769984D02*
X13363991Y-10760460D01*
X13363991Y-10760460D02*
X13373515Y-10750936D01*
X13373515Y-10750936D02*
X13373515Y-10769984D01*
X13506848Y-10569984D02*
X13525896Y-10569984D01*
X13525896Y-10569984D02*
X13544944Y-10579508D01*
X13544944Y-10579508D02*
X13554467Y-10589031D01*
X13554467Y-10589031D02*
X13563991Y-10608079D01*
X13563991Y-10608079D02*
X13573515Y-10646174D01*
X13573515Y-10646174D02*
X13573515Y-10693793D01*
X13573515Y-10693793D02*
X13563991Y-10731889D01*
X13563991Y-10731889D02*
X13554467Y-10750936D01*
X13554467Y-10750936D02*
X13544944Y-10760460D01*
X13544944Y-10760460D02*
X13525896Y-10769984D01*
X13525896Y-10769984D02*
X13506848Y-10769984D01*
X13506848Y-10769984D02*
X13487801Y-10760460D01*
X13487801Y-10760460D02*
X13478277Y-10750936D01*
X13478277Y-10750936D02*
X13468753Y-10731889D01*
X13468753Y-10731889D02*
X13459229Y-10693793D01*
X13459229Y-10693793D02*
X13459229Y-10646174D01*
X13459229Y-10646174D02*
X13468753Y-10608079D01*
X13468753Y-10608079D02*
X13478277Y-10589031D01*
X13478277Y-10589031D02*
X13487801Y-10579508D01*
X13487801Y-10579508D02*
X13506848Y-10569984D01*
X13744944Y-10636650D02*
X13744944Y-10769984D01*
X13697325Y-10560460D02*
X13649706Y-10703317D01*
X13649706Y-10703317D02*
X13773515Y-10703317D01*
X13830658Y-10569984D02*
X13963991Y-10569984D01*
X13963991Y-10569984D02*
X13878277Y-10769984D01*
X14030658Y-10589031D02*
X14040182Y-10579508D01*
X14040182Y-10579508D02*
X14059229Y-10569984D01*
X14059229Y-10569984D02*
X14106848Y-10569984D01*
X14106848Y-10569984D02*
X14125896Y-10579508D01*
X14125896Y-10579508D02*
X14135420Y-10589031D01*
X14135420Y-10589031D02*
X14144944Y-10608079D01*
X14144944Y-10608079D02*
X14144944Y-10627127D01*
X14144944Y-10627127D02*
X14135420Y-10655698D01*
X14135420Y-10655698D02*
X14021134Y-10769984D01*
X14021134Y-10769984D02*
X14144944Y-10769984D01*
X14221134Y-10569984D02*
X14221134Y-10608079D01*
X14297325Y-10569984D02*
X14297325Y-10608079D01*
X14592563Y-10846174D02*
X14583039Y-10836650D01*
X14583039Y-10836650D02*
X14563991Y-10808079D01*
X14563991Y-10808079D02*
X14554468Y-10789031D01*
X14554468Y-10789031D02*
X14544944Y-10760460D01*
X14544944Y-10760460D02*
X14535420Y-10712841D01*
X14535420Y-10712841D02*
X14535420Y-10674746D01*
X14535420Y-10674746D02*
X14544944Y-10627127D01*
X14544944Y-10627127D02*
X14554468Y-10598555D01*
X14554468Y-10598555D02*
X14563991Y-10579508D01*
X14563991Y-10579508D02*
X14583039Y-10550936D01*
X14583039Y-10550936D02*
X14592563Y-10541412D01*
X14649706Y-10569984D02*
X14773515Y-10569984D01*
X14773515Y-10569984D02*
X14706848Y-10646174D01*
X14706848Y-10646174D02*
X14735420Y-10646174D01*
X14735420Y-10646174D02*
X14754468Y-10655698D01*
X14754468Y-10655698D02*
X14763991Y-10665222D01*
X14763991Y-10665222D02*
X14773515Y-10684270D01*
X14773515Y-10684270D02*
X14773515Y-10731889D01*
X14773515Y-10731889D02*
X14763991Y-10750936D01*
X14763991Y-10750936D02*
X14754468Y-10760460D01*
X14754468Y-10760460D02*
X14735420Y-10769984D01*
X14735420Y-10769984D02*
X14678277Y-10769984D01*
X14678277Y-10769984D02*
X14659229Y-10760460D01*
X14659229Y-10760460D02*
X14649706Y-10750936D01*
X15011610Y-10769984D02*
X15011610Y-10569984D01*
X15097325Y-10769984D02*
X15097325Y-10665222D01*
X15097325Y-10665222D02*
X15087801Y-10646174D01*
X15087801Y-10646174D02*
X15068753Y-10636650D01*
X15068753Y-10636650D02*
X15040182Y-10636650D01*
X15040182Y-10636650D02*
X15021134Y-10646174D01*
X15021134Y-10646174D02*
X15011610Y-10655698D01*
X15221134Y-10769984D02*
X15202087Y-10760460D01*
X15202087Y-10760460D02*
X15192563Y-10750936D01*
X15192563Y-10750936D02*
X15183039Y-10731889D01*
X15183039Y-10731889D02*
X15183039Y-10674746D01*
X15183039Y-10674746D02*
X15192563Y-10655698D01*
X15192563Y-10655698D02*
X15202087Y-10646174D01*
X15202087Y-10646174D02*
X15221134Y-10636650D01*
X15221134Y-10636650D02*
X15249706Y-10636650D01*
X15249706Y-10636650D02*
X15268753Y-10646174D01*
X15268753Y-10646174D02*
X15278277Y-10655698D01*
X15278277Y-10655698D02*
X15287801Y-10674746D01*
X15287801Y-10674746D02*
X15287801Y-10731889D01*
X15287801Y-10731889D02*
X15278277Y-10750936D01*
X15278277Y-10750936D02*
X15268753Y-10760460D01*
X15268753Y-10760460D02*
X15249706Y-10769984D01*
X15249706Y-10769984D02*
X15221134Y-10769984D01*
X15402087Y-10769984D02*
X15383039Y-10760460D01*
X15383039Y-10760460D02*
X15373515Y-10741412D01*
X15373515Y-10741412D02*
X15373515Y-10569984D01*
X15554468Y-10760460D02*
X15535420Y-10769984D01*
X15535420Y-10769984D02*
X15497325Y-10769984D01*
X15497325Y-10769984D02*
X15478277Y-10760460D01*
X15478277Y-10760460D02*
X15468753Y-10741412D01*
X15468753Y-10741412D02*
X15468753Y-10665222D01*
X15468753Y-10665222D02*
X15478277Y-10646174D01*
X15478277Y-10646174D02*
X15497325Y-10636650D01*
X15497325Y-10636650D02*
X15535420Y-10636650D01*
X15535420Y-10636650D02*
X15554468Y-10646174D01*
X15554468Y-10646174D02*
X15563991Y-10665222D01*
X15563991Y-10665222D02*
X15563991Y-10684270D01*
X15563991Y-10684270D02*
X15468753Y-10703317D01*
X15640182Y-10760460D02*
X15659230Y-10769984D01*
X15659230Y-10769984D02*
X15697325Y-10769984D01*
X15697325Y-10769984D02*
X15716372Y-10760460D01*
X15716372Y-10760460D02*
X15725896Y-10741412D01*
X15725896Y-10741412D02*
X15725896Y-10731889D01*
X15725896Y-10731889D02*
X15716372Y-10712841D01*
X15716372Y-10712841D02*
X15697325Y-10703317D01*
X15697325Y-10703317D02*
X15668753Y-10703317D01*
X15668753Y-10703317D02*
X15649706Y-10693793D01*
X15649706Y-10693793D02*
X15640182Y-10674746D01*
X15640182Y-10674746D02*
X15640182Y-10665222D01*
X15640182Y-10665222D02*
X15649706Y-10646174D01*
X15649706Y-10646174D02*
X15668753Y-10636650D01*
X15668753Y-10636650D02*
X15697325Y-10636650D01*
X15697325Y-10636650D02*
X15716372Y-10646174D01*
X15792563Y-10846174D02*
X15802087Y-10836650D01*
X15802087Y-10836650D02*
X15821134Y-10808079D01*
X15821134Y-10808079D02*
X15830658Y-10789031D01*
X15830658Y-10789031D02*
X15840182Y-10760460D01*
X15840182Y-10760460D02*
X15849706Y-10712841D01*
X15849706Y-10712841D02*
X15849706Y-10674746D01*
X15849706Y-10674746D02*
X15840182Y-10627127D01*
X15840182Y-10627127D02*
X15830658Y-10598555D01*
X15830658Y-10598555D02*
X15821134Y-10579508D01*
X15821134Y-10579508D02*
X15802087Y-10550936D01*
X15802087Y-10550936D02*
X15792563Y-10541412D01*
X10817500Y-10842500D02*
X11017500Y-11042500D01*
X11017500Y-10842500D02*
X10817500Y-11042500D01*
X11017500Y-10942500D02*
G75*
G02*
X10817500Y-10942500I-100000J0D01*
G01*
X10817500Y-10942500D02*
G75*
G02*
X11017500Y-10942500I100000J0D01*
G01*
X11268753Y-10853031D02*
X11278277Y-10843508D01*
X11278277Y-10843508D02*
X11297324Y-10833984D01*
X11297324Y-10833984D02*
X11344943Y-10833984D01*
X11344943Y-10833984D02*
X11363991Y-10843508D01*
X11363991Y-10843508D02*
X11373515Y-10853031D01*
X11373515Y-10853031D02*
X11383039Y-10872079D01*
X11383039Y-10872079D02*
X11383039Y-10891127D01*
X11383039Y-10891127D02*
X11373515Y-10919698D01*
X11373515Y-10919698D02*
X11259229Y-11033984D01*
X11259229Y-11033984D02*
X11383039Y-11033984D01*
X11468753Y-11014936D02*
X11478277Y-11024460D01*
X11478277Y-11024460D02*
X11468753Y-11033984D01*
X11468753Y-11033984D02*
X11459229Y-11024460D01*
X11459229Y-11024460D02*
X11468753Y-11014936D01*
X11468753Y-11014936D02*
X11468753Y-11033984D01*
X11544943Y-10833984D02*
X11678277Y-10833984D01*
X11678277Y-10833984D02*
X11592562Y-11033984D01*
X11792562Y-10833984D02*
X11811610Y-10833984D01*
X11811610Y-10833984D02*
X11830658Y-10843508D01*
X11830658Y-10843508D02*
X11840182Y-10853031D01*
X11840182Y-10853031D02*
X11849705Y-10872079D01*
X11849705Y-10872079D02*
X11859229Y-10910174D01*
X11859229Y-10910174D02*
X11859229Y-10957793D01*
X11859229Y-10957793D02*
X11849705Y-10995889D01*
X11849705Y-10995889D02*
X11840182Y-11014936D01*
X11840182Y-11014936D02*
X11830658Y-11024460D01*
X11830658Y-11024460D02*
X11811610Y-11033984D01*
X11811610Y-11033984D02*
X11792562Y-11033984D01*
X11792562Y-11033984D02*
X11773515Y-11024460D01*
X11773515Y-11024460D02*
X11763991Y-11014936D01*
X11763991Y-11014936D02*
X11754467Y-10995889D01*
X11754467Y-10995889D02*
X11744943Y-10957793D01*
X11744943Y-10957793D02*
X11744943Y-10910174D01*
X11744943Y-10910174D02*
X11754467Y-10872079D01*
X11754467Y-10872079D02*
X11763991Y-10853031D01*
X11763991Y-10853031D02*
X11773515Y-10843508D01*
X11773515Y-10843508D02*
X11792562Y-10833984D01*
X11983039Y-10833984D02*
X12002086Y-10833984D01*
X12002086Y-10833984D02*
X12021134Y-10843508D01*
X12021134Y-10843508D02*
X12030658Y-10853031D01*
X12030658Y-10853031D02*
X12040182Y-10872079D01*
X12040182Y-10872079D02*
X12049705Y-10910174D01*
X12049705Y-10910174D02*
X12049705Y-10957793D01*
X12049705Y-10957793D02*
X12040182Y-10995889D01*
X12040182Y-10995889D02*
X12030658Y-11014936D01*
X12030658Y-11014936D02*
X12021134Y-11024460D01*
X12021134Y-11024460D02*
X12002086Y-11033984D01*
X12002086Y-11033984D02*
X11983039Y-11033984D01*
X11983039Y-11033984D02*
X11963991Y-11024460D01*
X11963991Y-11024460D02*
X11954467Y-11014936D01*
X11954467Y-11014936D02*
X11944943Y-10995889D01*
X11944943Y-10995889D02*
X11935420Y-10957793D01*
X11935420Y-10957793D02*
X11935420Y-10910174D01*
X11935420Y-10910174D02*
X11944943Y-10872079D01*
X11944943Y-10872079D02*
X11954467Y-10853031D01*
X11954467Y-10853031D02*
X11963991Y-10843508D01*
X11963991Y-10843508D02*
X11983039Y-10833984D01*
X12135420Y-11033984D02*
X12135420Y-10900650D01*
X12135420Y-10919698D02*
X12144943Y-10910174D01*
X12144943Y-10910174D02*
X12163991Y-10900650D01*
X12163991Y-10900650D02*
X12192563Y-10900650D01*
X12192563Y-10900650D02*
X12211610Y-10910174D01*
X12211610Y-10910174D02*
X12221134Y-10929222D01*
X12221134Y-10929222D02*
X12221134Y-11033984D01*
X12221134Y-10929222D02*
X12230658Y-10910174D01*
X12230658Y-10910174D02*
X12249705Y-10900650D01*
X12249705Y-10900650D02*
X12278277Y-10900650D01*
X12278277Y-10900650D02*
X12297324Y-10910174D01*
X12297324Y-10910174D02*
X12306848Y-10929222D01*
X12306848Y-10929222D02*
X12306848Y-11033984D01*
X12402086Y-11033984D02*
X12402086Y-10900650D01*
X12402086Y-10919698D02*
X12411610Y-10910174D01*
X12411610Y-10910174D02*
X12430658Y-10900650D01*
X12430658Y-10900650D02*
X12459229Y-10900650D01*
X12459229Y-10900650D02*
X12478277Y-10910174D01*
X12478277Y-10910174D02*
X12487801Y-10929222D01*
X12487801Y-10929222D02*
X12487801Y-11033984D01*
X12487801Y-10929222D02*
X12497324Y-10910174D01*
X12497324Y-10910174D02*
X12516372Y-10900650D01*
X12516372Y-10900650D02*
X12544943Y-10900650D01*
X12544943Y-10900650D02*
X12563991Y-10910174D01*
X12563991Y-10910174D02*
X12573515Y-10929222D01*
X12573515Y-10929222D02*
X12573515Y-11033984D01*
X12963991Y-10824460D02*
X12792563Y-11081603D01*
X13221134Y-10833984D02*
X13240182Y-10833984D01*
X13240182Y-10833984D02*
X13259229Y-10843508D01*
X13259229Y-10843508D02*
X13268753Y-10853031D01*
X13268753Y-10853031D02*
X13278277Y-10872079D01*
X13278277Y-10872079D02*
X13287801Y-10910174D01*
X13287801Y-10910174D02*
X13287801Y-10957793D01*
X13287801Y-10957793D02*
X13278277Y-10995889D01*
X13278277Y-10995889D02*
X13268753Y-11014936D01*
X13268753Y-11014936D02*
X13259229Y-11024460D01*
X13259229Y-11024460D02*
X13240182Y-11033984D01*
X13240182Y-11033984D02*
X13221134Y-11033984D01*
X13221134Y-11033984D02*
X13202086Y-11024460D01*
X13202086Y-11024460D02*
X13192563Y-11014936D01*
X13192563Y-11014936D02*
X13183039Y-10995889D01*
X13183039Y-10995889D02*
X13173515Y-10957793D01*
X13173515Y-10957793D02*
X13173515Y-10910174D01*
X13173515Y-10910174D02*
X13183039Y-10872079D01*
X13183039Y-10872079D02*
X13192563Y-10853031D01*
X13192563Y-10853031D02*
X13202086Y-10843508D01*
X13202086Y-10843508D02*
X13221134Y-10833984D01*
X13373515Y-11014936D02*
X13383039Y-11024460D01*
X13383039Y-11024460D02*
X13373515Y-11033984D01*
X13373515Y-11033984D02*
X13363991Y-11024460D01*
X13363991Y-11024460D02*
X13373515Y-11014936D01*
X13373515Y-11014936D02*
X13373515Y-11033984D01*
X13573515Y-11033984D02*
X13459229Y-11033984D01*
X13516372Y-11033984D02*
X13516372Y-10833984D01*
X13516372Y-10833984D02*
X13497325Y-10862555D01*
X13497325Y-10862555D02*
X13478277Y-10881603D01*
X13478277Y-10881603D02*
X13459229Y-10891127D01*
X13697325Y-10833984D02*
X13716372Y-10833984D01*
X13716372Y-10833984D02*
X13735420Y-10843508D01*
X13735420Y-10843508D02*
X13744944Y-10853031D01*
X13744944Y-10853031D02*
X13754467Y-10872079D01*
X13754467Y-10872079D02*
X13763991Y-10910174D01*
X13763991Y-10910174D02*
X13763991Y-10957793D01*
X13763991Y-10957793D02*
X13754467Y-10995889D01*
X13754467Y-10995889D02*
X13744944Y-11014936D01*
X13744944Y-11014936D02*
X13735420Y-11024460D01*
X13735420Y-11024460D02*
X13716372Y-11033984D01*
X13716372Y-11033984D02*
X13697325Y-11033984D01*
X13697325Y-11033984D02*
X13678277Y-11024460D01*
X13678277Y-11024460D02*
X13668753Y-11014936D01*
X13668753Y-11014936D02*
X13659229Y-10995889D01*
X13659229Y-10995889D02*
X13649706Y-10957793D01*
X13649706Y-10957793D02*
X13649706Y-10910174D01*
X13649706Y-10910174D02*
X13659229Y-10872079D01*
X13659229Y-10872079D02*
X13668753Y-10853031D01*
X13668753Y-10853031D02*
X13678277Y-10843508D01*
X13678277Y-10843508D02*
X13697325Y-10833984D01*
X13935420Y-10833984D02*
X13897325Y-10833984D01*
X13897325Y-10833984D02*
X13878277Y-10843508D01*
X13878277Y-10843508D02*
X13868753Y-10853031D01*
X13868753Y-10853031D02*
X13849706Y-10881603D01*
X13849706Y-10881603D02*
X13840182Y-10919698D01*
X13840182Y-10919698D02*
X13840182Y-10995889D01*
X13840182Y-10995889D02*
X13849706Y-11014936D01*
X13849706Y-11014936D02*
X13859229Y-11024460D01*
X13859229Y-11024460D02*
X13878277Y-11033984D01*
X13878277Y-11033984D02*
X13916372Y-11033984D01*
X13916372Y-11033984D02*
X13935420Y-11024460D01*
X13935420Y-11024460D02*
X13944944Y-11014936D01*
X13944944Y-11014936D02*
X13954467Y-10995889D01*
X13954467Y-10995889D02*
X13954467Y-10948270D01*
X13954467Y-10948270D02*
X13944944Y-10929222D01*
X13944944Y-10929222D02*
X13935420Y-10919698D01*
X13935420Y-10919698D02*
X13916372Y-10910174D01*
X13916372Y-10910174D02*
X13878277Y-10910174D01*
X13878277Y-10910174D02*
X13859229Y-10919698D01*
X13859229Y-10919698D02*
X13849706Y-10929222D01*
X13849706Y-10929222D02*
X13840182Y-10948270D01*
X14021134Y-10833984D02*
X14144944Y-10833984D01*
X14144944Y-10833984D02*
X14078277Y-10910174D01*
X14078277Y-10910174D02*
X14106848Y-10910174D01*
X14106848Y-10910174D02*
X14125896Y-10919698D01*
X14125896Y-10919698D02*
X14135420Y-10929222D01*
X14135420Y-10929222D02*
X14144944Y-10948270D01*
X14144944Y-10948270D02*
X14144944Y-10995889D01*
X14144944Y-10995889D02*
X14135420Y-11014936D01*
X14135420Y-11014936D02*
X14125896Y-11024460D01*
X14125896Y-11024460D02*
X14106848Y-11033984D01*
X14106848Y-11033984D02*
X14049706Y-11033984D01*
X14049706Y-11033984D02*
X14030658Y-11024460D01*
X14030658Y-11024460D02*
X14021134Y-11014936D01*
X14221134Y-10833984D02*
X14221134Y-10872079D01*
X14297325Y-10833984D02*
X14297325Y-10872079D01*
X14592563Y-11110174D02*
X14583039Y-11100650D01*
X14583039Y-11100650D02*
X14563991Y-11072079D01*
X14563991Y-11072079D02*
X14554468Y-11053031D01*
X14554468Y-11053031D02*
X14544944Y-11024460D01*
X14544944Y-11024460D02*
X14535420Y-10976841D01*
X14535420Y-10976841D02*
X14535420Y-10938746D01*
X14535420Y-10938746D02*
X14544944Y-10891127D01*
X14544944Y-10891127D02*
X14554468Y-10862555D01*
X14554468Y-10862555D02*
X14563991Y-10843508D01*
X14563991Y-10843508D02*
X14583039Y-10814936D01*
X14583039Y-10814936D02*
X14592563Y-10805412D01*
X14754468Y-10900650D02*
X14754468Y-11033984D01*
X14706848Y-10824460D02*
X14659229Y-10967317D01*
X14659229Y-10967317D02*
X14783039Y-10967317D01*
X15011610Y-11033984D02*
X15011610Y-10833984D01*
X15097325Y-11033984D02*
X15097325Y-10929222D01*
X15097325Y-10929222D02*
X15087801Y-10910174D01*
X15087801Y-10910174D02*
X15068753Y-10900650D01*
X15068753Y-10900650D02*
X15040182Y-10900650D01*
X15040182Y-10900650D02*
X15021134Y-10910174D01*
X15021134Y-10910174D02*
X15011610Y-10919698D01*
X15221134Y-11033984D02*
X15202087Y-11024460D01*
X15202087Y-11024460D02*
X15192563Y-11014936D01*
X15192563Y-11014936D02*
X15183039Y-10995889D01*
X15183039Y-10995889D02*
X15183039Y-10938746D01*
X15183039Y-10938746D02*
X15192563Y-10919698D01*
X15192563Y-10919698D02*
X15202087Y-10910174D01*
X15202087Y-10910174D02*
X15221134Y-10900650D01*
X15221134Y-10900650D02*
X15249706Y-10900650D01*
X15249706Y-10900650D02*
X15268753Y-10910174D01*
X15268753Y-10910174D02*
X15278277Y-10919698D01*
X15278277Y-10919698D02*
X15287801Y-10938746D01*
X15287801Y-10938746D02*
X15287801Y-10995889D01*
X15287801Y-10995889D02*
X15278277Y-11014936D01*
X15278277Y-11014936D02*
X15268753Y-11024460D01*
X15268753Y-11024460D02*
X15249706Y-11033984D01*
X15249706Y-11033984D02*
X15221134Y-11033984D01*
X15402087Y-11033984D02*
X15383039Y-11024460D01*
X15383039Y-11024460D02*
X15373515Y-11005412D01*
X15373515Y-11005412D02*
X15373515Y-10833984D01*
X15554468Y-11024460D02*
X15535420Y-11033984D01*
X15535420Y-11033984D02*
X15497325Y-11033984D01*
X15497325Y-11033984D02*
X15478277Y-11024460D01*
X15478277Y-11024460D02*
X15468753Y-11005412D01*
X15468753Y-11005412D02*
X15468753Y-10929222D01*
X15468753Y-10929222D02*
X15478277Y-10910174D01*
X15478277Y-10910174D02*
X15497325Y-10900650D01*
X15497325Y-10900650D02*
X15535420Y-10900650D01*
X15535420Y-10900650D02*
X15554468Y-10910174D01*
X15554468Y-10910174D02*
X15563991Y-10929222D01*
X15563991Y-10929222D02*
X15563991Y-10948270D01*
X15563991Y-10948270D02*
X15468753Y-10967317D01*
X15640182Y-11024460D02*
X15659230Y-11033984D01*
X15659230Y-11033984D02*
X15697325Y-11033984D01*
X15697325Y-11033984D02*
X15716372Y-11024460D01*
X15716372Y-11024460D02*
X15725896Y-11005412D01*
X15725896Y-11005412D02*
X15725896Y-10995889D01*
X15725896Y-10995889D02*
X15716372Y-10976841D01*
X15716372Y-10976841D02*
X15697325Y-10967317D01*
X15697325Y-10967317D02*
X15668753Y-10967317D01*
X15668753Y-10967317D02*
X15649706Y-10957793D01*
X15649706Y-10957793D02*
X15640182Y-10938746D01*
X15640182Y-10938746D02*
X15640182Y-10929222D01*
X15640182Y-10929222D02*
X15649706Y-10910174D01*
X15649706Y-10910174D02*
X15668753Y-10900650D01*
X15668753Y-10900650D02*
X15697325Y-10900650D01*
X15697325Y-10900650D02*
X15716372Y-10910174D01*
X15792563Y-11110174D02*
X15802087Y-11100650D01*
X15802087Y-11100650D02*
X15821134Y-11072079D01*
X15821134Y-11072079D02*
X15830658Y-11053031D01*
X15830658Y-11053031D02*
X15840182Y-11024460D01*
X15840182Y-11024460D02*
X15849706Y-10976841D01*
X15849706Y-10976841D02*
X15849706Y-10938746D01*
X15849706Y-10938746D02*
X15840182Y-10891127D01*
X15840182Y-10891127D02*
X15830658Y-10862555D01*
X15830658Y-10862555D02*
X15821134Y-10843508D01*
X15821134Y-10843508D02*
X15802087Y-10814936D01*
X15802087Y-10814936D02*
X15792563Y-10805412D01*
M02*
