G04 #@! TF.GenerationSoftware,KiCad,Pcbnew,9.0.0*
G04 #@! TF.CreationDate,2025-04-11T10:19:01+02:00*
G04 #@! TF.ProjectId,Janus_finalV,4a616e75-735f-4666-996e-616c562e6b69,rev?*
G04 #@! TF.SameCoordinates,Original*
G04 #@! TF.FileFunction,Soldermask,Bot*
G04 #@! TF.FilePolarity,Negative*
%FSLAX46Y46*%
G04 Gerber Fmt 4.6, Leading zero omitted, Abs format (unit mm)*
G04 Created by KiCad (PCBNEW 9.0.0) date 2025-04-11 10:19:01*
%MOMM*%
%LPD*%
G01*
G04 APERTURE LIST*
G04 Aperture macros list*
%AMRoundRect*
0 Rectangle with rounded corners*
0 $1 Rounding radius*
0 $2 $3 $4 $5 $6 $7 $8 $9 X,Y pos of 4 corners*
0 Add a 4 corners polygon primitive as box body*
4,1,4,$2,$3,$4,$5,$6,$7,$8,$9,$2,$3,0*
0 Add four circle primitives for the rounded corners*
1,1,$1+$1,$2,$3*
1,1,$1+$1,$4,$5*
1,1,$1+$1,$6,$7*
1,1,$1+$1,$8,$9*
0 Add four rect primitives between the rounded corners*
20,1,$1+$1,$2,$3,$4,$5,0*
20,1,$1+$1,$4,$5,$6,$7,0*
20,1,$1+$1,$6,$7,$8,$9,0*
20,1,$1+$1,$8,$9,$2,$3,0*%
G04 Aperture macros list end*
%ADD10R,1.700000X1.700000*%
%ADD11O,1.700000X1.700000*%
%ADD12C,5.400000*%
%ADD13RoundRect,0.250000X-0.625000X0.350000X-0.625000X-0.350000X0.625000X-0.350000X0.625000X0.350000X0*%
%ADD14O,1.750000X1.200000*%
%ADD15R,1.700000X2.500000*%
%ADD16O,1.700000X2.500000*%
%ADD17RoundRect,0.250000X-0.600000X-0.725000X0.600000X-0.725000X0.600000X0.725000X-0.600000X0.725000X0*%
%ADD18O,1.700000X1.950000*%
%ADD19RoundRect,0.250000X0.600000X0.725000X-0.600000X0.725000X-0.600000X-0.725000X0.600000X-0.725000X0*%
%ADD20RoundRect,0.160000X-0.160000X0.197500X-0.160000X-0.197500X0.160000X-0.197500X0.160000X0.197500X0*%
%ADD21C,2.000000*%
%ADD22RoundRect,0.250000X0.600000X0.750000X-0.600000X0.750000X-0.600000X-0.750000X0.600000X-0.750000X0*%
%ADD23O,1.700000X2.000000*%
%ADD24RoundRect,0.250000X0.750000X-0.600000X0.750000X0.600000X-0.750000X0.600000X-0.750000X-0.600000X0*%
%ADD25O,2.000000X1.700000*%
%ADD26R,0.900000X0.600000*%
%ADD27RoundRect,0.237500X-0.300000X-0.237500X0.300000X-0.237500X0.300000X0.237500X-0.300000X0.237500X0*%
%ADD28RoundRect,0.237500X0.237500X-0.300000X0.237500X0.300000X-0.237500X0.300000X-0.237500X-0.300000X0*%
G04 APERTURE END LIST*
D10*
X147700000Y-80080000D03*
D11*
X145160000Y-80080000D03*
X142620000Y-80080000D03*
X140080000Y-80080000D03*
D12*
X147000000Y-85600000D03*
D13*
X121500000Y-41600000D03*
D14*
X121500000Y-43600000D03*
X121500000Y-45600000D03*
X121500000Y-47600000D03*
D10*
X147700000Y-77540000D03*
D11*
X145160000Y-77540000D03*
X142620000Y-77540000D03*
X140080000Y-77540000D03*
D15*
X114820000Y-69100000D03*
D16*
X117360000Y-69100000D03*
X119900000Y-69100000D03*
D12*
X114400000Y-41600000D03*
D17*
X114200000Y-62300000D03*
D18*
X116700000Y-62300000D03*
X119200000Y-62300000D03*
D17*
X114300000Y-54000000D03*
D18*
X116800000Y-54000000D03*
X119300000Y-54000000D03*
D10*
X147700000Y-75000000D03*
D11*
X145160000Y-75000000D03*
X142620000Y-75000000D03*
X140080000Y-75000000D03*
D12*
X147000000Y-41600000D03*
X114400000Y-85600000D03*
D19*
X139900000Y-47200000D03*
D18*
X137400000Y-47200000D03*
X134900000Y-47200000D03*
X132400000Y-47200000D03*
X129900000Y-47200000D03*
X127400000Y-47200000D03*
D20*
X141120000Y-71182500D03*
X141120000Y-72377500D03*
D21*
X126100000Y-71100000D03*
D22*
X129900000Y-84700000D03*
D23*
X127400000Y-84700000D03*
D24*
X119200000Y-80050000D03*
D25*
X119200000Y-77550000D03*
D20*
X142620000Y-71192500D03*
X142620000Y-72387500D03*
D21*
X120100000Y-72800000D03*
D22*
X139750000Y-84700000D03*
D23*
X137250000Y-84700000D03*
D26*
X124662500Y-67250000D03*
X124662500Y-66300000D03*
X124662500Y-65350000D03*
X127462500Y-65350000D03*
X127462500Y-67250000D03*
D27*
X126700000Y-64100000D03*
X128425000Y-64100000D03*
D28*
X124700000Y-63725000D03*
X124700000Y-62000000D03*
M02*
