G04 #@! TF.GenerationSoftware,KiCad,Pcbnew,8.0.8*
G04 #@! TF.CreationDate,2025-02-05T20:31:25+01:00*
G04 #@! TF.ProjectId,Janus_finalV,4a616e75-735f-4666-996e-616c562e6b69,rev?*
G04 #@! TF.SameCoordinates,Original*
G04 #@! TF.FileFunction,Copper,L2,Inr*
G04 #@! TF.FilePolarity,Positive*
%FSLAX46Y46*%
G04 Gerber Fmt 4.6, Leading zero omitted, Abs format (unit mm)*
G04 Created by KiCad (PCBNEW 8.0.8) date 2025-02-05 20:31:25*
%MOMM*%
%LPD*%
G01*
G04 APERTURE LIST*
G04 Aperture macros list*
%AMRoundRect*
0 Rectangle with rounded corners*
0 $1 Rounding radius*
0 $2 $3 $4 $5 $6 $7 $8 $9 X,Y pos of 4 corners*
0 Add a 4 corners polygon primitive as box body*
4,1,4,$2,$3,$4,$5,$6,$7,$8,$9,$2,$3,0*
0 Add four circle primitives for the rounded corners*
1,1,$1+$1,$2,$3*
1,1,$1+$1,$4,$5*
1,1,$1+$1,$6,$7*
1,1,$1+$1,$8,$9*
0 Add four rect primitives between the rounded corners*
20,1,$1+$1,$2,$3,$4,$5,0*
20,1,$1+$1,$4,$5,$6,$7,0*
20,1,$1+$1,$6,$7,$8,$9,0*
20,1,$1+$1,$8,$9,$2,$3,0*%
G04 Aperture macros list end*
G04 #@! TA.AperFunction,ComponentPad*
%ADD10R,1.700000X1.700000*%
G04 #@! TD*
G04 #@! TA.AperFunction,ComponentPad*
%ADD11O,1.700000X1.700000*%
G04 #@! TD*
G04 #@! TA.AperFunction,ComponentPad*
%ADD12C,5.400000*%
G04 #@! TD*
G04 #@! TA.AperFunction,ComponentPad*
%ADD13RoundRect,0.250000X-0.625000X0.350000X-0.625000X-0.350000X0.625000X-0.350000X0.625000X0.350000X0*%
G04 #@! TD*
G04 #@! TA.AperFunction,ComponentPad*
%ADD14O,1.750000X1.200000*%
G04 #@! TD*
G04 #@! TA.AperFunction,ComponentPad*
%ADD15R,1.700000X2.500000*%
G04 #@! TD*
G04 #@! TA.AperFunction,ComponentPad*
%ADD16O,1.700000X2.500000*%
G04 #@! TD*
G04 #@! TA.AperFunction,ComponentPad*
%ADD17RoundRect,0.250000X-0.600000X-0.725000X0.600000X-0.725000X0.600000X0.725000X-0.600000X0.725000X0*%
G04 #@! TD*
G04 #@! TA.AperFunction,ComponentPad*
%ADD18O,1.700000X1.950000*%
G04 #@! TD*
G04 #@! TA.AperFunction,ComponentPad*
%ADD19RoundRect,0.250000X0.600000X0.725000X-0.600000X0.725000X-0.600000X-0.725000X0.600000X-0.725000X0*%
G04 #@! TD*
G04 #@! TA.AperFunction,ComponentPad*
%ADD20RoundRect,0.250000X0.600000X0.750000X-0.600000X0.750000X-0.600000X-0.750000X0.600000X-0.750000X0*%
G04 #@! TD*
G04 #@! TA.AperFunction,ComponentPad*
%ADD21O,1.700000X2.000000*%
G04 #@! TD*
G04 #@! TA.AperFunction,ComponentPad*
%ADD22RoundRect,0.250000X0.750000X-0.600000X0.750000X0.600000X-0.750000X0.600000X-0.750000X-0.600000X0*%
G04 #@! TD*
G04 #@! TA.AperFunction,ComponentPad*
%ADD23O,2.000000X1.700000*%
G04 #@! TD*
G04 #@! TA.AperFunction,ViaPad*
%ADD24C,0.450000*%
G04 #@! TD*
G04 APERTURE END LIST*
D10*
X147700000Y-80080000D03*
D11*
X145160000Y-80080000D03*
X142620000Y-80080000D03*
X140080000Y-80080000D03*
D12*
X147000000Y-85600000D03*
D13*
X121500000Y-41600000D03*
D14*
X121500000Y-43600000D03*
X121500000Y-45600000D03*
X121500000Y-47600000D03*
D10*
X147700000Y-77540000D03*
D11*
X145160000Y-77540000D03*
X142620000Y-77540000D03*
X140080000Y-77540000D03*
D15*
X114820000Y-69100000D03*
D16*
X117360000Y-69100000D03*
X119900000Y-69100000D03*
D12*
X114400000Y-41600000D03*
D17*
X114200000Y-62300000D03*
D18*
X116700000Y-62300000D03*
X119200000Y-62300000D03*
D17*
X114300000Y-54000000D03*
D18*
X116800000Y-54000000D03*
X119300000Y-54000000D03*
D10*
X147700000Y-75000000D03*
D11*
X145160000Y-75000000D03*
X142620000Y-75000000D03*
X140080000Y-75000000D03*
D12*
X147000000Y-41600000D03*
X114400000Y-85600000D03*
D19*
X139900000Y-47200000D03*
D18*
X137400000Y-47200000D03*
X134900000Y-47200000D03*
X132400000Y-47200000D03*
X129900000Y-47200000D03*
X127400000Y-47200000D03*
D20*
X129900000Y-84700000D03*
D21*
X127400000Y-84700000D03*
D22*
X119200000Y-80050000D03*
D23*
X119200000Y-77550000D03*
D20*
X139750000Y-84700000D03*
D21*
X137250000Y-84700000D03*
D24*
X150500000Y-71240000D03*
X150500000Y-61080000D03*
X125300000Y-69300000D03*
X123550000Y-57100000D03*
X132170000Y-39400000D03*
X134710000Y-41940000D03*
X124550000Y-39400000D03*
X129400000Y-71100000D03*
X135870000Y-89150000D03*
X128700000Y-60950000D03*
X118090000Y-89150000D03*
X113350000Y-48050000D03*
X133340000Y-87280000D03*
X110950000Y-53110000D03*
X120630000Y-89150000D03*
X130800000Y-87280000D03*
X138500000Y-70600000D03*
X110950000Y-55650000D03*
X122020000Y-38000000D03*
X134720000Y-38000000D03*
X130500000Y-65800000D03*
X123550000Y-59000000D03*
X129630000Y-44480000D03*
X117680000Y-74040000D03*
X149020000Y-64750000D03*
X115890000Y-48050000D03*
X129000000Y-77050000D03*
X137050000Y-74700000D03*
X122300000Y-74460000D03*
X112650000Y-64350000D03*
X112600000Y-74040000D03*
X130790000Y-89150000D03*
X130530000Y-51640000D03*
X135880000Y-87280000D03*
X123500000Y-47400000D03*
X115140000Y-81330000D03*
X136300000Y-82800000D03*
X125450000Y-49100000D03*
X110950000Y-75970000D03*
X122300000Y-64500000D03*
X128750000Y-74050000D03*
X144880000Y-38000000D03*
X150500000Y-68700000D03*
X142350000Y-41950000D03*
X139790000Y-41940000D03*
X123180000Y-87280000D03*
X137250000Y-44480000D03*
X136000000Y-49450000D03*
X134100000Y-59400000D03*
X118430000Y-48040000D03*
X138410000Y-89150000D03*
X124840000Y-71920000D03*
X122300000Y-71920000D03*
X112650000Y-66890000D03*
X131540000Y-77050000D03*
X137250000Y-39400000D03*
X125720000Y-84740000D03*
X150500000Y-73780000D03*
X115040000Y-56300000D03*
X118430000Y-50580000D03*
X150500000Y-81400000D03*
X149450000Y-82650000D03*
X150500000Y-43300000D03*
X110950000Y-83590000D03*
X144500000Y-67840000D03*
X123500000Y-52480000D03*
X150500000Y-76320000D03*
X147430000Y-51980000D03*
X130450000Y-75100000D03*
X112600000Y-78790000D03*
X136100000Y-63600000D03*
X144450000Y-82200000D03*
X117730000Y-66890000D03*
X150500000Y-78860000D03*
X134650000Y-68450000D03*
X113350000Y-50590000D03*
X139800000Y-38000000D03*
X126980000Y-76550000D03*
X118100000Y-87280000D03*
X110950000Y-78510000D03*
X129100000Y-82800000D03*
X118430000Y-45500000D03*
X150500000Y-50920000D03*
X118100000Y-84740000D03*
X110950000Y-63270000D03*
X110950000Y-45490000D03*
X110950000Y-60730000D03*
X142350000Y-49440000D03*
X116940000Y-38000000D03*
X127100000Y-38000000D03*
X134080000Y-77050000D03*
X117580000Y-56300000D03*
X141380000Y-84680000D03*
X142350000Y-44450000D03*
X110950000Y-58190000D03*
X122300000Y-60200000D03*
X118100000Y-82200000D03*
X144890000Y-51980000D03*
X134050000Y-64200000D03*
X129630000Y-41940000D03*
X123170000Y-89150000D03*
X139000000Y-58650000D03*
X120640000Y-82200000D03*
X110950000Y-70890000D03*
X150500000Y-83940000D03*
X115040000Y-58840000D03*
X122300000Y-66840000D03*
X125720000Y-82200000D03*
X127090000Y-41940000D03*
X141350000Y-89150000D03*
X128900000Y-65500000D03*
X128900000Y-66500000D03*
X125720000Y-87280000D03*
X150500000Y-56000000D03*
X141500000Y-58550000D03*
X110950000Y-81050000D03*
X123180000Y-84740000D03*
X115890000Y-45500000D03*
X117580000Y-58840000D03*
X130530000Y-49100000D03*
X127090000Y-44480000D03*
X135150000Y-84700000D03*
X118400000Y-39400000D03*
X120120000Y-56300000D03*
X146030000Y-89150000D03*
X121750000Y-73950000D03*
X133700000Y-83250000D03*
X128700000Y-56800000D03*
X112500000Y-58840000D03*
X144890000Y-49440000D03*
X115190000Y-66890000D03*
X113350000Y-45500000D03*
X120640000Y-84740000D03*
X125710000Y-89150000D03*
X142600000Y-53800000D03*
X144890000Y-46900000D03*
X124440000Y-76550000D03*
X132100000Y-61500000D03*
X126980000Y-79090000D03*
X137200000Y-57400000D03*
X150500000Y-45840000D03*
X124250000Y-55250000D03*
X129650000Y-74550000D03*
X125450000Y-51640000D03*
X138540000Y-49450000D03*
X135100000Y-81700000D03*
X121850000Y-55450000D03*
X132600000Y-57400000D03*
X124550000Y-41940000D03*
X137250000Y-64700000D03*
X137750000Y-58650000D03*
X139790000Y-44480000D03*
X118400000Y-41940000D03*
X144500000Y-72920000D03*
X129640000Y-38000000D03*
X122300000Y-58050000D03*
X147430000Y-49440000D03*
X142350000Y-39400000D03*
X134710000Y-39400000D03*
X150500000Y-48380000D03*
X130100000Y-59700000D03*
X127090000Y-39400000D03*
X134650000Y-69500000D03*
X124440000Y-79090000D03*
X122300000Y-69800000D03*
X115890000Y-50590000D03*
X145900000Y-56700000D03*
X123500000Y-73950000D03*
X137000000Y-69400000D03*
X115550000Y-89150000D03*
X144500000Y-70380000D03*
X120600000Y-61850000D03*
X134000000Y-70200000D03*
X123500000Y-49940000D03*
X142340000Y-38000000D03*
X150500000Y-63620000D03*
X150500000Y-53460000D03*
X115140000Y-78790000D03*
X137000000Y-53900000D03*
X124560000Y-38000000D03*
X131100000Y-61500000D03*
X115140000Y-76250000D03*
X127990000Y-49100000D03*
X133330000Y-89150000D03*
X134100000Y-55800000D03*
X119480000Y-38000000D03*
X110950000Y-65810000D03*
X128260000Y-87280000D03*
X110950000Y-68350000D03*
X132180000Y-38000000D03*
X120000000Y-75900000D03*
X134900000Y-53900000D03*
X110950000Y-50570000D03*
X112600000Y-71500000D03*
X141380000Y-87220000D03*
X125350000Y-60650000D03*
X134000000Y-71000000D03*
X120800000Y-74900000D03*
X147430000Y-46900000D03*
X137750000Y-82800000D03*
X125750000Y-57050000D03*
X130500000Y-66650000D03*
X115140000Y-71500000D03*
X138500000Y-72600000D03*
X124550000Y-44480000D03*
X120640000Y-87280000D03*
X124650000Y-59000000D03*
X128700000Y-58300000D03*
X130200000Y-81900000D03*
X134600000Y-50800000D03*
X115190000Y-64350000D03*
X112600000Y-81330000D03*
X123180000Y-82200000D03*
X150500000Y-58540000D03*
X128700000Y-59700000D03*
X121900000Y-79090000D03*
X128250000Y-89150000D03*
X132350000Y-81900000D03*
X141900000Y-82150000D03*
X117730000Y-64350000D03*
X142350000Y-46900000D03*
X130100000Y-61500000D03*
X127380000Y-71920000D03*
X126650000Y-62100000D03*
X133450000Y-67250000D03*
X115140000Y-74040000D03*
X144000000Y-64000000D03*
X134100000Y-61100000D03*
X143490000Y-89150000D03*
X132600000Y-55800000D03*
X141400000Y-64750000D03*
X142350000Y-51980000D03*
X121900000Y-76550000D03*
X132170000Y-44480000D03*
X137250000Y-41940000D03*
X132170000Y-41940000D03*
X129630000Y-39400000D03*
X117680000Y-71500000D03*
X120120000Y-58840000D03*
X138420000Y-87280000D03*
X110950000Y-48030000D03*
X110950000Y-42950000D03*
X150500000Y-66160000D03*
X112500000Y-56300000D03*
X134710000Y-44480000D03*
X137260000Y-38000000D03*
X125850000Y-59000000D03*
X136620000Y-77050000D03*
X112600000Y-76250000D03*
X139790000Y-39400000D03*
X140400000Y-58600000D03*
X144500000Y-65300000D03*
X110950000Y-73430000D03*
X125300000Y-68400000D03*
X120100000Y-64550000D03*
X127800000Y-69300000D03*
X135750000Y-62500000D03*
X129400000Y-69800000D03*
X127800000Y-68400000D03*
X126900000Y-69300000D03*
X130500000Y-67750000D03*
X128700000Y-69300000D03*
X126900000Y-68400000D03*
X142300000Y-55950000D03*
X128700000Y-68400000D03*
X127550000Y-54300000D03*
X130500001Y-68600001D03*
X149850000Y-62200000D03*
X125600000Y-62750000D03*
X128700000Y-67700000D03*
X137000000Y-72400000D03*
X137000000Y-73100000D03*
X137000000Y-70300000D03*
X137000000Y-71000000D03*
X137000000Y-71700000D03*
X142250000Y-59300000D03*
X142250000Y-64350000D03*
X133553652Y-65526383D03*
X134471232Y-74971232D03*
X130950000Y-64726818D03*
X130550000Y-74100000D03*
X132571082Y-65392343D03*
X133400000Y-75000000D03*
X131235996Y-74511598D03*
X131655548Y-65325339D03*
X134350000Y-65450000D03*
X135380853Y-74804075D03*
X139925735Y-60674265D03*
X131600000Y-60700000D03*
X130850934Y-60150000D03*
X141100000Y-61550000D03*
X130000000Y-57400000D03*
X130950000Y-52700000D03*
X131450000Y-52075499D03*
X133800000Y-56875000D03*
G04 #@! TA.AperFunction,Conductor*
G36*
X147002855Y-37650632D02*
G01*
X147358697Y-37667083D01*
X147370086Y-37668139D01*
X147720051Y-37716957D01*
X147731295Y-37719059D01*
X148075261Y-37799959D01*
X148086251Y-37803086D01*
X148421306Y-37915385D01*
X148431960Y-37919513D01*
X148755209Y-38062241D01*
X148765436Y-38067333D01*
X149006689Y-38201710D01*
X149074131Y-38239275D01*
X149083869Y-38245304D01*
X149375374Y-38444990D01*
X149384511Y-38451890D01*
X149656356Y-38677626D01*
X149664820Y-38685343D01*
X149914656Y-38935179D01*
X149922373Y-38943643D01*
X150148107Y-39215485D01*
X150155009Y-39224625D01*
X150354695Y-39516130D01*
X150360724Y-39525868D01*
X150532659Y-39834550D01*
X150537764Y-39844803D01*
X150680481Y-40168026D01*
X150684619Y-40178706D01*
X150796909Y-40513735D01*
X150800043Y-40524751D01*
X150880938Y-40868696D01*
X150883043Y-40879955D01*
X150931859Y-41229905D01*
X150932916Y-41241309D01*
X150949368Y-41597144D01*
X150949500Y-41602871D01*
X150949500Y-85597128D01*
X150949368Y-85602855D01*
X150932916Y-85958690D01*
X150931859Y-85970094D01*
X150883043Y-86320044D01*
X150880938Y-86331303D01*
X150800043Y-86675248D01*
X150796909Y-86686264D01*
X150684619Y-87021293D01*
X150680481Y-87031973D01*
X150537764Y-87355196D01*
X150532659Y-87365449D01*
X150360724Y-87674131D01*
X150354695Y-87683869D01*
X150155009Y-87975374D01*
X150148107Y-87984514D01*
X149922373Y-88256356D01*
X149914656Y-88264820D01*
X149664820Y-88514656D01*
X149656356Y-88522373D01*
X149384514Y-88748107D01*
X149375374Y-88755009D01*
X149083869Y-88954695D01*
X149074131Y-88960724D01*
X148765449Y-89132659D01*
X148755196Y-89137764D01*
X148431973Y-89280481D01*
X148421293Y-89284619D01*
X148086264Y-89396909D01*
X148075248Y-89400043D01*
X147731303Y-89480938D01*
X147720044Y-89483043D01*
X147370094Y-89531859D01*
X147358690Y-89532916D01*
X147002855Y-89549368D01*
X146997128Y-89549500D01*
X114402872Y-89549500D01*
X114397145Y-89549368D01*
X114041309Y-89532916D01*
X114029905Y-89531859D01*
X113679955Y-89483043D01*
X113668696Y-89480938D01*
X113324751Y-89400043D01*
X113313735Y-89396909D01*
X112978706Y-89284619D01*
X112968026Y-89280481D01*
X112644803Y-89137764D01*
X112634555Y-89132661D01*
X112534830Y-89077115D01*
X112325868Y-88960724D01*
X112316130Y-88954695D01*
X112024625Y-88755009D01*
X112015485Y-88748107D01*
X111743643Y-88522373D01*
X111735179Y-88514656D01*
X111485343Y-88264820D01*
X111477626Y-88256356D01*
X111251892Y-87984514D01*
X111244990Y-87975374D01*
X111045304Y-87683869D01*
X111039275Y-87674131D01*
X111001710Y-87606689D01*
X110867333Y-87365436D01*
X110862241Y-87355209D01*
X110719513Y-87031960D01*
X110715385Y-87021306D01*
X110603086Y-86686251D01*
X110599959Y-86675261D01*
X110519059Y-86331295D01*
X110516956Y-86320044D01*
X110497624Y-86181460D01*
X110468139Y-85970086D01*
X110467083Y-85958690D01*
X110462526Y-85860131D01*
X110450632Y-85602855D01*
X110450500Y-85597128D01*
X110450500Y-84446530D01*
X126349500Y-84446530D01*
X126349500Y-84953469D01*
X126389868Y-85156412D01*
X126389870Y-85156420D01*
X126469058Y-85347596D01*
X126584024Y-85519657D01*
X126730342Y-85665975D01*
X126730345Y-85665977D01*
X126902402Y-85780941D01*
X127093580Y-85860130D01*
X127282187Y-85897646D01*
X127296530Y-85900499D01*
X127296534Y-85900500D01*
X127296535Y-85900500D01*
X127503466Y-85900500D01*
X127503467Y-85900499D01*
X127706420Y-85860130D01*
X127897598Y-85780941D01*
X128069655Y-85665977D01*
X128215977Y-85519655D01*
X128330941Y-85347598D01*
X128410130Y-85156420D01*
X128450500Y-84953465D01*
X128450500Y-84446535D01*
X128410130Y-84243580D01*
X128330941Y-84052402D01*
X128226257Y-83895730D01*
X128849500Y-83895730D01*
X128849500Y-85504269D01*
X128852353Y-85534699D01*
X128852353Y-85534701D01*
X128897206Y-85662880D01*
X128897207Y-85662882D01*
X128977850Y-85772150D01*
X129087118Y-85852793D01*
X129108089Y-85860131D01*
X129215299Y-85897646D01*
X129245730Y-85900500D01*
X129245734Y-85900500D01*
X130554270Y-85900500D01*
X130584699Y-85897646D01*
X130584701Y-85897646D01*
X130648790Y-85875219D01*
X130712882Y-85852793D01*
X130822150Y-85772150D01*
X130902793Y-85662882D01*
X130940252Y-85555830D01*
X130947646Y-85534701D01*
X130947646Y-85534699D01*
X130950500Y-85504269D01*
X130950500Y-84446530D01*
X136199500Y-84446530D01*
X136199500Y-84953469D01*
X136239868Y-85156412D01*
X136239870Y-85156420D01*
X136319058Y-85347596D01*
X136434024Y-85519657D01*
X136580342Y-85665975D01*
X136580345Y-85665977D01*
X136752402Y-85780941D01*
X136943580Y-85860130D01*
X137132187Y-85897646D01*
X137146530Y-85900499D01*
X137146534Y-85900500D01*
X137146535Y-85900500D01*
X137353466Y-85900500D01*
X137353467Y-85900499D01*
X137556420Y-85860130D01*
X137747598Y-85780941D01*
X137919655Y-85665977D01*
X138065977Y-85519655D01*
X138180941Y-85347598D01*
X138260130Y-85156420D01*
X138300500Y-84953465D01*
X138300500Y-84446535D01*
X138260130Y-84243580D01*
X138180941Y-84052402D01*
X138076257Y-83895730D01*
X138699500Y-83895730D01*
X138699500Y-85504269D01*
X138702353Y-85534699D01*
X138702353Y-85534701D01*
X138747206Y-85662880D01*
X138747207Y-85662882D01*
X138827850Y-85772150D01*
X138937118Y-85852793D01*
X138958089Y-85860131D01*
X139065299Y-85897646D01*
X139095730Y-85900500D01*
X139095734Y-85900500D01*
X140404270Y-85900500D01*
X140434699Y-85897646D01*
X140434701Y-85897646D01*
X140498790Y-85875219D01*
X140562882Y-85852793D01*
X140672150Y-85772150D01*
X140752793Y-85662882D01*
X140790252Y-85555830D01*
X140797646Y-85534701D01*
X140797646Y-85534699D01*
X140800500Y-85504269D01*
X140800500Y-83895730D01*
X140797646Y-83865300D01*
X140797646Y-83865298D01*
X140752793Y-83737119D01*
X140752792Y-83737117D01*
X140672150Y-83627850D01*
X140562882Y-83547207D01*
X140562880Y-83547206D01*
X140434700Y-83502353D01*
X140404270Y-83499500D01*
X140404266Y-83499500D01*
X139095734Y-83499500D01*
X139095730Y-83499500D01*
X139065300Y-83502353D01*
X139065298Y-83502353D01*
X138937119Y-83547206D01*
X138937117Y-83547207D01*
X138827850Y-83627850D01*
X138747207Y-83737117D01*
X138747206Y-83737119D01*
X138702353Y-83865298D01*
X138702353Y-83865300D01*
X138699500Y-83895730D01*
X138076257Y-83895730D01*
X138065977Y-83880345D01*
X138065975Y-83880342D01*
X137919657Y-83734024D01*
X137833626Y-83676541D01*
X137747598Y-83619059D01*
X137556420Y-83539870D01*
X137556412Y-83539868D01*
X137353469Y-83499500D01*
X137353465Y-83499500D01*
X137146535Y-83499500D01*
X137146530Y-83499500D01*
X136943587Y-83539868D01*
X136943579Y-83539870D01*
X136752403Y-83619058D01*
X136580342Y-83734024D01*
X136434024Y-83880342D01*
X136319058Y-84052403D01*
X136239870Y-84243579D01*
X136239868Y-84243587D01*
X136199500Y-84446530D01*
X130950500Y-84446530D01*
X130950500Y-83895730D01*
X130947646Y-83865300D01*
X130947646Y-83865298D01*
X130902793Y-83737119D01*
X130902792Y-83737117D01*
X130822150Y-83627850D01*
X130712882Y-83547207D01*
X130712880Y-83547206D01*
X130584700Y-83502353D01*
X130554270Y-83499500D01*
X130554266Y-83499500D01*
X129245734Y-83499500D01*
X129245730Y-83499500D01*
X129215300Y-83502353D01*
X129215298Y-83502353D01*
X129087119Y-83547206D01*
X129087117Y-83547207D01*
X128977850Y-83627850D01*
X128897207Y-83737117D01*
X128897206Y-83737119D01*
X128852353Y-83865298D01*
X128852353Y-83865300D01*
X128849500Y-83895730D01*
X128226257Y-83895730D01*
X128215977Y-83880345D01*
X128215975Y-83880342D01*
X128069657Y-83734024D01*
X127983626Y-83676541D01*
X127897598Y-83619059D01*
X127706420Y-83539870D01*
X127706412Y-83539868D01*
X127503469Y-83499500D01*
X127503465Y-83499500D01*
X127296535Y-83499500D01*
X127296530Y-83499500D01*
X127093587Y-83539868D01*
X127093579Y-83539870D01*
X126902403Y-83619058D01*
X126730342Y-83734024D01*
X126584024Y-83880342D01*
X126469058Y-84052403D01*
X126389870Y-84243579D01*
X126389868Y-84243587D01*
X126349500Y-84446530D01*
X110450500Y-84446530D01*
X110450500Y-77446530D01*
X117999500Y-77446530D01*
X117999500Y-77653469D01*
X118039868Y-77856412D01*
X118039870Y-77856420D01*
X118119058Y-78047596D01*
X118234024Y-78219657D01*
X118380342Y-78365975D01*
X118380345Y-78365977D01*
X118552402Y-78480941D01*
X118743580Y-78560130D01*
X118946530Y-78600499D01*
X118946534Y-78600500D01*
X118946535Y-78600500D01*
X119453466Y-78600500D01*
X119453467Y-78600499D01*
X119656420Y-78560130D01*
X119847598Y-78480941D01*
X120019655Y-78365977D01*
X120165977Y-78219655D01*
X120280941Y-78047598D01*
X120360130Y-77856420D01*
X120400500Y-77653465D01*
X120400500Y-77540000D01*
X139024417Y-77540000D01*
X139044699Y-77745932D01*
X139044700Y-77745934D01*
X139104768Y-77943954D01*
X139202315Y-78126450D01*
X139202317Y-78126452D01*
X139333589Y-78286410D01*
X139430209Y-78365702D01*
X139493550Y-78417685D01*
X139676046Y-78515232D01*
X139874066Y-78575300D01*
X139874065Y-78575300D01*
X139892529Y-78577118D01*
X140080000Y-78595583D01*
X140285934Y-78575300D01*
X140483954Y-78515232D01*
X140666450Y-78417685D01*
X140826410Y-78286410D01*
X140957685Y-78126450D01*
X141055232Y-77943954D01*
X141115300Y-77745934D01*
X141135583Y-77540000D01*
X141564417Y-77540000D01*
X141584699Y-77745932D01*
X141584700Y-77745934D01*
X141644768Y-77943954D01*
X141742315Y-78126450D01*
X141742317Y-78126452D01*
X141873589Y-78286410D01*
X141970209Y-78365702D01*
X142033550Y-78417685D01*
X142216046Y-78515232D01*
X142414066Y-78575300D01*
X142414065Y-78575300D01*
X142432529Y-78577118D01*
X142620000Y-78595583D01*
X142825934Y-78575300D01*
X143023954Y-78515232D01*
X143206450Y-78417685D01*
X143366410Y-78286410D01*
X143497685Y-78126450D01*
X143595232Y-77943954D01*
X143655300Y-77745934D01*
X143675583Y-77540000D01*
X144104417Y-77540000D01*
X144124699Y-77745932D01*
X144124700Y-77745934D01*
X144184768Y-77943954D01*
X144282315Y-78126450D01*
X144282317Y-78126452D01*
X144413589Y-78286410D01*
X144510209Y-78365702D01*
X144573550Y-78417685D01*
X144756046Y-78515232D01*
X144954066Y-78575300D01*
X144954065Y-78575300D01*
X144972529Y-78577118D01*
X145160000Y-78595583D01*
X145365934Y-78575300D01*
X145563954Y-78515232D01*
X145746450Y-78417685D01*
X145906410Y-78286410D01*
X146037685Y-78126450D01*
X146135232Y-77943954D01*
X146195300Y-77745934D01*
X146215583Y-77540000D01*
X146195300Y-77334066D01*
X146135232Y-77136046D01*
X146037685Y-76953550D01*
X145977605Y-76880342D01*
X145906410Y-76793589D01*
X145756121Y-76670252D01*
X145756115Y-76670247D01*
X146649500Y-76670247D01*
X146649500Y-78409752D01*
X146661131Y-78468229D01*
X146661132Y-78468230D01*
X146705447Y-78534552D01*
X146771769Y-78578867D01*
X146771770Y-78578868D01*
X146830247Y-78590499D01*
X146830250Y-78590500D01*
X146830252Y-78590500D01*
X148569750Y-78590500D01*
X148569751Y-78590499D01*
X148584568Y-78587552D01*
X148628229Y-78578868D01*
X148628229Y-78578867D01*
X148628231Y-78578867D01*
X148694552Y-78534552D01*
X148738867Y-78468231D01*
X148738867Y-78468229D01*
X148738868Y-78468229D01*
X148750499Y-78409752D01*
X148750500Y-78409750D01*
X148750500Y-76670249D01*
X148750499Y-76670247D01*
X148738868Y-76611770D01*
X148738867Y-76611769D01*
X148694552Y-76545447D01*
X148628230Y-76501132D01*
X148628229Y-76501131D01*
X148569752Y-76489500D01*
X148569748Y-76489500D01*
X146830252Y-76489500D01*
X146830247Y-76489500D01*
X146771770Y-76501131D01*
X146771769Y-76501132D01*
X146705447Y-76545447D01*
X146661132Y-76611769D01*
X146661131Y-76611770D01*
X146649500Y-76670247D01*
X145756115Y-76670247D01*
X145746450Y-76662315D01*
X145563954Y-76564768D01*
X145365934Y-76504700D01*
X145365932Y-76504699D01*
X145365934Y-76504699D01*
X145160000Y-76484417D01*
X144954067Y-76504699D01*
X144756043Y-76564769D01*
X144645898Y-76623643D01*
X144573550Y-76662315D01*
X144573548Y-76662316D01*
X144573547Y-76662317D01*
X144413589Y-76793589D01*
X144282317Y-76953547D01*
X144184769Y-77136043D01*
X144124699Y-77334067D01*
X144104417Y-77540000D01*
X143675583Y-77540000D01*
X143655300Y-77334066D01*
X143595232Y-77136046D01*
X143497685Y-76953550D01*
X143437605Y-76880342D01*
X143366410Y-76793589D01*
X143216121Y-76670252D01*
X143206450Y-76662315D01*
X143023954Y-76564768D01*
X142825934Y-76504700D01*
X142825932Y-76504699D01*
X142825934Y-76504699D01*
X142620000Y-76484417D01*
X142414067Y-76504699D01*
X142216043Y-76564769D01*
X142105898Y-76623643D01*
X142033550Y-76662315D01*
X142033548Y-76662316D01*
X142033547Y-76662317D01*
X141873589Y-76793589D01*
X141742317Y-76953547D01*
X141644769Y-77136043D01*
X141584699Y-77334067D01*
X141564417Y-77540000D01*
X141135583Y-77540000D01*
X141115300Y-77334066D01*
X141055232Y-77136046D01*
X140957685Y-76953550D01*
X140897605Y-76880342D01*
X140826410Y-76793589D01*
X140676121Y-76670252D01*
X140666450Y-76662315D01*
X140483954Y-76564768D01*
X140285934Y-76504700D01*
X140285932Y-76504699D01*
X140285934Y-76504699D01*
X140080000Y-76484417D01*
X139874067Y-76504699D01*
X139676043Y-76564769D01*
X139565898Y-76623643D01*
X139493550Y-76662315D01*
X139493548Y-76662316D01*
X139493547Y-76662317D01*
X139333589Y-76793589D01*
X139202317Y-76953547D01*
X139104769Y-77136043D01*
X139044699Y-77334067D01*
X139024417Y-77540000D01*
X120400500Y-77540000D01*
X120400500Y-77446535D01*
X120360130Y-77243580D01*
X120280941Y-77052402D01*
X120165977Y-76880345D01*
X120165975Y-76880342D01*
X120019657Y-76734024D01*
X119912336Y-76662315D01*
X119847598Y-76619059D01*
X119829998Y-76611769D01*
X119656420Y-76539870D01*
X119656412Y-76539868D01*
X119453469Y-76499500D01*
X119453465Y-76499500D01*
X118946535Y-76499500D01*
X118946530Y-76499500D01*
X118743587Y-76539868D01*
X118743579Y-76539870D01*
X118552403Y-76619058D01*
X118380342Y-76734024D01*
X118234024Y-76880342D01*
X118119058Y-77052403D01*
X118039870Y-77243579D01*
X118039868Y-77243587D01*
X117999500Y-77446530D01*
X110450500Y-77446530D01*
X110450500Y-74999997D01*
X132969196Y-74999997D01*
X132969196Y-75000002D01*
X132990279Y-75133121D01*
X132990280Y-75133124D01*
X132990281Y-75133126D01*
X133036817Y-75224457D01*
X133051473Y-75253221D01*
X133051476Y-75253225D01*
X133146774Y-75348523D01*
X133146778Y-75348526D01*
X133146780Y-75348528D01*
X133266874Y-75409719D01*
X133266876Y-75409719D01*
X133266878Y-75409720D01*
X133399998Y-75430804D01*
X133400000Y-75430804D01*
X133400002Y-75430804D01*
X133533121Y-75409720D01*
X133533121Y-75409719D01*
X133533126Y-75409719D01*
X133653220Y-75348528D01*
X133748528Y-75253220D01*
X133809719Y-75133126D01*
X133811011Y-75124971D01*
X133815421Y-75097128D01*
X133845350Y-75033993D01*
X133904661Y-74997061D01*
X133974523Y-74998059D01*
X134032756Y-75036668D01*
X134060367Y-75097127D01*
X134061511Y-75104353D01*
X134061512Y-75104356D01*
X134061513Y-75104358D01*
X134122704Y-75224452D01*
X134122705Y-75224453D01*
X134122708Y-75224457D01*
X134218006Y-75319755D01*
X134218010Y-75319758D01*
X134218012Y-75319760D01*
X134338106Y-75380951D01*
X134338108Y-75380951D01*
X134338110Y-75380952D01*
X134471230Y-75402036D01*
X134471232Y-75402036D01*
X134471234Y-75402036D01*
X134604353Y-75380952D01*
X134604353Y-75380951D01*
X134604358Y-75380951D01*
X134724452Y-75319760D01*
X134819760Y-75224452D01*
X134870449Y-75124968D01*
X134918421Y-75074175D01*
X134986242Y-75057379D01*
X135052377Y-75079916D01*
X135068613Y-75093584D01*
X135127627Y-75152598D01*
X135127631Y-75152601D01*
X135127633Y-75152603D01*
X135247727Y-75213794D01*
X135247729Y-75213794D01*
X135247731Y-75213795D01*
X135380851Y-75234879D01*
X135380853Y-75234879D01*
X135380855Y-75234879D01*
X135513974Y-75213795D01*
X135513974Y-75213794D01*
X135513979Y-75213794D01*
X135634073Y-75152603D01*
X135729381Y-75057295D01*
X135758574Y-75000000D01*
X139024417Y-75000000D01*
X139044699Y-75205932D01*
X139050319Y-75224457D01*
X139104768Y-75403954D01*
X139202315Y-75586450D01*
X139202317Y-75586452D01*
X139333589Y-75746410D01*
X139430209Y-75825702D01*
X139493550Y-75877685D01*
X139676046Y-75975232D01*
X139874066Y-76035300D01*
X139874065Y-76035300D01*
X139892529Y-76037118D01*
X140080000Y-76055583D01*
X140285934Y-76035300D01*
X140483954Y-75975232D01*
X140666450Y-75877685D01*
X140826410Y-75746410D01*
X140957685Y-75586450D01*
X141055232Y-75403954D01*
X141115300Y-75205934D01*
X141135583Y-75000000D01*
X141564417Y-75000000D01*
X141584699Y-75205932D01*
X141590319Y-75224457D01*
X141644768Y-75403954D01*
X141742315Y-75586450D01*
X141742317Y-75586452D01*
X141873589Y-75746410D01*
X141970209Y-75825702D01*
X142033550Y-75877685D01*
X142216046Y-75975232D01*
X142414066Y-76035300D01*
X142414065Y-76035300D01*
X142432529Y-76037118D01*
X142620000Y-76055583D01*
X142825934Y-76035300D01*
X143023954Y-75975232D01*
X143206450Y-75877685D01*
X143366410Y-75746410D01*
X143497685Y-75586450D01*
X143595232Y-75403954D01*
X143655300Y-75205934D01*
X143675583Y-75000000D01*
X144104417Y-75000000D01*
X144124699Y-75205932D01*
X144130319Y-75224457D01*
X144184768Y-75403954D01*
X144282315Y-75586450D01*
X144282317Y-75586452D01*
X144413589Y-75746410D01*
X144510209Y-75825702D01*
X144573550Y-75877685D01*
X144756046Y-75975232D01*
X144954066Y-76035300D01*
X144954065Y-76035300D01*
X144972529Y-76037118D01*
X145160000Y-76055583D01*
X145365934Y-76035300D01*
X145563954Y-75975232D01*
X145746450Y-75877685D01*
X145906410Y-75746410D01*
X146037685Y-75586450D01*
X146135232Y-75403954D01*
X146195300Y-75205934D01*
X146215583Y-75000000D01*
X146195300Y-74794066D01*
X146135232Y-74596046D01*
X146037685Y-74413550D01*
X145985702Y-74350209D01*
X145906410Y-74253589D01*
X145756121Y-74130252D01*
X145756115Y-74130247D01*
X146649500Y-74130247D01*
X146649500Y-75869752D01*
X146661131Y-75928229D01*
X146661132Y-75928230D01*
X146705447Y-75994552D01*
X146771769Y-76038867D01*
X146771770Y-76038868D01*
X146830247Y-76050499D01*
X146830250Y-76050500D01*
X146830252Y-76050500D01*
X148569750Y-76050500D01*
X148569751Y-76050499D01*
X148584568Y-76047552D01*
X148628229Y-76038868D01*
X148628229Y-76038867D01*
X148628231Y-76038867D01*
X148694552Y-75994552D01*
X148738867Y-75928231D01*
X148738867Y-75928229D01*
X148738868Y-75928229D01*
X148750499Y-75869752D01*
X148750500Y-75869750D01*
X148750500Y-74130249D01*
X148750499Y-74130247D01*
X148738868Y-74071770D01*
X148738867Y-74071769D01*
X148694552Y-74005447D01*
X148628230Y-73961132D01*
X148628229Y-73961131D01*
X148569752Y-73949500D01*
X148569748Y-73949500D01*
X146830252Y-73949500D01*
X146830247Y-73949500D01*
X146771770Y-73961131D01*
X146771769Y-73961132D01*
X146705447Y-74005447D01*
X146661132Y-74071769D01*
X146661131Y-74071770D01*
X146649500Y-74130247D01*
X145756115Y-74130247D01*
X145746450Y-74122315D01*
X145563954Y-74024768D01*
X145365934Y-73964700D01*
X145365932Y-73964699D01*
X145365934Y-73964699D01*
X145160000Y-73944417D01*
X144954067Y-73964699D01*
X144756043Y-74024769D01*
X144713813Y-74047342D01*
X144573550Y-74122315D01*
X144573548Y-74122316D01*
X144573547Y-74122317D01*
X144413589Y-74253589D01*
X144282317Y-74413547D01*
X144282315Y-74413550D01*
X144259865Y-74455551D01*
X144184769Y-74596043D01*
X144124699Y-74794067D01*
X144104417Y-75000000D01*
X143675583Y-75000000D01*
X143655300Y-74794066D01*
X143595232Y-74596046D01*
X143497685Y-74413550D01*
X143445702Y-74350209D01*
X143366410Y-74253589D01*
X143216121Y-74130252D01*
X143206450Y-74122315D01*
X143023954Y-74024768D01*
X142825934Y-73964700D01*
X142825932Y-73964699D01*
X142825934Y-73964699D01*
X142620000Y-73944417D01*
X142414067Y-73964699D01*
X142216043Y-74024769D01*
X142173813Y-74047342D01*
X142033550Y-74122315D01*
X142033548Y-74122316D01*
X142033547Y-74122317D01*
X141873589Y-74253589D01*
X141742317Y-74413547D01*
X141742315Y-74413550D01*
X141719865Y-74455551D01*
X141644769Y-74596043D01*
X141584699Y-74794067D01*
X141564417Y-75000000D01*
X141135583Y-75000000D01*
X141115300Y-74794066D01*
X141055232Y-74596046D01*
X140957685Y-74413550D01*
X140905702Y-74350209D01*
X140826410Y-74253589D01*
X140676121Y-74130252D01*
X140666450Y-74122315D01*
X140483954Y-74024768D01*
X140285934Y-73964700D01*
X140285932Y-73964699D01*
X140285934Y-73964699D01*
X140080000Y-73944417D01*
X139874067Y-73964699D01*
X139676043Y-74024769D01*
X139633813Y-74047342D01*
X139493550Y-74122315D01*
X139493548Y-74122316D01*
X139493547Y-74122317D01*
X139333589Y-74253589D01*
X139202317Y-74413547D01*
X139202315Y-74413550D01*
X139179865Y-74455551D01*
X139104769Y-74596043D01*
X139044699Y-74794067D01*
X139024417Y-75000000D01*
X135758574Y-75000000D01*
X135790572Y-74937201D01*
X135800565Y-74874106D01*
X135811657Y-74804077D01*
X135811657Y-74804072D01*
X135790573Y-74670953D01*
X135790572Y-74670951D01*
X135790572Y-74670949D01*
X135729381Y-74550855D01*
X135729379Y-74550853D01*
X135729376Y-74550849D01*
X135634078Y-74455551D01*
X135634074Y-74455548D01*
X135634073Y-74455547D01*
X135513979Y-74394356D01*
X135513977Y-74394355D01*
X135513974Y-74394354D01*
X135380855Y-74373271D01*
X135380851Y-74373271D01*
X135247731Y-74394354D01*
X135127631Y-74455548D01*
X135127627Y-74455551D01*
X135032329Y-74550849D01*
X135032327Y-74550853D01*
X135032325Y-74550855D01*
X134984496Y-74644724D01*
X134981637Y-74650336D01*
X134933662Y-74701132D01*
X134865841Y-74717927D01*
X134799706Y-74695389D01*
X134783471Y-74681722D01*
X134724457Y-74622708D01*
X134724453Y-74622705D01*
X134724452Y-74622704D01*
X134604358Y-74561513D01*
X134604356Y-74561512D01*
X134604353Y-74561511D01*
X134471234Y-74540428D01*
X134471230Y-74540428D01*
X134338110Y-74561511D01*
X134338106Y-74561512D01*
X134338106Y-74561513D01*
X134323027Y-74569196D01*
X134218010Y-74622705D01*
X134218006Y-74622708D01*
X134122708Y-74718006D01*
X134122705Y-74718010D01*
X134061511Y-74838109D01*
X134055810Y-74874106D01*
X134025879Y-74937240D01*
X133966567Y-74974170D01*
X133896705Y-74973172D01*
X133838473Y-74934561D01*
X133810863Y-74874098D01*
X133809719Y-74866874D01*
X133748528Y-74746780D01*
X133748526Y-74746778D01*
X133748523Y-74746774D01*
X133653225Y-74651476D01*
X133653221Y-74651473D01*
X133653220Y-74651472D01*
X133533126Y-74590281D01*
X133533124Y-74590280D01*
X133533121Y-74590279D01*
X133400002Y-74569196D01*
X133399998Y-74569196D01*
X133266878Y-74590279D01*
X133266874Y-74590280D01*
X133266874Y-74590281D01*
X133255560Y-74596046D01*
X133146778Y-74651473D01*
X133146774Y-74651476D01*
X133051476Y-74746774D01*
X133051473Y-74746778D01*
X132990279Y-74866878D01*
X132969196Y-74999997D01*
X110450500Y-74999997D01*
X110450500Y-74099997D01*
X130119196Y-74099997D01*
X130119196Y-74100002D01*
X130140279Y-74233121D01*
X130140280Y-74233124D01*
X130140281Y-74233126D01*
X130153147Y-74258376D01*
X130201473Y-74353221D01*
X130201476Y-74353225D01*
X130296774Y-74448523D01*
X130296778Y-74448526D01*
X130296780Y-74448528D01*
X130416874Y-74509719D01*
X130416876Y-74509719D01*
X130416878Y-74509720D01*
X130549998Y-74530804D01*
X130550000Y-74530804D01*
X130550002Y-74530804D01*
X130679440Y-74510303D01*
X130748734Y-74519258D01*
X130802185Y-74564254D01*
X130821311Y-74613376D01*
X130826275Y-74644720D01*
X130826276Y-74644723D01*
X130826277Y-74644724D01*
X130878277Y-74746780D01*
X130887469Y-74764819D01*
X130887472Y-74764823D01*
X130982770Y-74860121D01*
X130982774Y-74860124D01*
X130982776Y-74860126D01*
X131102870Y-74921317D01*
X131102872Y-74921317D01*
X131102874Y-74921318D01*
X131235994Y-74942402D01*
X131235996Y-74942402D01*
X131235998Y-74942402D01*
X131369117Y-74921318D01*
X131369117Y-74921317D01*
X131369122Y-74921317D01*
X131489216Y-74860126D01*
X131584524Y-74764818D01*
X131645715Y-74644724D01*
X131649202Y-74622708D01*
X131666800Y-74511600D01*
X131666800Y-74511595D01*
X131645716Y-74378476D01*
X131645715Y-74378474D01*
X131645715Y-74378472D01*
X131584524Y-74258378D01*
X131584522Y-74258376D01*
X131584519Y-74258372D01*
X131489221Y-74163074D01*
X131489217Y-74163071D01*
X131489216Y-74163070D01*
X131369122Y-74101879D01*
X131369120Y-74101878D01*
X131369117Y-74101877D01*
X131235998Y-74080794D01*
X131235996Y-74080794D01*
X131186649Y-74088609D01*
X131106554Y-74101295D01*
X131037261Y-74092339D01*
X130983809Y-74047342D01*
X130964684Y-73998218D01*
X130959720Y-73966878D01*
X130959719Y-73966876D01*
X130959719Y-73966874D01*
X130898528Y-73846780D01*
X130898526Y-73846778D01*
X130898523Y-73846774D01*
X130803225Y-73751476D01*
X130803221Y-73751473D01*
X130803220Y-73751472D01*
X130683126Y-73690281D01*
X130683124Y-73690280D01*
X130683121Y-73690279D01*
X130550002Y-73669196D01*
X130549998Y-73669196D01*
X130416878Y-73690279D01*
X130296778Y-73751473D01*
X130296774Y-73751476D01*
X130201476Y-73846774D01*
X130201473Y-73846778D01*
X130140279Y-73966878D01*
X130119196Y-74099997D01*
X110450500Y-74099997D01*
X110450500Y-67830247D01*
X113769500Y-67830247D01*
X113769500Y-70369752D01*
X113781131Y-70428229D01*
X113781132Y-70428230D01*
X113825447Y-70494552D01*
X113891769Y-70538867D01*
X113891770Y-70538868D01*
X113950247Y-70550499D01*
X113950250Y-70550500D01*
X113950252Y-70550500D01*
X115689750Y-70550500D01*
X115689751Y-70550499D01*
X115704568Y-70547552D01*
X115748229Y-70538868D01*
X115748229Y-70538867D01*
X115748231Y-70538867D01*
X115814552Y-70494552D01*
X115858867Y-70428231D01*
X115858867Y-70428229D01*
X115858868Y-70428229D01*
X115870499Y-70369752D01*
X115870500Y-70369750D01*
X115870500Y-68596530D01*
X118849500Y-68596530D01*
X118849500Y-69603469D01*
X118889868Y-69806412D01*
X118889870Y-69806420D01*
X118969058Y-69997596D01*
X119084024Y-70169657D01*
X119230342Y-70315975D01*
X119230345Y-70315977D01*
X119402402Y-70430941D01*
X119593580Y-70510130D01*
X119738052Y-70538867D01*
X119796530Y-70550499D01*
X119796534Y-70550500D01*
X119796535Y-70550500D01*
X120003466Y-70550500D01*
X120003467Y-70550499D01*
X120206420Y-70510130D01*
X120397598Y-70430941D01*
X120569655Y-70315977D01*
X120585635Y-70299997D01*
X136569196Y-70299997D01*
X136569196Y-70300002D01*
X136590279Y-70433121D01*
X136590280Y-70433124D01*
X136590281Y-70433126D01*
X136651472Y-70553220D01*
X136651473Y-70553221D01*
X136651476Y-70553225D01*
X136660570Y-70562319D01*
X136694055Y-70623642D01*
X136689071Y-70693334D01*
X136660570Y-70737681D01*
X136651476Y-70746774D01*
X136651473Y-70746778D01*
X136590279Y-70866878D01*
X136569196Y-70999997D01*
X136569196Y-71000002D01*
X136590279Y-71133121D01*
X136590280Y-71133124D01*
X136590281Y-71133126D01*
X136651472Y-71253220D01*
X136651473Y-71253221D01*
X136651476Y-71253225D01*
X136660570Y-71262319D01*
X136694055Y-71323642D01*
X136689071Y-71393334D01*
X136660570Y-71437681D01*
X136651476Y-71446774D01*
X136651473Y-71446778D01*
X136590279Y-71566878D01*
X136569196Y-71699997D01*
X136569196Y-71700002D01*
X136590279Y-71833121D01*
X136590280Y-71833124D01*
X136590281Y-71833126D01*
X136651472Y-71953220D01*
X136651473Y-71953221D01*
X136651476Y-71953225D01*
X136660570Y-71962319D01*
X136694055Y-72023642D01*
X136689071Y-72093334D01*
X136660570Y-72137681D01*
X136651476Y-72146774D01*
X136651473Y-72146778D01*
X136590279Y-72266878D01*
X136569196Y-72399997D01*
X136569196Y-72400002D01*
X136590279Y-72533121D01*
X136590280Y-72533124D01*
X136590281Y-72533126D01*
X136651472Y-72653220D01*
X136651473Y-72653221D01*
X136651476Y-72653225D01*
X136660570Y-72662319D01*
X136694055Y-72723642D01*
X136689071Y-72793334D01*
X136660570Y-72837681D01*
X136651476Y-72846774D01*
X136651473Y-72846778D01*
X136590279Y-72966878D01*
X136569196Y-73099997D01*
X136569196Y-73100002D01*
X136590279Y-73233121D01*
X136590280Y-73233124D01*
X136590281Y-73233126D01*
X136651472Y-73353220D01*
X136651473Y-73353221D01*
X136651476Y-73353225D01*
X136746774Y-73448523D01*
X136746778Y-73448526D01*
X136746780Y-73448528D01*
X136866874Y-73509719D01*
X136866876Y-73509719D01*
X136866878Y-73509720D01*
X136999998Y-73530804D01*
X137000000Y-73530804D01*
X137000002Y-73530804D01*
X137133121Y-73509720D01*
X137133121Y-73509719D01*
X137133126Y-73509719D01*
X137253220Y-73448528D01*
X137348528Y-73353220D01*
X137409719Y-73233126D01*
X137430804Y-73100000D01*
X137409719Y-72966874D01*
X137348528Y-72846780D01*
X137339429Y-72837681D01*
X137305945Y-72776362D01*
X137310927Y-72706670D01*
X137339429Y-72662318D01*
X137348528Y-72653220D01*
X137409719Y-72533126D01*
X137430804Y-72400000D01*
X137409719Y-72266874D01*
X137348528Y-72146780D01*
X137339429Y-72137681D01*
X137305945Y-72076362D01*
X137310927Y-72006670D01*
X137339429Y-71962318D01*
X137348528Y-71953220D01*
X137409719Y-71833126D01*
X137430804Y-71700000D01*
X137409719Y-71566874D01*
X137348528Y-71446780D01*
X137339429Y-71437681D01*
X137305945Y-71376362D01*
X137310927Y-71306670D01*
X137339429Y-71262318D01*
X137348528Y-71253220D01*
X137409719Y-71133126D01*
X137430804Y-71000000D01*
X137409719Y-70866874D01*
X137348528Y-70746780D01*
X137339429Y-70737681D01*
X137305945Y-70676362D01*
X137310927Y-70606670D01*
X137339429Y-70562318D01*
X137348528Y-70553220D01*
X137409719Y-70433126D01*
X137410065Y-70430941D01*
X137430804Y-70300002D01*
X137430804Y-70299997D01*
X137409720Y-70166878D01*
X137409719Y-70166876D01*
X137409719Y-70166874D01*
X137348528Y-70046780D01*
X137348526Y-70046778D01*
X137348523Y-70046774D01*
X137253225Y-69951476D01*
X137253221Y-69951473D01*
X137253220Y-69951472D01*
X137133126Y-69890281D01*
X137133124Y-69890280D01*
X137133121Y-69890279D01*
X137000002Y-69869196D01*
X136999998Y-69869196D01*
X136866878Y-69890279D01*
X136746778Y-69951473D01*
X136746774Y-69951476D01*
X136651476Y-70046774D01*
X136651473Y-70046778D01*
X136590279Y-70166878D01*
X136569196Y-70299997D01*
X120585635Y-70299997D01*
X120715977Y-70169655D01*
X120830941Y-69997598D01*
X120910130Y-69806420D01*
X120950500Y-69603465D01*
X120950500Y-68596535D01*
X120911406Y-68399997D01*
X126469196Y-68399997D01*
X126469196Y-68400002D01*
X126490279Y-68533121D01*
X126490280Y-68533124D01*
X126490281Y-68533126D01*
X126551472Y-68653220D01*
X126551473Y-68653221D01*
X126551476Y-68653225D01*
X126646778Y-68748527D01*
X126648369Y-68749683D01*
X126649834Y-68751583D01*
X126653680Y-68755429D01*
X126653182Y-68755926D01*
X126691034Y-68805013D01*
X126697012Y-68874627D01*
X126664405Y-68936421D01*
X126648369Y-68950317D01*
X126646778Y-68951472D01*
X126551476Y-69046774D01*
X126551473Y-69046778D01*
X126551472Y-69046780D01*
X126525878Y-69097012D01*
X126490279Y-69166878D01*
X126469196Y-69299997D01*
X126469196Y-69300002D01*
X126490279Y-69433121D01*
X126490280Y-69433124D01*
X126490281Y-69433126D01*
X126551472Y-69553220D01*
X126551473Y-69553221D01*
X126551476Y-69553225D01*
X126646774Y-69648523D01*
X126646778Y-69648526D01*
X126646780Y-69648528D01*
X126766874Y-69709719D01*
X126766876Y-69709719D01*
X126766878Y-69709720D01*
X126899998Y-69730804D01*
X126900000Y-69730804D01*
X126900002Y-69730804D01*
X127033121Y-69709720D01*
X127033121Y-69709719D01*
X127033126Y-69709719D01*
X127153220Y-69648528D01*
X127248528Y-69553220D01*
X127248531Y-69553213D01*
X127249679Y-69551635D01*
X127251579Y-69550169D01*
X127255429Y-69546320D01*
X127255926Y-69546817D01*
X127305008Y-69508968D01*
X127374621Y-69502986D01*
X127436417Y-69535589D01*
X127450321Y-69551635D01*
X127451476Y-69553225D01*
X127546774Y-69648523D01*
X127546778Y-69648526D01*
X127546780Y-69648528D01*
X127666874Y-69709719D01*
X127666876Y-69709719D01*
X127666878Y-69709720D01*
X127799998Y-69730804D01*
X127800000Y-69730804D01*
X127800002Y-69730804D01*
X127933121Y-69709720D01*
X127933121Y-69709719D01*
X127933126Y-69709719D01*
X128053220Y-69648528D01*
X128148528Y-69553220D01*
X128148531Y-69553213D01*
X128149679Y-69551635D01*
X128151579Y-69550169D01*
X128155429Y-69546320D01*
X128155926Y-69546817D01*
X128205008Y-69508968D01*
X128274621Y-69502986D01*
X128336417Y-69535589D01*
X128350321Y-69551635D01*
X128351476Y-69553225D01*
X128446774Y-69648523D01*
X128446778Y-69648526D01*
X128446780Y-69648528D01*
X128566874Y-69709719D01*
X128566876Y-69709719D01*
X128566878Y-69709720D01*
X128699998Y-69730804D01*
X128700000Y-69730804D01*
X128700002Y-69730804D01*
X128763645Y-69720723D01*
X128829444Y-69710302D01*
X128898736Y-69719256D01*
X128952188Y-69764252D01*
X128971314Y-69813377D01*
X128990279Y-69933121D01*
X128990280Y-69933124D01*
X128990281Y-69933126D01*
X129048188Y-70046774D01*
X129051473Y-70053221D01*
X129051476Y-70053225D01*
X129146774Y-70148523D01*
X129146778Y-70148526D01*
X129146780Y-70148528D01*
X129266874Y-70209719D01*
X129266876Y-70209719D01*
X129266878Y-70209720D01*
X129399998Y-70230804D01*
X129400000Y-70230804D01*
X129400002Y-70230804D01*
X129533121Y-70209720D01*
X129533121Y-70209719D01*
X129533126Y-70209719D01*
X129653220Y-70148528D01*
X129748528Y-70053220D01*
X129809719Y-69933126D01*
X129816505Y-69890281D01*
X129830804Y-69800002D01*
X129830804Y-69799997D01*
X129809720Y-69666878D01*
X129809719Y-69666876D01*
X129809719Y-69666874D01*
X129748528Y-69546780D01*
X129748526Y-69546778D01*
X129748523Y-69546774D01*
X129653225Y-69451476D01*
X129653221Y-69451473D01*
X129653220Y-69451472D01*
X129533126Y-69390281D01*
X129533124Y-69390280D01*
X129533121Y-69390279D01*
X129400002Y-69369196D01*
X129399997Y-69369196D01*
X129270555Y-69389697D01*
X129201262Y-69380742D01*
X129147810Y-69335746D01*
X129128685Y-69286621D01*
X129109720Y-69166878D01*
X129109719Y-69166876D01*
X129109719Y-69166874D01*
X129048528Y-69046780D01*
X129048526Y-69046778D01*
X129048523Y-69046774D01*
X128953225Y-68951476D01*
X128953221Y-68951473D01*
X128953220Y-68951472D01*
X128953218Y-68951471D01*
X128951635Y-68950321D01*
X128950169Y-68948420D01*
X128946320Y-68944571D01*
X128946817Y-68944073D01*
X128908968Y-68894992D01*
X128902986Y-68825379D01*
X128935589Y-68763583D01*
X128951635Y-68749679D01*
X128953213Y-68748531D01*
X128953220Y-68748528D01*
X129048528Y-68653220D01*
X129109719Y-68533126D01*
X129109720Y-68533121D01*
X129130804Y-68400002D01*
X129130804Y-68399997D01*
X129109720Y-68266878D01*
X129109719Y-68266876D01*
X129109719Y-68266874D01*
X129048528Y-68146780D01*
X129039429Y-68137681D01*
X129005945Y-68076362D01*
X129010927Y-68006670D01*
X129039429Y-67962318D01*
X129048528Y-67953220D01*
X129109719Y-67833126D01*
X129119866Y-67769059D01*
X129122885Y-67749997D01*
X130069196Y-67749997D01*
X130069196Y-67750002D01*
X130090279Y-67883121D01*
X130090280Y-67883124D01*
X130090281Y-67883126D01*
X130151472Y-68003220D01*
X130151473Y-68003221D01*
X130151476Y-68003225D01*
X130235571Y-68087320D01*
X130269056Y-68148643D01*
X130264072Y-68218335D01*
X130235571Y-68262682D01*
X130151477Y-68346775D01*
X130151474Y-68346779D01*
X130090280Y-68466879D01*
X130069197Y-68599998D01*
X130069197Y-68600003D01*
X130090280Y-68733122D01*
X130090281Y-68733125D01*
X130090282Y-68733127D01*
X130126910Y-68805013D01*
X130151474Y-68853222D01*
X130151477Y-68853226D01*
X130246775Y-68948524D01*
X130246779Y-68948527D01*
X130246781Y-68948529D01*
X130366875Y-69009720D01*
X130366877Y-69009720D01*
X130366879Y-69009721D01*
X130499999Y-69030805D01*
X130500001Y-69030805D01*
X130500003Y-69030805D01*
X130633122Y-69009721D01*
X130633122Y-69009720D01*
X130633127Y-69009720D01*
X130753221Y-68948529D01*
X130848529Y-68853221D01*
X130909720Y-68733127D01*
X130923469Y-68646320D01*
X130930805Y-68600003D01*
X130930805Y-68599998D01*
X130909721Y-68466879D01*
X130909720Y-68466877D01*
X130909720Y-68466875D01*
X130848529Y-68346781D01*
X130848527Y-68346779D01*
X130848524Y-68346775D01*
X130764430Y-68262681D01*
X130730945Y-68201358D01*
X130735929Y-68131666D01*
X130764430Y-68087319D01*
X130848523Y-68003225D01*
X130848528Y-68003220D01*
X130909719Y-67883126D01*
X130917639Y-67833121D01*
X130930804Y-67750002D01*
X130930804Y-67749997D01*
X130909720Y-67616878D01*
X130909719Y-67616876D01*
X130909719Y-67616874D01*
X130848528Y-67496780D01*
X130848526Y-67496778D01*
X130848523Y-67496774D01*
X130753225Y-67401476D01*
X130753221Y-67401473D01*
X130753220Y-67401472D01*
X130633126Y-67340281D01*
X130633124Y-67340280D01*
X130633121Y-67340279D01*
X130500002Y-67319196D01*
X130499998Y-67319196D01*
X130366878Y-67340279D01*
X130366874Y-67340280D01*
X130366874Y-67340281D01*
X130344903Y-67351476D01*
X130246778Y-67401473D01*
X130246774Y-67401476D01*
X130151476Y-67496774D01*
X130151473Y-67496778D01*
X130090279Y-67616878D01*
X130069196Y-67749997D01*
X129122885Y-67749997D01*
X129130804Y-67700002D01*
X129130804Y-67699997D01*
X129109720Y-67566878D01*
X129109719Y-67566876D01*
X129109719Y-67566874D01*
X129048528Y-67446780D01*
X129048526Y-67446778D01*
X129048523Y-67446774D01*
X128953225Y-67351476D01*
X128953221Y-67351473D01*
X128953220Y-67351472D01*
X128833126Y-67290281D01*
X128833124Y-67290280D01*
X128833121Y-67290279D01*
X128700002Y-67269196D01*
X128699998Y-67269196D01*
X128566878Y-67290279D01*
X128446778Y-67351473D01*
X128446774Y-67351476D01*
X128351476Y-67446774D01*
X128351473Y-67446778D01*
X128290279Y-67566878D01*
X128269196Y-67699997D01*
X128269196Y-67700002D01*
X128290279Y-67833121D01*
X128290280Y-67833124D01*
X128290281Y-67833126D01*
X128316215Y-67884024D01*
X128351473Y-67953221D01*
X128351476Y-67953225D01*
X128360570Y-67962319D01*
X128394055Y-68023642D01*
X128389071Y-68093334D01*
X128360570Y-68137681D01*
X128351472Y-68146778D01*
X128350317Y-68148369D01*
X128348416Y-68149834D01*
X128344571Y-68153680D01*
X128344073Y-68153182D01*
X128294987Y-68191034D01*
X128225373Y-68197012D01*
X128163579Y-68164405D01*
X128149683Y-68148369D01*
X128148527Y-68146778D01*
X128053225Y-68051476D01*
X128053221Y-68051473D01*
X128053220Y-68051472D01*
X127933126Y-67990281D01*
X127933124Y-67990280D01*
X127933121Y-67990279D01*
X127800002Y-67969196D01*
X127799998Y-67969196D01*
X127666878Y-67990279D01*
X127546778Y-68051473D01*
X127546774Y-68051476D01*
X127451472Y-68146778D01*
X127450317Y-68148369D01*
X127448416Y-68149834D01*
X127444571Y-68153680D01*
X127444073Y-68153182D01*
X127394987Y-68191034D01*
X127325373Y-68197012D01*
X127263579Y-68164405D01*
X127249683Y-68148369D01*
X127248527Y-68146778D01*
X127153225Y-68051476D01*
X127153221Y-68051473D01*
X127153220Y-68051472D01*
X127033126Y-67990281D01*
X127033124Y-67990280D01*
X127033121Y-67990279D01*
X126900002Y-67969196D01*
X126899998Y-67969196D01*
X126766878Y-67990279D01*
X126646778Y-68051473D01*
X126646774Y-68051476D01*
X126551476Y-68146774D01*
X126551473Y-68146778D01*
X126551472Y-68146780D01*
X126525878Y-68197012D01*
X126490279Y-68266878D01*
X126469196Y-68399997D01*
X120911406Y-68399997D01*
X120910130Y-68393580D01*
X120830941Y-68202402D01*
X120715977Y-68030345D01*
X120715975Y-68030342D01*
X120569657Y-67884024D01*
X120401655Y-67771770D01*
X120397598Y-67769059D01*
X120206420Y-67689870D01*
X120206412Y-67689868D01*
X120003469Y-67649500D01*
X120003465Y-67649500D01*
X119796535Y-67649500D01*
X119796530Y-67649500D01*
X119593587Y-67689868D01*
X119593579Y-67689870D01*
X119402403Y-67769058D01*
X119230342Y-67884024D01*
X119084024Y-68030342D01*
X118969058Y-68202403D01*
X118889870Y-68393579D01*
X118889868Y-68393587D01*
X118849500Y-68596530D01*
X115870500Y-68596530D01*
X115870500Y-67830249D01*
X115870499Y-67830247D01*
X115858868Y-67771770D01*
X115858867Y-67771769D01*
X115814552Y-67705447D01*
X115748230Y-67661132D01*
X115748229Y-67661131D01*
X115689752Y-67649500D01*
X115689748Y-67649500D01*
X113950252Y-67649500D01*
X113950247Y-67649500D01*
X113891770Y-67661131D01*
X113891769Y-67661132D01*
X113825447Y-67705447D01*
X113781132Y-67771769D01*
X113781131Y-67771770D01*
X113769500Y-67830247D01*
X110450500Y-67830247D01*
X110450500Y-64549997D01*
X119669196Y-64549997D01*
X119669196Y-64550002D01*
X119690279Y-64683121D01*
X119690280Y-64683124D01*
X119690281Y-64683126D01*
X119747835Y-64796082D01*
X119751473Y-64803221D01*
X119751476Y-64803225D01*
X119846774Y-64898523D01*
X119846778Y-64898526D01*
X119846780Y-64898528D01*
X119966874Y-64959719D01*
X119966876Y-64959719D01*
X119966878Y-64959720D01*
X120099998Y-64980804D01*
X120100000Y-64980804D01*
X120100002Y-64980804D01*
X120233121Y-64959720D01*
X120233121Y-64959719D01*
X120233126Y-64959719D01*
X120353220Y-64898528D01*
X120448528Y-64803220D01*
X120487458Y-64726815D01*
X130519196Y-64726815D01*
X130519196Y-64726820D01*
X130540279Y-64859939D01*
X130540280Y-64859942D01*
X130540281Y-64859944D01*
X130599830Y-64976815D01*
X130601473Y-64980039D01*
X130601476Y-64980043D01*
X130696774Y-65075341D01*
X130696778Y-65075344D01*
X130696780Y-65075346D01*
X130816874Y-65136537D01*
X130816876Y-65136537D01*
X130816878Y-65136538D01*
X130949998Y-65157622D01*
X130950000Y-65157622D01*
X130950002Y-65157622D01*
X131090490Y-65135371D01*
X131159784Y-65144326D01*
X131213236Y-65189322D01*
X131233875Y-65256073D01*
X131232362Y-65277240D01*
X131225490Y-65320633D01*
X131224744Y-65325341D01*
X131245827Y-65458460D01*
X131245828Y-65458463D01*
X131245829Y-65458465D01*
X131307020Y-65578559D01*
X131307021Y-65578560D01*
X131307024Y-65578564D01*
X131402322Y-65673862D01*
X131402326Y-65673865D01*
X131402328Y-65673867D01*
X131522422Y-65735058D01*
X131522424Y-65735058D01*
X131522426Y-65735059D01*
X131655546Y-65756143D01*
X131655548Y-65756143D01*
X131655550Y-65756143D01*
X131788669Y-65735059D01*
X131788669Y-65735058D01*
X131788674Y-65735058D01*
X131908768Y-65673867D01*
X132004076Y-65578559D01*
X132004077Y-65578556D01*
X132005509Y-65577125D01*
X132066832Y-65543640D01*
X132136524Y-65548624D01*
X132192458Y-65590495D01*
X132203676Y-65608512D01*
X132222553Y-65645561D01*
X132222558Y-65645568D01*
X132317856Y-65740866D01*
X132317860Y-65740869D01*
X132317862Y-65740871D01*
X132437956Y-65802062D01*
X132437958Y-65802062D01*
X132437960Y-65802063D01*
X132571080Y-65823147D01*
X132571082Y-65823147D01*
X132571084Y-65823147D01*
X132704203Y-65802063D01*
X132704203Y-65802062D01*
X132704208Y-65802062D01*
X132824302Y-65740871D01*
X132919610Y-65645563D01*
X132919613Y-65645556D01*
X132925343Y-65637671D01*
X132927223Y-65639037D01*
X132965876Y-65598106D01*
X133033695Y-65581305D01*
X133099832Y-65603837D01*
X133137823Y-65651668D01*
X133139503Y-65650813D01*
X133143932Y-65659506D01*
X133143933Y-65659509D01*
X133190523Y-65750946D01*
X133205125Y-65779604D01*
X133205128Y-65779608D01*
X133300426Y-65874906D01*
X133300430Y-65874909D01*
X133300432Y-65874911D01*
X133420526Y-65936102D01*
X133420528Y-65936102D01*
X133420530Y-65936103D01*
X133553650Y-65957187D01*
X133553652Y-65957187D01*
X133553654Y-65957187D01*
X133686773Y-65936103D01*
X133686773Y-65936102D01*
X133686778Y-65936102D01*
X133806872Y-65874911D01*
X133902180Y-65779603D01*
X133902181Y-65779600D01*
X133902335Y-65779447D01*
X133963658Y-65745962D01*
X134033350Y-65750946D01*
X134077698Y-65779447D01*
X134096774Y-65798523D01*
X134096778Y-65798526D01*
X134096780Y-65798528D01*
X134216874Y-65859719D01*
X134216876Y-65859719D01*
X134216878Y-65859720D01*
X134349998Y-65880804D01*
X134350000Y-65880804D01*
X134350002Y-65880804D01*
X134483121Y-65859720D01*
X134483121Y-65859719D01*
X134483126Y-65859719D01*
X134603220Y-65798528D01*
X134698528Y-65703220D01*
X134759719Y-65583126D01*
X134759720Y-65583121D01*
X134780804Y-65450002D01*
X134780804Y-65449997D01*
X134759720Y-65316878D01*
X134759719Y-65316876D01*
X134759719Y-65316874D01*
X134698528Y-65196780D01*
X134698526Y-65196778D01*
X134698523Y-65196774D01*
X134603225Y-65101476D01*
X134603221Y-65101473D01*
X134603220Y-65101472D01*
X134483126Y-65040281D01*
X134483124Y-65040280D01*
X134483121Y-65040279D01*
X134350002Y-65019196D01*
X134349998Y-65019196D01*
X134216878Y-65040279D01*
X134096778Y-65101473D01*
X134001315Y-65196936D01*
X133939992Y-65230420D01*
X133870300Y-65225436D01*
X133825953Y-65196935D01*
X133806877Y-65177859D01*
X133806873Y-65177856D01*
X133806872Y-65177855D01*
X133686778Y-65116664D01*
X133686776Y-65116663D01*
X133686773Y-65116662D01*
X133553654Y-65095579D01*
X133553650Y-65095579D01*
X133420530Y-65116662D01*
X133420526Y-65116663D01*
X133420526Y-65116664D01*
X133381523Y-65136537D01*
X133300430Y-65177856D01*
X133300426Y-65177859D01*
X133205128Y-65273157D01*
X133199391Y-65281055D01*
X133197512Y-65279690D01*
X133158833Y-65320633D01*
X133091010Y-65337418D01*
X133024878Y-65314872D01*
X132986915Y-65267054D01*
X132985231Y-65267913D01*
X132980801Y-65259219D01*
X132980801Y-65259217D01*
X132919610Y-65139123D01*
X132919608Y-65139121D01*
X132919605Y-65139117D01*
X132824307Y-65043819D01*
X132824303Y-65043816D01*
X132824302Y-65043815D01*
X132704208Y-64982624D01*
X132704206Y-64982623D01*
X132704203Y-64982622D01*
X132571084Y-64961539D01*
X132571080Y-64961539D01*
X132437960Y-64982622D01*
X132317860Y-65043816D01*
X132221119Y-65140557D01*
X132159796Y-65174041D01*
X132090104Y-65169057D01*
X132034171Y-65127185D01*
X132022959Y-65109180D01*
X132004076Y-65072119D01*
X132004074Y-65072117D01*
X132004071Y-65072113D01*
X131908773Y-64976815D01*
X131908769Y-64976812D01*
X131908768Y-64976811D01*
X131788674Y-64915620D01*
X131788672Y-64915619D01*
X131788669Y-64915618D01*
X131655550Y-64894535D01*
X131655548Y-64894535D01*
X131609751Y-64901788D01*
X131515056Y-64916786D01*
X131445763Y-64907830D01*
X131392311Y-64862833D01*
X131371672Y-64796082D01*
X131373185Y-64774919D01*
X131380804Y-64726818D01*
X131376323Y-64698528D01*
X131359720Y-64593696D01*
X131359719Y-64593694D01*
X131359719Y-64593692D01*
X131298528Y-64473598D01*
X131298526Y-64473596D01*
X131298523Y-64473592D01*
X131203225Y-64378294D01*
X131203221Y-64378291D01*
X131203220Y-64378290D01*
X131147692Y-64349997D01*
X141819196Y-64349997D01*
X141819196Y-64350002D01*
X141840279Y-64483121D01*
X141840280Y-64483124D01*
X141840281Y-64483126D01*
X141901472Y-64603220D01*
X141901473Y-64603221D01*
X141901476Y-64603225D01*
X141996774Y-64698523D01*
X141996778Y-64698526D01*
X141996780Y-64698528D01*
X142116874Y-64759719D01*
X142116876Y-64759719D01*
X142116878Y-64759720D01*
X142249998Y-64780804D01*
X142250000Y-64780804D01*
X142250002Y-64780804D01*
X142383121Y-64759720D01*
X142383121Y-64759719D01*
X142383126Y-64759719D01*
X142503220Y-64698528D01*
X142598528Y-64603220D01*
X142659719Y-64483126D01*
X142661228Y-64473598D01*
X142680804Y-64350002D01*
X142680804Y-64349997D01*
X142659720Y-64216878D01*
X142659719Y-64216876D01*
X142659719Y-64216874D01*
X142598528Y-64096780D01*
X142598526Y-64096778D01*
X142598523Y-64096774D01*
X142503225Y-64001476D01*
X142503221Y-64001473D01*
X142503220Y-64001472D01*
X142383126Y-63940281D01*
X142383124Y-63940280D01*
X142383121Y-63940279D01*
X142250002Y-63919196D01*
X142249998Y-63919196D01*
X142116878Y-63940279D01*
X141996778Y-64001473D01*
X141996774Y-64001476D01*
X141901476Y-64096774D01*
X141901473Y-64096778D01*
X141840279Y-64216878D01*
X141819196Y-64349997D01*
X131147692Y-64349997D01*
X131083126Y-64317099D01*
X131083124Y-64317098D01*
X131083121Y-64317097D01*
X130950002Y-64296014D01*
X130949998Y-64296014D01*
X130816878Y-64317097D01*
X130696778Y-64378291D01*
X130696774Y-64378294D01*
X130601476Y-64473592D01*
X130601473Y-64473596D01*
X130540279Y-64593696D01*
X130519196Y-64726815D01*
X120487458Y-64726815D01*
X120509719Y-64683126D01*
X120522375Y-64603220D01*
X120530804Y-64550002D01*
X120530804Y-64549997D01*
X120509720Y-64416878D01*
X120509719Y-64416876D01*
X120509719Y-64416874D01*
X120448528Y-64296780D01*
X120448526Y-64296778D01*
X120448523Y-64296774D01*
X120353225Y-64201476D01*
X120353221Y-64201473D01*
X120353220Y-64201472D01*
X120233126Y-64140281D01*
X120233124Y-64140280D01*
X120233121Y-64140279D01*
X120100002Y-64119196D01*
X120099998Y-64119196D01*
X119966878Y-64140279D01*
X119846778Y-64201473D01*
X119846774Y-64201476D01*
X119751476Y-64296774D01*
X119751473Y-64296778D01*
X119690279Y-64416878D01*
X119669196Y-64549997D01*
X110450500Y-64549997D01*
X110450500Y-62071530D01*
X115649500Y-62071530D01*
X115649500Y-62528469D01*
X115689868Y-62731412D01*
X115689870Y-62731420D01*
X115769058Y-62922596D01*
X115884024Y-63094657D01*
X116030342Y-63240975D01*
X116030345Y-63240977D01*
X116202402Y-63355941D01*
X116393580Y-63435130D01*
X116596530Y-63475499D01*
X116596534Y-63475500D01*
X116596535Y-63475500D01*
X116803466Y-63475500D01*
X116803467Y-63475499D01*
X117006420Y-63435130D01*
X117197598Y-63355941D01*
X117369655Y-63240977D01*
X117515977Y-63094655D01*
X117630941Y-62922598D01*
X117710130Y-62731420D01*
X117750500Y-62528465D01*
X117750500Y-62071535D01*
X117750499Y-62071530D01*
X118149500Y-62071530D01*
X118149500Y-62528469D01*
X118189868Y-62731412D01*
X118189870Y-62731420D01*
X118269058Y-62922596D01*
X118384024Y-63094657D01*
X118530342Y-63240975D01*
X118530345Y-63240977D01*
X118702402Y-63355941D01*
X118893580Y-63435130D01*
X119096530Y-63475499D01*
X119096534Y-63475500D01*
X119096535Y-63475500D01*
X119303466Y-63475500D01*
X119303467Y-63475499D01*
X119506420Y-63435130D01*
X119697598Y-63355941D01*
X119869655Y-63240977D01*
X120015977Y-63094655D01*
X120130941Y-62922598D01*
X120202435Y-62749997D01*
X125169196Y-62749997D01*
X125169196Y-62750002D01*
X125190279Y-62883121D01*
X125190280Y-62883124D01*
X125190281Y-62883126D01*
X125251472Y-63003220D01*
X125251473Y-63003221D01*
X125251476Y-63003225D01*
X125346774Y-63098523D01*
X125346778Y-63098526D01*
X125346780Y-63098528D01*
X125466874Y-63159719D01*
X125466876Y-63159719D01*
X125466878Y-63159720D01*
X125599998Y-63180804D01*
X125600000Y-63180804D01*
X125600002Y-63180804D01*
X125733121Y-63159720D01*
X125733121Y-63159719D01*
X125733126Y-63159719D01*
X125853220Y-63098528D01*
X125948528Y-63003220D01*
X126009719Y-62883126D01*
X126015200Y-62848523D01*
X126030804Y-62750002D01*
X126030804Y-62749997D01*
X126009720Y-62616878D01*
X126009719Y-62616876D01*
X126009719Y-62616874D01*
X125950167Y-62499997D01*
X135319196Y-62499997D01*
X135319196Y-62500002D01*
X135340279Y-62633121D01*
X135340280Y-62633124D01*
X135340281Y-62633126D01*
X135401472Y-62753220D01*
X135401473Y-62753221D01*
X135401476Y-62753225D01*
X135496774Y-62848523D01*
X135496778Y-62848526D01*
X135496780Y-62848528D01*
X135616874Y-62909719D01*
X135616876Y-62909719D01*
X135616878Y-62909720D01*
X135749998Y-62930804D01*
X135750000Y-62930804D01*
X135750002Y-62930804D01*
X135883121Y-62909720D01*
X135883121Y-62909719D01*
X135883126Y-62909719D01*
X136003220Y-62848528D01*
X136098528Y-62753220D01*
X136159719Y-62633126D01*
X136160087Y-62630804D01*
X136180804Y-62500002D01*
X136180804Y-62499997D01*
X136159720Y-62366878D01*
X136159719Y-62366876D01*
X136159719Y-62366874D01*
X136098528Y-62246780D01*
X136098526Y-62246778D01*
X136098523Y-62246774D01*
X136051746Y-62199997D01*
X149419196Y-62199997D01*
X149419196Y-62200002D01*
X149440279Y-62333121D01*
X149440280Y-62333124D01*
X149440281Y-62333126D01*
X149501472Y-62453220D01*
X149501473Y-62453221D01*
X149501476Y-62453225D01*
X149596774Y-62548523D01*
X149596778Y-62548526D01*
X149596780Y-62548528D01*
X149716874Y-62609719D01*
X149716876Y-62609719D01*
X149716878Y-62609720D01*
X149849998Y-62630804D01*
X149850000Y-62630804D01*
X149850002Y-62630804D01*
X149983121Y-62609720D01*
X149983121Y-62609719D01*
X149983126Y-62609719D01*
X150103220Y-62548528D01*
X150198528Y-62453220D01*
X150259719Y-62333126D01*
X150259720Y-62333121D01*
X150280804Y-62200002D01*
X150280804Y-62199997D01*
X150259720Y-62066878D01*
X150259719Y-62066876D01*
X150259719Y-62066874D01*
X150198528Y-61946780D01*
X150198526Y-61946778D01*
X150198523Y-61946774D01*
X150103225Y-61851476D01*
X150103221Y-61851473D01*
X150103220Y-61851472D01*
X149983126Y-61790281D01*
X149983124Y-61790280D01*
X149983121Y-61790279D01*
X149850002Y-61769196D01*
X149849998Y-61769196D01*
X149716878Y-61790279D01*
X149596778Y-61851473D01*
X149596774Y-61851476D01*
X149501476Y-61946774D01*
X149501473Y-61946778D01*
X149440279Y-62066878D01*
X149419196Y-62199997D01*
X136051746Y-62199997D01*
X136003225Y-62151476D01*
X136003221Y-62151473D01*
X136003220Y-62151472D01*
X135883126Y-62090281D01*
X135883124Y-62090280D01*
X135883121Y-62090279D01*
X135750002Y-62069196D01*
X135749998Y-62069196D01*
X135616878Y-62090279D01*
X135496778Y-62151473D01*
X135496774Y-62151476D01*
X135401476Y-62246774D01*
X135401473Y-62246778D01*
X135401472Y-62246780D01*
X135357477Y-62333126D01*
X135340279Y-62366878D01*
X135319196Y-62499997D01*
X125950167Y-62499997D01*
X125948528Y-62496780D01*
X125948526Y-62496778D01*
X125948523Y-62496774D01*
X125853225Y-62401476D01*
X125853221Y-62401473D01*
X125853220Y-62401472D01*
X125733126Y-62340281D01*
X125733124Y-62340280D01*
X125733121Y-62340279D01*
X125600002Y-62319196D01*
X125599998Y-62319196D01*
X125466878Y-62340279D01*
X125466874Y-62340280D01*
X125466874Y-62340281D01*
X125386811Y-62381075D01*
X125346778Y-62401473D01*
X125346774Y-62401476D01*
X125251476Y-62496774D01*
X125251473Y-62496778D01*
X125190279Y-62616878D01*
X125169196Y-62749997D01*
X120202435Y-62749997D01*
X120210130Y-62731420D01*
X120250500Y-62528465D01*
X120250500Y-62071535D01*
X120210130Y-61868580D01*
X120130941Y-61677402D01*
X120045812Y-61549997D01*
X140669196Y-61549997D01*
X140669196Y-61550002D01*
X140690279Y-61683121D01*
X140690280Y-61683124D01*
X140690281Y-61683126D01*
X140751472Y-61803220D01*
X140751473Y-61803221D01*
X140751476Y-61803225D01*
X140846774Y-61898523D01*
X140846778Y-61898526D01*
X140846780Y-61898528D01*
X140966874Y-61959719D01*
X140966876Y-61959719D01*
X140966878Y-61959720D01*
X141099998Y-61980804D01*
X141100000Y-61980804D01*
X141100002Y-61980804D01*
X141233121Y-61959720D01*
X141233121Y-61959719D01*
X141233126Y-61959719D01*
X141353220Y-61898528D01*
X141448528Y-61803220D01*
X141509719Y-61683126D01*
X141509720Y-61683121D01*
X141530804Y-61550002D01*
X141530804Y-61549997D01*
X141509720Y-61416878D01*
X141509719Y-61416876D01*
X141509719Y-61416874D01*
X141448528Y-61296780D01*
X141448526Y-61296778D01*
X141448523Y-61296774D01*
X141353225Y-61201476D01*
X141353221Y-61201473D01*
X141353220Y-61201472D01*
X141233126Y-61140281D01*
X141233124Y-61140280D01*
X141233121Y-61140279D01*
X141100002Y-61119196D01*
X141099998Y-61119196D01*
X140966878Y-61140279D01*
X140846778Y-61201473D01*
X140846774Y-61201476D01*
X140751476Y-61296774D01*
X140751473Y-61296778D01*
X140690279Y-61416878D01*
X140669196Y-61549997D01*
X120045812Y-61549997D01*
X120015977Y-61505345D01*
X120015975Y-61505342D01*
X119869657Y-61359024D01*
X119776492Y-61296774D01*
X119697598Y-61244059D01*
X119506420Y-61164870D01*
X119506412Y-61164868D01*
X119303469Y-61124500D01*
X119303465Y-61124500D01*
X119096535Y-61124500D01*
X119096530Y-61124500D01*
X118893587Y-61164868D01*
X118893579Y-61164870D01*
X118702403Y-61244058D01*
X118530342Y-61359024D01*
X118384024Y-61505342D01*
X118269058Y-61677403D01*
X118189870Y-61868579D01*
X118189868Y-61868587D01*
X118149500Y-62071530D01*
X117750499Y-62071530D01*
X117710130Y-61868580D01*
X117630941Y-61677402D01*
X117515977Y-61505345D01*
X117515975Y-61505342D01*
X117369657Y-61359024D01*
X117276492Y-61296774D01*
X117197598Y-61244059D01*
X117006420Y-61164870D01*
X117006412Y-61164868D01*
X116803469Y-61124500D01*
X116803465Y-61124500D01*
X116596535Y-61124500D01*
X116596530Y-61124500D01*
X116393587Y-61164868D01*
X116393579Y-61164870D01*
X116202403Y-61244058D01*
X116030342Y-61359024D01*
X115884024Y-61505342D01*
X115769058Y-61677403D01*
X115689870Y-61868579D01*
X115689868Y-61868587D01*
X115649500Y-62071530D01*
X110450500Y-62071530D01*
X110450500Y-60149997D01*
X130420130Y-60149997D01*
X130420130Y-60150002D01*
X130441213Y-60283121D01*
X130441214Y-60283124D01*
X130441215Y-60283126D01*
X130502406Y-60403220D01*
X130502407Y-60403221D01*
X130502410Y-60403225D01*
X130597708Y-60498523D01*
X130597712Y-60498526D01*
X130597714Y-60498528D01*
X130717808Y-60559719D01*
X130717810Y-60559719D01*
X130717812Y-60559720D01*
X130850932Y-60580804D01*
X130850934Y-60580804D01*
X130850936Y-60580804D01*
X130917497Y-60570261D01*
X130984060Y-60559719D01*
X130992778Y-60555277D01*
X131061447Y-60542380D01*
X131126187Y-60568656D01*
X131166445Y-60625762D01*
X131171546Y-60685156D01*
X131169197Y-60699997D01*
X131169196Y-60700002D01*
X131190279Y-60833121D01*
X131190280Y-60833124D01*
X131190281Y-60833126D01*
X131238360Y-60927486D01*
X131251473Y-60953221D01*
X131251476Y-60953225D01*
X131346774Y-61048523D01*
X131346778Y-61048526D01*
X131346780Y-61048528D01*
X131466874Y-61109719D01*
X131466876Y-61109719D01*
X131466878Y-61109720D01*
X131599998Y-61130804D01*
X131600000Y-61130804D01*
X131600002Y-61130804D01*
X131733121Y-61109720D01*
X131733121Y-61109719D01*
X131733126Y-61109719D01*
X131853220Y-61048528D01*
X131948528Y-60953220D01*
X132009719Y-60833126D01*
X132030804Y-60700000D01*
X132028453Y-60685158D01*
X132026727Y-60674262D01*
X139494931Y-60674262D01*
X139494931Y-60674267D01*
X139516014Y-60807386D01*
X139516015Y-60807389D01*
X139516016Y-60807391D01*
X139529129Y-60833126D01*
X139577208Y-60927486D01*
X139577211Y-60927490D01*
X139672509Y-61022788D01*
X139672513Y-61022791D01*
X139672515Y-61022793D01*
X139792609Y-61083984D01*
X139792611Y-61083984D01*
X139792613Y-61083985D01*
X139925733Y-61105069D01*
X139925735Y-61105069D01*
X139925737Y-61105069D01*
X140058856Y-61083985D01*
X140058856Y-61083984D01*
X140058861Y-61083984D01*
X140178955Y-61022793D01*
X140274263Y-60927485D01*
X140335454Y-60807391D01*
X140352463Y-60700000D01*
X140356539Y-60674267D01*
X140356539Y-60674262D01*
X140335455Y-60541143D01*
X140335454Y-60541141D01*
X140335454Y-60541139D01*
X140274263Y-60421045D01*
X140274261Y-60421043D01*
X140274258Y-60421039D01*
X140178960Y-60325741D01*
X140178956Y-60325738D01*
X140178955Y-60325737D01*
X140058861Y-60264546D01*
X140058859Y-60264545D01*
X140058856Y-60264544D01*
X139925737Y-60243461D01*
X139925733Y-60243461D01*
X139792613Y-60264544D01*
X139672513Y-60325738D01*
X139672509Y-60325741D01*
X139577211Y-60421039D01*
X139577208Y-60421043D01*
X139516014Y-60541143D01*
X139494931Y-60674262D01*
X132026727Y-60674262D01*
X132009720Y-60566878D01*
X132009719Y-60566876D01*
X132009719Y-60566874D01*
X131948528Y-60446780D01*
X131948526Y-60446778D01*
X131948523Y-60446774D01*
X131853225Y-60351476D01*
X131853221Y-60351473D01*
X131853220Y-60351472D01*
X131733126Y-60290281D01*
X131733124Y-60290280D01*
X131733121Y-60290279D01*
X131600002Y-60269196D01*
X131599998Y-60269196D01*
X131466875Y-60290280D01*
X131466873Y-60290280D01*
X131458148Y-60294726D01*
X131389478Y-60307618D01*
X131324739Y-60281338D01*
X131284486Y-60224229D01*
X131279387Y-60164840D01*
X131281738Y-60150000D01*
X131260653Y-60016874D01*
X131199462Y-59896780D01*
X131199460Y-59896778D01*
X131199457Y-59896774D01*
X131104159Y-59801476D01*
X131104155Y-59801473D01*
X131104154Y-59801472D01*
X130984060Y-59740281D01*
X130984058Y-59740280D01*
X130984055Y-59740279D01*
X130850936Y-59719196D01*
X130850932Y-59719196D01*
X130717812Y-59740279D01*
X130597712Y-59801473D01*
X130597708Y-59801476D01*
X130502410Y-59896774D01*
X130502407Y-59896778D01*
X130441213Y-60016878D01*
X130420130Y-60149997D01*
X110450500Y-60149997D01*
X110450500Y-59299997D01*
X141819196Y-59299997D01*
X141819196Y-59300002D01*
X141840279Y-59433121D01*
X141840280Y-59433124D01*
X141840281Y-59433126D01*
X141901472Y-59553220D01*
X141901473Y-59553221D01*
X141901476Y-59553225D01*
X141996774Y-59648523D01*
X141996778Y-59648526D01*
X141996780Y-59648528D01*
X142116874Y-59709719D01*
X142116876Y-59709719D01*
X142116878Y-59709720D01*
X142249998Y-59730804D01*
X142250000Y-59730804D01*
X142250002Y-59730804D01*
X142383121Y-59709720D01*
X142383121Y-59709719D01*
X142383126Y-59709719D01*
X142503220Y-59648528D01*
X142598528Y-59553220D01*
X142659719Y-59433126D01*
X142680804Y-59300000D01*
X142659719Y-59166874D01*
X142598528Y-59046780D01*
X142598526Y-59046778D01*
X142598523Y-59046774D01*
X142503225Y-58951476D01*
X142503221Y-58951473D01*
X142503220Y-58951472D01*
X142383126Y-58890281D01*
X142383124Y-58890280D01*
X142383121Y-58890279D01*
X142250002Y-58869196D01*
X142249998Y-58869196D01*
X142116878Y-58890279D01*
X141996778Y-58951473D01*
X141996774Y-58951476D01*
X141901476Y-59046774D01*
X141901473Y-59046778D01*
X141840279Y-59166878D01*
X141819196Y-59299997D01*
X110450500Y-59299997D01*
X110450500Y-57399997D01*
X129569196Y-57399997D01*
X129569196Y-57400002D01*
X129590279Y-57533121D01*
X129590280Y-57533124D01*
X129590281Y-57533126D01*
X129651472Y-57653220D01*
X129651473Y-57653221D01*
X129651476Y-57653225D01*
X129746774Y-57748523D01*
X129746778Y-57748526D01*
X129746780Y-57748528D01*
X129866874Y-57809719D01*
X129866876Y-57809719D01*
X129866878Y-57809720D01*
X129999998Y-57830804D01*
X130000000Y-57830804D01*
X130000002Y-57830804D01*
X130133121Y-57809720D01*
X130133121Y-57809719D01*
X130133126Y-57809719D01*
X130253220Y-57748528D01*
X130348528Y-57653220D01*
X130409719Y-57533126D01*
X130430804Y-57400000D01*
X130412545Y-57284719D01*
X130409720Y-57266878D01*
X130409719Y-57266876D01*
X130409719Y-57266874D01*
X130348528Y-57146780D01*
X130348526Y-57146778D01*
X130348523Y-57146774D01*
X130253225Y-57051476D01*
X130253221Y-57051473D01*
X130253220Y-57051472D01*
X130133126Y-56990281D01*
X130133124Y-56990280D01*
X130133121Y-56990279D01*
X130000002Y-56969196D01*
X129999998Y-56969196D01*
X129866878Y-56990279D01*
X129746778Y-57051473D01*
X129746774Y-57051476D01*
X129651476Y-57146774D01*
X129651473Y-57146778D01*
X129590279Y-57266878D01*
X129569196Y-57399997D01*
X110450500Y-57399997D01*
X110450500Y-56874997D01*
X133369196Y-56874997D01*
X133369196Y-56875002D01*
X133390279Y-57008121D01*
X133390280Y-57008124D01*
X133390281Y-57008126D01*
X133412369Y-57051476D01*
X133451473Y-57128221D01*
X133451476Y-57128225D01*
X133546774Y-57223523D01*
X133546778Y-57223526D01*
X133546780Y-57223528D01*
X133666874Y-57284719D01*
X133666876Y-57284719D01*
X133666878Y-57284720D01*
X133799998Y-57305804D01*
X133800000Y-57305804D01*
X133800002Y-57305804D01*
X133933121Y-57284720D01*
X133933121Y-57284719D01*
X133933126Y-57284719D01*
X134053220Y-57223528D01*
X134148528Y-57128220D01*
X134209719Y-57008126D01*
X134209720Y-57008121D01*
X134230804Y-56875002D01*
X134230804Y-56874997D01*
X134209720Y-56741878D01*
X134209719Y-56741876D01*
X134209719Y-56741874D01*
X134148528Y-56621780D01*
X134148526Y-56621778D01*
X134148523Y-56621774D01*
X134053225Y-56526476D01*
X134053221Y-56526473D01*
X134053220Y-56526472D01*
X133933126Y-56465281D01*
X133933124Y-56465280D01*
X133933121Y-56465279D01*
X133800002Y-56444196D01*
X133799998Y-56444196D01*
X133666878Y-56465279D01*
X133546778Y-56526473D01*
X133546774Y-56526476D01*
X133451476Y-56621774D01*
X133451473Y-56621778D01*
X133390279Y-56741878D01*
X133369196Y-56874997D01*
X110450500Y-56874997D01*
X110450500Y-55949997D01*
X141869196Y-55949997D01*
X141869196Y-55950002D01*
X141890279Y-56083121D01*
X141890280Y-56083124D01*
X141890281Y-56083126D01*
X141951472Y-56203220D01*
X141951473Y-56203221D01*
X141951476Y-56203225D01*
X142046774Y-56298523D01*
X142046778Y-56298526D01*
X142046780Y-56298528D01*
X142166874Y-56359719D01*
X142166876Y-56359719D01*
X142166878Y-56359720D01*
X142299998Y-56380804D01*
X142300000Y-56380804D01*
X142300002Y-56380804D01*
X142433121Y-56359720D01*
X142433121Y-56359719D01*
X142433126Y-56359719D01*
X142553220Y-56298528D01*
X142648528Y-56203220D01*
X142709719Y-56083126D01*
X142730804Y-55950000D01*
X142709719Y-55816874D01*
X142648528Y-55696780D01*
X142648526Y-55696778D01*
X142648523Y-55696774D01*
X142553225Y-55601476D01*
X142553221Y-55601473D01*
X142553220Y-55601472D01*
X142433126Y-55540281D01*
X142433124Y-55540280D01*
X142433121Y-55540279D01*
X142300002Y-55519196D01*
X142299998Y-55519196D01*
X142166878Y-55540279D01*
X142046778Y-55601473D01*
X142046774Y-55601476D01*
X141951476Y-55696774D01*
X141951473Y-55696778D01*
X141890279Y-55816878D01*
X141869196Y-55949997D01*
X110450500Y-55949997D01*
X110450500Y-53771530D01*
X115749500Y-53771530D01*
X115749500Y-54228469D01*
X115789868Y-54431412D01*
X115789870Y-54431420D01*
X115840323Y-54553225D01*
X115869059Y-54622598D01*
X115886385Y-54648528D01*
X115984024Y-54794657D01*
X116130342Y-54940975D01*
X116130345Y-54940977D01*
X116302402Y-55055941D01*
X116493580Y-55135130D01*
X116696530Y-55175499D01*
X116696534Y-55175500D01*
X116696535Y-55175500D01*
X116903466Y-55175500D01*
X116903467Y-55175499D01*
X117106420Y-55135130D01*
X117297598Y-55055941D01*
X117469655Y-54940977D01*
X117615977Y-54794655D01*
X117730941Y-54622598D01*
X117810130Y-54431420D01*
X117850500Y-54228465D01*
X117850500Y-53771535D01*
X117850499Y-53771530D01*
X118249500Y-53771530D01*
X118249500Y-54228469D01*
X118289868Y-54431412D01*
X118289870Y-54431420D01*
X118340323Y-54553225D01*
X118369059Y-54622598D01*
X118386385Y-54648528D01*
X118484024Y-54794657D01*
X118630342Y-54940975D01*
X118630345Y-54940977D01*
X118802402Y-55055941D01*
X118993580Y-55135130D01*
X119196530Y-55175499D01*
X119196534Y-55175500D01*
X119196535Y-55175500D01*
X119403466Y-55175500D01*
X119403467Y-55175499D01*
X119606420Y-55135130D01*
X119797598Y-55055941D01*
X119969655Y-54940977D01*
X120115977Y-54794655D01*
X120230941Y-54622598D01*
X120310130Y-54431420D01*
X120336271Y-54299997D01*
X127119196Y-54299997D01*
X127119196Y-54300002D01*
X127140279Y-54433121D01*
X127140280Y-54433124D01*
X127140281Y-54433126D01*
X127201472Y-54553220D01*
X127201473Y-54553221D01*
X127201476Y-54553225D01*
X127296774Y-54648523D01*
X127296778Y-54648526D01*
X127296780Y-54648528D01*
X127416874Y-54709719D01*
X127416876Y-54709719D01*
X127416878Y-54709720D01*
X127549998Y-54730804D01*
X127550000Y-54730804D01*
X127550002Y-54730804D01*
X127683121Y-54709720D01*
X127683121Y-54709719D01*
X127683126Y-54709719D01*
X127803220Y-54648528D01*
X127898528Y-54553220D01*
X127959719Y-54433126D01*
X127959989Y-54431420D01*
X127980804Y-54300002D01*
X127980804Y-54299997D01*
X127959720Y-54166878D01*
X127959719Y-54166876D01*
X127959719Y-54166874D01*
X127898528Y-54046780D01*
X127898526Y-54046778D01*
X127898523Y-54046774D01*
X127803225Y-53951476D01*
X127803221Y-53951473D01*
X127803220Y-53951472D01*
X127683126Y-53890281D01*
X127683124Y-53890280D01*
X127683121Y-53890279D01*
X127550002Y-53869196D01*
X127549998Y-53869196D01*
X127416878Y-53890279D01*
X127296778Y-53951473D01*
X127296774Y-53951476D01*
X127201476Y-54046774D01*
X127201473Y-54046778D01*
X127140279Y-54166878D01*
X127119196Y-54299997D01*
X120336271Y-54299997D01*
X120350500Y-54228465D01*
X120350500Y-53771535D01*
X120310130Y-53568580D01*
X120230941Y-53377402D01*
X120115977Y-53205345D01*
X120115975Y-53205342D01*
X119969657Y-53059024D01*
X119811310Y-52953221D01*
X119797598Y-52944059D01*
X119606420Y-52864870D01*
X119606412Y-52864868D01*
X119403469Y-52824500D01*
X119403465Y-52824500D01*
X119196535Y-52824500D01*
X119196530Y-52824500D01*
X118993587Y-52864868D01*
X118993579Y-52864870D01*
X118802403Y-52944058D01*
X118630342Y-53059024D01*
X118484024Y-53205342D01*
X118369058Y-53377403D01*
X118289870Y-53568579D01*
X118289868Y-53568587D01*
X118249500Y-53771530D01*
X117850499Y-53771530D01*
X117810130Y-53568580D01*
X117730941Y-53377402D01*
X117615977Y-53205345D01*
X117615975Y-53205342D01*
X117469657Y-53059024D01*
X117311310Y-52953221D01*
X117297598Y-52944059D01*
X117106420Y-52864870D01*
X117106412Y-52864868D01*
X116903469Y-52824500D01*
X116903465Y-52824500D01*
X116696535Y-52824500D01*
X116696530Y-52824500D01*
X116493587Y-52864868D01*
X116493579Y-52864870D01*
X116302403Y-52944058D01*
X116130342Y-53059024D01*
X115984024Y-53205342D01*
X115869058Y-53377403D01*
X115789870Y-53568579D01*
X115789868Y-53568587D01*
X115749500Y-53771530D01*
X110450500Y-53771530D01*
X110450500Y-52699997D01*
X130519196Y-52699997D01*
X130519196Y-52700002D01*
X130540279Y-52833121D01*
X130540280Y-52833124D01*
X130540281Y-52833126D01*
X130601472Y-52953220D01*
X130601473Y-52953221D01*
X130601476Y-52953225D01*
X130696774Y-53048523D01*
X130696778Y-53048526D01*
X130696780Y-53048528D01*
X130816874Y-53109719D01*
X130816876Y-53109719D01*
X130816878Y-53109720D01*
X130949998Y-53130804D01*
X130950000Y-53130804D01*
X130950002Y-53130804D01*
X131083121Y-53109720D01*
X131083121Y-53109719D01*
X131083126Y-53109719D01*
X131203220Y-53048528D01*
X131298528Y-52953220D01*
X131359719Y-52833126D01*
X131380804Y-52700000D01*
X131371967Y-52644206D01*
X131380921Y-52574916D01*
X131425917Y-52521463D01*
X131475043Y-52502337D01*
X131583121Y-52485219D01*
X131583121Y-52485218D01*
X131583126Y-52485218D01*
X131703220Y-52424027D01*
X131798528Y-52328719D01*
X131859719Y-52208625D01*
X131880804Y-52075499D01*
X131859719Y-51942373D01*
X131798528Y-51822279D01*
X131798526Y-51822277D01*
X131798523Y-51822273D01*
X131703225Y-51726975D01*
X131703221Y-51726972D01*
X131703220Y-51726971D01*
X131583126Y-51665780D01*
X131583124Y-51665779D01*
X131583121Y-51665778D01*
X131450002Y-51644695D01*
X131449998Y-51644695D01*
X131316878Y-51665778D01*
X131196778Y-51726972D01*
X131196774Y-51726975D01*
X131101476Y-51822273D01*
X131101473Y-51822277D01*
X131040279Y-51942377D01*
X131019196Y-52075496D01*
X131019196Y-52075501D01*
X131028032Y-52131290D01*
X131019077Y-52200584D01*
X130974081Y-52254036D01*
X130924958Y-52273161D01*
X130816877Y-52290279D01*
X130696778Y-52351473D01*
X130696774Y-52351476D01*
X130601476Y-52446774D01*
X130601473Y-52446778D01*
X130601472Y-52446780D01*
X130571144Y-52506303D01*
X130540279Y-52566878D01*
X130519196Y-52699997D01*
X110450500Y-52699997D01*
X110450500Y-46971530D01*
X128849500Y-46971530D01*
X128849500Y-47428469D01*
X128889868Y-47631412D01*
X128889870Y-47631420D01*
X128969058Y-47822596D01*
X129084024Y-47994657D01*
X129230342Y-48140975D01*
X129230345Y-48140977D01*
X129402402Y-48255941D01*
X129593580Y-48335130D01*
X129782187Y-48372646D01*
X129796530Y-48375499D01*
X129796534Y-48375500D01*
X129796535Y-48375500D01*
X130003466Y-48375500D01*
X130003467Y-48375499D01*
X130206420Y-48335130D01*
X130397598Y-48255941D01*
X130569655Y-48140977D01*
X130715977Y-47994655D01*
X130830941Y-47822598D01*
X130910130Y-47631420D01*
X130950500Y-47428465D01*
X130950500Y-46971535D01*
X130950499Y-46971530D01*
X131349500Y-46971530D01*
X131349500Y-47428469D01*
X131389868Y-47631412D01*
X131389870Y-47631420D01*
X131469058Y-47822596D01*
X131584024Y-47994657D01*
X131730342Y-48140975D01*
X131730345Y-48140977D01*
X131902402Y-48255941D01*
X132093580Y-48335130D01*
X132282187Y-48372646D01*
X132296530Y-48375499D01*
X132296534Y-48375500D01*
X132296535Y-48375500D01*
X132503466Y-48375500D01*
X132503467Y-48375499D01*
X132706420Y-48335130D01*
X132897598Y-48255941D01*
X133069655Y-48140977D01*
X133215977Y-47994655D01*
X133330941Y-47822598D01*
X133410130Y-47631420D01*
X133450500Y-47428465D01*
X133450500Y-46971535D01*
X133450499Y-46971530D01*
X133849500Y-46971530D01*
X133849500Y-47428469D01*
X133889868Y-47631412D01*
X133889870Y-47631420D01*
X133969058Y-47822596D01*
X134084024Y-47994657D01*
X134230342Y-48140975D01*
X134230345Y-48140977D01*
X134402402Y-48255941D01*
X134593580Y-48335130D01*
X134782187Y-48372646D01*
X134796530Y-48375499D01*
X134796534Y-48375500D01*
X134796535Y-48375500D01*
X135003466Y-48375500D01*
X135003467Y-48375499D01*
X135206420Y-48335130D01*
X135397598Y-48255941D01*
X135569655Y-48140977D01*
X135715977Y-47994655D01*
X135830941Y-47822598D01*
X135910130Y-47631420D01*
X135950500Y-47428465D01*
X135950500Y-46971535D01*
X135950499Y-46971530D01*
X136349500Y-46971530D01*
X136349500Y-47428469D01*
X136389868Y-47631412D01*
X136389870Y-47631420D01*
X136469058Y-47822596D01*
X136584024Y-47994657D01*
X136730342Y-48140975D01*
X136730345Y-48140977D01*
X136902402Y-48255941D01*
X137093580Y-48335130D01*
X137282187Y-48372646D01*
X137296530Y-48375499D01*
X137296534Y-48375500D01*
X137296535Y-48375500D01*
X137503466Y-48375500D01*
X137503467Y-48375499D01*
X137706420Y-48335130D01*
X137897598Y-48255941D01*
X138069655Y-48140977D01*
X138215977Y-47994655D01*
X138330941Y-47822598D01*
X138410130Y-47631420D01*
X138450500Y-47428465D01*
X138450500Y-46971535D01*
X138410130Y-46768580D01*
X138330941Y-46577402D01*
X138226257Y-46420730D01*
X138849500Y-46420730D01*
X138849500Y-47979269D01*
X138852353Y-48009699D01*
X138852353Y-48009701D01*
X138897206Y-48137880D01*
X138897207Y-48137882D01*
X138977850Y-48247150D01*
X139087118Y-48327793D01*
X139108089Y-48335131D01*
X139215299Y-48372646D01*
X139245730Y-48375500D01*
X139245734Y-48375500D01*
X140554270Y-48375500D01*
X140584699Y-48372646D01*
X140584701Y-48372646D01*
X140648790Y-48350219D01*
X140712882Y-48327793D01*
X140822150Y-48247150D01*
X140902793Y-48137882D01*
X140925219Y-48073790D01*
X140947646Y-48009701D01*
X140947646Y-48009699D01*
X140950500Y-47979269D01*
X140950500Y-46420730D01*
X140947646Y-46390300D01*
X140947646Y-46390298D01*
X140902793Y-46262119D01*
X140902792Y-46262117D01*
X140822150Y-46152850D01*
X140712882Y-46072207D01*
X140712880Y-46072206D01*
X140584700Y-46027353D01*
X140554270Y-46024500D01*
X140554266Y-46024500D01*
X139245734Y-46024500D01*
X139245730Y-46024500D01*
X139215300Y-46027353D01*
X139215298Y-46027353D01*
X139087119Y-46072206D01*
X139087117Y-46072207D01*
X138977850Y-46152850D01*
X138897207Y-46262117D01*
X138897206Y-46262119D01*
X138852353Y-46390298D01*
X138852353Y-46390300D01*
X138849500Y-46420730D01*
X138226257Y-46420730D01*
X138215977Y-46405345D01*
X138215975Y-46405342D01*
X138069657Y-46259024D01*
X137983626Y-46201541D01*
X137897598Y-46144059D01*
X137706420Y-46064870D01*
X137706412Y-46064868D01*
X137503469Y-46024500D01*
X137503465Y-46024500D01*
X137296535Y-46024500D01*
X137296530Y-46024500D01*
X137093587Y-46064868D01*
X137093579Y-46064870D01*
X136902403Y-46144058D01*
X136730342Y-46259024D01*
X136584024Y-46405342D01*
X136469058Y-46577403D01*
X136389870Y-46768579D01*
X136389868Y-46768587D01*
X136349500Y-46971530D01*
X135950499Y-46971530D01*
X135910130Y-46768580D01*
X135830941Y-46577402D01*
X135715977Y-46405345D01*
X135715975Y-46405342D01*
X135569657Y-46259024D01*
X135483626Y-46201541D01*
X135397598Y-46144059D01*
X135206420Y-46064870D01*
X135206412Y-46064868D01*
X135003469Y-46024500D01*
X135003465Y-46024500D01*
X134796535Y-46024500D01*
X134796530Y-46024500D01*
X134593587Y-46064868D01*
X134593579Y-46064870D01*
X134402403Y-46144058D01*
X134230342Y-46259024D01*
X134084024Y-46405342D01*
X133969058Y-46577403D01*
X133889870Y-46768579D01*
X133889868Y-46768587D01*
X133849500Y-46971530D01*
X133450499Y-46971530D01*
X133410130Y-46768580D01*
X133330941Y-46577402D01*
X133215977Y-46405345D01*
X133215975Y-46405342D01*
X133069657Y-46259024D01*
X132983626Y-46201541D01*
X132897598Y-46144059D01*
X132706420Y-46064870D01*
X132706412Y-46064868D01*
X132503469Y-46024500D01*
X132503465Y-46024500D01*
X132296535Y-46024500D01*
X132296530Y-46024500D01*
X132093587Y-46064868D01*
X132093579Y-46064870D01*
X131902403Y-46144058D01*
X131730342Y-46259024D01*
X131584024Y-46405342D01*
X131469058Y-46577403D01*
X131389870Y-46768579D01*
X131389868Y-46768587D01*
X131349500Y-46971530D01*
X130950499Y-46971530D01*
X130910130Y-46768580D01*
X130830941Y-46577402D01*
X130715977Y-46405345D01*
X130715975Y-46405342D01*
X130569657Y-46259024D01*
X130483626Y-46201541D01*
X130397598Y-46144059D01*
X130206420Y-46064870D01*
X130206412Y-46064868D01*
X130003469Y-46024500D01*
X130003465Y-46024500D01*
X129796535Y-46024500D01*
X129796530Y-46024500D01*
X129593587Y-46064868D01*
X129593579Y-46064870D01*
X129402403Y-46144058D01*
X129230342Y-46259024D01*
X129084024Y-46405342D01*
X128969058Y-46577403D01*
X128889870Y-46768579D01*
X128889868Y-46768587D01*
X128849500Y-46971530D01*
X110450500Y-46971530D01*
X110450500Y-45521153D01*
X120424500Y-45521153D01*
X120424500Y-45678846D01*
X120455261Y-45833489D01*
X120455264Y-45833501D01*
X120515602Y-45979172D01*
X120515609Y-45979185D01*
X120603210Y-46110288D01*
X120603213Y-46110292D01*
X120714707Y-46221786D01*
X120714711Y-46221789D01*
X120845814Y-46309390D01*
X120845827Y-46309397D01*
X120991498Y-46369735D01*
X120991503Y-46369737D01*
X121094885Y-46390301D01*
X121146153Y-46400499D01*
X121146156Y-46400500D01*
X121146158Y-46400500D01*
X121853844Y-46400500D01*
X121853845Y-46400499D01*
X122008497Y-46369737D01*
X122154179Y-46309394D01*
X122285289Y-46221789D01*
X122396789Y-46110289D01*
X122484394Y-45979179D01*
X122544737Y-45833497D01*
X122575500Y-45678842D01*
X122575500Y-45521158D01*
X122575500Y-45521155D01*
X122575499Y-45521153D01*
X122544738Y-45366510D01*
X122544737Y-45366503D01*
X122544735Y-45366498D01*
X122484397Y-45220827D01*
X122484390Y-45220814D01*
X122396789Y-45089711D01*
X122396786Y-45089707D01*
X122285292Y-44978213D01*
X122285288Y-44978210D01*
X122154185Y-44890609D01*
X122154172Y-44890602D01*
X122008501Y-44830264D01*
X122008489Y-44830261D01*
X121853845Y-44799500D01*
X121853842Y-44799500D01*
X121146158Y-44799500D01*
X121146155Y-44799500D01*
X120991510Y-44830261D01*
X120991498Y-44830264D01*
X120845827Y-44890602D01*
X120845814Y-44890609D01*
X120714711Y-44978210D01*
X120714707Y-44978213D01*
X120603213Y-45089707D01*
X120603210Y-45089711D01*
X120515609Y-45220814D01*
X120515602Y-45220827D01*
X120455264Y-45366498D01*
X120455261Y-45366510D01*
X120424500Y-45521153D01*
X110450500Y-45521153D01*
X110450500Y-43521153D01*
X120424500Y-43521153D01*
X120424500Y-43678846D01*
X120455261Y-43833489D01*
X120455264Y-43833501D01*
X120515602Y-43979172D01*
X120515609Y-43979185D01*
X120603210Y-44110288D01*
X120603213Y-44110292D01*
X120714707Y-44221786D01*
X120714711Y-44221789D01*
X120845814Y-44309390D01*
X120845827Y-44309397D01*
X120991498Y-44369735D01*
X120991503Y-44369737D01*
X121146153Y-44400499D01*
X121146156Y-44400500D01*
X121146158Y-44400500D01*
X121853844Y-44400500D01*
X121853845Y-44400499D01*
X122008497Y-44369737D01*
X122154179Y-44309394D01*
X122285289Y-44221789D01*
X122396789Y-44110289D01*
X122484394Y-43979179D01*
X122544737Y-43833497D01*
X122575500Y-43678842D01*
X122575500Y-43521158D01*
X122575500Y-43521155D01*
X122575499Y-43521153D01*
X122544738Y-43366510D01*
X122544737Y-43366503D01*
X122544735Y-43366498D01*
X122484397Y-43220827D01*
X122484390Y-43220814D01*
X122396789Y-43089711D01*
X122396786Y-43089707D01*
X122285292Y-42978213D01*
X122285288Y-42978210D01*
X122154185Y-42890609D01*
X122154172Y-42890602D01*
X122008501Y-42830264D01*
X122008489Y-42830261D01*
X121853845Y-42799500D01*
X121853842Y-42799500D01*
X121146158Y-42799500D01*
X121146155Y-42799500D01*
X120991510Y-42830261D01*
X120991498Y-42830264D01*
X120845827Y-42890602D01*
X120845814Y-42890609D01*
X120714711Y-42978210D01*
X120714707Y-42978213D01*
X120603213Y-43089707D01*
X120603210Y-43089711D01*
X120515609Y-43220814D01*
X120515602Y-43220827D01*
X120455264Y-43366498D01*
X120455261Y-43366510D01*
X120424500Y-43521153D01*
X110450500Y-43521153D01*
X110450500Y-41602871D01*
X110450632Y-41597144D01*
X110452804Y-41550172D01*
X110467083Y-41241300D01*
X110468140Y-41229905D01*
X110472907Y-41195734D01*
X110472908Y-41195730D01*
X120424500Y-41195730D01*
X120424500Y-42004269D01*
X120427353Y-42034699D01*
X120427353Y-42034701D01*
X120472206Y-42162880D01*
X120472207Y-42162882D01*
X120552850Y-42272150D01*
X120662118Y-42352793D01*
X120704845Y-42367744D01*
X120790299Y-42397646D01*
X120820730Y-42400500D01*
X120820734Y-42400500D01*
X122179270Y-42400500D01*
X122209699Y-42397646D01*
X122209701Y-42397646D01*
X122273790Y-42375219D01*
X122337882Y-42352793D01*
X122447150Y-42272150D01*
X122527793Y-42162882D01*
X122550219Y-42098790D01*
X122572646Y-42034701D01*
X122572646Y-42034699D01*
X122575500Y-42004269D01*
X122575500Y-41195730D01*
X122572646Y-41165300D01*
X122572646Y-41165298D01*
X122527793Y-41037119D01*
X122527792Y-41037117D01*
X122514082Y-41018540D01*
X122447150Y-40927850D01*
X122337882Y-40847207D01*
X122337880Y-40847206D01*
X122209700Y-40802353D01*
X122179270Y-40799500D01*
X122179266Y-40799500D01*
X120820734Y-40799500D01*
X120820730Y-40799500D01*
X120790300Y-40802353D01*
X120790298Y-40802353D01*
X120662119Y-40847206D01*
X120662117Y-40847207D01*
X120552850Y-40927850D01*
X120472207Y-41037117D01*
X120472206Y-41037119D01*
X120427353Y-41165298D01*
X120427353Y-41165300D01*
X120424500Y-41195730D01*
X110472908Y-41195730D01*
X110516958Y-40879944D01*
X110519058Y-40868708D01*
X110599961Y-40524732D01*
X110603084Y-40513753D01*
X110715387Y-40178685D01*
X110719510Y-40168046D01*
X110862245Y-39844781D01*
X110867328Y-39834572D01*
X111039278Y-39525862D01*
X111045304Y-39516130D01*
X111244999Y-39224612D01*
X111251881Y-39215498D01*
X111477636Y-38943630D01*
X111485332Y-38935190D01*
X111735190Y-38685332D01*
X111743630Y-38677636D01*
X112015498Y-38451881D01*
X112024612Y-38444999D01*
X112316136Y-38245300D01*
X112325862Y-38239278D01*
X112634572Y-38067328D01*
X112644781Y-38062245D01*
X112968046Y-37919510D01*
X112978685Y-37915387D01*
X113313753Y-37803084D01*
X113324732Y-37799961D01*
X113668708Y-37719058D01*
X113679944Y-37716958D01*
X114029914Y-37668139D01*
X114041300Y-37667083D01*
X114397145Y-37650632D01*
X114402872Y-37650500D01*
X114444170Y-37650500D01*
X146955830Y-37650500D01*
X146997128Y-37650500D01*
X147002855Y-37650632D01*
G37*
G04 #@! TD.AperFunction*
M02*
