G04 #@! TF.GenerationSoftware,KiCad,Pcbnew,9.0.0*
G04 #@! TF.CreationDate,2025-04-11T10:19:01+02:00*
G04 #@! TF.ProjectId,Janus_finalV,4a616e75-735f-4666-996e-616c562e6b69,rev?*
G04 #@! TF.SameCoordinates,Original*
G04 #@! TF.FileFunction,Copper,L1,Top*
G04 #@! TF.FilePolarity,Positive*
%FSLAX46Y46*%
G04 Gerber Fmt 4.6, Leading zero omitted, Abs format (unit mm)*
G04 Created by KiCad (PCBNEW 9.0.0) date 2025-04-11 10:19:01*
%MOMM*%
%LPD*%
G01*
G04 APERTURE LIST*
G04 Aperture macros list*
%AMRoundRect*
0 Rectangle with rounded corners*
0 $1 Rounding radius*
0 $2 $3 $4 $5 $6 $7 $8 $9 X,Y pos of 4 corners*
0 Add a 4 corners polygon primitive as box body*
4,1,4,$2,$3,$4,$5,$6,$7,$8,$9,$2,$3,0*
0 Add four circle primitives for the rounded corners*
1,1,$1+$1,$2,$3*
1,1,$1+$1,$4,$5*
1,1,$1+$1,$6,$7*
1,1,$1+$1,$8,$9*
0 Add four rect primitives between the rounded corners*
20,1,$1+$1,$2,$3,$4,$5,0*
20,1,$1+$1,$4,$5,$6,$7,0*
20,1,$1+$1,$6,$7,$8,$9,0*
20,1,$1+$1,$8,$9,$2,$3,0*%
G04 Aperture macros list end*
G04 #@! TA.AperFunction,ComponentPad*
%ADD10R,1.700000X1.700000*%
G04 #@! TD*
G04 #@! TA.AperFunction,ComponentPad*
%ADD11O,1.700000X1.700000*%
G04 #@! TD*
G04 #@! TA.AperFunction,ComponentPad*
%ADD12C,5.400000*%
G04 #@! TD*
G04 #@! TA.AperFunction,SMDPad,CuDef*
%ADD13RoundRect,0.140000X-0.140000X-0.170000X0.140000X-0.170000X0.140000X0.170000X-0.140000X0.170000X0*%
G04 #@! TD*
G04 #@! TA.AperFunction,SMDPad,CuDef*
%ADD14R,2.400000X0.740000*%
G04 #@! TD*
G04 #@! TA.AperFunction,ComponentPad*
%ADD15RoundRect,0.250000X-0.625000X0.350000X-0.625000X-0.350000X0.625000X-0.350000X0.625000X0.350000X0*%
G04 #@! TD*
G04 #@! TA.AperFunction,ComponentPad*
%ADD16O,1.750000X1.200000*%
G04 #@! TD*
G04 #@! TA.AperFunction,SMDPad,CuDef*
%ADD17R,2.000000X1.400000*%
G04 #@! TD*
G04 #@! TA.AperFunction,SMDPad,CuDef*
%ADD18RoundRect,0.218750X0.256250X-0.218750X0.256250X0.218750X-0.256250X0.218750X-0.256250X-0.218750X0*%
G04 #@! TD*
G04 #@! TA.AperFunction,ComponentPad*
%ADD19R,1.700000X2.500000*%
G04 #@! TD*
G04 #@! TA.AperFunction,ComponentPad*
%ADD20O,1.700000X2.500000*%
G04 #@! TD*
G04 #@! TA.AperFunction,SMDPad,CuDef*
%ADD21RoundRect,0.140000X-0.170000X0.140000X-0.170000X-0.140000X0.170000X-0.140000X0.170000X0.140000X0*%
G04 #@! TD*
G04 #@! TA.AperFunction,SMDPad,CuDef*
%ADD22RoundRect,0.250000X-0.250000X-0.475000X0.250000X-0.475000X0.250000X0.475000X-0.250000X0.475000X0*%
G04 #@! TD*
G04 #@! TA.AperFunction,SMDPad,CuDef*
%ADD23R,0.450000X1.750000*%
G04 #@! TD*
G04 #@! TA.AperFunction,ComponentPad*
%ADD24RoundRect,0.250000X-0.600000X-0.725000X0.600000X-0.725000X0.600000X0.725000X-0.600000X0.725000X0*%
G04 #@! TD*
G04 #@! TA.AperFunction,ComponentPad*
%ADD25O,1.700000X1.950000*%
G04 #@! TD*
G04 #@! TA.AperFunction,SMDPad,CuDef*
%ADD26RoundRect,0.140000X0.170000X-0.140000X0.170000X0.140000X-0.170000X0.140000X-0.170000X-0.140000X0*%
G04 #@! TD*
G04 #@! TA.AperFunction,SMDPad,CuDef*
%ADD27RoundRect,0.250000X-0.475000X0.250000X-0.475000X-0.250000X0.475000X-0.250000X0.475000X0.250000X0*%
G04 #@! TD*
G04 #@! TA.AperFunction,SMDPad,CuDef*
%ADD28RoundRect,0.140000X0.140000X0.170000X-0.140000X0.170000X-0.140000X-0.170000X0.140000X-0.170000X0*%
G04 #@! TD*
G04 #@! TA.AperFunction,SMDPad,CuDef*
%ADD29RoundRect,0.075000X0.662500X0.075000X-0.662500X0.075000X-0.662500X-0.075000X0.662500X-0.075000X0*%
G04 #@! TD*
G04 #@! TA.AperFunction,SMDPad,CuDef*
%ADD30RoundRect,0.075000X0.075000X0.662500X-0.075000X0.662500X-0.075000X-0.662500X0.075000X-0.662500X0*%
G04 #@! TD*
G04 #@! TA.AperFunction,ComponentPad*
%ADD31RoundRect,0.250000X0.600000X0.725000X-0.600000X0.725000X-0.600000X-0.725000X0.600000X-0.725000X0*%
G04 #@! TD*
G04 #@! TA.AperFunction,ComponentPad*
%ADD32RoundRect,0.250000X0.600000X0.750000X-0.600000X0.750000X-0.600000X-0.750000X0.600000X-0.750000X0*%
G04 #@! TD*
G04 #@! TA.AperFunction,ComponentPad*
%ADD33O,1.700000X2.000000*%
G04 #@! TD*
G04 #@! TA.AperFunction,ComponentPad*
%ADD34RoundRect,0.250000X0.750000X-0.600000X0.750000X0.600000X-0.750000X0.600000X-0.750000X-0.600000X0*%
G04 #@! TD*
G04 #@! TA.AperFunction,ComponentPad*
%ADD35O,2.000000X1.700000*%
G04 #@! TD*
G04 #@! TA.AperFunction,ViaPad*
%ADD36C,0.450000*%
G04 #@! TD*
G04 #@! TA.AperFunction,Conductor*
%ADD37C,0.500000*%
G04 #@! TD*
G04 #@! TA.AperFunction,Conductor*
%ADD38C,0.300000*%
G04 #@! TD*
G04 #@! TA.AperFunction,Conductor*
%ADD39C,0.250000*%
G04 #@! TD*
G04 #@! TA.AperFunction,Conductor*
%ADD40C,0.400000*%
G04 #@! TD*
G04 #@! TA.AperFunction,Conductor*
%ADD41C,0.200000*%
G04 #@! TD*
G04 APERTURE END LIST*
D10*
X147700000Y-80080000D03*
D11*
X145160000Y-80080000D03*
X142620000Y-80080000D03*
X140080000Y-80080000D03*
D12*
X147000000Y-85600000D03*
D13*
X146920000Y-65200000D03*
X147880000Y-65200000D03*
D14*
X148000000Y-63110000D03*
X144100000Y-63110000D03*
X148000000Y-61840000D03*
X144100000Y-61840000D03*
X148000000Y-60570000D03*
X144100000Y-60570000D03*
X148000000Y-59300000D03*
X144100000Y-59300000D03*
X148000000Y-58030000D03*
X144100000Y-58030000D03*
X148000000Y-56760000D03*
X144100000Y-56760000D03*
X148000000Y-55490000D03*
X144100000Y-55490000D03*
D15*
X121500000Y-41600000D03*
D16*
X121500000Y-43600000D03*
X121500000Y-45600000D03*
X121500000Y-47600000D03*
D10*
X147700000Y-77540000D03*
D11*
X145160000Y-77540000D03*
X142620000Y-77540000D03*
X140080000Y-77540000D03*
D17*
X148300000Y-71500000D03*
X141300000Y-71500000D03*
X148300000Y-67500000D03*
X141300000Y-67500000D03*
D18*
X140950000Y-57487500D03*
X140950000Y-55912500D03*
D19*
X114820000Y-69100000D03*
D20*
X117360000Y-69100000D03*
X119900000Y-69100000D03*
D21*
X137250000Y-62470000D03*
X137250000Y-63430000D03*
D12*
X114400000Y-41600000D03*
D21*
X135100000Y-63520000D03*
X135100000Y-64480000D03*
D22*
X131550000Y-68600000D03*
X133450000Y-68600000D03*
D23*
X128825000Y-79700000D03*
X129475000Y-79700000D03*
X130125000Y-79700000D03*
X130775000Y-79700000D03*
X131425000Y-79700000D03*
X132075000Y-79700000D03*
X132725000Y-79700000D03*
X133375000Y-79700000D03*
X134025000Y-79700000D03*
X134675000Y-79700000D03*
X135325000Y-79700000D03*
X135975000Y-79700000D03*
X135975000Y-72500000D03*
X135325000Y-72500000D03*
X134675000Y-72500000D03*
X134025000Y-72500000D03*
X133375000Y-72500000D03*
X132725000Y-72500000D03*
X132075000Y-72500000D03*
X131425000Y-72500000D03*
X130775000Y-72500000D03*
X130125000Y-72500000D03*
X129475000Y-72500000D03*
X128825000Y-72500000D03*
D24*
X114200000Y-62300000D03*
D25*
X116700000Y-62300000D03*
X119200000Y-62300000D03*
D21*
X139500000Y-56470000D03*
X139500000Y-57430000D03*
D24*
X114300000Y-54000000D03*
D25*
X116800000Y-54000000D03*
X119300000Y-54000000D03*
D10*
X147700000Y-75000000D03*
D11*
X145160000Y-75000000D03*
X142620000Y-75000000D03*
X140080000Y-75000000D03*
D21*
X127200000Y-73120000D03*
X127200000Y-74080000D03*
D13*
X131820000Y-70400000D03*
X132780000Y-70400000D03*
D12*
X147000000Y-41600000D03*
D26*
X127600000Y-53330000D03*
X127600000Y-52370000D03*
D27*
X125600000Y-73150000D03*
X125600000Y-75050000D03*
D28*
X125380000Y-61700000D03*
X124420000Y-61700000D03*
D29*
X135462500Y-61350000D03*
X135462500Y-60850000D03*
X135462500Y-60350000D03*
X135462500Y-59850000D03*
X135462500Y-59350000D03*
X135462500Y-58850000D03*
X135462500Y-58350000D03*
X135462500Y-57850000D03*
X135462500Y-57350000D03*
X135462500Y-56850000D03*
X135462500Y-56350000D03*
X135462500Y-55850000D03*
D30*
X134050000Y-54437500D03*
X133550000Y-54437500D03*
X133050000Y-54437500D03*
X132550000Y-54437500D03*
X132050000Y-54437500D03*
X131550000Y-54437500D03*
X131050000Y-54437500D03*
X130550000Y-54437500D03*
X130050000Y-54437500D03*
X129550000Y-54437500D03*
X129050000Y-54437500D03*
X128550000Y-54437500D03*
D29*
X127137500Y-55850000D03*
X127137500Y-56350000D03*
X127137500Y-56850000D03*
X127137500Y-57350000D03*
X127137500Y-57850000D03*
X127137500Y-58350000D03*
X127137500Y-58850000D03*
X127137500Y-59350000D03*
X127137500Y-59850000D03*
X127137500Y-60350000D03*
X127137500Y-60850000D03*
X127137500Y-61350000D03*
D30*
X128550000Y-62762500D03*
X129050000Y-62762500D03*
X129550000Y-62762500D03*
X130050000Y-62762500D03*
X130550000Y-62762500D03*
X131050000Y-62762500D03*
X131550000Y-62762500D03*
X132050000Y-62762500D03*
X132550000Y-62762500D03*
X133050000Y-62762500D03*
X133550000Y-62762500D03*
X134050000Y-62762500D03*
D12*
X114400000Y-85600000D03*
D31*
X139900000Y-47200000D03*
D25*
X137400000Y-47200000D03*
X134900000Y-47200000D03*
X132400000Y-47200000D03*
X129900000Y-47200000D03*
X127400000Y-47200000D03*
D21*
X138450000Y-56470000D03*
X138450000Y-57430000D03*
D27*
X139050000Y-62850000D03*
X139050000Y-64750000D03*
D32*
X129900000Y-84700000D03*
D33*
X127400000Y-84700000D03*
D34*
X119200000Y-80050000D03*
D35*
X119200000Y-77550000D03*
D32*
X139750000Y-84700000D03*
D33*
X137250000Y-84700000D03*
D36*
X150500000Y-71240000D03*
X150500000Y-61080000D03*
X125300000Y-69300000D03*
X123550000Y-57100000D03*
X132170000Y-39400000D03*
X145870000Y-63940000D03*
X134710000Y-41940000D03*
X124550000Y-39400000D03*
X129400000Y-71100000D03*
X135870000Y-89150000D03*
X128700000Y-60950000D03*
X139790000Y-72600000D03*
X118090000Y-89150000D03*
X140300000Y-61380000D03*
X113350000Y-48050000D03*
X133340000Y-87280000D03*
X110950000Y-53110000D03*
X120630000Y-89150000D03*
X130800000Y-87280000D03*
X136980000Y-66900000D03*
X138500000Y-70600000D03*
X110950000Y-55650000D03*
X122020000Y-38000000D03*
X134720000Y-38000000D03*
X130500000Y-65800000D03*
X129630000Y-44480000D03*
X145870000Y-65440000D03*
X117680000Y-74040000D03*
X145870000Y-59300000D03*
X148340000Y-66310000D03*
X115890000Y-48050000D03*
X129000000Y-77050000D03*
X137050000Y-74700000D03*
X112650000Y-64350000D03*
X112600000Y-74040000D03*
X130790000Y-89150000D03*
X130530000Y-51640000D03*
X144370000Y-63940000D03*
X135880000Y-87280000D03*
X123500000Y-47400000D03*
X115140000Y-81330000D03*
X136480000Y-83060000D03*
X125450000Y-49100000D03*
X110950000Y-75970000D03*
X138870000Y-53890000D03*
X137170000Y-61520000D03*
X122300000Y-64500000D03*
X128750000Y-74050000D03*
X144880000Y-38000000D03*
X124650000Y-59000000D03*
X150500000Y-68700000D03*
X142350000Y-41950000D03*
X139790000Y-41940000D03*
X123180000Y-87280000D03*
X137250000Y-44480000D03*
X149120000Y-65200000D03*
X136000000Y-49450000D03*
X118430000Y-48040000D03*
X138410000Y-89150000D03*
X124840000Y-71920000D03*
X122300000Y-71920000D03*
X138510000Y-61510000D03*
X112650000Y-66890000D03*
X131540000Y-77050000D03*
X137250000Y-39400000D03*
X125720000Y-84740000D03*
X150500000Y-73780000D03*
X115040000Y-56300000D03*
X118430000Y-50580000D03*
X150500000Y-81400000D03*
X144370000Y-69940000D03*
X149450000Y-82650000D03*
X150500000Y-43300000D03*
X134080000Y-58500000D03*
X110950000Y-83590000D03*
X123500000Y-52480000D03*
X150500000Y-76320000D03*
X147430000Y-51980000D03*
X123650000Y-59000000D03*
X130450000Y-75100000D03*
X112600000Y-78790000D03*
X136100000Y-63600000D03*
X144450000Y-82200000D03*
X117730000Y-66890000D03*
X150500000Y-78860000D03*
X134650000Y-68450000D03*
X113350000Y-50590000D03*
X139630000Y-58580000D03*
X139800000Y-38000000D03*
X126980000Y-76550000D03*
X118100000Y-87280000D03*
X110950000Y-78510000D03*
X129100000Y-82800000D03*
X118430000Y-45500000D03*
X150500000Y-50920000D03*
X118100000Y-84740000D03*
X110950000Y-63270000D03*
X110950000Y-45490000D03*
X110950000Y-60730000D03*
X142350000Y-49440000D03*
X116940000Y-38000000D03*
X127100000Y-38000000D03*
X134080000Y-77050000D03*
X131140000Y-61500000D03*
X145870000Y-60800000D03*
X117580000Y-56300000D03*
X141380000Y-84680000D03*
X142350000Y-44450000D03*
X110950000Y-58190000D03*
X122300000Y-60200000D03*
X118100000Y-82200000D03*
X144890000Y-51980000D03*
X134050000Y-64200000D03*
X129630000Y-41940000D03*
X123170000Y-89150000D03*
X132140000Y-61500000D03*
X120640000Y-82200000D03*
X110950000Y-70890000D03*
X150500000Y-83940000D03*
X115040000Y-58840000D03*
X122300000Y-66840000D03*
X125720000Y-82200000D03*
X127090000Y-41940000D03*
X141350000Y-89150000D03*
X128900000Y-65500000D03*
X128900000Y-66500000D03*
X125720000Y-87280000D03*
X150500000Y-56000000D03*
X110950000Y-81050000D03*
X123180000Y-84740000D03*
X115890000Y-45500000D03*
X117580000Y-58840000D03*
X130530000Y-49100000D03*
X127090000Y-44480000D03*
X135150000Y-84700000D03*
X118400000Y-39400000D03*
X120120000Y-56300000D03*
X146030000Y-89150000D03*
X121750000Y-73950000D03*
X133700000Y-83250000D03*
X128700000Y-56800000D03*
X112500000Y-58840000D03*
X144890000Y-49440000D03*
X115190000Y-66890000D03*
X138330000Y-58580000D03*
X113350000Y-45500000D03*
X120640000Y-84740000D03*
X144370000Y-72940000D03*
X125710000Y-89150000D03*
X144890000Y-46900000D03*
X124440000Y-76550000D03*
X126980000Y-79090000D03*
X137200000Y-57400000D03*
X150500000Y-45840000D03*
X124250000Y-55250000D03*
X125450000Y-51640000D03*
X138540000Y-49450000D03*
X135100000Y-81700000D03*
X121850000Y-55450000D03*
X132600000Y-57400000D03*
X124550000Y-41940000D03*
X137250000Y-64700000D03*
X140930000Y-58580000D03*
X139790000Y-44480000D03*
X118400000Y-41940000D03*
X129640000Y-38000000D03*
X122300000Y-58050000D03*
X147430000Y-49440000D03*
X142350000Y-39400000D03*
X134710000Y-39400000D03*
X150500000Y-48380000D03*
X130100000Y-59700000D03*
X127090000Y-39400000D03*
X134650000Y-69500000D03*
X124440000Y-79090000D03*
X145870000Y-62300000D03*
X141380000Y-62770000D03*
X122300000Y-69800000D03*
X115890000Y-50590000D03*
X145990000Y-56560000D03*
X123500000Y-73950000D03*
X137000000Y-69400000D03*
X115550000Y-89150000D03*
X120600000Y-61850000D03*
X134000000Y-70200000D03*
X123500000Y-49940000D03*
X142340000Y-38000000D03*
X150500000Y-63620000D03*
X150500000Y-53460000D03*
X115140000Y-78790000D03*
X137000000Y-53900000D03*
X144370000Y-65440000D03*
X145870000Y-66940000D03*
X124560000Y-38000000D03*
X115140000Y-76250000D03*
X127990000Y-49100000D03*
X133330000Y-89150000D03*
X134100000Y-55800000D03*
X119480000Y-38000000D03*
X110950000Y-65810000D03*
X128260000Y-87280000D03*
X110950000Y-68350000D03*
X132180000Y-38000000D03*
X120000000Y-75900000D03*
X134900000Y-53900000D03*
X110950000Y-50570000D03*
X112600000Y-71500000D03*
X145870000Y-69940000D03*
X141380000Y-87220000D03*
X125350000Y-60650000D03*
X134000000Y-71000000D03*
X120800000Y-74900000D03*
X147430000Y-46900000D03*
X125750000Y-57050000D03*
X130500000Y-66650000D03*
X115140000Y-71500000D03*
X138500000Y-72600000D03*
X124550000Y-44480000D03*
X120640000Y-87280000D03*
X125650000Y-59000000D03*
X128700000Y-58300000D03*
X130200000Y-81900000D03*
X134600000Y-50800000D03*
X145870000Y-72940000D03*
X115190000Y-64350000D03*
X112600000Y-81330000D03*
X123180000Y-82200000D03*
X150500000Y-58540000D03*
X128700000Y-59700000D03*
X121900000Y-79090000D03*
X144370000Y-68440000D03*
X128250000Y-89150000D03*
X141260000Y-69390000D03*
X132350000Y-81900000D03*
X141900000Y-82150000D03*
X117730000Y-64350000D03*
X142350000Y-46900000D03*
X127380000Y-71920000D03*
X126650000Y-62100000D03*
X133450000Y-67250000D03*
X115140000Y-74040000D03*
X145870000Y-68440000D03*
X134100000Y-61100000D03*
X143490000Y-89150000D03*
X132600000Y-55800000D03*
X141400000Y-64750000D03*
X142350000Y-51980000D03*
X121900000Y-76550000D03*
X132170000Y-44480000D03*
X137250000Y-41940000D03*
X132170000Y-41940000D03*
X129630000Y-39400000D03*
X117680000Y-71500000D03*
X120120000Y-58840000D03*
X145870000Y-71440000D03*
X138420000Y-87280000D03*
X135840000Y-82400000D03*
X110950000Y-48030000D03*
X110950000Y-42950000D03*
X150500000Y-66160000D03*
X112500000Y-56300000D03*
X144370000Y-66940000D03*
X134710000Y-44480000D03*
X137260000Y-38000000D03*
X136620000Y-77050000D03*
X112600000Y-76250000D03*
X139790000Y-39400000D03*
X130140000Y-61500000D03*
X144370000Y-71440000D03*
X110950000Y-73430000D03*
X125300000Y-68400000D03*
X120100000Y-64550000D03*
X127800000Y-69300000D03*
X135750000Y-62500000D03*
X129400000Y-69800000D03*
X127800000Y-68400000D03*
X126900000Y-69300000D03*
X130500000Y-67750000D03*
X128700000Y-69300000D03*
X126900000Y-68400000D03*
X142170000Y-55770000D03*
X128700000Y-68400000D03*
X127550000Y-54300000D03*
X130500001Y-68600001D03*
X149850000Y-62200000D03*
X125600000Y-62750000D03*
X128700000Y-67700000D03*
X137000000Y-72400000D03*
X137000000Y-73100000D03*
X137000000Y-70300000D03*
X137000000Y-71000000D03*
X137000000Y-71700000D03*
X142250000Y-59300000D03*
X142250000Y-64350000D03*
X133553652Y-65526383D03*
X134471232Y-74971232D03*
X130950000Y-64726818D03*
X130550000Y-74100000D03*
X132571082Y-65392343D03*
X133400000Y-75000000D03*
X131235996Y-74511598D03*
X131655548Y-65325339D03*
X134350000Y-65450000D03*
X135380853Y-74804075D03*
X139925735Y-60674265D03*
X131600000Y-60700000D03*
X130850934Y-60150000D03*
X141100000Y-61550000D03*
X130950000Y-52700000D03*
X131450000Y-52075499D03*
X133800000Y-56875000D03*
X130000000Y-57400000D03*
D37*
X120100000Y-64550000D02*
X119900000Y-64750000D01*
X119900000Y-64750000D02*
X119900000Y-69100000D01*
D38*
X130500001Y-68600001D02*
X131549999Y-68600001D01*
D39*
X125380000Y-61700000D02*
X125730000Y-61350000D01*
X134807500Y-63520000D02*
X134050000Y-62762500D01*
D38*
X131550000Y-68600000D02*
X131550000Y-70130000D01*
D39*
X142170000Y-55770000D02*
X142030000Y-55910000D01*
D38*
X131425000Y-70795000D02*
X131425000Y-72500000D01*
D39*
X127550000Y-53380000D02*
X127600000Y-53330000D01*
D38*
X131550000Y-70130000D02*
X131820000Y-70400000D01*
D39*
X125600000Y-62750000D02*
X125300000Y-62450000D01*
X142020000Y-55910000D02*
X142017500Y-55912500D01*
X135750000Y-62870000D02*
X135100000Y-63520000D01*
X135750000Y-62500000D02*
X135750000Y-61637500D01*
X127800000Y-54550000D02*
X128437500Y-54550000D01*
X149850000Y-62200000D02*
X149490000Y-61840000D01*
X137220000Y-62500000D02*
X137250000Y-62470000D01*
X125730000Y-61350000D02*
X127137500Y-61350000D01*
X127550000Y-54300000D02*
X127800000Y-54550000D01*
X142017500Y-55912500D02*
X140950000Y-55912500D01*
X135750000Y-62500000D02*
X137220000Y-62500000D01*
X138670000Y-62470000D02*
X139050000Y-62850000D01*
X135750000Y-61637500D02*
X135462500Y-61350000D01*
X135100000Y-63520000D02*
X134807500Y-63520000D01*
X149490000Y-61840000D02*
X148000000Y-61840000D01*
X127550000Y-54300000D02*
X127550000Y-53380000D01*
X125300000Y-62450000D02*
X125300000Y-61780000D01*
X135750000Y-62500000D02*
X135750000Y-62870000D01*
X125300000Y-61780000D02*
X125380000Y-61700000D01*
X128437500Y-54550000D02*
X128550000Y-54437500D01*
D38*
X131549999Y-68600001D02*
X131550000Y-68600000D01*
D39*
X142030000Y-55910000D02*
X142020000Y-55910000D01*
D38*
X131820000Y-70400000D02*
X131425000Y-70795000D01*
D39*
X137250000Y-62470000D02*
X138670000Y-62470000D01*
D40*
X127170000Y-73150000D02*
X127200000Y-73120000D01*
X125600000Y-73150000D02*
X127170000Y-73150000D01*
X119200000Y-75400000D02*
X121450000Y-73150000D01*
X128205000Y-73120000D02*
X128825000Y-72500000D01*
X127200000Y-73120000D02*
X128205000Y-73120000D01*
X119200000Y-77550000D02*
X119200000Y-75400000D01*
X121450000Y-73150000D02*
X125600000Y-73150000D01*
D41*
X146920000Y-65200000D02*
X146920000Y-66120000D01*
X142200000Y-59250000D02*
X137132410Y-59250000D01*
X146320000Y-64600000D02*
X146920000Y-65200000D01*
X142250000Y-57400000D02*
X142890000Y-56760000D01*
X137132410Y-59250000D02*
X136232410Y-58350000D01*
X142890000Y-56760000D02*
X144100000Y-56760000D01*
X136232410Y-58350000D02*
X135462500Y-58350000D01*
X146920000Y-66120000D02*
X148300000Y-67500000D01*
X142250000Y-59300000D02*
X142200000Y-59250000D01*
X142250000Y-59300000D02*
X142250000Y-57400000D01*
X142500000Y-64600000D02*
X146320000Y-64600000D01*
X142250000Y-64350000D02*
X142500000Y-64600000D01*
D38*
X138450000Y-56470000D02*
X139500000Y-56470000D01*
D41*
X137112410Y-56470000D02*
X138450000Y-56470000D01*
X135462500Y-57350000D02*
X136232410Y-57350000D01*
X136232410Y-57350000D02*
X137112410Y-56470000D01*
D38*
X139932500Y-56470000D02*
X140950000Y-57487500D01*
X139500000Y-56470000D02*
X139932500Y-56470000D01*
D41*
X130050000Y-62762500D02*
X130050000Y-63884314D01*
X130125000Y-69709925D02*
X130125000Y-72500000D01*
X130050000Y-63884314D02*
X129450000Y-64484314D01*
X129450000Y-69034925D02*
X130125000Y-69709925D01*
X129450000Y-64484314D02*
X129450000Y-69034925D01*
X134471232Y-74971232D02*
X134471232Y-73996232D01*
X134471232Y-73996232D02*
X134025000Y-73550000D01*
X133553652Y-65526383D02*
X132550000Y-64522731D01*
X134025000Y-73550000D02*
X134025000Y-72500000D01*
X132550000Y-64522731D02*
X132550000Y-62762500D01*
D40*
X132725000Y-79700000D02*
X132725000Y-81125000D01*
D37*
X133375000Y-81775000D02*
X136300000Y-84700000D01*
X136300000Y-84700000D02*
X137250000Y-84700000D01*
D40*
X133375000Y-79700000D02*
X133375000Y-81775000D01*
X132725000Y-81125000D02*
X133375000Y-81775000D01*
X129475000Y-80525000D02*
X128825000Y-81175000D01*
D37*
X127400000Y-82600000D02*
X127400000Y-84700000D01*
D40*
X128825000Y-81175000D02*
X128825000Y-79700000D01*
X129475000Y-79700000D02*
X129475000Y-80525000D01*
D37*
X128825000Y-81175000D02*
X127400000Y-82600000D01*
D40*
X135325000Y-79700000D02*
X135325000Y-80275000D01*
D37*
X135975000Y-80925000D02*
X139750000Y-84700000D01*
D40*
X135975000Y-79700000D02*
X135975000Y-80925000D01*
X135325000Y-80275000D02*
X135975000Y-80925000D01*
D41*
X131050000Y-64626818D02*
X131050000Y-62762500D01*
X130550000Y-74100000D02*
X130000000Y-74100000D01*
X130950000Y-64726818D02*
X131050000Y-64626818D01*
X129475000Y-73575000D02*
X129475000Y-72500000D01*
X130000000Y-74100000D02*
X129475000Y-73575000D01*
X129850000Y-68869239D02*
X129850000Y-64650000D01*
X130800000Y-69819239D02*
X129850000Y-68869239D01*
X130800000Y-72475000D02*
X130800000Y-69819239D01*
X129850000Y-64650000D02*
X130550000Y-63950000D01*
X130775000Y-72500000D02*
X130800000Y-72475000D01*
X130550000Y-63950000D02*
X130550000Y-62762500D01*
X132571082Y-65392343D02*
X132050000Y-64871261D01*
X133375000Y-73575000D02*
X133375000Y-72500000D01*
X132050000Y-64871261D02*
X132050000Y-62762500D01*
X133400000Y-73600000D02*
X133375000Y-73575000D01*
X133400000Y-75000000D02*
X133400000Y-73600000D01*
D40*
X131425000Y-81525000D02*
X131425000Y-79700000D01*
D37*
X131425000Y-83175000D02*
X129900000Y-84700000D01*
D40*
X131425000Y-81475000D02*
X131425000Y-81525000D01*
X132075000Y-79700000D02*
X132075000Y-80825000D01*
X132075000Y-80825000D02*
X131425000Y-81475000D01*
D37*
X131425000Y-81525000D02*
X131425000Y-83175000D01*
D41*
X131655548Y-65042495D02*
X131550000Y-64936947D01*
X131235996Y-74511598D02*
X131235996Y-74389004D01*
X131550000Y-64936947D02*
X131550000Y-62762500D01*
X131655548Y-65325339D02*
X131655548Y-65042495D01*
X132075000Y-73550000D02*
X132075000Y-72500000D01*
X131235996Y-74389004D02*
X132075000Y-73550000D01*
X135380853Y-74804075D02*
X135380853Y-74255853D01*
X133052319Y-62764819D02*
X133050000Y-62762500D01*
X133052319Y-64152319D02*
X133052319Y-62764819D01*
X134675000Y-73550000D02*
X134675000Y-72500000D01*
X135380853Y-74255853D02*
X134675000Y-73550000D01*
X134350000Y-65450000D02*
X133052319Y-64152319D01*
X127137500Y-55850000D02*
X126433276Y-55850000D01*
X126433276Y-55850000D02*
X124600000Y-54016724D01*
X124600000Y-46700000D02*
X121500000Y-43600000D01*
X124600000Y-54016724D02*
X124600000Y-46700000D01*
X124200000Y-46865686D02*
X124200000Y-54182410D01*
X124200000Y-54182410D02*
X126367590Y-56350000D01*
X121500000Y-45600000D02*
X122934314Y-45600000D01*
X126367590Y-56350000D02*
X127137500Y-56350000D01*
X122934314Y-45600000D02*
X124200000Y-46865686D01*
X123150000Y-58350000D02*
X119200000Y-62300000D01*
X127137500Y-58350000D02*
X123150000Y-58350000D01*
X127137500Y-57850000D02*
X123150000Y-57850000D01*
X123150000Y-57850000D02*
X119300000Y-54000000D01*
X128550000Y-62762500D02*
X128550000Y-61992590D01*
X128817590Y-61725000D02*
X128825000Y-61725000D01*
X140030000Y-60570000D02*
X144100000Y-60570000D01*
X131550000Y-60750000D02*
X131600000Y-60700000D01*
X128550000Y-61992590D02*
X128817590Y-61725000D01*
X129800000Y-60750000D02*
X131550000Y-60750000D01*
X128825000Y-61725000D02*
X129800000Y-60750000D01*
X139925735Y-60674265D02*
X140030000Y-60570000D01*
X130650934Y-60350000D02*
X127137500Y-60350000D01*
X141390000Y-61840000D02*
X144100000Y-61840000D01*
X141100000Y-61550000D02*
X141390000Y-61840000D01*
X130850934Y-60150000D02*
X130650934Y-60350000D01*
X136362500Y-54950000D02*
X135462500Y-55850000D01*
X144100000Y-55490000D02*
X143560000Y-54950000D01*
X143560000Y-54950000D02*
X136362500Y-54950000D01*
X134162500Y-54550000D02*
X147060000Y-54550000D01*
X147060000Y-54550000D02*
X148000000Y-55490000D01*
X134050000Y-54437500D02*
X134162500Y-54550000D01*
X133050000Y-50684314D02*
X133050000Y-54437500D01*
X134900000Y-48834314D02*
X133050000Y-50684314D01*
X134900000Y-47200000D02*
X134900000Y-48834314D01*
X132050000Y-54437500D02*
X132050000Y-49350000D01*
X132050000Y-49350000D02*
X129900000Y-47200000D01*
X137100000Y-47200000D02*
X133550000Y-50750000D01*
X137400000Y-47200000D02*
X137100000Y-47200000D01*
X133550000Y-50750000D02*
X133550000Y-54437500D01*
X132400000Y-47200000D02*
X132550000Y-47350000D01*
X132550000Y-47350000D02*
X132550000Y-54437500D01*
X131050000Y-52800000D02*
X131050000Y-54437500D01*
X130950000Y-52700000D02*
X131050000Y-52800000D01*
X131550000Y-52175499D02*
X131550000Y-54437500D01*
X131450000Y-52075499D02*
X131550000Y-52175499D01*
X130550000Y-55207410D02*
X130550000Y-54437500D01*
X132217590Y-56875000D02*
X130550000Y-55207410D01*
X133800000Y-56875000D02*
X132217590Y-56875000D01*
X130050000Y-57350000D02*
X130050000Y-54437500D01*
X130000000Y-57400000D02*
X130050000Y-57350000D01*
G04 #@! TA.AperFunction,Conductor*
G36*
X137793039Y-70019685D02*
G01*
X137838794Y-70072489D01*
X137850000Y-70124000D01*
X137850000Y-73376000D01*
X137830315Y-73443039D01*
X137777511Y-73488794D01*
X137726000Y-73500000D01*
X136824000Y-73500000D01*
X136756961Y-73480315D01*
X136711206Y-73427511D01*
X136700000Y-73376000D01*
X136700000Y-72725000D01*
X136099000Y-72725000D01*
X136031961Y-72705315D01*
X135986206Y-72652511D01*
X135975000Y-72601000D01*
X135975000Y-72500000D01*
X135874000Y-72500000D01*
X135806961Y-72480315D01*
X135761206Y-72427511D01*
X135750000Y-72376000D01*
X135750000Y-72275000D01*
X136200000Y-72275000D01*
X136700000Y-72275000D01*
X136700000Y-71577172D01*
X136699999Y-71577155D01*
X136693598Y-71517627D01*
X136693596Y-71517620D01*
X136643354Y-71382913D01*
X136643350Y-71382906D01*
X136557190Y-71267812D01*
X136557187Y-71267809D01*
X136442093Y-71181649D01*
X136442086Y-71181645D01*
X136307379Y-71131403D01*
X136307372Y-71131401D01*
X136247844Y-71125000D01*
X136200000Y-71125000D01*
X136200000Y-72275000D01*
X135750000Y-72275000D01*
X135750000Y-71125000D01*
X135702164Y-71125000D01*
X135663252Y-71129183D01*
X135636748Y-71129183D01*
X135597835Y-71125000D01*
X135550000Y-71125000D01*
X135550000Y-72376000D01*
X135547449Y-72384685D01*
X135548738Y-72393647D01*
X135537759Y-72417687D01*
X135530315Y-72443039D01*
X135523474Y-72448966D01*
X135519713Y-72457203D01*
X135497478Y-72471492D01*
X135477511Y-72488794D01*
X135466996Y-72491081D01*
X135460935Y-72494977D01*
X135426000Y-72500000D01*
X135224500Y-72500000D01*
X135157461Y-72480315D01*
X135111706Y-72427511D01*
X135100500Y-72376000D01*
X135100500Y-71604262D01*
X135100000Y-71594084D01*
X135100000Y-71125000D01*
X135086319Y-71111319D01*
X135052834Y-71049996D01*
X135050000Y-71023638D01*
X135050000Y-70124000D01*
X135069685Y-70056961D01*
X135122489Y-70011206D01*
X135174000Y-70000000D01*
X137726000Y-70000000D01*
X137793039Y-70019685D01*
G37*
G04 #@! TD.AperFunction*
G04 #@! TA.AperFunction,Conductor*
G36*
X142154075Y-79887007D02*
G01*
X142120000Y-80014174D01*
X142120000Y-80145826D01*
X142154075Y-80272993D01*
X142186988Y-80330000D01*
X140513012Y-80330000D01*
X140545925Y-80272993D01*
X140580000Y-80145826D01*
X140580000Y-80014174D01*
X140545925Y-79887007D01*
X140513012Y-79830000D01*
X142186988Y-79830000D01*
X142154075Y-79887007D01*
G37*
G04 #@! TD.AperFunction*
G04 #@! TA.AperFunction,Conductor*
G36*
X144694075Y-79887007D02*
G01*
X144660000Y-80014174D01*
X144660000Y-80145826D01*
X144694075Y-80272993D01*
X144726988Y-80330000D01*
X143053012Y-80330000D01*
X143085925Y-80272993D01*
X143120000Y-80145826D01*
X143120000Y-80014174D01*
X143085925Y-79887007D01*
X143053012Y-79830000D01*
X144726988Y-79830000D01*
X144694075Y-79887007D01*
G37*
G04 #@! TD.AperFunction*
G04 #@! TA.AperFunction,Conductor*
G36*
X147234075Y-79887007D02*
G01*
X147200000Y-80014174D01*
X147200000Y-80145826D01*
X147234075Y-80272993D01*
X147266988Y-80330000D01*
X145593012Y-80330000D01*
X145625925Y-80272993D01*
X145660000Y-80145826D01*
X145660000Y-80014174D01*
X145625925Y-79887007D01*
X145593012Y-79830000D01*
X147266988Y-79830000D01*
X147234075Y-79887007D01*
G37*
G04 #@! TD.AperFunction*
G04 #@! TA.AperFunction,Conductor*
G36*
X147002855Y-37650632D02*
G01*
X147358697Y-37667083D01*
X147370086Y-37668139D01*
X147720051Y-37716957D01*
X147731295Y-37719059D01*
X148075261Y-37799959D01*
X148086251Y-37803086D01*
X148421306Y-37915385D01*
X148431960Y-37919513D01*
X148755209Y-38062241D01*
X148765436Y-38067333D01*
X149006689Y-38201710D01*
X149074131Y-38239275D01*
X149083869Y-38245304D01*
X149375374Y-38444990D01*
X149384511Y-38451890D01*
X149609752Y-38638927D01*
X149656356Y-38677626D01*
X149664820Y-38685343D01*
X149914656Y-38935179D01*
X149922373Y-38943643D01*
X150148107Y-39215485D01*
X150155009Y-39224625D01*
X150354695Y-39516130D01*
X150360724Y-39525868D01*
X150532659Y-39834550D01*
X150537762Y-39844799D01*
X150680481Y-40168026D01*
X150684619Y-40178706D01*
X150796909Y-40513735D01*
X150800043Y-40524751D01*
X150880938Y-40868696D01*
X150883043Y-40879955D01*
X150931859Y-41229905D01*
X150932916Y-41241309D01*
X150949368Y-41597144D01*
X150949500Y-41602871D01*
X150949500Y-85597128D01*
X150949368Y-85602855D01*
X150932916Y-85958690D01*
X150931859Y-85970094D01*
X150883043Y-86320044D01*
X150880938Y-86331303D01*
X150800043Y-86675248D01*
X150796909Y-86686264D01*
X150684619Y-87021293D01*
X150680481Y-87031973D01*
X150537764Y-87355196D01*
X150532659Y-87365449D01*
X150360724Y-87674131D01*
X150354695Y-87683869D01*
X150155009Y-87975374D01*
X150148107Y-87984514D01*
X149922373Y-88256356D01*
X149914656Y-88264820D01*
X149664820Y-88514656D01*
X149656356Y-88522373D01*
X149384514Y-88748107D01*
X149375374Y-88755009D01*
X149083869Y-88954695D01*
X149074131Y-88960724D01*
X148765449Y-89132659D01*
X148755196Y-89137764D01*
X148431973Y-89280481D01*
X148421293Y-89284619D01*
X148086264Y-89396909D01*
X148075248Y-89400043D01*
X147731303Y-89480938D01*
X147720044Y-89483043D01*
X147370094Y-89531859D01*
X147358690Y-89532916D01*
X147002855Y-89549368D01*
X146997128Y-89549500D01*
X114402872Y-89549500D01*
X114397145Y-89549368D01*
X114041309Y-89532916D01*
X114029905Y-89531859D01*
X113679955Y-89483043D01*
X113668696Y-89480938D01*
X113324751Y-89400043D01*
X113313735Y-89396909D01*
X112978706Y-89284619D01*
X112968026Y-89280481D01*
X112644803Y-89137764D01*
X112634555Y-89132661D01*
X112534830Y-89077115D01*
X112325868Y-88960724D01*
X112316130Y-88954695D01*
X112024625Y-88755009D01*
X112015485Y-88748107D01*
X111743643Y-88522373D01*
X111735179Y-88514656D01*
X111485343Y-88264820D01*
X111477626Y-88256356D01*
X111318467Y-88064687D01*
X111318465Y-88064684D01*
X111251893Y-87984514D01*
X111244990Y-87975374D01*
X111045304Y-87683869D01*
X111039275Y-87674131D01*
X110917033Y-87454664D01*
X110867333Y-87365436D01*
X110862241Y-87355209D01*
X110719513Y-87031960D01*
X110715385Y-87021306D01*
X110603086Y-86686251D01*
X110599959Y-86675261D01*
X110519059Y-86331295D01*
X110516956Y-86320044D01*
X110497624Y-86181460D01*
X110468139Y-85970086D01*
X110467083Y-85958690D01*
X110462526Y-85860131D01*
X110450632Y-85602855D01*
X110450500Y-85597128D01*
X110450500Y-85420287D01*
X111200000Y-85420287D01*
X111200000Y-85779712D01*
X111240240Y-86136851D01*
X111240242Y-86136863D01*
X111320219Y-86487268D01*
X111320220Y-86487270D01*
X111438927Y-86826517D01*
X111594870Y-87150336D01*
X111786092Y-87454664D01*
X111966081Y-87680364D01*
X113284728Y-86361717D01*
X113370278Y-86479466D01*
X113520534Y-86629722D01*
X113638281Y-86715270D01*
X112319634Y-88033916D01*
X112319634Y-88033917D01*
X112545335Y-88213907D01*
X112849663Y-88405129D01*
X113173482Y-88561072D01*
X113512729Y-88679779D01*
X113512731Y-88679780D01*
X113863136Y-88759757D01*
X113863148Y-88759759D01*
X114220287Y-88799999D01*
X114220289Y-88800000D01*
X114579711Y-88800000D01*
X114579712Y-88799999D01*
X114936851Y-88759759D01*
X114936863Y-88759757D01*
X115287268Y-88679780D01*
X115287270Y-88679779D01*
X115626517Y-88561072D01*
X115950336Y-88405129D01*
X116254664Y-88213907D01*
X116480364Y-88033916D01*
X115161718Y-86715270D01*
X115279466Y-86629722D01*
X115429722Y-86479466D01*
X115515270Y-86361718D01*
X116833916Y-87680364D01*
X117013907Y-87454664D01*
X117205129Y-87150336D01*
X117361072Y-86826517D01*
X117479779Y-86487270D01*
X117479780Y-86487268D01*
X117559757Y-86136863D01*
X117559759Y-86136851D01*
X117599999Y-85779712D01*
X117600000Y-85779710D01*
X117600000Y-85420289D01*
X117599999Y-85420287D01*
X117559759Y-85063148D01*
X117559757Y-85063136D01*
X117479780Y-84712733D01*
X117398833Y-84481398D01*
X117398832Y-84481396D01*
X117386632Y-84446530D01*
X126349500Y-84446530D01*
X126349500Y-84953469D01*
X126389868Y-85156412D01*
X126389870Y-85156420D01*
X126469058Y-85347596D01*
X126584024Y-85519657D01*
X126730342Y-85665975D01*
X126730345Y-85665977D01*
X126902402Y-85780941D01*
X127093580Y-85860130D01*
X127282187Y-85897646D01*
X127296530Y-85900499D01*
X127296534Y-85900500D01*
X127296535Y-85900500D01*
X127503466Y-85900500D01*
X127503467Y-85900499D01*
X127706420Y-85860130D01*
X127897598Y-85780941D01*
X128069655Y-85665977D01*
X128215977Y-85519655D01*
X128330941Y-85347598D01*
X128410130Y-85156420D01*
X128450500Y-84953465D01*
X128450500Y-84446535D01*
X128410130Y-84243580D01*
X128330941Y-84052402D01*
X128270353Y-83961725D01*
X128270352Y-83961722D01*
X128226257Y-83895730D01*
X128849500Y-83895730D01*
X128849500Y-85504269D01*
X128852353Y-85534699D01*
X128852353Y-85534701D01*
X128897206Y-85662880D01*
X128897207Y-85662882D01*
X128977850Y-85772150D01*
X129087118Y-85852793D01*
X129108089Y-85860131D01*
X129215299Y-85897646D01*
X129245730Y-85900500D01*
X129245734Y-85900500D01*
X130554270Y-85900500D01*
X130584699Y-85897646D01*
X130584701Y-85897646D01*
X130648790Y-85875219D01*
X130712882Y-85852793D01*
X130822150Y-85772150D01*
X130902793Y-85662882D01*
X130940252Y-85555830D01*
X130947646Y-85534701D01*
X130947646Y-85534699D01*
X130950500Y-85504269D01*
X130950500Y-84337965D01*
X130970185Y-84270926D01*
X130986819Y-84250284D01*
X131356762Y-83880341D01*
X131785490Y-83451614D01*
X131844799Y-83348887D01*
X131851285Y-83324675D01*
X131851286Y-83324675D01*
X131851286Y-83324671D01*
X131875500Y-83234309D01*
X131875500Y-81642255D01*
X131895185Y-81575216D01*
X131911819Y-81554574D01*
X132042797Y-81423596D01*
X132177136Y-81289256D01*
X132238457Y-81255773D01*
X132308148Y-81260757D01*
X132364082Y-81302628D01*
X132372201Y-81314937D01*
X132388810Y-81343703D01*
X132404520Y-81370913D01*
X132404522Y-81370915D01*
X132921716Y-81888109D01*
X132953808Y-81943691D01*
X132955199Y-81948884D01*
X132955200Y-81948886D01*
X132955201Y-81948887D01*
X133014511Y-82051614D01*
X136023386Y-85060490D01*
X136126113Y-85119799D01*
X136150326Y-85126286D01*
X136158843Y-85128568D01*
X136177947Y-85133688D01*
X136210825Y-85153730D01*
X136237603Y-85170052D01*
X136237606Y-85170055D01*
X136237609Y-85170062D01*
X136260409Y-85206007D01*
X136319058Y-85347597D01*
X136434024Y-85519657D01*
X136580342Y-85665975D01*
X136580345Y-85665977D01*
X136752402Y-85780941D01*
X136943580Y-85860130D01*
X137132187Y-85897646D01*
X137146530Y-85900499D01*
X137146534Y-85900500D01*
X137146535Y-85900500D01*
X137353466Y-85900500D01*
X137353467Y-85900499D01*
X137556420Y-85860130D01*
X137747598Y-85780941D01*
X137919655Y-85665977D01*
X137988504Y-85597128D01*
X138059314Y-85526319D01*
X138120637Y-85492834D01*
X138146995Y-85490000D01*
X138598730Y-85490000D01*
X138665769Y-85509685D01*
X138711524Y-85562489D01*
X138715771Y-85573044D01*
X138747206Y-85662880D01*
X138747207Y-85662882D01*
X138827850Y-85772150D01*
X138937118Y-85852793D01*
X138958089Y-85860131D01*
X139065299Y-85897646D01*
X139095730Y-85900500D01*
X139095734Y-85900500D01*
X140404270Y-85900500D01*
X140434699Y-85897646D01*
X140434701Y-85897646D01*
X140498790Y-85875219D01*
X140562882Y-85852793D01*
X140672150Y-85772150D01*
X140752793Y-85662882D01*
X140790252Y-85555830D01*
X140797646Y-85534701D01*
X140797646Y-85534699D01*
X140800500Y-85504269D01*
X140800500Y-85420287D01*
X143800000Y-85420287D01*
X143800000Y-85779712D01*
X143840240Y-86136851D01*
X143840242Y-86136863D01*
X143920219Y-86487268D01*
X143920220Y-86487270D01*
X144038927Y-86826517D01*
X144194870Y-87150336D01*
X144386092Y-87454664D01*
X144566081Y-87680364D01*
X145884728Y-86361717D01*
X145970278Y-86479466D01*
X146120534Y-86629722D01*
X146238281Y-86715270D01*
X144919634Y-88033916D01*
X144919634Y-88033917D01*
X145145335Y-88213907D01*
X145449663Y-88405129D01*
X145773482Y-88561072D01*
X146112729Y-88679779D01*
X146112731Y-88679780D01*
X146463136Y-88759757D01*
X146463148Y-88759759D01*
X146820287Y-88799999D01*
X146820289Y-88800000D01*
X147179711Y-88800000D01*
X147179712Y-88799999D01*
X147536851Y-88759759D01*
X147536863Y-88759757D01*
X147887268Y-88679780D01*
X147887270Y-88679779D01*
X148226517Y-88561072D01*
X148550336Y-88405129D01*
X148854664Y-88213907D01*
X149080364Y-88033916D01*
X147761718Y-86715270D01*
X147879466Y-86629722D01*
X148029722Y-86479466D01*
X148115270Y-86361718D01*
X149433916Y-87680364D01*
X149613907Y-87454664D01*
X149805129Y-87150336D01*
X149961072Y-86826517D01*
X150079779Y-86487270D01*
X150079780Y-86487268D01*
X150159757Y-86136863D01*
X150159759Y-86136851D01*
X150199999Y-85779712D01*
X150200000Y-85779710D01*
X150200000Y-85420289D01*
X150199999Y-85420287D01*
X150159759Y-85063148D01*
X150159757Y-85063136D01*
X150079780Y-84712731D01*
X150079779Y-84712729D01*
X149961072Y-84373482D01*
X149805129Y-84049663D01*
X149613907Y-83745335D01*
X149433916Y-83519634D01*
X148115270Y-84838281D01*
X148029722Y-84720534D01*
X147879466Y-84570278D01*
X147761716Y-84484728D01*
X149080364Y-83166081D01*
X148854664Y-82986092D01*
X148550336Y-82794870D01*
X148226517Y-82638927D01*
X147887270Y-82520220D01*
X147887268Y-82520219D01*
X147536863Y-82440242D01*
X147536851Y-82440240D01*
X147179712Y-82400000D01*
X146820287Y-82400000D01*
X146463148Y-82440240D01*
X146463136Y-82440242D01*
X146112731Y-82520219D01*
X146112729Y-82520220D01*
X145773482Y-82638927D01*
X145449663Y-82794870D01*
X145145335Y-82986092D01*
X144919634Y-83166081D01*
X146238282Y-84484729D01*
X146120534Y-84570278D01*
X145970278Y-84720534D01*
X145884729Y-84838282D01*
X144566081Y-83519634D01*
X144386092Y-83745335D01*
X144194870Y-84049663D01*
X144038927Y-84373482D01*
X143920220Y-84712729D01*
X143920219Y-84712731D01*
X143840242Y-85063136D01*
X143840240Y-85063148D01*
X143800000Y-85420287D01*
X140800500Y-85420287D01*
X140800500Y-83895730D01*
X140797646Y-83865300D01*
X140797646Y-83865298D01*
X140752793Y-83737119D01*
X140752792Y-83737117D01*
X140672150Y-83627850D01*
X140562882Y-83547207D01*
X140562880Y-83547206D01*
X140434700Y-83502353D01*
X140404270Y-83499500D01*
X140404266Y-83499500D01*
X139237965Y-83499500D01*
X139208524Y-83490855D01*
X139178538Y-83484332D01*
X139173522Y-83480577D01*
X139170926Y-83479815D01*
X139150284Y-83463181D01*
X136427681Y-80740578D01*
X136394196Y-80679255D01*
X136393745Y-80628707D01*
X136400500Y-80594748D01*
X136400500Y-79830000D01*
X138752769Y-79830000D01*
X139646988Y-79830000D01*
X139614075Y-79887007D01*
X139580000Y-80014174D01*
X139580000Y-80145826D01*
X139614075Y-80272993D01*
X139646988Y-80330000D01*
X138752769Y-80330000D01*
X138763242Y-80396126D01*
X138763242Y-80396129D01*
X138828904Y-80598217D01*
X138925379Y-80787557D01*
X139050272Y-80959459D01*
X139050276Y-80959464D01*
X139200535Y-81109723D01*
X139200540Y-81109727D01*
X139372442Y-81234620D01*
X139561782Y-81331095D01*
X139763871Y-81396757D01*
X139830000Y-81407231D01*
X139830000Y-80513012D01*
X139887007Y-80545925D01*
X140014174Y-80580000D01*
X140145826Y-80580000D01*
X140272993Y-80545925D01*
X140330000Y-80513012D01*
X140330000Y-81407230D01*
X140396126Y-81396757D01*
X140396129Y-81396757D01*
X140598217Y-81331095D01*
X140787557Y-81234620D01*
X140959459Y-81109727D01*
X140959464Y-81109723D01*
X141109723Y-80959464D01*
X141109727Y-80959459D01*
X141234620Y-80787558D01*
X141239514Y-80777954D01*
X141287488Y-80727157D01*
X141355308Y-80710361D01*
X141421444Y-80732897D01*
X141460486Y-80777954D01*
X141465379Y-80787558D01*
X141590272Y-80959459D01*
X141590276Y-80959464D01*
X141740535Y-81109723D01*
X141740540Y-81109727D01*
X141912442Y-81234620D01*
X142101782Y-81331095D01*
X142303871Y-81396757D01*
X142370000Y-81407231D01*
X142370000Y-80513012D01*
X142427007Y-80545925D01*
X142554174Y-80580000D01*
X142685826Y-80580000D01*
X142812993Y-80545925D01*
X142870000Y-80513012D01*
X142870000Y-81407230D01*
X142936126Y-81396757D01*
X142936129Y-81396757D01*
X143138217Y-81331095D01*
X143327557Y-81234620D01*
X143499459Y-81109727D01*
X143499464Y-81109723D01*
X143649723Y-80959464D01*
X143649727Y-80959459D01*
X143774620Y-80787558D01*
X143779514Y-80777954D01*
X143827488Y-80727157D01*
X143895308Y-80710361D01*
X143961444Y-80732897D01*
X144000486Y-80777954D01*
X144005379Y-80787558D01*
X144130272Y-80959459D01*
X144130276Y-80959464D01*
X144280535Y-81109723D01*
X144280540Y-81109727D01*
X144452442Y-81234620D01*
X144641782Y-81331095D01*
X144843871Y-81396757D01*
X144910000Y-81407231D01*
X144910000Y-80513012D01*
X144967007Y-80545925D01*
X145094174Y-80580000D01*
X145225826Y-80580000D01*
X145352993Y-80545925D01*
X145410000Y-80513012D01*
X145410000Y-81407230D01*
X145476126Y-81396757D01*
X145476129Y-81396757D01*
X145678217Y-81331095D01*
X145867557Y-81234620D01*
X146039458Y-81109728D01*
X146153521Y-80995665D01*
X146214844Y-80962180D01*
X146284536Y-80967164D01*
X146340470Y-81009035D01*
X146357385Y-81040013D01*
X146406645Y-81172086D01*
X146406649Y-81172093D01*
X146492809Y-81287187D01*
X146492812Y-81287190D01*
X146607906Y-81373350D01*
X146607913Y-81373354D01*
X146742620Y-81423596D01*
X146742627Y-81423598D01*
X146802155Y-81429999D01*
X146802172Y-81430000D01*
X147450000Y-81430000D01*
X147450000Y-80513012D01*
X147507007Y-80545925D01*
X147634174Y-80580000D01*
X147765826Y-80580000D01*
X147892993Y-80545925D01*
X147950000Y-80513012D01*
X147950000Y-81430000D01*
X148597828Y-81430000D01*
X148597844Y-81429999D01*
X148657372Y-81423598D01*
X148657379Y-81423596D01*
X148792086Y-81373354D01*
X148792093Y-81373350D01*
X148907187Y-81287190D01*
X148907190Y-81287187D01*
X148993350Y-81172093D01*
X148993354Y-81172086D01*
X149043596Y-81037379D01*
X149043598Y-81037372D01*
X149049999Y-80977844D01*
X149050000Y-80977827D01*
X149050000Y-80330000D01*
X148133012Y-80330000D01*
X148165925Y-80272993D01*
X148200000Y-80145826D01*
X148200000Y-80014174D01*
X148165925Y-79887007D01*
X148133012Y-79830000D01*
X149050000Y-79830000D01*
X149050000Y-79182172D01*
X149049999Y-79182155D01*
X149043598Y-79122627D01*
X149043596Y-79122620D01*
X148993354Y-78987913D01*
X148993350Y-78987906D01*
X148907190Y-78872813D01*
X148792086Y-78786645D01*
X148780661Y-78782384D01*
X148762937Y-78769114D01*
X148742797Y-78759917D01*
X148735513Y-78748583D01*
X148724730Y-78740510D01*
X148716994Y-78719766D01*
X148705023Y-78701139D01*
X148701870Y-78679213D01*
X148700316Y-78675045D01*
X148700000Y-78666204D01*
X148700000Y-78564013D01*
X148719685Y-78496974D01*
X148720857Y-78495184D01*
X148738867Y-78468231D01*
X148738951Y-78467812D01*
X148750499Y-78409752D01*
X148750500Y-78409750D01*
X148750500Y-76670249D01*
X148750499Y-76670247D01*
X148738868Y-76611773D01*
X148738867Y-76611772D01*
X148738867Y-76611769D01*
X148720897Y-76584876D01*
X148700020Y-76518199D01*
X148700000Y-76515986D01*
X148700000Y-76024013D01*
X148719685Y-75956974D01*
X148720857Y-75955184D01*
X148738867Y-75928231D01*
X148750500Y-75869748D01*
X148750500Y-74130252D01*
X148750500Y-74130249D01*
X148750499Y-74130247D01*
X148738868Y-74071773D01*
X148738867Y-74071772D01*
X148738867Y-74071769D01*
X148700000Y-74013601D01*
X148700000Y-73979771D01*
X148656329Y-73979908D01*
X148628231Y-73961133D01*
X148624209Y-73960332D01*
X148624208Y-73960332D01*
X148569752Y-73949500D01*
X148569748Y-73949500D01*
X146830252Y-73949500D01*
X146830249Y-73949500D01*
X146771769Y-73961132D01*
X146765731Y-73965167D01*
X146699053Y-73986042D01*
X146697234Y-73986061D01*
X145479123Y-73989888D01*
X145454542Y-73987507D01*
X145367321Y-73970158D01*
X145263465Y-73949500D01*
X145056535Y-73949500D01*
X145056530Y-73949500D01*
X144855231Y-73989541D01*
X144831429Y-73991923D01*
X142970545Y-73997768D01*
X142932653Y-73990297D01*
X142932247Y-73991638D01*
X142926423Y-73989871D01*
X142926420Y-73989870D01*
X142926415Y-73989869D01*
X142926412Y-73989868D01*
X142723469Y-73949500D01*
X142723465Y-73949500D01*
X142516535Y-73949500D01*
X142516531Y-73949500D01*
X142313583Y-73989869D01*
X142313563Y-73989875D01*
X142311924Y-73990554D01*
X142310157Y-73990908D01*
X142307744Y-73991640D01*
X142307673Y-73991406D01*
X142264881Y-73999984D01*
X140449664Y-74005687D01*
X140401824Y-73996250D01*
X140386423Y-73989871D01*
X140386421Y-73989870D01*
X140386420Y-73989870D01*
X140386417Y-73989869D01*
X140386412Y-73989868D01*
X140183469Y-73949500D01*
X140183465Y-73949500D01*
X139976535Y-73949500D01*
X139976530Y-73949500D01*
X139773583Y-73989868D01*
X139773572Y-73989872D01*
X139752528Y-73998588D01*
X139705471Y-74008024D01*
X139147679Y-74009777D01*
X139148798Y-74478067D01*
X139139359Y-74525815D01*
X139069871Y-74693575D01*
X139069868Y-74693587D01*
X139029500Y-74896530D01*
X139029500Y-75103469D01*
X139069868Y-75306412D01*
X139069870Y-75306420D01*
X139141870Y-75480243D01*
X139151309Y-75527399D01*
X139154840Y-77003481D01*
X139145401Y-77051230D01*
X139069871Y-77233575D01*
X139069868Y-77233587D01*
X139029500Y-77436530D01*
X139029500Y-77643469D01*
X139069868Y-77846412D01*
X139069870Y-77846420D01*
X139147981Y-78034997D01*
X139157420Y-78082153D01*
X139159710Y-79039440D01*
X139140186Y-79106527D01*
X139123392Y-79127417D01*
X139050280Y-79200530D01*
X139050274Y-79200537D01*
X138925379Y-79372442D01*
X138828904Y-79561782D01*
X138763242Y-79763870D01*
X138763242Y-79763873D01*
X138752769Y-79830000D01*
X136400500Y-79830000D01*
X136400500Y-78805252D01*
X136400500Y-78805249D01*
X136400499Y-78805247D01*
X136388868Y-78746770D01*
X136388867Y-78746769D01*
X136344552Y-78680447D01*
X136278230Y-78636132D01*
X136278229Y-78636131D01*
X136219752Y-78624500D01*
X136219748Y-78624500D01*
X135730252Y-78624500D01*
X135674190Y-78635651D01*
X135642154Y-78637785D01*
X135629502Y-78636982D01*
X135628231Y-78636133D01*
X135569748Y-78624500D01*
X135432621Y-78624500D01*
X135428710Y-78624252D01*
X135399415Y-78613594D01*
X135369517Y-78604815D01*
X135365817Y-78601370D01*
X135363050Y-78600364D01*
X135358946Y-78594973D01*
X135337290Y-78574811D01*
X135257190Y-78467812D01*
X135257187Y-78467809D01*
X135142093Y-78381649D01*
X135142086Y-78381645D01*
X135007379Y-78331403D01*
X135007372Y-78331401D01*
X134947844Y-78325000D01*
X134900000Y-78325000D01*
X134900000Y-78794084D01*
X134899500Y-78804262D01*
X134899500Y-80595747D01*
X134900000Y-80605915D01*
X134900000Y-81075000D01*
X134947828Y-81075000D01*
X134947844Y-81074999D01*
X135007372Y-81068598D01*
X135007379Y-81068596D01*
X135142086Y-81018354D01*
X135142088Y-81018353D01*
X135261879Y-80928678D01*
X135327343Y-80904261D01*
X135327344Y-80904261D01*
X135342195Y-80907491D01*
X135395616Y-80919112D01*
X135408394Y-80928678D01*
X135423871Y-80940264D01*
X135521716Y-81038109D01*
X135553808Y-81093691D01*
X135555199Y-81098884D01*
X135555200Y-81098886D01*
X135561460Y-81109728D01*
X135614511Y-81201614D01*
X135614513Y-81201616D01*
X137792224Y-83379327D01*
X137825709Y-83440650D01*
X137820725Y-83510342D01*
X137778853Y-83566275D01*
X137713389Y-83590692D01*
X137657090Y-83581569D01*
X137556420Y-83539870D01*
X137556412Y-83539868D01*
X137353469Y-83499500D01*
X137353465Y-83499500D01*
X137146535Y-83499500D01*
X137146530Y-83499500D01*
X136943587Y-83539868D01*
X136943579Y-83539870D01*
X136752403Y-83619058D01*
X136580342Y-83734024D01*
X136434025Y-83880341D01*
X136434022Y-83880345D01*
X136391164Y-83944487D01*
X136337552Y-83989292D01*
X136268227Y-83997999D01*
X136205199Y-83967844D01*
X136200381Y-83963277D01*
X133811819Y-81574715D01*
X133778334Y-81513392D01*
X133775500Y-81487034D01*
X133775500Y-81150862D01*
X133795185Y-81083823D01*
X133800000Y-81077847D01*
X133800000Y-80605915D01*
X133800500Y-80595747D01*
X133800500Y-78804262D01*
X133800000Y-78794084D01*
X133800000Y-78365683D01*
X134250000Y-78365683D01*
X134250000Y-81075000D01*
X134297821Y-81075000D01*
X134297831Y-81074999D01*
X134336742Y-81070815D01*
X134363258Y-81070815D01*
X134402168Y-81074999D01*
X134402179Y-81075000D01*
X134450000Y-81075000D01*
X134450000Y-78325000D01*
X134402164Y-78325000D01*
X134374790Y-78327942D01*
X134250000Y-78365683D01*
X133800000Y-78365683D01*
X133800000Y-78325000D01*
X133752155Y-78325000D01*
X133692627Y-78331401D01*
X133692620Y-78331403D01*
X133557913Y-78381645D01*
X133557906Y-78381649D01*
X133442812Y-78467809D01*
X133442809Y-78467812D01*
X133362710Y-78574811D01*
X133362293Y-78575123D01*
X133362107Y-78575610D01*
X133334374Y-78596023D01*
X133306777Y-78616682D01*
X133306115Y-78616823D01*
X133305837Y-78617028D01*
X133301911Y-78617719D01*
X133271290Y-78624252D01*
X133267379Y-78624500D01*
X133130252Y-78624500D01*
X133071769Y-78636133D01*
X133070497Y-78636982D01*
X133057846Y-78637785D01*
X133048405Y-78635651D01*
X133025810Y-78635651D01*
X132969748Y-78624500D01*
X132480252Y-78624500D01*
X132424190Y-78635651D01*
X132375810Y-78635651D01*
X132319748Y-78624500D01*
X131830252Y-78624500D01*
X131774190Y-78635651D01*
X131742154Y-78637785D01*
X131729502Y-78636982D01*
X131728231Y-78636133D01*
X131669748Y-78624500D01*
X131532621Y-78624500D01*
X131528710Y-78624252D01*
X131499415Y-78613594D01*
X131469517Y-78604815D01*
X131465817Y-78601370D01*
X131463050Y-78600364D01*
X131458946Y-78594973D01*
X131437290Y-78574811D01*
X131357190Y-78467812D01*
X131357187Y-78467809D01*
X131242093Y-78381649D01*
X131242086Y-78381645D01*
X131107379Y-78331403D01*
X131107372Y-78331401D01*
X131047844Y-78325000D01*
X131000000Y-78325000D01*
X131000000Y-78794084D01*
X130999500Y-78804262D01*
X130999500Y-80595747D01*
X131000000Y-80605915D01*
X131000000Y-81084825D01*
X131002884Y-81090108D01*
X131019477Y-81115927D01*
X131020368Y-81122127D01*
X131021666Y-81124504D01*
X131024500Y-81150862D01*
X131024500Y-81284461D01*
X131007889Y-81346458D01*
X131005202Y-81351111D01*
X131005201Y-81351112D01*
X130994914Y-81389505D01*
X130974500Y-81465691D01*
X130974500Y-81465693D01*
X130974500Y-82937034D01*
X130954815Y-83004073D01*
X130938181Y-83024715D01*
X130499715Y-83463181D01*
X130438392Y-83496666D01*
X130412034Y-83499500D01*
X129245730Y-83499500D01*
X129215300Y-83502353D01*
X129215298Y-83502353D01*
X129087119Y-83547206D01*
X129087117Y-83547207D01*
X128977850Y-83627850D01*
X128897207Y-83737117D01*
X128897206Y-83737119D01*
X128852353Y-83865298D01*
X128852353Y-83865300D01*
X128849500Y-83895730D01*
X128226257Y-83895730D01*
X128215980Y-83880349D01*
X128215974Y-83880341D01*
X128069655Y-83734022D01*
X127905609Y-83624411D01*
X127860804Y-83570799D01*
X127850500Y-83521309D01*
X127850500Y-82837965D01*
X127870185Y-82770926D01*
X127886819Y-82750284D01*
X128313720Y-82323383D01*
X129185489Y-81451614D01*
X129215289Y-81399998D01*
X129244796Y-81348891D01*
X129244796Y-81348890D01*
X129244798Y-81348887D01*
X129246187Y-81343699D01*
X129278280Y-81288111D01*
X129521540Y-81044852D01*
X129582860Y-81011369D01*
X129652552Y-81016353D01*
X129792623Y-81068597D01*
X129792627Y-81068598D01*
X129852155Y-81074999D01*
X129852172Y-81075000D01*
X129900000Y-81075000D01*
X129900000Y-80605915D01*
X129900500Y-80595747D01*
X129900500Y-78804262D01*
X129900000Y-78794084D01*
X129900000Y-78365683D01*
X130350000Y-78365683D01*
X130350000Y-81075000D01*
X130397821Y-81075000D01*
X130397831Y-81074999D01*
X130436742Y-81070815D01*
X130463258Y-81070815D01*
X130502168Y-81074999D01*
X130502179Y-81075000D01*
X130550000Y-81075000D01*
X130550000Y-78325000D01*
X130502164Y-78325000D01*
X130474790Y-78327942D01*
X130350000Y-78365683D01*
X129900000Y-78365683D01*
X129900000Y-78325000D01*
X129852155Y-78325000D01*
X129792627Y-78331401D01*
X129792620Y-78331403D01*
X129657913Y-78381645D01*
X129657906Y-78381649D01*
X129542812Y-78467809D01*
X129542809Y-78467812D01*
X129462710Y-78574811D01*
X129462293Y-78575123D01*
X129462107Y-78575610D01*
X129434374Y-78596023D01*
X129406777Y-78616682D01*
X129406115Y-78616823D01*
X129405837Y-78617028D01*
X129401911Y-78617719D01*
X129371290Y-78624252D01*
X129367379Y-78624500D01*
X129230252Y-78624500D01*
X129171769Y-78636133D01*
X129170497Y-78636982D01*
X129157846Y-78637785D01*
X129148405Y-78635651D01*
X129125810Y-78635651D01*
X129069748Y-78624500D01*
X128580252Y-78624500D01*
X128580247Y-78624500D01*
X128521770Y-78636131D01*
X128521769Y-78636132D01*
X128455447Y-78680447D01*
X128411132Y-78746769D01*
X128411131Y-78746770D01*
X128399500Y-78805247D01*
X128399500Y-80594752D01*
X128411130Y-80653223D01*
X128415059Y-80662706D01*
X128416686Y-80670888D01*
X128419477Y-80675230D01*
X128424500Y-80710165D01*
X128424500Y-80887035D01*
X128404815Y-80954074D01*
X128388181Y-80974716D01*
X127039513Y-82323383D01*
X127039509Y-82323389D01*
X126980201Y-82426112D01*
X126980200Y-82426117D01*
X126949500Y-82540691D01*
X126949500Y-83521309D01*
X126929815Y-83588348D01*
X126894391Y-83624411D01*
X126730344Y-83734022D01*
X126584024Y-83880342D01*
X126469058Y-84052403D01*
X126389870Y-84243579D01*
X126389868Y-84243587D01*
X126349500Y-84446530D01*
X117386632Y-84446530D01*
X117361072Y-84373482D01*
X117205129Y-84049663D01*
X117013907Y-83745335D01*
X116833916Y-83519634D01*
X115515270Y-84838281D01*
X115429722Y-84720534D01*
X115279466Y-84570278D01*
X115161716Y-84484728D01*
X116480364Y-83166081D01*
X116254664Y-82986092D01*
X115950336Y-82794870D01*
X115626517Y-82638927D01*
X115287270Y-82520220D01*
X115287268Y-82520219D01*
X114936863Y-82440242D01*
X114936851Y-82440240D01*
X114579712Y-82400000D01*
X114220287Y-82400000D01*
X113863148Y-82440240D01*
X113863136Y-82440242D01*
X113512731Y-82520219D01*
X113512729Y-82520220D01*
X113173482Y-82638927D01*
X112849663Y-82794870D01*
X112545335Y-82986092D01*
X112319634Y-83166081D01*
X113638282Y-84484729D01*
X113520534Y-84570278D01*
X113370278Y-84720534D01*
X113284729Y-84838282D01*
X111966081Y-83519634D01*
X111786092Y-83745335D01*
X111594870Y-84049663D01*
X111438927Y-84373482D01*
X111320220Y-84712729D01*
X111320219Y-84712731D01*
X111240242Y-85063136D01*
X111240240Y-85063148D01*
X111200000Y-85420287D01*
X110450500Y-85420287D01*
X110450500Y-79400013D01*
X117700000Y-79400013D01*
X117700000Y-79800000D01*
X118766988Y-79800000D01*
X118734075Y-79857007D01*
X118700000Y-79984174D01*
X118700000Y-80115826D01*
X118734075Y-80242993D01*
X118766988Y-80300000D01*
X117700001Y-80300000D01*
X117700001Y-80699986D01*
X117710494Y-80802697D01*
X117765641Y-80969119D01*
X117765643Y-80969124D01*
X117857684Y-81118345D01*
X117981654Y-81242315D01*
X118130875Y-81334356D01*
X118130880Y-81334358D01*
X118297302Y-81389505D01*
X118297309Y-81389506D01*
X118400019Y-81399999D01*
X118949999Y-81399999D01*
X118950000Y-81399998D01*
X118950000Y-80483012D01*
X119007007Y-80515925D01*
X119134174Y-80550000D01*
X119265826Y-80550000D01*
X119392993Y-80515925D01*
X119450000Y-80483012D01*
X119450000Y-81399999D01*
X119999972Y-81399999D01*
X119999986Y-81399998D01*
X120102697Y-81389505D01*
X120269119Y-81334358D01*
X120269124Y-81334356D01*
X120418345Y-81242315D01*
X120542315Y-81118345D01*
X120634356Y-80969124D01*
X120634358Y-80969119D01*
X120689505Y-80802697D01*
X120689506Y-80802690D01*
X120699999Y-80699986D01*
X120700000Y-80699973D01*
X120700000Y-80300000D01*
X119633012Y-80300000D01*
X119665925Y-80242993D01*
X119700000Y-80115826D01*
X119700000Y-79984174D01*
X119665925Y-79857007D01*
X119633012Y-79800000D01*
X120699999Y-79800000D01*
X120699999Y-79400028D01*
X120699998Y-79400013D01*
X120689505Y-79297302D01*
X120634358Y-79130880D01*
X120634356Y-79130875D01*
X120542315Y-78981654D01*
X120418345Y-78857684D01*
X120269124Y-78765643D01*
X120269119Y-78765641D01*
X120102697Y-78710494D01*
X120102690Y-78710493D01*
X119999986Y-78700000D01*
X119928526Y-78700000D01*
X119861487Y-78680315D01*
X119815732Y-78627511D01*
X119805788Y-78558353D01*
X119834813Y-78494797D01*
X119859633Y-78472899D01*
X120019655Y-78365977D01*
X120165977Y-78219655D01*
X120280941Y-78047598D01*
X120360130Y-77856420D01*
X120400500Y-77653465D01*
X120400500Y-77446535D01*
X120360130Y-77243580D01*
X120280941Y-77052402D01*
X120165977Y-76880345D01*
X120165975Y-76880342D01*
X120019657Y-76734024D01*
X119847596Y-76619057D01*
X119677047Y-76548414D01*
X119622644Y-76504573D01*
X119600579Y-76438279D01*
X119600500Y-76433853D01*
X119600500Y-75617254D01*
X119620185Y-75550215D01*
X119636819Y-75529573D01*
X119816406Y-75349986D01*
X124375001Y-75349986D01*
X124385494Y-75452697D01*
X124440641Y-75619119D01*
X124440643Y-75619124D01*
X124532684Y-75768345D01*
X124656654Y-75892315D01*
X124805875Y-75984356D01*
X124805880Y-75984358D01*
X124972302Y-76039505D01*
X124972309Y-76039506D01*
X125075019Y-76049999D01*
X125349999Y-76049999D01*
X125850000Y-76049999D01*
X126124972Y-76049999D01*
X126124986Y-76049998D01*
X126227697Y-76039505D01*
X126394119Y-75984358D01*
X126394124Y-75984356D01*
X126543345Y-75892315D01*
X126667315Y-75768345D01*
X126759356Y-75619124D01*
X126759358Y-75619119D01*
X126814505Y-75452697D01*
X126814506Y-75452690D01*
X126824999Y-75349986D01*
X126825000Y-75349973D01*
X126825000Y-75300000D01*
X125850000Y-75300000D01*
X125850000Y-76049999D01*
X125349999Y-76049999D01*
X125350000Y-76049998D01*
X125350000Y-75300000D01*
X124375001Y-75300000D01*
X124375001Y-75349986D01*
X119816406Y-75349986D01*
X120307603Y-74858789D01*
X127450000Y-74858789D01*
X127470910Y-74857145D01*
X127626195Y-74812031D01*
X127765374Y-74729721D01*
X127765383Y-74729714D01*
X127879714Y-74615383D01*
X127879721Y-74615374D01*
X127962031Y-74476195D01*
X128004504Y-74330000D01*
X127450000Y-74330000D01*
X127450000Y-74858789D01*
X120307603Y-74858789D01*
X121579573Y-73586819D01*
X121640896Y-73553334D01*
X121667254Y-73550500D01*
X124614520Y-73550500D01*
X124681559Y-73570185D01*
X124715031Y-73606628D01*
X124716689Y-73605405D01*
X124722206Y-73612881D01*
X124722207Y-73612882D01*
X124802850Y-73722150D01*
X124912118Y-73802793D01*
X124976033Y-73825158D01*
X125032807Y-73865878D01*
X125058555Y-73930830D01*
X125045099Y-73999392D01*
X124996712Y-74049795D01*
X124974082Y-74059904D01*
X124805878Y-74115642D01*
X124805875Y-74115643D01*
X124656654Y-74207684D01*
X124532684Y-74331654D01*
X124440643Y-74480875D01*
X124440641Y-74480880D01*
X124385494Y-74647302D01*
X124385493Y-74647309D01*
X124375000Y-74750013D01*
X124375000Y-74800000D01*
X126950000Y-74800000D01*
X126950000Y-74204000D01*
X126969685Y-74136961D01*
X127022489Y-74091206D01*
X127074000Y-74080000D01*
X127200000Y-74080000D01*
X127200000Y-73954000D01*
X127219685Y-73886961D01*
X127272489Y-73841206D01*
X127324000Y-73830000D01*
X128004504Y-73830000D01*
X127960663Y-73679094D01*
X127960863Y-73609225D01*
X127998806Y-73550555D01*
X128062444Y-73521712D01*
X128079740Y-73520500D01*
X128257725Y-73520500D01*
X128257727Y-73520500D01*
X128345599Y-73496955D01*
X128415448Y-73498618D01*
X128446583Y-73513628D01*
X128455447Y-73519550D01*
X128455448Y-73519552D01*
X128521769Y-73563867D01*
X128521771Y-73563867D01*
X128521772Y-73563868D01*
X128521770Y-73563868D01*
X128580247Y-73575499D01*
X128580250Y-73575500D01*
X129068885Y-73575500D01*
X129135924Y-73595185D01*
X129181679Y-73647989D01*
X129188659Y-73667404D01*
X129194978Y-73690986D01*
X129194979Y-73690989D01*
X129232375Y-73755762D01*
X129234540Y-73759512D01*
X129234542Y-73759514D01*
X129509536Y-74034507D01*
X129759540Y-74284511D01*
X129815489Y-74340460D01*
X129815491Y-74340461D01*
X129815495Y-74340464D01*
X129884004Y-74380017D01*
X129884011Y-74380021D01*
X129960438Y-74400500D01*
X130039562Y-74400500D01*
X130197390Y-74400500D01*
X130264429Y-74420185D01*
X130285071Y-74436819D01*
X130288737Y-74440485D01*
X130385763Y-74496503D01*
X130493982Y-74525500D01*
X130493984Y-74525500D01*
X130606016Y-74525500D01*
X130606018Y-74525500D01*
X130666496Y-74509295D01*
X130736343Y-74510957D01*
X130794206Y-74550118D01*
X130818363Y-74596975D01*
X130839493Y-74675836D01*
X130839494Y-74675837D01*
X130849078Y-74692437D01*
X130895511Y-74772861D01*
X130974733Y-74852083D01*
X131071759Y-74908101D01*
X131179978Y-74937098D01*
X131179980Y-74937098D01*
X131292012Y-74937098D01*
X131292014Y-74937098D01*
X131400233Y-74908101D01*
X131497259Y-74852083D01*
X131576481Y-74772861D01*
X131632499Y-74675835D01*
X131661496Y-74567616D01*
X131661496Y-74455580D01*
X131661496Y-74447453D01*
X131663147Y-74447453D01*
X131672429Y-74387886D01*
X131696925Y-74353044D01*
X132182413Y-73867556D01*
X132243733Y-73834074D01*
X132313425Y-73839058D01*
X132392623Y-73868597D01*
X132392627Y-73868598D01*
X132452155Y-73874999D01*
X132452172Y-73875000D01*
X132500000Y-73875000D01*
X132500000Y-73405915D01*
X132501490Y-73400841D01*
X132500500Y-73400841D01*
X132500500Y-71604262D01*
X132949500Y-71604262D01*
X132949500Y-73395747D01*
X132950000Y-73405915D01*
X132950000Y-73875000D01*
X132975500Y-73875000D01*
X133042539Y-73894685D01*
X133088294Y-73947489D01*
X133099500Y-73999000D01*
X133099500Y-74647390D01*
X133079815Y-74714429D01*
X133063181Y-74735071D01*
X133059517Y-74738734D01*
X133059513Y-74738740D01*
X133003498Y-74835760D01*
X133003497Y-74835763D01*
X132974500Y-74943982D01*
X132974500Y-75056018D01*
X133003497Y-75164237D01*
X133059515Y-75261263D01*
X133138737Y-75340485D01*
X133235763Y-75396503D01*
X133343982Y-75425500D01*
X133343984Y-75425500D01*
X133456016Y-75425500D01*
X133456018Y-75425500D01*
X133564237Y-75396503D01*
X133661263Y-75340485D01*
X133740485Y-75261263D01*
X133796503Y-75164237D01*
X133819696Y-75077677D01*
X133856060Y-75018019D01*
X133918906Y-74987490D01*
X133988282Y-74995784D01*
X134042160Y-75040270D01*
X134059244Y-75077677D01*
X134074729Y-75135469D01*
X134130747Y-75232495D01*
X134209969Y-75311717D01*
X134306995Y-75367735D01*
X134415214Y-75396732D01*
X134415216Y-75396732D01*
X134527248Y-75396732D01*
X134527250Y-75396732D01*
X134635469Y-75367735D01*
X134732495Y-75311717D01*
X134811717Y-75232495D01*
X134867735Y-75135469D01*
X134867738Y-75135456D01*
X134867812Y-75135279D01*
X134867927Y-75135135D01*
X134871799Y-75128430D01*
X134872843Y-75129033D01*
X134911644Y-75080868D01*
X134977935Y-75058793D01*
X135045637Y-75076061D01*
X135070062Y-75095032D01*
X135119590Y-75144560D01*
X135216616Y-75200578D01*
X135324835Y-75229575D01*
X135324837Y-75229575D01*
X135436869Y-75229575D01*
X135436871Y-75229575D01*
X135545090Y-75200578D01*
X135642116Y-75144560D01*
X135721338Y-75065338D01*
X135777356Y-74968312D01*
X135806353Y-74860093D01*
X135806353Y-74748057D01*
X135777356Y-74639838D01*
X135721338Y-74542812D01*
X135717672Y-74539146D01*
X135684187Y-74477823D01*
X135681353Y-74451465D01*
X135681353Y-74216292D01*
X135681353Y-74216291D01*
X135660874Y-74139864D01*
X135655322Y-74130247D01*
X135621317Y-74071348D01*
X135621311Y-74071340D01*
X135337152Y-73787181D01*
X135328278Y-73770929D01*
X135315332Y-73757686D01*
X135311879Y-73740897D01*
X135303667Y-73725858D01*
X135304987Y-73707389D01*
X135301257Y-73689249D01*
X135307428Y-73673260D01*
X135308651Y-73656166D01*
X135319748Y-73641341D01*
X135326417Y-73624066D01*
X135340252Y-73613951D01*
X135350523Y-73600233D01*
X135367872Y-73593761D01*
X135382823Y-73582833D01*
X135409797Y-73578124D01*
X135415987Y-73575816D01*
X135417393Y-73575723D01*
X135421103Y-73575500D01*
X135569748Y-73575500D01*
X135628231Y-73563867D01*
X135629574Y-73562969D01*
X135642560Y-73562189D01*
X135651973Y-73564349D01*
X135674192Y-73564349D01*
X135730249Y-73575500D01*
X135730252Y-73575500D01*
X136219750Y-73575500D01*
X136219751Y-73575499D01*
X136234568Y-73572552D01*
X136278229Y-73563868D01*
X136278229Y-73563867D01*
X136278231Y-73563867D01*
X136344552Y-73519552D01*
X136344556Y-73519545D01*
X136349257Y-73514846D01*
X136410579Y-73481359D01*
X136480271Y-73486341D01*
X136536206Y-73528210D01*
X136546373Y-73544207D01*
X136555899Y-73562083D01*
X136555901Y-73562086D01*
X136601660Y-73614895D01*
X136619242Y-73632839D01*
X136619246Y-73632843D01*
X136619247Y-73632844D01*
X136619249Y-73632845D01*
X136699059Y-73677488D01*
X136699063Y-73677490D01*
X136766102Y-73697175D01*
X136824000Y-73705500D01*
X136824004Y-73705500D01*
X137725991Y-73705500D01*
X137726000Y-73705500D01*
X137769684Y-73700803D01*
X137798875Y-73694452D01*
X137821174Y-73689602D01*
X137821190Y-73689598D01*
X137821195Y-73689597D01*
X137831373Y-73687110D01*
X137912085Y-73644100D01*
X137964889Y-73598345D01*
X137982843Y-73580754D01*
X138027490Y-73500937D01*
X138047175Y-73433898D01*
X138055500Y-73376000D01*
X138055500Y-70780247D01*
X140099500Y-70780247D01*
X140099500Y-72219752D01*
X140111131Y-72278229D01*
X140111132Y-72278230D01*
X140155447Y-72344552D01*
X140221769Y-72388867D01*
X140221770Y-72388868D01*
X140280247Y-72400499D01*
X140280250Y-72400500D01*
X140280252Y-72400500D01*
X142319750Y-72400500D01*
X142319751Y-72400499D01*
X142345257Y-72395426D01*
X142378229Y-72388868D01*
X142378229Y-72388867D01*
X142378231Y-72388867D01*
X142444552Y-72344552D01*
X142488867Y-72278231D01*
X142488867Y-72278229D01*
X142488868Y-72278229D01*
X142494912Y-72247844D01*
X146800000Y-72247844D01*
X146806401Y-72307372D01*
X146806403Y-72307379D01*
X146856645Y-72442086D01*
X146856649Y-72442093D01*
X146942809Y-72557187D01*
X146942812Y-72557190D01*
X147057906Y-72643350D01*
X147057913Y-72643354D01*
X147192620Y-72693596D01*
X147192627Y-72693598D01*
X147252155Y-72699999D01*
X147252172Y-72700000D01*
X148050000Y-72700000D01*
X148550000Y-72700000D01*
X149347828Y-72700000D01*
X149347844Y-72699999D01*
X149407372Y-72693598D01*
X149407379Y-72693596D01*
X149542086Y-72643354D01*
X149542093Y-72643350D01*
X149657187Y-72557190D01*
X149657190Y-72557187D01*
X149743350Y-72442093D01*
X149743354Y-72442086D01*
X149793596Y-72307379D01*
X149793598Y-72307372D01*
X149799999Y-72247844D01*
X149800000Y-72247827D01*
X149800000Y-71750000D01*
X148550000Y-71750000D01*
X148550000Y-72700000D01*
X148050000Y-72700000D01*
X148050000Y-71750000D01*
X146800000Y-71750000D01*
X146800000Y-72247844D01*
X142494912Y-72247844D01*
X142500499Y-72219752D01*
X142500500Y-72219750D01*
X142500500Y-70780249D01*
X142500499Y-70780247D01*
X142499066Y-70773038D01*
X142499066Y-70773037D01*
X142494912Y-70752155D01*
X146800000Y-70752155D01*
X146800000Y-71250000D01*
X148050000Y-71250000D01*
X148550000Y-71250000D01*
X149800000Y-71250000D01*
X149800000Y-70752172D01*
X149799999Y-70752155D01*
X149793598Y-70692627D01*
X149793596Y-70692620D01*
X149743354Y-70557913D01*
X149743350Y-70557906D01*
X149657190Y-70442812D01*
X149657187Y-70442809D01*
X149542093Y-70356649D01*
X149542086Y-70356645D01*
X149407379Y-70306403D01*
X149407372Y-70306401D01*
X149347844Y-70300000D01*
X148550000Y-70300000D01*
X148550000Y-71250000D01*
X148050000Y-71250000D01*
X148050000Y-70300000D01*
X147252155Y-70300000D01*
X147192627Y-70306401D01*
X147192620Y-70306403D01*
X147057913Y-70356645D01*
X147057906Y-70356649D01*
X146942812Y-70442809D01*
X146942809Y-70442812D01*
X146856649Y-70557906D01*
X146856645Y-70557913D01*
X146806403Y-70692620D01*
X146806401Y-70692627D01*
X146800000Y-70752155D01*
X142494912Y-70752155D01*
X142488867Y-70721770D01*
X142488867Y-70721769D01*
X142444552Y-70655447D01*
X142378230Y-70611132D01*
X142378229Y-70611131D01*
X142319752Y-70599500D01*
X142319748Y-70599500D01*
X140280252Y-70599500D01*
X140280247Y-70599500D01*
X140221770Y-70611131D01*
X140221769Y-70611132D01*
X140155447Y-70655447D01*
X140111132Y-70721769D01*
X140111131Y-70721770D01*
X140099500Y-70780247D01*
X138055500Y-70780247D01*
X138055500Y-70124000D01*
X138050803Y-70080316D01*
X138046657Y-70061259D01*
X138039602Y-70028825D01*
X138039348Y-70027789D01*
X138037110Y-70018627D01*
X137994100Y-69937915D01*
X137953565Y-69891135D01*
X137948339Y-69885104D01*
X137930757Y-69867160D01*
X137930756Y-69867159D01*
X137930754Y-69867157D01*
X137930752Y-69867156D01*
X137930750Y-69867154D01*
X137850940Y-69822511D01*
X137850935Y-69822509D01*
X137783903Y-69802826D01*
X137783899Y-69802825D01*
X137783898Y-69802825D01*
X137726000Y-69794500D01*
X135174000Y-69794500D01*
X135173992Y-69794500D01*
X135130313Y-69799197D01*
X135078825Y-69810397D01*
X135068627Y-69812890D01*
X135068624Y-69812891D01*
X134987916Y-69855899D01*
X134987913Y-69855901D01*
X134935104Y-69901660D01*
X134917160Y-69919242D01*
X134917154Y-69919249D01*
X134872511Y-69999059D01*
X134872509Y-69999064D01*
X134852826Y-70066096D01*
X134852825Y-70066101D01*
X134852825Y-70066102D01*
X134844502Y-70123992D01*
X134844500Y-70124003D01*
X134844500Y-71023638D01*
X134845678Y-71045618D01*
X134848511Y-71071965D01*
X134848512Y-71071970D01*
X134872468Y-71148474D01*
X134872471Y-71148482D01*
X134879331Y-71161044D01*
X134883017Y-71175486D01*
X134889477Y-71185538D01*
X134894500Y-71220473D01*
X134894500Y-71300500D01*
X134874815Y-71367539D01*
X134822011Y-71413294D01*
X134770500Y-71424500D01*
X134430252Y-71424500D01*
X134374190Y-71435651D01*
X134325810Y-71435651D01*
X134269748Y-71424500D01*
X133780252Y-71424500D01*
X133724190Y-71435651D01*
X133692154Y-71437785D01*
X133679502Y-71436982D01*
X133678231Y-71436133D01*
X133619748Y-71424500D01*
X133482621Y-71424500D01*
X133478710Y-71424252D01*
X133449415Y-71413594D01*
X133419517Y-71404815D01*
X133415817Y-71401370D01*
X133413050Y-71400364D01*
X133408946Y-71394973D01*
X133387290Y-71374811D01*
X133307190Y-71267812D01*
X133304294Y-71264916D01*
X133302331Y-71261321D01*
X133301875Y-71260712D01*
X133301962Y-71260646D01*
X133270809Y-71203593D01*
X133275793Y-71133901D01*
X133310852Y-71086226D01*
X133309862Y-71085236D01*
X133429714Y-70965383D01*
X133429721Y-70965374D01*
X133512031Y-70826195D01*
X133512033Y-70826190D01*
X133557144Y-70670918D01*
X133557145Y-70670912D01*
X133558790Y-70650000D01*
X133030000Y-70650000D01*
X133030000Y-71216000D01*
X133010315Y-71283039D01*
X132985190Y-71304809D01*
X132950000Y-71340000D01*
X132950000Y-71594084D01*
X132949500Y-71604262D01*
X132500500Y-71604262D01*
X132500000Y-71594084D01*
X132500000Y-71076362D01*
X132519685Y-71009323D01*
X132530000Y-70996522D01*
X132530000Y-70524000D01*
X132549685Y-70456961D01*
X132602489Y-70411206D01*
X132654000Y-70400000D01*
X132780000Y-70400000D01*
X132780000Y-70274000D01*
X132799685Y-70206961D01*
X132852489Y-70161206D01*
X132904000Y-70150000D01*
X133558790Y-70150000D01*
X133557145Y-70129091D01*
X133514875Y-69983594D01*
X133515075Y-69913724D01*
X133553018Y-69855054D01*
X133616656Y-69826211D01*
X133633952Y-69824999D01*
X133749972Y-69824999D01*
X133749986Y-69824998D01*
X133852697Y-69814505D01*
X134019119Y-69759358D01*
X134019124Y-69759356D01*
X134168345Y-69667315D01*
X134292315Y-69543345D01*
X134384356Y-69394124D01*
X134384358Y-69394119D01*
X134439505Y-69227697D01*
X134439506Y-69227690D01*
X134449999Y-69124986D01*
X134450000Y-69124973D01*
X134450000Y-68850000D01*
X133574000Y-68850000D01*
X133506961Y-68830315D01*
X133461206Y-68777511D01*
X133450000Y-68726000D01*
X133450000Y-68600000D01*
X133324000Y-68600000D01*
X133256961Y-68580315D01*
X133211206Y-68527511D01*
X133200000Y-68476000D01*
X133200000Y-68350000D01*
X133700000Y-68350000D01*
X134449999Y-68350000D01*
X134449999Y-68075028D01*
X134449998Y-68075013D01*
X134439505Y-67972302D01*
X134384358Y-67805880D01*
X134384356Y-67805875D01*
X134292315Y-67656654D01*
X134168345Y-67532684D01*
X134019124Y-67440643D01*
X134019119Y-67440641D01*
X133852697Y-67385494D01*
X133852690Y-67385493D01*
X133749986Y-67375000D01*
X133700000Y-67375000D01*
X133700000Y-68350000D01*
X133200000Y-68350000D01*
X133200000Y-67375000D01*
X133199999Y-67374999D01*
X133150029Y-67375000D01*
X133150011Y-67375001D01*
X133047302Y-67385494D01*
X132880880Y-67440641D01*
X132880875Y-67440643D01*
X132731654Y-67532684D01*
X132607684Y-67656654D01*
X132515643Y-67805875D01*
X132515641Y-67805880D01*
X132459905Y-67974082D01*
X132420132Y-68031527D01*
X132355617Y-68058350D01*
X132286841Y-68046035D01*
X132235641Y-67998492D01*
X132225158Y-67976033D01*
X132202793Y-67912119D01*
X132202792Y-67912117D01*
X132182057Y-67884022D01*
X132122150Y-67802850D01*
X132012882Y-67722207D01*
X132012880Y-67722206D01*
X131884700Y-67677353D01*
X131854270Y-67674500D01*
X131854266Y-67674500D01*
X131245734Y-67674500D01*
X131245730Y-67674500D01*
X131215300Y-67677353D01*
X131215298Y-67677353D01*
X131078348Y-67725276D01*
X131077660Y-67723311D01*
X131021154Y-67734792D01*
X130956033Y-67709475D01*
X130914935Y-67652970D01*
X130911933Y-67643349D01*
X130896503Y-67585763D01*
X130840485Y-67488737D01*
X130761263Y-67409515D01*
X130696579Y-67372169D01*
X130664239Y-67353498D01*
X130664238Y-67353497D01*
X130664237Y-67353497D01*
X130556018Y-67324500D01*
X130443982Y-67324500D01*
X130335763Y-67353497D01*
X130328253Y-67356608D01*
X130327675Y-67355213D01*
X130268593Y-67369543D01*
X130202567Y-67346687D01*
X130159380Y-67291764D01*
X130150500Y-67245684D01*
X130150500Y-66780247D01*
X140099500Y-66780247D01*
X140099500Y-68219752D01*
X140111131Y-68278229D01*
X140111132Y-68278230D01*
X140155447Y-68344552D01*
X140221769Y-68388867D01*
X140221770Y-68388868D01*
X140280247Y-68400499D01*
X140280250Y-68400500D01*
X140280252Y-68400500D01*
X142319750Y-68400500D01*
X142319751Y-68400499D01*
X142334568Y-68397552D01*
X142378229Y-68388868D01*
X142378229Y-68388867D01*
X142378231Y-68388867D01*
X142444552Y-68344552D01*
X142488867Y-68278231D01*
X142488867Y-68278229D01*
X142488868Y-68278229D01*
X142500499Y-68219752D01*
X142500500Y-68219750D01*
X142500500Y-66780249D01*
X142500499Y-66780247D01*
X142488868Y-66721770D01*
X142488867Y-66721769D01*
X142444552Y-66655447D01*
X142378230Y-66611132D01*
X142378229Y-66611131D01*
X142319752Y-66599500D01*
X142319748Y-66599500D01*
X140280252Y-66599500D01*
X140280247Y-66599500D01*
X140221770Y-66611131D01*
X140221769Y-66611132D01*
X140155447Y-66655447D01*
X140111132Y-66721769D01*
X140111131Y-66721770D01*
X140099500Y-66780247D01*
X130150500Y-66780247D01*
X130150500Y-64825833D01*
X130159144Y-64796392D01*
X130165668Y-64766406D01*
X130169422Y-64761390D01*
X130170185Y-64758794D01*
X130186819Y-64738152D01*
X130312819Y-64612152D01*
X130374142Y-64578667D01*
X130443834Y-64583651D01*
X130499767Y-64625523D01*
X130524184Y-64690987D01*
X130524500Y-64699833D01*
X130524500Y-64782836D01*
X130553497Y-64891055D01*
X130609515Y-64988081D01*
X130688737Y-65067303D01*
X130785763Y-65123321D01*
X130893982Y-65152318D01*
X130893984Y-65152318D01*
X131006016Y-65152318D01*
X131006018Y-65152318D01*
X131074952Y-65133847D01*
X131144800Y-65135509D01*
X131202663Y-65174671D01*
X131230168Y-65238899D01*
X131230035Y-65261194D01*
X131230048Y-65261194D01*
X131230048Y-65269321D01*
X131230048Y-65381357D01*
X131259045Y-65489576D01*
X131315063Y-65586602D01*
X131394285Y-65665824D01*
X131491311Y-65721842D01*
X131599530Y-65750839D01*
X131599532Y-65750839D01*
X131711564Y-65750839D01*
X131711566Y-65750839D01*
X131819785Y-65721842D01*
X131916811Y-65665824D01*
X131996033Y-65586602D01*
X131996033Y-65586601D01*
X132001780Y-65580855D01*
X132003074Y-65582149D01*
X132051241Y-65546966D01*
X132120986Y-65542798D01*
X132181913Y-65576999D01*
X132200597Y-65601645D01*
X132230597Y-65653606D01*
X132309819Y-65732828D01*
X132406845Y-65788846D01*
X132515064Y-65817843D01*
X132515066Y-65817843D01*
X132627098Y-65817843D01*
X132627100Y-65817843D01*
X132735319Y-65788846D01*
X132832345Y-65732828D01*
X132911567Y-65653606D01*
X132922848Y-65634065D01*
X132973411Y-65585853D01*
X133042018Y-65572628D01*
X133106883Y-65598595D01*
X133147413Y-65655508D01*
X133150008Y-65663972D01*
X133157147Y-65690615D01*
X133157148Y-65690619D01*
X133157149Y-65690620D01*
X133213167Y-65787646D01*
X133292389Y-65866868D01*
X133389415Y-65922886D01*
X133497634Y-65951883D01*
X133497636Y-65951883D01*
X133609668Y-65951883D01*
X133609670Y-65951883D01*
X133717889Y-65922886D01*
X133814915Y-65866868D01*
X133894137Y-65787646D01*
X133894137Y-65787645D01*
X133899884Y-65781899D01*
X133901716Y-65783731D01*
X133947717Y-65750125D01*
X134017462Y-65745953D01*
X134077375Y-65779123D01*
X134088737Y-65790485D01*
X134185763Y-65846503D01*
X134293982Y-65875500D01*
X134293984Y-65875500D01*
X134406016Y-65875500D01*
X134406018Y-65875500D01*
X134514237Y-65846503D01*
X134611263Y-65790485D01*
X134690485Y-65711263D01*
X134746503Y-65614237D01*
X134775500Y-65506018D01*
X134775500Y-65393982D01*
X134775500Y-65385855D01*
X134778072Y-65385855D01*
X134786856Y-65329488D01*
X134814862Y-65291271D01*
X134849999Y-65258789D01*
X135350000Y-65258789D01*
X135370910Y-65257145D01*
X135526195Y-65212031D01*
X135665374Y-65129721D01*
X135665383Y-65129714D01*
X135745111Y-65049986D01*
X137825001Y-65049986D01*
X137835494Y-65152697D01*
X137890641Y-65319119D01*
X137890643Y-65319124D01*
X137982684Y-65468345D01*
X138106654Y-65592315D01*
X138255875Y-65684356D01*
X138255880Y-65684358D01*
X138422302Y-65739505D01*
X138422309Y-65739506D01*
X138525019Y-65749999D01*
X138799999Y-65749999D01*
X139300000Y-65749999D01*
X139574972Y-65749999D01*
X139574986Y-65749998D01*
X139677697Y-65739505D01*
X139844119Y-65684358D01*
X139844124Y-65684356D01*
X139993345Y-65592315D01*
X140117315Y-65468345D01*
X140209356Y-65319124D01*
X140209358Y-65319119D01*
X140264505Y-65152697D01*
X140264506Y-65152690D01*
X140274999Y-65049986D01*
X140275000Y-65049973D01*
X140275000Y-65000000D01*
X139300000Y-65000000D01*
X139300000Y-65749999D01*
X138799999Y-65749999D01*
X138800000Y-65749998D01*
X138800000Y-65000000D01*
X137825001Y-65000000D01*
X137825001Y-65049986D01*
X135745111Y-65049986D01*
X135779714Y-65015383D01*
X135779721Y-65015374D01*
X135856519Y-64885517D01*
X135862031Y-64876194D01*
X135904504Y-64730000D01*
X135350000Y-64730000D01*
X135350000Y-65258789D01*
X134849999Y-65258789D01*
X134850000Y-65258788D01*
X134850000Y-64730000D01*
X134295496Y-64730000D01*
X134278147Y-64753106D01*
X134222153Y-64794897D01*
X134152454Y-64799781D01*
X134091305Y-64766334D01*
X133436319Y-64111348D01*
X133402834Y-64050025D01*
X133400000Y-64023667D01*
X133400000Y-63463300D01*
X133401490Y-63458226D01*
X133400500Y-63458226D01*
X133400500Y-63117446D01*
X133400499Y-62072868D01*
X133400499Y-62072867D01*
X133400499Y-62066777D01*
X133401103Y-62066777D01*
X133400000Y-62061710D01*
X133400000Y-61529911D01*
X133399999Y-61529911D01*
X133324896Y-61539800D01*
X133324891Y-61539801D01*
X133185021Y-61597736D01*
X133064902Y-61689907D01*
X132992514Y-61784245D01*
X132975237Y-61796859D01*
X132961236Y-61813037D01*
X132942979Y-61820414D01*
X132936086Y-61825448D01*
X132929139Y-61827716D01*
X132923787Y-61829290D01*
X132867505Y-61840485D01*
X132853157Y-61850071D01*
X132835000Y-61855414D01*
X132818217Y-61855423D01*
X132802204Y-61860436D01*
X132784003Y-61855441D01*
X132765131Y-61855452D01*
X132751010Y-61846388D01*
X132744061Y-61844481D01*
X132743781Y-61845159D01*
X132738383Y-61842923D01*
X132734825Y-61841947D01*
X132732648Y-61840547D01*
X132732494Y-61840484D01*
X132652135Y-61824500D01*
X132447870Y-61824500D01*
X132387867Y-61836434D01*
X132367505Y-61840485D01*
X132367504Y-61840485D01*
X132367501Y-61840486D01*
X132356220Y-61845159D01*
X132355621Y-61843714D01*
X132302204Y-61860436D01*
X132244061Y-61844481D01*
X132243781Y-61845159D01*
X132238383Y-61842923D01*
X132234825Y-61841947D01*
X132232648Y-61840547D01*
X132232494Y-61840484D01*
X132152135Y-61824500D01*
X131947870Y-61824500D01*
X131887867Y-61836434D01*
X131867505Y-61840485D01*
X131867504Y-61840485D01*
X131867501Y-61840486D01*
X131856220Y-61845159D01*
X131855621Y-61843714D01*
X131802204Y-61860436D01*
X131744061Y-61844481D01*
X131743781Y-61845159D01*
X131738383Y-61842923D01*
X131734825Y-61841947D01*
X131732648Y-61840547D01*
X131732494Y-61840484D01*
X131652135Y-61824500D01*
X131447870Y-61824500D01*
X131387867Y-61836434D01*
X131367505Y-61840485D01*
X131367504Y-61840485D01*
X131367501Y-61840486D01*
X131356220Y-61845159D01*
X131355621Y-61843714D01*
X131302204Y-61860436D01*
X131244061Y-61844481D01*
X131243781Y-61845159D01*
X131238383Y-61842923D01*
X131234825Y-61841947D01*
X131232648Y-61840547D01*
X131232494Y-61840484D01*
X131152135Y-61824500D01*
X130947870Y-61824500D01*
X130887867Y-61836434D01*
X130867505Y-61840485D01*
X130867504Y-61840485D01*
X130867501Y-61840486D01*
X130856220Y-61845159D01*
X130855621Y-61843714D01*
X130802204Y-61860436D01*
X130744061Y-61844481D01*
X130743781Y-61845159D01*
X130738383Y-61842923D01*
X130734825Y-61841947D01*
X130732648Y-61840547D01*
X130732494Y-61840484D01*
X130652135Y-61824500D01*
X130447870Y-61824500D01*
X130387867Y-61836434D01*
X130367505Y-61840485D01*
X130367504Y-61840485D01*
X130367501Y-61840486D01*
X130356220Y-61845159D01*
X130355621Y-61843714D01*
X130302204Y-61860436D01*
X130244061Y-61844481D01*
X130243781Y-61845159D01*
X130238383Y-61842923D01*
X130234825Y-61841947D01*
X130232648Y-61840547D01*
X130232494Y-61840484D01*
X130152135Y-61824500D01*
X129947870Y-61824500D01*
X129887867Y-61836434D01*
X129867505Y-61840485D01*
X129867504Y-61840485D01*
X129867501Y-61840486D01*
X129856220Y-61845159D01*
X129855621Y-61843714D01*
X129802204Y-61860436D01*
X129744061Y-61844481D01*
X129743781Y-61845159D01*
X129738383Y-61842923D01*
X129734825Y-61841947D01*
X129732648Y-61840547D01*
X129732494Y-61840484D01*
X129652136Y-61824500D01*
X129449831Y-61824500D01*
X129382792Y-61804815D01*
X129337037Y-61752011D01*
X129327093Y-61682853D01*
X129356118Y-61619297D01*
X129362132Y-61612837D01*
X129888152Y-61086819D01*
X129949475Y-61053334D01*
X129975833Y-61050500D01*
X131322858Y-61050500D01*
X131384857Y-61067112D01*
X131435763Y-61096503D01*
X131543982Y-61125500D01*
X131543984Y-61125500D01*
X131656016Y-61125500D01*
X131656018Y-61125500D01*
X131764237Y-61096503D01*
X131861263Y-61040485D01*
X131940485Y-60961263D01*
X131996503Y-60864237D01*
X132025500Y-60756018D01*
X132025500Y-60643982D01*
X131996503Y-60535763D01*
X131940485Y-60438737D01*
X131861263Y-60359515D01*
X131764237Y-60303497D01*
X131656018Y-60274500D01*
X131543982Y-60274500D01*
X131432527Y-60304364D01*
X131362677Y-60302701D01*
X131304815Y-60263538D01*
X131277311Y-60199310D01*
X131276434Y-60184589D01*
X131276434Y-60093984D01*
X131276434Y-60093982D01*
X131247437Y-59985763D01*
X131191419Y-59888737D01*
X131112197Y-59809515D01*
X131015171Y-59753497D01*
X130906952Y-59724500D01*
X130794916Y-59724500D01*
X130686697Y-59753497D01*
X130686694Y-59753498D01*
X130589674Y-59809513D01*
X130589668Y-59809517D01*
X130510451Y-59888734D01*
X130510447Y-59888740D01*
X130453428Y-59987500D01*
X130402861Y-60035716D01*
X130346041Y-60049500D01*
X128199500Y-60049500D01*
X128132461Y-60029815D01*
X128086706Y-59977011D01*
X128075500Y-59925501D01*
X128075499Y-59747870D01*
X128075499Y-59747868D01*
X128059515Y-59667505D01*
X128059513Y-59667502D01*
X128054841Y-59656222D01*
X128056285Y-59655623D01*
X128039563Y-59602211D01*
X128055517Y-59544056D01*
X128054842Y-59543777D01*
X128057070Y-59538396D01*
X128058049Y-59534831D01*
X128059452Y-59532647D01*
X128059516Y-59532493D01*
X128075499Y-59452136D01*
X128075500Y-59452133D01*
X128075499Y-59247868D01*
X128059515Y-59167505D01*
X128059513Y-59167502D01*
X128054841Y-59156222D01*
X128056285Y-59155623D01*
X128039563Y-59102211D01*
X128055517Y-59044056D01*
X128054842Y-59043777D01*
X128057070Y-59038396D01*
X128058049Y-59034831D01*
X128059452Y-59032647D01*
X128059516Y-59032493D01*
X128075499Y-58952136D01*
X128075500Y-58952133D01*
X128075499Y-58747868D01*
X128059515Y-58667505D01*
X128059513Y-58667502D01*
X128054841Y-58656222D01*
X128056285Y-58655623D01*
X128039563Y-58602211D01*
X128055517Y-58544056D01*
X128054842Y-58543777D01*
X128057070Y-58538396D01*
X128058049Y-58534831D01*
X128059452Y-58532647D01*
X128059516Y-58532493D01*
X128075499Y-58452136D01*
X128075500Y-58452133D01*
X128075499Y-58247868D01*
X128059515Y-58167505D01*
X128059513Y-58167502D01*
X128054841Y-58156222D01*
X128056285Y-58155623D01*
X128039563Y-58102211D01*
X128055517Y-58044056D01*
X128054842Y-58043777D01*
X128057070Y-58038396D01*
X128058049Y-58034831D01*
X128059452Y-58032647D01*
X128059516Y-58032493D01*
X128075499Y-57952136D01*
X128075500Y-57952133D01*
X128075499Y-57747868D01*
X128059515Y-57667505D01*
X128059513Y-57667502D01*
X128054841Y-57656222D01*
X128056285Y-57655623D01*
X128039563Y-57602211D01*
X128055517Y-57544056D01*
X128054842Y-57543777D01*
X128057070Y-57538396D01*
X128058049Y-57534831D01*
X128059452Y-57532647D01*
X128059516Y-57532493D01*
X128070153Y-57479012D01*
X128075500Y-57452133D01*
X128075499Y-57247868D01*
X128059515Y-57167505D01*
X128059513Y-57167502D01*
X128054841Y-57156222D01*
X128056285Y-57155623D01*
X128039563Y-57102211D01*
X128055517Y-57044056D01*
X128054842Y-57043777D01*
X128057070Y-57038396D01*
X128058049Y-57034831D01*
X128059452Y-57032647D01*
X128059516Y-57032493D01*
X128075499Y-56952136D01*
X128075500Y-56952133D01*
X128075499Y-56747868D01*
X128059515Y-56667505D01*
X128059513Y-56667502D01*
X128054841Y-56656222D01*
X128056285Y-56655623D01*
X128039563Y-56602211D01*
X128055517Y-56544056D01*
X128054842Y-56543777D01*
X128057070Y-56538396D01*
X128058049Y-56534831D01*
X128059452Y-56532647D01*
X128059516Y-56532493D01*
X128075499Y-56452136D01*
X128075500Y-56452133D01*
X128075499Y-56247868D01*
X128059515Y-56167505D01*
X128059513Y-56167502D01*
X128054841Y-56156222D01*
X128056285Y-56155623D01*
X128039563Y-56102211D01*
X128055517Y-56044056D01*
X128054842Y-56043777D01*
X128057070Y-56038396D01*
X128058049Y-56034831D01*
X128059452Y-56032647D01*
X128059516Y-56032493D01*
X128074436Y-55957480D01*
X128075500Y-55952133D01*
X128075499Y-55747868D01*
X128059515Y-55667505D01*
X128027405Y-55619449D01*
X127998624Y-55576375D01*
X127943995Y-55539874D01*
X127907495Y-55515485D01*
X127907493Y-55515484D01*
X127907490Y-55515483D01*
X127827137Y-55499500D01*
X127827133Y-55499500D01*
X126559109Y-55499500D01*
X126492070Y-55479815D01*
X126471428Y-55463181D01*
X124936819Y-53928572D01*
X124903334Y-53867249D01*
X124900500Y-53840891D01*
X124900500Y-52620000D01*
X126795496Y-52620000D01*
X126837968Y-52766195D01*
X126920278Y-52905374D01*
X126920285Y-52905383D01*
X127034616Y-53019714D01*
X127040785Y-53024499D01*
X127039265Y-53026457D01*
X127078625Y-53068599D01*
X127091139Y-53137339D01*
X127090769Y-53140461D01*
X127089500Y-53150101D01*
X127089500Y-53509894D01*
X127089501Y-53509900D01*
X127096028Y-53559487D01*
X127096029Y-53559489D01*
X127096029Y-53559490D01*
X127146776Y-53668316D01*
X127188181Y-53709721D01*
X127202884Y-53736648D01*
X127219477Y-53762467D01*
X127220368Y-53768667D01*
X127221666Y-53771044D01*
X127224500Y-53797402D01*
X127224500Y-53979556D01*
X127207887Y-54041556D01*
X127153498Y-54135760D01*
X127153497Y-54135763D01*
X127124500Y-54243982D01*
X127124500Y-54356018D01*
X127153497Y-54464237D01*
X127209515Y-54561263D01*
X127288737Y-54640485D01*
X127385763Y-54696503D01*
X127490837Y-54724657D01*
X127546423Y-54756750D01*
X127600138Y-54810465D01*
X127600140Y-54810466D01*
X127600144Y-54810469D01*
X127669481Y-54850500D01*
X127674362Y-54853318D01*
X127757147Y-54875500D01*
X127842853Y-54875500D01*
X128075501Y-54875500D01*
X128142540Y-54895185D01*
X128188295Y-54947989D01*
X128199501Y-54999500D01*
X128199501Y-55127132D01*
X128212671Y-55193345D01*
X128215485Y-55207495D01*
X128276375Y-55298624D01*
X128304349Y-55317315D01*
X128367505Y-55359515D01*
X128418332Y-55369625D01*
X128480241Y-55402009D01*
X128492516Y-55415755D01*
X128564905Y-55510094D01*
X128685021Y-55602263D01*
X128824896Y-55660200D01*
X128824901Y-55660201D01*
X128899998Y-55670087D01*
X128900000Y-55670086D01*
X128900000Y-55138300D01*
X128901490Y-55133226D01*
X128900500Y-55133226D01*
X128900500Y-54794655D01*
X128900499Y-53747868D01*
X128900499Y-53747867D01*
X128900499Y-53741777D01*
X128901103Y-53741777D01*
X128900000Y-53736710D01*
X128900000Y-53204911D01*
X128899998Y-53204910D01*
X128890184Y-53206203D01*
X128821149Y-53195437D01*
X128768894Y-53149057D01*
X128750000Y-53083264D01*
X128750000Y-52700000D01*
X128526529Y-52700000D01*
X128459490Y-52680315D01*
X128427368Y-52650452D01*
X128404504Y-52620000D01*
X126795496Y-52620000D01*
X124900500Y-52620000D01*
X124900500Y-52120000D01*
X126795496Y-52120000D01*
X127350000Y-52120000D01*
X127850000Y-52120000D01*
X128404504Y-52120000D01*
X128362031Y-51973804D01*
X128279721Y-51834625D01*
X128279714Y-51834616D01*
X128165383Y-51720285D01*
X128165374Y-51720278D01*
X128026195Y-51637968D01*
X128026190Y-51637966D01*
X127870918Y-51592855D01*
X127870912Y-51592854D01*
X127850000Y-51591209D01*
X127850000Y-52120000D01*
X127350000Y-52120000D01*
X127350000Y-51591210D01*
X127349999Y-51591209D01*
X127329087Y-51592854D01*
X127329081Y-51592855D01*
X127173809Y-51637966D01*
X127173804Y-51637968D01*
X127034625Y-51720278D01*
X127034616Y-51720285D01*
X126920285Y-51834616D01*
X126920278Y-51834625D01*
X126837968Y-51973804D01*
X126795496Y-52120000D01*
X124900500Y-52120000D01*
X124900500Y-46950000D01*
X126052970Y-46950000D01*
X126995854Y-46950000D01*
X126957370Y-47016657D01*
X126925000Y-47137465D01*
X126925000Y-47262535D01*
X126957370Y-47383343D01*
X126995854Y-47450000D01*
X126052970Y-47450000D01*
X126083242Y-47641127D01*
X126083242Y-47641130D01*
X126148904Y-47843217D01*
X126245379Y-48032557D01*
X126370272Y-48204459D01*
X126370276Y-48204464D01*
X126520535Y-48354723D01*
X126520540Y-48354727D01*
X126692442Y-48479620D01*
X126881782Y-48576095D01*
X127083871Y-48641757D01*
X127150000Y-48652231D01*
X127150000Y-47604145D01*
X127216657Y-47642630D01*
X127337465Y-47675000D01*
X127462535Y-47675000D01*
X127583343Y-47642630D01*
X127650000Y-47604145D01*
X127650000Y-48652230D01*
X127716126Y-48641757D01*
X127716129Y-48641757D01*
X127918217Y-48576095D01*
X128107557Y-48479620D01*
X128279459Y-48354727D01*
X128279464Y-48354723D01*
X128429723Y-48204464D01*
X128429727Y-48204459D01*
X128554620Y-48032557D01*
X128651095Y-47843217D01*
X128690759Y-47721144D01*
X128730196Y-47663469D01*
X128794555Y-47636270D01*
X128863401Y-47648184D01*
X128914877Y-47695428D01*
X128923251Y-47712009D01*
X128969057Y-47822596D01*
X129084024Y-47994657D01*
X129230342Y-48140975D01*
X129230345Y-48140977D01*
X129402402Y-48255941D01*
X129593580Y-48335130D01*
X129782187Y-48372646D01*
X129796530Y-48375499D01*
X129796534Y-48375500D01*
X129796535Y-48375500D01*
X130003466Y-48375500D01*
X130003467Y-48375499D01*
X130206420Y-48335130D01*
X130397598Y-48255941D01*
X130397605Y-48255935D01*
X130402965Y-48253072D01*
X130404287Y-48255545D01*
X130459385Y-48238182D01*
X130526799Y-48256544D01*
X130549506Y-48274477D01*
X131713181Y-49438152D01*
X131746666Y-49499475D01*
X131749500Y-49525833D01*
X131749500Y-51553640D01*
X131729815Y-51620679D01*
X131677011Y-51666434D01*
X131607853Y-51676378D01*
X131593412Y-51673416D01*
X131506018Y-51649999D01*
X131393982Y-51649999D01*
X131285763Y-51678996D01*
X131285760Y-51678997D01*
X131188740Y-51735012D01*
X131188734Y-51735016D01*
X131109517Y-51814233D01*
X131109513Y-51814239D01*
X131053498Y-51911259D01*
X131053497Y-51911262D01*
X131024500Y-52019481D01*
X131024500Y-52131521D01*
X131024868Y-52134317D01*
X131024500Y-52136676D01*
X131024500Y-52139644D01*
X131024037Y-52139644D01*
X131014101Y-52203352D01*
X130967720Y-52255607D01*
X130901929Y-52274500D01*
X130893982Y-52274500D01*
X130785763Y-52303497D01*
X130785760Y-52303498D01*
X130688740Y-52359513D01*
X130688734Y-52359517D01*
X130609517Y-52438734D01*
X130609513Y-52438740D01*
X130553498Y-52535760D01*
X130553497Y-52535763D01*
X130524500Y-52643982D01*
X130524500Y-52756018D01*
X130553497Y-52864237D01*
X130609515Y-52961263D01*
X130688737Y-53040485D01*
X130688739Y-53040486D01*
X130695188Y-53045435D01*
X130694167Y-53046764D01*
X130695781Y-53048457D01*
X130706703Y-53053445D01*
X130719447Y-53073276D01*
X130735714Y-53090335D01*
X130738930Y-53103592D01*
X130744477Y-53112223D01*
X130749500Y-53147158D01*
X130749500Y-53375500D01*
X130729815Y-53442539D01*
X130677011Y-53488294D01*
X130625501Y-53499500D01*
X130447870Y-53499500D01*
X130387867Y-53511434D01*
X130367505Y-53515485D01*
X130367504Y-53515485D01*
X130367501Y-53515486D01*
X130356220Y-53520159D01*
X130355621Y-53518714D01*
X130302204Y-53535436D01*
X130244061Y-53519481D01*
X130243781Y-53520159D01*
X130238383Y-53517923D01*
X130234825Y-53516947D01*
X130232648Y-53515547D01*
X130232494Y-53515484D01*
X130152135Y-53499500D01*
X129947870Y-53499500D01*
X129887867Y-53511434D01*
X129867505Y-53515485D01*
X129867504Y-53515485D01*
X129867501Y-53515486D01*
X129856220Y-53520159D01*
X129855621Y-53518714D01*
X129802204Y-53535436D01*
X129764999Y-53530414D01*
X129746843Y-53525072D01*
X129732495Y-53515485D01*
X129676204Y-53504288D01*
X129670858Y-53502715D01*
X129645973Y-53486702D01*
X129619756Y-53472989D01*
X129613133Y-53465572D01*
X129612101Y-53464908D01*
X129611642Y-53463902D01*
X129607483Y-53459244D01*
X129535094Y-53364905D01*
X129414978Y-53272736D01*
X129275108Y-53214801D01*
X129275103Y-53214800D01*
X129200000Y-53204911D01*
X129200000Y-53736699D01*
X129199500Y-53746877D01*
X129199500Y-53747866D01*
X129199500Y-53747867D01*
X129199500Y-54431420D01*
X129199501Y-54437500D01*
X129199501Y-55128142D01*
X129200000Y-55138289D01*
X129200000Y-55670086D01*
X129200001Y-55670087D01*
X129275098Y-55660201D01*
X129275103Y-55660200D01*
X129414978Y-55602263D01*
X129535099Y-55510090D01*
X129537819Y-55507371D01*
X129540678Y-55505809D01*
X129541542Y-55505147D01*
X129541645Y-55505281D01*
X129599142Y-55473886D01*
X129668834Y-55478870D01*
X129724767Y-55520742D01*
X129749184Y-55586206D01*
X129749500Y-55595052D01*
X129749500Y-56997389D01*
X129729815Y-57064428D01*
X129713182Y-57085070D01*
X129659514Y-57138738D01*
X129659513Y-57138740D01*
X129603498Y-57235760D01*
X129603497Y-57235763D01*
X129574500Y-57343982D01*
X129574500Y-57456018D01*
X129603497Y-57564237D01*
X129659515Y-57661263D01*
X129738737Y-57740485D01*
X129835763Y-57796503D01*
X129943982Y-57825500D01*
X129943984Y-57825500D01*
X130056016Y-57825500D01*
X130056018Y-57825500D01*
X130164237Y-57796503D01*
X130261263Y-57740485D01*
X130340485Y-57661263D01*
X130396503Y-57564237D01*
X130425500Y-57456018D01*
X130425500Y-57343982D01*
X130396503Y-57235763D01*
X130367111Y-57184855D01*
X130350500Y-57122857D01*
X130350500Y-55732243D01*
X130370185Y-55665204D01*
X130422989Y-55619449D01*
X130492147Y-55609505D01*
X130555703Y-55638530D01*
X130562181Y-55644562D01*
X131977130Y-57059511D01*
X132033079Y-57115460D01*
X132033081Y-57115461D01*
X132033085Y-57115464D01*
X132073401Y-57138740D01*
X132101601Y-57155021D01*
X132178028Y-57175500D01*
X133447390Y-57175500D01*
X133514429Y-57195185D01*
X133535071Y-57211819D01*
X133538737Y-57215485D01*
X133635763Y-57271503D01*
X133743982Y-57300500D01*
X133743984Y-57300500D01*
X133856016Y-57300500D01*
X133856018Y-57300500D01*
X133964237Y-57271503D01*
X134061263Y-57215485D01*
X134140485Y-57136263D01*
X134196503Y-57039237D01*
X134225500Y-56931018D01*
X134225500Y-56818982D01*
X134196503Y-56710763D01*
X134140485Y-56613737D01*
X134061263Y-56534515D01*
X133964237Y-56478497D01*
X133856018Y-56449500D01*
X133743982Y-56449500D01*
X133635763Y-56478497D01*
X133635760Y-56478498D01*
X133538740Y-56534513D01*
X133538734Y-56534517D01*
X133535071Y-56538181D01*
X133473748Y-56571666D01*
X133447390Y-56574500D01*
X132393423Y-56574500D01*
X132326384Y-56554815D01*
X132305742Y-56538181D01*
X131354741Y-55587180D01*
X131321256Y-55525857D01*
X131326240Y-55456165D01*
X131368112Y-55400232D01*
X131433576Y-55375815D01*
X131442422Y-55375499D01*
X131447862Y-55375499D01*
X131447867Y-55375500D01*
X131652132Y-55375499D01*
X131732495Y-55359515D01*
X131732498Y-55359512D01*
X131743778Y-55354841D01*
X131744376Y-55356286D01*
X131797782Y-55339563D01*
X131855943Y-55355516D01*
X131856223Y-55354842D01*
X131861590Y-55357065D01*
X131865162Y-55358045D01*
X131867351Y-55359451D01*
X131867506Y-55359516D01*
X131918326Y-55369624D01*
X131947867Y-55375500D01*
X132152132Y-55375499D01*
X132232495Y-55359515D01*
X132232498Y-55359512D01*
X132243778Y-55354841D01*
X132244376Y-55356286D01*
X132297782Y-55339563D01*
X132355943Y-55355516D01*
X132356223Y-55354842D01*
X132361590Y-55357065D01*
X132365162Y-55358045D01*
X132367351Y-55359451D01*
X132367506Y-55359516D01*
X132418326Y-55369624D01*
X132447867Y-55375500D01*
X132652132Y-55375499D01*
X132732495Y-55359515D01*
X132732498Y-55359512D01*
X132743778Y-55354841D01*
X132744376Y-55356286D01*
X132797782Y-55339563D01*
X132855943Y-55355516D01*
X132856223Y-55354842D01*
X132861590Y-55357065D01*
X132865162Y-55358045D01*
X132867351Y-55359451D01*
X132867506Y-55359516D01*
X132918326Y-55369624D01*
X132947867Y-55375500D01*
X133152132Y-55375499D01*
X133232495Y-55359515D01*
X133232498Y-55359512D01*
X133243778Y-55354841D01*
X133244376Y-55356286D01*
X133297782Y-55339563D01*
X133355943Y-55355516D01*
X133356223Y-55354842D01*
X133361590Y-55357065D01*
X133365162Y-55358045D01*
X133367351Y-55359451D01*
X133367506Y-55359516D01*
X133418326Y-55369624D01*
X133447867Y-55375500D01*
X133652132Y-55375499D01*
X133732495Y-55359515D01*
X133732498Y-55359512D01*
X133743778Y-55354841D01*
X133744376Y-55356286D01*
X133797782Y-55339563D01*
X133855943Y-55355516D01*
X133856223Y-55354842D01*
X133861590Y-55357065D01*
X133865162Y-55358045D01*
X133867351Y-55359451D01*
X133867506Y-55359516D01*
X133918326Y-55369624D01*
X133947867Y-55375500D01*
X134152132Y-55375499D01*
X134232495Y-55359515D01*
X134257109Y-55343067D01*
X134323786Y-55322190D01*
X134391167Y-55340674D01*
X134434526Y-55386186D01*
X134450000Y-55414182D01*
X134450000Y-55500000D01*
X134497433Y-55500000D01*
X134532815Y-55564016D01*
X134533879Y-55568792D01*
X134537083Y-55572489D01*
X134541406Y-55602556D01*
X134548017Y-55632212D01*
X134546330Y-55636804D01*
X134547027Y-55641647D01*
X134541939Y-55660187D01*
X134524500Y-55747863D01*
X134524500Y-55952129D01*
X134529331Y-55976416D01*
X134540240Y-56031265D01*
X134540486Y-56032498D01*
X134545159Y-56043780D01*
X134543714Y-56044378D01*
X134560436Y-56097788D01*
X134544482Y-56155938D01*
X134545159Y-56156219D01*
X134542926Y-56161609D01*
X134541950Y-56165168D01*
X134540550Y-56167345D01*
X134540484Y-56167505D01*
X134524500Y-56247863D01*
X134524500Y-56452129D01*
X134527343Y-56466422D01*
X134539099Y-56525529D01*
X134540486Y-56532498D01*
X134545159Y-56543780D01*
X134543714Y-56544378D01*
X134560436Y-56597788D01*
X134544482Y-56655938D01*
X134545159Y-56656219D01*
X134542926Y-56661609D01*
X134541950Y-56665168D01*
X134540550Y-56667345D01*
X134540484Y-56667505D01*
X134524500Y-56747863D01*
X134524500Y-56952129D01*
X134540486Y-57032498D01*
X134545159Y-57043780D01*
X134543714Y-57044378D01*
X134560436Y-57097788D01*
X134555414Y-57135000D01*
X134550071Y-57153157D01*
X134540485Y-57167505D01*
X134529289Y-57223789D01*
X134527715Y-57229140D01*
X134511702Y-57254024D01*
X134497988Y-57280242D01*
X134490570Y-57286865D01*
X134489907Y-57287897D01*
X134488902Y-57288355D01*
X134484245Y-57292514D01*
X134389906Y-57364904D01*
X134297736Y-57485021D01*
X134239801Y-57624891D01*
X134239800Y-57624896D01*
X134229911Y-57699999D01*
X134229912Y-57700000D01*
X134761699Y-57700000D01*
X134766776Y-57701490D01*
X134766776Y-57700500D01*
X134772866Y-57700499D01*
X134772867Y-57700500D01*
X136152132Y-57700499D01*
X136158223Y-57700499D01*
X136158223Y-57701102D01*
X136163289Y-57700000D01*
X136695088Y-57700000D01*
X136695088Y-57699999D01*
X136692846Y-57682974D01*
X136691859Y-57680000D01*
X137645496Y-57680000D01*
X137687968Y-57826195D01*
X137770278Y-57965374D01*
X137770285Y-57965383D01*
X137884616Y-58079714D01*
X137884625Y-58079721D01*
X138023804Y-58162031D01*
X138179089Y-58207145D01*
X138200000Y-58208789D01*
X138700000Y-58208789D01*
X138720910Y-58207145D01*
X138876195Y-58162031D01*
X138911877Y-58140929D01*
X138979601Y-58123745D01*
X139038123Y-58140929D01*
X139073804Y-58162031D01*
X139229089Y-58207145D01*
X139250000Y-58208789D01*
X139250000Y-57680000D01*
X138700000Y-57680000D01*
X138700000Y-58208789D01*
X138200000Y-58208789D01*
X138200000Y-57680000D01*
X137645496Y-57680000D01*
X136691859Y-57680000D01*
X136625123Y-57479012D01*
X136624051Y-57448392D01*
X136620775Y-57417920D01*
X136622840Y-57413794D01*
X136622679Y-57409185D01*
X136638331Y-57382847D01*
X136652050Y-57355441D01*
X136655096Y-57352284D01*
X137200562Y-56806819D01*
X137261885Y-56773334D01*
X137288243Y-56770500D01*
X137626291Y-56770500D01*
X137693330Y-56790185D01*
X137739085Y-56842989D01*
X137749029Y-56912147D01*
X137733023Y-56957621D01*
X137687968Y-57033804D01*
X137645496Y-57180000D01*
X139376000Y-57180000D01*
X139443039Y-57199685D01*
X139488794Y-57252489D01*
X139500000Y-57304000D01*
X139500000Y-57430000D01*
X139626000Y-57430000D01*
X139693039Y-57449685D01*
X139738794Y-57502489D01*
X139750000Y-57554000D01*
X139750000Y-58208789D01*
X139770910Y-58207145D01*
X139926195Y-58162031D01*
X140065374Y-58079721D01*
X140065383Y-58079714D01*
X140182163Y-57962935D01*
X140243486Y-57929450D01*
X140313178Y-57934434D01*
X140357525Y-57962935D01*
X140444243Y-58049653D01*
X140444245Y-58049654D01*
X140444249Y-58049658D01*
X140562580Y-58109951D01*
X140562581Y-58109951D01*
X140562583Y-58109952D01*
X140562582Y-58109952D01*
X140660749Y-58125500D01*
X140660754Y-58125500D01*
X141239251Y-58125500D01*
X141337417Y-58109952D01*
X141337418Y-58109951D01*
X141337420Y-58109951D01*
X141455751Y-58049658D01*
X141511679Y-57993729D01*
X141548030Y-57973880D01*
X141572989Y-57960248D01*
X141572995Y-57960247D01*
X141572998Y-57960246D01*
X141608187Y-57957727D01*
X141834337Y-57973881D01*
X141899801Y-57998291D01*
X141941678Y-58054221D01*
X141949500Y-58097565D01*
X141949500Y-58825500D01*
X141929815Y-58892539D01*
X141877011Y-58938294D01*
X141825500Y-58949500D01*
X137308243Y-58949500D01*
X137241204Y-58929815D01*
X137220562Y-58913181D01*
X136655124Y-58347743D01*
X136621639Y-58286420D01*
X136626623Y-58216728D01*
X136628244Y-58212609D01*
X136685199Y-58075105D01*
X136685199Y-58075103D01*
X136695088Y-58000000D01*
X136163301Y-58000000D01*
X136153123Y-57999500D01*
X134771870Y-57999500D01*
X134761711Y-58000000D01*
X134229912Y-58000000D01*
X134239800Y-58075103D01*
X134239801Y-58075108D01*
X134297736Y-58214978D01*
X134389905Y-58335094D01*
X134484245Y-58407484D01*
X134496860Y-58424762D01*
X134513037Y-58438763D01*
X134520414Y-58457019D01*
X134525447Y-58463912D01*
X134527716Y-58470860D01*
X134529289Y-58476209D01*
X134540485Y-58532495D01*
X134550072Y-58546843D01*
X134555414Y-58564999D01*
X134555423Y-58581776D01*
X134560436Y-58597788D01*
X134555441Y-58615991D01*
X134555452Y-58634868D01*
X134546389Y-58648986D01*
X134544482Y-58655938D01*
X134545159Y-58656219D01*
X134542926Y-58661609D01*
X134541950Y-58665168D01*
X134540550Y-58667345D01*
X134540484Y-58667505D01*
X134524500Y-58747863D01*
X134524500Y-58952129D01*
X134540486Y-59032498D01*
X134545159Y-59043780D01*
X134543714Y-59044378D01*
X134560436Y-59097788D01*
X134544482Y-59155938D01*
X134545159Y-59156219D01*
X134542926Y-59161609D01*
X134541950Y-59165168D01*
X134540550Y-59167345D01*
X134540484Y-59167505D01*
X134524500Y-59247863D01*
X134524500Y-59452129D01*
X134532124Y-59490458D01*
X134539992Y-59530017D01*
X134540486Y-59532498D01*
X134545159Y-59543780D01*
X134543714Y-59544378D01*
X134560436Y-59597788D01*
X134544482Y-59655938D01*
X134545159Y-59656219D01*
X134542926Y-59661609D01*
X134541950Y-59665168D01*
X134540550Y-59667345D01*
X134540484Y-59667505D01*
X134524500Y-59747863D01*
X134524500Y-59952129D01*
X134540486Y-60032498D01*
X134545159Y-60043780D01*
X134543714Y-60044378D01*
X134560436Y-60097788D01*
X134544482Y-60155938D01*
X134545159Y-60156219D01*
X134542926Y-60161609D01*
X134541950Y-60165168D01*
X134540550Y-60167345D01*
X134540484Y-60167505D01*
X134524500Y-60247863D01*
X134524500Y-60452129D01*
X134532493Y-60492313D01*
X134536016Y-60510028D01*
X134540486Y-60532498D01*
X134545159Y-60543780D01*
X134543714Y-60544378D01*
X134560436Y-60597788D01*
X134544482Y-60655938D01*
X134545159Y-60656219D01*
X134542926Y-60661609D01*
X134541950Y-60665168D01*
X134540550Y-60667345D01*
X134540484Y-60667505D01*
X134524500Y-60747863D01*
X134524500Y-60952129D01*
X134528116Y-60970309D01*
X134538056Y-61020285D01*
X134540486Y-61032498D01*
X134545159Y-61043780D01*
X134543714Y-61044378D01*
X134560436Y-61097788D01*
X134544482Y-61155938D01*
X134545159Y-61156219D01*
X134542926Y-61161609D01*
X134541950Y-61165168D01*
X134540550Y-61167345D01*
X134540484Y-61167505D01*
X134524500Y-61247863D01*
X134524500Y-61452129D01*
X134530376Y-61481669D01*
X134539943Y-61529772D01*
X134542868Y-61544473D01*
X134540611Y-61544921D01*
X134546319Y-61598018D01*
X134515043Y-61660497D01*
X134511970Y-61663682D01*
X134475652Y-61700000D01*
X134400000Y-61700000D01*
X134400000Y-61775651D01*
X134363681Y-61811970D01*
X134344242Y-61822583D01*
X134327511Y-61837082D01*
X134314180Y-61838998D01*
X134302358Y-61845454D01*
X134280271Y-61843874D01*
X134258353Y-61847026D01*
X134239815Y-61841940D01*
X134181668Y-61830374D01*
X134119757Y-61797989D01*
X134107483Y-61784244D01*
X134035094Y-61689905D01*
X133914978Y-61597736D01*
X133775108Y-61539801D01*
X133775103Y-61539800D01*
X133700000Y-61529911D01*
X133700000Y-62061699D01*
X133699500Y-62071877D01*
X133699500Y-62072866D01*
X133699500Y-62072867D01*
X133699500Y-62754223D01*
X133699501Y-62762500D01*
X133699501Y-63453142D01*
X133700000Y-63463289D01*
X133700000Y-63995086D01*
X133700001Y-63995087D01*
X133775098Y-63985201D01*
X133775103Y-63985200D01*
X133914978Y-63927263D01*
X134035096Y-63835093D01*
X134107484Y-63740755D01*
X134153050Y-63704049D01*
X134166782Y-63697585D01*
X134232495Y-63684515D01*
X134322948Y-63624075D01*
X134331326Y-63620132D01*
X134357063Y-63616127D01*
X134381922Y-63608344D01*
X134391031Y-63610843D01*
X134400365Y-63609391D01*
X134424180Y-63619936D01*
X134449302Y-63626828D01*
X134461448Y-63636439D01*
X134464251Y-63637680D01*
X134465596Y-63639720D01*
X134471818Y-63644644D01*
X134508357Y-63681184D01*
X134541842Y-63742508D01*
X134536856Y-63812199D01*
X134508357Y-63856545D01*
X134420282Y-63944620D01*
X134420278Y-63944625D01*
X134337968Y-64083804D01*
X134295496Y-64230000D01*
X135904504Y-64230000D01*
X135862031Y-64083804D01*
X135779721Y-63944625D01*
X135779714Y-63944616D01*
X135665381Y-63830283D01*
X135659217Y-63825502D01*
X135660733Y-63823547D01*
X135659908Y-63822663D01*
X135647921Y-63816704D01*
X135636529Y-63797622D01*
X135621363Y-63781378D01*
X135618179Y-63766885D01*
X135612106Y-63756713D01*
X135610633Y-63732540D01*
X135608237Y-63721631D01*
X135608436Y-63715573D01*
X135610500Y-63699901D01*
X135610500Y-63680000D01*
X136445496Y-63680000D01*
X136487968Y-63826195D01*
X136570278Y-63965374D01*
X136570285Y-63965383D01*
X136684616Y-64079714D01*
X136684625Y-64079721D01*
X136823804Y-64162031D01*
X136979089Y-64207145D01*
X137000000Y-64208789D01*
X137000000Y-63680000D01*
X136445496Y-63680000D01*
X135610500Y-63680000D01*
X135610499Y-63521188D01*
X135630183Y-63454149D01*
X135646814Y-63433511D01*
X135939652Y-63140672D01*
X135939657Y-63140669D01*
X135944008Y-63136319D01*
X135950960Y-63132522D01*
X135971874Y-63117449D01*
X135971880Y-63117446D01*
X135973315Y-63120316D01*
X136005331Y-63102834D01*
X136031689Y-63100000D01*
X136323471Y-63100000D01*
X136390510Y-63119685D01*
X136422632Y-63149548D01*
X136445496Y-63180000D01*
X137126000Y-63180000D01*
X137193039Y-63199685D01*
X137238794Y-63252489D01*
X137250000Y-63304000D01*
X137250000Y-63430000D01*
X137376000Y-63430000D01*
X137443039Y-63449685D01*
X137488794Y-63502489D01*
X137500000Y-63554000D01*
X137500000Y-64208789D01*
X137520910Y-64207145D01*
X137676194Y-64162031D01*
X137679812Y-64160466D01*
X137682894Y-64160085D01*
X137683687Y-64159855D01*
X137683724Y-64159982D01*
X137749154Y-64151902D01*
X137812119Y-64182187D01*
X137848715Y-64241706D01*
X137847324Y-64311562D01*
X137846773Y-64313266D01*
X137835494Y-64347304D01*
X137835493Y-64347309D01*
X137825000Y-64450013D01*
X137825000Y-64500000D01*
X140274999Y-64500000D01*
X140274999Y-64450028D01*
X140274998Y-64450013D01*
X140264505Y-64347301D01*
X140257073Y-64324870D01*
X140257069Y-64324860D01*
X140246837Y-64293982D01*
X141824500Y-64293982D01*
X141824500Y-64406018D01*
X141853497Y-64514237D01*
X141909515Y-64611263D01*
X141988737Y-64690485D01*
X142085763Y-64746503D01*
X142193982Y-64775500D01*
X142199167Y-64775500D01*
X142266206Y-64795185D01*
X142286848Y-64811819D01*
X142315489Y-64840460D01*
X142315491Y-64840461D01*
X142315495Y-64840464D01*
X142377382Y-64876194D01*
X142384011Y-64880021D01*
X142460438Y-64900500D01*
X142539562Y-64900500D01*
X146144167Y-64900500D01*
X146173607Y-64909144D01*
X146203594Y-64915668D01*
X146208609Y-64919422D01*
X146211206Y-64920185D01*
X146231848Y-64936819D01*
X146403181Y-65108152D01*
X146436666Y-65169475D01*
X146439500Y-65195832D01*
X146439500Y-65409894D01*
X146439501Y-65409900D01*
X146446028Y-65459487D01*
X146446029Y-65459489D01*
X146446029Y-65459490D01*
X146496776Y-65568316D01*
X146583181Y-65654721D01*
X146616666Y-65716044D01*
X146619500Y-65742402D01*
X146619500Y-66159562D01*
X146625509Y-66181987D01*
X146639979Y-66235990D01*
X146639982Y-66235995D01*
X146679535Y-66304504D01*
X146679541Y-66304512D01*
X147063181Y-66688152D01*
X147096666Y-66749475D01*
X147099500Y-66775833D01*
X147099500Y-68219752D01*
X147111131Y-68278229D01*
X147111132Y-68278230D01*
X147155447Y-68344552D01*
X147221769Y-68388867D01*
X147221770Y-68388868D01*
X147280247Y-68400499D01*
X147280250Y-68400500D01*
X147280252Y-68400500D01*
X149319750Y-68400500D01*
X149319751Y-68400499D01*
X149334568Y-68397552D01*
X149378229Y-68388868D01*
X149378229Y-68388867D01*
X149378231Y-68388867D01*
X149444552Y-68344552D01*
X149488867Y-68278231D01*
X149488867Y-68278229D01*
X149488868Y-68278229D01*
X149500499Y-68219752D01*
X149500500Y-68219750D01*
X149500500Y-66780249D01*
X149500499Y-66780247D01*
X149488868Y-66721770D01*
X149488867Y-66721769D01*
X149444552Y-66655447D01*
X149378230Y-66611132D01*
X149378229Y-66611131D01*
X149319752Y-66599500D01*
X149319748Y-66599500D01*
X147875833Y-66599500D01*
X147808794Y-66579815D01*
X147788152Y-66563181D01*
X147406958Y-66181987D01*
X147373473Y-66120664D01*
X147378457Y-66050972D01*
X147420329Y-65995039D01*
X147485793Y-65970622D01*
X147529234Y-65975229D01*
X147630000Y-66004503D01*
X148130000Y-66004503D01*
X148276195Y-65962031D01*
X148415374Y-65879721D01*
X148415383Y-65879714D01*
X148529714Y-65765383D01*
X148529721Y-65765374D01*
X148612031Y-65626195D01*
X148612033Y-65626190D01*
X148657144Y-65470918D01*
X148657145Y-65470912D01*
X148658790Y-65450000D01*
X148130000Y-65450000D01*
X148130000Y-66004503D01*
X147630000Y-66004503D01*
X147630000Y-64395494D01*
X148130000Y-64395494D01*
X148130000Y-64950000D01*
X148658790Y-64950000D01*
X148657145Y-64929089D01*
X148612031Y-64773804D01*
X148529721Y-64634625D01*
X148529714Y-64634616D01*
X148415383Y-64520285D01*
X148415374Y-64520278D01*
X148276193Y-64437967D01*
X148276190Y-64437965D01*
X148130001Y-64395493D01*
X148130000Y-64395494D01*
X147630000Y-64395494D01*
X147629998Y-64395493D01*
X147483809Y-64437965D01*
X147483806Y-64437967D01*
X147344625Y-64520278D01*
X147344620Y-64520282D01*
X147230282Y-64634621D01*
X147225499Y-64640788D01*
X147223612Y-64639324D01*
X147218640Y-64649938D01*
X147198636Y-64662520D01*
X147181362Y-64678644D01*
X147168126Y-64681712D01*
X147159498Y-64687140D01*
X147137973Y-64688703D01*
X147124516Y-64691823D01*
X147116991Y-64691749D01*
X147099901Y-64689500D01*
X146885247Y-64689500D01*
X146884629Y-64689494D01*
X146851722Y-64679483D01*
X146818794Y-64669815D01*
X146818100Y-64669256D01*
X146817784Y-64669160D01*
X146817355Y-64668656D01*
X146798152Y-64653181D01*
X146504512Y-64359541D01*
X146504504Y-64359535D01*
X146435995Y-64319982D01*
X146435990Y-64319979D01*
X146404577Y-64311562D01*
X146359562Y-64299500D01*
X146359560Y-64299500D01*
X142772127Y-64299500D01*
X142705088Y-64279815D01*
X142659333Y-64227011D01*
X142652354Y-64207600D01*
X142646503Y-64185763D01*
X142590485Y-64088737D01*
X142511263Y-64009515D01*
X142414237Y-63953497D01*
X142306018Y-63924500D01*
X142193982Y-63924500D01*
X142085763Y-63953497D01*
X142085760Y-63953498D01*
X141988740Y-64009513D01*
X141988734Y-64009517D01*
X141909517Y-64088734D01*
X141909513Y-64088740D01*
X141853498Y-64185760D01*
X141853498Y-64185761D01*
X141853497Y-64185763D01*
X141824500Y-64293982D01*
X140246837Y-64293982D01*
X140209357Y-64180878D01*
X140209356Y-64180875D01*
X140117315Y-64031654D01*
X139993345Y-63907684D01*
X139844124Y-63815643D01*
X139844119Y-63815641D01*
X139675917Y-63759905D01*
X139618472Y-63720133D01*
X139591649Y-63655617D01*
X139603964Y-63586841D01*
X139651507Y-63535641D01*
X139673966Y-63525158D01*
X139685309Y-63521189D01*
X139737882Y-63502793D01*
X139847150Y-63422150D01*
X139927793Y-63312882D01*
X139952954Y-63240975D01*
X139972646Y-63184701D01*
X139972646Y-63184699D01*
X139975500Y-63154269D01*
X139975500Y-62545730D01*
X139972646Y-62515300D01*
X139972646Y-62515298D01*
X139931904Y-62398867D01*
X139927793Y-62387118D01*
X139847150Y-62277850D01*
X139737882Y-62197207D01*
X139737880Y-62197206D01*
X139609700Y-62152353D01*
X139579270Y-62149500D01*
X139579266Y-62149500D01*
X138747837Y-62149500D01*
X138715751Y-62145276D01*
X138712853Y-62144500D01*
X138712851Y-62144500D01*
X137767403Y-62144500D01*
X137700364Y-62124815D01*
X137679722Y-62108182D01*
X137651998Y-62080458D01*
X137618316Y-62046776D01*
X137509487Y-61996028D01*
X137509485Y-61996027D01*
X137509486Y-61996027D01*
X137459901Y-61989500D01*
X137040105Y-61989500D01*
X137024386Y-61991569D01*
X136990513Y-61996028D01*
X136990511Y-61996029D01*
X136990509Y-61996029D01*
X136881683Y-62046776D01*
X136790279Y-62138181D01*
X136728956Y-62171666D01*
X136702598Y-62174500D01*
X136199500Y-62174500D01*
X136190814Y-62171949D01*
X136181853Y-62173238D01*
X136157812Y-62162259D01*
X136132461Y-62154815D01*
X136126533Y-62147974D01*
X136118297Y-62144213D01*
X136104007Y-62121978D01*
X136086706Y-62102011D01*
X136084418Y-62091496D01*
X136080523Y-62085435D01*
X136075500Y-62050500D01*
X136075500Y-61817506D01*
X136095185Y-61750467D01*
X136147989Y-61704712D01*
X136175304Y-61695889D01*
X136232495Y-61684515D01*
X136323624Y-61623624D01*
X136384515Y-61532495D01*
X136400500Y-61452133D01*
X136400499Y-61247868D01*
X136384515Y-61167505D01*
X136384513Y-61167502D01*
X136379841Y-61156222D01*
X136381285Y-61155623D01*
X136364563Y-61102211D01*
X136380517Y-61044056D01*
X136379842Y-61043777D01*
X136382070Y-61038396D01*
X136383049Y-61034831D01*
X136384452Y-61032647D01*
X136384516Y-61032493D01*
X136394423Y-60982684D01*
X136400500Y-60952133D01*
X136400499Y-60747868D01*
X136384515Y-60667505D01*
X136384513Y-60667502D01*
X136379841Y-60656222D01*
X136381285Y-60655623D01*
X136364563Y-60602211D01*
X136380517Y-60544056D01*
X136379842Y-60543777D01*
X136382070Y-60538396D01*
X136383049Y-60534831D01*
X136384452Y-60532647D01*
X136384516Y-60532493D01*
X136400499Y-60452136D01*
X136400500Y-60452133D01*
X136400499Y-60247868D01*
X136384515Y-60167505D01*
X136384513Y-60167502D01*
X136379841Y-60156222D01*
X136381285Y-60155623D01*
X136364563Y-60102211D01*
X136380517Y-60044056D01*
X136379842Y-60043777D01*
X136382070Y-60038396D01*
X136383049Y-60034831D01*
X136384452Y-60032647D01*
X136384516Y-60032493D01*
X136400499Y-59952136D01*
X136400500Y-59952133D01*
X136400499Y-59747868D01*
X136384515Y-59667505D01*
X136384513Y-59667502D01*
X136379841Y-59656222D01*
X136381285Y-59655623D01*
X136364563Y-59602211D01*
X136380517Y-59544056D01*
X136379842Y-59543777D01*
X136382070Y-59538396D01*
X136383049Y-59534831D01*
X136384452Y-59532647D01*
X136384516Y-59532493D01*
X136400499Y-59452136D01*
X136400500Y-59452133D01*
X136400499Y-59247868D01*
X136400499Y-59247867D01*
X136400499Y-59242423D01*
X136420183Y-59175383D01*
X136472987Y-59129628D01*
X136542145Y-59119684D01*
X136605701Y-59148709D01*
X136612180Y-59154741D01*
X136891950Y-59434511D01*
X136947899Y-59490460D01*
X136947901Y-59490461D01*
X136947905Y-59490464D01*
X137016414Y-59530017D01*
X137016421Y-59530021D01*
X137092848Y-59550500D01*
X137171972Y-59550500D01*
X139726000Y-59550500D01*
X139793039Y-59570185D01*
X139838794Y-59622989D01*
X139850000Y-59674500D01*
X139850000Y-60158899D01*
X139830315Y-60225938D01*
X139777511Y-60271693D01*
X139767198Y-60275401D01*
X139761495Y-60277763D01*
X139664475Y-60333778D01*
X139664469Y-60333782D01*
X139585252Y-60412999D01*
X139585248Y-60413005D01*
X139529233Y-60510025D01*
X139529232Y-60510028D01*
X139500235Y-60618247D01*
X139500235Y-60730283D01*
X139529232Y-60838502D01*
X139585250Y-60935528D01*
X139664472Y-61014750D01*
X139761498Y-61070768D01*
X139869717Y-61099765D01*
X139869719Y-61099765D01*
X139981751Y-61099765D01*
X139981753Y-61099765D01*
X140089972Y-61070768D01*
X140186998Y-61014750D01*
X140266220Y-60935528D01*
X140267968Y-60932499D01*
X140270110Y-60930457D01*
X140271168Y-60929079D01*
X140271382Y-60929243D01*
X140318533Y-60884285D01*
X140375355Y-60870500D01*
X140916000Y-60870500D01*
X140924685Y-60873050D01*
X140933647Y-60871762D01*
X140957687Y-60882740D01*
X140983039Y-60890185D01*
X140988966Y-60897025D01*
X140997203Y-60900787D01*
X141011492Y-60923021D01*
X141028794Y-60942989D01*
X141031081Y-60953503D01*
X141034977Y-60959565D01*
X141040000Y-60994500D01*
X141040000Y-61030418D01*
X141020315Y-61097457D01*
X140967511Y-61143212D01*
X140948095Y-61150192D01*
X140935766Y-61153495D01*
X140935759Y-61153498D01*
X140838740Y-61209512D01*
X140838734Y-61209517D01*
X140759517Y-61288734D01*
X140759513Y-61288740D01*
X140703498Y-61385760D01*
X140703498Y-61385761D01*
X140703497Y-61385763D01*
X140674500Y-61493982D01*
X140674500Y-61606018D01*
X140703497Y-61714237D01*
X140759515Y-61811263D01*
X140838737Y-61890485D01*
X140935763Y-61946503D01*
X141043982Y-61975500D01*
X141049167Y-61975500D01*
X141116206Y-61995185D01*
X141136848Y-62011819D01*
X141149540Y-62024511D01*
X141205489Y-62080460D01*
X141205491Y-62080461D01*
X141205495Y-62080464D01*
X141253505Y-62108182D01*
X141274011Y-62120021D01*
X141350438Y-62140500D01*
X141429562Y-62140500D01*
X142579983Y-62140500D01*
X142647022Y-62160185D01*
X142684917Y-62198433D01*
X142699500Y-62221594D01*
X142699500Y-62229748D01*
X142711133Y-62288231D01*
X142755448Y-62354552D01*
X142803373Y-62386575D01*
X142817450Y-62408933D01*
X142820065Y-62418155D01*
X142826212Y-62425511D01*
X142829440Y-62451218D01*
X142836511Y-62476152D01*
X142833724Y-62485325D01*
X142834919Y-62494836D01*
X142823735Y-62518209D01*
X142816204Y-62543006D01*
X142808901Y-62549216D01*
X142804764Y-62557863D01*
X142781407Y-62578102D01*
X142755447Y-62595447D01*
X142711132Y-62661769D01*
X142711131Y-62661770D01*
X142699500Y-62720247D01*
X142699500Y-63499752D01*
X142711131Y-63558229D01*
X142711132Y-63558230D01*
X142755447Y-63624552D01*
X142821769Y-63668867D01*
X142821770Y-63668868D01*
X142880247Y-63680499D01*
X142880250Y-63680500D01*
X142880252Y-63680500D01*
X145319750Y-63680500D01*
X145319751Y-63680499D01*
X145334568Y-63677552D01*
X145378229Y-63668868D01*
X145378229Y-63668867D01*
X145378231Y-63668867D01*
X145444552Y-63624552D01*
X145488867Y-63558231D01*
X145488867Y-63558229D01*
X145488868Y-63558229D01*
X145499894Y-63502793D01*
X145500500Y-63499748D01*
X145500500Y-62720252D01*
X145500500Y-62720249D01*
X145500499Y-62720247D01*
X145488868Y-62661770D01*
X145488867Y-62661769D01*
X145444552Y-62595448D01*
X145438878Y-62591657D01*
X145418591Y-62578101D01*
X145373787Y-62524491D01*
X145365080Y-62455166D01*
X145395234Y-62392138D01*
X145418592Y-62371898D01*
X145444552Y-62354552D01*
X145488867Y-62288231D01*
X145488867Y-62288229D01*
X145488868Y-62288229D01*
X145500499Y-62229752D01*
X145500500Y-62229750D01*
X145500500Y-61450249D01*
X145500499Y-61450247D01*
X145488868Y-61391770D01*
X145488867Y-61391769D01*
X145444552Y-61325448D01*
X145418591Y-61308101D01*
X145373787Y-61254491D01*
X145365080Y-61185166D01*
X145395234Y-61122138D01*
X145418592Y-61101898D01*
X145444552Y-61084552D01*
X145488867Y-61018231D01*
X145488867Y-61018229D01*
X145488868Y-61018229D01*
X145494912Y-60987844D01*
X146300000Y-60987844D01*
X146306401Y-61047372D01*
X146306403Y-61047379D01*
X146356645Y-61182086D01*
X146356649Y-61182093D01*
X146442809Y-61297187D01*
X146442812Y-61297190D01*
X146549811Y-61377290D01*
X146591682Y-61433223D01*
X146599500Y-61476556D01*
X146599500Y-62229752D01*
X146611131Y-62288229D01*
X146611132Y-62288230D01*
X146655447Y-62354552D01*
X146681407Y-62371898D01*
X146726212Y-62425511D01*
X146734919Y-62494836D01*
X146704764Y-62557863D01*
X146681407Y-62578102D01*
X146655447Y-62595447D01*
X146611132Y-62661769D01*
X146611131Y-62661770D01*
X146599500Y-62720247D01*
X146599500Y-63499752D01*
X146611131Y-63558229D01*
X146611132Y-63558230D01*
X146655447Y-63624552D01*
X146721769Y-63668867D01*
X146721770Y-63668868D01*
X146780247Y-63680499D01*
X146780250Y-63680500D01*
X146780252Y-63680500D01*
X149219750Y-63680500D01*
X149219751Y-63680499D01*
X149234568Y-63677552D01*
X149278229Y-63668868D01*
X149278229Y-63668867D01*
X149278231Y-63668867D01*
X149344552Y-63624552D01*
X149388867Y-63558231D01*
X149388867Y-63558229D01*
X149388868Y-63558229D01*
X149399894Y-63502793D01*
X149400500Y-63499748D01*
X149400500Y-62720252D01*
X149400500Y-62720249D01*
X149388670Y-62660778D01*
X149394897Y-62591186D01*
X149437760Y-62536009D01*
X149503649Y-62512764D01*
X149571646Y-62528832D01*
X149585778Y-62538214D01*
X149588733Y-62540481D01*
X149588737Y-62540485D01*
X149685763Y-62596503D01*
X149793982Y-62625500D01*
X149793984Y-62625500D01*
X149906016Y-62625500D01*
X149906018Y-62625500D01*
X150014237Y-62596503D01*
X150111263Y-62540485D01*
X150190485Y-62461263D01*
X150246503Y-62364237D01*
X150275500Y-62256018D01*
X150275500Y-62143982D01*
X150246503Y-62035763D01*
X150190485Y-61938737D01*
X150111263Y-61859515D01*
X150014239Y-61803498D01*
X150014238Y-61803497D01*
X149942383Y-61784244D01*
X149909162Y-61775342D01*
X149853576Y-61743249D01*
X149689864Y-61579537D01*
X149689862Y-61579535D01*
X149621041Y-61539801D01*
X149615641Y-61536683D01*
X149615640Y-61536682D01*
X149615639Y-61536682D01*
X149583563Y-61528087D01*
X149523904Y-61491722D01*
X149493376Y-61428875D01*
X149501671Y-61359499D01*
X149541350Y-61309044D01*
X149557192Y-61297185D01*
X149643350Y-61182093D01*
X149643354Y-61182086D01*
X149693596Y-61047379D01*
X149693598Y-61047372D01*
X149699999Y-60987844D01*
X149700000Y-60987827D01*
X149700000Y-60820000D01*
X146300000Y-60820000D01*
X146300000Y-60987844D01*
X145494912Y-60987844D01*
X145500198Y-60961265D01*
X145500500Y-60959748D01*
X145500500Y-60180252D01*
X145500500Y-60180249D01*
X145500499Y-60180247D01*
X145488868Y-60121770D01*
X145488867Y-60121769D01*
X145444552Y-60055448D01*
X145435650Y-60049500D01*
X145418591Y-60038101D01*
X145373787Y-59984491D01*
X145365080Y-59915166D01*
X145395234Y-59852138D01*
X145418590Y-59831899D01*
X145444552Y-59814552D01*
X145488867Y-59748231D01*
X145488867Y-59748229D01*
X145488868Y-59748229D01*
X145494912Y-59717844D01*
X146300000Y-59717844D01*
X146306401Y-59777372D01*
X146306403Y-59777380D01*
X146349029Y-59891667D01*
X146354013Y-59961359D01*
X146349029Y-59978333D01*
X146306403Y-60092619D01*
X146306401Y-60092627D01*
X146300000Y-60152155D01*
X146300000Y-60320000D01*
X147750000Y-60320000D01*
X148250000Y-60320000D01*
X149700000Y-60320000D01*
X149700000Y-60152172D01*
X149699999Y-60152155D01*
X149693598Y-60092627D01*
X149693597Y-60092623D01*
X149650969Y-59978334D01*
X149645985Y-59908643D01*
X149650969Y-59891666D01*
X149693597Y-59777376D01*
X149693598Y-59777372D01*
X149699999Y-59717844D01*
X149700000Y-59717827D01*
X149700000Y-59550000D01*
X148250000Y-59550000D01*
X148250000Y-60320000D01*
X147750000Y-60320000D01*
X147750000Y-59550000D01*
X146300000Y-59550000D01*
X146300000Y-59717844D01*
X145494912Y-59717844D01*
X145500499Y-59689752D01*
X145500500Y-59689750D01*
X145500500Y-58910249D01*
X145500499Y-58910247D01*
X145488868Y-58851770D01*
X145488867Y-58851769D01*
X145444552Y-58785448D01*
X145418591Y-58768101D01*
X145373787Y-58714491D01*
X145365080Y-58645166D01*
X145395234Y-58582138D01*
X145418590Y-58561899D01*
X145444552Y-58544552D01*
X145488867Y-58478231D01*
X145488867Y-58478229D01*
X145488868Y-58478229D01*
X145500499Y-58419752D01*
X145500500Y-58419750D01*
X145500500Y-57640249D01*
X145500499Y-57640247D01*
X145488868Y-57581770D01*
X145488867Y-57581769D01*
X145444552Y-57515448D01*
X145441159Y-57513181D01*
X145418591Y-57498101D01*
X145373787Y-57444491D01*
X145365080Y-57375166D01*
X145395234Y-57312138D01*
X145418590Y-57291899D01*
X145444552Y-57274552D01*
X145488867Y-57208231D01*
X145488867Y-57208229D01*
X145488868Y-57208229D01*
X145494912Y-57177844D01*
X146300000Y-57177844D01*
X146306401Y-57237372D01*
X146306403Y-57237379D01*
X146356645Y-57372086D01*
X146356649Y-57372093D01*
X146442809Y-57487187D01*
X146442812Y-57487190D01*
X146549811Y-57567290D01*
X146591682Y-57623223D01*
X146599500Y-57666556D01*
X146599500Y-58393443D01*
X146579815Y-58460482D01*
X146549812Y-58492709D01*
X146442809Y-58572812D01*
X146356649Y-58687906D01*
X146356645Y-58687913D01*
X146306403Y-58822620D01*
X146306401Y-58822627D01*
X146300000Y-58882155D01*
X146300000Y-59050000D01*
X149700000Y-59050000D01*
X149700000Y-58882172D01*
X149699999Y-58882155D01*
X149693598Y-58822627D01*
X149693596Y-58822620D01*
X149643354Y-58687913D01*
X149643350Y-58687906D01*
X149557190Y-58572812D01*
X149450188Y-58492709D01*
X149408318Y-58436775D01*
X149400500Y-58393443D01*
X149400500Y-57666556D01*
X149420185Y-57599517D01*
X149450189Y-57567290D01*
X149557187Y-57487190D01*
X149557190Y-57487187D01*
X149643350Y-57372093D01*
X149643354Y-57372086D01*
X149693596Y-57237379D01*
X149693598Y-57237372D01*
X149699999Y-57177844D01*
X149700000Y-57177827D01*
X149700000Y-57010000D01*
X146300000Y-57010000D01*
X146300000Y-57177844D01*
X145494912Y-57177844D01*
X145500499Y-57149752D01*
X145500500Y-57149750D01*
X145500500Y-56370249D01*
X145500499Y-56370247D01*
X145488868Y-56311770D01*
X145488867Y-56311769D01*
X145444552Y-56245448D01*
X145429664Y-56235500D01*
X145418591Y-56228101D01*
X145373787Y-56174491D01*
X145365080Y-56105166D01*
X145395234Y-56042138D01*
X145418590Y-56021899D01*
X145444552Y-56004552D01*
X145488867Y-55938231D01*
X145488867Y-55938229D01*
X145488868Y-55938229D01*
X145500499Y-55879752D01*
X145500500Y-55879750D01*
X145500500Y-55100249D01*
X145500499Y-55100247D01*
X145488868Y-55041770D01*
X145484194Y-55030487D01*
X145485713Y-55029857D01*
X145469073Y-54976714D01*
X145487557Y-54909334D01*
X145539536Y-54862643D01*
X145593053Y-54850500D01*
X146506947Y-54850500D01*
X146573986Y-54870185D01*
X146619741Y-54922989D01*
X146629685Y-54992147D01*
X146615105Y-55030196D01*
X146615806Y-55030487D01*
X146611131Y-55041770D01*
X146599500Y-55100247D01*
X146599500Y-55853443D01*
X146579815Y-55920482D01*
X146549812Y-55952709D01*
X146442809Y-56032812D01*
X146356649Y-56147906D01*
X146356645Y-56147913D01*
X146306403Y-56282620D01*
X146306401Y-56282627D01*
X146300000Y-56342155D01*
X146300000Y-56510000D01*
X149700000Y-56510000D01*
X149700000Y-56342172D01*
X149699999Y-56342155D01*
X149693598Y-56282627D01*
X149693596Y-56282620D01*
X149643354Y-56147913D01*
X149643350Y-56147906D01*
X149557190Y-56032812D01*
X149450188Y-55952709D01*
X149408318Y-55896775D01*
X149400500Y-55853443D01*
X149400500Y-55100249D01*
X149400499Y-55100247D01*
X149388868Y-55041770D01*
X149388867Y-55041769D01*
X149344552Y-54975447D01*
X149278230Y-54931132D01*
X149278229Y-54931131D01*
X149219752Y-54919500D01*
X149219748Y-54919500D01*
X147905833Y-54919500D01*
X147838794Y-54899815D01*
X147818152Y-54883181D01*
X147244510Y-54309539D01*
X147227186Y-54299537D01*
X147209861Y-54289535D01*
X147209860Y-54289534D01*
X147175994Y-54269981D01*
X147175993Y-54269980D01*
X147166960Y-54267559D01*
X147099562Y-54249500D01*
X147099560Y-54249500D01*
X134524499Y-54249500D01*
X134457460Y-54229815D01*
X134411705Y-54177011D01*
X134400499Y-54125500D01*
X134400499Y-53747870D01*
X134400499Y-53747868D01*
X134384515Y-53667505D01*
X134364309Y-53637266D01*
X134323624Y-53576375D01*
X134268995Y-53539874D01*
X134232495Y-53515485D01*
X134232493Y-53515484D01*
X134232490Y-53515483D01*
X134152136Y-53499500D01*
X133974500Y-53499500D01*
X133907461Y-53479815D01*
X133861706Y-53427011D01*
X133850500Y-53375500D01*
X133850500Y-50925832D01*
X133870185Y-50858793D01*
X133886814Y-50838156D01*
X136570657Y-48154312D01*
X136631978Y-48120829D01*
X136701670Y-48125813D01*
X136727227Y-48138893D01*
X136730343Y-48140975D01*
X136730345Y-48140977D01*
X136902402Y-48255941D01*
X137093580Y-48335130D01*
X137282187Y-48372646D01*
X137296530Y-48375499D01*
X137296534Y-48375500D01*
X137296535Y-48375500D01*
X137503466Y-48375500D01*
X137503467Y-48375499D01*
X137706420Y-48335130D01*
X137897598Y-48255941D01*
X138069655Y-48140977D01*
X138215977Y-47994655D01*
X138330941Y-47822598D01*
X138410130Y-47631420D01*
X138450500Y-47428465D01*
X138450500Y-46971535D01*
X138410130Y-46768580D01*
X138330941Y-46577402D01*
X138270353Y-46486725D01*
X138270352Y-46486722D01*
X138226257Y-46420730D01*
X138849500Y-46420730D01*
X138849500Y-47979269D01*
X138852353Y-48009699D01*
X138852353Y-48009701D01*
X138897206Y-48137880D01*
X138897207Y-48137882D01*
X138977850Y-48247150D01*
X139087118Y-48327793D01*
X139108089Y-48335131D01*
X139215299Y-48372646D01*
X139245730Y-48375500D01*
X139245734Y-48375500D01*
X140554270Y-48375500D01*
X140584699Y-48372646D01*
X140584701Y-48372646D01*
X140660020Y-48346290D01*
X140712882Y-48327793D01*
X140822150Y-48247150D01*
X140902793Y-48137882D01*
X140939648Y-48032557D01*
X140947646Y-48009701D01*
X140947646Y-48009699D01*
X140950500Y-47979269D01*
X140950500Y-46420730D01*
X140947646Y-46390300D01*
X140947646Y-46390298D01*
X140902793Y-46262119D01*
X140902792Y-46262117D01*
X140822150Y-46152850D01*
X140712882Y-46072207D01*
X140712880Y-46072206D01*
X140584700Y-46027353D01*
X140554270Y-46024500D01*
X140554266Y-46024500D01*
X139245734Y-46024500D01*
X139245730Y-46024500D01*
X139215300Y-46027353D01*
X139215298Y-46027353D01*
X139087119Y-46072206D01*
X139087117Y-46072207D01*
X138977850Y-46152850D01*
X138897207Y-46262117D01*
X138897206Y-46262119D01*
X138852353Y-46390298D01*
X138852353Y-46390300D01*
X138849500Y-46420730D01*
X138226257Y-46420730D01*
X138215980Y-46405349D01*
X138215974Y-46405341D01*
X138069657Y-46259024D01*
X137974638Y-46195535D01*
X137897598Y-46144059D01*
X137706420Y-46064870D01*
X137706412Y-46064868D01*
X137503469Y-46024500D01*
X137503465Y-46024500D01*
X137296535Y-46024500D01*
X137296530Y-46024500D01*
X137093587Y-46064868D01*
X137093579Y-46064870D01*
X136902403Y-46144058D01*
X136730342Y-46259024D01*
X136584024Y-46405342D01*
X136469056Y-46577405D01*
X136449984Y-46623452D01*
X136406143Y-46677856D01*
X136339849Y-46699921D01*
X136335423Y-46700000D01*
X135964577Y-46700000D01*
X135897538Y-46680315D01*
X135851783Y-46627511D01*
X135850016Y-46623452D01*
X135830943Y-46577405D01*
X135715975Y-46405342D01*
X135569657Y-46259024D01*
X135474638Y-46195535D01*
X135397598Y-46144059D01*
X135206420Y-46064870D01*
X135206412Y-46064868D01*
X135003469Y-46024500D01*
X135003465Y-46024500D01*
X134796535Y-46024500D01*
X134796530Y-46024500D01*
X134593587Y-46064868D01*
X134593579Y-46064870D01*
X134402403Y-46144058D01*
X134230342Y-46259024D01*
X134084024Y-46405342D01*
X133969056Y-46577405D01*
X133949984Y-46623452D01*
X133906143Y-46677856D01*
X133839849Y-46699921D01*
X133835423Y-46700000D01*
X133464577Y-46700000D01*
X133397538Y-46680315D01*
X133351783Y-46627511D01*
X133350016Y-46623452D01*
X133330943Y-46577405D01*
X133215975Y-46405342D01*
X133069657Y-46259024D01*
X132974638Y-46195535D01*
X132897598Y-46144059D01*
X132706420Y-46064870D01*
X132706412Y-46064868D01*
X132503469Y-46024500D01*
X132503465Y-46024500D01*
X132296535Y-46024500D01*
X132296530Y-46024500D01*
X132093587Y-46064868D01*
X132093579Y-46064870D01*
X131902403Y-46144058D01*
X131730342Y-46259024D01*
X131584024Y-46405342D01*
X131469057Y-46577403D01*
X131408562Y-46723453D01*
X131364721Y-46777856D01*
X131298426Y-46799921D01*
X131294001Y-46800000D01*
X131005999Y-46800000D01*
X130938960Y-46780315D01*
X130893205Y-46727511D01*
X130891438Y-46723453D01*
X130830942Y-46577403D01*
X130715975Y-46405342D01*
X130569657Y-46259024D01*
X130474638Y-46195535D01*
X130397598Y-46144059D01*
X130206420Y-46064870D01*
X130206412Y-46064868D01*
X130003469Y-46024500D01*
X130003465Y-46024500D01*
X129796535Y-46024500D01*
X129796530Y-46024500D01*
X129593587Y-46064868D01*
X129593579Y-46064870D01*
X129402403Y-46144058D01*
X129230342Y-46259024D01*
X129084024Y-46405342D01*
X128969057Y-46577404D01*
X128923251Y-46687990D01*
X128879409Y-46742394D01*
X128813115Y-46764458D01*
X128745416Y-46747178D01*
X128697806Y-46696041D01*
X128690759Y-46678855D01*
X128651095Y-46556782D01*
X128554620Y-46367442D01*
X128429727Y-46195540D01*
X128429723Y-46195535D01*
X128279464Y-46045276D01*
X128279459Y-46045272D01*
X128107557Y-45920379D01*
X127918215Y-45823903D01*
X127716124Y-45758241D01*
X127650000Y-45747768D01*
X127650000Y-46795854D01*
X127583343Y-46757370D01*
X127462535Y-46725000D01*
X127337465Y-46725000D01*
X127216657Y-46757370D01*
X127150000Y-46795854D01*
X127150000Y-45747768D01*
X127149999Y-45747768D01*
X127083875Y-45758241D01*
X126881784Y-45823903D01*
X126692442Y-45920379D01*
X126520540Y-46045272D01*
X126520535Y-46045276D01*
X126370276Y-46195535D01*
X126370272Y-46195540D01*
X126245379Y-46367442D01*
X126148904Y-46556782D01*
X126083242Y-46758869D01*
X126083242Y-46758872D01*
X126052970Y-46950000D01*
X124900500Y-46950000D01*
X124900500Y-46660439D01*
X124880020Y-46584009D01*
X124880017Y-46584004D01*
X124840464Y-46515495D01*
X124840458Y-46515487D01*
X122484156Y-44159185D01*
X122472224Y-44137333D01*
X122456798Y-44117786D01*
X122455768Y-44107197D01*
X122450671Y-44097862D01*
X122452447Y-44073027D01*
X122450038Y-44048245D01*
X122455103Y-44035882D01*
X122455655Y-44028170D01*
X122461525Y-44014872D01*
X122464776Y-44008538D01*
X122484394Y-43979179D01*
X122544737Y-43833497D01*
X122575500Y-43678842D01*
X122575500Y-43521158D01*
X122575500Y-43521155D01*
X122575499Y-43521153D01*
X122544738Y-43366510D01*
X122544737Y-43366503D01*
X122544735Y-43366498D01*
X122484397Y-43220827D01*
X122484390Y-43220814D01*
X122396789Y-43089711D01*
X122396786Y-43089707D01*
X122285292Y-42978213D01*
X122285288Y-42978210D01*
X122154185Y-42890609D01*
X122154172Y-42890602D01*
X122008501Y-42830264D01*
X122008489Y-42830261D01*
X121853845Y-42799500D01*
X121853842Y-42799500D01*
X121146158Y-42799500D01*
X121146155Y-42799500D01*
X120991510Y-42830261D01*
X120991498Y-42830264D01*
X120845827Y-42890602D01*
X120845814Y-42890609D01*
X120714711Y-42978210D01*
X120714707Y-42978213D01*
X120603213Y-43089707D01*
X120603210Y-43089711D01*
X120515609Y-43220814D01*
X120515602Y-43220827D01*
X120455264Y-43366498D01*
X120455261Y-43366510D01*
X120424500Y-43521153D01*
X120424500Y-43678846D01*
X120455261Y-43833489D01*
X120455264Y-43833501D01*
X120515602Y-43979172D01*
X120515609Y-43979185D01*
X120603210Y-44110288D01*
X120603213Y-44110292D01*
X120714707Y-44221786D01*
X120714711Y-44221789D01*
X120845814Y-44309390D01*
X120845827Y-44309397D01*
X120991498Y-44369735D01*
X120991503Y-44369737D01*
X121128065Y-44396901D01*
X121146153Y-44400499D01*
X121146156Y-44400500D01*
X121824167Y-44400500D01*
X121891206Y-44420185D01*
X121911848Y-44436819D01*
X122089940Y-44614911D01*
X122123425Y-44676234D01*
X122118441Y-44745926D01*
X122076569Y-44801859D01*
X122011105Y-44826276D01*
X121978068Y-44824209D01*
X121853846Y-44799500D01*
X121853842Y-44799500D01*
X121146158Y-44799500D01*
X121146155Y-44799500D01*
X120991510Y-44830261D01*
X120991498Y-44830264D01*
X120845827Y-44890602D01*
X120845814Y-44890609D01*
X120714711Y-44978210D01*
X120714707Y-44978213D01*
X120603213Y-45089707D01*
X120603210Y-45089711D01*
X120515609Y-45220814D01*
X120515602Y-45220827D01*
X120455264Y-45366498D01*
X120455261Y-45366510D01*
X120424500Y-45521153D01*
X120424500Y-45678846D01*
X120455261Y-45833489D01*
X120455264Y-45833501D01*
X120515602Y-45979172D01*
X120515609Y-45979185D01*
X120603210Y-46110288D01*
X120603213Y-46110292D01*
X120714707Y-46221786D01*
X120714711Y-46221789D01*
X120845814Y-46309390D01*
X120845823Y-46309395D01*
X120883265Y-46324904D01*
X120937668Y-46368745D01*
X120959733Y-46435039D01*
X120942454Y-46502738D01*
X120891317Y-46550349D01*
X120874131Y-46557396D01*
X120802742Y-46580591D01*
X120648475Y-46659195D01*
X120508397Y-46760967D01*
X120385967Y-46883397D01*
X120284195Y-47023475D01*
X120205591Y-47177744D01*
X120152085Y-47342415D01*
X120150884Y-47349999D01*
X120150885Y-47350000D01*
X121219670Y-47350000D01*
X121199925Y-47369745D01*
X121150556Y-47455255D01*
X121125000Y-47550630D01*
X121125000Y-47649370D01*
X121150556Y-47744745D01*
X121199925Y-47830255D01*
X121219670Y-47850000D01*
X120150885Y-47850000D01*
X120152085Y-47857584D01*
X120205591Y-48022255D01*
X120284195Y-48176524D01*
X120385967Y-48316602D01*
X120508397Y-48439032D01*
X120648475Y-48540804D01*
X120802742Y-48619408D01*
X120967415Y-48672914D01*
X121138429Y-48700000D01*
X121250000Y-48700000D01*
X121250000Y-47880330D01*
X121269745Y-47900075D01*
X121355255Y-47949444D01*
X121450630Y-47975000D01*
X121549370Y-47975000D01*
X121644745Y-47949444D01*
X121730255Y-47900075D01*
X121750000Y-47880330D01*
X121750000Y-48700000D01*
X121861571Y-48700000D01*
X122032584Y-48672914D01*
X122197257Y-48619408D01*
X122351524Y-48540804D01*
X122491602Y-48439032D01*
X122614032Y-48316602D01*
X122715804Y-48176524D01*
X122794408Y-48022255D01*
X122847914Y-47857584D01*
X122849115Y-47850000D01*
X121780330Y-47850000D01*
X121800075Y-47830255D01*
X121849444Y-47744745D01*
X121875000Y-47649370D01*
X121875000Y-47550630D01*
X121849444Y-47455255D01*
X121800075Y-47369745D01*
X121780330Y-47350000D01*
X122849115Y-47350000D01*
X122849115Y-47349999D01*
X122847914Y-47342415D01*
X122794408Y-47177744D01*
X122715804Y-47023475D01*
X122614032Y-46883397D01*
X122491602Y-46760967D01*
X122351524Y-46659195D01*
X122197255Y-46580591D01*
X122125869Y-46557396D01*
X122068193Y-46517958D01*
X122040995Y-46453600D01*
X122052910Y-46384753D01*
X122100154Y-46333278D01*
X122116735Y-46324904D01*
X122154173Y-46309397D01*
X122154176Y-46309395D01*
X122154179Y-46309394D01*
X122285289Y-46221789D01*
X122396789Y-46110289D01*
X122484394Y-45979179D01*
X122485275Y-45977049D01*
X122486035Y-45976106D01*
X122487264Y-45973809D01*
X122487699Y-45974041D01*
X122497819Y-45961483D01*
X122506125Y-45943297D01*
X122519293Y-45934833D01*
X122529115Y-45922646D01*
X122548084Y-45916331D01*
X122564903Y-45905523D01*
X122592457Y-45901561D01*
X122595408Y-45900579D01*
X122599838Y-45900500D01*
X122758481Y-45900500D01*
X122825520Y-45920185D01*
X122846162Y-45936819D01*
X123863181Y-46953838D01*
X123896666Y-47015161D01*
X123899500Y-47041519D01*
X123899500Y-54221972D01*
X123907010Y-54250000D01*
X123919979Y-54298400D01*
X123919980Y-54298401D01*
X123951345Y-54352727D01*
X123959537Y-54366917D01*
X123959542Y-54366923D01*
X126176024Y-56583405D01*
X126209509Y-56644728D01*
X126209960Y-56695277D01*
X126199500Y-56747863D01*
X126199500Y-56952129D01*
X126215486Y-57032498D01*
X126220159Y-57043780D01*
X126218714Y-57044378D01*
X126235436Y-57097788D01*
X126219482Y-57155938D01*
X126220159Y-57156219D01*
X126217926Y-57161609D01*
X126216950Y-57165168D01*
X126215550Y-57167345D01*
X126215484Y-57167505D01*
X126199500Y-57247863D01*
X126199500Y-57247865D01*
X126199500Y-57247867D01*
X126199500Y-57343984D01*
X126199501Y-57425499D01*
X126179817Y-57492539D01*
X126127013Y-57538294D01*
X126075501Y-57549500D01*
X123325833Y-57549500D01*
X123258794Y-57529815D01*
X123238152Y-57513181D01*
X120323687Y-54598716D01*
X120290202Y-54537393D01*
X120295186Y-54467701D01*
X120296790Y-54463624D01*
X120310130Y-54431420D01*
X120350500Y-54228465D01*
X120350500Y-53771535D01*
X120310130Y-53568580D01*
X120230941Y-53377402D01*
X120115977Y-53205345D01*
X120115975Y-53205342D01*
X119969657Y-53059024D01*
X119868874Y-52991684D01*
X119797598Y-52944059D01*
X119707589Y-52906776D01*
X119606420Y-52864870D01*
X119606412Y-52864868D01*
X119403469Y-52824500D01*
X119403465Y-52824500D01*
X119196535Y-52824500D01*
X119196530Y-52824500D01*
X118993587Y-52864868D01*
X118993579Y-52864870D01*
X118802403Y-52944058D01*
X118630342Y-53059024D01*
X118484024Y-53205342D01*
X118369058Y-53377403D01*
X118289870Y-53568579D01*
X118289868Y-53568587D01*
X118249500Y-53771530D01*
X118249500Y-54228469D01*
X118289868Y-54431412D01*
X118289870Y-54431420D01*
X118355859Y-54590732D01*
X118369059Y-54622598D01*
X118418439Y-54696501D01*
X118484024Y-54794657D01*
X118630342Y-54940975D01*
X118630345Y-54940977D01*
X118802402Y-55055941D01*
X118993580Y-55135130D01*
X119196530Y-55175499D01*
X119196534Y-55175500D01*
X119196535Y-55175500D01*
X119403466Y-55175500D01*
X119403467Y-55175499D01*
X119606420Y-55135130D01*
X119797598Y-55055941D01*
X119797605Y-55055935D01*
X119802965Y-55053072D01*
X119804287Y-55055545D01*
X119859385Y-55038182D01*
X119926799Y-55056544D01*
X119949506Y-55074477D01*
X122887347Y-58012318D01*
X122920832Y-58073641D01*
X122915848Y-58143333D01*
X122887347Y-58187680D01*
X119849506Y-61225521D01*
X119788183Y-61259006D01*
X119718491Y-61254022D01*
X119703331Y-61246262D01*
X119702973Y-61246932D01*
X119697595Y-61244057D01*
X119506420Y-61164870D01*
X119506412Y-61164868D01*
X119303469Y-61124500D01*
X119303465Y-61124500D01*
X119096535Y-61124500D01*
X119096530Y-61124500D01*
X118893587Y-61164868D01*
X118893579Y-61164870D01*
X118702403Y-61244058D01*
X118530342Y-61359024D01*
X118384024Y-61505342D01*
X118269058Y-61677403D01*
X118189870Y-61868579D01*
X118189868Y-61868587D01*
X118149500Y-62071530D01*
X118149500Y-62528469D01*
X118189868Y-62731412D01*
X118189870Y-62731420D01*
X118265596Y-62914239D01*
X118269059Y-62922598D01*
X118320777Y-63000000D01*
X118384024Y-63094657D01*
X118530342Y-63240975D01*
X118530345Y-63240977D01*
X118702402Y-63355941D01*
X118893580Y-63435130D01*
X119068015Y-63469827D01*
X119096530Y-63475499D01*
X119096534Y-63475500D01*
X119096535Y-63475500D01*
X119303466Y-63475500D01*
X119303467Y-63475499D01*
X119506420Y-63435130D01*
X119697598Y-63355941D01*
X119869655Y-63240977D01*
X120015977Y-63094655D01*
X120130941Y-62922598D01*
X120210130Y-62731420D01*
X120250500Y-62528465D01*
X120250500Y-62071535D01*
X120246316Y-62050500D01*
X120226326Y-61950000D01*
X123641210Y-61950000D01*
X123642854Y-61970910D01*
X123687968Y-62126195D01*
X123770278Y-62265374D01*
X123770285Y-62265383D01*
X123884616Y-62379714D01*
X123884625Y-62379721D01*
X124023804Y-62462031D01*
X124170000Y-62504504D01*
X124170000Y-61950000D01*
X123641210Y-61950000D01*
X120226326Y-61950000D01*
X120223235Y-61934460D01*
X120223232Y-61934450D01*
X120210130Y-61868580D01*
X120193943Y-61829503D01*
X120191932Y-61822295D01*
X120192305Y-61794543D01*
X120189338Y-61766947D01*
X120192768Y-61760094D01*
X120192871Y-61752432D01*
X120208189Y-61729285D01*
X120220613Y-61704467D01*
X120223658Y-61701311D01*
X120474970Y-61449999D01*
X123641209Y-61449999D01*
X123641210Y-61450000D01*
X124170000Y-61450000D01*
X124170000Y-60895494D01*
X124670000Y-60895494D01*
X124670000Y-62504503D01*
X124816195Y-62462031D01*
X124818805Y-62460902D01*
X124821028Y-62460627D01*
X124823687Y-62459855D01*
X124823811Y-62460283D01*
X124888148Y-62452339D01*
X124951113Y-62482626D01*
X124987707Y-62542146D01*
X124987785Y-62542434D01*
X124989602Y-62549216D01*
X124996682Y-62575640D01*
X125002525Y-62585760D01*
X125039535Y-62649862D01*
X125039537Y-62649864D01*
X125143249Y-62753576D01*
X125175342Y-62809162D01*
X125179720Y-62825500D01*
X125203497Y-62914238D01*
X125203498Y-62914239D01*
X125259515Y-63011263D01*
X125338737Y-63090485D01*
X125435763Y-63146503D01*
X125543982Y-63175500D01*
X125543984Y-63175500D01*
X125656016Y-63175500D01*
X125656018Y-63175500D01*
X125764237Y-63146503D01*
X125861263Y-63090485D01*
X125940485Y-63011263D01*
X125996503Y-62914237D01*
X126025500Y-62806018D01*
X126025500Y-62693982D01*
X125996503Y-62585763D01*
X125940485Y-62488737D01*
X125861263Y-62409515D01*
X125822469Y-62387117D01*
X125764233Y-62353494D01*
X125761600Y-62352404D01*
X125759720Y-62350889D01*
X125757198Y-62349433D01*
X125757425Y-62349039D01*
X125707198Y-62308561D01*
X125685136Y-62242266D01*
X125702418Y-62174567D01*
X125721376Y-62150164D01*
X125754883Y-62116657D01*
X125803224Y-62068316D01*
X125853972Y-61959487D01*
X125860500Y-61909901D01*
X125860500Y-61799500D01*
X125880185Y-61732461D01*
X125932989Y-61686706D01*
X125984500Y-61675500D01*
X126321075Y-61675500D01*
X126355484Y-61682344D01*
X126355527Y-61682133D01*
X126423589Y-61695670D01*
X126447867Y-61700500D01*
X127827132Y-61700499D01*
X127907495Y-61684515D01*
X127998624Y-61623624D01*
X128059515Y-61532495D01*
X128069625Y-61481666D01*
X128102009Y-61419758D01*
X128115756Y-61407483D01*
X128210093Y-61335096D01*
X128302263Y-61214978D01*
X128360198Y-61075108D01*
X128360199Y-61075103D01*
X128370088Y-61000000D01*
X127838301Y-61000000D01*
X127833224Y-60998509D01*
X127833224Y-60999500D01*
X127137500Y-60999500D01*
X126441777Y-60999501D01*
X126441777Y-60998897D01*
X126436711Y-61000000D01*
X125892500Y-61000000D01*
X125861468Y-61019683D01*
X125827242Y-61024500D01*
X125780465Y-61024500D01*
X125780449Y-61024499D01*
X125772853Y-61024499D01*
X125687147Y-61024499D01*
X125635284Y-61038396D01*
X125604360Y-61046682D01*
X125576174Y-61062955D01*
X125576171Y-61062957D01*
X125567250Y-61068108D01*
X125530138Y-61089535D01*
X125469535Y-61150138D01*
X125469533Y-61150140D01*
X125465325Y-61154347D01*
X125460733Y-61158134D01*
X125445511Y-61164639D01*
X125405148Y-61186671D01*
X125378811Y-61189500D01*
X125200102Y-61189500D01*
X125191746Y-61190600D01*
X125190459Y-61190769D01*
X125121425Y-61180001D01*
X125075964Y-61139648D01*
X125074499Y-61140785D01*
X125069714Y-61134616D01*
X124955383Y-61020285D01*
X124955374Y-61020278D01*
X124816193Y-60937967D01*
X124816190Y-60937965D01*
X124670001Y-60895493D01*
X124670000Y-60895494D01*
X124170000Y-60895494D01*
X124169998Y-60895493D01*
X124023809Y-60937965D01*
X124023806Y-60937967D01*
X123884625Y-61020278D01*
X123884616Y-61020285D01*
X123770285Y-61134616D01*
X123770278Y-61134625D01*
X123687968Y-61273804D01*
X123687966Y-61273809D01*
X123642855Y-61429081D01*
X123642854Y-61429087D01*
X123641209Y-61449999D01*
X120474970Y-61449999D01*
X123238152Y-58686819D01*
X123299475Y-58653334D01*
X123325833Y-58650500D01*
X126075500Y-58650500D01*
X126142539Y-58670185D01*
X126188294Y-58722989D01*
X126199500Y-58774499D01*
X126199500Y-58952129D01*
X126215486Y-59032498D01*
X126220159Y-59043780D01*
X126218714Y-59044378D01*
X126235436Y-59097788D01*
X126219482Y-59155938D01*
X126220159Y-59156219D01*
X126217926Y-59161609D01*
X126216950Y-59165168D01*
X126215550Y-59167345D01*
X126215484Y-59167505D01*
X126199500Y-59247863D01*
X126199500Y-59452129D01*
X126207124Y-59490458D01*
X126214992Y-59530017D01*
X126215486Y-59532498D01*
X126220159Y-59543780D01*
X126218714Y-59544378D01*
X126235436Y-59597788D01*
X126219482Y-59655938D01*
X126220159Y-59656219D01*
X126217926Y-59661609D01*
X126216950Y-59665168D01*
X126215550Y-59667345D01*
X126215484Y-59667505D01*
X126199500Y-59747863D01*
X126199500Y-59952129D01*
X126215486Y-60032498D01*
X126220159Y-60043780D01*
X126218714Y-60044378D01*
X126235436Y-60097788D01*
X126230414Y-60135000D01*
X126225071Y-60153157D01*
X126215485Y-60167505D01*
X126204289Y-60223789D01*
X126202715Y-60229140D01*
X126186702Y-60254024D01*
X126172988Y-60280242D01*
X126165570Y-60286865D01*
X126164907Y-60287897D01*
X126163902Y-60288355D01*
X126159245Y-60292514D01*
X126064906Y-60364904D01*
X125972736Y-60485021D01*
X125914801Y-60624891D01*
X125914800Y-60624896D01*
X125904911Y-60699999D01*
X125904912Y-60700000D01*
X126436699Y-60700000D01*
X126446877Y-60700499D01*
X126447862Y-60700499D01*
X126447867Y-60700500D01*
X127827132Y-60700499D01*
X127828129Y-60700499D01*
X127838289Y-60700000D01*
X128370088Y-60700000D01*
X128376454Y-60692741D01*
X128435455Y-60655317D01*
X128469682Y-60650500D01*
X129175167Y-60650500D01*
X129242206Y-60670185D01*
X129287961Y-60722989D01*
X129297905Y-60792147D01*
X129268880Y-60855703D01*
X129262848Y-60862181D01*
X128662153Y-61462874D01*
X128636477Y-61482577D01*
X128633085Y-61484535D01*
X128633077Y-61484541D01*
X128309541Y-61808077D01*
X128309535Y-61808085D01*
X128269982Y-61876594D01*
X128269977Y-61876604D01*
X128259910Y-61914174D01*
X128243240Y-61950966D01*
X128215484Y-61992506D01*
X128215483Y-61992509D01*
X128199500Y-62072862D01*
X128199500Y-63452129D01*
X128215485Y-63532495D01*
X128276375Y-63623624D01*
X128300465Y-63639720D01*
X128367505Y-63684515D01*
X128367508Y-63684515D01*
X128367509Y-63684516D01*
X128394533Y-63689891D01*
X128447867Y-63700500D01*
X128652132Y-63700499D01*
X128732495Y-63684515D01*
X128732498Y-63684512D01*
X128743778Y-63679841D01*
X128744376Y-63681286D01*
X128797782Y-63664563D01*
X128855943Y-63680516D01*
X128856223Y-63679842D01*
X128861590Y-63682065D01*
X128865162Y-63683045D01*
X128867351Y-63684451D01*
X128867506Y-63684516D01*
X128920957Y-63695147D01*
X128947867Y-63700500D01*
X129152132Y-63700499D01*
X129232495Y-63684515D01*
X129232498Y-63684512D01*
X129243778Y-63679841D01*
X129244376Y-63681286D01*
X129297782Y-63664563D01*
X129320976Y-63666330D01*
X129346965Y-63670790D01*
X129367505Y-63684515D01*
X129447867Y-63700500D01*
X129520050Y-63700499D01*
X129530458Y-63702286D01*
X129552728Y-63713197D01*
X129576519Y-63720183D01*
X129583553Y-63728301D01*
X129593201Y-63733028D01*
X129606035Y-63754245D01*
X129622275Y-63772986D01*
X129623803Y-63783619D01*
X129629364Y-63792811D01*
X129628689Y-63817600D01*
X129632219Y-63842144D01*
X129627757Y-63851914D01*
X129627465Y-63862655D01*
X129613494Y-63883146D01*
X129603195Y-63905700D01*
X129597162Y-63912180D01*
X129265489Y-64243854D01*
X129209541Y-64299801D01*
X129209535Y-64299809D01*
X129169982Y-64368318D01*
X129169979Y-64368323D01*
X129149500Y-64444753D01*
X129149500Y-67253419D01*
X129129815Y-67320458D01*
X129077011Y-67366213D01*
X129007853Y-67376157D01*
X128963500Y-67360806D01*
X128864239Y-67303498D01*
X128864238Y-67303497D01*
X128864237Y-67303497D01*
X128756018Y-67274500D01*
X128643982Y-67274500D01*
X128535763Y-67303497D01*
X128535760Y-67303498D01*
X128438740Y-67359513D01*
X128438734Y-67359517D01*
X128359517Y-67438734D01*
X128359513Y-67438740D01*
X128303498Y-67535760D01*
X128303497Y-67535763D01*
X128274500Y-67643982D01*
X128274500Y-67756018D01*
X128303497Y-67864237D01*
X128359515Y-67961263D01*
X128359517Y-67961265D01*
X128360577Y-67962325D01*
X128360650Y-67962459D01*
X128360783Y-67962532D01*
X128361493Y-67963839D01*
X128364462Y-67967709D01*
X128363848Y-67968179D01*
X128377397Y-67993135D01*
X128394057Y-68023651D01*
X128394046Y-68023801D01*
X128394119Y-68023936D01*
X128391573Y-68058350D01*
X128389068Y-68093342D01*
X128388972Y-68093516D01*
X128388965Y-68093615D01*
X128388654Y-68094096D01*
X128371976Y-68124551D01*
X128366734Y-68131517D01*
X128359515Y-68138737D01*
X128353618Y-68148950D01*
X128349087Y-68154973D01*
X128326866Y-68171523D01*
X128306816Y-68190640D01*
X128299240Y-68192099D01*
X128293052Y-68196709D01*
X128265411Y-68198618D01*
X128238209Y-68203860D01*
X128231046Y-68200992D01*
X128223348Y-68201524D01*
X128199064Y-68188187D01*
X128173345Y-68177890D01*
X128167016Y-68170587D01*
X128162106Y-68167890D01*
X128157788Y-68159936D01*
X128142615Y-68142426D01*
X128142244Y-68141784D01*
X128140485Y-68138737D01*
X128061263Y-68059515D01*
X127964237Y-68003497D01*
X127856018Y-67974500D01*
X127743982Y-67974500D01*
X127635763Y-68003497D01*
X127635760Y-68003498D01*
X127538740Y-68059513D01*
X127538734Y-68059517D01*
X127459517Y-68138734D01*
X127459513Y-68138740D01*
X127457385Y-68142426D01*
X127454776Y-68144913D01*
X127454567Y-68145186D01*
X127454524Y-68145153D01*
X127406816Y-68190640D01*
X127338209Y-68203860D01*
X127273345Y-68177890D01*
X127242615Y-68142426D01*
X127242244Y-68141784D01*
X127240485Y-68138737D01*
X127161263Y-68059515D01*
X127064237Y-68003497D01*
X126956018Y-67974500D01*
X126843982Y-67974500D01*
X126735763Y-68003497D01*
X126735760Y-68003498D01*
X126638740Y-68059513D01*
X126638734Y-68059517D01*
X126559517Y-68138734D01*
X126559513Y-68138740D01*
X126503498Y-68235760D01*
X126503497Y-68235763D01*
X126474500Y-68343982D01*
X126474500Y-68456018D01*
X126503497Y-68564237D01*
X126559515Y-68661263D01*
X126638737Y-68740485D01*
X126641784Y-68742244D01*
X126642426Y-68742615D01*
X126644913Y-68745223D01*
X126645186Y-68745433D01*
X126645153Y-68745475D01*
X126690640Y-68793184D01*
X126703860Y-68861791D01*
X126677890Y-68926655D01*
X126642426Y-68957385D01*
X126638740Y-68959513D01*
X126638734Y-68959517D01*
X126559517Y-69038734D01*
X126559513Y-69038740D01*
X126503498Y-69135760D01*
X126503497Y-69135763D01*
X126474500Y-69243982D01*
X126474500Y-69356018D01*
X126499596Y-69449676D01*
X126503497Y-69464236D01*
X126503498Y-69464239D01*
X126517249Y-69488057D01*
X126559515Y-69561263D01*
X126638737Y-69640485D01*
X126735763Y-69696503D01*
X126843982Y-69725500D01*
X126843984Y-69725500D01*
X126956016Y-69725500D01*
X126956018Y-69725500D01*
X127064237Y-69696503D01*
X127161263Y-69640485D01*
X127240485Y-69561263D01*
X127242613Y-69557576D01*
X127245220Y-69555090D01*
X127245433Y-69554814D01*
X127245476Y-69554847D01*
X127293179Y-69509362D01*
X127361786Y-69496138D01*
X127426651Y-69522106D01*
X127457386Y-69557576D01*
X127459515Y-69561263D01*
X127538737Y-69640485D01*
X127635763Y-69696503D01*
X127743982Y-69725500D01*
X127743984Y-69725500D01*
X127856016Y-69725500D01*
X127856018Y-69725500D01*
X127964237Y-69696503D01*
X128061263Y-69640485D01*
X128140485Y-69561263D01*
X128142613Y-69557576D01*
X128145220Y-69555090D01*
X128145433Y-69554814D01*
X128145476Y-69554847D01*
X128193179Y-69509362D01*
X128261786Y-69496138D01*
X128326651Y-69522106D01*
X128357386Y-69557576D01*
X128359515Y-69561263D01*
X128438737Y-69640485D01*
X128535763Y-69696503D01*
X128643982Y-69725500D01*
X128643984Y-69725500D01*
X128756015Y-69725500D01*
X128756018Y-69725500D01*
X128818410Y-69708782D01*
X128888256Y-69710445D01*
X128946118Y-69749607D01*
X128973623Y-69813835D01*
X128974500Y-69828557D01*
X128974500Y-69856018D01*
X129003497Y-69964237D01*
X129059515Y-70061263D01*
X129138737Y-70140485D01*
X129235763Y-70196503D01*
X129343982Y-70225500D01*
X129343984Y-70225500D01*
X129456016Y-70225500D01*
X129456018Y-70225500D01*
X129564237Y-70196503D01*
X129638500Y-70153626D01*
X129706400Y-70137154D01*
X129772427Y-70160006D01*
X129815618Y-70214928D01*
X129824500Y-70261014D01*
X129824500Y-71300500D01*
X129804815Y-71367539D01*
X129752011Y-71413294D01*
X129700500Y-71424500D01*
X129230252Y-71424500D01*
X129174190Y-71435651D01*
X129125810Y-71435651D01*
X129069748Y-71424500D01*
X128580252Y-71424500D01*
X128580247Y-71424500D01*
X128521770Y-71436131D01*
X128521769Y-71436132D01*
X128455447Y-71480447D01*
X128411132Y-71546769D01*
X128411131Y-71546770D01*
X128399500Y-71605247D01*
X128399500Y-72307745D01*
X128379815Y-72374784D01*
X128363181Y-72395426D01*
X128075426Y-72683181D01*
X128014103Y-72716666D01*
X127987745Y-72719500D01*
X127639866Y-72719500D01*
X127572827Y-72699815D01*
X127568743Y-72697075D01*
X127568317Y-72696776D01*
X127509662Y-72669425D01*
X127459487Y-72646028D01*
X127459485Y-72646027D01*
X127459486Y-72646027D01*
X127409901Y-72639500D01*
X126990105Y-72639500D01*
X126974386Y-72641569D01*
X126940513Y-72646028D01*
X126940511Y-72646029D01*
X126940509Y-72646029D01*
X126831683Y-72696776D01*
X126815279Y-72713181D01*
X126788351Y-72727884D01*
X126762533Y-72744477D01*
X126756332Y-72745368D01*
X126753956Y-72746666D01*
X126727598Y-72749500D01*
X126585480Y-72749500D01*
X126518441Y-72729815D01*
X126484968Y-72693371D01*
X126483311Y-72694595D01*
X126447467Y-72646028D01*
X126397150Y-72577850D01*
X126287882Y-72497207D01*
X126287880Y-72497206D01*
X126159700Y-72452353D01*
X126129270Y-72449500D01*
X126129266Y-72449500D01*
X125070734Y-72449500D01*
X125070730Y-72449500D01*
X125040300Y-72452353D01*
X125040298Y-72452353D01*
X124912119Y-72497206D01*
X124912117Y-72497207D01*
X124830843Y-72557190D01*
X124802850Y-72577850D01*
X124752534Y-72646027D01*
X124716689Y-72694595D01*
X124714714Y-72693137D01*
X124675420Y-72733515D01*
X124614520Y-72749500D01*
X121510339Y-72749500D01*
X121510323Y-72749499D01*
X121502727Y-72749499D01*
X121397274Y-72749499D01*
X121295413Y-72776793D01*
X121295411Y-72776793D01*
X121295411Y-72776794D01*
X121204084Y-72829522D01*
X118879522Y-75154084D01*
X118879518Y-75154090D01*
X118826792Y-75245412D01*
X118826793Y-75245413D01*
X118799500Y-75347273D01*
X118799500Y-76433853D01*
X118779815Y-76500892D01*
X118727011Y-76546647D01*
X118722953Y-76548414D01*
X118552403Y-76619057D01*
X118380342Y-76734024D01*
X118234024Y-76880342D01*
X118119058Y-77052403D01*
X118039870Y-77243579D01*
X118039868Y-77243587D01*
X117999500Y-77446530D01*
X117999500Y-77653469D01*
X118039868Y-77856412D01*
X118039870Y-77856420D01*
X118119058Y-78047596D01*
X118234024Y-78219657D01*
X118380342Y-78365975D01*
X118380345Y-78365977D01*
X118540367Y-78472899D01*
X118585170Y-78526509D01*
X118593878Y-78595834D01*
X118563724Y-78658862D01*
X118504282Y-78695581D01*
X118471477Y-78700000D01*
X118400029Y-78700000D01*
X118400012Y-78700001D01*
X118297302Y-78710494D01*
X118130880Y-78765641D01*
X118130875Y-78765643D01*
X117981654Y-78857684D01*
X117857684Y-78981654D01*
X117765643Y-79130875D01*
X117765641Y-79130880D01*
X117710494Y-79297302D01*
X117710493Y-79297309D01*
X117700000Y-79400013D01*
X110450500Y-79400013D01*
X110450500Y-67830247D01*
X113769500Y-67830247D01*
X113769500Y-70369752D01*
X113781131Y-70428229D01*
X113781132Y-70428230D01*
X113825447Y-70494552D01*
X113891769Y-70538867D01*
X113891770Y-70538868D01*
X113950247Y-70550499D01*
X113950250Y-70550500D01*
X113950252Y-70550500D01*
X115689750Y-70550500D01*
X115689751Y-70550499D01*
X115704568Y-70547552D01*
X115748229Y-70538868D01*
X115748229Y-70538867D01*
X115748231Y-70538867D01*
X115814552Y-70494552D01*
X115858867Y-70428231D01*
X115858867Y-70428229D01*
X115858868Y-70428229D01*
X115870499Y-70369752D01*
X115870500Y-70369750D01*
X115870500Y-70066048D01*
X115890185Y-69999009D01*
X115942989Y-69953254D01*
X116012147Y-69943310D01*
X116075703Y-69972335D01*
X116105938Y-70014264D01*
X116106694Y-70013879D01*
X116205379Y-70207557D01*
X116330272Y-70379459D01*
X116330276Y-70379464D01*
X116480535Y-70529723D01*
X116480540Y-70529727D01*
X116652442Y-70654620D01*
X116841782Y-70751095D01*
X117043871Y-70816757D01*
X117110000Y-70827231D01*
X117110000Y-69648482D01*
X117128409Y-69659111D01*
X117281009Y-69700000D01*
X117438991Y-69700000D01*
X117591591Y-69659111D01*
X117610000Y-69648482D01*
X117610000Y-70827230D01*
X117676126Y-70816757D01*
X117676129Y-70816757D01*
X117878217Y-70751095D01*
X118067557Y-70654620D01*
X118239459Y-70529727D01*
X118239464Y-70529723D01*
X118389723Y-70379464D01*
X118389727Y-70379459D01*
X118514620Y-70207557D01*
X118611095Y-70018217D01*
X118668343Y-69842026D01*
X118707780Y-69784351D01*
X118772139Y-69757152D01*
X118840985Y-69769066D01*
X118892461Y-69816310D01*
X118900833Y-69832887D01*
X118969059Y-69997598D01*
X119011596Y-70061259D01*
X119084024Y-70169657D01*
X119230342Y-70315975D01*
X119230345Y-70315977D01*
X119402402Y-70430941D01*
X119593580Y-70510130D01*
X119738052Y-70538867D01*
X119796530Y-70550499D01*
X119796534Y-70550500D01*
X119796535Y-70550500D01*
X120003466Y-70550500D01*
X120003467Y-70550499D01*
X120206420Y-70510130D01*
X120397598Y-70430941D01*
X120569655Y-70315977D01*
X120715977Y-70169655D01*
X120830941Y-69997598D01*
X120910130Y-69806420D01*
X120950500Y-69603465D01*
X120950500Y-68596535D01*
X120910130Y-68393580D01*
X120830941Y-68202402D01*
X120715977Y-68030345D01*
X120715975Y-68030342D01*
X120569655Y-67884022D01*
X120405609Y-67774411D01*
X120360804Y-67720799D01*
X120350500Y-67671309D01*
X120350500Y-64987966D01*
X120370185Y-64920927D01*
X120386819Y-64900284D01*
X120401586Y-64885517D01*
X120460490Y-64826614D01*
X120477939Y-64796392D01*
X120519798Y-64723889D01*
X120519800Y-64723885D01*
X120534437Y-64669256D01*
X120550499Y-64609309D01*
X120550499Y-64490691D01*
X120527812Y-64406018D01*
X120519800Y-64376114D01*
X120519798Y-64376110D01*
X120460494Y-64273392D01*
X120460488Y-64273384D01*
X120376615Y-64189511D01*
X120376607Y-64189505D01*
X120273889Y-64130201D01*
X120273885Y-64130199D01*
X120159310Y-64099501D01*
X120159309Y-64099501D01*
X120040691Y-64099501D01*
X120040689Y-64099501D01*
X119926114Y-64130199D01*
X119926110Y-64130201D01*
X119823392Y-64189505D01*
X119823384Y-64189511D01*
X119539513Y-64473383D01*
X119539509Y-64473389D01*
X119480201Y-64576112D01*
X119480200Y-64576117D01*
X119449500Y-64690691D01*
X119449500Y-67671309D01*
X119429815Y-67738348D01*
X119394391Y-67774411D01*
X119230344Y-67884022D01*
X119084024Y-68030342D01*
X118969057Y-68202403D01*
X118900835Y-68367108D01*
X118856994Y-68421511D01*
X118790700Y-68443576D01*
X118723000Y-68426297D01*
X118675390Y-68375159D01*
X118668343Y-68357973D01*
X118611095Y-68181782D01*
X118514620Y-67992442D01*
X118389727Y-67820540D01*
X118389723Y-67820535D01*
X118239464Y-67670276D01*
X118239459Y-67670272D01*
X118067557Y-67545379D01*
X117878215Y-67448903D01*
X117676124Y-67383241D01*
X117610000Y-67372768D01*
X117610000Y-68551517D01*
X117591591Y-68540889D01*
X117438991Y-68500000D01*
X117281009Y-68500000D01*
X117128409Y-68540889D01*
X117110000Y-68551517D01*
X117110000Y-67372768D01*
X117109999Y-67372768D01*
X117043875Y-67383241D01*
X116841784Y-67448903D01*
X116652442Y-67545379D01*
X116480540Y-67670272D01*
X116480535Y-67670276D01*
X116330276Y-67820535D01*
X116330272Y-67820540D01*
X116205379Y-67992442D01*
X116106694Y-68186121D01*
X116105678Y-68185603D01*
X116065212Y-68235813D01*
X115998916Y-68257872D01*
X115931218Y-68240588D01*
X115883612Y-68189447D01*
X115870500Y-68133951D01*
X115870500Y-67830249D01*
X115870499Y-67830247D01*
X115858868Y-67771770D01*
X115858867Y-67771769D01*
X115814552Y-67705447D01*
X115748230Y-67661132D01*
X115748229Y-67661131D01*
X115689752Y-67649500D01*
X115689748Y-67649500D01*
X113950252Y-67649500D01*
X113950247Y-67649500D01*
X113891770Y-67661131D01*
X113891769Y-67661132D01*
X113825447Y-67705447D01*
X113781132Y-67771769D01*
X113781131Y-67771770D01*
X113769500Y-67830247D01*
X110450500Y-67830247D01*
X110450500Y-61525013D01*
X112850000Y-61525013D01*
X112850000Y-62050000D01*
X113795854Y-62050000D01*
X113757370Y-62116657D01*
X113725000Y-62237465D01*
X113725000Y-62362535D01*
X113757370Y-62483343D01*
X113795854Y-62550000D01*
X112850001Y-62550000D01*
X112850001Y-63074986D01*
X112860494Y-63177697D01*
X112915641Y-63344119D01*
X112915643Y-63344124D01*
X113007684Y-63493345D01*
X113131654Y-63617315D01*
X113280875Y-63709356D01*
X113280880Y-63709358D01*
X113447302Y-63764505D01*
X113447309Y-63764506D01*
X113550019Y-63774999D01*
X113949999Y-63774999D01*
X113950000Y-63774998D01*
X113950000Y-62704145D01*
X114016657Y-62742630D01*
X114137465Y-62775000D01*
X114262535Y-62775000D01*
X114383343Y-62742630D01*
X114450000Y-62704145D01*
X114450000Y-63774999D01*
X114849972Y-63774999D01*
X114849986Y-63774998D01*
X114952697Y-63764505D01*
X115119119Y-63709358D01*
X115119124Y-63709356D01*
X115268345Y-63617315D01*
X115392315Y-63493345D01*
X115484356Y-63344124D01*
X115484358Y-63344119D01*
X115539505Y-63177697D01*
X115539506Y-63177690D01*
X115549999Y-63074986D01*
X115549999Y-63003528D01*
X115569683Y-62936488D01*
X115622486Y-62890732D01*
X115691644Y-62880788D01*
X115755200Y-62909812D01*
X115777101Y-62934635D01*
X115884022Y-63094655D01*
X116030342Y-63240975D01*
X116030345Y-63240977D01*
X116202402Y-63355941D01*
X116393580Y-63435130D01*
X116568015Y-63469827D01*
X116596530Y-63475499D01*
X116596534Y-63475500D01*
X116596535Y-63475500D01*
X116803466Y-63475500D01*
X116803467Y-63475499D01*
X117006420Y-63435130D01*
X117197598Y-63355941D01*
X117369655Y-63240977D01*
X117515977Y-63094655D01*
X117630941Y-62922598D01*
X117710130Y-62731420D01*
X117750500Y-62528465D01*
X117750500Y-62071535D01*
X117710130Y-61868580D01*
X117630941Y-61677402D01*
X117515977Y-61505345D01*
X117515975Y-61505342D01*
X117369657Y-61359024D01*
X117264459Y-61288734D01*
X117197598Y-61244059D01*
X117197593Y-61244057D01*
X117006420Y-61164870D01*
X117006412Y-61164868D01*
X116803469Y-61124500D01*
X116803465Y-61124500D01*
X116596535Y-61124500D01*
X116596530Y-61124500D01*
X116393587Y-61164868D01*
X116393579Y-61164870D01*
X116202403Y-61244058D01*
X116030342Y-61359024D01*
X115884024Y-61505342D01*
X115807883Y-61619297D01*
X115778227Y-61663682D01*
X115777102Y-61665365D01*
X115723489Y-61710171D01*
X115654165Y-61718878D01*
X115591137Y-61688724D01*
X115554417Y-61629281D01*
X115549999Y-61596475D01*
X115549999Y-61525028D01*
X115549998Y-61525012D01*
X115539505Y-61422302D01*
X115484358Y-61255880D01*
X115484356Y-61255875D01*
X115392315Y-61106654D01*
X115268345Y-60982684D01*
X115119124Y-60890643D01*
X115119119Y-60890641D01*
X114952697Y-60835494D01*
X114952690Y-60835493D01*
X114849986Y-60825000D01*
X114450000Y-60825000D01*
X114450000Y-61895854D01*
X114383343Y-61857370D01*
X114262535Y-61825000D01*
X114137465Y-61825000D01*
X114016657Y-61857370D01*
X113950000Y-61895854D01*
X113950000Y-60825000D01*
X113550028Y-60825000D01*
X113550012Y-60825001D01*
X113447302Y-60835494D01*
X113280880Y-60890641D01*
X113280875Y-60890643D01*
X113131654Y-60982684D01*
X113007684Y-61106654D01*
X112915643Y-61255875D01*
X112915641Y-61255880D01*
X112860494Y-61422302D01*
X112860493Y-61422309D01*
X112850000Y-61525013D01*
X110450500Y-61525013D01*
X110450500Y-53225013D01*
X112950000Y-53225013D01*
X112950000Y-53750000D01*
X113895854Y-53750000D01*
X113857370Y-53816657D01*
X113825000Y-53937465D01*
X113825000Y-54062535D01*
X113857370Y-54183343D01*
X113895854Y-54250000D01*
X112950001Y-54250000D01*
X112950001Y-54774986D01*
X112960494Y-54877697D01*
X113015641Y-55044119D01*
X113015643Y-55044124D01*
X113107684Y-55193345D01*
X113231654Y-55317315D01*
X113380875Y-55409356D01*
X113380880Y-55409358D01*
X113547302Y-55464505D01*
X113547309Y-55464506D01*
X113650019Y-55474999D01*
X114049999Y-55474999D01*
X114050000Y-55474998D01*
X114050000Y-54404145D01*
X114116657Y-54442630D01*
X114237465Y-54475000D01*
X114362535Y-54475000D01*
X114483343Y-54442630D01*
X114550000Y-54404145D01*
X114550000Y-55474999D01*
X114949972Y-55474999D01*
X114949986Y-55474998D01*
X115052697Y-55464505D01*
X115219119Y-55409358D01*
X115219124Y-55409356D01*
X115368345Y-55317315D01*
X115492315Y-55193345D01*
X115584356Y-55044124D01*
X115584358Y-55044119D01*
X115639505Y-54877697D01*
X115639506Y-54877690D01*
X115649999Y-54774986D01*
X115649999Y-54703528D01*
X115669683Y-54636488D01*
X115722486Y-54590732D01*
X115791644Y-54580788D01*
X115855200Y-54609812D01*
X115877101Y-54634635D01*
X115984022Y-54794655D01*
X116130342Y-54940975D01*
X116130345Y-54940977D01*
X116302402Y-55055941D01*
X116493580Y-55135130D01*
X116696530Y-55175499D01*
X116696534Y-55175500D01*
X116696535Y-55175500D01*
X116903466Y-55175500D01*
X116903467Y-55175499D01*
X117106420Y-55135130D01*
X117297598Y-55055941D01*
X117469655Y-54940977D01*
X117615977Y-54794655D01*
X117730941Y-54622598D01*
X117810130Y-54431420D01*
X117850500Y-54228465D01*
X117850500Y-53771535D01*
X117810130Y-53568580D01*
X117730941Y-53377402D01*
X117615977Y-53205345D01*
X117615975Y-53205342D01*
X117469657Y-53059024D01*
X117368874Y-52991684D01*
X117297598Y-52944059D01*
X117207589Y-52906776D01*
X117106420Y-52864870D01*
X117106412Y-52864868D01*
X116903469Y-52824500D01*
X116903465Y-52824500D01*
X116696535Y-52824500D01*
X116696530Y-52824500D01*
X116493587Y-52864868D01*
X116493579Y-52864870D01*
X116302403Y-52944058D01*
X116130342Y-53059024D01*
X115984024Y-53205342D01*
X115877102Y-53365365D01*
X115823489Y-53410171D01*
X115754165Y-53418878D01*
X115691137Y-53388724D01*
X115654417Y-53329281D01*
X115649999Y-53296475D01*
X115649999Y-53225028D01*
X115649998Y-53225012D01*
X115639505Y-53122302D01*
X115584358Y-52955880D01*
X115584356Y-52955875D01*
X115492315Y-52806654D01*
X115368345Y-52682684D01*
X115219124Y-52590643D01*
X115219119Y-52590641D01*
X115052697Y-52535494D01*
X115052690Y-52535493D01*
X114949986Y-52525000D01*
X114550000Y-52525000D01*
X114550000Y-53595854D01*
X114483343Y-53557370D01*
X114362535Y-53525000D01*
X114237465Y-53525000D01*
X114116657Y-53557370D01*
X114050000Y-53595854D01*
X114050000Y-52525000D01*
X113650028Y-52525000D01*
X113650012Y-52525001D01*
X113547302Y-52535494D01*
X113380880Y-52590641D01*
X113380875Y-52590643D01*
X113231654Y-52682684D01*
X113107684Y-52806654D01*
X113015643Y-52955875D01*
X113015641Y-52955880D01*
X112960494Y-53122302D01*
X112960493Y-53122309D01*
X112950000Y-53225013D01*
X110450500Y-53225013D01*
X110450500Y-41602871D01*
X110450632Y-41597144D01*
X110458809Y-41420287D01*
X111200000Y-41420287D01*
X111200000Y-41779712D01*
X111240240Y-42136851D01*
X111240242Y-42136863D01*
X111320219Y-42487268D01*
X111320220Y-42487270D01*
X111438927Y-42826517D01*
X111594870Y-43150336D01*
X111786092Y-43454664D01*
X111966081Y-43680364D01*
X113284728Y-42361717D01*
X113370278Y-42479466D01*
X113520534Y-42629722D01*
X113638281Y-42715270D01*
X112319634Y-44033916D01*
X112319634Y-44033917D01*
X112545335Y-44213907D01*
X112849663Y-44405129D01*
X113173482Y-44561072D01*
X113512729Y-44679779D01*
X113512731Y-44679780D01*
X113863136Y-44759757D01*
X113863148Y-44759759D01*
X114220287Y-44799999D01*
X114220289Y-44800000D01*
X114579711Y-44800000D01*
X114579712Y-44799999D01*
X114936851Y-44759759D01*
X114936863Y-44759757D01*
X115287268Y-44679780D01*
X115287270Y-44679779D01*
X115626517Y-44561072D01*
X115950336Y-44405129D01*
X116254664Y-44213907D01*
X116480364Y-44033916D01*
X115161718Y-42715270D01*
X115279466Y-42629722D01*
X115429722Y-42479466D01*
X115515270Y-42361718D01*
X116833916Y-43680364D01*
X117013907Y-43454664D01*
X117205129Y-43150336D01*
X117361072Y-42826517D01*
X117479779Y-42487270D01*
X117479780Y-42487268D01*
X117559757Y-42136863D01*
X117559759Y-42136851D01*
X117599999Y-41779712D01*
X117600000Y-41779710D01*
X117600000Y-41420289D01*
X117599999Y-41420287D01*
X117575936Y-41206719D01*
X117575936Y-41206718D01*
X117574698Y-41195730D01*
X120424500Y-41195730D01*
X120424500Y-42004269D01*
X120427353Y-42034699D01*
X120427353Y-42034701D01*
X120472206Y-42162880D01*
X120472207Y-42162882D01*
X120552850Y-42272150D01*
X120662118Y-42352793D01*
X120704845Y-42367744D01*
X120790299Y-42397646D01*
X120820730Y-42400500D01*
X120820734Y-42400500D01*
X122179270Y-42400500D01*
X122209699Y-42397646D01*
X122209701Y-42397646D01*
X122273790Y-42375219D01*
X122337882Y-42352793D01*
X122447150Y-42272150D01*
X122527793Y-42162882D01*
X122550219Y-42098790D01*
X122572646Y-42034701D01*
X122572646Y-42034699D01*
X122575500Y-42004269D01*
X122575500Y-41420287D01*
X143800000Y-41420287D01*
X143800000Y-41779712D01*
X143840240Y-42136851D01*
X143840242Y-42136863D01*
X143920219Y-42487268D01*
X143920220Y-42487270D01*
X144038927Y-42826517D01*
X144194870Y-43150336D01*
X144386092Y-43454664D01*
X144566081Y-43680364D01*
X145884728Y-42361717D01*
X145970278Y-42479466D01*
X146120534Y-42629722D01*
X146238281Y-42715270D01*
X144919634Y-44033916D01*
X144919634Y-44033917D01*
X145145335Y-44213907D01*
X145449663Y-44405129D01*
X145773482Y-44561072D01*
X146112729Y-44679779D01*
X146112731Y-44679780D01*
X146463136Y-44759757D01*
X146463148Y-44759759D01*
X146820287Y-44799999D01*
X146820289Y-44800000D01*
X147179711Y-44800000D01*
X147179712Y-44799999D01*
X147536851Y-44759759D01*
X147536863Y-44759757D01*
X147887268Y-44679780D01*
X147887270Y-44679779D01*
X148226517Y-44561072D01*
X148550336Y-44405129D01*
X148854664Y-44213907D01*
X149080364Y-44033916D01*
X147761718Y-42715270D01*
X147879466Y-42629722D01*
X148029722Y-42479466D01*
X148115270Y-42361718D01*
X149433916Y-43680364D01*
X149613907Y-43454664D01*
X149805129Y-43150336D01*
X149961072Y-42826517D01*
X150079779Y-42487270D01*
X150079780Y-42487268D01*
X150159757Y-42136863D01*
X150159759Y-42136851D01*
X150199999Y-41779712D01*
X150200000Y-41779710D01*
X150200000Y-41420289D01*
X150199999Y-41420287D01*
X150159759Y-41063148D01*
X150159757Y-41063136D01*
X150079780Y-40712731D01*
X150079779Y-40712729D01*
X149961072Y-40373482D01*
X149805129Y-40049663D01*
X149613907Y-39745335D01*
X149433916Y-39519634D01*
X148115270Y-40838281D01*
X148029722Y-40720534D01*
X147879466Y-40570278D01*
X147761716Y-40484728D01*
X149080364Y-39166081D01*
X148854664Y-38986092D01*
X148550336Y-38794870D01*
X148226517Y-38638927D01*
X147887270Y-38520220D01*
X147887268Y-38520219D01*
X147536863Y-38440242D01*
X147536851Y-38440240D01*
X147179712Y-38400000D01*
X146820287Y-38400000D01*
X146463148Y-38440240D01*
X146463136Y-38440242D01*
X146112731Y-38520219D01*
X146112729Y-38520220D01*
X145773482Y-38638927D01*
X145449663Y-38794870D01*
X145145335Y-38986092D01*
X144919634Y-39166081D01*
X146238282Y-40484729D01*
X146120534Y-40570278D01*
X145970278Y-40720534D01*
X145884729Y-40838282D01*
X144566081Y-39519634D01*
X144386092Y-39745335D01*
X144194870Y-40049663D01*
X144038927Y-40373482D01*
X143920220Y-40712729D01*
X143920219Y-40712731D01*
X143840242Y-41063136D01*
X143840240Y-41063148D01*
X143800000Y-41420287D01*
X122575500Y-41420287D01*
X122575500Y-41195730D01*
X122572646Y-41165300D01*
X122572646Y-41165298D01*
X122527793Y-41037119D01*
X122527792Y-41037117D01*
X122514082Y-41018540D01*
X122447150Y-40927850D01*
X122337882Y-40847207D01*
X122337880Y-40847206D01*
X122209700Y-40802353D01*
X122179270Y-40799500D01*
X122179266Y-40799500D01*
X120820734Y-40799500D01*
X120820730Y-40799500D01*
X120790300Y-40802353D01*
X120790298Y-40802353D01*
X120662119Y-40847206D01*
X120662117Y-40847207D01*
X120552850Y-40927850D01*
X120472207Y-41037117D01*
X120472206Y-41037119D01*
X120427353Y-41165298D01*
X120427353Y-41165300D01*
X120424500Y-41195730D01*
X117574698Y-41195730D01*
X117559760Y-41063150D01*
X117559757Y-41063136D01*
X117479780Y-40712731D01*
X117479779Y-40712729D01*
X117361072Y-40373482D01*
X117205129Y-40049663D01*
X117013907Y-39745335D01*
X116833916Y-39519634D01*
X115515270Y-40838281D01*
X115429722Y-40720534D01*
X115279466Y-40570278D01*
X115161716Y-40484728D01*
X116480364Y-39166081D01*
X116254664Y-38986092D01*
X115950336Y-38794870D01*
X115626517Y-38638927D01*
X115287270Y-38520220D01*
X115287268Y-38520219D01*
X114936863Y-38440242D01*
X114936851Y-38440240D01*
X114579712Y-38400000D01*
X114220287Y-38400000D01*
X113863148Y-38440240D01*
X113863136Y-38440242D01*
X113512731Y-38520219D01*
X113512729Y-38520220D01*
X113173482Y-38638927D01*
X112849663Y-38794870D01*
X112545335Y-38986092D01*
X112319634Y-39166081D01*
X113638282Y-40484729D01*
X113520534Y-40570278D01*
X113370278Y-40720534D01*
X113284729Y-40838282D01*
X111966081Y-39519634D01*
X111786092Y-39745335D01*
X111594870Y-40049663D01*
X111438927Y-40373482D01*
X111320220Y-40712729D01*
X111320219Y-40712731D01*
X111240242Y-41063136D01*
X111240240Y-41063148D01*
X111200000Y-41420287D01*
X110458809Y-41420287D01*
X110459234Y-41411086D01*
X110467083Y-41241309D01*
X110468140Y-41229905D01*
X110516958Y-40879944D01*
X110519058Y-40868708D01*
X110599961Y-40524732D01*
X110603084Y-40513753D01*
X110715387Y-40178685D01*
X110719510Y-40168046D01*
X110862245Y-39844781D01*
X110867328Y-39834572D01*
X111039278Y-39525862D01*
X111045304Y-39516130D01*
X111244999Y-39224612D01*
X111251881Y-39215498D01*
X111477627Y-38943643D01*
X111485332Y-38935190D01*
X111735190Y-38685332D01*
X111743630Y-38677636D01*
X112015498Y-38451881D01*
X112024612Y-38444999D01*
X112316136Y-38245300D01*
X112325862Y-38239278D01*
X112634572Y-38067328D01*
X112644781Y-38062245D01*
X112968046Y-37919510D01*
X112978685Y-37915387D01*
X113313753Y-37803084D01*
X113324732Y-37799961D01*
X113668708Y-37719058D01*
X113679944Y-37716958D01*
X114029914Y-37668139D01*
X114041300Y-37667083D01*
X114397145Y-37650632D01*
X114402872Y-37650500D01*
X114444170Y-37650500D01*
X146955830Y-37650500D01*
X146997128Y-37650500D01*
X147002855Y-37650632D01*
G37*
G04 #@! TD.AperFunction*
M02*
