M48
; DRILL file {KiCad 9.0.0} date 2025-04-11T10:18:56+0200
; FORMAT={-:-/ absolute / metric / decimal}
; #@! TF.CreationDate,2025-04-11T10:18:56+02:00
; #@! TF.GenerationSoftware,Kicad,Pcbnew,9.0.0
; #@! TF.FileFunction,Plated,1,4,PTH
FMAT,2
METRIC
; #@! TA.AperFunction,Plated,PTH,ViaDrill
T1C0.300
; #@! TA.AperFunction,Plated,PTH,ComponentDrill
T2C0.750
; #@! TA.AperFunction,Plated,PTH,ComponentDrill
T3C0.950
; #@! TA.AperFunction,Plated,PTH,ComponentDrill
T4C1.000
; #@! TA.AperFunction,Plated,PTH,ComponentDrill
T5C1.200
; #@! TA.AperFunction,Plated,PTH,ComponentDrill
T6C2.700
%
G90
G05
T1
X110.95Y-42.95
X110.95Y-45.49
X110.95Y-48.03
X110.95Y-50.57
X110.95Y-53.11
X110.95Y-55.65
X110.95Y-58.19
X110.95Y-60.73
X110.95Y-63.27
X110.95Y-65.81
X110.95Y-68.35
X110.95Y-70.89
X110.95Y-73.43
X110.95Y-75.97
X110.95Y-78.51
X110.95Y-81.05
X110.95Y-83.59
X112.5Y-56.3
X112.5Y-58.84
X112.6Y-71.5
X112.6Y-74.04
X112.6Y-76.25
X112.6Y-78.79
X112.6Y-81.33
X112.65Y-64.35
X112.65Y-66.89
X113.35Y-45.5
X113.35Y-48.05
X113.35Y-50.59
X115.04Y-56.3
X115.04Y-58.84
X115.14Y-71.5
X115.14Y-74.04
X115.14Y-76.25
X115.14Y-78.79
X115.14Y-81.33
X115.19Y-64.35
X115.19Y-66.89
X115.55Y-89.15
X115.89Y-45.5
X115.89Y-48.05
X115.89Y-50.59
X116.94Y-38.0
X117.58Y-56.3
X117.58Y-58.84
X117.68Y-71.5
X117.68Y-74.04
X117.73Y-64.35
X117.73Y-66.89
X118.09Y-89.15
X118.1Y-82.2
X118.1Y-84.74
X118.1Y-87.28
X118.4Y-39.4
X118.4Y-41.94
X118.43Y-45.5
X118.43Y-48.04
X118.43Y-50.58
X119.48Y-38.0
X120.0Y-75.9
X120.1Y-64.55
X120.12Y-56.3
X120.12Y-58.84
X120.6Y-61.85
X120.63Y-89.15
X120.64Y-82.2
X120.64Y-84.74
X120.64Y-87.28
X120.8Y-74.9
X121.75Y-73.95
X121.85Y-55.45
X121.9Y-76.55
X121.9Y-79.09
X122.02Y-38.0
X122.3Y-58.05
X122.3Y-60.2
X122.3Y-64.5
X122.3Y-66.84
X122.3Y-69.8
X122.3Y-71.92
X123.17Y-89.15
X123.18Y-82.2
X123.18Y-84.74
X123.18Y-87.28
X123.5Y-47.4
X123.5Y-49.94
X123.5Y-52.48
X123.5Y-73.95
X123.55Y-57.1
X123.65Y-59.0
X124.25Y-55.25
X124.44Y-76.55
X124.44Y-79.09
X124.55Y-39.4
X124.55Y-41.94
X124.55Y-44.48
X124.56Y-38.0
X124.65Y-59.0
X124.84Y-71.92
X125.3Y-68.4
X125.3Y-69.3
X125.35Y-60.65
X125.45Y-49.1
X125.45Y-51.64
X125.6Y-62.75
X125.65Y-59.0
X125.71Y-89.15
X125.72Y-82.2
X125.72Y-84.74
X125.72Y-87.28
X125.75Y-57.05
X126.65Y-62.1
X126.9Y-68.4
X126.9Y-69.3
X126.98Y-76.55
X126.98Y-79.09
X127.09Y-39.4
X127.09Y-41.94
X127.09Y-44.48
X127.1Y-38.0
X127.38Y-71.92
X127.55Y-54.3
X127.8Y-68.4
X127.8Y-69.3
X127.99Y-49.1
X128.25Y-89.15
X128.26Y-87.28
X128.7Y-56.8
X128.7Y-58.3
X128.7Y-59.7
X128.7Y-60.95
X128.7Y-67.7
X128.7Y-68.4
X128.7Y-69.3
X128.75Y-74.05
X128.9Y-65.5
X128.9Y-66.5
X129.0Y-77.05
X129.1Y-82.8
X129.4Y-69.8
X129.4Y-71.1
X129.63Y-39.4
X129.63Y-41.94
X129.63Y-44.48
X129.64Y-38.0
X130.0Y-57.4
X130.1Y-59.7
X130.14Y-61.5
X130.2Y-81.9
X130.45Y-75.1
X130.5Y-65.8
X130.5Y-66.65
X130.5Y-67.75
X130.5Y-68.6
X130.53Y-49.1
X130.53Y-51.64
X130.55Y-74.1
X130.79Y-89.15
X130.8Y-87.28
X130.851Y-60.15
X130.95Y-52.7
X130.95Y-64.727
X131.14Y-61.5
X131.236Y-74.512
X131.45Y-52.075
X131.54Y-77.05
X131.6Y-60.7
X131.656Y-65.325
X132.14Y-61.5
X132.17Y-39.4
X132.17Y-41.94
X132.17Y-44.48
X132.18Y-38.0
X132.35Y-81.9
X132.571Y-65.392
X132.6Y-55.8
X132.6Y-57.4
X133.33Y-89.15
X133.34Y-87.28
X133.4Y-75.0
X133.45Y-67.25
X133.554Y-65.526
X133.7Y-83.25
X133.8Y-56.875
X134.0Y-70.2
X134.0Y-71.0
X134.05Y-64.2
X134.08Y-58.5
X134.08Y-77.05
X134.1Y-55.8
X134.1Y-61.1
X134.35Y-65.45
X134.471Y-74.971
X134.6Y-50.8
X134.65Y-68.45
X134.65Y-69.5
X134.71Y-39.4
X134.71Y-41.94
X134.71Y-44.48
X134.72Y-38.0
X134.9Y-53.9
X135.1Y-81.7
X135.15Y-84.7
X135.381Y-74.804
X135.75Y-62.5
X135.84Y-82.4
X135.87Y-89.15
X135.88Y-87.28
X136.0Y-49.45
X136.1Y-63.6
X136.48Y-83.06
X136.62Y-77.05
X136.98Y-66.9
X137.0Y-53.9
X137.0Y-69.4
X137.0Y-70.3
X137.0Y-71.0
X137.0Y-71.7
X137.0Y-72.4
X137.0Y-73.1
X137.05Y-74.7
X137.17Y-61.52
X137.2Y-57.4
X137.25Y-39.4
X137.25Y-41.94
X137.25Y-44.48
X137.25Y-64.7
X137.26Y-38.0
X138.33Y-58.58
X138.41Y-89.15
X138.42Y-87.28
X138.5Y-70.6
X138.5Y-72.6
X138.51Y-61.51
X138.54Y-49.45
X138.87Y-53.89
X139.63Y-58.58
X139.79Y-39.4
X139.79Y-41.94
X139.79Y-44.48
X139.79Y-72.6
X139.8Y-38.0
X139.926Y-60.674
X140.3Y-61.38
X140.93Y-58.58
X141.1Y-61.55
X141.26Y-69.39
X141.35Y-89.15
X141.38Y-62.77
X141.38Y-84.68
X141.38Y-87.22
X141.4Y-64.75
X141.9Y-82.15
X142.17Y-55.77
X142.25Y-59.3
X142.25Y-64.35
X142.34Y-38.0
X142.35Y-39.4
X142.35Y-41.95
X142.35Y-44.45
X142.35Y-46.9
X142.35Y-49.44
X142.35Y-51.98
X143.49Y-89.15
X144.37Y-63.94
X144.37Y-65.44
X144.37Y-66.94
X144.37Y-68.44
X144.37Y-69.94
X144.37Y-71.44
X144.37Y-72.94
X144.45Y-82.2
X144.88Y-38.0
X144.89Y-46.9
X144.89Y-49.44
X144.89Y-51.98
X145.87Y-59.3
X145.87Y-60.8
X145.87Y-62.3
X145.87Y-63.94
X145.87Y-65.44
X145.87Y-66.94
X145.87Y-68.44
X145.87Y-69.94
X145.87Y-71.44
X145.87Y-72.94
X145.99Y-56.56
X146.03Y-89.15
X147.43Y-46.9
X147.43Y-49.44
X147.43Y-51.98
X148.34Y-66.31
X149.12Y-65.2
X149.45Y-82.65
X149.85Y-62.2
X150.5Y-43.3
X150.5Y-45.84
X150.5Y-48.38
X150.5Y-50.92
X150.5Y-53.46
X150.5Y-56.0
X150.5Y-58.54
X150.5Y-61.08
X150.5Y-63.62
X150.5Y-66.16
X150.5Y-68.7
X150.5Y-71.24
X150.5Y-73.78
X150.5Y-76.32
X150.5Y-78.86
X150.5Y-81.4
X150.5Y-83.94
T2
X121.5Y-41.6
X121.5Y-43.6
X121.5Y-45.6
X121.5Y-47.6
T3
X114.2Y-62.3
X114.3Y-54.0
X116.7Y-62.3
X116.8Y-54.0
X119.2Y-62.3
X119.3Y-54.0
X127.4Y-47.2
X129.9Y-47.2
X132.4Y-47.2
X134.9Y-47.2
X137.4Y-47.2
X139.9Y-47.2
T4
X119.2Y-77.55
X119.2Y-80.05
X127.4Y-84.7
X129.9Y-84.7
X137.25Y-84.7
X139.75Y-84.7
X140.08Y-75.0
X140.08Y-77.54
X140.08Y-80.08
X142.62Y-75.0
X142.62Y-77.54
X142.62Y-80.08
X145.16Y-75.0
X145.16Y-77.54
X145.16Y-80.08
X147.7Y-75.0
X147.7Y-77.54
X147.7Y-80.08
T5
X114.82Y-69.1
X117.36Y-69.1
X119.9Y-69.1
T6
X114.4Y-41.6
X114.4Y-85.6
X147.0Y-41.6
X147.0Y-85.6
M30
